<svg width="16" height="17" viewBox="0 0 16 17" fill="none" xmlns="http://www.w3.org/2000/svg">
<path d="M9.07088 11.5709C8.9073 11.5862 8.74309 11.5492 8.60178 11.4654C8.55081 11.4131 8.51225 11.35 8.48897 11.2808C8.46568 11.2115 8.45826 11.1379 8.46725 11.0654C8.47106 10.9432 8.48566 10.8215 8.51087 10.7018C8.53528 10.5645 8.56681 10.4286 8.60541 10.2945L9.0345 8.81815C9.07875 8.67242 9.108 8.52255 9.12178 8.37087C9.12178 8.20725 9.14359 8.0945 9.14359 8.02906C9.1481 7.88509 9.12002 7.74196 9.06146 7.61036C9.0029 7.47876 8.91537 7.36209 8.80541 7.26906C8.53137 7.05869 8.19012 6.95528 7.84541 6.97815C7.59837 6.98187 7.35326 7.02231 7.11813 7.09815C6.86116 7.17815 6.59084 7.2739 6.30722 7.38544L6.18359 7.86544C6.26722 7.83634 6.36906 7.80362 6.48541 7.76725C6.5964 7.73436 6.71146 7.71723 6.82722 7.71634C6.9896 7.69874 7.15302 7.73863 7.28903 7.82906C7.33475 7.88361 7.36895 7.94685 7.38957 8.01498C7.41019 8.0831 7.41681 8.15469 7.40903 8.22544C7.40863 8.34772 7.39522 8.46961 7.36903 8.58906C7.34356 8.71634 7.31084 8.85087 7.27084 8.99269L6.83813 10.4763C6.80325 10.6142 6.77534 10.7538 6.7545 10.8945C6.73751 11.015 6.729 11.1365 6.72903 11.2581C6.72816 11.403 6.76047 11.5462 6.8235 11.6767C6.88653 11.8072 6.9786 11.9215 7.09266 12.0108C7.37092 12.2245 7.71701 12.3304 8.06719 12.309C8.31376 12.3141 8.55949 12.2785 8.79447 12.2036C9.00053 12.1332 9.27569 12.0327 9.61994 11.9017L9.73631 11.4436C9.64306 11.4822 9.54703 11.5138 9.44903 11.5381C9.32509 11.5664 9.19784 11.5774 9.07088 11.5709ZM9.52541 4.5709C9.3275 4.38915 9.06674 4.29137 8.79813 4.29819C8.52964 4.29213 8.26915 4.38981 8.07084 4.5709C7.70734 4.88434 7.66675 5.43312 7.98022 5.79665C8.00815 5.82906 8.03844 5.85935 8.07084 5.88728C8.48497 6.25769 9.11128 6.25769 9.52538 5.88728C9.88888 5.57075 9.92697 5.0195 9.61044 4.656C9.5841 4.6257 9.55569 4.59727 9.52541 4.5709Z" fill="#161616"/>
<path d="M8 0.297852C3.58172 0.297852 0 3.87957 0 8.29785C0 12.7161 3.58172 16.2979 8 16.2979C12.4183 16.2979 16 12.7161 16 8.29785C16 3.87957 12.4183 0.297852 8 0.297852ZM8 15.5706C3.98338 15.5706 0.727281 12.3145 0.727281 8.29785C0.727281 4.28123 3.98338 1.02513 8 1.02513C12.0166 1.02513 15.2727 4.28123 15.2727 8.29785C15.2727 12.3145 12.0166 15.5706 8 15.5706Z" fill="#161616"/>
<path d="M8 0.297852C3.58172 0.297852 0 3.87957 0 8.29785C0 12.7161 3.58172 16.2979 8 16.2979C12.4183 16.2979 16 12.7161 16 8.29785C16 3.87957 12.4183 0.297852 8 0.297852ZM8 15.5706C3.98338 15.5706 0.727281 12.3145 0.727281 8.29785C0.727281 4.28123 3.98338 1.02513 8 1.02513C12.0166 1.02513 15.2727 4.28123 15.2727 8.29785C15.2727 12.3145 12.0166 15.5706 8 15.5706Z" fill="#161616"/>
</svg>
