<svg width="210" height="210" viewBox="0 0 210 210" fill="none" xmlns="http://www.w3.org/2000/svg">
<circle cx="105" cy="105" r="79" fill="#2FA2FF" stroke="white" stroke-width="2"/>
<path d="M197 104.5C197 155.586 155.586 197 104.5 197C53.4137 197 12 155.586 12 104.5C12 53.4137 53.4137 12 104.5 12C155.586 12 197 53.4137 197 104.5ZM24.4595 104.5C24.4595 148.705 60.2949 184.54 104.5 184.54C148.705 184.54 184.54 148.705 184.54 104.5C184.54 60.2949 148.705 24.4595 104.5 24.4595C60.2949 24.4595 24.4595 60.2949 24.4595 104.5Z" fill="#8FD3FB"/>
<path d="M210 105C210 162.99 162.99 210 105 210C47.0101 210 0 162.99 0 105C0 47.0101 47.0101 0 105 0C162.99 0 210 47.0101 210 105ZM14.1433 105C14.1433 155.179 54.8212 195.857 105 195.857C155.179 195.857 195.857 155.179 195.857 105C195.857 54.8212 155.179 14.1433 105 14.1433C54.8212 14.1433 14.1433 54.8212 14.1433 105Z" fill="#CCE7FD"/>
<path d="M134.424 70.328C133.912 70.328 133.464 70.2267 133.08 70.024C132.707 69.8107 132.413 69.5227 132.2 69.16C131.987 68.7867 131.88 68.36 131.88 67.88C131.88 67.3893 131.981 66.9627 132.184 66.6C132.397 66.2267 132.691 65.9387 133.064 65.736C133.448 65.5227 133.901 65.416 134.424 65.416C134.925 65.416 135.368 65.5227 135.752 65.736C136.136 65.9387 136.435 66.2267 136.648 66.6C136.861 66.9627 136.968 67.3893 136.968 67.88C136.968 68.36 136.861 68.7867 136.648 69.16C136.435 69.5227 136.136 69.8107 135.752 70.024C135.368 70.2267 134.925 70.328 134.424 70.328ZM134.44 69.384C134.952 69.384 135.325 69.2453 135.56 68.968C135.805 68.6907 135.928 68.328 135.928 67.88C135.928 67.5707 135.869 67.304 135.752 67.08C135.645 66.8453 135.48 66.664 135.256 66.536C135.043 66.408 134.771 66.344 134.44 66.344C133.917 66.344 133.533 66.4827 133.288 66.76C133.043 67.0373 132.92 67.4107 132.92 67.88C132.92 68.328 133.043 68.6907 133.288 68.968C133.533 69.2453 133.917 69.384 134.44 69.384ZM143.368 66.68C142.76 66.68 142.211 66.7867 141.72 67C141.229 67.2027 140.813 67.5067 140.472 67.912C140.131 68.3067 139.869 68.792 139.688 69.368C139.507 69.9333 139.416 70.5733 139.416 71.288C139.416 72.2267 139.56 73.0427 139.848 73.736C140.147 74.4293 140.584 74.9627 141.16 75.336C141.747 75.7093 142.477 75.896 143.352 75.896C143.853 75.896 144.328 75.8533 144.776 75.768C145.224 75.6827 145.661 75.576 146.088 75.448V76.696C145.661 76.856 145.219 76.9733 144.76 77.048C144.312 77.1227 143.773 77.16 143.144 77.16C141.981 77.16 141.011 76.92 140.232 76.44C139.453 75.96 138.867 75.2773 138.472 74.392C138.088 73.5067 137.896 72.4667 137.896 71.272C137.896 70.408 138.013 69.6187 138.248 68.904C138.493 68.1893 138.845 67.5707 139.304 67.048C139.773 66.5253 140.349 66.1253 141.032 65.848C141.715 65.56 142.499 65.416 143.384 65.416C143.971 65.416 144.536 65.4747 145.08 65.592C145.624 65.7093 146.109 65.8747 146.536 66.088L145.96 67.304C145.608 67.144 145.213 67 144.776 66.872C144.349 66.744 143.88 66.68 143.368 66.68Z" fill="white"/>
<path d="M63.312 124V119.072L78.8 102.88C80.8053 100.789 82.2987 98.8267 83.28 96.992C84.2613 95.1573 84.752 93.2587 84.752 91.296C84.752 88.864 83.984 87.0293 82.448 85.792C80.9547 84.5547 78.7787 83.936 75.92 83.936C73.6587 83.936 71.5253 84.3413 69.52 85.152C67.5573 85.9627 65.6587 87.2 63.824 88.864L61.52 83.808C63.312 82.144 65.5307 80.8213 68.176 79.84C70.864 78.816 73.7013 78.304 76.688 78.304C81.3813 78.304 84.9867 79.3707 87.504 81.504C90.064 83.6373 91.344 86.688 91.344 90.656C91.344 93.472 90.6613 96.1813 89.296 98.784C87.9307 101.344 85.8827 103.989 83.152 106.72L69.776 120.224V118.432H93.2V124H63.312ZM120.183 124V114.656H99.319V109.92L121.271 78.88H126.647V109.472H133.367V114.656H126.647V124H120.183ZM120.183 109.472V86.752H121.655L104.503 111.072V109.472H120.183Z" fill="white"/>
<line x1="104.5" y1="20" x2="104.5" y2="15" stroke="white"/>
<line x1="196" y1="105.5" x2="191" y2="105.5" stroke="white"/>
<line x1="152.569" y1="27.3182" x2="149.387" y2="31.1747" stroke="white"/>
<line x1="178.461" y1="52.4187" x2="174.274" y2="55.1516" stroke="white"/>
<line x1="65.8573" y1="29.1324" x2="62.6189" y2="25.3228" stroke="white"/>
<line x1="20.1669" y1="74.5287" x2="24.88" y2="76.198" stroke="white"/>
<line x1="35.3265" y1="48.6213" x2="39.113" y2="51.8867" stroke="white"/>
<line x1="184.803" y1="77.5132" x2="189.397" y2="75.5409" stroke="white"/>
</svg>
