<svg width="299" height="299" viewBox="0 0 299 299" fill="none" xmlns="http://www.w3.org/2000/svg">
<path d="M46.5361 284.72C46.5361 284.72 36.3701 232.155 36.3701 221.332C36.3701 206.382 47.7919 200.402 47.7919 200.402L43.3428 187.706H67.8249L63.9858 200.33C63.9858 200.33 76.8727 207.165 75.0787 222.683C71.7119 251.704 66.3598 284.714 66.3598 284.714L46.5361 284.72Z" fill="#F5F5F5"/>
<path d="M69.8882 206.382C69.7967 206.39 69.7046 206.39 69.6131 206.382C69.349 206.353 69.0834 206.341 68.8178 206.346C67.7876 206.361 66.7709 206.583 65.8278 206.997C64.3479 207.66 63.0419 208.657 62.0125 209.91C61.3615 210.683 60.7755 211.509 60.2604 212.379C59.6686 213.346 59.1547 214.358 58.7235 215.405C58.2456 216.541 58.0035 217.761 58.0119 218.993C58.0499 220.324 58.5633 221.597 59.4591 222.581C59.9293 223.093 60.5282 223.469 61.1933 223.67C61.8775 223.87 62.6073 223.851 63.2803 223.616C63.9786 223.347 64.6059 222.921 65.1139 222.372C65.6219 221.822 65.997 221.164 66.2105 220.447C66.4197 219.688 66.4358 218.888 66.2572 218.122C66.0785 217.355 65.711 216.645 65.1879 216.057C64.1167 214.785 62.6371 213.925 61.0019 213.623C59.2925 213.362 57.5442 213.568 55.9428 214.221C54.2809 214.878 52.7437 215.814 51.398 216.99C48.6727 219.28 46.7892 222.413 46.0459 225.894C45.703 227.531 45.7357 229.224 46.1416 230.846C46.48 232.405 47.3203 233.81 48.5336 234.846C49.1115 235.337 49.8126 235.659 50.5608 235.779C51.2833 235.89 52.0219 235.744 52.6478 235.367C53.2296 234.968 53.7042 234.432 54.0296 233.806C54.355 233.18 54.5212 232.484 54.5136 231.779C54.5353 231.108 54.4023 230.441 54.1249 229.829C53.8322 229.243 53.4256 228.72 52.9289 228.292C51.9863 227.49 50.8432 226.958 49.622 226.755C47.521 226.421 45.3685 226.802 43.5104 227.838C42.0848 228.608 40.8441 229.679 39.8746 230.977C39.2514 231.791 38.7554 232.694 38.4035 233.656C38.1583 234.314 38.0746 234.679 38.0566 234.673C38.1217 234.319 38.2157 233.971 38.3377 233.632C38.6654 232.65 39.1457 231.726 39.7609 230.894C40.7267 229.561 41.9768 228.46 43.4207 227.67C45.3317 226.581 47.5579 226.178 49.7296 226.528C50.9982 226.731 52.1872 227.277 53.1681 228.107C53.6854 228.554 54.1101 229.099 54.4179 229.71C54.7157 230.36 54.8609 231.07 54.8425 231.785C54.8481 232.538 54.6683 233.281 54.3189 233.948C53.9696 234.616 53.4614 235.187 52.8392 235.612C52.152 236.031 51.3387 236.194 50.5429 236.072C49.7385 235.95 48.9834 235.609 48.3602 235.086C47.078 234.007 46.1869 232.536 45.8247 230.9C45.4006 229.23 45.3617 227.486 45.711 225.799C46.4726 222.252 48.3936 219.06 51.1708 216.727C52.5492 215.525 54.1226 214.566 55.8232 213.892C57.4857 213.225 59.2976 213.018 61.0677 213.294C62.7885 213.608 64.3456 214.513 65.469 215.854C66.0043 216.511 66.3919 217.276 66.6052 218.096C66.811 218.906 66.7882 219.757 66.5394 220.554C66.3086 221.318 65.9056 222.019 65.3613 222.603C64.817 223.186 64.1459 223.637 63.3999 223.921C62.6657 224.172 61.8715 224.189 61.1275 223.969C60.4107 223.746 59.7679 223.332 59.2677 222.773C58.3272 221.725 57.7908 220.377 57.7548 218.969C57.7495 217.695 58.006 216.433 58.5082 215.262C58.9556 214.208 59.4834 213.191 60.087 212.218C60.6126 211.341 61.2128 210.511 61.881 209.736C62.9348 208.471 64.2728 207.473 65.7859 206.824C66.7425 206.418 67.7727 206.214 68.8118 206.226C69.1752 206.238 69.5362 206.29 69.8882 206.382Z" fill="#E0E0E0"/>
<path d="M70.5224 246.089C70.586 246.984 70.5114 247.883 70.3011 248.756C70.0818 249.797 69.7196 250.804 69.2247 251.746C68.5821 252.994 67.7121 254.112 66.6593 255.041C65.3801 256.168 63.8477 256.97 62.1922 257.379C60.2864 257.874 58.2824 257.845 56.3916 257.295C54.3008 256.66 52.4701 255.369 51.1711 253.612C49.7238 251.736 49.0094 249.398 49.1618 247.034C49.2217 245.815 49.7384 244.665 50.609 243.81C51.0647 243.426 51.6106 243.165 52.1954 243.05C52.7801 242.935 53.3845 242.97 53.9518 243.153C54.5004 243.304 55.0125 243.565 55.4566 243.921C55.9008 244.277 56.2678 244.719 56.5351 245.222C57.0102 246.205 57.1306 247.323 56.876 248.385C56.6532 249.389 56.1683 250.315 55.4707 251.07C54.8129 251.77 54.0139 252.323 53.1265 252.691C51.5379 253.336 49.8084 253.554 48.1093 253.325C46.7158 253.152 45.3636 252.735 44.1147 252.093C43.172 251.616 42.2988 251.012 41.5194 250.299C40.8389 249.709 40.2539 249.017 39.7852 248.248C39.8304 248.286 39.8705 248.33 39.9048 248.379L40.2277 248.786C40.6534 249.289 41.1151 249.761 41.6091 250.197C42.3935 250.881 43.264 251.46 44.1984 251.919C45.4316 252.533 46.7638 252.924 48.1332 253.073C49.7868 253.284 51.4669 253.06 53.0069 252.422C53.8556 252.067 54.6183 251.535 55.2435 250.861C55.8969 250.143 56.3505 249.267 56.5591 248.319C56.7908 247.328 56.6768 246.288 56.2361 245.371C55.9859 244.911 55.6449 244.506 55.2338 244.181C54.8226 243.856 54.3499 243.618 53.8441 243.481C53.3357 243.321 52.7951 243.292 52.2723 243.396C51.7496 243.501 51.2618 243.736 50.8541 244.079C50.0499 244.873 49.5757 245.941 49.5266 247.069C49.3743 249.341 50.0498 251.591 51.4282 253.402C52.6771 255.111 54.4456 256.37 56.4694 256.99C58.3052 257.532 60.2533 257.569 62.1085 257.098C63.7292 256.709 65.2326 255.936 66.4918 254.843C67.5331 253.941 68.3987 252.855 69.0453 251.638C69.5459 250.724 69.922 249.746 70.1636 248.732C70.3158 248.091 70.4178 247.439 70.4685 246.782C70.4685 246.573 70.4685 246.406 70.4984 246.268C70.4982 246.208 70.5062 246.147 70.5224 246.089Z" fill="#E0E0E0"/>
<path d="M65.9655 270.857C65.9296 270.923 64.8651 270.349 63.0113 269.811C62.5082 269.661 61.9971 269.539 61.4805 269.446C60.9303 269.321 60.3263 269.261 59.6865 269.177C58.3122 269.046 56.9285 269.046 55.5543 269.177C54.1853 269.344 52.8356 269.643 51.5238 270.068C50.9258 270.289 50.3278 270.481 49.8434 270.726C49.3628 270.938 48.8937 271.176 48.4381 271.438C46.7517 272.37 45.8368 273.166 45.7949 273.106C45.9713 272.894 46.172 272.703 46.3929 272.538C46.6446 272.321 46.9103 272.121 47.1883 271.94C47.5418 271.68 47.9113 271.442 48.2946 271.228C48.7492 270.952 49.2205 270.704 49.7058 270.487C50.2675 270.222 50.8423 269.987 51.4281 269.781C52.7594 269.329 54.1343 269.016 55.5304 268.848C56.922 268.706 58.3247 268.706 59.7164 268.848C60.3192 268.922 60.9179 269.026 61.5104 269.159C62.0329 269.264 62.5483 269.401 63.0532 269.572C63.474 269.698 63.8873 269.847 64.2911 270.02C64.6029 270.137 64.9065 270.275 65.2 270.433C65.4705 270.545 65.7274 270.687 65.9655 270.857Z" fill="#E0E0E0"/>
<path d="M64.2551 201.083C64.0049 201.298 63.7346 201.488 63.4478 201.651C62.9156 202.004 62.1202 202.47 61.1156 203.003C55.8377 205.772 50.0103 207.335 44.0547 207.577C42.9185 207.619 41.9975 207.613 41.3637 207.577C41.0328 207.581 40.7025 207.553 40.377 207.494C40.7035 207.445 41.0338 207.427 41.3637 207.44C41.9975 207.44 42.9125 207.404 44.0427 207.332C49.9402 206.958 55.7038 205.411 60.996 202.781C62.0066 202.279 62.79 201.848 63.388 201.537C63.6641 201.363 63.9541 201.211 64.2551 201.083Z" fill="#E0E0E0"/>
<path d="M67.3404 188.334C67.3404 188.37 66.7424 188.28 65.654 188.274C64.1235 188.279 62.6036 188.527 61.1511 189.01C60.1521 189.342 59.1918 189.781 58.2866 190.319C57.7852 190.621 57.3038 190.954 56.8455 191.318C56.3508 191.685 55.9065 192.115 55.5239 192.598C55.1208 193.085 54.8454 193.664 54.7226 194.284C54.6658 194.598 54.6873 194.921 54.7854 195.225C54.8835 195.528 55.055 195.803 55.2847 196.024C55.7981 196.473 56.4144 196.787 57.0787 196.939C57.7431 197.176 58.4529 197.258 59.1537 197.178C59.4723 197.081 59.7517 196.885 59.9516 196.618C60.1515 196.352 60.2616 196.028 60.266 195.695C60.3166 195.012 60.1736 194.328 59.8534 193.722C59.2584 192.541 58.3035 191.58 57.1265 190.977C56.0698 190.411 54.8978 190.094 53.7 190.05C52.6514 190.03 51.6067 190.183 50.6083 190.505C49.1577 190.991 47.7948 191.708 46.5718 192.628C46.1413 192.957 45.8124 193.226 45.5911 193.399C45.4838 193.501 45.3654 193.592 45.2383 193.668C45.3277 193.55 45.43 193.441 45.5433 193.345C45.7526 193.148 46.0695 192.867 46.4941 192.52C47.7003 191.544 49.0658 190.783 50.5306 190.271C51.5517 189.919 52.6258 189.745 53.706 189.757C54.9569 189.794 56.1834 190.113 57.294 190.69C58.5382 191.318 59.5484 192.328 60.1763 193.572C60.5245 194.236 60.6798 194.984 60.6248 195.731C60.5948 196.125 60.4629 196.504 60.2421 196.832C60.0064 197.173 59.6529 197.416 59.2494 197.513C58.4896 197.615 57.7164 197.533 56.995 197.274C56.2696 197.107 55.5975 196.762 55.0395 196.269C54.7728 196.01 54.5736 195.689 54.4589 195.334C54.3443 194.98 54.3178 194.603 54.3817 194.236C54.52 193.559 54.8241 192.926 55.2667 192.394C55.6694 191.897 56.1336 191.453 56.6481 191.073C57.1206 190.707 57.616 190.371 58.1312 190.068C59.0587 189.53 60.0435 189.096 61.0673 188.776C62.5466 188.304 64.0961 188.09 65.648 188.143C66.0685 188.152 66.4879 188.188 66.9038 188.25C67.052 188.262 67.1983 188.29 67.3404 188.334Z" fill="#E0E0E0"/>
<path d="M108.591 22.5205H32.6094V159.014H108.591V22.5205Z" fill="#EBEBEB"/>
<path d="M104.769 26.4795H35.6465V154.948H104.769V26.4795Z" fill="#FAFAFA"/>
<path d="M111.802 160.24L108.591 159.014V20.2061H111.802V160.24Z" fill="#E0E0E0"/>
<path d="M52.624 109.464C58.604 103.883 64.584 98.3194 70.564 92.774C72.8364 90.663 75.8085 88.3846 78.7327 89.4252C80.144 89.9275 81.2024 91.1295 82.5778 91.7035C85.3346 92.8517 88.4861 91.1952 90.603 89.0903C92.7199 86.9853 94.3943 84.3541 96.9657 82.8292C99.5371 81.3043 103.544 81.5017 104.788 84.2046V102.36L78.6968 113.531L52.624 109.464Z" fill="#F5F5F5"/>
<path d="M35.6465 99.0223C42.2604 96.3313 48.8623 98.6156 53.5865 103.968C54.5792 105.092 55.4881 106.36 56.8575 107.012C58.7113 107.855 60.8522 107.227 62.8794 107.012C65.6609 106.732 68.4655 107.227 70.9827 108.443C73.5 109.659 75.6316 111.548 77.1417 113.901L55.0456 124.76L35.6465 124.623V99.0223Z" fill="#E0E0E0"/>
<path d="M104.769 99.1126C100.416 97.0076 96.5766 99.5551 92.558 102.246C88.5395 104.937 84.784 108.394 80.0897 109.482C76.9383 110.205 73.5596 109.805 70.5217 110.887C64.3145 113.1 60.7265 120.975 54.1545 121.352C50.5665 121.556 47.3791 119.391 44.1918 117.764C41.0044 116.138 38.4928 114.595 35.6523 116.772V154.942H104.769V99.1126Z" fill="#EBEBEB"/>
<path d="M106.27 63.4355H35.6465V64.805H106.27V63.4355Z" fill="#E0E0E0"/>
<path d="M106.27 94.0293H35.6465V95.3987H106.27V94.0293Z" fill="#E0E0E0"/>
<path d="M106.27 124.623H35.6465V125.992H106.27V124.623Z" fill="#E0E0E0"/>
<path d="M68.4648 64.111V158.583H71.9572V64.111H68.4648Z" fill="#E0E0E0"/>
<path d="M50.5427 26.4795H48.958V64.1176H50.5427V26.4795Z" fill="#E0E0E0"/>
<path d="M64.1892 26.4795H62.6045V64.1176H64.1892V26.4795Z" fill="#E0E0E0"/>
<path d="M77.8298 26.4795H76.2451V64.1176H77.8298V26.4795Z" fill="#E0E0E0"/>
<path d="M91.4763 26.4795H89.8916V64.1176H91.4763V26.4795Z" fill="#E0E0E0"/>
<path d="M32.6087 20.2061H29.3975V159.857H32.6087V20.2061Z" fill="#E0E0E0"/>
<path d="M111.802 18.7949H29.3975V22.5205H111.802V18.7949Z" fill="#E0E0E0"/>
<path d="M113.973 160.7H27.1133V164.169H113.973V160.7Z" fill="#E0E0E0"/>
<path d="M108.591 159.014L113.979 160.7H27.1133L32.6089 159.014H108.591Z" fill="#EBEBEB"/>
<path d="M252.804 282.746V103.52H250.586V282.788L232.245 284.163H250.586H252.804H271.145L252.804 282.746Z" fill="#EBEBEB"/>
<path d="M239.026 87.9062L230.792 124.725H272.604L263.198 88.0199L239.026 87.9062Z" fill="#E0E0E0"/>
<path d="M246.693 139.644C246.597 139.644 246.531 135.124 246.543 129.55C246.555 123.977 246.639 119.456 246.735 119.462C246.83 119.468 246.902 123.977 246.884 129.55C246.866 135.124 246.789 139.644 246.693 139.644Z" fill="#E0E0E0"/>
<path d="M246.675 139.573C246.675 139.531 246.974 139.573 247.105 139.949C247.142 140.061 247.151 140.181 247.133 140.297C247.114 140.414 247.068 140.524 246.998 140.619C246.9 140.737 246.767 140.821 246.619 140.857C246.47 140.894 246.314 140.882 246.172 140.822C246.042 140.783 245.926 140.707 245.839 140.603C245.752 140.499 245.697 140.371 245.682 140.236C245.667 140.101 245.692 139.964 245.753 139.843C245.815 139.722 245.911 139.622 246.029 139.555C246.382 139.345 246.627 139.519 246.627 139.555C246.627 139.591 246.406 139.555 246.196 139.758C246.142 139.807 246.098 139.867 246.067 139.934C246.036 140.001 246.019 140.073 246.017 140.147C246.026 140.229 246.06 140.307 246.113 140.371C246.166 140.435 246.237 140.481 246.316 140.505C246.392 140.54 246.477 140.55 246.559 140.535C246.641 140.52 246.717 140.481 246.776 140.422C246.824 140.365 246.858 140.299 246.878 140.228C246.897 140.157 246.901 140.082 246.89 140.009C246.836 139.728 246.651 139.62 246.675 139.573Z" fill="#E0E0E0"/>
<path d="M273.436 26.7188H231.307V70.6359H273.436V26.7188Z" fill="#E0E0E0"/>
<path d="M270.583 26.7188H228.454V70.6359H270.583V26.7188Z" fill="#EBEBEB"/>
<path d="M264.92 32.6211H234.117V64.7337H264.92V32.6211Z" fill="#FAFAFA"/>
<path d="M234.117 64.9424C233.893 65.2591 233.636 65.5516 233.352 65.8155C232.856 66.3357 232.156 67.0115 231.384 67.8008C230.613 68.5902 229.901 69.242 229.375 69.7324C229.11 70.0125 228.815 70.2631 228.496 70.4799C228.724 70.1678 228.98 69.8776 229.262 69.6128C229.758 69.0925 230.458 68.4168 231.229 67.6274C232 66.838 232.718 66.1802 233.244 65.6959C233.509 65.4158 233.802 65.1633 234.117 64.9424Z" fill="#E0E0E0"/>
<path d="M264.914 64.8652C265.231 65.0912 265.524 65.3498 265.787 65.6367C266.307 66.133 266.983 66.8327 267.773 67.5981C268.562 68.3635 269.214 69.0871 269.704 69.6074C269.984 69.8726 270.235 70.1673 270.452 70.4864C270.137 70.2614 269.847 70.0049 269.584 69.721C269.07 69.2247 268.388 68.525 267.599 67.7536C266.81 66.9822 266.152 66.2646 265.668 65.7443C265.386 65.4784 265.134 65.1838 264.914 64.8652Z" fill="#E0E0E0"/>
<path d="M264.836 32.7044C265.066 32.3902 265.324 32.0979 265.607 31.8313C266.104 31.317 266.803 30.6353 267.569 29.8519C268.334 29.0685 269.058 28.4047 269.578 27.9204C269.846 27.6436 270.141 27.3933 270.457 27.1729C270.234 27.4868 269.979 27.7773 269.698 28.04C269.201 28.5542 268.502 29.236 267.73 30.0253C266.959 30.8147 266.241 31.4725 265.721 31.9569C265.454 32.2373 265.157 32.488 264.836 32.7044Z" fill="#E0E0E0"/>
<path d="M234.034 32.7882C233.719 32.5585 233.427 32.3003 233.16 32.0168C232.646 31.5204 231.964 30.8208 231.181 30.0553C230.398 29.2899 229.734 28.5663 229.25 28.0461C228.974 27.7745 228.722 27.4804 228.496 27.167C228.813 27.3908 229.106 27.6474 229.369 27.9324C229.883 28.4228 230.565 29.1284 231.355 29.8999C232.144 30.6713 232.802 31.3889 233.286 31.9091C233.566 32.1743 233.817 32.4691 234.034 32.7882Z" fill="#E0E0E0"/>
<path d="M264.836 64.7333C264.836 64.7333 264.836 64.6795 264.836 64.5778C264.836 64.4761 264.836 64.3207 264.836 64.1293C264.836 63.7286 264.836 63.1486 264.836 62.3951C264.836 60.8822 264.836 58.6696 264.836 55.853C264.836 50.2318 264.806 42.2186 264.782 32.6207L264.884 32.7223H234.171L234.29 32.6087C234.29 44.3953 234.29 55.4224 234.29 64.7213L234.188 64.6197L256.44 64.6735H262.683H264.334H262.725H256.5L234.188 64.7213H234.093V64.6256C234.093 55.3267 234.093 44.2936 234.093 32.513V32.3994H234.212H264.926H264.914V32.5011C264.914 42.1229 264.878 50.16 264.866 55.8231C264.866 58.6277 264.866 60.8283 264.866 62.3413C264.866 63.0888 264.866 63.6629 264.866 64.0575V64.5838C264.859 64.6342 264.849 64.6841 264.836 64.7333Z" fill="#E0E0E0"/>
<path d="M242.25 46.0459C242.25 46.0459 241.586 53.9993 250.198 53.9993C250.198 49.7415 246.699 46.3927 242.25 46.0459Z" fill="#EBEBEB"/>
<path d="M258.001 46.0457C258.001 46.0457 250.054 45.3879 250.054 53.9991C254.294 53.9932 257.642 50.4889 258.001 46.0457Z" fill="#EBEBEB"/>
<path d="M249.814 41.6924C249.814 41.6924 243.32 47.5229 250.173 53.9873C253.36 50.6086 253.085 45.3163 249.814 41.6924Z" fill="#E0E0E0"/>
<path d="M201.484 31.5918H137.055C128.676 31.5918 121.884 38.3842 121.884 46.7631V213.061C121.884 221.44 128.676 228.232 137.055 228.232H201.484C209.862 228.232 216.655 221.44 216.655 213.061V46.7631C216.655 38.3842 209.862 31.5918 201.484 31.5918Z" fill="#FAFAFA"/>
<path d="M201.484 228.232L202.919 228.143C203.392 228.083 203.978 227.993 204.665 227.868L205.766 227.581C206.16 227.479 206.561 227.299 206.998 227.15C209.129 226.313 211.04 224.997 212.583 223.305C213.581 222.242 214.41 221.032 215.041 219.717C215.781 218.233 216.26 216.633 216.458 214.987C216.597 213.136 216.641 211.28 216.589 209.425C216.589 207.468 216.589 205.419 216.589 203.278C216.589 198.99 216.589 194.308 216.589 189.332C216.589 179.328 216.589 167.93 216.589 155.336C216.589 130.148 216.589 100.159 216.554 66.8321V54.2203C216.554 52.0914 216.554 49.9446 216.554 47.7918C216.554 47.2536 216.554 46.7094 216.524 46.1772C216.518 45.6421 216.47 45.1082 216.38 44.5806L216.255 43.7792C216.201 43.5221 216.123 43.259 216.063 43.0018C216.003 42.7447 215.932 42.4756 215.854 42.2184L215.573 41.459C214.809 39.4292 213.609 37.5919 212.057 36.077C210.485 34.5405 208.597 33.3651 206.525 32.6325C205.484 32.2621 204.405 32.0094 203.308 31.879C202.764 31.8013 202.208 31.8073 201.651 31.7714C201.095 31.7355 200.533 31.7714 199.971 31.7714H137.067C134.685 31.7824 132.339 32.3496 130.214 33.4279C128.107 34.502 126.286 36.0643 124.904 37.9846C123.513 39.88 122.6 42.0833 122.243 44.4071L122.111 45.2682L122.07 46.1413C122.028 46.7393 122.07 47.3373 122.07 47.8995V51.4157C122.07 60.7764 122.07 69.9916 122.07 79.0612C122.07 97.1866 122.07 114.666 122.07 131.32C122.07 147.975 122.07 163.798 122.07 178.61C122.07 186.014 122.07 193.158 122.07 200.043C122.07 203.475 122.07 206.848 122.07 210.143C122.023 211.767 122.067 213.392 122.201 215.011C122.393 216.583 122.843 218.112 123.535 219.537C124.183 220.942 125.058 222.231 126.124 223.353C128.163 225.547 130.812 227.08 133.731 227.754C134.08 227.846 134.436 227.912 134.795 227.951C135.146 228.021 135.502 228.067 135.859 228.089C136.571 228.131 137.283 228.167 137.994 228.155H154.021H179.681L195.905 228.184L179.681 228.214H154.021H137.994C137.283 228.214 136.565 228.214 135.842 228.155C135.483 228.155 135.124 228.059 134.765 228.017C134.402 227.973 134.043 227.905 133.689 227.814C132.236 227.481 130.839 226.937 129.545 226.199C128.208 225.444 126.998 224.486 125.957 223.359C124.873 222.224 123.984 220.919 123.325 219.496C122.622 218.05 122.164 216.498 121.968 214.903C121.83 213.274 121.782 211.639 121.824 210.005V200.019C121.824 193.142 121.824 185.998 121.824 178.586C121.824 163.774 121.824 147.951 121.824 131.297C121.824 114.642 121.824 97.1627 121.824 79.0373V47.8755C121.824 47.2775 121.824 46.6795 121.854 46.0815L121.902 45.1905L122.034 44.3115C122.394 41.9318 123.326 39.6748 124.749 37.7334C126.163 35.7752 128.022 34.1807 130.172 33.081C132.34 31.9839 134.733 31.4046 137.163 31.3887H199.923C200.485 31.3887 201.047 31.3887 201.61 31.3887C202.172 31.3887 202.74 31.4246 203.296 31.5023C206.661 31.9046 209.799 33.4102 212.218 35.784C213.804 37.3389 215.029 39.2231 215.806 41.3035L216.087 42.0749C216.171 42.3381 216.231 42.6072 216.302 42.8703C216.374 43.1334 216.44 43.4025 216.5 43.6716L216.625 44.4789C216.714 45.0189 216.764 45.5644 216.775 46.1114C216.811 46.6616 216.775 47.1998 216.805 47.738C216.805 49.8908 216.805 52.0376 216.805 54.1665V66.8082C216.805 100.111 216.805 130.101 216.769 155.312C216.769 167.906 216.769 179.304 216.769 189.309C216.769 194.308 216.769 198.966 216.769 203.254C216.769 205.395 216.769 207.444 216.769 209.401C216.816 211.26 216.768 213.121 216.625 214.975C216.428 216.641 215.941 218.261 215.184 219.759C214.54 221.071 213.703 222.28 212.702 223.347C211.145 225.041 209.217 226.353 207.069 227.18C206.627 227.329 206.226 227.509 205.831 227.604L204.725 227.885C204.031 228.011 203.439 228.095 202.973 228.149L201.484 228.232Z" fill="#263238"/>
<path d="M207.548 43.2346C205.248 43.4419 202.934 43.4419 200.635 43.2346C202.934 43.0273 205.248 43.0273 207.548 43.2346Z" fill="#263238"/>
<path d="M207.548 45.4895C205.248 45.6968 202.934 45.6968 200.635 45.4895C202.934 45.2822 205.248 45.2822 207.548 45.4895Z" fill="#263238"/>
<path d="M207.548 47.7443C205.248 47.9516 202.934 47.9516 200.635 47.7443C202.934 47.537 205.248 47.537 207.548 47.7443Z" fill="#263238"/>
<path d="M159.821 47.7443V45.3523L158.625 47.3317H158.41L157.214 45.3703V47.7264H156.766V44.4912H157.148L158.506 46.7756L159.845 44.4912H160.264V47.7443H159.821Z" fill="#263238"/>
<path d="M163.361 45.2805L162.165 47.9954C161.95 48.5157 161.663 48.6772 161.286 48.6772C161.054 48.6836 160.828 48.6024 160.652 48.4499L160.844 48.115C160.963 48.2297 161.121 48.294 161.286 48.2944C161.502 48.2944 161.633 48.1988 161.759 47.9117L161.836 47.7443L160.748 45.2805H161.214L162.058 47.242L162.907 45.2686L163.361 45.2805Z" fill="#263238"/>
<path d="M167.727 45.6214C167.727 46.3331 167.213 46.7576 166.363 46.7576H165.562V47.7443H165.096V44.4912H166.363C167.213 44.4912 167.727 44.9158 167.727 45.6214ZM167.26 45.6214C167.26 45.161 166.95 44.8919 166.352 44.8919H165.562V46.357H166.352C166.95 46.357 167.26 46.0879 167.26 45.6214Z" fill="#263238"/>
<path d="M169.628 45.2562V45.6868H169.521C169.412 45.6795 169.304 45.6965 169.203 45.7365C169.101 45.7766 169.011 45.8387 168.937 45.9184C168.863 45.9981 168.808 46.0933 168.775 46.197C168.743 46.3007 168.734 46.4104 168.749 46.518V47.714H168.301V45.2802H168.725V45.6928C168.82 45.5431 168.955 45.4229 169.115 45.3458C169.274 45.2686 169.452 45.2376 169.628 45.2562Z" fill="#263238"/>
<path d="M169.921 46.5118C169.917 46.2565 169.988 46.0056 170.126 45.7911C170.265 45.5765 170.464 45.408 170.698 45.307C170.933 45.206 171.192 45.1771 171.443 45.224C171.694 45.2709 171.925 45.3914 172.108 45.5702C172.29 45.749 172.415 45.9781 172.466 46.2281C172.518 46.4781 172.494 46.7379 172.397 46.9742C172.301 47.2105 172.136 47.4127 171.924 47.5551C171.712 47.6975 171.462 47.7735 171.207 47.7735C171.038 47.7819 170.869 47.7551 170.711 47.695C170.553 47.6348 170.409 47.5426 170.288 47.4241C170.167 47.3056 170.072 47.1633 170.009 47.0063C169.946 46.8493 169.916 46.6809 169.921 46.5118ZM172.038 46.5118C172.03 46.3494 171.975 46.193 171.878 46.0619C171.782 45.9309 171.65 45.8308 171.497 45.7743C171.345 45.7178 171.179 45.7072 171.021 45.7438C170.862 45.7804 170.718 45.8627 170.606 45.9805C170.494 46.0982 170.419 46.2463 170.39 46.4063C170.361 46.5662 170.38 46.7312 170.444 46.8806C170.508 47.0301 170.614 47.1575 170.75 47.2472C170.886 47.3368 171.045 47.3846 171.207 47.3848C171.321 47.3877 171.434 47.3667 171.538 47.3232C171.643 47.2798 171.738 47.2148 171.816 47.1326C171.895 47.0504 171.955 46.9526 171.993 46.8457C172.031 46.7388 172.047 46.625 172.038 46.5118Z" fill="#263238"/>
<path d="M173.982 44.2519C174.16 44.2453 174.336 44.2956 174.484 44.3954L174.353 44.7363C174.252 44.6632 174.13 44.6234 174.006 44.6226C173.743 44.6226 173.605 44.7721 173.605 45.0532V45.2685H174.323V45.6333H173.617V47.7322H173.169V45.6452H172.75V45.2804H173.169V45.0592C173.158 44.9501 173.172 44.8401 173.21 44.737C173.247 44.634 173.307 44.5405 173.384 44.4633C173.462 44.3861 173.556 44.3271 173.659 44.2906C173.763 44.254 173.873 44.2408 173.982 44.2519ZM175.04 44.503C175.041 44.4638 175.05 44.425 175.065 44.3891C175.081 44.3531 175.104 44.3206 175.132 44.2933C175.16 44.2661 175.194 44.2448 175.23 44.2305C175.267 44.2162 175.306 44.2092 175.345 44.21C175.425 44.21 175.501 44.2415 175.557 44.2976C175.613 44.3537 175.644 44.4297 175.644 44.509C175.644 44.5883 175.613 44.6644 175.557 44.7204C175.501 44.7765 175.425 44.808 175.345 44.808C175.306 44.8088 175.267 44.8019 175.23 44.7876C175.194 44.7733 175.16 44.7519 175.132 44.7247C175.104 44.6975 175.081 44.665 175.065 44.629C175.05 44.593 175.041 44.5543 175.04 44.515V44.503ZM175.118 45.2685H175.567V47.7322H175.118V45.2685Z" fill="#263238"/>
<path d="M176.41 44.2939H176.859V47.7444H176.41V44.2939Z" fill="#263238"/>
<path d="M179.932 46.644H177.935C177.958 46.8549 178.06 47.0492 178.221 47.187C178.382 47.3249 178.59 47.3959 178.802 47.3855C178.935 47.3897 179.068 47.3652 179.19 47.3136C179.313 47.262 179.423 47.1846 179.514 47.0865L179.759 47.3736C179.638 47.5095 179.488 47.6163 179.321 47.6857C179.153 47.7551 178.971 47.7854 178.79 47.7742C178.618 47.7868 178.445 47.7632 178.283 47.7051C178.121 47.6471 177.972 47.5557 177.847 47.4369C177.722 47.3181 177.623 47.1745 177.557 47.0153C177.491 46.8561 177.459 46.6848 177.462 46.5124C177.454 46.3468 177.48 46.1813 177.539 46.0263C177.598 45.8714 177.689 45.7304 177.805 45.6123C177.922 45.4942 178.061 45.4016 178.215 45.3404C178.369 45.2791 178.535 45.2506 178.7 45.2566C178.864 45.2564 179.025 45.2895 179.175 45.354C179.325 45.4186 179.46 45.5132 179.572 45.6319C179.684 45.7507 179.771 45.8912 179.827 46.0447C179.882 46.1981 179.906 46.3614 179.896 46.5244C179.911 46.5635 179.923 46.6035 179.932 46.644ZM177.935 46.3211H179.514C179.497 46.125 179.406 45.9427 179.259 45.8115C179.112 45.6803 178.921 45.6102 178.724 45.6154C178.524 45.6073 178.328 45.6789 178.18 45.8144C178.032 45.95 177.944 46.1386 177.935 46.339V46.3211Z" fill="#263238"/>
<path d="M185.158 111.676H153.686V113.542H185.158V111.676Z" fill="#90CAF9"/>
<path d="M197.777 116.562C197.777 116.651 185.518 116.723 170.394 116.723C155.271 116.723 143.006 116.651 143.006 116.562C143.006 116.472 155.265 116.406 170.394 116.406C185.524 116.406 197.777 116.478 197.777 116.562Z" fill="#263238"/>
<path d="M141.935 145.356C147.087 145.356 151.264 141.179 151.264 136.027C151.264 130.875 147.087 126.698 141.935 126.698C136.783 126.698 132.606 130.875 132.606 136.027C132.606 141.179 136.783 145.356 141.935 145.356Z" fill="#90CAF9"/>
<path d="M169.221 145.356C174.374 145.356 178.55 141.179 178.55 136.027C178.55 130.875 174.374 126.698 169.221 126.698C164.069 126.698 159.893 130.875 159.893 136.027C159.893 141.179 164.069 145.356 169.221 145.356Z" fill="#90CAF9"/>
<path d="M196.508 145.356C201.661 145.356 205.837 141.179 205.837 136.027C205.837 130.875 201.661 126.698 196.508 126.698C191.356 126.698 187.18 130.875 187.18 136.027C187.18 141.179 191.356 145.356 196.508 145.356Z" fill="#90CAF9"/>
<path d="M153.602 149.499C153.602 149.583 148.376 149.655 141.935 149.655C135.495 149.655 130.274 149.583 130.274 149.499C130.274 149.416 135.495 149.344 141.935 149.344C148.376 149.344 153.602 149.392 153.602 149.499Z" fill="#263238"/>
<path d="M179.364 149.499C179.364 149.583 174.825 149.655 169.198 149.655C163.571 149.655 159.032 149.583 159.032 149.499C159.032 149.416 163.571 149.344 169.198 149.344C174.825 149.344 179.364 149.392 179.364 149.499Z" fill="#263238"/>
<path d="M205.843 149.499C205.843 149.583 201.304 149.655 195.677 149.655C190.05 149.655 185.541 149.583 185.541 149.499C185.541 149.416 190.08 149.344 195.677 149.344C201.274 149.344 205.843 149.392 205.843 149.499Z" fill="#263238"/>
<path d="M207.106 181.565C207.106 181.565 207.106 181.427 207.106 181.17C207.106 180.913 207.106 180.53 207.106 180.034C207.106 179.029 207.106 177.552 207.106 175.639C207.106 171.799 207.076 166.22 207.052 159.176L207.147 159.271L131.387 159.331L131.542 159.176V181.565L131.387 181.415L185.524 181.481L201.395 181.523H205.664H206.771H207.153H206.789H205.652H201.419L185.578 181.571L131.339 181.636H131.189V181.487C131.189 174.359 131.189 166.83 131.189 159.098V158.942H131.351L207.112 158.996H207.213V159.098C207.213 166.166 207.171 171.769 207.159 175.615C207.159 177.522 207.159 178.993 207.159 179.992C207.159 180.482 207.159 180.853 207.159 181.116C207.159 181.379 207.106 181.565 207.106 181.565Z" fill="#263238"/>
<path d="M201.86 166.304C201.86 166.388 187.299 166.459 169.329 166.459C151.359 166.459 136.798 166.388 136.798 166.304C136.798 166.22 151.359 166.148 169.329 166.148C187.299 166.148 201.86 166.244 201.86 166.304Z" fill="#263238"/>
<path d="M201.86 170.735C201.86 170.824 187.299 170.89 169.329 170.89C151.359 170.89 136.798 170.824 136.798 170.735C136.798 170.645 151.359 170.579 169.329 170.579C187.299 170.579 201.86 170.651 201.86 170.735Z" fill="#263238"/>
<path d="M201.86 175.172C201.86 175.256 187.299 175.328 169.329 175.328C151.359 175.328 136.798 175.256 136.798 175.172C136.798 175.088 151.359 175.017 169.329 175.017C187.299 175.017 201.86 175.088 201.86 175.172Z" fill="#263238"/>
<path d="M207.106 209.658C207.106 209.658 207.106 209.527 207.106 209.27C207.106 209.013 207.106 208.624 207.106 208.128C207.106 207.123 207.106 205.646 207.106 203.732C207.106 199.899 207.076 194.314 207.052 187.269L207.147 187.371L131.387 187.425L131.542 187.269V209.658L131.387 209.509L185.524 209.581L201.395 209.623H205.664H206.771H207.153C207.153 209.623 207.034 209.623 206.789 209.623H205.7H201.466L185.625 209.664L131.387 209.736H131.237V209.581C131.237 202.453 131.237 194.93 131.237 187.192V187.036H131.399L207.159 187.096H207.261V187.192C207.261 194.26 207.219 199.869 207.207 203.714C207.207 205.622 207.207 207.087 207.207 208.092C207.207 208.576 207.207 208.953 207.207 209.21C207.207 209.467 207.106 209.658 207.106 209.658Z" fill="#263238"/>
<path d="M201.86 194.398C201.86 194.487 187.299 194.553 169.329 194.553C151.359 194.553 136.798 194.487 136.798 194.398C136.798 194.308 151.359 194.242 169.329 194.242C187.299 194.242 201.86 194.314 201.86 194.398Z" fill="#263238"/>
<path d="M201.86 198.834C201.86 198.918 187.299 198.99 169.329 198.99C151.359 198.99 136.798 198.918 136.798 198.834C136.798 198.75 151.359 198.679 169.329 198.679C187.299 198.679 201.86 198.744 201.86 198.834Z" fill="#263238"/>
<path d="M201.86 203.266C201.86 203.356 187.299 203.421 169.329 203.421C151.359 203.421 136.798 203.356 136.798 203.266C136.798 203.176 151.359 203.11 169.329 203.11C187.299 203.11 201.86 203.182 201.86 203.266Z" fill="#263238"/>
<path d="M132.361 47.7504H132.475H132.792H133.952L133.916 47.7863C133.916 47.5292 133.916 47.2481 133.916 46.9431C133.916 46.7876 133.916 46.6381 133.916 46.4587C133.934 46.365 133.981 46.2795 134.051 46.2149C134.121 46.1502 134.21 46.1099 134.305 46.0999C134.496 46.0999 134.658 46.0999 134.861 46.0999C134.968 46.117 135.065 46.1715 135.135 46.2537C135.205 46.3359 135.244 46.4404 135.244 46.5484C135.244 46.9371 135.244 47.3497 135.244 47.7444L135.19 47.6906H136.655L136.595 47.7444C136.595 47.1464 136.595 46.5484 136.595 45.9205C136.595 45.7651 136.595 45.6096 136.595 45.4541C136.589 45.3857 136.567 45.3196 136.532 45.2606C136.497 45.2017 136.449 45.1513 136.392 45.1132L135.746 44.4495L135.148 43.8515L134.849 43.5584C134.747 43.4568 134.67 43.3551 134.55 43.3312C134.493 43.316 134.433 43.314 134.375 43.3254C134.317 43.3368 134.262 43.3613 134.215 43.397C134.125 43.4687 134.03 43.5764 133.94 43.6661C133.85 43.7558 133.587 44.0249 133.414 44.1923C133.085 44.5392 132.738 44.8501 132.493 45.1491C132.419 45.3203 132.392 45.5082 132.415 45.6933V46.2076C132.415 46.5245 132.415 46.8056 132.415 47.0388C132.415 47.272 132.415 47.4275 132.415 47.571C132.421 47.6347 132.421 47.6987 132.415 47.7624C132.415 47.7624 132.415 47.7026 132.415 47.583C132.415 47.4634 132.415 47.272 132.415 47.0627C132.415 46.8534 132.415 46.5425 132.415 46.2255C132.415 46.0581 132.415 45.8847 132.415 45.6993V45.4122C132.415 45.3049 132.444 45.1996 132.499 45.1073C132.768 44.7724 133.097 44.5093 133.426 44.1265L133.946 43.5943C134.042 43.4986 134.119 43.4089 134.227 43.3133C134.288 43.2693 134.357 43.239 134.43 43.2246C134.503 43.2101 134.579 43.2118 134.652 43.2295C134.79 43.2796 134.912 43.3664 135.004 43.4807L135.303 43.7737L135.901 44.3717L136.541 44.9697C136.603 45.0224 136.657 45.0827 136.703 45.1491C136.752 45.2213 136.779 45.3067 136.781 45.3943C136.781 45.5498 136.781 45.7053 136.781 45.8607C136.781 46.4587 136.781 47.0926 136.781 47.6846V47.7385H136.727H135.262H135.148V47.6846C135.148 47.2601 135.148 46.8474 135.148 46.4886C135.149 46.4038 135.121 46.3213 135.067 46.2556C135.014 46.1899 134.938 46.1454 134.855 46.1298H134.323C134.246 46.1373 134.174 46.1693 134.117 46.221C134.06 46.2727 134.021 46.3414 134.006 46.4169C134.006 46.5604 134.006 46.7338 134.006 46.8833V47.7564H132.385L132.361 47.7504Z" fill="#263238"/>
<path d="M191.103 87.1966C194.055 74.4724 186.133 61.7647 173.409 58.813C160.684 55.8614 147.977 63.7836 145.025 76.5077C142.073 89.2319 149.996 101.94 162.72 104.891C175.444 107.843 188.152 99.9207 191.103 87.1966Z" fill="#E0E0E0"/>
<path d="M187.001 84.3713C187.547 83.7347 187.904 82.9583 188.033 82.1295C188.161 81.3006 188.056 80.4524 187.728 79.6803C187.401 78.9082 186.864 78.2429 186.179 77.7595C185.493 77.2761 184.686 76.9936 183.849 76.9441C184.125 76.1632 184.194 75.3241 184.048 74.5088C183.903 73.6935 183.548 72.9299 183.019 72.2928C182.49 71.6558 181.804 71.167 181.029 70.8743C180.254 70.5816 179.417 70.4951 178.599 70.6232C178.544 69.8003 178.293 69.0024 177.867 68.2963C177.441 67.5901 176.852 66.9962 176.15 66.5642C175.447 66.1321 174.652 65.8746 173.829 65.8129C173.007 65.7513 172.182 65.8875 171.423 66.21C170.935 65.6166 170.317 65.1442 169.616 64.8297C168.915 64.5152 168.151 64.3673 167.384 64.3974C166.616 64.4275 165.866 64.6349 165.192 65.0033C164.518 65.3717 163.939 65.8912 163.499 66.521L162.255 66.5867C161.177 66.628 160.119 66.8984 159.153 67.3799C158.187 67.8614 157.334 68.543 156.652 69.3794C156.582 69.4751 156.502 69.5633 156.413 69.6425C155.217 70.7608 153.961 71.9568 153.537 73.5415C153.064 75.2996 153.692 77.3208 152.801 78.9235C152.454 79.5514 151.886 80.0597 151.653 80.7175C151.204 82.0032 152.071 83.3905 151.97 84.748C151.868 86.1055 150.672 87.439 150.816 88.8742C150.918 89.3867 151.125 89.8726 151.423 90.3017C151.721 90.7307 152.105 91.0936 152.55 91.3678C153.441 91.913 154.273 92.5504 155.032 93.2695C155.582 93.8675 155.941 94.6748 156.479 95.3147C157.282 96.1878 158.386 96.724 159.569 96.815C160.752 96.906 161.926 96.5451 162.853 95.805C163.487 96.287 164.227 96.6102 165.012 96.7475C165.796 96.8849 166.602 96.8323 167.362 96.5944C168.878 96.1093 170.304 95.3801 171.584 94.4356C171.869 94.8258 172.248 95.1382 172.685 95.344C173.122 95.5497 173.604 95.6423 174.086 95.6131C174.568 95.5839 175.036 95.434 175.445 95.177C175.854 94.92 176.192 94.5643 176.428 94.1426C176.763 95.1891 178.007 95.7213 179.101 95.6137C180.18 95.4167 181.202 94.9816 182.091 94.3399C183.849 93.2575 185.811 91.8283 185.858 89.7652C185.888 88.5034 185.159 87.1998 185.637 86.0337C186.001 85.4111 186.461 84.8501 187.001 84.3713Z" fill="#263238"/>
<path d="M175.154 76.5439C174.76 75.4675 174.933 74.2715 174.784 73.1353C174.461 70.6237 172.505 68.5067 170.149 67.5858C167.739 66.7411 165.111 66.7559 162.71 67.6277C160.894 68.1724 159.264 69.207 157.998 70.6177C157.197 71.5837 156.64 72.7274 156.373 73.9531C156.105 75.1787 156.136 76.4505 156.461 77.6621L169.294 75.9459C170.427 77.0185 171.728 77.8992 173.145 78.5531C173.562 78.7433 174.022 78.8216 174.479 78.7804C174.706 78.7558 174.921 78.6667 175.099 78.5236C175.277 78.3806 175.41 78.1895 175.483 77.9731C175.518 77.4746 175.404 76.9769 175.154 76.5439Z" fill="#263238"/>
<path d="M173.545 73.6673L162.393 71.1617C158.835 70.8747 156.586 75.3058 156.454 78.8759C156.305 82.8406 156.287 87.6844 156.831 90.6206C157.926 96.5348 162.5 97.1687 162.5 97.1687C162.5 97.1687 162.5 101.211 162.602 103.364C166.638 105.284 170.789 105.008 175.022 103.119L175.465 75.7424C175.465 75.2184 175.267 74.7136 174.911 74.3289C174.556 73.9442 174.068 73.708 173.545 73.6673Z" fill="#B78876"/>
<path d="M158.769 82.5535C158.773 82.7514 158.854 82.9397 158.995 83.0791C159.135 83.2185 159.324 83.298 159.522 83.301C159.619 83.3059 159.716 83.2914 159.808 83.2584C159.899 83.2255 159.983 83.1748 160.055 83.1091C160.127 83.0435 160.185 82.9643 160.226 82.8762C160.267 82.788 160.29 82.6925 160.293 82.5954C160.289 82.3976 160.208 82.2092 160.067 82.0699C159.927 81.9305 159.738 81.8509 159.54 81.8479C159.443 81.8423 159.345 81.8562 159.253 81.8888C159.162 81.9214 159.077 81.9722 159.005 82.0379C158.933 82.1037 158.875 82.1832 158.835 82.2718C158.794 82.3603 158.772 82.4561 158.769 82.5535Z" fill="#263238"/>
<path d="M157.567 81.3575C157.668 81.4532 158.23 81.0166 159.05 80.9927C159.869 80.9688 160.479 81.3695 160.569 81.2678C160.658 81.1661 160.509 81.0465 160.246 80.8612C159.887 80.6272 159.466 80.5086 159.038 80.5214C158.611 80.5343 158.197 80.6779 157.854 80.9329C157.602 81.1362 157.519 81.3276 157.567 81.3575Z" fill="#263238"/>
<path d="M166.537 82.5535C166.54 82.7519 166.621 82.9411 166.762 83.0808C166.902 83.2205 167.092 83.2995 167.291 83.301C167.388 83.3067 167.485 83.2927 167.576 83.26C167.668 83.2273 167.752 83.1765 167.823 83.1107C167.895 83.0448 167.952 82.9653 167.992 82.8767C168.032 82.7882 168.054 82.6925 168.056 82.5954C168.053 82.3971 167.972 82.2079 167.832 82.0682C167.691 81.9285 167.501 81.8494 167.303 81.8479C167.206 81.8423 167.108 81.8562 167.017 81.8889C166.925 81.9216 166.841 81.9724 166.77 82.0383C166.699 82.1041 166.641 82.1837 166.601 82.2722C166.561 82.3607 166.539 82.4564 166.537 82.5535Z" fill="#263238"/>
<path d="M165.646 81.3273C165.741 81.423 166.309 80.9805 167.129 80.9626C167.948 80.9446 168.558 81.3393 168.642 81.2317C168.725 81.124 168.588 81.0104 168.319 80.831C167.965 80.5967 167.547 80.4777 167.123 80.4901C166.689 80.4927 166.269 80.6377 165.927 80.9028C165.646 81.0762 165.58 81.2616 165.646 81.3273Z" fill="#263238"/>
<path d="M162.812 87.4573C162.376 87.3299 161.926 87.2596 161.472 87.248C161.263 87.248 161.065 87.2002 161.03 87.0567C161.009 86.8499 161.05 86.6416 161.149 86.4587C161.334 85.9444 161.526 85.4062 161.747 84.8501C162.284 83.4909 162.712 82.0911 163.027 80.6641C162.379 81.9815 161.839 83.3494 161.412 84.7544L160.862 86.369C160.735 86.6245 160.703 86.9173 160.772 87.1942C160.805 87.2674 160.854 87.3323 160.915 87.3841C160.976 87.4358 161.048 87.4731 161.125 87.4932C161.241 87.5214 161.359 87.5335 161.478 87.5291C161.924 87.5613 162.372 87.5372 162.812 87.4573Z" fill="#263238"/>
<path d="M162.5 97.1631C165.296 97.1341 168.029 96.3288 170.394 94.8369C170.394 94.8369 168.498 99.0229 162.542 98.5983L162.5 97.1631Z" fill="#AA6550"/>
<path d="M163.212 89.419C163.36 89.2164 163.558 89.055 163.786 88.9504C164.014 88.8457 164.265 88.8012 164.516 88.821C164.697 88.8323 164.874 88.8799 165.036 88.9611C165.198 89.0422 165.343 89.1553 165.461 89.2934C165.575 89.4264 165.645 89.5917 165.661 89.7665C165.677 89.9412 165.639 90.1166 165.55 90.2682C165.423 90.419 165.254 90.5285 165.064 90.5829C164.875 90.6372 164.673 90.6338 164.486 90.5732C164.096 90.4443 163.734 90.2412 163.421 89.9752C163.329 89.9094 163.248 89.8286 163.182 89.7359C163.151 89.6911 163.135 89.6379 163.135 89.5835C163.135 89.529 163.151 89.4758 163.182 89.431" fill="#AA6550"/>
<path d="M165.239 87.9591C165.101 87.9591 165.125 88.8442 164.378 89.496C163.63 90.1478 162.686 90.094 162.686 90.1956C162.686 90.2973 162.901 90.3631 163.284 90.3631C163.804 90.3573 164.305 90.1689 164.701 89.8308C165.08 89.5046 165.316 89.0432 165.359 88.5452C165.4 88.1684 165.299 87.9531 165.239 87.9591Z" fill="#263238"/>
<path d="M165.425 78.8281C165.514 79.0494 166.328 78.9238 167.29 79.0135C168.253 79.1032 169.036 79.3484 169.162 79.1451C169.216 79.0494 169.078 78.8401 168.755 78.6308C168.332 78.376 167.855 78.2225 167.362 78.1823C166.868 78.1367 166.37 78.2084 165.909 78.3916C165.562 78.5471 165.389 78.7265 165.425 78.8281Z" fill="#263238"/>
<path d="M157.717 77.7696C157.866 77.955 158.422 77.7696 159.104 77.7158C159.786 77.662 160.36 77.8115 160.485 77.6141C160.539 77.5184 160.444 77.3331 160.186 77.1656C159.849 76.9549 159.453 76.8565 159.056 76.8846C158.656 76.9043 158.272 77.0462 157.956 77.2912C157.723 77.4885 157.651 77.6799 157.717 77.7696Z" fill="#263238"/>
<path d="M177.229 74.8398C176.111 71.4193 171.105 66.713 167.517 66.9881L161.812 70.4685C162.01 71.4417 162.465 72.344 163.131 73.0805C163.797 73.8171 164.649 74.3607 165.598 74.6545C166.614 74.9594 167.834 75.0312 168.438 75.8983C169.042 76.7654 168.713 78.087 169.293 78.9959C170.095 80.2637 172.283 80.1919 172.881 81.5614C173.145 82.1594 173.013 82.877 173.288 83.475C173.659 84.2643 175.68 85.2689 176.505 84.9879C177.331 84.7068 177.325 83.3015 177.594 82.56C177.928 81.7185 177.964 80.7876 177.695 79.9228C177.307 78.2664 177.761 76.4724 177.229 74.8398Z" fill="#263238"/>
<path d="M176.488 83.5518C176.458 83.5518 176.577 83.2468 176.667 82.6907C176.78 81.9032 176.716 81.1006 176.482 80.3406C176.144 79.2136 175.423 78.2403 174.442 77.5898C173.837 77.2397 173.21 76.9281 172.565 76.6569C171.842 76.3614 171.189 75.9196 170.645 75.3592C170.187 74.7373 169.813 74.0577 169.533 73.338C169.142 72.4929 168.524 71.7731 167.748 71.2588C166.972 70.7446 166.068 70.4561 165.137 70.4257C164.342 70.4057 163.553 70.5672 162.829 70.8981C162.309 71.1254 162.058 71.3227 162.04 71.2988C162.022 71.2749 162.094 71.233 162.213 71.1433C162.39 71.0072 162.578 70.8872 162.775 70.7845C163.503 70.3969 164.313 70.1916 165.137 70.1865C166.377 70.1917 167.572 70.644 168.504 71.4603C169.052 71.9391 169.496 72.5253 169.808 73.1825C170.077 73.878 170.439 74.5339 170.884 75.132C171.389 75.6641 172 76.0838 172.678 76.3639C173.334 76.6422 173.969 76.9659 174.58 77.3326C175.432 77.9169 176.093 78.7383 176.482 79.6951C176.871 80.6518 176.971 81.7018 176.769 82.7146C176.723 82.9336 176.657 83.1478 176.571 83.3545C176.535 83.486 176.499 83.5578 176.488 83.5518Z" fill="#455A64"/>
<path d="M175.943 77.1953C175.913 77.1953 175.812 76.986 175.501 76.681C175.038 76.2715 174.508 75.9457 173.934 75.7182C173.525 75.5403 173.126 75.3407 172.738 75.1202C172.302 74.8803 171.923 74.55 171.626 74.1515C170.986 73.2545 170.783 72.0585 169.933 71.2332C169.138 70.4576 168.111 69.9622 167.009 69.822C166.101 69.7125 165.18 69.7857 164.3 70.0372C163.484 70.2932 162.685 70.6008 161.908 70.9582C162.087 70.8004 162.288 70.6713 162.506 70.5754C163.057 70.2615 163.641 70.0089 164.246 69.822C165.151 69.5323 166.107 69.4366 167.051 69.5409C168.224 69.6693 169.32 70.1897 170.161 71.018C171.082 71.9269 171.285 73.1708 171.865 74.008C172.453 74.6998 173.203 75.236 174.048 75.5687C174.634 75.8198 175.165 76.1858 175.608 76.6451C175.726 76.7744 175.824 76.9193 175.901 77.0757C175.931 77.1415 175.955 77.1893 175.943 77.1953Z" fill="#455A64"/>
<path d="M174.018 85.723C174.018 85.2805 174.49 84.228 174.927 84.1503C176.087 83.935 178.192 83.9769 178.287 86.937C178.419 90.9795 174.329 90.2798 174.323 90.1662C174.317 90.0526 174.077 87.2539 174.018 85.723Z" fill="#B78876"/>
<path d="M175.531 88.5875C175.531 88.5875 175.603 88.6353 175.722 88.6891C175.892 88.7552 176.079 88.7552 176.249 88.6891C176.505 88.5156 176.711 88.2767 176.845 87.9971C176.978 87.7174 177.035 87.4072 177.008 87.0984C177.009 86.7501 176.929 86.4062 176.775 86.0938C176.734 85.9683 176.663 85.8547 176.568 85.763C176.473 85.6712 176.358 85.6041 176.231 85.5676C176.148 85.5505 176.063 85.5619 175.988 85.6C175.913 85.638 175.853 85.7004 175.818 85.7769C175.77 85.8905 175.818 85.9682 175.776 85.9802C175.734 85.9921 175.687 85.9144 175.716 85.747C175.733 85.6441 175.786 85.5506 175.866 85.4838C175.975 85.3989 176.111 85.3582 176.249 85.3702C176.416 85.3964 176.574 85.4651 176.707 85.5699C176.84 85.6746 176.943 85.8118 177.008 85.9682C177.193 86.3119 177.29 86.6962 177.289 87.0865C177.289 87.9057 176.9 88.6831 176.32 88.8805C176.212 88.9158 176.098 88.9266 175.985 88.9121C175.872 88.8977 175.764 88.8582 175.669 88.7968C175.543 88.6891 175.519 88.5994 175.531 88.5875Z" fill="#AA6550"/>
<path d="M177.3 89.5861C177.36 89.5023 177.498 89.4605 177.695 89.5442C177.826 89.6149 177.94 89.7121 178.03 89.8295C178.121 89.9469 178.186 90.0819 178.221 90.2259C178.288 90.4638 178.293 90.7147 178.237 90.9551C178.18 91.1956 178.064 91.4179 177.898 91.6013C177.693 91.8245 177.435 91.9921 177.147 92.0883C176.86 92.1845 176.552 92.2063 176.254 92.1515C175.958 92.0908 175.683 91.9565 175.453 91.761C175.223 91.5656 175.046 91.3152 174.938 91.0332C174.852 90.8199 174.812 90.5906 174.822 90.3607C174.831 90.1307 174.889 89.9054 174.992 89.6997C175.061 89.5577 175.161 89.4336 175.285 89.3371C175.41 89.2405 175.555 89.1743 175.71 89.1436C175.943 89.1436 176.057 89.2273 176.069 89.3289C176.067 89.4421 176.05 89.5546 176.021 89.6638C176.003 89.7888 176.003 89.9156 176.021 90.0406C176.061 90.1798 176.128 90.3098 176.218 90.4233C176.293 90.5236 176.401 90.5936 176.523 90.6206C176.642 90.6375 176.764 90.6231 176.876 90.5788C176.93 90.557 176.979 90.5239 177.019 90.4816C177.059 90.4393 177.09 90.3888 177.109 90.3336C177.259 90.0645 177.187 89.7655 177.3 89.5861Z" fill="#E0E0E0"/>
<path d="M157.31 102.921L162.566 102.006L175.046 101.558L180.697 101.839C180.697 101.839 169.832 109.373 157.31 102.921Z" fill="#90CAF9"/>
<path d="M191.706 81.8481C191.706 81.8481 191.706 81.7166 191.671 81.4654C191.635 81.2143 191.635 80.8256 191.599 80.3412C191.599 80.096 191.599 79.8209 191.551 79.5159C191.503 79.211 191.455 78.8821 191.401 78.5292C191.348 78.1764 191.282 77.7877 191.216 77.3751C191.138 76.9413 191.036 76.512 190.911 76.0894C190.359 73.8783 189.476 71.7634 188.292 69.8164C186.746 67.2263 184.716 64.9584 182.312 63.1367L181.295 62.3773C180.936 62.144 180.56 61.9288 180.189 61.6955C179.818 61.4623 179.447 61.2171 179.041 61.0318L177.815 60.4338L177.217 60.1348L176.559 59.9015L175.214 59.4351C174.765 59.2856 174.293 59.1899 173.826 59.0643C173.359 58.9258 172.884 58.8179 172.403 58.7414C171.416 58.5565 170.416 58.4426 169.413 58.4006C168.905 58.4006 168.396 58.3288 167.882 58.3408L166.321 58.4185C166.064 58.4185 165.801 58.4185 165.538 58.4723L164.755 58.5919C164.228 58.6756 163.696 58.7414 163.17 58.8491C161.015 59.3376 158.931 60.0992 156.969 61.1155C156.472 61.3846 156 61.7135 155.509 61.9886C155.27 62.144 155.013 62.2756 154.78 62.449L154.092 62.9693C153.151 63.6615 152.26 64.4188 151.425 65.2357C150.598 66.0902 149.829 66.9992 149.123 67.9566L148.579 68.6802L148.106 69.4516L147.634 70.229C147.471 70.4862 147.325 70.7539 147.197 71.0303C146.934 71.5805 146.665 72.1366 146.402 72.6928C146.139 73.2489 145.977 73.8469 145.762 74.4329C144.144 79.2419 144.144 84.4484 145.762 89.2574C145.971 89.8554 146.187 90.4534 146.396 90.9975C146.605 91.5417 146.928 92.1098 147.197 92.66L147.395 93.0666L147.634 93.4613L148.106 94.2387L148.579 95.0101L149.117 95.7337C149.823 96.6946 150.594 97.6057 151.425 98.4606C152.262 99.2726 153.151 100.03 154.086 100.727L154.78 101.247C155.015 101.411 155.259 101.563 155.509 101.702C156 101.995 156.472 102.3 156.969 102.581C157.961 103.095 158.986 103.544 160.036 103.926C161.06 104.301 162.107 104.608 163.17 104.847C163.696 104.955 164.228 105.015 164.755 105.104L165.538 105.224C165.801 105.26 166.064 105.224 166.321 105.272L167.882 105.356C168.396 105.356 168.905 105.314 169.413 105.296C170.416 105.251 171.415 105.137 172.403 104.955C172.883 104.873 173.358 104.765 173.826 104.632C174.293 104.506 174.765 104.411 175.214 104.261L176.541 103.777L177.193 103.538L177.791 103.245L178.987 102.647C179.394 102.461 179.752 102.198 180.135 101.983C180.518 101.768 180.883 101.54 181.241 101.307L182.258 100.548C184.662 98.7262 186.693 96.4582 188.238 93.8679C189.42 91.9199 190.303 89.8053 190.857 87.5949C190.982 87.1703 191.084 86.7391 191.162 86.3032C191.228 85.8966 191.294 85.5139 191.348 85.1551C191.401 84.7963 191.467 84.4674 191.497 84.1684C191.527 83.8694 191.533 83.5704 191.545 83.3431C191.581 82.8528 191.605 82.482 191.617 82.2189C191.629 81.9558 191.653 81.8362 191.653 81.8362C191.653 81.8362 191.653 81.9677 191.653 82.2189C191.653 82.4701 191.653 82.8588 191.611 83.3431C191.611 83.5943 191.611 83.8694 191.575 84.1744C191.539 84.4793 191.491 84.8082 191.437 85.167C191.383 85.5258 191.33 85.9145 191.27 86.3272C191.196 86.7653 191.096 87.1987 190.971 87.6248C190.442 89.8566 189.571 91.993 188.387 93.9576C186.847 96.5752 184.817 98.8714 182.407 100.721L181.379 101.492C181.02 101.732 180.643 101.947 180.267 102.18C179.89 102.413 179.519 102.665 179.107 102.856L177.875 103.454L177.277 103.753L176.613 103.992L175.279 104.482C174.825 104.638 174.352 104.734 173.88 104.865C173.406 105.002 172.925 105.112 172.439 105.194C171.451 105.381 170.452 105.501 169.449 105.553C168.935 105.553 168.414 105.619 167.894 105.613L166.321 105.535C166.058 105.535 165.789 105.535 165.526 105.487L164.731 105.367C164.204 105.278 163.666 105.218 163.134 105.11C160.95 104.63 158.835 103.872 156.843 102.856C156.341 102.581 155.862 102.258 155.36 101.971C155.115 101.815 154.858 101.684 154.624 101.504L153.925 100.984C152.973 100.28 152.07 99.513 151.222 98.6878C150.381 97.8228 149.6 96.9017 148.884 95.931L148.339 95.2015L147.855 94.4181L147.377 93.6287L147.137 93.2341L146.934 92.8155L146.127 91.1411C145.912 90.5431 145.696 89.9451 145.475 89.377C143.836 84.5017 143.836 79.2245 145.475 74.3492L146.121 72.5552L146.928 70.8808C147.055 70.5979 147.205 70.3258 147.377 70.0675L147.855 69.2782L148.333 68.4948L148.884 67.7652C150.271 65.8157 151.973 64.1102 153.919 62.7181L154.618 62.1919C154.852 62.0185 155.115 61.8869 155.354 61.7314C155.856 61.4324 156.335 61.1334 156.837 60.8464C157.84 60.3201 158.879 59.8664 159.947 59.4889C160.986 59.1229 162.049 58.8273 163.128 58.6039C163.66 58.4962 164.198 58.4305 164.725 58.3467L165.52 58.2271C165.783 58.1913 166.052 58.1913 166.315 58.1733L167.888 58.1016C168.408 58.1016 168.929 58.1434 169.437 58.1614C170.44 58.2136 171.439 58.3335 172.427 58.5202C172.914 58.5965 173.396 58.7063 173.868 58.8491C174.334 58.9746 174.813 59.0763 175.267 59.2258L176.601 59.7162L177.259 59.9613L177.887 60.2603L179.118 60.8583C179.531 61.0437 179.896 61.3128 180.279 61.5281C180.661 61.7434 181.032 61.9826 181.391 62.2218L182.413 62.9872C184.836 64.8335 186.877 67.1324 188.423 69.7566C189.604 71.7225 190.476 73.8584 191.007 76.0894C191.134 76.5152 191.233 76.9486 191.306 77.3871C191.366 77.7997 191.425 78.1824 191.473 78.5472C191.521 78.912 191.587 79.2349 191.611 79.5399C191.635 79.8448 191.611 80.1379 191.647 80.3651C191.647 80.8555 191.676 81.2262 191.688 81.4953C191.7 81.7644 191.706 81.8481 191.706 81.8481Z" fill="#263238"/>
<path d="M265.972 232.478C264.448 231.01 262.579 229.95 260.538 229.395C258.496 228.839 256.347 228.807 254.29 229.301C252.233 229.795 250.333 230.799 248.766 232.221C247.199 233.642 246.015 235.436 245.323 237.435L246.818 243.218C247.386 241.251 248.612 239.343 250.484 238.536C252.356 237.729 254.706 238.171 256.709 238.901C258.712 239.63 260.68 240.599 262.803 240.73C264.926 240.862 267.336 239.851 267.969 237.818C268.567 235.911 267.413 233.871 265.972 232.478Z" fill="#90CAF9"/>
<g opacity="0.3">
<path d="M265.972 232.478C264.448 231.01 262.579 229.95 260.538 229.395C258.496 228.839 256.347 228.807 254.29 229.301C252.233 229.795 250.333 230.799 248.766 232.221C247.199 233.642 246.015 235.436 245.323 237.435L246.818 243.218C247.386 241.251 248.612 239.343 250.484 238.536C252.356 237.729 254.706 238.171 256.709 238.901C258.712 239.63 260.68 240.599 262.803 240.73C264.926 240.862 267.336 239.851 267.969 237.818C268.567 235.911 267.413 233.871 265.972 232.478Z" fill="black"/>
</g>
<path d="M229.967 251.758C226.846 248.768 226.977 243.631 228.556 239.619C230.135 235.606 233.513 232.52 237.305 230.493C241.009 228.547 245.106 227.466 249.288 227.33C253.471 227.194 257.629 228.008 261.452 229.71C259.581 229.791 257.758 230.329 256.143 231.278C254.528 232.226 253.171 233.556 252.189 235.152C250.479 237.992 250.096 241.437 248.685 244.438C247.091 247.819 244.263 250.461 240.782 251.822C237.301 253.183 233.432 253.16 229.967 251.758Z" fill="#90CAF9"/>
<path d="M228.466 233.949C225.009 229.871 224.549 223.323 225.057 218.007C225.565 212.691 226.797 207.326 225.96 202.052C225.464 198.925 224.25 195.935 223.843 192.795C223.437 189.656 224.011 186.103 226.444 184.076C229.243 181.75 233.62 182.282 236.551 184.489C239.481 186.695 241.149 190.11 242.381 193.537C245.084 201.059 246.077 209.402 243.858 217.086C241.64 224.77 236.419 231.629 228.765 233.949" fill="#90CAF9"/>
<path d="M226.804 267.413C226.795 267.256 226.795 267.098 226.804 266.941C226.804 266.636 226.804 266.182 226.834 265.596C226.876 264.4 226.989 262.731 227.252 260.656C227.557 258.221 228.001 255.805 228.58 253.42C229.293 250.492 230.404 247.675 231.881 245.048C233.353 242.42 235.162 239.996 237.263 237.836C238.972 236.071 240.867 234.495 242.914 233.136C243.775 232.538 244.612 232.084 245.306 231.665C246 231.246 246.687 230.959 247.213 230.708L248.457 230.182C248.6 230.115 248.748 230.061 248.9 230.021C248.765 230.1 248.625 230.172 248.481 230.236L247.285 230.804C246.771 231.073 246.137 231.402 245.408 231.803C244.678 232.203 243.877 232.7 243.016 233.304C238.52 236.376 234.791 240.439 232.114 245.18C228.939 250.735 228.071 256.578 227.438 260.674C227.151 262.743 227.007 264.429 226.929 265.596C226.899 266.158 226.87 266.606 226.852 266.935C226.853 267.096 226.837 267.256 226.804 267.413Z" fill="#263238"/>
<path d="M197.005 217.863C190.613 221.72 190.631 225.231 191.701 228.544C192.772 231.856 196.694 234.159 199.942 232.915C201.783 232.215 203.117 230.619 204.253 229.01C205.389 227.401 206.46 225.685 208.05 224.531C209.641 223.377 211.961 222.94 213.558 224.082" fill="#90CAF9"/>
<path d="M215.585 225.165L209.462 222.862L211.902 223.149C212.561 223.217 213.191 223.454 213.732 223.837L215.585 225.165Z" fill="black"/>
<g opacity="0.3">
<path d="M197.005 217.863C190.613 221.72 190.631 225.231 191.701 228.544C192.772 231.856 196.694 234.159 199.942 232.915C201.783 232.215 203.117 230.619 204.253 229.01C205.389 227.401 206.46 225.685 208.05 224.531C209.149 223.719 210.505 223.334 211.866 223.449L197.005 217.863Z" fill="black"/>
</g>
<path d="M192.222 222.091C193.89 219.783 198.022 219.101 200.63 220.267C203.237 221.433 205.144 223.7 206.855 225.984C208.565 228.268 210.227 230.672 212.596 232.263C214.964 233.854 218.271 234.416 220.663 232.825C221.414 232.263 222.044 231.554 222.513 230.741C222.982 229.927 223.28 229.027 223.389 228.095C223.598 226.23 223.472 224.343 223.019 222.521C222.451 219.842 221.53 217.044 219.389 215.345C216.997 213.45 213.678 213.354 210.628 213.456C207.124 213.569 203.572 213.833 200.283 215.046C196.994 216.26 193.645 218.88 192.252 222.097" fill="#90CAF9"/>
<path d="M221.493 262.295C221.485 262.247 221.485 262.199 221.493 262.151C221.493 262.044 221.493 261.906 221.493 261.739C221.493 261.356 221.463 260.824 221.439 260.154C221.403 258.755 221.343 256.763 221.272 254.317C221.2 251.872 221.092 248.935 220.919 245.67C220.745 242.405 220.494 238.847 219.998 235.122C219.792 233.302 219.438 231.502 218.94 229.74C218.432 228.122 217.777 226.555 216.984 225.057C216.271 223.697 215.445 222.398 214.514 221.176C213.692 220.111 212.788 219.112 211.811 218.186C210.385 216.871 208.773 215.773 207.027 214.927C206.716 214.784 206.429 214.646 206.196 214.544L205.598 214.305L205.215 214.15C205.17 214.135 205.128 214.113 205.09 214.084C205.137 214.092 205.183 214.104 205.227 214.12L205.616 214.245L206.256 214.467C206.507 214.556 206.782 214.688 207.099 214.825C208.878 215.641 210.521 216.724 211.973 218.037C212.968 218.958 213.888 219.958 214.724 221.027C215.674 222.251 216.516 223.556 217.241 224.926C218.051 226.437 218.718 228.02 219.233 229.656C219.737 231.418 220.097 233.218 220.309 235.038C220.805 238.775 221.039 242.351 221.206 245.611C221.373 248.87 221.445 251.8 221.499 254.264C221.553 256.727 221.571 258.725 221.577 260.106V261.691C221.577 261.858 221.577 261.996 221.577 262.103C221.559 262.171 221.531 262.236 221.493 262.295Z" fill="#263238"/>
<path d="M223.796 265.183C223.492 264.287 223.258 263.369 223.096 262.438C222.651 259.891 222.552 257.296 222.803 254.724C223.192 250.914 224.009 247.161 225.237 243.535C226.547 239.421 228.329 235.025 229.854 230.295C230.603 228 231.214 225.661 231.683 223.293C232.118 221.083 232.432 218.851 232.622 216.607C232.915 212.805 232.983 208.989 232.826 205.179C232.718 201.926 232.545 199.295 232.437 197.471L232.311 195.378C232.311 195.151 232.311 194.971 232.311 194.834C232.303 194.772 232.303 194.71 232.311 194.648C232.326 194.707 232.336 194.767 232.341 194.828C232.341 194.965 232.371 195.145 232.395 195.372C232.437 195.868 232.497 196.568 232.569 197.465C232.712 199.259 232.915 201.914 233.053 205.173C233.239 208.992 233.191 212.818 232.909 216.631C232.736 218.884 232.436 221.126 232.012 223.346C231.544 225.728 230.931 228.078 230.177 230.385C228.652 235.127 226.864 239.516 225.542 243.613C224.289 247.22 223.437 250.954 223.001 254.747C222.738 257.303 222.806 259.882 223.204 262.42C223.359 263.317 223.503 264.01 223.628 264.471C223.682 264.692 223.724 264.872 223.76 265.003L223.796 265.183Z" fill="#263238"/>
<path d="M239.643 268.072H209.629L208.941 262.295H239.643V268.072Z" fill="#455A64"/>
<path d="M212.847 267.413L216.602 284.743H232.91L236.42 267.413H212.847Z" fill="#455A64"/>
<path d="M239.642 268.071C239.642 268.149 233.064 268.197 224.902 268.173C216.739 268.149 210.167 268.065 210.167 267.988C210.167 267.91 216.745 267.862 224.902 267.886C233.058 267.91 239.642 267.994 239.642 268.071Z" fill="#455A64"/>
<path d="M234.488 276.622C233.672 276.012 232.784 275.504 231.845 275.109C230.82 274.707 229.733 274.489 228.633 274.464C227.283 274.467 225.945 274.712 224.681 275.187C223.311 275.654 222.031 276.192 220.788 276.485C219.683 276.724 218.544 276.758 217.427 276.587C216.675 276.478 215.946 276.248 215.268 275.905C215.087 275.805 214.913 275.693 214.748 275.57C214.634 275.486 214.58 275.438 214.586 275.432C214.592 275.426 214.838 275.582 215.316 275.803C215.997 276.106 216.718 276.307 217.457 276.401C218.55 276.539 219.659 276.484 220.734 276.24C221.93 275.941 223.21 275.396 224.591 274.93C225.884 274.442 227.257 274.199 228.639 274.212C229.769 274.247 230.883 274.492 231.922 274.936C232.623 275.225 233.28 275.607 233.878 276.072C234.042 276.198 234.197 276.334 234.344 276.479C234.446 276.563 234.494 276.616 234.488 276.622Z" fill="#263238"/>
<path d="M234.261 277.783C233.475 277.19 232.625 276.689 231.726 276.288C230.74 275.885 229.687 275.668 228.622 275.648C227.318 275.652 226.024 275.884 224.801 276.336C223.479 276.778 222.235 277.293 221.051 277.61C220.003 277.912 218.911 278.035 217.822 277.974C217.085 277.93 216.365 277.737 215.705 277.406C215.528 277.311 215.358 277.203 215.197 277.083C215.089 277.006 215.035 276.958 215.041 276.952C215.047 276.946 215.293 277.095 215.753 277.305C216.412 277.589 217.117 277.747 217.834 277.771C218.898 277.804 219.96 277.665 220.98 277.358C222.14 277.03 223.372 276.509 224.711 276.067C225.965 275.606 227.292 275.375 228.628 275.385C230.466 275.44 232.236 276.088 233.675 277.233C233.832 277.356 233.982 277.488 234.124 277.628C234.219 277.723 234.267 277.777 234.261 277.783Z" fill="white"/>
<path d="M234.787 275.474C233.945 274.841 233.034 274.305 232.072 273.878C231.027 273.425 229.913 273.156 228.777 273.082C227.384 273.054 225.998 273.298 224.698 273.8C223.384 274.319 222.04 274.758 220.674 275.116C219.524 275.317 218.349 275.317 217.199 275.116C216.425 274.994 215.673 274.756 214.969 274.41C214.78 274.314 214.6 274.202 214.431 274.075C214.311 273.985 214.251 273.938 214.257 273.932C214.263 273.926 214.526 274.087 215.017 274.308C215.724 274.606 216.468 274.808 217.229 274.906C218.355 275.071 219.501 275.049 220.62 274.841C221.971 274.467 223.303 274.024 224.609 273.513C225.942 272.998 227.366 272.756 228.795 272.801C230.751 272.959 232.621 273.68 234.177 274.876C234.344 275.006 234.504 275.146 234.655 275.295C234.739 275.415 234.793 275.468 234.787 275.474Z" fill="white"/>
<path d="M239.906 268.096C239.906 268.173 233.155 268.239 224.831 268.239C216.506 268.239 209.749 268.173 209.749 268.096C209.749 268.018 216.5 267.952 224.831 267.952C233.161 267.952 239.906 268.018 239.906 268.096Z" fill="#263238"/>
<path d="M280.175 284.743C280.175 284.827 223.269 284.899 153.094 284.899C82.9186 284.899 26.001 284.827 26.001 284.743C26.001 284.66 82.8947 284.588 153.094 284.588C223.293 284.588 280.175 284.648 280.175 284.743Z" fill="#263238"/>
<path d="M90.9318 277.4L89.1318 250.896L103.472 252.242L102.276 277.938L95.2255 278.333L90.9318 277.4Z" fill="#B78876"/>
<path d="M90.5193 276.084V276.874C90.5193 276.874 77.459 282.256 77.3633 284.761L103.406 284.367L102.904 275.678C99.0587 277.543 95.0103 277.807 90.5193 276.084Z" fill="#90CAF9"/>
<g opacity="0.6">
<path d="M100.309 278.5C100.559 278.573 100.774 278.735 100.912 278.955C101.051 279.176 101.105 279.439 101.062 279.696C100.999 279.953 100.84 280.175 100.617 280.317C100.394 280.458 100.125 280.508 99.866 280.456C99.5993 280.378 99.3707 280.204 99.224 279.968C99.0773 279.732 99.0227 279.45 99.0707 279.176C99.1644 278.918 99.3542 278.706 99.6005 278.584C99.8467 278.463 100.13 278.441 100.392 278.524" fill="white"/>
</g>
<g opacity="0.6">
<path d="M103.389 284.349L103.269 282.268L78.3384 283.404C78.3384 283.404 77.1843 283.93 77.3278 284.743L103.389 284.349Z" fill="white"/>
</g>
<path d="M90.4354 276.927C90.4354 277.059 91.0753 277.107 91.7092 277.525C92.343 277.944 92.6839 278.452 92.7975 278.398C92.9111 278.345 92.7138 277.615 91.9424 277.143C91.171 276.67 90.4055 276.814 90.4354 276.927Z" fill="#263238"/>
<path d="M87.7209 278.1C87.691 278.225 88.2471 278.434 88.6896 278.967C89.1322 279.499 89.2577 280.061 89.3893 280.055C89.5209 280.049 89.5866 279.326 89.0245 278.674C88.4624 278.022 87.7209 277.98 87.7209 278.1Z" fill="#263238"/>
<path d="M86.2196 281.394C86.3332 281.394 86.5006 280.796 86.1658 280.091C85.8309 279.385 85.2269 279.128 85.1791 279.235C85.1312 279.343 85.496 279.708 85.7771 280.282C86.0581 280.856 86.1119 281.382 86.2196 281.394Z" fill="#263238"/>
<path d="M120.353 259.645L104.255 238.512L116.968 231.736L130.124 253.844L124.455 258.054L120.353 259.645Z" fill="#B78876"/>
<path d="M119.289 258.772L119.72 259.412C119.72 259.412 111.791 271.115 113.064 273.286L134.592 258.617L129.42 251.656C128.339 253.499 126.876 255.088 125.128 256.316C123.38 257.543 121.389 258.381 119.289 258.772Z" fill="#90CAF9"/>
<g opacity="0.6">
<path d="M128.792 255.399C129.043 255.323 129.313 255.342 129.551 255.453C129.789 255.563 129.979 255.757 130.083 255.997C130.168 256.247 130.153 256.52 130.041 256.76C129.93 256.999 129.731 257.186 129.485 257.283C129.221 257.366 128.935 257.348 128.683 257.232C128.431 257.116 128.231 256.91 128.122 256.655C128.056 256.388 128.096 256.106 128.235 255.868C128.373 255.63 128.599 255.456 128.863 255.381" fill="white"/>
</g>
<g opacity="0.6">
<path d="M134.58 258.587L133.336 256.912L113.172 271.581C113.172 271.581 112.496 272.651 113.064 273.255L134.58 258.587Z" fill="white"/>
</g>
<path d="M119.683 259.531C119.761 259.633 120.317 259.322 121.065 259.31C121.812 259.298 122.386 259.549 122.458 259.442C122.53 259.334 121.956 258.844 121.047 258.844C120.138 258.844 119.6 259.442 119.683 259.531Z" fill="#263238"/>
<path d="M118.063 261.996C118.111 262.115 118.661 261.996 119.343 262.187C120.025 262.378 120.431 262.785 120.539 262.713C120.647 262.641 120.306 261.996 119.48 261.762C118.655 261.529 117.997 261.924 118.063 261.996Z" fill="#263238"/>
<path d="M118.625 265.571C118.732 265.529 118.523 264.907 117.859 264.513C117.196 264.118 116.55 264.226 116.562 264.345C116.574 264.465 117.094 264.566 117.632 264.895C118.17 265.224 118.511 265.631 118.625 265.571Z" fill="#263238"/>
<path d="M95.4766 168.695C95.4766 168.695 83.0382 213.043 83.8754 216.23C84.7126 219.418 106.809 252.158 107.437 252.361C108.065 252.565 125.532 242.147 125.532 242.147L107.437 212.319C107.437 212.319 117.513 190.749 120.449 181.223C123.385 171.697 123.953 171.207 122.129 162.53C121.023 157.267 116.09 150.223 116.09 150.223L115.294 147.789H94.9085L95.4766 168.695Z" fill="#263238"/>
<path d="M82.0512 147.783L80.5742 153.685C78.0566 155.479 74.2832 163.941 74.0739 167.326C73.8646 170.711 73.0513 184.62 73.0274 194.236C72.9915 205.383 85.3821 271.581 85.3821 271.581H107.64L99.8118 166.507L97.8504 147.783H82.0512Z" fill="#263238"/>
<path d="M94.7653 161.083C94.7613 161.168 94.7493 161.252 94.7295 161.334C94.6936 161.514 94.6517 161.759 94.5919 162.07C94.4604 162.728 94.269 163.672 94.0298 164.88C93.5095 167.32 92.7321 170.86 91.7096 175.172C90.687 179.483 89.4431 184.662 88.2172 190.421C87.6192 193.297 87.0212 196.329 86.5189 199.493C85.9722 202.747 85.6545 206.036 85.5681 209.336C85.5143 212.714 85.7774 216.057 86.9555 219.035C88.0675 221.906 89.3618 224.702 90.8305 227.407C93.6052 232.592 96.4098 237.101 98.8676 240.808C101.325 244.516 103.454 247.416 104.979 249.366C105.757 250.34 106.355 251.094 106.773 251.578L107.258 252.146C107.317 252.208 107.369 252.277 107.413 252.35C106.513 251.425 105.66 250.455 104.86 249.444C103.299 247.5 101.14 244.606 98.6583 240.904C96.1766 237.202 93.3541 232.705 90.5554 227.515C89.0692 224.813 87.7627 222.016 86.6445 219.143C85.4485 216.153 85.1734 212.726 85.2332 209.336C85.3197 206.022 85.6415 202.719 86.196 199.451C86.6804 196.281 87.2963 193.249 87.9123 190.367C89.1561 184.608 90.4298 179.46 91.4704 175.13C92.5109 170.801 93.3301 167.29 93.8624 164.862C94.1315 163.666 94.3348 162.716 94.4604 162.058L94.6338 161.334C94.6681 161.246 94.7123 161.162 94.7653 161.083Z" fill="#455A64"/>
<path d="M121.059 163.547C120.818 163.666 120.563 163.757 120.3 163.816C119.595 164.012 118.875 164.148 118.147 164.223C115.728 164.476 113.284 164.103 111.051 163.138C108.818 162.174 106.871 160.65 105.398 158.715C104.946 158.137 104.545 157.521 104.202 156.873C104.063 156.643 103.955 156.396 103.879 156.138C103.933 156.102 104.405 157.154 105.553 158.577C107.043 160.44 108.967 161.908 111.157 162.854C113.346 163.799 115.734 164.193 118.111 164.001C119.953 163.852 121.042 163.481 121.059 163.547Z" fill="#455A64"/>
<path d="M83.2414 154.337C83.2414 154.337 83.2414 154.517 83.1398 154.828C83.0202 155.263 82.8724 155.691 82.6973 156.107C81.54 158.894 79.6311 161.304 77.1837 163.068C76.8161 163.334 76.4326 163.578 76.0355 163.798C75.8973 163.893 75.7435 163.964 75.5811 164.007C75.5811 163.965 76.1791 163.594 77.0521 162.895C79.3836 161.064 81.2484 158.707 82.4939 156.018C82.9723 154.989 83.1936 154.319 83.2414 154.337Z" fill="#455A64"/>
<path d="M119.337 69.6308C119.809 69.0797 120.118 68.4078 120.229 67.6906C120.34 66.9735 120.249 66.2397 119.965 65.5716C119.682 64.9036 119.218 64.3279 118.625 63.9093C118.032 63.4907 117.334 63.2458 116.61 63.2023C116.834 62.5271 116.883 61.806 116.751 61.1069C116.619 60.4078 116.311 59.7539 115.856 59.2069C115.401 58.6599 114.814 58.2379 114.151 57.9806C113.488 57.7233 112.77 57.6393 112.065 57.7365C112.018 57.0232 111.801 56.3315 111.432 55.7194C111.063 55.1072 110.553 54.5925 109.943 54.2182C109.334 53.844 108.645 53.6212 107.932 53.5685C107.219 53.5158 106.504 53.6347 105.846 53.9153C105.423 53.404 104.887 52.9972 104.281 52.7267C103.675 52.4563 103.015 52.3294 102.351 52.356C101.688 52.3826 101.04 52.562 100.458 52.8802C99.875 53.1984 99.3738 53.6468 98.993 54.1904C98.2513 54.311 97.545 54.5927 96.9239 55.0156C96.2394 54.8961 95.5347 55.001 94.9146 55.3146C94.1519 55.7352 93.4549 56.265 92.8456 56.8874C91.811 57.8561 90.7227 58.8907 90.3579 60.2601C89.9453 61.785 90.4894 63.5312 89.718 64.9125C89.3427 65.4074 89.0106 65.9336 88.7253 66.4853C88.3366 67.5976 89.0901 68.7936 89.0004 69.9716C88.9107 71.1497 87.8762 72.2978 88.0018 73.5596C88.09 74.0033 88.2689 74.4241 88.5272 74.7955C88.7854 75.167 89.1175 75.4812 89.5027 75.7184C90.2739 76.19 90.9934 76.7412 91.6496 77.3629C92.128 77.9071 92.4329 78.5589 92.9054 79.127C93.5977 79.8858 94.5529 80.3527 95.577 80.4326C96.6011 80.5126 97.6172 80.1997 98.4189 79.5576C98.9674 79.9739 99.6074 80.2529 100.286 80.3715C100.964 80.4901 101.661 80.4448 102.318 80.2393C103.629 79.8204 104.863 79.1901 105.972 78.3735C106.22 78.7086 106.547 78.9764 106.925 79.1525C107.303 79.3286 107.719 79.4075 108.135 79.3819C108.551 79.3564 108.954 79.2272 109.307 79.0062C109.66 78.7852 109.953 78.4793 110.158 78.1164C110.347 78.5545 110.676 78.9174 111.094 79.1479C111.512 79.3785 111.994 79.4637 112.466 79.3901C113.407 79.2253 114.299 78.8491 115.073 78.2898C116.592 77.3509 118.296 76.1191 118.332 74.331C118.332 73.2367 117.734 72.1065 118.147 71.0959C118.464 70.5476 118.865 70.0531 119.337 69.6308Z" fill="#263238"/>
<path d="M85.4365 62.5027C86.3512 61.2267 87.5218 60.1556 88.8738 59.3576C90.2257 58.5596 91.7292 58.0523 93.2883 57.8682C97.6238 57.1326 102.444 57.8682 105.966 60.4994C109.195 62.8914 110.989 66.892 111.491 70.8986C111.665 72.3099 111.24 73.6673 110.846 75.0308C110.235 76.6137 109.105 77.9421 107.64 78.7982C106.378 79.4619 105.846 79.0374 104.788 78.0985C104.181 77.4715 103.708 76.7266 103.4 75.9098C101.87 72.567 100.117 69.2541 97.54 66.6289C94.9627 64.0036 91.4404 62.1259 87.7627 62.2395" fill="#90CAF9"/>
<path d="M104.56 69.1168C104.118 67.9208 104.309 66.5872 104.147 65.3135C103.783 62.5208 101.606 60.1587 98.9747 59.1302C96.2888 58.1918 93.3613 58.2087 90.6864 59.178C88.6643 59.7834 86.8478 60.9337 85.436 62.5029C84.5445 63.58 83.9236 64.8546 83.6251 66.2205C83.3265 67.5864 83.359 69.0039 83.7197 70.3546L98.0239 68.459C99.2868 69.6542 100.737 70.634 102.318 71.3593C102.782 71.577 103.296 71.6658 103.807 71.6164C104.06 71.5899 104.301 71.4905 104.499 71.3302C104.698 71.17 104.845 70.9558 104.925 70.7134C104.964 70.1569 104.837 69.6012 104.56 69.1168Z" fill="#263238"/>
<path d="M90.3339 63.1127L102.76 65.9173C103.342 65.9623 103.885 66.2238 104.282 66.6502C104.68 67.0765 104.903 67.6366 104.907 68.2196L104.411 95.1954C104.386 97.035 103.755 98.8151 102.617 100.26L101.421 101.779C100.789 102.583 99.9668 103.217 99.0286 103.623C98.0905 104.029 97.0658 104.196 96.0473 104.107C95.0288 104.017 94.0486 103.676 93.1951 103.113C92.3417 102.55 91.6419 101.784 91.1591 100.882C91.0389 100.657 90.9465 100.418 90.884 100.171C90.8339 99.9742 90.7979 99.7744 90.7764 99.5727C90.5782 98.2209 90.5221 96.852 90.609 95.4884C90.5193 93.0964 90.4953 92.0977 90.4953 92.1217C90.4953 92.1456 85.4004 91.41 84.1745 84.8201C83.5765 81.543 83.5765 76.1431 83.7559 71.7239C83.8635 67.7352 86.3632 62.7898 90.3339 63.1127Z" fill="#B78876"/>
<path d="M86.2979 75.82C86.3009 76.041 86.3901 76.2522 86.5465 76.4085C86.7028 76.5649 86.914 76.6541 87.1351 76.6572C87.2435 76.6636 87.3522 76.6481 87.4545 76.6116C87.5569 76.575 87.6508 76.5182 87.7306 76.4445C87.8105 76.3708 87.8746 76.2817 87.9192 76.1826C87.9638 76.0835 87.988 75.9765 87.9902 75.8678C87.9871 75.6473 87.8977 75.4368 87.7412 75.2814C87.5847 75.126 87.3735 75.0381 87.153 75.0366C87.045 75.0301 86.9368 75.0455 86.8349 75.0816C86.7329 75.1178 86.6393 75.1741 86.5595 75.2472C86.4797 75.3202 86.4155 75.4086 86.3705 75.507C86.3256 75.6054 86.3009 75.7118 86.2979 75.82Z" fill="#263238"/>
<path d="M84.9579 74.4928C85.0655 74.6004 85.6994 74.1041 86.6083 74.0862C87.5173 74.0682 88.205 74.5048 88.3007 74.3852C88.3964 74.2656 88.2349 74.14 87.9359 73.9367C87.5359 73.6722 87.0637 73.5384 86.5844 73.5539C86.108 73.5634 85.6471 73.7247 85.2688 74.0144C84.9937 74.2416 84.916 74.445 84.9579 74.4928Z" fill="#263238"/>
<path d="M94.9502 75.82C94.9548 76.0416 95.0453 76.2528 95.2026 76.4089C95.3599 76.5651 95.5717 76.6541 95.7934 76.6572C95.9017 76.6628 96.01 76.6467 96.112 76.6099C96.2139 76.573 96.3075 76.5161 96.3872 76.4426C96.4669 76.369 96.531 76.2803 96.5759 76.1816C96.6208 76.0829 96.6455 75.9762 96.6485 75.8678C96.6454 75.6463 96.5552 75.4349 96.3974 75.2793C96.2396 75.1238 96.0269 75.0366 95.8053 75.0366C95.6974 75.0301 95.5892 75.0455 95.4872 75.0816C95.3853 75.1178 95.2916 75.1741 95.2119 75.2472C95.1321 75.3202 95.0678 75.4086 95.0229 75.507C94.9779 75.6054 94.9532 75.7118 94.9502 75.82Z" fill="#263238"/>
<path d="M93.9397 74.4266C94.0473 74.5342 94.6752 74.0439 95.5902 74.0199C96.5051 73.996 97.1868 74.4385 97.2825 74.3249C97.3782 74.2113 97.2167 74.0797 96.9177 73.8704C96.5149 73.6079 96.0408 73.4764 95.5603 73.4937C95.0859 73.5044 94.6273 73.6657 94.2506 73.9542C93.9756 74.1515 93.8859 74.3787 93.9397 74.4266Z" fill="#263238"/>
<path d="M90.8002 81.286C90.316 81.1453 89.8154 81.0689 89.3112 81.0587C89.078 81.0587 88.8567 80.9989 88.8089 80.8375C88.788 80.5979 88.8357 80.3573 88.9464 80.1438C89.1557 79.5458 89.3651 78.9478 89.5923 78.3498C90.4833 75.7963 91.1232 73.7033 91.0215 73.6675C90.9199 73.6316 90.1126 75.6708 89.2275 78.2242C89.0122 78.8521 88.8029 79.4561 88.6295 80.0182C88.4875 80.3014 88.4535 80.6267 88.5338 80.9332C88.5697 81.0143 88.6232 81.0865 88.6904 81.1444C88.7577 81.2023 88.8369 81.2446 88.9225 81.268C89.0539 81.2982 89.1884 81.3122 89.3232 81.3099C89.8146 81.363 90.3108 81.355 90.8002 81.286Z" fill="#263238"/>
<path d="M90.4531 92.092C93.5731 92.0646 96.6244 91.1724 99.2676 89.5146C99.2676 89.5146 97.1627 94.1491 90.5189 93.7006L90.4531 92.092Z" fill="#AA6550"/>
<path d="M91.2425 83.474C91.4105 83.251 91.6327 83.0745 91.8881 82.9615C92.1435 82.8485 92.4235 82.8026 92.7016 82.8282C92.9037 82.8391 93.1015 82.8915 93.2825 82.982C93.4636 83.0725 93.6241 83.1993 93.7541 83.3544C93.8801 83.5038 93.9575 83.6881 93.9756 83.8827C93.9938 84.0772 93.952 84.2727 93.8557 84.4428C93.7123 84.6112 93.5219 84.7331 93.3088 84.7927C93.0958 84.8524 92.8698 84.8471 92.6597 84.7777C92.2202 84.637 91.8134 84.4092 91.4637 84.1079C91.3585 84.0376 91.2673 83.9484 91.1946 83.8448C91.1607 83.7944 91.1426 83.7351 91.1426 83.6744C91.1426 83.6136 91.1607 83.5543 91.1946 83.5039" fill="#AA6550"/>
<path d="M93.5028 81.8478C93.3533 81.8478 93.3773 82.8345 92.552 83.558C91.7268 84.2816 90.6623 84.2039 90.6564 84.3414C90.6504 84.479 90.8956 84.5268 91.3441 84.5268C91.9249 84.5227 92.485 84.3106 92.9228 83.9288C93.3465 83.567 93.6125 83.0543 93.6643 82.4996C93.6882 82.081 93.5746 81.8418 93.5028 81.8478Z" fill="#263238"/>
<path d="M93.7122 71.6701C93.8079 71.9153 94.7168 71.7778 95.7932 71.8735C96.8696 71.9691 97.7427 72.2442 97.8802 72.023C97.9401 71.9153 97.7846 71.6821 97.4258 71.425C96.9519 71.1438 96.4204 70.9741 95.8714 70.9285C95.3223 70.8829 94.7701 70.9627 94.2564 71.1618C93.8856 71.3532 93.6703 71.5565 93.7122 71.6701Z" fill="#263238"/>
<path d="M85.1191 70.4921C85.2865 70.6954 85.9085 70.4921 86.6679 70.4323C87.4274 70.3725 88.0673 70.5339 88.2048 70.3127C88.2706 70.205 88.1629 70.0017 87.8759 69.8104C87.497 69.5806 87.0561 69.474 86.6141 69.5054C86.1692 69.5259 85.7413 69.6825 85.3882 69.9539C85.1251 70.1751 85.0473 70.3904 85.1191 70.4921Z" fill="#263238"/>
<path d="M106.869 67.2204C105.625 63.4112 100.046 58.1667 96.051 58.4717L89.7002 62.3527C89.9144 63.4367 90.4159 64.4432 91.1523 65.2669C91.8887 66.0906 92.8329 66.7013 93.8862 67.0351C95.0164 67.3759 96.3799 67.4596 97.0556 68.4224C97.7313 69.3852 97.3606 70.8563 98.0064 71.8789C98.9034 73.2901 101.319 73.2064 101.995 74.7313C102.288 75.4011 102.145 76.2024 102.45 76.8662C102.856 77.7452 105.111 78.8575 106.038 78.5525C106.964 78.2476 106.958 76.6748 107.234 75.8436C107.611 74.9076 107.651 73.8697 107.347 72.9074C106.958 71.0417 107.461 69.0443 106.869 67.2204Z" fill="#263238"/>
<path d="M109.351 64.3741L108.86 66.4791C108.882 64.9774 108.502 63.4971 107.76 62.1914C106.163 59.7994 102.653 58.1549 99.8843 57.3596C97.1156 56.5642 93.713 57.0486 91.0339 58.119C88.6229 59.0278 86.5498 60.6563 85.0958 62.7834C83.0626 65.5342 82.5902 69.6784 83.846 70.4139C84.8386 67.5614 86.4114 64.2904 88.905 62.5801C90.1405 61.702 91.5532 61.1052 93.044 60.8314C94.5347 60.5576 96.0674 60.6136 97.5342 60.9954C100.763 61.9462 103.221 64.6791 104.65 67.7229C105.347 69.2829 105.89 70.9072 106.271 72.5727C106.736 74.5285 106.721 76.5677 106.229 78.5168L104.614 84.1679L104.579 86.0038C108.507 84.5506 110.935 80.4543 111.587 76.3162C112.239 72.178 111.773 68.1714 109.351 64.3741Z" fill="#90CAF9"/>
<path d="M106.043 76.9382C106.014 76.9382 106.151 76.5973 106.253 75.9754C106.383 75.0962 106.314 74.1989 106.049 73.3502C105.674 72.0903 104.867 71.0024 103.771 70.2765C103.098 69.8822 102.399 69.5345 101.678 69.2359C100.875 68.9075 100.15 68.4145 99.5492 67.7888C99.037 67.0986 98.6206 66.3422 98.3113 65.5403C97.8716 64.5968 97.1788 63.7938 96.3099 63.2205C95.441 62.6473 94.4302 62.3263 93.3898 62.2932C92.5021 62.2739 91.6215 62.4537 90.8124 62.8194C90.2144 63.0825 89.9573 63.2978 89.9453 63.2739C90.0007 63.2092 90.0652 63.1528 90.1367 63.1064C90.334 62.9568 90.5441 62.8247 90.7646 62.7118C91.7806 62.1837 92.9327 61.9753 94.0693 62.1141C95.206 62.2528 96.2741 62.7322 97.1333 63.4892C97.7451 64.0217 98.24 64.6753 98.5864 65.4087C98.8895 66.1829 99.2915 66.9145 99.7824 67.5855C100.358 68.1771 101.047 68.6451 101.81 68.9609C102.54 69.269 103.247 69.6287 103.927 70.0373C104.874 70.6857 105.611 71.5978 106.046 72.6607C106.48 73.7235 106.594 74.8905 106.372 76.0173C106.321 76.2601 106.249 76.4982 106.157 76.7289C106.129 76.8034 106.091 76.8738 106.043 76.9382Z" fill="#455A64"/>
<path d="M105.44 69.8516C105.44 69.8516 105.296 69.6124 104.955 69.2536C104.437 68.7978 103.844 68.4338 103.203 68.1773C102.809 67.9919 102.36 67.7945 101.906 67.5254C101.402 67.2518 100.965 66.8699 100.626 66.4072C99.9143 65.4145 99.6871 64.075 98.7422 63.154C97.8517 62.284 96.7007 61.7295 95.4652 61.5753C94.4621 61.4601 93.4461 61.5434 92.4752 61.8205C91.5727 62.1077 90.6897 62.4533 89.832 62.855C90.0292 62.6894 90.2461 62.5488 90.4779 62.4365C91.0927 62.092 91.7421 61.8133 92.4154 61.6052C93.4211 61.2865 94.4821 61.1806 95.531 61.2943C96.8375 61.4365 98.0576 62.016 98.9934 62.9388C100.016 63.9494 100.237 65.3308 100.889 66.2397C101.541 67.1487 102.563 67.5733 103.329 67.9799C103.983 68.2586 104.574 68.6653 105.069 69.1759C105.2 69.3173 105.311 69.4763 105.398 69.6483C105.422 69.7799 105.452 69.8457 105.44 69.8516Z" fill="#455A64"/>
<path d="M103.322 79.3539C103.322 78.8635 103.849 77.6855 104.333 77.5958C105.625 77.3625 107.969 77.4044 108.076 80.7054C108.226 85.2143 103.669 84.4309 103.657 84.2934C103.645 84.1558 103.358 81.0582 103.322 79.3539Z" fill="#B78876"/>
<path d="M104.979 82.5236C104.979 82.5236 105.057 82.5774 105.194 82.6372C105.386 82.7157 105.601 82.7157 105.792 82.6372C106.082 82.4423 106.313 82.1725 106.462 81.8566C106.61 81.5408 106.67 81.1905 106.636 80.8432C106.635 80.4558 106.548 80.0735 106.378 79.725C106.335 79.5843 106.257 79.4564 106.153 79.3522C106.049 79.248 105.921 79.1707 105.78 79.127C105.689 79.1057 105.594 79.1174 105.51 79.1601C105.427 79.2029 105.362 79.2738 105.326 79.3602C105.266 79.4858 105.296 79.5755 105.272 79.5815C105.248 79.5874 105.177 79.5097 105.206 79.3243C105.229 79.2129 105.288 79.1121 105.374 79.0373C105.495 78.939 105.649 78.8918 105.804 78.9057C105.991 78.9363 106.167 79.0146 106.315 79.133C106.462 79.2513 106.577 79.4058 106.648 79.5815C106.852 79.9643 106.961 80.3911 106.965 80.8253C106.965 81.7402 106.528 82.6193 105.882 82.8106C105.762 82.8508 105.635 82.8631 105.509 82.8465C105.384 82.8299 105.264 82.7849 105.159 82.715C104.991 82.6612 104.961 82.5595 104.979 82.5236Z" fill="#AA6550"/>
<path d="M108.77 82.9002C108.823 82.7396 108.893 82.5851 108.979 82.4398C109.123 82.1348 109.332 81.6923 109.547 81.1002C110.15 79.4206 110.446 77.6462 110.42 75.8618C110.396 74.6313 110.268 73.405 110.038 72.196C109.806 70.8062 109.445 69.4409 108.961 68.1177C108.418 66.6593 107.656 65.2922 106.701 64.0632C105.668 62.7532 104.423 61.6253 103.017 60.7264C100.279 58.9782 97.0101 58.2558 93.7901 58.6872C92.3953 58.8685 91.0385 59.2723 89.7715 59.8832C88.6695 60.4204 87.6505 61.1132 86.7457 61.9403C85.4311 63.1447 84.3717 64.6007 83.6301 66.222C83.3789 66.82 83.2115 67.2625 83.1098 67.5795C83.0643 67.7424 83.0084 67.9022 82.9424 68.0579C82.9619 67.8893 82.998 67.7231 83.05 67.5615C83.178 67.0896 83.3358 66.6262 83.5224 66.1742C84.7268 63.3391 86.9021 61.026 89.6579 59.65C90.9464 59.0136 92.33 58.5915 93.7542 58.4002C97.0425 57.9377 100.388 58.6674 103.185 60.4573C105.977 62.2382 108.101 64.8942 109.224 68.01C109.711 69.3525 110.07 70.7381 110.295 72.1482C110.515 73.3721 110.631 74.6124 110.642 75.8558C110.653 77.6622 110.32 79.4541 109.661 81.1361C109.486 81.5871 109.286 82.0282 109.063 82.4577C108.977 82.6126 108.879 82.7606 108.77 82.9002Z" fill="#263238"/>
<path d="M106.856 83.7198C106.916 83.6361 107.06 83.6002 107.263 83.7198C107.399 83.7964 107.517 83.9002 107.611 84.0247C107.704 84.1492 107.771 84.2918 107.807 84.4434C107.869 84.6653 107.879 84.8986 107.837 85.1251C107.784 85.4081 107.653 85.6708 107.46 85.8846C107.247 86.1201 106.976 86.2966 106.674 86.3972C106.373 86.4979 106.05 86.5192 105.738 86.4591C105.425 86.399 105.134 86.2596 104.891 86.0543C104.648 85.8489 104.462 85.5846 104.351 85.2866C104.259 85.0611 104.216 84.819 104.225 84.5758C104.233 84.3327 104.292 84.094 104.399 83.8753C104.469 83.7247 104.573 83.5924 104.702 83.4886C104.832 83.3849 104.984 83.3125 105.146 83.2773C105.391 83.2414 105.511 83.355 105.523 83.4567C105.52 83.5731 105.497 83.6883 105.457 83.7975C105.436 83.9362 105.436 84.0774 105.457 84.2161C105.492 84.3802 105.562 84.5351 105.66 84.6706C105.751 84.794 105.882 84.881 106.031 84.9158C106.18 84.9411 106.333 84.9181 106.468 84.85C106.53 84.8191 106.585 84.7754 106.629 84.7219C106.674 84.6683 106.706 84.606 106.725 84.5391C106.839 84.2102 106.737 83.8932 106.856 83.7198Z" fill="#455A64"/>
<path d="M71.4673 111.969C71.4673 111.969 72.2148 105.989 75.1151 102.957C78.0154 99.9256 90.5376 96.0685 90.5376 96.0685C90.5376 96.0685 90.6213 100.482 93.5276 101.516C96.6013 102.611 99.5913 102.031 101.846 99.4173C103.191 97.7814 104.088 95.8236 104.447 93.7363C104.447 93.7363 119.612 95.1416 121.968 99.1183C124.325 103.095 127.374 118.44 127.374 118.44L113.848 121.31L115.689 147.784H79.7496L80.4553 122.943L70.666 124.336L71.4673 111.969Z" fill="#455A64"/>
<path d="M111.162 122.183C111.122 121.986 111.106 121.785 111.114 121.585C111.114 121.196 111.114 120.64 111.114 119.958C111.114 118.583 111.114 116.687 111.18 114.576C111.246 112.465 111.276 110.588 111.336 109.194C111.366 108.507 111.39 107.95 111.419 107.568C111.414 107.366 111.438 107.164 111.491 106.97C111.534 107.166 111.55 107.367 111.539 107.568C111.539 107.95 111.539 108.507 111.539 109.194C111.539 110.564 111.539 112.459 111.473 114.576C111.407 116.693 111.372 118.565 111.312 119.958C111.312 120.646 111.258 121.202 111.234 121.585C111.24 121.787 111.216 121.988 111.162 122.183Z" fill="#263238"/>
<path d="M77.1416 111.287C77.2254 111.287 78.0685 113.948 79.0313 117.267C79.9941 120.586 80.6997 123.331 80.616 123.349C79.8882 121.388 79.2595 119.392 78.7323 117.369C77.7396 114.032 77.04 111.311 77.1416 111.287Z" fill="#263238"/>
<path d="M120.455 98.1552C120.455 98.2091 119.81 98.3287 118.823 98.7054C116.232 99.6931 114.077 101.569 112.741 103.998C112.233 104.925 112.024 105.553 111.97 105.535C111.98 105.377 112.014 105.221 112.071 105.074C112.194 104.663 112.352 104.262 112.544 103.878C113.174 102.617 114.047 101.493 115.112 100.569C116.177 99.6459 117.414 98.9414 118.751 98.4961C119.155 98.3626 119.569 98.2606 119.989 98.1911C120.288 98.1493 120.449 98.1313 120.455 98.1552Z" fill="#263238"/>
<path d="M74.8936 104.171C75.1994 104.757 75.4132 105.386 75.5274 106.037C75.7405 106.663 75.8536 107.319 75.8623 107.98C75.3415 106.769 75.0145 105.484 74.8936 104.171Z" fill="#263238"/>
<path d="M124.982 118.954C124.982 118.954 120.928 139.525 120.467 141.283C120.007 143.042 119.271 147.784 114.35 148.764C107.724 150.086 81.7168 149.165 81.7168 149.165L86.6204 142.952L109.38 136.571L112.49 121.621L124.982 118.954Z" fill="#B78876"/>
<path d="M64.4043 115.133C64.4043 115.133 68.07 127.47 69.589 132.804C71.2095 138.467 74.7377 151.342 82.2725 149.051C88.0014 147.311 86.315 139.884 86.315 139.884L80.4546 122.943L75.8919 123.702L71.4667 112.274L64.4043 115.133Z" fill="#B78876"/>
<path d="M84.3177 140.416C84.522 139.498 84.522 138.547 84.3177 137.629C84.0843 136.641 83.6795 135.702 83.1217 134.854C82.3995 133.822 81.5998 132.847 80.7297 131.936C79.8566 131.013 79.0568 130.023 78.3377 128.976C77.7643 128.109 77.2623 127.197 76.8367 126.249C76.5541 125.611 76.3104 124.956 76.1071 124.288C76.0172 124.047 75.9569 123.796 75.9277 123.54C76.0449 123.767 76.143 124.003 76.2208 124.246C76.4002 124.706 76.6573 125.364 77.04 126.153C77.4844 127.078 77.9982 127.967 78.5769 128.814C79.3042 129.842 80.1035 130.818 80.9689 131.733C81.8494 132.66 82.6496 133.66 83.3609 134.723C83.9358 135.6 84.3414 136.578 84.5569 137.605C84.7012 138.298 84.7113 139.013 84.5868 139.71C84.5477 139.897 84.4937 140.081 84.4253 140.26C84.3476 140.362 84.3177 140.422 84.3177 140.416Z" fill="#AA6550"/>
<path d="M58.2931 91.9543C58.2931 91.9543 58.891 91.1171 60.3681 92.4088C61.8452 93.7005 67.8192 103.849 68.2856 104.781C68.7521 105.714 71.467 112.274 71.467 112.274L65.4152 116.562L64.4046 115.133C64.4046 115.133 59.3276 110.63 58.2931 109.386C57.3845 108.345 56.5549 107.238 55.8114 106.073C55.7575 105.816 55.3987 104.506 56.4094 104.124C56.4094 104.124 55.4227 102.557 56.3017 101.779C57.1808 101.002 58.7894 101.726 58.7894 101.726L53.4074 94.7888C53.4074 94.7888 52.9409 92.7197 54.4957 93.4971C56.0505 94.2745 60.1349 100.225 60.8585 100.38C61.582 100.536 61.5821 99.7821 61.5821 99.7821C61.5821 99.7821 57.3662 93.3656 58.2931 91.9543Z" fill="#B78876"/>
<path d="M63.8301 110.163C63.8301 110.163 63.7703 110.067 63.7045 109.876C63.6036 109.596 63.5354 109.305 63.5012 109.009C63.4168 108.469 63.445 107.917 63.5839 107.388C63.7228 106.859 63.9695 106.364 64.3085 105.935V106.103C63.7643 105.445 63.1723 104.715 62.5145 103.944L62.5564 103.98C62.1318 103.735 61.6952 103.466 61.2587 103.178L60.5949 102.724C60.361 102.566 60.1428 102.385 59.9431 102.186C59.7512 101.992 59.6364 101.735 59.6202 101.462C59.6187 101.325 59.6468 101.188 59.7025 101.062C59.7582 100.937 59.8402 100.824 59.9431 100.733L59.9969 100.673H60.0806L63.8062 101.731L66.7364 103.914C67.1189 104.177 67.479 104.471 67.8128 104.793C67.4085 104.569 67.019 104.319 66.6467 104.046L63.6567 101.947H63.6985L59.967 100.93H60.1046C60.0385 100.993 59.9859 101.07 59.95 101.154C59.914 101.238 59.8954 101.329 59.8953 101.42C59.9135 101.617 60.0003 101.801 60.1404 101.941C60.3242 102.124 60.5243 102.29 60.7384 102.437L61.3843 102.885C61.8148 103.172 62.2454 103.442 62.664 103.681C63.262 104.47 63.86 105.206 64.4042 105.869L64.47 105.953L64.3982 106.037C64.0237 106.482 63.7631 107.012 63.6387 107.58C63.5387 108.019 63.5084 108.471 63.549 108.919C63.7165 109.745 63.866 110.151 63.8301 110.163Z" fill="#AA6550"/>
<path d="M58.8788 102.066C59.0704 102.246 59.2409 102.446 59.3871 102.664C59.8161 103.247 60.2018 103.861 60.5412 104.5C60.782 104.944 60.9977 105.401 61.1871 105.87C61.3038 106.152 61.333 106.462 61.2708 106.761C61.2243 106.928 61.131 107.079 61.0018 107.196C60.8725 107.312 60.7128 107.39 60.5412 107.419C60.2036 107.483 59.854 107.426 59.5545 107.257C59.257 107.103 58.9798 106.912 58.7293 106.689C58.2235 106.23 57.7793 105.707 57.4077 105.134C57.1864 104.817 56.9891 104.494 56.8097 104.189L57.0549 104.01C57.8329 104.911 58.4958 105.905 59.0283 106.97C59.161 107.224 59.2268 107.508 59.2196 107.795C59.2121 107.938 59.1721 108.078 59.1027 108.203C59.0333 108.329 58.9363 108.436 58.819 108.519C58.7011 108.582 58.5704 108.618 58.4367 108.623C58.303 108.628 58.1699 108.603 58.0476 108.549C57.8439 108.458 57.6561 108.334 57.4914 108.184C57.0144 107.758 56.5816 107.285 56.1997 106.773C56.0504 106.592 55.9275 106.39 55.835 106.175C56.3926 106.827 56.9918 107.442 57.629 108.017C57.916 108.25 58.3525 108.513 58.6934 108.298C58.775 108.234 58.8415 108.154 58.8881 108.062C58.9346 107.97 58.96 107.868 58.9625 107.765C58.9612 107.525 58.9017 107.289 58.7891 107.078C58.2401 106.049 57.5761 105.086 56.8097 104.207L57.0609 104.028C57.2462 104.327 57.4496 104.626 57.6589 104.961C58.0228 105.517 58.4547 106.025 58.9446 106.474C59.423 106.874 59.9791 107.269 60.4994 107.155C60.6208 107.136 60.7344 107.084 60.8274 107.003C60.9205 106.923 60.9891 106.818 61.0256 106.701C61.075 106.455 61.0522 106.199 60.9598 105.965C60.7804 105.481 60.5592 105.021 60.3618 104.614C60.0446 103.972 59.6912 103.35 59.3034 102.748C59.1396 102.536 58.9973 102.307 58.8788 102.066Z" fill="#AA6550"/>
<path d="M86.178 139.478C86.2706 139.625 86.3374 139.786 86.3753 139.956C86.51 140.402 86.5981 140.861 86.6384 141.325C86.7739 142.878 86.4495 144.435 85.7056 145.804C85.3084 146.558 84.8071 147.253 84.2165 147.867C83.7268 148.372 83.1358 148.768 82.4823 149.028C82.0435 149.197 81.582 149.299 81.1129 149.333C80.9432 149.367 80.7683 149.367 80.5986 149.333C81.2102 149.223 81.8106 149.059 82.3926 148.842C82.9998 148.564 83.5479 148.173 84.0072 147.688C84.5634 147.078 85.0415 146.401 85.4305 145.673C86.1417 144.349 86.4806 142.857 86.4112 141.355C86.3634 140.183 86.1122 139.495 86.178 139.478Z" fill="#AA6550"/>
</svg>
