<svg width="28" height="28" viewBox="0 0 28 28" fill="none" xmlns="http://www.w3.org/2000/svg">
<path d="M15.1422 14.9527C15.6584 18.1575 19.6736 19.5622 19.7136 22.5718C19.7384 24.4489 18.7613 26.3956 16.8565 27.3337C16.5393 25.6537 15.8251 22.4403 13.9993 21.6194C12.3327 22.4013 10.8641 25.5356 10.1898 27.3337C9.04125 26.3203 8.28506 24.3946 8.28506 22.5718C8.28506 19.2956 11.2136 14.9137 15.1422 14.9527ZM23.9946 19.2384C25.346 21.3022 23.6317 24.527 21.5736 24.4765C24.9279 20.687 18.467 18.8613 22.5422 14.9537C21.8765 17.7108 23.5841 18.6118 23.9946 19.2384ZM6.42506 24.4765C4.36697 24.527 2.65268 21.3022 4.00411 19.2384C4.41459 18.6118 6.12221 17.7108 5.45649 14.9527C9.53173 18.8613 3.07078 20.687 6.42506 24.4765ZM20.666 7.33366H24.4755L23.5232 12.0956H4.47554L3.52316 7.33366H7.33268V9.71461C7.33268 9.84091 7.38285 9.96203 7.47216 10.0513C7.56146 10.1406 7.68258 10.1908 7.80887 10.1908H8.76125C8.88755 10.1908 9.00867 10.1406 9.09797 10.0513C9.18727 9.96203 9.23744 9.84091 9.23744 9.71461V7.33366H13.047V9.71461C13.047 9.84091 13.0971 9.96203 13.1864 10.0513C13.2757 10.1406 13.3969 10.1908 13.5232 10.1908H14.4755C14.6018 10.1908 14.723 10.1406 14.8123 10.0513C14.9016 9.96203 14.9517 9.84091 14.9517 9.71461V7.33366H18.7613V9.71461C18.7613 9.84091 18.8114 9.96203 18.9007 10.0513C18.99 10.1406 19.1112 10.1908 19.2374 10.1908H20.1898C20.3161 10.1908 20.4372 10.1406 20.5265 10.0513C20.6158 9.96203 20.666 9.84091 20.666 9.71461V7.33366ZM0.666016 0.666992V5.4289C0.666016 5.68148 0.766355 5.92373 0.944962 6.10233C1.12357 6.28094 1.36581 6.38128 1.6184 6.38128H26.3803C26.6329 6.38128 26.8751 6.28094 27.0537 6.10233C27.2323 5.92373 27.3327 5.68148 27.3327 5.4289V0.666992H0.666016ZM13.9993 4.95271C13.8117 4.95264 13.6259 4.91562 13.4525 4.84374C13.2792 4.77187 13.1217 4.66656 12.989 4.53381C12.8563 4.40107 12.7511 4.2435 12.6794 4.07009C12.6076 3.89669 12.5707 3.71085 12.5708 3.52318C12.5708 3.33552 12.6079 3.1497 12.6797 2.97635C12.7516 2.80299 12.8569 2.64549 12.9897 2.51283C13.1224 2.38018 13.28 2.27497 13.4534 2.20321C13.6268 2.13145 13.8126 2.09455 14.0003 2.09461C14.3793 2.09474 14.7427 2.24542 15.0107 2.51351C15.2786 2.78159 15.429 3.14513 15.4289 3.52414C15.4287 3.90314 15.2781 4.26658 15.01 4.53449C14.7419 4.80239 14.3784 4.95283 13.9993 4.95271Z" fill="#045284"/>
</svg>
