<svg width="40" height="40" viewBox="0 0 40 40" fill="none" xmlns="http://www.w3.org/2000/svg">
<path d="M21.5 21.25C22.1775 25.4562 27.4475 27.3 27.5 31.25C27.5325 33.7138 26.25 36.2687 23.75 37.5C23.3337 35.295 22.3962 31.0775 20 30C17.8125 31.0263 15.885 35.14 15 37.5C13.4925 36.17 12.5 33.6425 12.5 31.25C12.5 26.95 16.3438 21.1987 21.5 21.25ZM33.1188 26.875C34.8925 29.5837 32.6425 33.8162 29.9412 33.75C34.3437 28.7762 25.8637 26.38 31.2125 21.2512C30.3387 24.87 32.58 26.0525 33.1188 26.875ZM10.0588 33.75C7.3575 33.8162 5.1075 29.5837 6.88125 26.875C7.42 26.0525 9.66125 24.87 8.7875 21.25C14.1362 26.38 5.65625 28.7762 10.0588 33.75ZM28.75 11.25H33.75L32.5 17.5H7.5L6.25 11.25H11.25V14.375C11.25 14.5408 11.3158 14.6997 11.4331 14.8169C11.5503 14.9342 11.7092 15 11.875 15H13.125C13.2908 15 13.4497 14.9342 13.5669 14.8169C13.6842 14.6997 13.75 14.5408 13.75 14.375V11.25H18.75V14.375C18.75 14.5408 18.8158 14.6997 18.9331 14.8169C19.0503 14.9342 19.2092 15 19.375 15H20.625C20.7908 15 20.9497 14.9342 21.0669 14.8169C21.1842 14.6997 21.25 14.5408 21.25 14.375V11.25H26.25V14.375C26.25 14.5408 26.3158 14.6997 26.4331 14.8169C26.5503 14.9342 26.7092 15 26.875 15H28.125C28.2908 15 28.4497 14.9342 28.5669 14.8169C28.6842 14.6997 28.75 14.5408 28.75 14.375V11.25ZM2.5 2.5V8.75C2.5 9.08152 2.6317 9.39946 2.86612 9.63388C3.10054 9.8683 3.41848 10 3.75 10H36.25C36.5815 10 36.8995 9.8683 37.1339 9.63388C37.3683 9.39946 37.5 9.08152 37.5 8.75V2.5H2.5ZM20 8.125C19.7537 8.12492 19.5098 8.07632 19.2823 7.98199C19.0547 7.88765 18.848 7.74943 18.6739 7.5752C18.4998 7.40097 18.3617 7.19416 18.2675 6.96657C18.1734 6.73898 18.1249 6.49506 18.125 6.24875C18.1251 6.00244 18.1737 5.75856 18.268 5.53103C18.3623 5.3035 18.5006 5.09678 18.6748 4.92267C18.849 4.74856 19.0558 4.61047 19.2834 4.51628C19.511 4.4221 19.7549 4.37367 20.0012 4.37375C20.4987 4.37392 20.9757 4.57168 21.3273 4.92355C21.679 5.27541 21.8764 5.75255 21.8762 6.25C21.8761 6.74745 21.6783 7.22445 21.3265 7.57608C20.9746 7.92771 20.4974 8.12517 20 8.125Z" fill="#045284"/>
</svg>
