<svg width="40" height="40" viewBox="0 0 40 40" fill="none" xmlns="http://www.w3.org/2000/svg">
<path fill-rule="evenodd" clip-rule="evenodd" d="M22.4997 35.0011V28.3344H17.4997V35.0011H11.6664C11.2244 35.0011 10.8005 34.8255 10.4879 34.5129C10.1753 34.2003 9.99975 33.7764 9.99975 33.3344V23.3344H5.68975C5.36017 23.3343 5.038 23.2365 4.76398 23.0534C4.48997 22.8702 4.2764 22.61 4.15029 22.3055C4.02417 22.001 3.99116 21.6659 4.05544 21.3427C4.11972 21.0194 4.2784 20.7225 4.51142 20.4894L18.8214 6.17938C19.134 5.86693 19.5578 5.69141 19.9997 5.69141C20.4417 5.69141 20.8655 5.86693 21.1781 6.17938L35.4881 20.4894C35.7211 20.7225 35.8798 21.0194 35.9441 21.3427C36.0083 21.6659 35.9753 22.001 35.8492 22.3055C35.7231 22.61 35.5095 22.8702 35.2355 23.0534C34.9615 23.2365 34.6393 23.3343 34.3097 23.3344H29.9997V33.3344C29.9997 33.7764 29.8242 34.2003 29.5116 34.5129C29.199 34.8255 28.7751 35.0011 28.3331 35.0011H22.4997Z" fill="#045284"/>
</svg>
