<svg width="28" height="31" viewBox="0 0 28 31" fill="none" xmlns="http://www.w3.org/2000/svg">
<path fill-rule="evenodd" clip-rule="evenodd" d="M5.52636 4.38855H7.5399C7.59103 4.38865 7.64004 4.40901 7.67619 4.44516C7.71234 4.48131 7.7327 4.53032 7.7328 4.58145V5.13369L5.33352 6.52947V4.58145C5.33362 4.53033 5.35397 4.48133 5.39011 4.44518C5.42625 4.40903 5.47524 4.38867 5.52636 4.38855ZM12.7054 19.0158C12.7019 18.6711 12.3251 18.1517 11.8365 18.1517H1.76096C1.27245 18.1517 0.906045 18.6251 0.901035 18.9698L0.872642 20.9113H12.7248L12.7054 19.0158ZM7.8801 20.0454H5.66633C5.53003 20.0454 5.39932 19.9913 5.30295 19.8949C5.20658 19.7985 5.15244 19.6678 5.15244 19.5315C5.15244 19.3952 5.20658 19.2645 5.30295 19.1681C5.39932 19.0718 5.53003 19.0176 5.66633 19.0176H7.8801C8.01639 19.0176 8.1471 19.0718 8.24347 19.1681C8.33984 19.2645 8.39398 19.3952 8.39398 19.5315C8.39398 19.6678 8.33984 19.7985 8.24347 19.8949C8.1471 19.9913 8.01639 20.0454 7.8801 20.0454ZM9.85336 20.0454C9.71707 20.0454 9.58636 19.9913 9.48999 19.8949C9.39362 19.7985 9.33947 19.6678 9.33947 19.5315C9.33947 19.3952 9.39362 19.2645 9.48999 19.1681C9.58636 19.0718 9.71707 19.0176 9.85336 19.0176C9.98966 19.0176 10.1204 19.0718 10.2167 19.1681C10.3131 19.2645 10.3673 19.3952 10.3673 19.5315C10.3673 19.6678 10.3131 19.7985 10.2167 19.8949C10.1204 19.9913 9.98966 20.0454 9.85336 20.0454ZM11.0732 20.0454C10.9369 20.0454 10.8062 19.9913 10.7098 19.8949C10.6135 19.7985 10.5593 19.6678 10.5593 19.5315C10.5593 19.3952 10.6135 19.2645 10.7098 19.1681C10.8062 19.0718 10.9369 19.0176 11.0732 19.0176C11.2095 19.0176 11.3402 19.0718 11.4366 19.1681C11.533 19.2645 11.5871 19.3952 11.5871 19.5315C11.5871 19.6678 11.533 19.7985 11.4366 19.8949C11.3402 19.9913 11.2095 20.0454 11.0732 20.0454ZM0.872707 21.9391V30.512C0.872876 30.5971 0.906781 30.6788 0.966999 30.739C1.02722 30.7992 1.10885 30.8331 1.19402 30.8333H12.4035C12.4887 30.8332 12.5704 30.7993 12.6306 30.739C12.6908 30.6788 12.7247 30.5971 12.7249 30.512V21.9391H0.872707ZM6.79881 29.3589C4.90192 29.3589 3.36417 27.8211 3.36417 25.9243C3.36417 24.0274 4.90192 22.4896 6.79881 22.4896C8.6957 22.4896 10.2334 24.0274 10.2334 25.9243C10.2334 27.8211 8.69564 29.3589 6.79881 29.3589ZM10.3338 13.3292H18.6506C19.1423 13.3292 19.5445 13.6931 19.5445 14.1379V19.6128H13.7526V19.049C13.7526 17.9932 12.8924 17.1329 11.8365 17.1329H11.2705V15.8582C11.2705 15.7219 11.2163 15.5912 11.12 15.4948C11.0236 15.3984 10.8929 15.3443 10.7566 15.3443C10.6203 15.3443 10.4896 15.3984 10.3932 15.4948C10.2968 15.5912 10.2427 15.7219 10.2427 15.8582V17.1329H9.43994V14.1379C9.43994 13.6931 9.84219 13.3292 10.3338 13.3292ZM19.5445 20.6405V30.0182C19.5445 30.4665 19.1777 30.8333 18.7294 30.8333H13.7139C13.7391 30.7303 13.7526 30.6227 13.7526 30.512V20.6405H19.5445ZM25.9763 20.6362H23.3981V30.8194H25.9763C26.4654 30.8194 26.8655 30.3442 26.8655 29.7633V21.6923C26.8655 21.1115 26.4654 20.6362 25.9763 20.6362ZM25.1318 22.4258C25.4866 22.4258 25.7742 22.7134 25.7742 23.0682C25.7742 23.4229 25.4866 23.7105 25.1318 23.7105C24.777 23.7105 24.4894 23.4229 24.4894 23.0682C24.4894 22.7134 24.777 22.4258 25.1318 22.4258ZM25.453 28.6804H24.8106C24.6743 28.6804 24.5436 28.6263 24.4472 28.5299C24.3509 28.4335 24.2967 28.3028 24.2967 28.1665C24.2967 28.0302 24.3509 27.8995 24.4472 27.8031C24.5436 27.7068 24.6743 27.6526 24.8106 27.6526H25.453C25.5893 27.6526 25.72 27.7068 25.8163 27.8031C25.9127 27.8995 25.9669 28.0302 25.9669 28.1665C25.9669 28.3028 25.9127 28.4335 25.8163 28.5299C25.72 28.6263 25.5893 28.6804 25.453 28.6804ZM25.453 26.9917H24.8106C24.6743 26.9917 24.5436 26.9376 24.4472 26.8412C24.3509 26.7448 24.2967 26.6141 24.2967 26.4778C24.2967 26.3415 24.3509 26.2108 24.4472 26.1144C24.5436 26.0181 24.6743 25.9639 24.8106 25.9639H25.453C25.5893 25.9639 25.72 26.0181 25.8163 26.1144C25.9127 26.2108 25.9669 26.3415 25.9669 26.4778C25.9669 26.6141 25.9127 26.7448 25.8163 26.8412C25.72 26.9376 25.5893 26.9917 25.453 26.9917ZM20.5723 22.199H22.3703V24.4467C22.292 24.4116 22.2062 24.3967 22.1207 24.4033C22.0352 24.4099 21.9527 24.4377 21.8807 24.4844C21.8087 24.531 21.7496 24.5949 21.7086 24.6702C21.6676 24.7456 21.6462 24.83 21.6462 24.9158V26.5399C21.6462 26.6256 21.6676 26.71 21.7086 26.7854C21.7496 26.8607 21.8087 26.9246 21.8807 26.9713C21.9527 27.0179 22.0352 27.0458 22.1207 27.0523C22.2062 27.0589 22.292 27.044 22.3703 27.0089V29.2566H20.5723V22.199ZM20.5723 20.6362H22.3703V21.1713H20.5723V20.6362ZM22.3703 30.829H20.383C20.4679 30.6575 20.5252 30.4737 20.553 30.2843H22.3703V30.829ZM13.8691 3.48545C14.8836 3.48545 15.7057 4.30767 15.7057 5.32215C15.7057 6.33664 14.8835 7.15879 13.8691 7.15879C12.8546 7.15879 12.0324 6.33657 12.0324 5.32215C12.0324 4.30774 12.8546 3.48545 13.8691 3.48545ZM13.8691 0C10.9297 0 8.54693 2.38284 8.54693 5.32215C8.54693 8.26153 10.9298 10.6443 13.8691 10.6443C16.8084 10.6443 19.1912 8.26153 19.1912 5.32215C19.1912 2.38284 16.8085 0 13.8691 0ZM17.1153 6.09691C17.0334 6.44038 16.8974 6.76862 16.7122 7.06925L16.9928 7.70114L16.2481 8.44583L15.6165 8.16531C15.3158 8.35058 14.9874 8.48667 14.6438 8.56845L14.3957 9.21313H13.3425L13.0943 8.56833C12.7509 8.48651 12.4226 8.35044 12.122 8.16525L11.4902 8.44583L10.7454 7.70114L11.026 7.06951C10.8407 6.76882 10.7046 6.44049 10.6228 6.09691L9.97811 5.84876V4.79561L10.6228 4.54747C10.7047 4.20396 10.8408 3.8757 11.026 3.57506L10.7454 2.9433L11.4901 2.19855L12.1219 2.47919C12.4225 2.29396 12.7508 2.15787 13.0943 2.07605L13.3425 1.43124H14.3956L14.6438 2.07605C14.9873 2.15787 15.3156 2.29396 15.6162 2.47919L16.248 2.19855L16.9927 2.94323L16.7121 3.57487C16.8974 3.87556 17.0335 4.20388 17.1153 4.54747L17.7599 4.79561V5.84876L17.1153 6.09691ZM25.0671 10.7375V19.6084H20.5722V14.1443C20.5722 13.1318 19.7422 12.3013 18.7293 12.3013H10.2551C9.23002 12.3013 8.41216 13.1469 8.41216 14.1379V17.1329H2.67106V10.7375H0.858832C0.662462 10.7375 0.592059 10.4766 0.761835 10.3779L7.60972 6.39426C8.11931 9.39061 10.7276 11.672 13.8691 11.672C17.0105 11.672 19.6188 9.39061 20.1284 6.39426L26.9763 10.3779C27.1461 10.4767 27.0758 10.7375 26.8793 10.7375L25.0671 10.7375ZM6.79881 23.5174C8.12837 23.5174 9.20567 24.5947 9.20567 25.9242C9.20567 27.2538 8.12843 28.3311 6.79881 28.3311C5.46925 28.3311 4.39195 27.2538 4.39195 25.9242C4.39195 24.5947 5.46918 23.5174 6.79881 23.5174Z" fill="#045284"/>
</svg>
