<svg width="40" height="40" viewBox="0 0 40 40" fill="none" xmlns="http://www.w3.org/2000/svg">
<path fill-rule="evenodd" clip-rule="evenodd" d="M11.5264 9.38855H13.5399C13.591 9.38865 13.64 9.40901 13.6762 9.44516C13.7123 9.48131 13.7327 9.53032 13.7328 9.58145V10.1337L11.3335 11.5295V9.58145C11.3336 9.53033 11.354 9.48133 11.3901 9.44518C11.4262 9.40903 11.4752 9.38867 11.5264 9.38855ZM18.7054 24.0158C18.7019 23.6711 18.3251 23.1517 17.8365 23.1517H7.76096C7.27245 23.1517 6.90605 23.6251 6.90103 23.9698L6.87264 25.9113H18.7248L18.7054 24.0158ZM13.8801 25.0454H11.6663C11.53 25.0454 11.3993 24.9913 11.303 24.8949C11.2066 24.7985 11.1524 24.6678 11.1524 24.5315C11.1524 24.3952 11.2066 24.2645 11.303 24.1681C11.3993 24.0718 11.53 24.0176 11.6663 24.0176H13.8801C14.0164 24.0176 14.1471 24.0718 14.2435 24.1681C14.3398 24.2645 14.394 24.3952 14.394 24.5315C14.394 24.6678 14.3398 24.7985 14.2435 24.8949C14.1471 24.9913 14.0164 25.0454 13.8801 25.0454ZM15.8534 25.0454C15.7171 25.0454 15.5864 24.9913 15.49 24.8949C15.3936 24.7985 15.3395 24.6678 15.3395 24.5315C15.3395 24.3952 15.3936 24.2645 15.49 24.1681C15.5864 24.0718 15.7171 24.0176 15.8534 24.0176C15.9897 24.0176 16.1204 24.0718 16.2167 24.1681C16.3131 24.2645 16.3673 24.3952 16.3673 24.5315C16.3673 24.6678 16.3131 24.7985 16.2167 24.8949C16.1204 24.9913 15.9897 25.0454 15.8534 25.0454ZM17.0732 25.0454C16.9369 25.0454 16.8062 24.9913 16.7098 24.8949C16.6135 24.7985 16.5593 24.6678 16.5593 24.5315C16.5593 24.3952 16.6135 24.2645 16.7098 24.1681C16.8062 24.0718 16.9369 24.0176 17.0732 24.0176C17.2095 24.0176 17.3402 24.0718 17.4366 24.1681C17.533 24.2645 17.5871 24.3952 17.5871 24.5315C17.5871 24.6678 17.533 24.7985 17.4366 24.8949C17.3402 24.9913 17.2095 25.0454 17.0732 25.0454ZM6.87271 26.9391V35.512C6.87288 35.5971 6.90678 35.6788 6.967 35.739C7.02722 35.7992 7.10885 35.8331 7.19402 35.8333H18.4035C18.4887 35.8332 18.5704 35.7993 18.6306 35.739C18.6908 35.6788 18.7247 35.5971 18.7249 35.512V26.9391H6.87271ZM12.7988 34.3589C10.9019 34.3589 9.36417 32.8211 9.36417 30.9243C9.36417 29.0274 10.9019 27.4896 12.7988 27.4896C14.6957 27.4896 16.2334 29.0274 16.2334 30.9243C16.2334 32.8211 14.6956 34.3589 12.7988 34.3589ZM16.3338 18.3292H24.6506C25.1423 18.3292 25.5445 18.6931 25.5445 19.1379V24.6128H19.7526V24.049C19.7526 22.9932 18.8924 22.1329 17.8365 22.1329H17.2705V20.8582C17.2705 20.7219 17.2163 20.5912 17.12 20.4948C17.0236 20.3984 16.8929 20.3443 16.7566 20.3443C16.6203 20.3443 16.4896 20.3984 16.3932 20.4948C16.2968 20.5912 16.2427 20.7219 16.2427 20.8582V22.1329H15.4399V19.1379C15.4399 18.6931 15.8422 18.3292 16.3338 18.3292ZM25.5445 25.6405V35.0182C25.5445 35.4665 25.1777 35.8333 24.7294 35.8333H19.7139C19.7391 35.7303 19.7526 35.6227 19.7526 35.512V25.6405H25.5445ZM31.9763 25.6362H29.3981V35.8194H31.9763C32.4654 35.8194 32.8655 35.3442 32.8655 34.7633V26.6923C32.8655 26.1115 32.4654 25.6362 31.9763 25.6362ZM31.1318 27.4258C31.4866 27.4258 31.7742 27.7134 31.7742 28.0682C31.7742 28.4229 31.4866 28.7105 31.1318 28.7105C30.777 28.7105 30.4894 28.4229 30.4894 28.0682C30.4894 27.7134 30.777 27.4258 31.1318 27.4258ZM31.453 33.6804H30.8106C30.6743 33.6804 30.5436 33.6263 30.4472 33.5299C30.3509 33.4335 30.2967 33.3028 30.2967 33.1665C30.2967 33.0302 30.3509 32.8995 30.4472 32.8031C30.5436 32.7068 30.6743 32.6526 30.8106 32.6526H31.453C31.5893 32.6526 31.72 32.7068 31.8163 32.8031C31.9127 32.8995 31.9669 33.0302 31.9669 33.1665C31.9669 33.3028 31.9127 33.4335 31.8163 33.5299C31.72 33.6263 31.5893 33.6804 31.453 33.6804ZM31.453 31.9917H30.8106C30.6743 31.9917 30.5436 31.9376 30.4472 31.8412C30.3509 31.7448 30.2967 31.6141 30.2967 31.4778C30.2967 31.3415 30.3509 31.2108 30.4472 31.1144C30.5436 31.0181 30.6743 30.9639 30.8106 30.9639H31.453C31.5893 30.9639 31.72 31.0181 31.8163 31.1144C31.9127 31.2108 31.9669 31.3415 31.9669 31.4778C31.9669 31.6141 31.9127 31.7448 31.8163 31.8412C31.72 31.9376 31.5893 31.9917 31.453 31.9917ZM26.5723 27.199H28.3703V29.4467C28.292 29.4116 28.2062 29.3967 28.1207 29.4033C28.0352 29.4099 27.9527 29.4377 27.8807 29.4844C27.8087 29.531 27.7496 29.5949 27.7086 29.6702C27.6676 29.7456 27.6462 29.83 27.6462 29.9158V31.5399C27.6462 31.6256 27.6676 31.71 27.7086 31.7854C27.7496 31.8607 27.8087 31.9246 27.8807 31.9713C27.9527 32.0179 28.0352 32.0458 28.1207 32.0523C28.2062 32.0589 28.292 32.044 28.3703 32.0089V34.2566H26.5723V27.199ZM26.5723 25.6362H28.3703V26.1713H26.5723V25.6362ZM28.3703 35.829H26.383C26.4679 35.6575 26.5252 35.4737 26.553 35.2843H28.3703V35.829ZM19.8691 8.48545C20.8836 8.48545 21.7057 9.30767 21.7057 10.3222C21.7057 11.3366 20.8835 12.1588 19.8691 12.1588C18.8546 12.1588 18.0324 11.3366 18.0324 10.3222C18.0324 9.30774 18.8546 8.48545 19.8691 8.48545ZM19.8691 5C16.9297 5 14.5469 7.38284 14.5469 10.3222C14.5469 13.2615 16.9298 15.6443 19.8691 15.6443C22.8084 15.6443 25.1912 13.2615 25.1912 10.3222C25.1912 7.38284 22.8085 5 19.8691 5ZM23.1153 11.0969C23.0334 11.4404 22.8974 11.7686 22.7122 12.0692L22.9928 12.7011L22.2481 13.4458L21.6165 13.1653C21.3158 13.3506 20.9874 13.4867 20.6438 13.5685L20.3957 14.2131H19.3425L19.0943 13.5683C18.7509 13.4865 18.4226 13.3504 18.122 13.1652L17.4902 13.4458L16.7454 12.7011L17.026 12.0695C16.8407 11.7688 16.7046 11.4405 16.6228 11.0969L15.9781 10.8488V9.79561L16.6228 9.54747C16.7047 9.20396 16.8408 8.8757 17.026 8.57506L16.7454 7.9433L17.4901 7.19855L18.1219 7.47919C18.4225 7.29396 18.7508 7.15787 19.0943 7.07605L19.3425 6.43124H20.3956L20.6438 7.07605C20.9873 7.15787 21.3156 7.29396 21.6162 7.47919L22.248 7.19855L22.9927 7.94323L22.7121 8.57487C22.8974 8.87556 23.0335 9.20388 23.1153 9.54747L23.7599 9.79561V10.8488L23.1153 11.0969ZM31.0671 15.7375V24.6084H26.5722V19.1443C26.5722 18.1318 25.7422 17.3013 24.7293 17.3013H16.2551C15.23 17.3013 14.4122 18.1469 14.4122 19.1379V22.1329H8.67106V15.7375H6.85883C6.66246 15.7375 6.59206 15.4766 6.76184 15.3779L13.6097 11.3943C14.1193 14.3906 16.7276 16.672 19.8691 16.672C23.0105 16.672 25.6188 14.3906 26.1284 11.3943L32.9763 15.3779C33.1461 15.4767 33.0758 15.7375 32.8793 15.7375L31.0671 15.7375ZM12.7988 28.5174C14.1284 28.5174 15.2057 29.5947 15.2057 30.9242C15.2057 32.2538 14.1284 33.3311 12.7988 33.3311C11.4692 33.3311 10.3919 32.2538 10.3919 30.9242C10.3919 29.5947 11.4692 28.5174 12.7988 28.5174Z" fill="#045284"/>
</svg>
