<svg width="16" height="12" viewBox="0 0 16 12" fill="none" xmlns="http://www.w3.org/2000/svg">
<path d="M1.00001 5.25C0.585791 5.25 0.250003 5.58578 0.25 5.99999C0.249997 6.41421 0.585781 6.75 0.999995 6.75L1.00001 5.25ZM15.5303 6.53043C15.8232 6.23754 15.8232 5.76266 15.5303 5.46977L10.7574 0.696765C10.4645 0.403869 9.98963 0.403866 9.69673 0.696758C9.40384 0.989649 9.40383 1.46452 9.69673 1.75742L13.9393 6.00009L9.69667 10.2427C9.40377 10.5356 9.40377 11.0105 9.69666 11.3034C9.98955 11.5963 10.4644 11.5963 10.7573 11.3034L15.5303 6.53043ZM0.999995 6.75L15 6.75009L15 5.25009L1.00001 5.25L0.999995 6.75Z" fill="black"/>
</svg>
