<svg width="40" height="40" viewBox="0 0 40 40" fill="none" xmlns="http://www.w3.org/2000/svg">
<path d="M13.3333 19.9987V16.6654H16.6667V19.9987H13.3333ZM23.3333 19.9987V16.6654H26.6667V19.9987H23.3333ZM5 36.6654V23.332H6.66667V16.6654C6.66667 14.832 7.01389 13.1026 7.70833 11.477C8.40278 9.85148 9.35444 8.43481 10.5633 7.22703C11.7722 6.01925 13.1889 5.06814 14.8133 4.3737C16.4378 3.67925 18.1667 3.33203 20 3.33203C21.8333 3.33203 23.5628 3.67925 25.1883 4.3737C26.8139 5.06814 28.2306 6.01981 29.4383 7.2287C30.6461 8.43759 31.5972 9.85425 32.2917 11.4787C32.9861 13.1031 33.3333 14.832 33.3333 16.6654V23.332H35V36.6654H5ZM8.33333 33.332H11.6667V26.6654H8.33333V33.332ZM15 33.332H18.3333V26.6654H15V33.332ZM10 23.332H18.3333V6.79036C15.9444 7.17925 13.9583 8.29703 12.375 10.1437C10.7917 11.9904 10 14.1643 10 16.6654V23.332ZM21.6667 23.332H30V16.6654C30 14.1654 29.2083 11.992 27.625 10.1454C26.0417 8.2987 24.0556 7.18036 21.6667 6.79036V23.332ZM21.6667 33.332H25V26.6654H21.6667V33.332ZM28.3333 33.332H31.6667V26.6654H28.3333V33.332Z" fill="#045284"/>
</svg>
