<svg width="40" height="40" viewBox="0 0 40 40" fill="none" xmlns="http://www.w3.org/2000/svg">
<path d="M32.5 20H7.5C6.17392 20 4.90215 20.5268 3.96447 21.4645C3.02678 22.4021 2.5 23.6739 2.5 25V27.5C2.5 27.8315 2.6317 28.1495 2.86612 28.3839C3.10054 28.6183 3.41848 28.75 3.75 28.75H5V30C5 30.663 5.26339 31.2989 5.73223 31.7678C6.20107 32.2366 6.83696 32.5 7.5 32.5C8.16304 32.5 8.79893 32.2366 9.26777 31.7678C9.73661 31.2989 10 30.663 10 30V28.75H30V30C30 30.663 30.2634 31.2989 30.7322 31.7678C31.2011 32.2366 31.837 32.5 32.5 32.5C33.163 32.5 33.7989 32.2366 34.2678 31.7678C34.7366 31.2989 35 30.663 35 30V28.75H36.25C36.5815 28.75 36.8995 28.6183 37.1339 28.3839C37.3683 28.1495 37.5 27.8315 37.5 27.5V25C37.5 23.6739 36.9732 22.4021 36.0355 21.4645C35.0979 20.5268 33.8261 20 32.5 20ZM11.25 12.5H17.5C17.8315 12.5 18.1495 12.6317 18.3839 12.8661C18.6183 13.1005 18.75 13.4185 18.75 13.75C18.75 14.0815 18.6183 14.3995 18.3839 14.6339C18.1495 14.8683 17.8315 15 17.5 15H11.25C10.9185 15 10.6005 14.8683 10.3661 14.6339C10.1317 14.3995 10 14.0815 10 13.75C10 13.4185 10.1317 13.1005 10.3661 12.8661C10.6005 12.6317 10.9185 12.5 11.25 12.5ZM22.5 12.5H28.75C29.0815 12.5 29.3995 12.6317 29.6339 12.8661C29.8683 13.1005 30 13.4185 30 13.75C30 14.0815 29.8683 14.3995 29.6339 14.6339C29.3995 14.8683 29.0815 15 28.75 15H22.5C22.1685 15 21.8505 14.8683 21.6161 14.6339C21.3817 14.3995 21.25 14.0815 21.25 13.75C21.25 13.4185 21.3817 13.1005 21.6161 12.8661C21.8505 12.6317 22.1685 12.5 22.5 12.5ZM8.76125 17.5H31.2387C31.9362 17.5 32.5 16.9363 32.5 16.2388V10C32.5 9.33696 32.2366 8.70107 31.7678 8.23223C31.2989 7.76339 30.663 7.5 30 7.5H10C9.33696 7.5 8.70107 7.76339 8.23223 8.23223C7.76339 8.70107 7.5 9.33696 7.5 10V16.2388C7.5 16.9363 8.06375 17.5 8.76125 17.5Z" fill="#045284"/>
</svg>
