<svg width="14" height="14" viewBox="0 0 14 14" fill="none" xmlns="http://www.w3.org/2000/svg">
<rect opacity="0.01" width="14" height="14" fill="black"/>
<path fill-rule="evenodd" clip-rule="evenodd" d="M4.66797 1.75H9.33463L10.5013 3.5H11.0846C11.5676 3.5 11.9801 3.67403 12.3219 4.02208C12.6637 4.37014 12.8346 4.78567 12.8346 5.26867V10.5093C12.8346 10.9923 12.6637 11.4032 12.3219 11.7419C11.9801 12.0806 11.5676 12.25 11.0846 12.25H2.91797C2.43497 12.25 2.02255 12.0791 1.68072 11.7372C1.33889 11.3954 1.16797 10.983 1.16797 10.5V5.25933C1.16797 4.77633 1.33889 4.36236 1.68072 4.01742C2.02255 3.67247 2.43497 3.5 2.91797 3.5H3.5013L4.66797 1.75ZM7.0013 5.25C7.31738 5.25 7.61929 5.31191 7.90706 5.43572C8.19482 5.55954 8.44276 5.72535 8.65089 5.93317C8.85901 6.14098 9.02482 6.38892 9.14833 6.677C9.27183 6.96507 9.33374 7.26699 9.33405 7.58275C9.33436 7.89851 9.27246 8.20043 9.14833 8.4885C9.0242 8.77658 8.85839 9.02452 8.65089 9.23233C8.44339 9.44015 8.19544 9.60596 7.90706 9.72978C7.61867 9.85359 7.31675 9.9155 7.0013 9.9155C6.68585 9.9155 6.38393 9.85359 6.09555 9.72978C5.80716 9.60596 5.55922 9.44015 5.35172 9.23233C5.14422 9.02452 4.9784 8.77658 4.85428 8.4885C4.73015 8.20043 4.66824 7.89851 4.66855 7.58275C4.66886 7.26699 4.73077 6.96507 4.85428 6.677C4.97778 6.38892 5.14359 6.14098 5.35172 5.93317C5.55984 5.72535 5.80778 5.55954 6.09555 5.43572C6.38331 5.31191 6.68523 5.25 7.0013 5.25ZM7.0013 6.41667C6.6793 6.41667 6.40436 6.53061 6.17647 6.7585C5.94858 6.98639 5.83464 7.26133 5.83464 7.58333C5.83464 7.90533 5.94858 8.18028 6.17647 8.40817C6.40436 8.63606 6.6793 8.75 7.0013 8.75C7.3233 8.75 7.59825 8.63606 7.82614 8.40817C8.05402 8.18028 8.16797 7.90533 8.16797 7.58333C8.16797 7.26133 8.05402 6.98639 7.82614 6.7585C7.59825 6.53061 7.3233 6.41667 7.0013 6.41667ZM8.73322 2.91667H5.29272L4.12605 4.66667H2.91855C2.75755 4.66667 2.62008 4.72442 2.50614 4.83992C2.39219 4.95542 2.33522 5.09522 2.33522 5.25933V10.5C2.33522 10.661 2.39219 10.7985 2.50614 10.9124C2.62008 11.0264 2.75755 11.0833 2.91855 11.0833H11.0852C11.2493 11.0833 11.3876 11.0279 11.5 10.9171C11.6124 10.8062 11.6686 10.6703 11.6686 10.5093V5.26867C11.6686 5.10456 11.6108 4.96319 11.4953 4.84458C11.3798 4.72597 11.2431 4.66667 11.0852 4.66667H9.87772L8.73322 2.91667Z" fill="white"/>
</svg>
