<svg width="96" height="97" viewBox="0 0 96 97" fill="none" xmlns="http://www.w3.org/2000/svg">
<path d="M53.1302 48.5005L74.9358 26.4674C76.3547 25.0342 76.3547 22.7169 74.9358 21.2839C73.5174 19.8507 71.224 19.8507 69.8057 21.2839L47.9996 43.3168L26.1944 21.2839C24.7753 19.8507 22.4827 19.8507 21.0643 21.2839C19.6452 22.7171 19.6452 25.0342 21.0643 26.4674L42.8694 48.5005L21.0645 70.5333C19.6454 71.9665 19.6454 74.2839 21.0645 75.7169C21.4009 76.0578 21.8007 76.3282 22.2409 76.5125C22.6811 76.6968 23.153 76.7914 23.6295 76.7909C24.5581 76.7909 25.4871 76.4317 26.1946 75.7169L47.9996 53.684L69.8057 75.7169C70.1422 76.0577 70.542 76.3281 70.9822 76.5124C71.4224 76.6967 71.8943 76.7914 72.3708 76.7909C73.2994 76.7909 74.2283 76.4317 74.9358 75.7169C76.3547 74.2837 76.3547 71.9665 74.9358 70.5333L53.1302 48.5005Z" fill="#FF2D2D"/>
</svg>
