<svg width="16" height="16" viewBox="0 0 16 16" fill="none" xmlns="http://www.w3.org/2000/svg">
<path d="M14.1925 4.87955C13.9408 4.6158 13.5931 4.45995 13.1975 4.45995H11.2073V4.43597C11.2073 4.13625 11.0875 3.84852 10.8836 3.6567C10.6798 3.4529 10.4041 3.33301 10.1044 3.33301H6.50776C6.19605 3.33301 5.92031 3.4529 5.71651 3.6567C5.5127 3.86051 5.39281 4.13625 5.39281 4.43597V4.45995H3.41467C3.01904 4.45995 2.67137 4.6158 2.41961 4.87955C2.16784 5.13132 2 5.49098 2 5.87462V11.845C2 12.2406 2.15585 12.5883 2.41961 12.8401C2.67137 13.0918 3.03103 13.2597 3.41467 13.2597H13.1975C13.5931 13.2597 13.9408 13.1038 14.1925 12.8401C14.4443 12.5883 14.6121 12.2286 14.6121 11.845V5.87462C14.6121 5.47899 14.4563 5.13132 14.1925 4.87955ZM13.9887 11.845H13.9767C13.9767 12.0608 13.8928 12.2526 13.749 12.3965C13.6051 12.5404 13.4133 12.6243 13.1975 12.6243H3.41467C3.19887 12.6243 3.00705 12.5404 2.86319 12.3965C2.71932 12.2526 2.6354 12.0608 2.6354 11.845V5.87462C2.6354 5.65882 2.71932 5.467 2.86319 5.32314C3.00705 5.17927 3.19887 5.09535 3.41467 5.09535H5.72849C5.90832 5.09535 6.05219 4.95149 6.05219 4.77166V4.42398C6.05219 4.29211 6.10014 4.17222 6.18407 4.0883C6.26799 4.00438 6.38787 3.95642 6.51975 3.95642H10.1044C10.2363 3.95642 10.3561 4.00438 10.4401 4.0883C10.524 4.17222 10.5719 4.29211 10.5719 4.42398V4.77166C10.5719 4.95149 10.7158 5.09535 10.8956 5.09535H13.2095C13.4253 5.09535 13.6171 5.17927 13.7609 5.32314C13.9048 5.467 13.9887 5.65882 13.9887 5.87462V11.845Z" fill="white"/>
<path d="M8.3047 5.91016C7.48946 5.91016 6.74616 6.24584 6.21866 6.77334C5.67916 7.31284 5.35547 8.04415 5.35547 8.85938C5.35547 9.67462 5.69115 10.4179 6.21866 10.9454C6.75815 11.4849 7.48946 11.8086 8.3047 11.8086C9.11993 11.8086 9.86323 11.4729 10.3907 10.9454C10.9302 10.4059 11.2539 9.67462 11.2539 8.85938C11.2539 8.04415 10.9182 7.30085 10.3907 6.77334C9.86323 6.24584 9.11993 5.91016 8.3047 5.91016ZM9.93516 10.5018C9.51556 10.9095 8.9401 11.1732 8.3047 11.1732C7.66929 11.1732 7.09383 10.9095 6.67423 10.5018C6.25462 10.0822 6.00286 9.50677 6.00286 8.87137C6.00286 8.23597 6.26661 7.66051 6.67423 7.2409C7.09383 6.8213 7.66929 6.56954 8.3047 6.56954C8.9401 6.56954 9.51556 6.83329 9.93516 7.2409C10.3548 7.66051 10.6065 8.23597 10.6065 8.87137C10.6185 9.50677 10.3548 10.0822 9.93516 10.5018Z" fill="white"/>
<path d="M12.5757 7.07333C12.9002 7.07333 13.1632 6.81032 13.1632 6.48589C13.1632 6.16145 12.9002 5.89844 12.5757 5.89844C12.2513 5.89844 11.9883 6.16145 11.9883 6.48589C11.9883 6.81032 12.2513 7.07333 12.5757 7.07333Z" fill="white"/>
</svg>
