<svg width="18" height="18" viewBox="0 0 18 18" fill="none" xmlns="http://www.w3.org/2000/svg">
<path d="M17.4808 1.9043H0.519223C0.232488 1.9043 0 2.13679 0 2.42352V5.36582H18V2.42352C18 2.13679 17.7675 1.9043 17.4808 1.9043ZM13.1539 4.67352H12.4616C12.1748 4.67352 11.9423 4.44103 11.9423 4.1543C11.9423 3.86756 12.1748 3.63507 12.4616 3.63507H13.1539C13.4406 3.63507 13.6731 3.86756 13.6731 4.1543C13.6731 4.44103 13.4406 4.67352 13.1539 4.67352ZM15.2308 4.67352H14.5385C14.2517 4.67352 14.0193 4.44103 14.0193 4.1543C14.0193 3.86756 14.2517 3.63507 14.5385 3.63507H15.2308C15.5175 3.63507 15.75 3.86756 15.75 4.1543C15.75 4.44103 15.5175 4.67352 15.2308 4.67352ZM9 8.48122C7.75934 8.48122 6.75 9.49056 6.75 10.7312C6.75 11.9719 7.75934 12.9812 9 12.9812C10.2407 12.9812 11.25 11.9719 11.25 10.7312C11.25 9.49056 10.2407 8.48122 9 8.48122ZM9 11.8043C8.40829 11.8043 7.92693 11.3229 7.92693 10.7312C7.92693 10.1395 8.40829 9.65815 9 9.65815C9.59171 9.65815 10.0731 10.1395 10.0731 10.7312C10.0731 11.3229 9.59171 11.8043 9 11.8043Z" fill="white"/>
<path d="M1.55859 6.4043V8.6543C1.55859 10.6422 2.33273 12.5111 3.73839 13.9168C5.14404 15.3225 7.01298 16.0966 9.00089 16.0966C10.9888 16.0966 12.8577 15.3225 14.2634 13.9168C15.669 12.5111 16.4432 10.6422 16.4432 8.6543V6.4043H1.55859ZM9.00089 14.0197C7.18764 14.0197 5.71245 12.5445 5.71245 10.7312C5.71245 8.91797 7.18764 7.44278 9.00089 7.44278C10.8141 7.44278 12.2893 8.91797 12.2893 10.7312C12.2893 12.5445 10.8141 14.0197 9.00089 14.0197Z" fill="white"/>
</svg>
