<svg width="26" height="20" viewBox="0 0 26 20" fill="none" xmlns="http://www.w3.org/2000/svg">
<path d="M25.1688 0.0517578H1.39381C0.991894 0.0517578 0.666016 0.377636 0.666016 0.779552V4.90377H25.8966V0.779552C25.8966 0.377636 25.5707 0.0517578 25.1688 0.0517578ZM19.1038 3.93338H18.1334C17.7314 3.93338 17.4056 3.6075 17.4056 3.20558C17.4056 2.80367 17.7315 2.47779 18.1334 2.47779H19.1038C19.5057 2.47779 19.8316 2.80367 19.8316 3.20558C19.8316 3.6075 19.5057 3.93338 19.1038 3.93338ZM22.015 3.93338H21.0446C20.6426 3.93338 20.3168 3.6075 20.3168 3.20558C20.3168 2.80367 20.6427 2.47779 21.0446 2.47779H22.015C22.417 2.47779 22.7428 2.80367 22.7428 3.20558C22.7428 3.6075 22.4169 3.93338 22.015 3.93338ZM13.2813 9.27063C11.5423 9.27063 10.1275 10.6854 10.1275 12.4245C10.1275 14.1635 11.5423 15.5783 13.2813 15.5783C15.0203 15.5783 16.4351 14.1635 16.4351 12.4245C16.4351 10.6854 15.0203 9.27063 13.2813 9.27063ZM13.2813 13.9286C12.4519 13.9286 11.7772 13.2538 11.7772 12.4245C11.7772 11.5951 12.4519 10.9203 13.2813 10.9203C14.1107 10.9203 14.7854 11.5951 14.7854 12.4245C14.7854 13.2538 14.1107 13.9286 13.2813 13.9286Z" fill="#045284"/>
<path d="M2.84961 6.35938V9.5132C2.84961 12.2997 3.93472 14.9193 5.90502 16.8896C7.87533 18.8599 10.495 19.9451 13.2815 19.9451C16.0679 19.9451 18.6876 18.8599 20.6579 16.8896C22.6282 14.9193 23.7133 12.2997 23.7133 9.5132V6.35938H2.84961ZM13.2815 17.0338C10.7398 17.0338 8.67206 14.9661 8.67206 12.4244C8.67206 9.88279 10.7398 7.81501 13.2815 7.81501C15.8231 7.81501 17.8909 9.88279 17.8909 12.4244C17.8909 14.9661 15.8231 17.0338 13.2815 17.0338Z" fill="#045284"/>
</svg>
