<svg width="18" height="18" viewBox="0 0 18 18" fill="none" xmlns="http://www.w3.org/2000/svg">
<path d="M15.2828 3.4043H1.90938C1.68331 3.4043 1.5 3.5876 1.5 3.81368V6.13355H15.6922V3.81368C15.6922 3.5876 15.5089 3.4043 15.2828 3.4043ZM11.8712 5.58771H11.3254C11.0993 5.58771 10.916 5.4044 10.916 5.17832C10.916 4.95224 11.0993 4.76894 11.3254 4.76894H11.8712C12.0973 4.76894 12.2806 4.95224 12.2806 5.17832C12.2806 5.4044 12.0973 5.58771 11.8712 5.58771ZM13.5088 5.58771H12.9629C12.7368 5.58771 12.5536 5.4044 12.5536 5.17832C12.5536 4.95224 12.7369 4.76894 12.9629 4.76894H13.5088C13.7349 4.76894 13.9182 4.95224 13.9182 5.17832C13.9182 5.4044 13.7349 5.58771 13.5088 5.58771ZM8.5961 8.58991C7.61789 8.58991 6.82208 9.38573 6.82208 10.3639C6.82208 11.3421 7.61789 12.138 8.5961 12.138C9.57431 12.138 10.3701 11.3421 10.3701 10.3639C10.3701 9.38573 9.57431 8.58991 8.5961 8.58991ZM8.5961 11.21C8.12956 11.21 7.75003 10.8305 7.75003 10.3639C7.75003 9.89742 8.12956 9.51787 8.5961 9.51787C9.06264 9.51787 9.44217 9.89742 9.44217 10.3639C9.44217 10.8305 9.06264 11.21 8.5961 11.21Z" fill="white"/>
<path d="M2.72754 6.95215V8.72617C2.72754 10.2936 3.33791 11.7671 4.44621 12.8754C5.5545 13.9837 7.02808 14.5941 8.59546 14.5941C10.1628 14.5941 11.6364 13.9837 12.7447 12.8754C13.853 11.7671 14.4634 10.2936 14.4634 8.72617V6.95215H2.72754ZM8.59546 12.9565C7.16579 12.9565 6.00267 11.7934 6.00267 10.3637C6.00267 8.93407 7.16579 7.77094 8.59546 7.77094C10.0251 7.77094 11.1883 8.93407 11.1883 10.3637C11.1883 11.7934 10.0251 12.9565 8.59546 12.9565Z" fill="white"/>
</svg>
