<svg width="40" height="40" viewBox="0 0 40 40" fill="none" xmlns="http://www.w3.org/2000/svg">
<path d="M33.9625 7.56445H4.24373C3.74133 7.56445 3.33398 7.9718 3.33398 8.4742V13.6295H34.8722V8.4742C34.8722 7.9718 34.4649 7.56445 33.9625 7.56445ZM26.3812 12.4165H25.1682C24.6657 12.4165 24.2584 12.0091 24.2584 11.5067C24.2584 11.0043 24.6658 10.597 25.1682 10.597H26.3812C26.8836 10.597 27.2909 11.0043 27.2909 11.5067C27.2909 12.0091 26.8836 12.4165 26.3812 12.4165ZM30.0202 12.4165H28.8072C28.3048 12.4165 27.8975 12.0091 27.8975 11.5067C27.8975 11.0043 28.3048 10.597 28.8072 10.597H30.0202C30.5226 10.597 30.9299 11.0043 30.9299 11.5067C30.9299 12.0091 30.5226 12.4165 30.0202 12.4165ZM19.1031 19.088C16.9293 19.088 15.1608 20.8565 15.1608 23.0303C15.1608 25.2041 16.9293 26.9726 19.1031 26.9726C21.2769 26.9726 23.0454 25.2041 23.0454 23.0303C23.0454 20.8565 21.2769 19.088 19.1031 19.088ZM19.1031 24.9105C18.0663 24.9105 17.2229 24.067 17.2229 23.0303C17.2229 21.9936 18.0663 21.1502 19.1031 21.1502C20.1399 21.1502 20.9833 21.9936 20.9833 23.0303C20.9833 24.067 20.1399 24.9105 19.1031 24.9105Z" fill="#045284"/>
<path d="M6.0625 15.4482V19.3905C6.0625 22.8736 7.41889 26.1482 9.88177 28.6111C12.3446 31.074 15.6193 32.4304 19.1023 32.4304C22.5854 32.4304 25.86 31.074 28.3229 28.6111C30.7858 26.1482 32.1422 22.8736 32.1422 19.3905V15.4482H6.0625ZM19.1023 28.7913C15.9253 28.7913 13.3406 26.2066 13.3406 23.0296C13.3406 19.8525 15.9253 17.2678 19.1023 17.2678C22.2794 17.2678 24.8641 19.8525 24.8641 23.0296C24.8641 26.2066 22.2794 28.7913 19.1023 28.7913Z" fill="#045284"/>
</svg>
