<svg width="40" height="40" viewBox="0 0 40 40" fill="none" xmlns="http://www.w3.org/2000/svg">
<path fill-rule="evenodd" clip-rule="evenodd" d="M23.4494 33.1911C23.2449 32.6087 22.8409 32.1174 22.3091 31.8041C21.7772 31.4908 21.1516 31.3758 20.5431 31.4793C19.9346 31.5828 19.3823 31.8983 18.9839 32.3698C18.5855 32.8414 18.3668 33.4386 18.3664 34.0559C18.3676 34.7102 18.6141 35.3403 19.0572 35.8219C19.5002 36.3034 20.1077 36.6013 20.7597 36.6569C21.4116 36.7125 22.0608 36.5216 22.5789 36.122C23.0971 35.7224 23.4466 35.1431 23.5586 34.4984C30.9929 33.2669 36.6694 26.802 36.6694 19.0213C36.6694 17.357 36.4092 15.7522 35.9281 14.2468C35.8731 14.0846 35.7566 13.9504 35.6036 13.8732C35.4507 13.7961 35.2736 13.782 35.1103 13.8341C34.9471 13.8862 34.8109 14.0002 34.731 14.1518C34.651 14.3033 34.6337 14.4801 34.6829 14.6443C35.1343 16.0593 35.3635 17.5359 35.362 19.0213C35.362 26.1176 30.2117 32.0203 23.4494 33.1911ZM5.30329 19.5952C5.54842 26.4065 10.1457 32.1171 16.3949 34.0271C16.5593 34.0734 16.7353 34.0535 16.8853 33.9716C17.0352 33.8898 17.1471 33.7525 17.1971 33.5892C17.2471 33.4258 17.2311 33.2494 17.1527 33.0977C17.0742 32.9459 16.9395 32.8309 16.7773 32.7773C11.0615 31.03 6.85381 25.815 6.6113 19.5893C7.2251 19.427 7.75888 19.0469 8.1131 18.52C8.46731 17.9931 8.61776 17.3553 8.53638 16.7257C8.455 16.096 8.14735 15.5175 7.67082 15.0979C7.19428 14.6784 6.58141 14.4465 5.94651 14.4455C5.3095 14.4462 4.69464 14.6794 4.21734 15.1012C3.74004 15.5231 3.43311 16.1047 3.35416 16.7368C3.2752 17.3689 3.42966 18.008 3.78853 18.5343C4.14741 19.0606 4.68602 19.4379 5.30329 19.5952ZM23.5507 26.3275C24.2944 26.551 25.08 26.5977 25.8448 26.4636C26.6097 26.3295 27.3326 26.0185 27.9559 25.5553C28.5792 25.0922 29.0855 24.4897 29.4345 23.796C29.7835 23.1024 29.9655 22.3367 29.9659 21.5602C29.9659 17.8813 27.7349 14.5312 25.4712 12.0446C25.3754 11.9392 25.2478 11.8681 25.1078 11.8419C24.9678 11.8158 24.8231 11.8361 24.6957 11.8997C24.5683 11.9633 24.4651 12.0668 24.4019 12.1945C24.3388 12.3221 24.319 12.4668 24.3456 12.6067C24.6398 14.1507 24.1194 15.2267 23.3853 16.1497C22.2421 13.7487 20.5928 11.5785 18.9344 9.75671C18.8386 9.65137 18.711 9.58022 18.571 9.55407C18.431 9.52792 18.2863 9.5482 18.1589 9.61183C18.0315 9.67546 17.9284 9.77895 17.8652 9.90658C17.802 10.0342 17.7822 10.179 17.8088 10.3189C18.3403 13.1068 16.9708 14.7998 15.5098 16.351C14.6914 17.2191 13.8384 18.046 13.188 18.9559C12.4741 19.9528 11.9963 21.0464 11.9963 22.3714C11.9963 25.9339 14.8882 28.8265 18.4514 28.8265C19.4358 28.827 20.4072 28.602 21.2911 28.1688C22.175 27.7356 22.948 27.1057 23.5507 26.3275ZM18.5638 19.222L17.0107 25.0188C16.9658 25.1863 16.9892 25.3647 17.0759 25.5149C17.1626 25.6651 17.3053 25.7746 17.4728 25.8195C17.6403 25.8644 17.8187 25.841 17.9689 25.7543C18.1191 25.6676 18.2287 25.5249 18.2736 25.3574L19.8267 19.5606C19.849 19.4777 19.8546 19.3912 19.8434 19.306C19.8322 19.2209 19.8044 19.1388 19.7615 19.0645C19.7186 18.9901 19.6614 18.9249 19.5933 18.8727C19.5252 18.8204 19.4475 18.7821 19.3646 18.7598C19.1971 18.7149 19.0186 18.7384 18.8685 18.8251C18.7183 18.9117 18.6087 19.0545 18.5638 19.222ZM24.273 25.1613C24.8053 25.2667 25.3543 25.2528 25.8806 25.1206C26.4069 24.9885 26.8973 24.7413 27.3167 24.397C27.7361 24.0526 28.0739 23.6196 28.3059 23.1291C28.5379 22.6386 28.6584 22.1028 28.6586 21.5602C28.6586 18.8507 27.2898 16.3562 25.6758 14.3043C25.4653 15.5908 24.7705 16.5857 23.9599 17.491C24.5502 19.0461 24.9065 20.6823 24.9065 22.3714C24.9077 23.3371 24.6912 24.2908 24.273 25.1613ZM15.4837 24.9632C15.7595 24.9632 16.024 24.8537 16.2191 24.6586C16.4141 24.4636 16.5237 24.1991 16.5237 23.9232C16.5237 23.6474 16.4141 23.3829 16.2191 23.1878C16.024 22.9928 15.7595 22.8832 15.4837 22.8832C15.2079 22.8832 14.9433 22.9928 14.7483 23.1878C14.5532 23.3829 14.4437 23.6474 14.4437 23.9232C14.4437 24.1991 14.5532 24.4636 14.7483 24.6586C14.9433 24.8537 15.2079 24.9632 15.4837 24.9632ZM21.308 22.0217C21.4444 22.0217 21.5796 21.9948 21.7057 21.9426C21.8318 21.8903 21.9464 21.8138 22.0429 21.7173C22.1394 21.6207 22.216 21.5062 22.2682 21.3801C22.3204 21.254 22.3473 21.1188 22.3473 20.9823C22.3473 20.8458 22.3204 20.7107 22.2682 20.5846C22.216 20.4585 22.1394 20.3439 22.0429 20.2474C21.9464 20.1509 21.8318 20.0743 21.7057 20.0221C21.5796 19.9699 21.4444 19.943 21.308 19.943C21.0323 19.943 20.7679 20.0525 20.573 20.2474C20.3781 20.4423 20.2686 20.7067 20.2686 20.9823C20.2686 21.258 20.3781 21.5223 20.573 21.7173C20.7679 21.9122 21.0323 22.0217 21.308 22.0217ZM31.2824 8.99125C31.0004 9.38164 30.8316 9.84233 30.7948 10.3225C30.7579 10.8027 30.8543 11.2838 31.0734 11.7127C31.2925 12.1416 31.6258 12.5016 32.0365 12.7531C32.4472 13.0047 32.9194 13.1379 33.401 13.1382C34.8443 13.1382 36.0157 11.9668 36.0157 10.5235C36.0155 10.0836 35.9044 9.65091 35.6926 9.2654C35.4809 8.87988 35.1753 8.55399 34.8042 8.3179C34.4331 8.0818 34.0084 7.94312 33.5695 7.91468C33.1305 7.88624 32.6915 7.96896 32.293 8.15519C29.4378 5.18357 25.4235 3.33301 20.9811 3.33301C14.5005 3.33301 8.93251 7.27077 6.54136 12.8819C6.48217 13.0398 6.48616 13.2143 6.55252 13.3693C6.61887 13.5242 6.74246 13.6476 6.89753 13.7137C7.0526 13.7798 7.22718 13.7834 7.3849 13.724C7.54262 13.6645 7.6713 13.5464 7.74412 13.3944C9.93656 8.25063 15.0405 4.64036 20.9811 4.64036C22.9021 4.63845 24.8039 5.02261 26.5735 5.77002C28.3431 6.51744 29.9444 7.61287 31.2824 8.99125Z" fill="#045284"/>
</svg>
