<svg width="76" height="76" viewBox="0 0 76 76" fill="none" xmlns="http://www.w3.org/2000/svg">
<circle cx="38" cy="38" r="35" fill="#045284"/>
<circle cx="38" cy="38" r="29.5" fill="#66EA63" stroke="#44E14A"/>
<path d="M52.9567 39.1632C52.9304 38.9117 52.9071 38.6603 52.8837 38.4088C52.8341 37.8513 52.7815 37.2774 52.6911 36.7117C52.4108 34.9762 51.7424 33.2927 50.7061 31.7076C49.7254 30.2099 48.4643 28.909 46.9581 27.8404C46.0941 27.2282 45.3527 26.7991 44.62 26.493C44.1501 26.2962 43.6188 26.2935 43.1313 26.4821C42.6322 26.6761 42.2381 27.056 42.0513 27.5206C41.7448 28.2804 41.9988 29.3162 43.073 29.8245C44.2756 30.3957 45.3585 31.1938 46.2897 32.1995C47.8864 33.9185 48.7942 35.9382 48.9869 38.1957C49.1532 40.1416 48.7475 42.0027 47.7784 43.7272C46.5378 45.93 44.6901 47.5425 42.2848 48.5236C39.9759 49.4638 37.559 49.6278 35.1041 49.0101C32.5091 48.3569 30.4162 46.9795 28.8779 44.9161C27.2666 42.7488 26.6274 40.311 26.9806 37.6682C27.2345 35.7742 28.0256 34.0388 29.3391 32.5056C30.2936 31.3905 31.4992 30.4695 32.9265 29.7699C33.4023 29.5348 33.7497 29.1467 33.9015 28.6767C34.0504 28.2203 34.0007 27.7365 33.7614 27.3156C33.2389 26.4056 32.1092 26.0776 31.1284 26.5531C28.948 27.6108 27.1294 29.0948 25.7254 30.9587C24.4352 32.6723 23.5887 34.5936 23.2121 36.6679C22.9815 37.9415 22.9377 39.2315 23.0866 40.5051C23.2676 42.0547 23.723 43.5441 24.4352 44.9352C25.6028 47.2091 27.3075 49.0894 29.5084 50.5215C31.1401 51.5819 32.9411 52.3116 34.8677 52.6942C35.901 52.8992 36.9431 53.003 37.9793 53.003C38.4318 53.003 38.8813 52.9839 39.3308 52.9429C41.5784 52.7434 43.6947 52.0957 45.6183 51.0161C47.3289 50.0569 48.7854 48.8215 49.953 47.3457C51.7657 45.0527 52.7524 42.44 52.8925 39.5758L53.0005 39.5649L52.9596 39.1632H52.9567Z" fill="#17910D"/>
<path d="M35.8662 33.6521C35.8662 33.7985 35.875 33.945 35.8896 34.089C36.0122 35.2911 37.4541 36.1827 38.8115 35.8973C39.9586 35.6573 40.7088 34.8365 40.7117 33.8137C40.7117 32.364 40.7117 30.9144 40.7117 29.4647H40.7059C40.7059 27.9847 40.7117 26.5073 40.7059 25.0273C40.7 23.7974 39.2989 22.8149 37.9007 23.0296C36.7915 23.1988 35.8575 24.0398 35.8633 25.2142C35.8808 28.0251 35.8662 30.8386 35.8691 33.6495L35.8662 33.6521Z" fill="#17910D"/>
<g filter="url(#filter0_d_5153_13402)">
<circle cx="38" cy="38" r="30" fill="#90CAF9"/>
<circle cx="38" cy="38" r="29.5" stroke="#4EB9F8"/>
</g>
<path d="M52.9567 39.1632C52.9304 38.9117 52.9071 38.6603 52.8837 38.4088C52.8341 37.8513 52.7815 37.2774 52.6911 36.7117C52.4108 34.9762 51.7424 33.2927 50.7061 31.7076C49.7254 30.2099 48.4643 28.909 46.9581 27.8404C46.0941 27.2282 45.3527 26.7991 44.62 26.493C44.1501 26.2962 43.6188 26.2935 43.1313 26.4821C42.6322 26.6761 42.2381 27.056 42.0513 27.5206C41.7448 28.2804 41.9988 29.3162 43.073 29.8245C44.2756 30.3957 45.3585 31.1938 46.2897 32.1995C47.8864 33.9185 48.7942 35.9382 48.9869 38.1957C49.1532 40.1416 48.7475 42.0027 47.7784 43.7272C46.5378 45.93 44.6901 47.5425 42.2848 48.5236C39.9759 49.4638 37.559 49.6278 35.1041 49.0101C32.5091 48.3569 30.4162 46.9795 28.8779 44.9161C27.2666 42.7488 26.6274 40.311 26.9806 37.6682C27.2345 35.7742 28.0256 34.0388 29.3391 32.5056C30.2936 31.3905 31.4992 30.4695 32.9265 29.7699C33.4023 29.5348 33.7497 29.1467 33.9015 28.6767C34.0504 28.2203 34.0007 27.7365 33.7614 27.3156C33.2389 26.4056 32.1092 26.0776 31.1284 26.5531C28.948 27.6108 27.1294 29.0948 25.7254 30.9587C24.4352 32.6723 23.5887 34.5936 23.2121 36.6679C22.9815 37.9415 22.9377 39.2315 23.0866 40.5051C23.2676 42.0547 23.723 43.5441 24.4352 44.9352C25.6028 47.2091 27.3075 49.0894 29.5084 50.5215C31.1401 51.5819 32.9411 52.3116 34.8677 52.6942C35.901 52.8992 36.9431 53.003 37.9793 53.003C38.4318 53.003 38.8813 52.9839 39.3308 52.9429C41.5784 52.7434 43.6947 52.0957 45.6183 51.0161C47.3289 50.0569 48.7854 48.8215 49.953 47.3457C51.7657 45.0527 52.7524 42.44 52.8925 39.5758L53.0005 39.5649L52.9596 39.1632H52.9567Z" fill="#045284"/>
<path d="M35.8662 33.6521C35.8662 33.7985 35.875 33.945 35.8896 34.089C36.0122 35.2911 37.4541 36.1827 38.8115 35.8973C39.9586 35.6573 40.7088 34.8365 40.7117 33.8137C40.7117 32.364 40.7117 30.9144 40.7117 29.4647H40.7059C40.7059 27.9847 40.7117 26.5073 40.7059 25.0273C40.7 23.7974 39.2989 22.8149 37.9007 23.0296C36.7915 23.1988 35.8575 24.0398 35.8633 25.2142C35.8808 28.0251 35.8662 30.8386 35.8691 33.6495L35.8662 33.6521Z" fill="#045284"/>
<defs>
<filter id="filter0_d_5153_13402" x="0" y="0" width="76" height="76" filterUnits="userSpaceOnUse" color-interpolation-filters="sRGB">
<feFlood flood-opacity="0" result="BackgroundImageFix"/>
<feColorMatrix in="SourceAlpha" type="matrix" values="0 0 0 0 0 0 0 0 0 0 0 0 0 0 0 0 0 0 127 0" result="hardAlpha"/>
<feMorphology radius="1" operator="dilate" in="SourceAlpha" result="effect1_dropShadow_5153_13402"/>
<feOffset/>
<feGaussianBlur stdDeviation="3.5"/>
<feComposite in2="hardAlpha" operator="out"/>
<feColorMatrix type="matrix" values="0 0 0 0 0.564706 0 0 0 0 0.792157 0 0 0 0 0.976471 0 0 0 1 0"/>
<feBlend mode="normal" in2="BackgroundImageFix" result="effect1_dropShadow_5153_13402"/>
<feBlend mode="normal" in="SourceGraphic" in2="effect1_dropShadow_5153_13402" result="shape"/>
</filter>
</defs>
</svg>
