<svg width="16" height="13" viewBox="0 0 16 13" fill="none" xmlns="http://www.w3.org/2000/svg">
<path d="M5.7145 6.29801C6.27968 6.29801 6.83217 6.13041 7.30209 5.8164C7.77202 5.50239 8.13827 5.05608 8.35453 4.53391C8.5708 4.01174 8.62736 3.43717 8.51706 2.88285C8.40676 2.32854 8.13456 1.81938 7.73488 1.41977C7.3352 1.02017 6.826 0.748055 6.27166 0.637854C5.71733 0.527653 5.14277 0.584313 4.62064 0.800667C4.0985 1.01702 3.65226 1.38335 3.33833 1.85333C3.02441 2.32331 2.8569 2.87583 2.857 3.44101C2.85779 4.19858 3.15912 4.92488 3.69485 5.46051C4.23058 5.99615 4.95693 6.29735 5.7145 6.29801ZM9.4525 8.65851C8.72841 7.9158 7.79936 7.4058 6.78402 7.19365C5.76869 6.9815 4.71316 7.07683 3.75226 7.46747C2.79136 7.85811 1.96873 8.52632 1.38943 9.38674C0.81013 10.2472 0.500469 11.2607 0.5 12.298C0.5 12.4306 0.552678 12.5578 0.646447 12.6516C0.740215 12.7453 0.867392 12.798 1 12.798H10.43C10.5626 12.798 10.6898 12.7453 10.7836 12.6516C10.8773 12.5578 10.93 12.4306 10.93 12.298C10.9319 11.7678 10.8501 11.2407 10.6875 10.736C10.4454 9.95582 10.0222 9.24394 9.4525 8.65851Z" fill="#161616"/>
<path d="M11.75 6.54785C12.9236 6.54785 13.875 5.59646 13.875 4.42285C13.875 3.24925 12.9236 2.29785 11.75 2.29785C10.5764 2.29785 9.625 3.24925 9.625 4.42285C9.625 5.59646 10.5764 6.54785 11.75 6.54785Z" fill="#161616"/>
<path d="M11.7507 7.13281C11.0804 7.13533 10.4232 7.31786 9.84766 7.66131C9.95616 7.75831 10.0657 7.85381 10.1682 7.95881C10.849 8.65859 11.3547 9.50939 11.6442 10.4418C11.7433 10.7488 11.8164 11.0636 11.8627 11.3828H15.0007C15.1333 11.3828 15.2604 11.3301 15.3542 11.2364C15.448 11.1426 15.5007 11.0154 15.5007 10.8828C15.4996 9.88858 15.1042 8.93536 14.4011 8.23233C13.6981 7.5293 12.7449 7.13387 11.7507 7.13281Z" fill="#161616"/>
</svg>
