<svg width="36" height="36" viewBox="0 0 36 36" fill="none" xmlns="http://www.w3.org/2000/svg">
<path d="M5.36719 23.0752H29.6656V9.50098H5.36719V23.0752ZM6.24219 15.4439C6.24219 15.371 6.26853 15.3011 6.31541 15.2496C6.3623 15.1981 6.42588 15.1691 6.49219 15.1691C6.55849 15.1691 6.62208 15.1981 6.66896 15.2496C6.71585 15.3011 6.74219 15.371 6.74219 15.4439V15.8624C6.74219 15.9353 6.71585 16.0052 6.66896 16.0567C6.62208 16.1082 6.55849 16.1372 6.49219 16.1372C6.42588 16.1372 6.3623 16.1082 6.31541 16.0567C6.26853 16.0052 6.24219 15.9353 6.24219 15.8624V15.4439ZM6.24219 17.2299C6.24219 17.1571 6.26853 17.0872 6.31541 17.0356C6.3623 16.9841 6.42588 16.9552 6.49219 16.9552C6.55849 16.9552 6.62208 16.9841 6.66896 17.0356C6.71585 17.0872 6.74219 17.1571 6.74219 17.2299V21.8387C6.74219 21.9116 6.71585 21.9815 6.66896 22.033C6.62208 22.0845 6.55849 22.1135 6.49219 22.1135C6.42588 22.1135 6.3623 22.0845 6.31541 22.033C6.26853 21.9815 6.24219 21.9116 6.24219 21.8387V17.2299ZM8.289 23.6247H16.3886V31.1661H8.289V23.6247Z" fill="#045284"/>
<path d="M27.2449 31.4411C27.2449 31.514 27.2186 31.5839 27.1717 31.6354C27.1248 31.6869 27.0613 31.7159 26.9949 31.7159H18.3954C18.3291 31.7159 18.2655 31.6869 18.2187 31.6354C18.1718 31.5839 18.1454 31.514 18.1454 31.4411V23.625H16.8898V31.4411C16.8898 31.514 16.8635 31.5839 16.8166 31.6354C16.7697 31.6869 16.7061 31.7159 16.6398 31.7159H8.04025C7.97395 31.7159 7.91036 31.6869 7.86347 31.6354C7.81659 31.5839 7.79025 31.514 7.79025 31.4411V23.625H6.49219V32.9997H28.5431V23.625H27.2449V31.4411Z" fill="#045284"/>
<path d="M18.6446 23.6253H26.7442V31.1666H18.6446V23.6253ZM31.3763 4.00155C31.3719 3.65926 31.4274 3.31922 31.5399 3H3.2515C3.17788 3.03696 3 3.38008 3 4.00155C3 4.62302 3.17788 4.96621 3.2515 5.0031H31.5399C31.4274 4.68388 31.3719 4.34384 31.3763 4.00155ZM32.1209 4.99932C32.1982 4.94539 32.3655 4.60406 32.3655 4.00155C32.3655 3.39904 32.1982 3.05777 32.1209 3.00378C32.0436 3.05777 31.8763 3.39911 31.8763 4.00155C31.8763 4.60399 32.0438 4.94539 32.1209 4.99932ZM5.36763 5.55264H29.6661V8.952H5.36763V5.55264ZM32.3254 25.5052C32.3098 25.4489 32.2781 25.3996 32.2351 25.3645C32.192 25.3295 32.1398 25.3105 32.0863 25.3105H31.9214V5.55278H31.4214V25.3105H31.2563C31.2027 25.3105 31.1505 25.3295 31.1075 25.3645C31.0644 25.3996 31.0328 25.4489 31.0171 25.5052L30.3534 27.8993C30.342 27.9404 30.3395 27.9838 30.3462 28.0261C30.3528 28.0684 30.3684 28.1084 30.3916 28.1429C30.4149 28.1774 30.4452 28.2055 30.48 28.2248C30.5149 28.2441 30.5535 28.2542 30.5925 28.2542H32.75C32.7891 28.2542 32.8276 28.2441 32.8625 28.2248C32.8974 28.2055 32.9277 28.1774 32.9509 28.1429C32.9741 28.1084 32.9897 28.0684 32.9964 28.0261C33.003 27.9838 33.0005 27.9404 32.9891 27.8993L32.3254 25.5052Z" fill="#045284"/>
</svg>
