<svg width="32" height="32" viewBox="0 0 32 32" fill="none" xmlns="http://www.w3.org/2000/svg">
<path d="M7.8667 21.5007H14.0663V27.2042H7.8667V21.5007ZM5.34082 20.0122H5.26953V19.9504C5.29192 19.9725 5.31573 19.9932 5.34082 20.0122ZM5.35253 14.7087C5.32312 14.7301 5.29537 14.7537 5.26953 14.7792V14.6382C5.29537 14.6637 5.32312 14.6873 5.35253 14.7087ZM5.76953 12.9847C5.57577 12.9847 5.39878 13.064 5.26953 13.1916V8.94629H25.8681V20.0122H6.19824C6.23368 19.9853 6.26658 19.9552 6.2965 19.9224C6.42607 19.7799 6.49175 19.5961 6.49175 19.4132V15.3165C6.49175 15.1335 6.42607 14.9497 6.2965 14.8073C6.26332 14.7708 6.22646 14.7377 6.18653 14.7087C6.22646 14.6796 6.26332 14.6465 6.2965 14.6101L5.92667 14.2736L6.2965 14.6101C6.42607 14.4677 6.49175 14.2838 6.49175 14.1009V13.7289C6.49175 13.546 6.42607 13.3621 6.2965 13.2197C6.1655 13.0757 5.97714 12.9847 5.76953 12.9847Z" fill="white" stroke="white"/>
<path d="M24.5212 28.4578C24.6507 28.3154 24.7164 28.1316 24.7164 27.9486V21.501H24.8703V28.834H6.26953V21.501H6.42336V27.9486C6.42336 28.1316 6.48905 28.3154 6.61862 28.4578C6.74962 28.6018 6.93798 28.6929 7.14559 28.6929H14.7896C14.9973 28.6929 15.1856 28.6018 15.3166 28.4578C15.4462 28.3154 15.5119 28.1316 15.5119 27.9486V21.501H15.628V27.9486C15.628 28.1316 15.6937 28.3154 15.8232 28.4578C15.9542 28.6018 16.1426 28.6929 16.3502 28.6929H23.9942C24.2018 28.6929 24.3902 28.6018 24.5212 28.4578Z" fill="white" stroke="white"/>
<mask id="path-3-inside-1_3210_4423" fill="white">
<path d="M16.5724 21.0006H23.772V27.704H16.5724V21.0006ZM27.8894 3.55726C27.8855 3.253 27.9348 2.95075 28.0348 2.66699H2.88957C2.82413 2.69984 2.66602 3.00484 2.66602 3.55726C2.66602 4.10967 2.82413 4.41473 2.88957 4.44752H28.0348C27.9348 4.16377 27.8855 3.86152 27.8894 3.55726ZM28.5513 4.44416C28.62 4.39623 28.7687 4.09282 28.7687 3.55726C28.7687 3.02169 28.62 2.71834 28.5513 2.67035C28.4825 2.71834 28.3339 3.02175 28.3339 3.55726C28.3339 4.09276 28.4827 4.39623 28.5513 4.44416ZM4.77057 4.93601H26.3692V7.95766H4.77057V4.93601ZM28.733 22.6716C28.7191 22.6216 28.691 22.5777 28.6527 22.5466C28.6145 22.5154 28.5681 22.4986 28.5205 22.4986H28.3739V4.93613H27.9295V22.4986H27.7827C27.7351 22.4986 27.6887 22.5154 27.6504 22.5466C27.6122 22.5777 27.584 22.6216 27.5701 22.6716L26.9801 24.7997C26.97 24.8362 26.9678 24.8748 26.9737 24.9124C26.9796 24.95 26.9935 24.9856 27.0141 25.0163C27.0348 25.0469 27.0617 25.0719 27.0927 25.089C27.1237 25.1062 27.158 25.1152 27.1927 25.1152H29.1105C29.1452 25.1152 29.1794 25.1062 29.2104 25.089C29.2415 25.0719 29.2684 25.0469 29.289 25.0163C29.3097 24.9856 29.3235 24.95 29.3294 24.9124C29.3354 24.8748 29.3332 24.8362 29.323 24.7997L28.733 22.6716Z"/>
</mask>
<path d="M16.5724 21.0006H23.772V27.704H16.5724V21.0006ZM27.8894 3.55726C27.8855 3.253 27.9348 2.95075 28.0348 2.66699H2.88957C2.82413 2.69984 2.66602 3.00484 2.66602 3.55726C2.66602 4.10967 2.82413 4.41473 2.88957 4.44752H28.0348C27.9348 4.16377 27.8855 3.86152 27.8894 3.55726ZM28.5513 4.44416C28.62 4.39623 28.7687 4.09282 28.7687 3.55726C28.7687 3.02169 28.62 2.71834 28.5513 2.67035C28.4825 2.71834 28.3339 3.02175 28.3339 3.55726C28.3339 4.09276 28.4827 4.39623 28.5513 4.44416ZM4.77057 4.93601H26.3692V7.95766H4.77057V4.93601ZM28.733 22.6716C28.7191 22.6216 28.691 22.5777 28.6527 22.5466C28.6145 22.5154 28.5681 22.4986 28.5205 22.4986H28.3739V4.93613H27.9295V22.4986H27.7827C27.7351 22.4986 27.6887 22.5154 27.6504 22.5466C27.6122 22.5777 27.584 22.6216 27.5701 22.6716L26.9801 24.7997C26.97 24.8362 26.9678 24.8748 26.9737 24.9124C26.9796 24.95 26.9935 24.9856 27.0141 25.0163C27.0348 25.0469 27.0617 25.0719 27.0927 25.089C27.1237 25.1062 27.158 25.1152 27.1927 25.1152H29.1105C29.1452 25.1152 29.1794 25.1062 29.2104 25.089C29.2415 25.0719 29.2684 25.0469 29.289 25.0163C29.3097 24.9856 29.3235 24.95 29.3294 24.9124C29.3354 24.8748 29.3332 24.8362 29.323 24.7997L28.733 22.6716Z" fill="white"/>
<path d="M16.5724 21.0006V20.0006H15.5724V21.0006H16.5724ZM23.772 21.0006H24.772V20.0006H23.772V21.0006ZM23.772 27.704V28.704H24.772V27.704H23.772ZM16.5724 27.704H15.5724V28.704H16.5724V27.704ZM27.8894 3.55726L28.8893 3.5703L28.8895 3.55727L28.8893 3.54425L27.8894 3.55726ZM28.0348 2.66699L28.978 2.99933L29.4474 1.66699H28.0348V2.66699ZM2.88957 2.66699V1.66699H2.65268L2.44096 1.77327L2.88957 2.66699ZM2.88957 4.44752L2.44162 5.34158L2.65307 5.44752H2.88957V4.44752ZM28.0348 4.44752V5.44752H29.4475L28.978 4.11515L28.0348 4.44752ZM28.5513 4.44416L27.9782 5.26371L28.5506 5.66386L29.1233 5.26436L28.5513 4.44416ZM28.5513 2.67035L29.1238 1.85049L28.5513 1.45063L27.9787 1.85049L28.5513 2.67035ZM4.77057 4.93601V3.93601H3.77057V4.93601H4.77057ZM26.3692 4.93601H27.3692V3.93601H26.3692V4.93601ZM26.3692 7.95766V8.95766H27.3692V7.95766H26.3692ZM4.77057 7.95766H3.77057V8.95766H4.77057V7.95766ZM28.733 22.6716L29.6967 22.4045L29.6967 22.4044L28.733 22.6716ZM28.5205 22.4986L28.5206 21.4986H28.5205V22.4986ZM28.3739 22.4986H27.3739V23.4986H28.3739V22.4986ZM28.3739 4.93613H29.3739V3.93613H28.3739V4.93613ZM27.9295 4.93613V3.93613H26.9295V4.93613H27.9295ZM27.9295 22.4986V23.4986H28.9295V22.4986H27.9295ZM27.7827 22.4986V21.4986H27.7826L27.7827 22.4986ZM27.5701 22.6716L26.6065 22.4044L26.6065 22.4045L27.5701 22.6716ZM26.9801 24.7997L27.9438 25.0669L27.9438 25.0669L26.9801 24.7997ZM27.1927 25.1152L27.1926 26.1152H27.1927V25.1152ZM29.1105 25.1152V26.1152H29.1106L29.1105 25.1152ZM29.323 24.7997L28.3594 25.0669L28.3594 25.0669L29.323 24.7997ZM16.5724 22.0006H23.772V20.0006H16.5724V22.0006ZM22.772 21.0006V27.704H24.772V21.0006H22.772ZM23.772 26.704H16.5724V28.704H23.772V26.704ZM17.5724 27.704V21.0006H15.5724V27.704H17.5724ZM28.8893 3.54425C28.8869 3.35618 28.9175 3.17092 28.978 2.99933L27.0917 2.33465C26.9521 2.73057 26.884 3.14982 26.8895 3.57026L28.8893 3.54425ZM28.0348 1.66699H2.88957V3.66699H28.0348V1.66699ZM2.44096 1.77327C2.25578 1.86622 2.14236 1.99319 2.09649 2.04762C2.03749 2.11763 1.99276 2.18697 1.95982 2.24434C1.89319 2.36037 1.84101 2.48667 1.80064 2.6131C1.71863 2.86994 1.66602 3.18781 1.66602 3.55726H3.66602C3.66602 3.37429 3.69246 3.26345 3.70586 3.22147C3.7132 3.19849 3.71282 3.20786 3.69425 3.2402C3.68533 3.25573 3.66369 3.29154 3.62586 3.33642C3.60655 3.35934 3.57686 3.39196 3.53607 3.42778C3.49761 3.46155 3.43159 3.51383 3.33819 3.56072L2.44096 1.77327ZM1.66602 3.55726C1.66602 3.9267 1.71863 4.24458 1.80063 4.50142C1.841 4.62785 1.89319 4.75417 1.95983 4.87023C1.99278 4.9276 2.03754 4.99699 2.0966 5.06704C2.14248 5.12147 2.25609 5.24863 2.44162 5.34158L3.33752 3.55346C3.43112 3.60036 3.49728 3.65271 3.53581 3.68651C3.57668 3.72237 3.60641 3.75504 3.62576 3.77798C3.66364 3.82292 3.68531 3.85877 3.69423 3.87431C3.71282 3.90668 3.71321 3.91607 3.70587 3.89308C3.69246 3.85108 3.66602 3.74023 3.66602 3.55726H1.66602ZM2.88957 5.44752H28.0348V3.44752H2.88957V5.44752ZM28.978 4.11515C28.9175 3.94359 28.8869 3.75835 28.8893 3.5703L26.8895 3.54421C26.884 3.96469 26.9521 4.38396 27.0917 4.7799L28.978 4.11515ZM29.1233 5.26436C29.3405 5.11293 29.4538 4.91029 29.4934 4.8372C29.5543 4.72475 29.6032 4.60234 29.6415 4.4776C29.7191 4.22535 29.7687 3.91574 29.7687 3.55726H27.7687C27.7687 3.73434 27.7439 3.84422 27.7299 3.88955C27.7226 3.91359 27.7213 3.9095 27.7351 3.88415C27.7418 3.87168 27.7578 3.84364 27.7857 3.80712C27.8 3.78844 27.821 3.76283 27.8492 3.73387C27.8763 3.70611 27.9194 3.66564 27.9792 3.62396L29.1233 5.26436ZM29.7687 3.55726C29.7687 3.19877 29.7191 2.88917 29.6415 2.63693C29.6032 2.51218 29.5543 2.38979 29.4934 2.27736C29.4537 2.20419 29.3405 2.00185 29.1238 1.85049L27.9787 3.49021C27.9191 3.44857 27.8761 3.40816 27.849 3.38044C27.8208 3.35152 27.7999 3.32596 27.7856 3.3073C27.7578 3.27082 27.7418 3.24282 27.735 3.23036C27.7213 3.20505 27.7226 3.20097 27.73 3.225C27.7439 3.27032 27.7687 3.38018 27.7687 3.55726H29.7687ZM27.9787 1.85049C27.7619 2.00191 27.6487 2.20435 27.6091 2.2775C27.5481 2.38993 27.4993 2.51232 27.461 2.63705C27.3834 2.88927 27.3339 3.19883 27.3339 3.55726H29.3339C29.3339 3.38018 29.3587 3.27029 29.3726 3.22493C29.38 3.20087 29.3812 3.20494 29.3675 3.23025C29.3608 3.24271 29.3448 3.27072 29.3169 3.3072C29.3027 3.32587 29.2817 3.35145 29.2535 3.38038C29.2265 3.40812 29.1835 3.44855 29.1238 3.49021L27.9787 1.85049ZM27.3339 3.55726C27.3339 3.91581 27.3835 4.22541 27.4611 4.4776C27.4994 4.60231 27.5482 4.72462 27.6091 4.83695C27.6486 4.90988 27.7616 5.11227 27.9782 5.26371L29.1243 3.62462C29.1839 3.66634 29.2269 3.70681 29.2539 3.73452C29.2821 3.76344 29.303 3.78899 29.3172 3.80762C29.345 3.84405 29.3609 3.87198 29.3677 3.88439C29.3813 3.9096 29.38 3.91358 29.3726 3.8895C29.3587 3.84409 29.3339 3.73421 29.3339 3.55726H27.3339ZM4.77057 5.93601H26.3692V3.93601H4.77057V5.93601ZM25.3692 4.93601V7.95766H27.3692V4.93601H25.3692ZM26.3692 6.95766H4.77057V8.95766H26.3692V6.95766ZM5.77057 7.95766V4.93601H3.77057V7.95766H5.77057ZM29.6967 22.4044C29.6305 22.1658 29.4919 21.9403 29.2841 21.7711L28.0214 23.3221C27.8901 23.2152 27.8078 23.0773 27.7694 22.9388L29.6967 22.4044ZM29.2841 21.7711C29.0745 21.6004 28.807 21.4986 28.5206 21.4986L28.5204 23.4986C28.3292 23.4986 28.1545 23.4304 28.0214 23.3221L29.2841 21.7711ZM28.5205 21.4986H28.3739V23.4986H28.5205V21.4986ZM29.3739 22.4986V4.93613H27.3739V22.4986H29.3739ZM28.3739 3.93613H27.9295V5.93613H28.3739V3.93613ZM26.9295 4.93613V22.4986H28.9295V4.93613H26.9295ZM27.9295 21.4986H27.7827V23.4986H27.9295V21.4986ZM27.7826 21.4986C27.4962 21.4986 27.2287 21.6004 27.0191 21.7711L28.2818 23.3221C28.1487 23.4304 27.974 23.4986 27.7828 23.4986L27.7826 21.4986ZM27.0191 21.7711C26.8113 21.9403 26.6727 22.1658 26.6065 22.4044L28.5338 22.9388C28.4954 23.0773 28.4131 23.2152 28.2818 23.3221L27.0191 21.7711ZM26.6065 22.4045L26.0165 24.5326L27.9438 25.0669L28.5338 22.9388L26.6065 22.4045ZM26.0165 24.5325C25.9681 24.7072 25.9579 24.8897 25.9858 25.0675L27.9616 24.7574C27.9777 24.8599 27.972 24.9653 27.9438 25.0669L26.0165 24.5325ZM25.9858 25.0675C26.0137 25.2453 26.08 25.4195 26.1848 25.5751L27.8434 24.4575C27.907 24.5518 27.9455 24.6548 27.9616 24.7574L25.9858 25.0675ZM26.1848 25.5751C26.2899 25.731 26.4329 25.8667 26.6083 25.9639L27.5772 24.2142C27.6905 24.277 27.7797 24.3629 27.8434 24.4575L26.1848 25.5751ZM26.6083 25.9639C26.7843 26.0613 26.9848 26.1151 27.1926 26.1152L27.1928 24.1152C27.3311 24.1152 27.4631 24.1511 27.5772 24.2142L26.6083 25.9639ZM27.1927 26.1152H29.1105V24.1152H27.1927V26.1152ZM29.1106 26.1152C29.3184 26.1151 29.5189 26.0613 29.6949 25.9639L28.726 24.2142C28.84 24.1511 28.972 24.1152 29.1104 24.1152L29.1106 26.1152ZM29.6949 25.9639C29.8703 25.8667 30.0133 25.731 30.1183 25.5751L28.4597 24.4575C28.5235 24.3629 28.6126 24.277 28.726 24.2142L29.6949 25.9639ZM30.1183 25.5751C30.2232 25.4195 30.2894 25.2453 30.3174 25.0675L28.3415 24.7574C28.3576 24.6548 28.3962 24.5518 28.4597 24.4575L30.1183 25.5751ZM30.3174 25.0675C30.3453 24.8897 30.3351 24.7071 30.2867 24.5325L28.3594 25.0669C28.3312 24.9653 28.3254 24.8599 28.3415 24.7574L30.3174 25.0675ZM30.2867 24.5326L29.6967 22.4045L27.7694 22.9388L28.3594 25.0669L30.2867 24.5326Z" fill="white" mask="url(#path-3-inside-1_3210_4423)"/>
</svg>
