<svg width="28" height="28" viewBox="0 0 28 28" fill="none" xmlns="http://www.w3.org/2000/svg">
<path d="M7.9596 26.0081C7.95937 26.0867 7.97549 26.1646 8.00703 26.2374C8.03857 26.3101 8.08491 26.3762 8.14339 26.4318C8.20186 26.4874 8.27132 26.5315 8.34777 26.5615C8.42422 26.5915 8.50614 26.6068 8.58884 26.6066H12.9072V25.4095H8.58884C8.23995 25.4095 7.9596 25.679 7.9596 26.0081ZM26.7034 25.4095H24.404C24.2122 25.6381 23.9438 25.7973 23.6436 25.8606L20.0797 26.6066H26.7034C27.0493 26.6066 27.3327 26.34 27.3327 26.0081C27.3327 25.6794 27.0494 25.4095 26.7034 25.4095ZM7.33678 4.79131H5.64608C5.31673 4.79131 5.04975 5.04527 5.04975 5.35854V8.37085C5.04975 8.68412 5.31673 8.93808 5.64608 8.93808H7.33678C7.66612 8.93808 7.9331 8.68407 7.9331 8.37085V5.35854C7.93305 5.04527 7.66607 4.79131 7.33678 4.79131ZM6.4929 7.68294C6.01583 7.68294 5.63124 7.31706 5.63124 6.86613C5.63104 6.75844 5.6532 6.65178 5.69643 6.55225C5.73966 6.45273 5.80313 6.3623 5.88318 6.28615C5.96323 6.21001 6.0583 6.14964 6.16293 6.10852C6.26756 6.06739 6.37969 6.04632 6.4929 6.0465C6.96697 6.0465 7.35161 6.41233 7.35161 6.86613C7.35161 7.31701 6.96697 7.68294 6.4929 7.68294ZM5.04427 1.23433C5.20914 1.23433 5.34246 1.10746 5.34246 0.950686C5.34246 0.793918 5.20908 0.666992 5.04427 0.666992C2.63016 0.666992 0.666016 2.53442 0.666016 4.8297C0.666016 4.98652 0.799397 5.11334 0.964207 5.11334C1.12902 5.11334 1.2624 4.98647 1.2624 4.8297C1.26251 2.84717 2.95901 1.23433 5.04427 1.23433Z" fill="#045284"/>
<path d="M5.04354 2.28701C5.20841 2.28701 5.34173 2.16014 5.34173 2.00337C5.34173 1.8466 5.20835 1.71973 5.04354 1.71973C3.23928 1.71973 1.77148 3.11486 1.77148 4.82995C1.77148 4.98677 1.90487 5.11359 2.06968 5.11359C2.23449 5.11359 2.36787 4.98671 2.36787 4.82995C2.36792 3.42783 3.56813 2.28701 5.04354 2.28701Z" fill="#045284"/>
<path d="M5.34279 3.05513C5.34282 3.01787 5.33513 2.98097 5.32015 2.94655C5.30518 2.91212 5.28321 2.88084 5.25552 2.8545C5.22782 2.82816 5.19494 2.80726 5.15875 2.79302C5.12255 2.77877 5.08377 2.77146 5.0446 2.77148C3.85052 2.77148 2.87891 3.69481 2.87891 4.82958C2.87888 4.86684 2.88657 4.90373 2.90155 4.93816C2.91652 4.97258 2.93849 5.00386 2.96618 5.03021C2.99388 5.05655 3.02676 5.07744 3.06295 5.09169C3.09914 5.10593 3.13793 5.11325 3.1771 5.11322C3.21626 5.11325 3.25505 5.10593 3.29124 5.09169C3.32744 5.07744 3.36032 5.05655 3.38802 5.03021C3.41571 5.00386 3.43767 4.97258 3.45265 4.93816C3.46762 4.90373 3.47532 4.86684 3.47529 4.82958C3.47529 4.00761 4.17921 3.33887 5.04449 3.33887C5.08367 3.33889 5.12247 3.33157 5.15867 3.31732C5.19487 3.30306 5.22776 3.28216 5.25547 3.25581C5.28317 3.22946 5.30514 3.19817 5.32013 3.16374C5.33511 3.1293 5.34281 3.09239 5.34279 3.05513Z" fill="#045284"/>
<path d="M5.34179 4.10763C5.34182 4.07037 5.33412 4.03348 5.31915 3.99905C5.30417 3.96463 5.28221 3.93335 5.25451 3.907C5.22682 3.88066 5.19393 3.85977 5.15774 3.84552C5.12155 3.83128 5.08276 3.82396 5.04359 3.82399C4.45964 3.82399 3.98438 4.27502 3.98438 4.8296C3.98438 4.98642 4.11776 5.11324 4.28257 5.11324C4.44738 5.11324 4.58076 4.98637 4.58076 4.8296C4.58076 4.58804 4.78839 4.39132 5.04354 4.39132C5.08271 4.39134 5.1215 4.38401 5.15769 4.36976C5.19388 4.35551 5.22677 4.33461 5.25446 4.30826C5.28216 4.28192 5.30413 4.25064 5.31911 4.21621C5.3341 4.18179 5.3418 4.14489 5.34179 4.10763ZM24.7045 5.14621V24.8421H25.5962V4.03982C25.5962 3.56035 25.1847 3.16895 24.6806 3.16895H20.3742L23.604 3.84409C24.2393 3.97737 24.7045 4.52492 24.7045 5.14621ZM9.69157 4.03982V24.842H10.5863V4.30367C10.5863 4.14763 10.7205 4.02003 10.8844 4.02003H12.9065V3.16895H10.6071C10.1032 3.16895 9.69157 3.5604 9.69157 4.03982Z" fill="#045284"/>
<path d="M24.1089 24.6053V5.14638C24.1089 4.78894 23.8405 4.47691 23.4767 4.40025L13.8677 2.38616C13.6392 2.35897 13.5039 2.50162 13.5039 2.66417V27.0493C13.5041 27.0918 13.5143 27.1338 13.5337 27.1721C13.5531 27.2104 13.5813 27.2441 13.6161 27.2708C13.651 27.2974 13.6917 27.3163 13.7352 27.3261C13.7787 27.3359 13.824 27.3363 13.8677 27.3273L23.5163 25.3068C23.6843 25.2716 23.8346 25.1828 23.9424 25.0553C24.0502 24.9277 24.1089 24.769 24.1089 24.6053ZM15.6419 15.5229C15.6419 15.6459 15.5906 15.7639 15.4991 15.8509C15.4077 15.9379 15.2836 15.9868 15.1543 15.9868C15.025 15.9868 14.9009 15.9379 14.8095 15.8509C14.718 15.7639 14.6667 15.6459 14.6667 15.5229V14.1906C14.6667 14.0676 14.718 13.9496 14.8095 13.8626C14.9009 13.7756 15.025 13.7267 15.1543 13.7267C15.2836 13.7267 15.4077 13.7756 15.4991 13.8626C15.5906 13.9496 15.6419 14.0676 15.6419 14.1906V15.5229Z" fill="#045284"/>
</svg>
