<svg width="24" height="24" viewBox="0 0 24 24" fill="none" xmlns="http://www.w3.org/2000/svg">
<path d="M20.6483 22.5H14.6017C14.1108 22.4994 13.6402 22.3041 13.293 21.957C12.9459 21.6098 12.7506 21.1392 12.75 20.6483V13.1017C12.7506 12.6108 12.9459 12.1402 13.293 11.793C13.6402 11.4459 14.1108 11.2506 14.6017 11.25H20.6483C21.1392 11.2506 21.6098 11.4459 21.957 11.793C22.3041 12.1402 22.4994 12.6108 22.5 13.1017V20.6483C22.4994 21.1392 22.3041 21.6098 21.957 21.957C21.6098 22.3041 21.1392 22.4994 20.6483 22.5ZM14.6017 12.75C14.5556 12.75 14.5098 12.7591 14.4671 12.7768C14.4245 12.7945 14.3857 12.8204 14.353 12.853C14.3204 12.8857 14.2945 12.9245 14.2768 12.9671C14.2591 13.0098 14.25 13.0556 14.25 13.1017V20.6483C14.25 20.8425 14.4075 21 14.6017 21H20.6483C20.8425 21 21 20.8425 21 20.6483V13.1017C21 13.0085 20.9629 12.919 20.897 12.853C20.831 12.7871 20.7415 12.75 20.6483 12.75H14.6017ZM20.6483 9.75H14.6017C14.1108 9.7494 13.6402 9.55412 13.293 9.20698C12.9459 8.85984 12.7506 8.38918 12.75 7.89825V3.35175C12.7506 2.86082 12.9459 2.39016 13.293 2.04302C13.6402 1.69588 14.1108 1.5006 14.6017 1.5H20.6483C21.1392 1.5006 21.6098 1.69588 21.957 2.04302C22.3041 2.39016 22.4994 2.86082 22.5 3.35175V7.89825C22.4994 8.38918 22.3041 8.85984 21.957 9.20698C21.6098 9.55412 21.1392 9.7494 20.6483 9.75ZM14.6017 3C14.5556 3 14.5098 3.0091 14.4671 3.02678C14.4245 3.04445 14.3857 3.07036 14.353 3.10303C14.3204 3.13569 14.2945 3.17446 14.2768 3.21714C14.2591 3.25982 14.25 3.30556 14.25 3.35175V7.89825C14.25 8.0925 14.4075 8.25 14.6017 8.25H20.6483C20.8425 8.25 21 8.0925 21 7.89825V3.35175C21 3.25846 20.9629 3.16899 20.897 3.10303C20.831 3.03706 20.7415 3 20.6483 3H14.6017ZM9.39825 12.75H3.35175C2.86082 12.7494 2.39016 12.5541 2.04302 12.207C1.69588 11.8598 1.5006 11.3892 1.5 10.8983V3.35175C1.5006 2.86082 1.69588 2.39016 2.04302 2.04302C2.39016 1.69588 2.86082 1.5006 3.35175 1.5H9.39825C9.88918 1.5006 10.3598 1.69588 10.707 2.04302C11.0541 2.39016 11.2494 2.86082 11.25 3.35175V10.8983C11.2494 11.3892 11.0541 11.8598 10.707 12.207C10.3598 12.5541 9.88918 12.7494 9.39825 12.75ZM3.35175 3C3.25846 3 3.16899 3.03706 3.10303 3.10303C3.03706 3.16899 3 3.25846 3 3.35175V10.8983C3 11.0925 3.1575 11.25 3.35175 11.25H9.39825C9.5925 11.25 9.75 11.0925 9.75 10.8983V3.35175C9.75 3.25846 9.71294 3.16899 9.64697 3.10303C9.58101 3.03706 9.49154 3 9.39825 3H3.35175ZM9.39825 22.5H3.35175C2.86082 22.4994 2.39016 22.3041 2.04302 21.957C1.69588 21.6098 1.5006 21.1392 1.5 20.6483V16.1017C1.5006 15.6108 1.69588 15.1402 2.04302 14.793C2.39016 14.4459 2.86082 14.2506 3.35175 14.25H9.39825C9.88918 14.2506 10.3598 14.4459 10.707 14.793C11.0541 15.1402 11.2494 15.6108 11.25 16.1017V20.6483C11.2494 21.1392 11.0541 21.6098 10.707 21.957C10.3598 22.3041 9.88918 22.4994 9.39825 22.5ZM3.35175 15.75C3.25846 15.75 3.16899 15.7871 3.10303 15.853C3.03706 15.919 3 16.0085 3 16.1017V20.6483C3 20.8425 3.1575 21 3.35175 21H9.39825C9.5925 21 9.75 20.8425 9.75 20.6483V16.1017C9.75 16.0085 9.71294 15.919 9.64697 15.853C9.58101 15.7871 9.49154 15.75 9.39825 15.75H3.35175Z" fill="black"/>
</svg>
