<svg width="10" height="9" viewBox="0 0 10 9" fill="none" xmlns="http://www.w3.org/2000/svg">
<path d="M2.14 3.83C1.82 3.83 1.54 3.76667 1.3 3.64C1.06667 3.50667 0.883333 3.32667 0.75 3.1C0.616667 2.86667 0.55 2.6 0.55 2.3C0.55 1.99333 0.613333 1.72667 0.74 1.5C0.873333 1.26667 1.05667 1.08667 1.29 0.959999C1.53 0.826666 1.81333 0.76 2.14 0.76C2.45333 0.76 2.73 0.826666 2.97 0.959999C3.21 1.08667 3.39667 1.26667 3.53 1.5C3.66333 1.72667 3.73 1.99333 3.73 2.3C3.73 2.6 3.66333 2.86667 3.53 3.1C3.39667 3.32667 3.21 3.50667 2.97 3.64C2.73 3.76667 2.45333 3.83 2.14 3.83ZM2.15 3.24C2.47 3.24 2.70333 3.15333 2.85 2.98C3.00333 2.80667 3.08 2.58 3.08 2.3C3.08 2.10667 3.04333 1.94 2.97 1.8C2.90333 1.65333 2.8 1.54 2.66 1.46C2.52667 1.38 2.35667 1.34 2.15 1.34C1.82333 1.34 1.58333 1.42667 1.43 1.6C1.27667 1.77333 1.2 2.00667 1.2 2.3C1.2 2.58 1.27667 2.80667 1.43 2.98C1.58333 3.15333 1.82333 3.24 2.15 3.24ZM7.73 1.55C7.35 1.55 7.00667 1.61667 6.7 1.75C6.39333 1.87667 6.13333 2.06667 5.92 2.32C5.70667 2.56667 5.54333 2.87 5.43 3.23C5.31667 3.58333 5.26 3.98333 5.26 4.43C5.26 5.01667 5.35 5.52667 5.53 5.96C5.71667 6.39333 5.99 6.72667 6.35 6.96C6.71667 7.19333 7.17333 7.31 7.72 7.31C8.03333 7.31 8.33 7.28333 8.61 7.23C8.89 7.17667 9.16333 7.11 9.43 7.03V7.81C9.16333 7.91 8.88667 7.98333 8.6 8.03C8.32 8.07667 7.98333 8.1 7.59 8.1C6.86333 8.1 6.25667 7.95 5.77 7.65C5.28333 7.35 4.91667 6.92333 4.67 6.37C4.43 5.81667 4.31 5.16667 4.31 4.42C4.31 3.88 4.38333 3.38667 4.53 2.94C4.68333 2.49333 4.90333 2.10667 5.19 1.78C5.48333 1.45333 5.84333 1.20333 6.27 1.03C6.69667 0.85 7.18667 0.76 7.74 0.76C8.10667 0.76 8.46 0.796666 8.8 0.869999C9.14 0.943333 9.44333 1.04667 9.71 1.18L9.35 1.94C9.13 1.84 8.88333 1.75 8.61 1.67C8.34333 1.59 8.05 1.55 7.73 1.55Z" fill="black"/>
</svg>
