<svg width="18" height="16" viewBox="0 0 18 16" fill="none" xmlns="http://www.w3.org/2000/svg">
<path d="M8.02287 0.898302C7.8031 0.952752 7.62519 1.09725 7.51845 1.31296L7.43891 1.47422L7.43263 1.99987L7.42636 2.52762L7.2338 2.58417C6.89891 2.6826 6.6938 2.76427 6.36519 2.92553L6.04287 3.08259L5.69543 2.73914C5.25798 2.30773 5.19519 2.27212 4.88543 2.27212C4.55473 2.27212 4.52543 2.29097 3.94984 2.86479C3.68612 3.12657 3.44333 3.38207 3.40984 3.43443C3.32403 3.56846 3.27589 3.76951 3.29263 3.92657C3.31775 4.16322 3.3931 4.2826 3.76984 4.66165L4.10682 5.00301L3.95822 5.30249C3.78449 5.65223 3.70705 5.8428 3.61077 6.16322L3.53961 6.39778L3.00798 6.40825C2.48891 6.41872 2.47636 6.41872 2.35915 6.47527C2.14147 6.57579 1.97822 6.78731 1.92589 7.03233C1.89449 7.18103 1.89449 8.33705 1.92589 8.48574C1.97822 8.73076 2.14147 8.94228 2.35915 9.04281C2.47636 9.09935 2.48682 9.09935 3.02054 9.10982L3.56263 9.12029L3.63798 9.36113C3.73845 9.67317 3.88287 10.0103 4.02729 10.27L4.1424 10.4795L3.78659 10.8376C3.49356 11.137 3.42031 11.2208 3.36798 11.3318C3.29473 11.491 3.2717 11.6606 3.3031 11.8072C3.35124 12.0376 3.39101 12.0899 3.92054 12.6219C4.52543 13.2292 4.55054 13.2459 4.88543 13.2459C5.19938 13.2459 5.2538 13.2124 5.72263 12.7517L6.09938 12.381L6.31915 12.492C6.59124 12.6281 6.95543 12.7726 7.22333 12.8501L7.42636 12.9067L7.43263 13.4763L7.43891 14.0439L7.51845 14.2051C7.60636 14.3831 7.70473 14.4815 7.88891 14.5716L8.00403 14.6281L8.7324 14.6344C9.55077 14.6428 9.60938 14.6344 9.80822 14.5004C9.97566 14.3852 10.0803 14.224 10.1264 14.0145C10.1389 13.9496 10.1494 13.6878 10.1494 13.3863V12.869L10.3754 12.7978C10.6266 12.7182 10.9678 12.5779 11.0557 12.5192C11.1687 12.4397 11.2105 12.2554 11.1457 12.1297C11.1101 12.0606 10.3273 11.3255 10.2289 11.269C10.1033 11.1978 10.0426 11.1957 9.79566 11.2669C9.32473 11.4009 8.8831 11.4491 8.45612 11.4135C7.56868 11.3402 6.79636 10.9967 6.16636 10.3894C5.6431 9.88469 5.29775 9.29202 5.12822 8.60301C5.04659 8.27631 5.02147 8.06061 5.02147 7.71715C5.02147 7.3716 5.04659 7.15799 5.12822 6.8271C5.55938 5.07631 7.18147 3.89725 8.98984 4.02291C10.298 4.11506 11.4764 4.91506 12.0561 6.10668C12.1922 6.3894 12.3157 6.76427 12.3701 7.07003C12.4057 7.26479 12.4161 7.40301 12.4161 7.70668C12.4182 8.11087 12.3889 8.3538 12.3052 8.66584C12.2508 8.8648 12.2529 8.99045 12.3115 9.11401C12.3387 9.17055 12.5061 9.37579 12.7133 9.60406C13.1047 10.0355 13.178 10.0899 13.3371 10.0648C13.5422 10.0313 13.628 9.90563 13.7954 9.38836L13.8854 9.10982H14.4526C15.0868 9.10982 15.1538 9.09935 15.3296 8.97579C15.4615 8.88155 15.5578 8.76008 15.6143 8.61139C15.6582 8.5004 15.6624 8.45223 15.6708 7.87422C15.6791 7.19987 15.6645 7.01349 15.5871 6.84385C15.5222 6.70144 15.3715 6.55275 15.2187 6.47736L15.0994 6.41872L14.5008 6.41244L13.9022 6.40616L13.8457 6.20511C13.7724 5.94123 13.6238 5.56846 13.4898 5.30459L13.381 5.09097L13.7619 4.70773C14.1638 4.30144 14.2266 4.21558 14.2726 3.99359C14.304 3.83652 14.2831 3.67527 14.2057 3.51401C14.1533 3.40092 14.0717 3.30877 13.6489 2.88574C13.0524 2.28888 13.0252 2.27212 12.6924 2.27212C12.3743 2.27212 12.324 2.30144 11.8573 2.76218L11.4784 3.13705L11.2796 3.02396C11.0305 2.88364 10.6538 2.72239 10.3691 2.63443L10.1494 2.56532V2.08992C10.1494 1.81767 10.1389 1.56637 10.1264 1.50354C10.0803 1.29202 9.97566 1.13286 9.80822 1.01977C9.61356 0.887831 9.55496 0.879454 8.78054 0.881548C8.39961 0.883642 8.05845 0.889925 8.02287 0.898302Z" fill="#161616"/>
<path d="M8.06877 5.33435C7.87203 5.36367 7.74017 5.43906 7.7004 5.54587C7.65435 5.66734 7.78831 5.83488 8.10435 6.04849C8.57738 6.36681 8.73017 6.66001 8.61296 7.02022C8.44552 7.52912 8.08761 7.94168 7.77156 7.98985C7.65645 8.0087 7.46389 7.94168 7.24831 7.80556C6.87994 7.57519 6.72505 7.52493 6.59528 7.59194C6.32319 7.73226 6.51784 8.22859 7.0411 8.74378C7.42621 9.12074 7.74017 9.24011 8.48738 9.29666C9.07342 9.34063 9.23249 9.41812 9.75994 9.91446C11.4825 11.5333 12.303 12.3166 12.3825 12.4171C12.6378 12.7417 12.753 13.1689 12.7864 13.9145C12.8053 14.3103 12.8241 14.3961 12.9204 14.5469C13.0585 14.7668 13.3851 14.9658 13.7513 15.0558C13.9983 15.1166 14.4399 15.1668 14.5739 15.1501C14.7832 15.1228 14.913 15.0412 14.936 14.9218C14.959 14.7898 14.846 14.6621 14.4399 14.3605C14.0318 14.059 13.9816 13.9333 14.1134 13.5501C14.2076 13.2757 14.3206 13.0809 14.4713 12.9323C14.7853 12.6244 14.9883 12.6181 15.4446 12.8987C15.792 13.1103 15.9804 13.1061 16.0934 12.8862C16.1499 12.7752 16.0913 12.6223 15.8904 12.3563C15.432 11.7532 15.0574 11.5417 14.3353 11.4768C13.9481 11.4433 13.7116 11.3616 13.4499 11.1752C13.3076 11.0726 10.5239 8.3333 10.4255 8.19718C10.323 8.05896 10.2392 7.87257 10.1848 7.65896C10.1241 7.4244 10.0676 6.97624 10.0676 6.71236C10.0655 6.35215 9.9818 6.1532 9.7118 5.88514C9.50668 5.6799 9.31621 5.56262 9.02738 5.46629C8.76575 5.38042 8.24459 5.30713 8.06877 5.33435Z" fill="#161616"/>
</svg>
