<svg width="24" height="24" viewBox="0 0 24 24" fill="none" xmlns="http://www.w3.org/2000/svg">
<path d="M19.0733 6.65269H17.0643V3.95699C17.0643 2.7926 16.2218 1.9 15.2274 1.9H5.73684C4.74028 1.9 3.9 2.86493 3.9 3.95699V18.0753C3.9 19.2397 4.74247 20.1323 5.73684 20.1323H12.0353C12.1379 20.9685 12.7757 21.6 13.5526 21.6H19.0733C19.9458 21.6 20.6 20.8448 20.6 19.8925V8.36022C20.6 7.40794 19.9458 6.65269 19.0733 6.65269ZM19.0733 20.072H13.5526C13.5093 20.072 13.4942 20.0604 13.4879 20.0532C13.4795 20.0438 13.4665 20.0196 13.4665 19.9624V18.5247H19.1594V19.9624C19.1594 20.0196 19.1464 20.0438 19.1381 20.0532C19.1317 20.0604 19.1166 20.072 19.0733 20.072ZM5.3406 18.1452V16.8473H12.0259V18.6043H5.73684C5.64976 18.6043 5.55092 18.5538 5.47047 18.4632C5.39074 18.3734 5.3406 18.2564 5.3406 18.1452ZM5.73684 3.49785H15.1654C15.402 3.49785 15.5617 3.71237 15.5617 3.95699V6.5828H13.5526C12.6801 6.5828 12.0259 7.33804 12.0259 8.29032V15.1796H5.3406V3.95699C5.3406 3.84574 5.39074 3.72879 5.47047 3.63896C5.55092 3.54831 5.64976 3.49785 5.73684 3.49785ZM19.1594 8.36022V16.9269H13.4665V8.36022C13.4665 8.30299 13.4795 8.27876 13.4879 8.26934C13.4942 8.26219 13.5093 8.25054 13.5526 8.25054H19.0733C19.1166 8.25054 19.1317 8.26219 19.1381 8.26934C19.1464 8.27876 19.1594 8.30299 19.1594 8.36022Z" fill="white" stroke="white" stroke-width="0.2"/>
</svg>
