<svg width="14" height="12" viewBox="0 0 14 12" fill="none" xmlns="http://www.w3.org/2000/svg">
<path d="M6.24185 0.674704C6.07092 0.715541 5.93255 0.823918 5.84953 0.985698L5.78767 1.10664L5.78278 1.50088L5.7779 1.89669L5.62813 1.9391C5.36767 2.01292 5.20813 2.07418 4.95255 2.19512L4.70185 2.31292L4.43162 2.05533C4.09139 1.73177 4.04255 1.70507 3.80162 1.70507C3.54441 1.70507 3.52162 1.71921 3.07395 2.14957C2.86883 2.34591 2.67999 2.53753 2.65395 2.5768C2.5872 2.67732 2.54976 2.82811 2.56278 2.94591C2.58232 3.12339 2.64092 3.21292 2.93395 3.49722L3.19604 3.75324L3.08046 3.97785C2.94534 4.24015 2.88511 4.38308 2.81022 4.62339L2.75488 4.79931L2.34139 4.80716C1.93767 4.81502 1.9279 4.81502 1.83674 4.85743C1.66743 4.93282 1.54046 5.09146 1.49976 5.27523C1.47534 5.38675 1.47534 6.25376 1.49976 6.36528C1.54046 6.54905 1.66743 6.70769 1.83674 6.78308C1.9279 6.82549 1.93604 6.82549 2.35115 6.83334L2.77278 6.8412L2.83139 7.02182C2.90953 7.25586 3.02185 7.50874 3.13418 7.7035L3.22371 7.86057L2.94697 8.12915C2.71906 8.35376 2.66208 8.41659 2.62139 8.49984C2.56441 8.61921 2.5465 8.74643 2.57092 8.85638C2.60836 9.02915 2.63929 9.06842 3.05115 9.46737C3.52162 9.92287 3.54115 9.93544 3.80162 9.93544C4.04581 9.93544 4.08813 9.91031 4.45278 9.56476L4.74581 9.28675L4.91674 9.36999C5.12836 9.47209 5.41162 9.58046 5.61999 9.63858L5.7779 9.68099L5.78278 10.1082L5.78767 10.5339L5.84953 10.6548C5.9179 10.7883 5.99441 10.8621 6.13767 10.9297L6.2272 10.9721L6.79371 10.9768C7.43022 10.9831 7.47581 10.9768 7.63046 10.8763C7.76069 10.7899 7.84208 10.6689 7.8779 10.5119C7.88767 10.4632 7.89581 10.2669 7.89581 10.0407V9.65271L8.07162 9.59931C8.26697 9.53963 8.53232 9.43439 8.60069 9.39041C8.6886 9.33073 8.72115 9.19251 8.67069 9.09826C8.64302 9.04643 8.03418 8.49512 7.95767 8.45271C7.85999 8.39931 7.81278 8.39774 7.62069 8.45114C7.25441 8.55167 6.91092 8.58779 6.57883 8.56109C5.8886 8.50612 5.2879 8.24853 4.7979 7.79303C4.39092 7.41449 4.12232 6.96999 3.99046 6.45324C3.92697 6.20821 3.90743 6.04643 3.90743 5.78884C3.90743 5.52968 3.92697 5.36947 3.99046 5.1213C4.32581 3.80821 5.58743 2.92392 6.99395 3.01816C8.01139 3.08727 8.9279 3.68727 9.37883 4.58099C9.48464 4.79303 9.58069 5.07418 9.62302 5.3035C9.65069 5.44957 9.65883 5.55324 9.65883 5.78099C9.66046 6.08413 9.63767 6.26633 9.57255 6.50036C9.53022 6.64957 9.53185 6.74381 9.57743 6.83648C9.5986 6.87889 9.72883 7.03282 9.88999 7.20402C10.1944 7.52758 10.2514 7.56842 10.3751 7.54957C10.5346 7.52444 10.6014 7.4302 10.7316 7.04224L10.8016 6.83334H11.2428C11.736 6.83334 11.7881 6.82549 11.9249 6.73282C12.0274 6.66214 12.1023 6.57104 12.1463 6.45952C12.1805 6.37627 12.1837 6.34015 12.1902 5.90664C12.1967 5.40088 12.1853 5.26109 12.1251 5.13387C12.0746 5.02706 11.9574 4.91554 11.8386 4.859L11.7458 4.81502L11.2802 4.81031L10.8146 4.80559L10.7707 4.65481C10.7137 4.4569 10.5981 4.17732 10.4939 3.97942L10.4093 3.81921L10.7056 3.53177C11.0181 3.22706 11.067 3.16266 11.1028 2.99617C11.1272 2.87837 11.1109 2.75743 11.0507 2.63648C11.01 2.55167 10.9465 2.48256 10.6177 2.16528C10.1537 1.71764 10.1326 1.70507 9.87371 1.70507C9.62627 1.70507 9.5872 1.72706 9.22418 2.07261L8.92953 2.35376L8.77488 2.26894C8.58115 2.16371 8.28813 2.04277 8.06674 1.9768L7.89581 1.92496V1.56842C7.89581 1.36423 7.88767 1.17575 7.8779 1.12863C7.84208 0.969992 7.76069 0.850619 7.63046 0.765802C7.47906 0.66685 7.43348 0.660567 6.83115 0.662138C6.53488 0.663709 6.26953 0.668421 6.24185 0.674704Z" fill="black"/>
<path d="M6.2756 4.00101C6.12258 4.023 6.02002 4.07954 5.98909 4.15965C5.95328 4.25075 6.05746 4.3764 6.30328 4.53661C6.67118 4.77535 6.79002 4.99525 6.69886 5.26541C6.56863 5.64708 6.29025 5.95651 6.04444 5.99263C5.95491 6.00677 5.80514 5.95651 5.63746 5.85441C5.35095 5.68164 5.23049 5.64394 5.12956 5.6942C4.91793 5.79944 5.06932 6.17169 5.4763 6.55808C5.77584 6.8408 6.02002 6.93033 6.60118 6.97274C7.057 7.00572 7.18072 7.06384 7.59095 7.43609C8.93072 8.65022 9.56886 9.23766 9.63072 9.31305C9.82932 9.55651 9.91886 9.87692 9.94491 10.4361C9.95956 10.7329 9.97421 10.7973 10.0491 10.9104C10.1565 11.0754 10.4105 11.2246 10.6954 11.2921C10.8875 11.3377 11.231 11.3754 11.3351 11.3628C11.4979 11.3424 11.5989 11.2811 11.6168 11.1916C11.6347 11.0926 11.5468 10.9968 11.231 10.7706C10.9135 10.5445 10.8744 10.4502 10.977 10.1628C11.0503 9.95703 11.1382 9.81096 11.2554 9.69944C11.4996 9.46855 11.6575 9.46384 12.0123 9.67431C12.2826 9.83295 12.4291 9.8298 12.517 9.66488C12.561 9.58164 12.5154 9.46698 12.3591 9.2675C12.0026 8.81514 11.7112 8.65651 11.1496 8.60781C10.8484 8.58268 10.6644 8.52143 10.461 8.38164C10.3503 8.30467 8.18514 6.25022 8.10863 6.14813C8.02886 6.04446 7.96374 5.90467 7.92142 5.74446C7.87421 5.56855 7.83025 5.23242 7.83025 5.03452C7.82863 4.76436 7.76351 4.61514 7.55351 4.4141C7.39398 4.26017 7.24584 4.17221 7.02118 4.09996C6.8177 4.03556 6.41235 3.98059 6.2756 4.00101Z" fill="black"/>
</svg>
