<svg width="32" height="32" viewBox="0 0 32 32" fill="none" xmlns="http://www.w3.org/2000/svg">
<path d="M5.33398 27.584V29.3028H6.69695C6.63451 29.0232 6.60299 28.7356 6.60299 28.4434C6.60299 28.1512 6.63451 27.8642 6.69695 27.584H5.33398ZM19.626 22.4341C19.626 20.9781 19.7994 19.5554 20.2768 18.1733H11.6704C12.1477 19.5551 12.3213 20.9783 12.3213 22.4341H19.626ZM10.9159 16.4546H21.0313C21.3338 15.8943 21.6845 15.3586 22.0815 14.8533C23.2038 13.4256 23.8776 11.5974 23.8776 9.60421C23.8776 5.03634 20.3387 1.33301 15.9736 1.33301C11.6086 1.33301 8.06966 5.03634 8.06966 9.60421C8.06966 11.5974 8.74341 13.4256 9.86576 14.8533C10.2628 15.3586 10.6134 15.8943 10.9159 16.4546ZM14.3924 27.584C14.4548 27.8648 14.4863 28.1518 14.4863 28.4434C14.4863 28.735 14.4548 29.0221 14.3924 29.3028H26.6133V27.584H14.3924Z" fill="#045284"/>
<path d="M10.5445 30.6662C11.7643 30.6662 12.7531 29.6774 12.7531 28.4576C12.7531 27.2378 11.7643 26.249 10.5445 26.249C9.32476 26.249 8.33594 27.2378 8.33594 28.4576C8.33594 29.6774 9.32476 30.6662 10.5445 30.6662Z" fill="#045284"/>
</svg>
