<svg width="40" height="40" viewBox="0 0 40 40" fill="none" xmlns="http://www.w3.org/2000/svg">
<path d="M14.6397 24.9154C16.3997 24.9154 17.9997 25.5496 19.1197 26.6772H23.6797V5.81741C23.6797 4.12608 22.1597 2.78711 20.2397 2.78711H9.11969C7.19969 2.78711 5.67969 4.12608 5.67969 5.81741V33.0901C5.67969 34.7815 7.19969 36.1204 9.11969 36.1204H20.2397C21.9197 36.1204 23.2797 35.0634 23.5997 33.7244H19.1197C17.9997 34.8519 16.3997 35.4862 14.6397 35.4862C11.3597 35.4862 8.63969 33.1606 8.63969 30.2008C8.71969 27.3114 11.3597 24.9154 14.6397 24.9154ZM11.9997 19.4185C11.9997 19.7709 11.6797 20.0528 11.2797 20.0528H9.43969C9.03969 20.0528 8.71969 19.7709 8.71969 19.4185V18.291C8.71969 17.9386 9.03969 17.6567 9.43969 17.6567H11.1997C11.5997 17.6567 11.9197 17.9386 11.9197 18.291V19.4185H11.9997ZM11.9997 15.4016C11.9997 15.754 11.6797 16.0359 11.2797 16.0359H9.43969C9.03969 16.0359 8.71969 15.754 8.71969 15.4016V14.2741C8.71969 13.9217 9.03969 13.6398 9.43969 13.6398H11.1997C11.5997 13.6398 11.9197 13.9217 11.9197 14.2741V15.4016H11.9997ZM16.3197 23.365C16.3197 23.7173 15.9997 23.9992 15.5997 23.9992H13.7597C13.3597 23.9992 13.0397 23.7173 13.0397 23.365V22.2374C13.0397 21.8851 13.3597 21.6032 13.7597 21.6032H15.5997C15.9997 21.6032 16.3197 21.8851 16.3197 22.2374V23.365ZM16.3197 19.4185C16.3197 19.7709 15.9997 20.0528 15.5997 20.0528H13.7597C13.3597 20.0528 13.0397 19.7709 13.0397 19.4185V18.291C13.0397 17.9386 13.3597 17.6567 13.7597 17.6567H15.5997C15.9997 17.6567 16.3197 17.9386 16.3197 18.291V19.4185ZM16.3197 15.4016C16.3197 15.754 15.9997 16.0359 15.5997 16.0359H13.7597C13.3597 16.0359 13.0397 15.754 13.0397 15.4016V14.2741C13.0397 13.9217 13.3597 13.6398 13.7597 13.6398H15.5997C15.9997 13.6398 16.3197 13.9217 16.3197 14.2741V15.4016ZM20.6397 23.365C20.6397 23.7173 20.3197 23.9992 19.9197 23.9992H18.0797C17.6797 23.9992 17.3597 23.7173 17.3597 23.365V22.2374C17.3597 21.8851 17.6797 21.6032 18.0797 21.6032H19.9197C20.3197 21.6032 20.6397 21.8851 20.6397 22.2374V23.365ZM20.6397 19.4185C20.6397 19.7709 20.3197 20.0528 19.9197 20.0528H18.0797C17.6797 20.0528 17.3597 19.7709 17.3597 19.4185V18.291C17.3597 17.9386 17.6797 17.6567 18.0797 17.6567H19.9197C20.3197 17.6567 20.6397 17.9386 20.6397 18.291V19.4185ZM20.6397 15.4016C20.6397 15.754 20.3197 16.0359 19.9197 16.0359H18.0797C17.6797 16.0359 17.3597 15.754 17.3597 15.4016V14.2741C17.3597 13.9217 17.6797 13.6398 18.0797 13.6398H19.9197C20.3197 13.6398 20.6397 13.9217 20.6397 14.2741V15.4016ZM7.11969 11.1028V7.22686C7.11969 6.87449 7.43969 6.59261 7.83969 6.59261H21.5197C21.9197 6.59261 22.2397 6.87449 22.2397 7.22686V11.1028C22.2397 11.4552 21.9197 11.7371 21.5197 11.7371H7.75969C7.35969 11.7371 7.11969 11.4552 7.11969 11.1028ZM8.63969 23.365V22.2374C8.63969 21.8851 8.95969 21.6032 9.35969 21.6032H11.1997C11.5997 21.6032 11.9197 21.8851 11.9197 22.2374V23.365C11.9197 23.7173 11.5997 23.9992 11.1997 23.9992H9.35969C8.95969 24.0697 8.63969 23.7878 8.63969 23.365Z" fill="#045284"/>
<path d="M34.3189 30.2007C34.3189 31.3282 33.2789 32.3148 31.9189 32.3148H18.3189C17.5189 33.3719 16.1589 34.0766 14.6389 34.0766C12.2389 34.0766 10.2389 32.3853 10.2389 30.2007C10.2389 28.0865 12.1589 26.3952 14.6389 26.3952C16.1589 26.3952 17.5189 27.0999 18.3189 28.157H31.9989C33.2789 28.0865 34.3189 29.0026 34.3189 30.2007ZM9.99891 10.257C9.91891 10.1866 9.91891 10.1161 9.91891 10.1161C9.91891 10.1161 9.99891 9.76374 10.0789 9.19996C9.59891 9.55232 9.27891 9.76374 9.27891 9.76374H9.11891C9.03891 9.76374 8.95891 9.69327 8.87891 9.62279V9.48185C8.87891 9.41138 8.95891 9.34091 9.03891 9.27043L9.99891 8.91807L9.03891 8.56571C8.95891 8.49524 8.87891 8.42477 8.87891 8.3543V8.21335C8.95891 8.21335 9.03891 8.14288 9.19891 8.14288H9.35891C9.35891 8.14288 9.67891 8.3543 10.1589 8.70666C10.0789 8.14288 9.99891 7.86099 9.99891 7.79052C9.99891 7.72005 9.99891 7.64957 10.0789 7.64957C10.1589 7.5791 10.2389 7.5791 10.3189 7.5791C10.3989 7.5791 10.4789 7.5791 10.5589 7.64957C10.6389 7.72005 10.6389 7.79052 10.6389 7.79052C10.6389 7.79052 10.5589 8.14288 10.4789 8.70666C10.9589 8.3543 11.2789 8.14288 11.2789 8.14288H11.4389C11.5189 8.14288 11.5989 8.21335 11.6789 8.28382V8.42477C11.6789 8.49524 11.5989 8.56571 11.5189 8.63618L10.5589 8.98854L11.5189 9.34091C11.5989 9.41138 11.6789 9.48185 11.6789 9.55232V9.69327C11.5989 9.76374 11.5189 9.83421 11.4389 9.83421H11.2789C11.2789 9.83421 10.9589 9.62279 10.4789 9.27043C10.5589 9.83421 10.6389 10.1161 10.6389 10.1866C10.6389 10.257 10.6389 10.3275 10.5589 10.3275C10.4789 10.398 10.3989 10.398 10.3189 10.398C10.1589 10.3275 10.0789 10.3275 9.99891 10.257ZM14.3989 10.257C14.3189 10.1866 14.3189 10.1161 14.3189 10.1161C14.3189 10.1161 14.3989 9.76374 14.4789 9.19996C13.9989 9.55232 13.6789 9.76374 13.6789 9.76374H13.5189C13.4389 9.76374 13.3589 9.69327 13.2789 9.62279V9.48185C13.2789 9.41138 13.3589 9.34091 13.4389 9.27043L14.3989 8.91807L13.4389 8.56571C13.3589 8.49524 13.2789 8.42477 13.2789 8.3543V8.21335C13.3589 8.21335 13.4389 8.14288 13.5189 8.14288H13.6789C13.6789 8.14288 13.9989 8.3543 14.4789 8.70666C14.3989 8.14288 14.3189 7.86099 14.3189 7.79052C14.3189 7.72005 14.3189 7.64957 14.3989 7.64957C14.4789 7.5791 14.5589 7.5791 14.6389 7.5791C14.7189 7.5791 14.7989 7.5791 14.8789 7.64957C14.9589 7.72005 14.9589 7.79052 14.9589 7.79052C14.9589 7.79052 14.8789 8.14288 14.7989 8.70666C15.2789 8.3543 15.5989 8.14288 15.5989 8.14288H15.7589C15.8389 8.14288 15.9189 8.21335 15.9989 8.28382V8.42477C15.9989 8.49524 15.9189 8.56571 15.8389 8.63618L14.8789 8.98854L15.8389 9.34091C15.9189 9.41138 15.9989 9.48185 15.9989 9.55232V9.69327C15.9189 9.76374 15.8389 9.83421 15.7589 9.83421H15.5989C15.5989 9.83421 15.2789 9.62279 14.7989 9.27043C14.8789 9.83421 14.9589 10.1161 14.9589 10.1866C14.9589 10.257 14.9589 10.3275 14.8789 10.3275C14.7989 10.398 14.7189 10.398 14.6389 10.398C14.4789 10.3275 14.4789 10.3275 14.3989 10.257ZM18.7189 10.257C18.6389 10.1866 18.6389 10.1161 18.6389 10.1161C18.6389 10.1161 18.7189 9.76374 18.7989 9.19996C18.3189 9.55232 17.9989 9.76374 17.9989 9.76374H17.8389C17.7589 9.76374 17.6789 9.69327 17.5989 9.62279V9.48185C17.5989 9.41138 17.6789 9.34091 17.7589 9.27043L18.7189 8.91807L17.7589 8.56571C17.5989 8.63618 17.5989 8.56571 17.5989 8.42477V8.28382C17.6789 8.21335 17.7589 8.14288 17.8389 8.14288H17.9989C17.9989 8.14288 18.3189 8.3543 18.7989 8.70666C18.7189 8.14288 18.6389 7.86099 18.6389 7.79052C18.6389 7.72005 18.6389 7.64957 18.7189 7.64957C18.7989 7.5791 18.8789 7.5791 18.9589 7.5791C19.0389 7.5791 19.1189 7.5791 19.1989 7.64957V7.86099C19.1989 7.86099 19.1189 8.21335 19.0389 8.77713C19.5189 8.42477 19.8389 8.21335 19.8389 8.21335H19.9989C20.0789 8.21335 20.1589 8.28382 20.2389 8.3543V8.49524C20.2389 8.56571 20.1589 8.63618 20.0789 8.70666L19.1989 8.98854L20.1589 9.34091C20.2389 9.41138 20.3189 9.48185 20.3189 9.55232V9.69327C20.2389 9.76374 20.1589 9.83421 20.0789 9.83421H19.9189C19.9189 9.83421 19.5989 9.62279 19.1189 9.27043C19.1989 9.83421 19.2789 10.1161 19.2789 10.1866C19.2789 10.257 19.2789 10.3275 19.1989 10.3275C19.1189 10.398 19.0389 10.398 18.9589 10.398C18.8789 10.3275 18.7989 10.3275 18.7189 10.257Z" fill="#045284"/>
</svg>
