<svg width="24" height="27" viewBox="0 0 24 27" fill="none" xmlns="http://www.w3.org/2000/svg">
<path d="M7.71097 17.9321C9.11897 17.9321 10.399 18.4395 11.295 19.3415H14.943V2.65373C14.943 1.30067 13.727 0.229492 12.191 0.229492H3.29497C1.75897 0.229492 0.542969 1.30067 0.542969 2.65373V24.4719C0.542969 25.825 1.75897 26.8962 3.29497 26.8962H12.191C13.535 26.8962 14.623 26.0505 14.879 24.9793H11.295C10.399 25.8814 9.11897 26.3888 7.71097 26.3888C5.08697 26.3888 2.91097 24.5283 2.91097 22.1604C2.97497 19.8489 5.08697 17.9321 7.71097 17.9321ZM5.59897 13.5346C5.59897 13.8165 5.34297 14.042 5.02297 14.042H3.55097C3.23097 14.042 2.97497 13.8165 2.97497 13.5346V12.6326C2.97497 12.3507 3.23097 12.1252 3.55097 12.1252H4.95897C5.27897 12.1252 5.53497 12.3507 5.53497 12.6326V13.5346H5.59897ZM5.59897 10.3211C5.59897 10.603 5.34297 10.8285 5.02297 10.8285H3.55097C3.23097 10.8285 2.97497 10.603 2.97497 10.3211V9.41906C2.97497 9.13717 3.23097 8.91166 3.55097 8.91166H4.95897C5.27897 8.91166 5.53497 9.13717 5.53497 9.41906V10.3211H5.59897ZM9.05497 16.6918C9.05497 16.9737 8.79897 17.1992 8.47897 17.1992H7.00697C6.68697 17.1992 6.43097 16.9737 6.43097 16.6918V15.7897C6.43097 15.5079 6.68697 15.2823 7.00697 15.2823H8.47897C8.79897 15.2823 9.05497 15.5079 9.05497 15.7897V16.6918ZM9.05497 13.5346C9.05497 13.8165 8.79897 14.042 8.47897 14.042H7.00697C6.68697 14.042 6.43097 13.8165 6.43097 13.5346V12.6326C6.43097 12.3507 6.68697 12.1252 7.00697 12.1252H8.47897C8.79897 12.1252 9.05497 12.3507 9.05497 12.6326V13.5346ZM9.05497 10.3211C9.05497 10.603 8.79897 10.8285 8.47897 10.8285H7.00697C6.68697 10.8285 6.43097 10.603 6.43097 10.3211V9.41906C6.43097 9.13717 6.68697 8.91166 7.00697 8.91166H8.47897C8.79897 8.91166 9.05497 9.13717 9.05497 9.41906V10.3211ZM12.511 16.6918C12.511 16.9737 12.255 17.1992 11.935 17.1992H10.463C10.143 17.1992 9.88697 16.9737 9.88697 16.6918V15.7897C9.88697 15.5079 10.143 15.2823 10.463 15.2823H11.935C12.255 15.2823 12.511 15.5079 12.511 15.7897V16.6918ZM12.511 13.5346C12.511 13.8165 12.255 14.042 11.935 14.042H10.463C10.143 14.042 9.88697 13.8165 9.88697 13.5346V12.6326C9.88697 12.3507 10.143 12.1252 10.463 12.1252H11.935C12.255 12.1252 12.511 12.3507 12.511 12.6326V13.5346ZM12.511 10.3211C12.511 10.603 12.255 10.8285 11.935 10.8285H10.463C10.143 10.8285 9.88697 10.603 9.88697 10.3211V9.41906C9.88697 9.13717 10.143 8.91166 10.463 8.91166H11.935C12.255 8.91166 12.511 9.13717 12.511 9.41906V10.3211ZM1.69497 6.88206V3.78129C1.69497 3.4994 1.95097 3.27389 2.27097 3.27389H13.215C13.535 3.27389 13.791 3.4994 13.791 3.78129V6.88206C13.791 7.16395 13.535 7.38946 13.215 7.38946H2.20697C1.88697 7.38946 1.69497 7.16395 1.69497 6.88206ZM2.91097 16.6918V15.7897C2.91097 15.5079 3.16697 15.2823 3.48697 15.2823H4.95897C5.27897 15.2823 5.53497 15.5079 5.53497 15.7897V16.6918C5.53497 16.9737 5.27897 17.1992 4.95897 17.1992H3.48697C3.16697 17.2556 2.91097 17.0301 2.91097 16.6918Z" fill="#045284"/>
<path d="M23.4555 22.1607C23.4555 23.0628 22.6235 23.8521 21.5355 23.8521H10.6555C10.0155 24.6977 8.92751 25.2615 7.71151 25.2615C5.79151 25.2615 4.19152 23.9084 4.19152 22.1607C4.19152 20.4694 5.72751 19.1163 7.71151 19.1163C8.92751 19.1163 10.0155 19.6801 10.6555 20.5258H21.5995C22.6235 20.4694 23.4555 21.2023 23.4555 22.1607ZM3.99952 6.20583C3.93552 6.14945 3.93552 6.09308 3.93552 6.09308C3.93552 6.09308 3.99952 5.81119 4.06352 5.36016C3.67952 5.64205 3.42352 5.81119 3.42352 5.81119H3.29552C3.23152 5.81119 3.16752 5.75481 3.10352 5.69843V5.58568C3.10352 5.5293 3.16752 5.47292 3.23152 5.41654L3.99952 5.13465L3.23152 4.85277C3.16752 4.79639 3.10352 4.74001 3.10352 4.68363V4.57088C3.16752 4.57088 3.23152 4.5145 3.35952 4.5145H3.48752C3.48752 4.5145 3.74352 4.68363 4.12752 4.96552C4.06352 4.5145 3.99952 4.28899 3.99952 4.23261C3.99952 4.17623 3.99952 4.11985 4.06352 4.11985C4.12752 4.06348 4.19151 4.06348 4.25551 4.06348C4.31951 4.06348 4.38352 4.06348 4.44752 4.11985C4.51152 4.17623 4.51152 4.23261 4.51152 4.23261C4.51152 4.23261 4.44752 4.5145 4.38352 4.96552C4.76752 4.68363 5.02352 4.5145 5.02352 4.5145H5.15152C5.21552 4.5145 5.27952 4.57088 5.34352 4.62725V4.74001C5.34352 4.79639 5.27951 4.85276 5.21551 4.90914L4.44752 5.19103L5.21551 5.47292C5.27951 5.5293 5.34352 5.58568 5.34352 5.64205V5.75481C5.27952 5.81119 5.21552 5.86756 5.15152 5.86756H5.02352C5.02352 5.86756 4.76752 5.69843 4.38352 5.41654C4.44752 5.86756 4.51152 6.09307 4.51152 6.14945C4.51152 6.20583 4.51152 6.26221 4.44752 6.26221C4.38352 6.31859 4.31951 6.31859 4.25551 6.31859C4.12751 6.26221 4.06352 6.26221 3.99952 6.20583ZM7.51952 6.20583C7.45551 6.14945 7.45551 6.09308 7.45551 6.09308C7.45551 6.09308 7.51952 5.81119 7.58352 5.36016C7.19952 5.64205 6.94352 5.81119 6.94352 5.81119H6.81551C6.75151 5.81119 6.68752 5.75481 6.62352 5.69843V5.58568C6.62352 5.5293 6.68751 5.47292 6.75151 5.41654L7.51952 5.13465L6.75151 4.85277C6.68751 4.79639 6.62352 4.74001 6.62352 4.68363V4.57088C6.68752 4.57088 6.75151 4.5145 6.81551 4.5145H6.94352C6.94352 4.5145 7.19952 4.68363 7.58352 4.96552C7.51952 4.5145 7.45551 4.28899 7.45551 4.23261C7.45551 4.17623 7.45551 4.11985 7.51952 4.11985C7.58351 4.06348 7.64751 4.06348 7.71151 4.06348C7.77551 4.06348 7.83952 4.06348 7.90351 4.11985C7.96751 4.17623 7.96752 4.23261 7.96752 4.23261C7.96752 4.23261 7.90351 4.5145 7.83951 4.96552C8.22352 4.68363 8.47951 4.5145 8.47951 4.5145H8.60752C8.67152 4.5145 8.73551 4.57088 8.79951 4.62725V4.74001C8.79951 4.79639 8.73551 4.85276 8.67151 4.90914L7.90351 5.19103L8.67151 5.47292C8.73551 5.5293 8.79951 5.58568 8.79951 5.64205V5.75481C8.73551 5.81119 8.67152 5.86756 8.60752 5.86756H8.47951C8.47951 5.86756 8.22352 5.69843 7.83951 5.41654C7.90351 5.86756 7.96752 6.09307 7.96752 6.14945C7.96752 6.20583 7.96751 6.26221 7.90351 6.26221C7.83952 6.31859 7.77551 6.31859 7.71151 6.31859C7.58351 6.26221 7.58351 6.26221 7.51952 6.20583ZM10.9755 6.20583C10.9115 6.14945 10.9115 6.09308 10.9115 6.09308C10.9115 6.09308 10.9755 5.81119 11.0395 5.36016C10.6555 5.64205 10.3995 5.81119 10.3995 5.81119H10.2715C10.2075 5.81119 10.1435 5.75481 10.0795 5.69843V5.58568C10.0795 5.5293 10.1435 5.47292 10.2075 5.41654L10.9755 5.13465L10.2075 4.85277C10.0795 4.90914 10.0795 4.85276 10.0795 4.74001V4.62725C10.1435 4.57088 10.2075 4.5145 10.2715 4.5145H10.3995C10.3995 4.5145 10.6555 4.68363 11.0395 4.96552C10.9755 4.5145 10.9115 4.28899 10.9115 4.23261C10.9115 4.17623 10.9115 4.11985 10.9755 4.11985C11.0395 4.06348 11.1035 4.06348 11.1675 4.06348C11.2315 4.06348 11.2955 4.06348 11.3595 4.11985V4.28899C11.3595 4.28899 11.2955 4.57088 11.2315 5.0219C11.6155 4.74001 11.8715 4.57088 11.8715 4.57088H11.9995C12.0635 4.57088 12.1275 4.62725 12.1915 4.68363V4.79639C12.1915 4.85276 12.1275 4.90914 12.0635 4.96552L11.3595 5.19103L12.1275 5.47292C12.1915 5.5293 12.2555 5.58568 12.2555 5.64205V5.75481C12.1915 5.81119 12.1275 5.86756 12.0635 5.86756H11.9355C11.9355 5.86756 11.6795 5.69843 11.2955 5.41654C11.3595 5.86756 11.4235 6.09307 11.4235 6.14945C11.4235 6.20583 11.4235 6.26221 11.3595 6.26221C11.2955 6.31859 11.2315 6.31859 11.1675 6.31859C11.1035 6.26221 11.0395 6.26221 10.9755 6.20583Z" fill="#045284"/>
</svg>
