<svg width="40" height="40" viewBox="0 0 40 40" fill="none" xmlns="http://www.w3.org/2000/svg">
<path d="M12.451 35.0093C12.4507 35.1077 12.4708 35.2051 12.5103 35.296C12.5497 35.3869 12.6076 35.4695 12.6807 35.539C12.7538 35.6085 12.8406 35.6636 12.9362 35.7011C13.0317 35.7386 13.1341 35.7578 13.2375 35.7575H18.6355V34.2612H13.2375C12.8014 34.2612 12.451 34.598 12.451 35.0093ZM35.8807 34.2612H33.0065C32.7667 34.5469 32.4312 34.7459 32.0559 34.825L27.6011 35.7576H35.8807C36.3131 35.7576 36.6673 35.4243 36.6673 35.0094C36.6674 34.5985 36.3132 34.2612 35.8807 34.2612ZM11.6724 8.48841H9.55906C9.14738 8.48841 8.81365 8.80585 8.81365 9.19745V12.9628C8.81365 13.3544 9.14738 13.6719 9.55906 13.6719H11.6724C12.0841 13.6719 12.4178 13.3544 12.4178 12.9628V9.19745C12.4178 8.80585 12.084 8.48841 11.6724 8.48841ZM10.6176 12.1029C10.0213 12.1029 9.54051 11.6456 9.54051 11.0819C9.54027 10.9473 9.56796 10.814 9.622 10.6896C9.67605 10.5652 9.75537 10.4521 9.85544 10.357C9.9555 10.2618 10.0743 10.1863 10.2051 10.1349C10.3359 10.0835 10.4761 10.0572 10.6176 10.0574C11.2102 10.0574 11.691 10.5147 11.691 11.0819C11.691 11.6455 11.2102 12.1029 10.6176 12.1029ZM8.8068 4.04218C9.01289 4.04218 9.17954 3.88359 9.17954 3.68763C9.17954 3.49166 9.01282 3.33301 8.8068 3.33301C5.78916 3.33301 3.33398 5.66729 3.33398 8.53639C3.33398 8.73241 3.50071 8.89094 3.70672 8.89094C3.91274 8.89094 4.07946 8.73235 4.07946 8.53639C4.0796 6.05823 6.20023 4.04218 8.8068 4.04218Z" fill="#045284"/>
<path d="M8.80687 5.35754C9.01295 5.35754 9.17961 5.19895 9.17961 5.00299C9.17961 4.80703 9.01288 4.64844 8.80687 4.64844C6.55154 4.64844 4.7168 6.39236 4.7168 8.53621C4.7168 8.73224 4.88352 8.89076 5.08954 8.89076C5.29555 8.89076 5.46228 8.73217 5.46228 8.53621C5.46234 6.78357 6.96261 5.35754 8.80687 5.35754Z" fill="#045284"/>
<path d="M9.17947 6.31842C9.1795 6.27185 9.16988 6.22573 9.15117 6.1827C9.13245 6.13967 9.10499 6.10057 9.07037 6.06764C9.03575 6.03471 8.99465 6.00859 8.94941 5.99079C8.90417 5.97298 8.85568 5.96383 8.80673 5.96387C7.31413 5.96387 6.09961 7.11802 6.09961 8.53649C6.09957 8.58306 6.10919 8.62918 6.12791 8.67221C6.14663 8.71524 6.17408 8.75434 6.2087 8.78727C6.24332 8.8202 6.28443 8.84632 6.32967 8.86412C6.3749 8.88193 6.42339 8.89108 6.47235 8.89104C6.52131 8.89108 6.56979 8.88193 6.61503 8.86412C6.66027 8.84632 6.70138 8.8202 6.736 8.78727C6.77061 8.75434 6.79807 8.71524 6.81679 8.67221C6.83551 8.62918 6.84512 8.58306 6.84509 8.53649C6.84509 7.50903 7.72499 6.6731 8.80659 6.6731C8.85556 6.67313 8.90406 6.66397 8.94931 6.64616C8.99457 6.62834 9.03568 6.60222 9.07031 6.56928C9.10494 6.53634 9.13241 6.49723 9.15114 6.45418C9.16987 6.41114 9.17949 6.365 9.17947 6.31842Z" fill="#045284"/>
<path d="M9.17919 7.63429C9.17922 7.58772 9.16961 7.5416 9.15089 7.49857C9.13217 7.45554 9.10471 7.41644 9.07009 7.38351C9.03547 7.35058 8.99437 7.32447 8.94913 7.30666C8.90389 7.28885 8.85541 7.27971 8.80645 7.27974C8.0765 7.27974 7.48242 7.84354 7.48242 8.53676C7.48242 8.73278 7.64915 8.89131 7.85516 8.89131C8.06117 8.89131 8.2279 8.73272 8.2279 8.53676C8.2279 8.23481 8.48743 7.98891 8.80638 7.98891C8.85534 7.98893 8.90383 7.97977 8.94907 7.96195C8.99431 7.94414 9.03541 7.91802 9.07003 7.88508C9.10465 7.85215 9.13212 7.81305 9.15084 7.77002C9.16957 7.72699 9.1792 7.68087 9.17919 7.63429ZM33.3826 8.93252V33.5524H34.4972V7.54953C34.4972 6.95019 33.9828 6.46094 33.3527 6.46094H27.9697L32.007 7.30487C32.801 7.47147 33.3826 8.1559 33.3826 8.93252ZM14.6164 7.54953V33.5523H15.7348V7.87934C15.7348 7.68429 15.9025 7.52479 16.1075 7.52479H18.635V6.46094H15.7608C15.1309 6.46094 14.6164 6.95025 14.6164 7.54953Z" fill="#045284"/>
<path d="M32.6371 33.2557V8.932C32.6371 8.4852 32.3016 8.09516 31.8468 7.99933L19.8356 5.48172C19.55 5.44774 19.3809 5.62605 19.3809 5.82924V36.3106C19.3811 36.3638 19.3938 36.4162 19.4181 36.4641C19.4424 36.512 19.4776 36.5542 19.5211 36.5875C19.5647 36.6208 19.6156 36.6444 19.67 36.6566C19.7244 36.6688 19.781 36.6694 19.8356 36.6581L31.8963 34.1325C32.1063 34.0885 32.2942 33.9776 32.429 33.8181C32.5637 33.6587 32.6371 33.4603 32.6371 33.2557ZM22.0534 21.9027C22.0534 22.0564 21.9892 22.2039 21.8749 22.3126C21.7606 22.4214 21.6055 22.4825 21.4439 22.4825C21.2822 22.4825 21.1272 22.4214 21.0128 22.3126C20.8985 22.2039 20.8343 22.0564 20.8343 21.9027V20.2373C20.8343 20.0835 20.8985 19.936 21.0128 19.8273C21.1272 19.7185 21.2822 19.6574 21.4439 19.6574C21.6055 19.6574 21.7606 19.7185 21.8749 19.8273C21.9892 19.936 22.0534 20.0835 22.0534 20.2373V21.9027Z" fill="#045284"/>
</svg>
