<svg width="18" height="18" viewBox="0 0 18 18" fill="none" xmlns="http://www.w3.org/2000/svg">
<path d="M6.58669 11.2116C7.37869 11.2116 8.09869 11.497 8.60269 12.0044H10.6547V2.61754C10.6547 1.85644 9.97069 1.25391 9.10669 1.25391H4.10269C3.23869 1.25391 2.55469 1.85644 2.55469 2.61754V14.8903C2.55469 15.6514 3.23869 16.2539 4.10269 16.2539H9.10669C9.86269 16.2539 10.4747 15.7782 10.6187 15.1757H8.60269C8.09869 15.6831 7.37869 15.9685 6.58669 15.9685C5.11069 15.9685 3.88669 14.922 3.88669 13.5901C3.92269 12.2898 5.11069 11.2116 6.58669 11.2116ZM5.39869 8.73805C5.39869 8.89661 5.25469 9.02346 5.07469 9.02346H4.24669C4.06669 9.02346 3.92269 8.89661 3.92269 8.73805V8.23065C3.92269 8.07209 4.06669 7.94524 4.24669 7.94524H5.03869C5.21869 7.94524 5.36269 8.07209 5.36269 8.23065V8.73805H5.39869ZM5.39869 6.93044C5.39869 7.089 5.25469 7.21585 5.07469 7.21585H4.24669C4.06669 7.21585 3.92269 7.089 3.92269 6.93044V6.42304C3.92269 6.26448 4.06669 6.13763 4.24669 6.13763H5.03869C5.21869 6.13763 5.36269 6.26448 5.36269 6.42304V6.93044H5.39869ZM7.34269 10.5139C7.34269 10.6725 7.19869 10.7994 7.01869 10.7994H6.19069C6.01069 10.7994 5.86669 10.6725 5.86669 10.5139V10.0065C5.86669 9.84799 6.01069 9.72114 6.19069 9.72114H7.01869C7.19869 9.72114 7.34269 9.84799 7.34269 10.0065V10.5139ZM7.34269 8.73805C7.34269 8.89661 7.19869 9.02346 7.01869 9.02346H6.19069C6.01069 9.02346 5.86669 8.89661 5.86669 8.73805V8.23065C5.86669 8.07209 6.01069 7.94524 6.19069 7.94524H7.01869C7.19869 7.94524 7.34269 8.07209 7.34269 8.23065V8.73805ZM7.34269 6.93044C7.34269 7.089 7.19869 7.21585 7.01869 7.21585H6.19069C6.01069 7.21585 5.86669 7.089 5.86669 6.93044V6.42304C5.86669 6.26448 6.01069 6.13763 6.19069 6.13763H7.01869C7.19869 6.13763 7.34269 6.26448 7.34269 6.42304V6.93044ZM9.28669 10.5139C9.28669 10.6725 9.14269 10.7994 8.96269 10.7994H8.13469C7.95469 10.7994 7.81069 10.6725 7.81069 10.5139V10.0065C7.81069 9.84799 7.95469 9.72114 8.13469 9.72114H8.96269C9.14269 9.72114 9.28669 9.84799 9.28669 10.0065V10.5139ZM9.28669 8.73805C9.28669 8.89661 9.14269 9.02346 8.96269 9.02346H8.13469C7.95469 9.02346 7.81069 8.89661 7.81069 8.73805V8.23065C7.81069 8.07209 7.95469 7.94524 8.13469 7.94524H8.96269C9.14269 7.94524 9.28669 8.07209 9.28669 8.23065V8.73805ZM9.28669 6.93044C9.28669 7.089 9.14269 7.21585 8.96269 7.21585H8.13469C7.95469 7.21585 7.81069 7.089 7.81069 6.93044V6.42304C7.81069 6.26448 7.95469 6.13763 8.13469 6.13763H8.96269C9.14269 6.13763 9.28669 6.26448 9.28669 6.42304V6.93044ZM3.20269 4.99598V3.25179C3.20269 3.09323 3.34669 2.96638 3.52669 2.96638H9.68269C9.86269 2.96638 10.0067 3.09323 10.0067 3.25179V4.99598C10.0067 5.15454 9.86269 5.28139 9.68269 5.28139H3.49069C3.31069 5.28139 3.20269 5.15454 3.20269 4.99598ZM3.88669 10.5139V10.0065C3.88669 9.84799 4.03069 9.72114 4.21069 9.72114H5.03869C5.21869 9.72114 5.36269 9.84799 5.36269 10.0065V10.5139C5.36269 10.6725 5.21869 10.7994 5.03869 10.7994H4.21069C4.03069 10.8311 3.88669 10.7042 3.88669 10.5139Z" fill="white"/>
<path d="M15.4441 13.5899C15.4441 14.0973 14.9761 14.5412 14.3641 14.5412H8.24409C7.88409 15.0169 7.27209 15.334 6.58809 15.334C5.50809 15.334 4.60809 14.5729 4.60809 13.5899C4.60809 12.6385 5.47209 11.8774 6.58809 11.8774C7.27209 11.8774 7.88409 12.1945 8.24409 12.6702H14.4001C14.9761 12.6385 15.4441 13.0507 15.4441 13.5899ZM4.50009 4.61523C4.46409 4.58352 4.46409 4.55181 4.46409 4.55181C4.46409 4.55181 4.50009 4.39324 4.53609 4.13954C4.32009 4.29811 4.17609 4.39324 4.17609 4.39324H4.10409C4.06809 4.39324 4.03209 4.36153 3.99609 4.32982V4.26639C3.99609 4.23468 4.03209 4.20297 4.06809 4.17126L4.50009 4.01269L4.06809 3.85413C4.03209 3.82242 3.99609 3.79071 3.99609 3.75899V3.69557C4.03209 3.69557 4.06809 3.66386 4.14009 3.66386H4.21209C4.21209 3.66386 4.35609 3.75899 4.57209 3.91756C4.53609 3.66386 4.50009 3.53701 4.50009 3.50529C4.50009 3.47358 4.50009 3.44187 4.53609 3.44187C4.57209 3.41016 4.60809 3.41016 4.64409 3.41016C4.68009 3.41016 4.71609 3.41016 4.75209 3.44187C4.78809 3.47358 4.78809 3.50529 4.78809 3.50529C4.78809 3.50529 4.75209 3.66386 4.71609 3.91756C4.93209 3.75899 5.07609 3.66386 5.07609 3.66386H5.14809C5.18409 3.66386 5.22009 3.69557 5.25609 3.72728V3.79071C5.25609 3.82242 5.22009 3.85413 5.18409 3.88584L4.75209 4.04441L5.18409 4.20297C5.22009 4.23468 5.25609 4.26639 5.25609 4.29811V4.36153C5.22009 4.39324 5.18409 4.42496 5.14809 4.42496H5.07609C5.07609 4.42496 4.93209 4.32982 4.71609 4.17126C4.75209 4.42496 4.78809 4.55181 4.78809 4.58352C4.78809 4.61523 4.78809 4.64694 4.75209 4.64694C4.71609 4.67866 4.68009 4.67866 4.64409 4.67866C4.57209 4.64694 4.53609 4.64694 4.50009 4.61523ZM6.48009 4.61523C6.44409 4.58352 6.44409 4.55181 6.44409 4.55181C6.44409 4.55181 6.48009 4.39324 6.51609 4.13954C6.30009 4.29811 6.15609 4.39324 6.15609 4.39324H6.08409C6.04809 4.39324 6.01209 4.36153 5.97609 4.32982V4.26639C5.97609 4.23468 6.01209 4.20297 6.04809 4.17126L6.48009 4.01269L6.04809 3.85413C6.01209 3.82242 5.97609 3.79071 5.97609 3.75899V3.69557C6.01209 3.69557 6.04809 3.66386 6.08409 3.66386H6.15609C6.15609 3.66386 6.30009 3.75899 6.51609 3.91756C6.48009 3.66386 6.44409 3.53701 6.44409 3.50529C6.44409 3.47358 6.44409 3.44187 6.48009 3.44187C6.51609 3.41016 6.55209 3.41016 6.58809 3.41016C6.62409 3.41016 6.66009 3.41016 6.69609 3.44187C6.73209 3.47358 6.73209 3.50529 6.73209 3.50529C6.73209 3.50529 6.69609 3.66386 6.66009 3.91756C6.87609 3.75899 7.02009 3.66386 7.02009 3.66386H7.09209C7.12809 3.66386 7.16409 3.69557 7.20009 3.72728V3.79071C7.20009 3.82242 7.16409 3.85413 7.12809 3.88584L6.69609 4.04441L7.12809 4.20297C7.16409 4.23468 7.20009 4.26639 7.20009 4.29811V4.36153C7.16409 4.39324 7.12809 4.42496 7.09209 4.42496H7.02009C7.02009 4.42496 6.87609 4.32982 6.66009 4.17126C6.69609 4.42496 6.73209 4.55181 6.73209 4.58352C6.73209 4.61523 6.73209 4.64694 6.69609 4.64694C6.66009 4.67866 6.62409 4.67866 6.58809 4.67866C6.51609 4.64694 6.51609 4.64694 6.48009 4.61523ZM8.42409 4.61523C8.38809 4.58352 8.38809 4.55181 8.38809 4.55181C8.38809 4.55181 8.42409 4.39324 8.46009 4.13954C8.24409 4.29811 8.10009 4.39324 8.10009 4.39324H8.02809C7.99209 4.39324 7.95609 4.36153 7.92009 4.32982V4.26639C7.92009 4.23468 7.95609 4.20297 7.99209 4.17126L8.42409 4.01269L7.99209 3.85413C7.92009 3.88584 7.92009 3.85413 7.92009 3.79071V3.72728C7.95609 3.69557 7.99209 3.66386 8.02809 3.66386H8.10009C8.10009 3.66386 8.24409 3.75899 8.46009 3.91756C8.42409 3.66386 8.38809 3.53701 8.38809 3.50529C8.38809 3.47358 8.38809 3.44187 8.42409 3.44187C8.46009 3.41016 8.49609 3.41016 8.53209 3.41016C8.56809 3.41016 8.60409 3.41016 8.64009 3.44187V3.53701C8.64009 3.53701 8.60409 3.69557 8.56809 3.94927C8.78409 3.79071 8.92809 3.69557 8.92809 3.69557H9.00009C9.03609 3.69557 9.07209 3.72728 9.10809 3.75899V3.82242C9.10809 3.85413 9.07209 3.88584 9.03609 3.91756L8.64009 4.04441L9.07209 4.20297C9.10809 4.23468 9.14409 4.26639 9.14409 4.29811V4.36153C9.10809 4.39324 9.07209 4.42496 9.03609 4.42496H8.96409C8.96409 4.42496 8.82009 4.32982 8.60409 4.17126C8.64009 4.42496 8.67609 4.55181 8.67609 4.58352C8.67609 4.61523 8.67609 4.64694 8.64009 4.64694C8.60409 4.67866 8.56809 4.67866 8.53209 4.67866C8.49609 4.64694 8.46009 4.64694 8.42409 4.61523Z" fill="white"/>
</svg>
