<svg width="14" height="12" viewBox="0 0 14 12" fill="none" xmlns="http://www.w3.org/2000/svg">
<path fill-rule="evenodd" clip-rule="evenodd" d="M13.4976 1.35491C13.2694 0.945489 12.8316 0.666992 12.332 0.666992H1.66536C1.16574 0.666992 0.728013 0.945495 0.49975 1.35492C0.548681 1.36763 0.596698 1.38609 0.642824 1.41047L0.714311 1.45417L6.99867 5.85299L13.283 1.45417C13.3501 1.40723 13.4228 1.37434 13.4976 1.35491ZM13.6654 2.81407L7.38098 7.21315C7.17694 7.35598 6.91286 7.37185 6.69548 7.26076L6.61636 7.21315L0.332031 2.81412V10.0003C0.332031 10.7337 0.932031 11.3337 1.66536 11.3337H12.332C13.0654 11.3337 13.6654 10.7337 13.6654 10.0003V2.81407Z" fill="#1E1F20"/>
</svg>
