<svg width="14" height="22" viewBox="0 0 14 22" fill="none" xmlns="http://www.w3.org/2000/svg">
<path d="M11.3054 8.99922H2.16237C1.15712 8.99922 0.333984 9.77974 0.333984 10.7326V19.3992C0.333984 20.3524 1.15712 21.1327 2.16237 21.1327H11.3054C12.3107 21.1327 13.1338 20.3524 13.1338 19.3992V10.7326C13.1338 9.77974 12.3107 8.99922 11.3054 8.99922ZM3.99103 12.4661H5.81969V14.1992H3.99103V12.4661ZM7.64808 17.6661H5.81969V15.9327H7.64808V17.6661ZM9.47674 14.1992H7.64808V12.4661H9.47674V14.1992ZM6.73389 7.68725L8.34093 6.16391C7.49997 5.3683 5.96781 5.36674 5.12657 6.16391L6.73389 7.68725ZM3.18738 4.32544C4.13476 3.42662 5.39455 2.93262 6.73389 2.93262C8.07322 2.93262 9.33302 3.42662 10.2804 4.32544L9.3108 5.24454C7.93389 3.93934 5.53389 3.93934 4.15725 5.24454L3.18738 4.32544Z" fill="#045284"/>
<path d="M12.2195 2.48679C9.19081 -0.384919 4.27671 -0.384919 1.24805 2.48679L2.21765 3.40615C3.42395 2.26241 5.02743 1.63269 6.73376 1.63269C8.44009 1.63269 10.0436 2.26241 11.2499 3.40615L12.2195 2.48679Z" fill="#045284"/>
</svg>
