<svg width="40" height="40" viewBox="0 0 40 40" fill="none" xmlns="http://www.w3.org/2000/svg">
<path d="M25.3803 17.4993H13.9515C12.6949 17.4993 11.666 18.4749 11.666 19.666V30.4993C11.666 31.6908 12.6949 32.6661 13.9515 32.6661H25.3803C26.6369 32.6661 27.6658 31.6908 27.6658 30.4993V19.666C27.6658 18.4749 26.6369 17.4993 25.3803 17.4993ZM16.2373 21.8328H18.5232V23.9993H16.2373V21.8328ZM20.8086 28.3328H18.5232V26.1661H20.8086V28.3328ZM23.0945 23.9993H20.8086V21.8328H23.0945V23.9993ZM19.6659 15.8593L21.6747 13.9551C20.6235 12.9606 18.7083 12.9587 17.6568 13.9551L19.6659 15.8593ZM15.2328 11.657C16.417 10.5335 17.9917 9.91602 19.6659 9.91602C21.3401 9.91602 22.9148 10.5335 24.099 11.657L22.887 12.8059C21.1659 11.1744 18.1659 11.1744 16.4451 12.8059L15.2328 11.657Z" fill="#045284"/>
<path d="M26.5229 9.35922C22.737 5.76958 16.5944 5.76958 12.8086 9.35922L14.0206 10.5084C15.5285 9.07874 17.5328 8.29159 19.6657 8.29159C21.7986 8.29159 23.803 9.07874 25.3109 10.5084L26.5229 9.35922Z" fill="#045284"/>
</svg>
