<svg width="20" height="20" viewBox="0 0 20 20" fill="none" xmlns="http://www.w3.org/2000/svg">
<path d="M13.5714 13.2143H13.9286C14.1429 13.2143 14.2857 13.3571 14.2857 13.5714V19.6429C14.2857 19.8571 14.1429 20 13.9286 20H13.5714C13.3571 20 13.2143 19.8571 13.2143 19.6429V13.5714C13.2143 13.3571 13.3571 13.2143 13.5714 13.2143ZM11.7857 14.6429V18.9286C11.7857 19.1429 11.9286 19.2857 12.1429 19.2857H12.5V14.2857H12.1429C11.9286 14.2857 11.7857 14.4286 11.7857 14.6429ZM19.6429 14.2857H15V19.2857H19.6429C19.8571 19.2857 20 19.1429 20 18.9286V14.6429C20 14.4286 19.8571 14.2857 19.6429 14.2857ZM16.4286 18.5714H15.7143V17.8571H16.4286V18.5714ZM16.4286 17.1429H15.7143V16.4286H16.4286V17.1429ZM16.4286 15.7143H15.7143V15H16.4286V15.7143ZM17.8571 18.5714H17.1429V17.8571H17.8571V18.5714ZM17.8571 17.1429H17.1429V16.4286H17.8571V17.1429ZM17.8571 15.7143H17.1429V15H17.8571V15.7143ZM19.2857 18.5714H18.5714V17.8571H19.2857V18.5714ZM19.2857 17.1429H18.5714V16.4286H19.2857V17.1429ZM19.2857 15.7143H18.5714V15H19.2857V15.7143ZM19.6429 0.357143C19.6429 0.142857 19.5 0 19.2857 0H7.85714C7.64286 0 7.5 0.142857 7.5 0.357143V0.714286H18.9286V1.42857H7.5V7.14286H19.6429V0.357143ZM1.07143 20H8.21429V16.4286H1.07143V20ZM1.78571 17.1429H7.5V17.8571H1.78571V17.1429ZM1.78571 18.5714H7.5V19.2857H1.78571V18.5714ZM0 15.3571C0 15.5714 0.142857 15.7143 0.357143 15.7143H8.92857C9.14286 15.7143 9.28571 15.5714 9.28571 15.3571V12.1429H0V15.3571ZM2.14286 14.2857H2.85714V15H2.14286V14.2857ZM0.714286 14.2857H1.42857V15H0.714286V14.2857ZM7.85714 8.57143H19.2857C19.5 8.57143 19.6429 8.42857 19.6429 8.21429V7.85714H7.5V8.21429C7.5 8.42857 7.64286 8.57143 7.85714 8.57143ZM8.21429 9.28571H7.85714C7.39295 9.28571 7 9.00009 6.85723 8.57143H1.07143V11.4286H8.21429V9.28571ZM5 0.357143C5 0.142857 4.85714 0 4.64286 0H1.42857C1.21429 0 1.07143 0.142857 1.07143 0.357143V0.714286H5V0.357143ZM1.42857 6.42857H4.64286C4.85714 6.42857 5 6.28571 5 6.07143V5.71429H1.07143V6.07143C1.07143 6.28571 1.21429 6.42857 1.42857 6.42857ZM1.07143 1.42857H5V5H1.07143V1.42857ZM16.7857 11.0714H14.9285L14.6786 9.28571H12.4642L12.2144 11.0714H10.3571V11.7857H16.7857V11.0714Z" fill="#045284"/>
</svg>
