<svg width="40" height="40" viewBox="0 0 40 40" fill="none" xmlns="http://www.w3.org/2000/svg">
<path d="M25.953 25.3568H26.5483C26.9054 25.3568 27.1435 25.5949 27.1435 25.9521V36.0711C27.1435 36.4282 26.9054 36.6663 26.5483 36.6663H25.953C25.5959 36.6663 25.3578 36.4282 25.3578 36.0711V25.9521C25.3578 25.5949 25.5959 25.3568 25.953 25.3568ZM22.9768 27.7378V34.8806C22.9768 35.2378 23.2149 35.4759 23.5721 35.4759H24.1673V27.1425H23.5721C23.2149 27.1425 22.9768 27.3806 22.9768 27.7378ZM36.0721 27.1425H28.334V35.4759H36.0721C36.4292 35.4759 36.6673 35.2378 36.6673 34.8806V27.7378C36.6673 27.3806 36.4292 27.1425 36.0721 27.1425ZM30.7149 34.2854H29.5245V33.0949H30.7149V34.2854ZM30.7149 31.9044H29.5245V30.714H30.7149V31.9044ZM30.7149 29.5235H29.5245V28.333H30.7149V29.5235ZM33.0959 34.2854H31.9054V33.0949H33.0959V34.2854ZM33.0959 31.9044H31.9054V30.714H33.0959V31.9044ZM33.0959 29.5235H31.9054V28.333H33.0959V29.5235ZM35.4768 34.2854H34.2864V33.0949H35.4768V34.2854ZM35.4768 31.9044H34.2864V30.714H35.4768V31.9044ZM35.4768 29.5235H34.2864V28.333H35.4768V29.5235ZM36.0721 3.92825C36.0721 3.5711 35.834 3.33301 35.4768 3.33301H16.4292C16.0721 3.33301 15.834 3.5711 15.834 3.92825V4.52348H34.8816V5.71396H15.834V15.2378H36.0721V3.92825ZM5.1197 36.6663H17.0245V30.714H5.1197V36.6663ZM6.31018 31.9044H15.834V33.0949H6.31018V31.9044ZM6.31018 34.2854H15.834V35.4759H6.31018V34.2854ZM3.33398 28.9282C3.33398 29.2854 3.57208 29.5235 3.92922 29.5235H18.2149C18.5721 29.5235 18.8102 29.2854 18.8102 28.9282V23.5711H3.33398V28.9282ZM6.90541 27.1425H8.09589V28.333H6.90541V27.1425ZM4.52446 27.1425H5.71494V28.333H4.52446V27.1425ZM16.4292 17.6187H35.4768C35.834 17.6187 36.0721 17.3806 36.0721 17.0235V16.4282H15.834V17.0235C15.834 17.3806 16.0721 17.6187 16.4292 17.6187ZM17.0245 18.8092H16.4292C15.6556 18.8092 15.0007 18.3332 14.7627 17.6187H5.1197V22.3806H17.0245V18.8092ZM11.6673 3.92825C11.6673 3.5711 11.4292 3.33301 11.0721 3.33301H5.71494C5.35779 3.33301 5.1197 3.5711 5.1197 3.92825V4.52348H11.6673V3.92825ZM5.71494 14.0473H11.0721C11.4292 14.0473 11.6673 13.8092 11.6673 13.4521V12.8568H5.1197V13.4521C5.1197 13.8092 5.35779 14.0473 5.71494 14.0473ZM5.1197 5.71396H11.6673V11.6663H5.1197V5.71396ZM31.3102 21.7854H28.2148L27.7983 18.8092H24.1077L23.6913 21.7854H20.5959V22.9759H31.3102V21.7854Z" fill="#045284"/>
</svg>
