<svg width="18" height="18" viewBox="0 0 18 18" fill="none" xmlns="http://www.w3.org/2000/svg">
<path d="M12.3739 4.97633L13.2425 4.7701C13.4706 4.71386 13.6549 4.54825 13.7393 4.32953C13.8237 4.11393 13.7955 3.87646 13.6674 3.68585C12.6301 2.18603 10.2836 1.00179 8.30262 1.71108C7.73708 1.91106 7.2809 2.386 7.08093 2.98281C6.65912 4.24516 6.83409 5.77936 7.56211 7.35418C7.93337 7.02838 8.4044 6.83853 8.89781 6.81582C9.39123 6.79311 9.8777 6.93888 10.2773 7.2292C10.4835 6.75113 10.746 6.26681 11.0116 5.88873C11.3303 5.43565 11.8146 5.11069 12.3739 4.97633ZM4.4407 11.1444C5.35619 11.1444 6.34667 10.9038 7.35277 10.4382C7.02698 10.0669 6.83713 9.59588 6.81442 9.10245C6.79171 8.60901 6.93748 8.12253 7.22778 7.72289C6.74973 7.51666 6.26855 7.25419 5.89048 6.9886C5.43743 6.66988 5.11248 6.18557 4.97812 5.62626L4.76878 4.75761C4.71254 4.52951 4.55006 4.34515 4.32822 4.26079C4.11575 4.17955 3.87516 4.20454 3.68457 4.33265C2.18479 5.37004 1.00372 7.71664 1.70986 9.69766C1.90983 10.2632 2.38789 10.7194 2.98467 10.9194C3.43773 11.0694 3.92828 11.1444 4.4407 11.1444ZM8.99939 11.1881C8.52134 11.1881 8.08078 11.0319 7.72146 10.7725C7.51524 11.2475 7.25278 11.7318 6.9872 12.1099C6.66849 12.563 6.18419 12.8879 5.6249 13.0254L4.75628 13.2316C4.53131 13.2879 4.34384 13.4504 4.25948 13.6722C4.17824 13.8847 4.20636 14.1253 4.33447 14.3159C5.15934 15.5095 6.81222 16.5 8.44948 16.5C8.87129 16.5 9.2931 16.4344 9.69929 16.2906C10.2617 16.0907 10.7179 15.6126 10.9179 15.0158C11.3397 13.7566 11.1678 12.2224 10.4398 10.6444C10.0414 10.9942 9.52955 11.1875 8.99939 11.1881ZM15.0172 7.08234C13.7549 6.65739 12.2208 6.83237 10.6429 7.56353C10.9931 7.96044 11.1864 8.47153 11.1866 9.00087C11.1866 9.47894 11.0303 9.91638 10.771 10.2788C11.2491 10.4851 11.7334 10.7475 12.1114 11.0131C12.5645 11.3318 12.8894 11.8162 13.0238 12.3755L13.23 13.2441C13.2863 13.4691 13.4519 13.6566 13.6706 13.7409C13.7518 13.7722 13.8362 13.7878 13.9237 13.7878C14.0611 13.7878 14.1986 13.7472 14.3142 13.666C15.814 12.6317 16.9982 10.2851 16.2889 8.30095C16.089 7.73851 15.614 7.28231 15.0172 7.08234Z" fill="white"/>
<path d="M8.99977 10.5631C9.86258 10.5631 10.562 9.86364 10.562 9.0008C10.562 8.13795 9.86258 7.43848 8.99977 7.43848C8.13695 7.43848 7.4375 8.13795 7.4375 9.0008C7.4375 9.86364 8.13695 10.5631 8.99977 10.5631Z" fill="white"/>
</svg>
