<svg width="30" height="30" viewBox="0 0 30 30" fill="none" xmlns="http://www.w3.org/2000/svg">
<path d="M21.7478 6.95266L23.485 6.54021C23.9412 6.42772 24.3099 6.09651 24.4786 5.65906C24.6473 5.22786 24.5911 4.75291 24.3349 4.37171C22.2602 1.37206 17.5672 -0.996421 13.6052 0.422165C12.4742 0.822119 11.5618 1.77201 11.1619 2.96562C10.3182 5.49033 10.6682 8.55873 12.1242 11.7084C12.8667 11.0568 13.8088 10.6771 14.7956 10.6316C15.7825 10.5862 16.7554 10.8778 17.5547 11.4584C17.9671 10.5023 18.492 9.53361 19.0232 8.77745C19.6606 7.87131 20.6292 7.22138 21.7478 6.95266ZM5.8814 19.2887C7.71238 19.2887 9.69333 18.8075 11.7055 17.8764C11.054 17.1338 10.6743 16.1918 10.6288 15.2049C10.5834 14.218 10.875 13.2451 11.4556 12.4458C10.4995 12.0333 9.53711 11.5084 8.78097 10.9772C7.87486 10.3398 7.22495 9.37113 6.95624 8.25251L6.53756 6.51521C6.42507 6.05901 6.10012 5.69031 5.65644 5.52158C5.2315 5.3591 4.75032 5.40909 4.36913 5.66531C1.36958 7.74007 -0.992564 12.4333 0.419724 16.3953C0.819664 17.5264 1.77577 18.4388 2.96934 18.8388C3.87546 19.1388 4.85656 19.2887 5.8814 19.2887ZM14.9988 19.3762C14.0427 19.3762 13.1616 19.0638 12.4429 18.5451C12.0305 19.495 11.5056 20.4636 10.9744 21.2198C10.337 22.1259 9.36838 22.7758 8.2498 23.0508L6.51256 23.4633C6.06263 23.5757 5.68768 23.9007 5.51896 24.3444C5.35648 24.7694 5.41272 25.2505 5.66894 25.6318C7.31869 28.019 10.6244 30 13.899 30C14.7426 30 15.5862 29.8688 16.3986 29.5813C17.5234 29.1813 18.4358 28.2252 18.8357 27.0316C19.6793 24.5131 19.3356 21.4447 17.8796 18.2889C17.0829 18.9885 16.0591 19.3749 14.9988 19.3762ZM27.0345 11.1647C24.5099 10.3148 21.4416 10.6647 18.2858 12.1271C18.9862 12.9209 19.3729 13.9431 19.3731 15.0017C19.3731 15.9579 19.0607 16.8328 18.542 17.5577C19.4981 17.9701 20.4667 18.4951 21.2229 19.0263C22.129 19.6637 22.7789 20.6323 23.0476 21.751L23.46 23.4883C23.5725 23.9382 23.9037 24.3132 24.3411 24.4819C24.5036 24.5444 24.6723 24.5756 24.8473 24.5756C25.1223 24.5756 25.3972 24.4944 25.6284 24.3319C28.628 22.2634 30.9964 17.5702 29.5779 13.6019C29.1779 12.477 28.2281 11.5646 27.0345 11.1647Z" fill="#045284"/>
</svg>
