<svg width="16" height="13" viewBox="0 0 16 13" fill="none" xmlns="http://www.w3.org/2000/svg">
<path d="M3.424 5.328C2.912 5.328 2.464 5.22667 2.08 5.024C1.70667 4.81067 1.41333 4.52267 1.2 4.16C0.986667 3.78667 0.88 3.36 0.88 2.88C0.88 2.38933 0.981333 1.96267 1.184 1.6C1.39733 1.22667 1.69067 0.938666 2.064 0.735999C2.448 0.522666 2.90133 0.415999 3.424 0.415999C3.92533 0.415999 4.368 0.522666 4.752 0.735999C5.136 0.938666 5.43467 1.22667 5.648 1.6C5.86133 1.96267 5.968 2.38933 5.968 2.88C5.968 3.36 5.86133 3.78667 5.648 4.16C5.43467 4.52267 5.136 4.81067 4.752 5.024C4.368 5.22667 3.92533 5.328 3.424 5.328ZM3.44 4.384C3.952 4.384 4.32533 4.24533 4.56 3.968C4.80533 3.69067 4.928 3.328 4.928 2.88C4.928 2.57067 4.86933 2.304 4.752 2.08C4.64533 1.84533 4.48 1.664 4.256 1.536C4.04267 1.408 3.77067 1.344 3.44 1.344C2.91733 1.344 2.53333 1.48267 2.288 1.76C2.04267 2.03733 1.92 2.41067 1.92 2.88C1.92 3.328 2.04267 3.69067 2.288 3.968C2.53333 4.24533 2.91733 4.384 3.44 4.384ZM12.368 1.68C11.76 1.68 11.2107 1.78667 10.72 2C10.2293 2.20267 9.81333 2.50667 9.472 2.912C9.13067 3.30667 8.86933 3.792 8.688 4.368C8.50667 4.93333 8.416 5.57333 8.416 6.288C8.416 7.22667 8.56 8.04267 8.848 8.736C9.14667 9.42933 9.584 9.96267 10.16 10.336C10.7467 10.7093 11.4773 10.896 12.352 10.896C12.8533 10.896 13.328 10.8533 13.776 10.768C14.224 10.6827 14.6613 10.576 15.088 10.448V11.696C14.6613 11.856 14.2187 11.9733 13.76 12.048C13.312 12.1227 12.7733 12.16 12.144 12.16C10.9813 12.16 10.0107 11.92 9.232 11.44C8.45333 10.96 7.86667 10.2773 7.472 9.392C7.088 8.50667 6.896 7.46667 6.896 6.272C6.896 5.408 7.01333 4.61867 7.248 3.904C7.49333 3.18933 7.84533 2.57067 8.304 2.048C8.77333 1.52533 9.34933 1.12533 10.032 0.848C10.7147 0.559999 11.4987 0.415999 12.384 0.415999C12.9707 0.415999 13.536 0.474666 14.08 0.591999C14.624 0.709333 15.1093 0.874666 15.536 1.088L14.96 2.304C14.608 2.144 14.2133 2 13.776 1.872C13.3493 1.744 12.88 1.68 12.368 1.68Z" fill="black" fill-opacity="0.5"/>
</svg>
