<svg width="40" height="40" viewBox="0 0 40 40" fill="none" xmlns="http://www.w3.org/2000/svg">
<path d="M9.51036 7.15535C9.19603 6.85176 8.77502 6.68377 8.33803 6.68756C7.90103 6.69136 7.48301 6.86664 7.174 7.17566C6.86499 7.48467 6.6897 7.90269 6.68591 8.33968C6.68211 8.77668 6.8501 9.19768 7.1537 9.51202L30.487 32.8454C30.8014 33.149 31.2224 33.3169 31.6594 33.3131C32.0964 33.3093 32.5144 33.1341 32.8234 32.8251C33.1324 32.516 33.3077 32.098 33.3115 31.661C33.3153 31.224 33.1473 30.803 32.8437 30.4887L32.837 30.4804C35.9487 27.497 36.6654 23.2304 36.6654 20.0004C36.6681 17.8113 36.2382 15.6432 35.4004 13.6208C34.5627 11.5983 33.3336 9.76133 31.7837 8.21535C31.6299 8.05617 31.446 7.9292 31.2427 7.84185C31.0394 7.7545 30.8207 7.70853 30.5994 7.7066C30.3781 7.70468 30.1586 7.74685 29.9538 7.83065C29.7489 7.91445 29.5629 8.03821 29.4064 8.19469C29.2499 8.35118 29.1261 8.53727 29.0423 8.7421C28.9585 8.94692 28.9164 9.16639 28.9183 9.38769C28.9202 9.60899 28.9662 9.82769 29.0535 10.031C29.1409 10.2344 29.2678 10.4183 29.427 10.572C30.6673 11.8085 31.6509 13.2781 32.3211 14.8962C32.9912 16.5143 33.3348 18.249 33.332 20.0004C33.332 22.9204 32.6604 26.0604 30.4787 28.122L28.0904 25.7337C29.3587 23.9504 29.9987 21.8454 29.9987 20.0004C29.9987 17.2037 28.8487 14.672 26.9987 12.8587C26.8432 12.7018 26.6581 12.5774 26.4541 12.4927C26.2501 12.4081 26.0313 12.3648 25.8104 12.3654C25.5896 12.366 25.371 12.4105 25.1675 12.4963C24.964 12.5821 24.7795 12.7075 24.6249 12.8652C24.4703 13.023 24.3485 13.2098 24.2668 13.415C24.185 13.6202 24.1448 13.8396 24.1486 14.0604C24.1524 14.2813 24.2 14.4992 24.2887 14.7014C24.3774 14.9037 24.5055 15.0863 24.6654 15.2387C25.2987 15.8595 25.8018 16.6004 26.1452 17.418C26.4886 18.2356 26.6655 19.1135 26.6654 20.0004C26.6654 21.0104 26.3404 22.2254 25.682 23.327L21.6654 19.3104V10.2254C21.6654 7.39869 18.3687 5.85535 16.1987 7.66535L12.8287 10.4737L9.51203 7.15535H9.51036ZM6.66536 13.3337H7.64203L21.6654 27.357V29.7754C21.6654 32.602 18.3687 34.1454 16.1987 32.3354L9.39536 26.667H6.66536C5.78131 26.667 4.93346 26.3158 4.30834 25.6907C3.68322 25.0656 3.33203 24.2177 3.33203 23.3337V16.667C3.33203 15.783 3.68322 14.9351 4.30834 14.31C4.93346 13.6849 5.78131 13.3337 6.66536 13.3337Z" fill="#045284"/>
</svg>
