<svg width="20" height="20" viewBox="0 0 20 20" fill="none" xmlns="http://www.w3.org/2000/svg">
<g clip-path="url(#clip0_2381_7567)">
<path d="M13.0864 14.2705C13.7191 13.7897 14.2532 13.2224 14.6247 12.5133C14.6482 12.4687 14.669 12.4229 14.7101 12.3383C13.1205 12.3383 11.5602 12.3383 10 12.3383C10 10.78 10 9.22216 10 7.66388C10.065 7.66153 10.13 7.65762 10.195 7.65762C13.1882 7.65723 16.1818 7.65723 19.1754 7.65723C19.5822 7.65723 19.7827 7.83067 19.845 8.23316C19.8959 8.56205 19.9483 8.89093 20.0004 9.21981C20.0004 9.75346 20.0004 10.2875 20.0004 10.8212C19.9632 10.8364 19.964 10.8697 19.9616 10.9018C19.8935 11.7514 19.704 12.5756 19.4072 13.3727C18.7831 15.0481 17.7937 16.4693 16.4179 17.6165C16.3698 17.564 16.3239 17.5092 16.2734 17.4587C15.2108 16.3957 14.1486 15.3331 13.0864 14.2705Z" fill="#2B76E5"/>
<path d="M4.94638 11.5518C5.23572 12.4002 5.67893 13.1535 6.33004 13.776C7.32413 14.7263 8.50811 15.2274 9.88393 15.2728C9.92269 15.274 9.96146 15.2779 10.0002 15.2807C10.0002 16.8538 10.0002 18.4274 10.0002 20.0005C9.72693 20.0005 9.45325 20.0005 9.17997 20.0005C8.98381 19.9066 8.76691 19.9265 8.56057 19.8936C5.86295 19.4626 3.7025 18.138 2.04047 15.9835C1.81455 15.6906 1.6 15.3879 1.43164 15.0559C1.50133 14.9878 1.57142 14.9205 1.64032 14.8519C2.74247 13.7518 3.84462 12.6519 4.94638 11.5518Z" fill="#00C55F"/>
<path d="M10 20.0005C10 18.4274 10 16.8538 10 15.2806C11.128 15.2466 12.164 14.9318 13.0864 14.2705C14.1486 15.3331 15.2108 16.3961 16.2723 17.4591C16.3224 17.5096 16.3686 17.564 16.4167 17.6169C16.2445 17.7852 16.0495 17.9254 15.8557 18.066C14.5452 19.0143 13.0989 19.636 11.496 19.8889C11.258 19.9265 11.0117 19.9155 10.7815 20.0009C10.5207 20.0005 10.2604 20.0005 10 20.0005Z" fill="#00A967"/>
<path d="M1.43555 4.93457C2.08313 3.8101 2.93549 2.86417 3.96051 2.07446C5.45183 0.925331 7.13697 0.25073 9.00886 0.051051C9.33774 0.0158135 9.66897 -0.0151171 10.0014 0.00798296C10.0014 1.57918 10.0014 3.15038 10.0014 4.72158C8.71326 4.74703 7.56726 5.15774 6.58296 5.99561C5.84845 6.62049 5.32459 7.39258 5.00314 8.30171C4.98357 8.35652 4.96164 8.41055 4.9405 8.46497C4.88412 8.40233 4.83087 8.33655 4.77136 8.27704C3.65981 7.16236 2.54748 6.04847 1.43555 4.93457Z" fill="#FE5501"/>
<path d="M1.4355 4.93457C2.54744 6.04847 3.65938 7.16236 4.77093 8.27704C4.83044 8.33655 4.88369 8.40233 4.94007 8.46497C4.83279 8.91249 4.74313 9.36196 4.72786 9.82436C4.70828 10.4124 4.79912 10.9856 4.94633 11.5522C3.84457 12.6524 2.74242 13.7525 1.64027 14.8523C1.57136 14.9213 1.50128 14.9882 1.43159 15.0563C0.886975 14.1836 0.507193 13.2416 0.271885 12.2432C-0.334199 9.67049 0.0863011 7.25476 1.40066 4.9796C1.41006 4.96315 1.42376 4.94945 1.4355 4.93457Z" fill="#FED701"/>
<path d="M10.001 4.72122C10.001 3.15002 10.001 1.57882 10.001 0.00762491C11.5154 -0.012343 12.9421 0.347471 14.3011 1.00054C15.0364 1.3537 15.7122 1.79925 16.3433 2.3145C16.6667 2.57839 16.6969 2.96796 16.4013 3.26474C15.5885 4.08147 14.7717 4.89389 13.9531 5.70474C13.7025 5.95297 13.4264 5.97724 13.1442 5.7713C12.4116 5.23608 11.5988 4.90172 10.7014 4.77839C10.4692 4.74667 10.2343 4.73962 10.001 4.72122Z" fill="#FE0E01"/>
<path d="M10.0004 7.66406C10.0004 9.22234 10.0004 10.7802 10.0004 12.3385C9.65544 12.3232 9.41778 12.1001 9.41661 11.7645C9.41191 10.5888 9.41191 9.41301 9.41661 8.23765C9.41778 7.9025 9.65662 7.67855 10.0004 7.66406Z" fill="#1688FB"/>
</g>
<defs>
<clipPath id="clip0_2381_7567">
<rect width="20" height="20.0008" fill="white"/>
</clipPath>
</defs>
</svg>
