<svg width="24" height="24" viewBox="0 0 24 24" fill="none" xmlns="http://www.w3.org/2000/svg">
<g clip-path="url(#clip0_3219_2496)">
<path d="M12 20.25C11.9218 20.2501 11.8456 20.2255 11.7821 20.1799C9.09975 18.2625 5.61563 18 2.25 18C2.15054 18 2.05516 17.9605 1.98484 17.8902C1.91451 17.8198 1.875 17.7245 1.875 17.625V1.125C1.875 1.02554 1.91451 0.930161 1.98484 0.859835C2.05516 0.789509 2.15054 0.75 2.25 0.75C5.652 0.75 9.18038 1.017 12 2.91862C14.8196 1.017 18.348 0.75 21.75 0.75C21.8495 0.75 21.9448 0.789509 22.0152 0.859835C22.0855 0.930161 22.125 1.02554 22.125 1.125V13.5H21.375V1.5C18.1271 1.521 14.8009 1.83413 12.2179 3.67875C12.1543 3.72414 12.0781 3.74854 12 3.74854C11.9219 3.74854 11.8457 3.72414 11.7821 3.67875C9.19913 1.83525 5.87288 1.52213 2.625 1.5V17.25C5.91037 17.271 9.28387 17.5875 12 19.4175C12.545 19.0514 13.1233 18.7375 13.7272 18.48L14.0228 19.1693C13.3867 19.4395 12.7816 19.7774 12.2179 20.1772C12.1547 20.2239 12.0785 20.2493 12 20.25Z" fill="white"/>
<path d="M9.97813 15.7196C8.47175 15.075 6.662 14.7375 4.10938 14.625L4.14237 13.875C6.7895 13.9916 8.67987 14.3483 10.2736 15.03L9.97813 15.7196ZM9.97813 13.8446C8.47175 13.2 6.662 12.8625 4.10938 12.75L4.14237 12C6.7895 12.1166 8.67987 12.4733 10.2736 13.155L9.97813 13.8446ZM9.97813 11.9696C8.47175 11.325 6.662 10.9875 4.10938 10.875L4.14237 10.125C6.7895 10.2416 8.67987 10.5982 10.2736 11.28L9.97813 11.9696ZM9.97813 10.0946C8.47175 9.45 6.662 9.1125 4.10938 9L4.14237 8.25C6.7895 8.36662 8.67987 8.72325 10.2736 9.405L9.97813 10.0946ZM9.97813 8.21963C8.47175 7.575 6.662 7.2375 4.10938 7.125L4.14237 6.375C6.7895 6.49163 8.67987 6.84825 10.2736 7.53L9.97813 8.21963ZM9.97813 6.34463C8.47175 5.7 6.662 5.3625 4.10938 5.25L4.14237 4.5C6.7895 4.61662 8.67987 4.97325 10.2736 5.655L9.97813 6.34463ZM14.0236 13.8446L13.7281 13.1554C15.3215 12.4736 17.2122 12.117 19.8594 12.0004L19.8924 12.7504C17.3397 12.8625 15.53 13.2 14.0236 13.8446ZM14.0236 11.9696L13.7281 11.2804C15.3215 10.5986 17.2122 10.242 19.8594 10.1254L19.8924 10.8754C17.3397 10.9875 15.53 11.325 14.0236 11.9696ZM14.0236 10.0946L13.7281 9.40537C15.3215 8.72362 17.2122 8.367 19.8594 8.25037L19.8924 9.00037C17.3397 9.1125 15.53 9.45 14.0236 10.0946ZM14.0236 8.21963L13.7281 7.53037C15.3215 6.84862 17.2122 6.492 19.8594 6.37537L19.8924 7.12537C17.3397 7.2375 15.53 7.575 14.0236 8.21963ZM14.0236 6.34463L13.7281 5.65538C15.3215 4.97363 17.2122 4.617 19.8594 4.50038L19.8924 5.25038C17.3397 5.3625 15.53 5.7 14.0236 6.34463ZM11.6259 3.375H12.3759V21.375H11.6259V3.375Z" fill="white"/>
<path d="M14.25 21.75H1.875C1.3779 21.7494 0.901334 21.5517 0.549832 21.2002C0.198331 20.8487 0.000595447 20.3721 0 19.875L0 4.125C0.000595447 3.6279 0.198331 3.15133 0.549832 2.79983C0.901334 2.44833 1.3779 2.2506 1.875 2.25H2.25V3H1.875C1.57663 3 1.29048 3.11853 1.0795 3.3295C0.868526 3.54048 0.75 3.82663 0.75 4.125V19.875C0.75 20.1734 0.868526 20.4595 1.0795 20.6705C1.29048 20.8815 1.57663 21 1.875 21H14.25V21.75ZM24 14.625H23.25V4.125C23.25 3.82663 23.1315 3.54048 22.9205 3.3295C22.7095 3.11853 22.4234 3 22.125 3H21.75V2.25H22.125C22.6221 2.2506 23.0987 2.44833 23.4502 2.79983C23.8017 3.15133 23.9994 3.6279 24 4.125V14.625ZM19.875 23.25H18.375C18.2755 23.25 18.1802 23.2105 18.1098 23.1402C18.0395 23.0698 18 22.9745 18 22.875V21.9503C17.7905 21.8845 17.5873 21.8 17.3929 21.6979L16.7385 22.3522C16.6682 22.4226 16.5728 22.462 16.4734 22.462C16.3739 22.462 16.2786 22.4226 16.2083 22.3522L15.1478 21.2917C15.0774 21.2214 15.038 21.1261 15.038 21.0266C15.038 20.9272 15.0774 20.8318 15.1478 20.7615L15.8021 20.1071C15.7 19.9127 15.6155 19.7095 15.5497 19.5H14.625C14.5255 19.5 14.4302 19.4605 14.3598 19.3902C14.2895 19.3198 14.25 19.2245 14.25 19.125V17.625C14.25 17.5255 14.2895 17.4302 14.3598 17.3598C14.4302 17.2895 14.5255 17.25 14.625 17.25H15.5497C15.6155 17.0405 15.7 16.8373 15.8021 16.6429L15.1478 15.9885C15.0774 15.9182 15.038 15.8228 15.038 15.7234C15.038 15.6239 15.0774 15.5286 15.1478 15.4583L16.2083 14.3978C16.2786 14.3274 16.3739 14.288 16.4734 14.288C16.5728 14.288 16.6682 14.3274 16.7385 14.3978L17.3929 15.0521C17.5874 14.9501 17.7905 14.8657 18 14.7997V13.875C18 13.7755 18.0395 13.6802 18.1098 13.6098C18.1802 13.5395 18.2755 13.5 18.375 13.5H19.875C19.9745 13.5 20.0698 13.5395 20.1402 13.6098C20.2105 13.6802 20.25 13.7755 20.25 13.875V14.7997C20.4595 14.8657 20.6626 14.9501 20.8571 15.0521L21.5115 14.3978C21.5818 14.3274 21.6772 14.288 21.7766 14.288C21.8761 14.288 21.9714 14.3274 22.0417 14.3978L23.1022 15.4583C23.1726 15.5286 23.212 15.6239 23.212 15.7234C23.212 15.8228 23.1726 15.9182 23.1022 15.9885L22.4479 16.6429C22.55 16.8373 22.6345 17.0405 22.7003 17.25H23.625C23.7245 17.25 23.8198 17.2895 23.8902 17.3598C23.9605 17.4302 24 17.5255 24 17.625V19.125C24 19.2245 23.9605 19.3198 23.8902 19.3902C23.8198 19.4605 23.7245 19.5 23.625 19.5H22.7003C22.6345 19.7095 22.55 19.9127 22.4479 20.1071L23.1022 20.7615C23.1726 20.8318 23.212 20.9272 23.212 21.0266C23.212 21.1261 23.1726 21.2214 23.1022 21.2917L22.0417 22.3522C21.9714 22.4226 21.8761 22.462 21.7766 22.462C21.6772 22.462 21.5818 22.4226 21.5115 22.3522L20.8571 21.6979C20.6627 21.8 20.4595 21.8845 20.25 21.9503V22.875C20.25 22.9745 20.2105 23.0698 20.1402 23.1402C20.0698 23.2105 19.9745 23.25 19.875 23.25ZM18.75 22.5H19.5V21.6637C19.5 21.5788 19.5289 21.4963 19.5819 21.4299C19.6349 21.3634 19.7089 21.317 19.7917 21.2981C20.1205 21.2231 20.4342 21.0928 20.7195 20.913C20.7914 20.8676 20.8766 20.8481 20.9611 20.8575C21.0455 20.8669 21.1243 20.9047 21.1845 20.9647L21.7766 21.5569L22.3069 21.0266L21.7147 20.4345C21.6547 20.3743 21.6169 20.2955 21.6075 20.2111C21.5981 20.1266 21.6176 20.0414 21.663 19.9695C21.8435 19.6843 21.9743 19.3706 22.05 19.0417C22.0688 18.9592 22.115 18.8854 22.181 18.8325C22.2471 18.7795 22.3291 18.7504 22.4137 18.75H23.25V18H22.4137C22.3288 18 22.2463 17.9711 22.1799 17.9181C22.1134 17.8651 22.067 17.7911 22.0481 17.7083C21.9731 17.3795 21.8428 17.0658 21.663 16.7805C21.6176 16.7086 21.5981 16.6234 21.6075 16.5389C21.6169 16.4545 21.6547 16.3757 21.7147 16.3155L22.3069 15.7234L21.7766 15.1931L21.1845 15.7853C21.1244 15.8453 21.0457 15.8831 20.9613 15.8926C20.8769 15.9021 20.7918 15.8826 20.7199 15.8374C20.4344 15.6575 20.1206 15.5272 19.7917 15.4519C19.7089 15.433 19.6349 15.3866 19.5819 15.3201C19.5289 15.2537 19.5 15.1712 19.5 15.0863V14.25H18.75V15.0863C18.75 15.1712 18.7211 15.2537 18.6681 15.3201C18.6151 15.3866 18.5411 15.433 18.4583 15.4519C18.1294 15.5272 17.8156 15.6575 17.5301 15.8374C17.4582 15.8826 17.3731 15.9021 17.2887 15.8926C17.2043 15.8831 17.1256 15.8453 17.0655 15.7853L16.4734 15.1931L15.9431 15.7234L16.5353 16.3155C16.5953 16.3757 16.6331 16.4545 16.6425 16.5389C16.6519 16.6234 16.6324 16.7086 16.587 16.7805C16.4072 17.0658 16.2769 17.3795 16.2019 17.7083C16.183 17.7911 16.1366 17.8651 16.0701 17.9181C16.0037 17.9711 15.9212 18 15.8363 18H15V18.75H15.8363C15.9212 18.75 16.0037 18.7789 16.0701 18.8319C16.1366 18.8849 16.183 18.9589 16.2019 19.0417C16.2769 19.3705 16.4072 19.6842 16.587 19.9695C16.6324 20.0414 16.6519 20.1266 16.6425 20.2111C16.6331 20.2955 16.5953 20.3743 16.5353 20.4345L15.9431 21.0266L16.4734 21.5569L17.0655 20.9647C17.1257 20.9047 17.2045 20.8669 17.2889 20.8575C17.3734 20.8481 17.4586 20.8676 17.5305 20.913C17.8157 21.0935 18.1294 21.2243 18.4583 21.3C18.5408 21.3188 18.6146 21.365 18.6675 21.431C18.7205 21.4971 18.7496 21.5791 18.75 21.6637V22.5Z" fill="white"/>
<path d="M19.125 20.625C18.68 20.625 18.245 20.493 17.875 20.2458C17.505 19.9986 17.2166 19.6472 17.0463 19.236C16.876 18.8249 16.8314 18.3725 16.9182 17.936C17.005 17.4996 17.2193 17.0987 17.534 16.784C17.8487 16.4693 18.2496 16.2551 18.686 16.1682C19.1225 16.0814 19.5749 16.126 19.986 16.2963C20.3972 16.4666 20.7486 16.755 20.9958 17.125C21.243 17.495 21.375 17.93 21.375 18.375C21.3744 18.9716 21.1372 19.5435 20.7153 19.9653C20.2935 20.3872 19.7216 20.6244 19.125 20.625ZM19.125 16.875C18.8283 16.875 18.5383 16.963 18.2916 17.1278C18.045 17.2926 17.8527 17.5269 17.7392 17.801C17.6256 18.0751 17.5959 18.3767 17.6538 18.6676C17.7117 18.9586 17.8546 19.2259 18.0643 19.4357C18.2741 19.6454 18.5414 19.7883 18.8324 19.8462C19.1233 19.9041 19.4249 19.8744 19.699 19.7608C19.9731 19.6473 20.2074 19.455 20.3722 19.2084C20.537 18.9617 20.625 18.6717 20.625 18.375C20.625 17.9772 20.467 17.5956 20.1857 17.3143C19.9044 17.033 19.5228 16.875 19.125 16.875ZM12 20.25H3.375C3.27554 20.25 3.18016 20.2105 3.10984 20.1402C3.03951 20.0698 3 19.9745 3 19.875V17.625H3.75V19.5H12V20.25Z" fill="white"/>
</g>
<defs>
<clipPath id="clip0_3219_2496">
<rect width="24" height="24" fill="white"/>
</clipPath>
</defs>
</svg>
