<svg width="75" height="81" viewBox="0 0 75 81" fill="none" xmlns="http://www.w3.org/2000/svg">
<rect width="75" height="62" rx="14" fill="#DDFFE3"/>
<g filter="url(#filter0_d_3219_1932)">
<circle cx="37.5" cy="30.5" r="19.5" fill="#AAFFA3"/>
<circle cx="37.5" cy="30.5" r="19" stroke="#1DB42C"/>
</g>
<path d="M47.2218 31.2547C47.2048 31.0913 47.1896 30.9278 47.1744 30.7644C47.1422 30.402 47.108 30.0289 47.0492 29.6612C46.867 28.5332 46.4325 27.4389 45.759 26.4085C45.1215 25.4351 44.3018 24.5895 43.3228 23.8949C42.7612 23.497 42.2793 23.2181 41.803 23.0191C41.4976 22.8912 41.1522 22.8894 40.8354 23.012C40.5109 23.1381 40.2548 23.385 40.1334 23.687C39.9341 24.1809 40.0992 24.8542 40.7974 25.1846C41.5791 25.5559 42.2831 26.0746 42.8883 26.7283C43.9262 27.8457 44.5162 29.1585 44.6415 30.6258C44.7496 31.8906 44.4859 33.1004 43.856 34.2213C43.0496 35.6532 41.8486 36.7013 40.2851 37.339C38.7843 37.9501 37.2133 38.0567 35.6177 37.6552C33.9309 37.2306 32.5705 36.3353 31.5706 34.9941C30.5233 33.5854 30.1078 32.0008 30.3374 30.283C30.5024 29.0519 31.0166 27.9239 31.8704 26.9273C32.4908 26.2025 33.2745 25.6038 34.2023 25.149C34.5115 24.9963 34.7373 24.744 34.836 24.4385C34.9327 24.1418 34.9005 23.8274 34.7449 23.5538C34.4053 22.9622 33.671 22.7491 33.0335 23.0582C31.6162 23.7457 30.4341 24.7103 29.5215 25.9218C28.6829 27.0356 28.1326 28.2845 27.8879 29.6328C27.738 30.4606 27.7095 31.2991 27.8063 32.1269C27.9239 33.1342 28.2199 34.1023 28.6829 35.0065C29.4418 36.4845 30.5499 37.7067 31.9805 38.6376C33.0411 39.3268 34.2117 39.8012 35.464 40.0499C36.1356 40.1831 36.813 40.2506 37.4866 40.2506C37.7806 40.2506 38.0728 40.2382 38.365 40.2115C39.826 40.0818 41.2016 39.6608 42.4519 38.9591C43.5638 38.3356 44.5105 37.5326 45.2695 36.5734C46.4477 35.0829 47.089 33.3846 47.1801 31.5229L47.2503 31.5158L47.2237 31.2547H47.2218Z" fill="#1DB42C"/>
<path d="M36.1093 27.6738C36.1093 27.769 36.115 27.8643 36.1245 27.9578C36.2042 28.7392 37.1415 29.3187 38.0237 29.1332C38.7694 28.9773 39.257 28.4437 39.2589 27.7789C39.2589 26.8366 39.2589 25.8943 39.2589 24.9521H39.2551C39.2551 23.9901 39.2589 23.0297 39.2551 22.0677C39.2513 21.2683 38.3406 20.6297 37.4318 20.7692C36.7108 20.8792 36.1036 21.4259 36.1074 22.1892C36.1188 24.0163 36.1093 25.8451 36.1112 27.6722L36.1093 27.6738Z" fill="#1DB42C"/>
<path d="M10.532 78V69.54H14.036C14.94 69.54 15.632 69.756 16.112 70.188C16.592 70.62 16.832 71.216 16.832 71.976C16.832 72.736 16.592 73.336 16.112 73.776C15.632 74.208 14.94 74.424 14.036 74.424H11.648V78H10.532ZM11.648 73.512H13.928C14.52 73.512 14.968 73.38 15.272 73.116C15.576 72.844 15.728 72.464 15.728 71.976C15.728 71.488 15.576 71.112 15.272 70.848C14.968 70.584 14.52 70.452 13.928 70.452H11.648V73.512ZM20.5498 78.108C19.9578 78.108 19.4458 77.984 19.0138 77.736C18.5818 77.48 18.2458 77.12 18.0058 76.656C17.7658 76.184 17.6458 75.624 17.6458 74.976C17.6458 74.336 17.7658 73.784 18.0058 73.32C18.2458 72.848 18.5818 72.488 19.0138 72.24C19.4458 71.984 19.9578 71.856 20.5498 71.856C21.1418 71.856 21.6538 71.984 22.0858 72.24C22.5258 72.488 22.8618 72.848 23.0938 73.32C23.3338 73.784 23.4538 74.336 23.4538 74.976C23.4538 75.624 23.3338 76.184 23.0938 76.656C22.8618 77.12 22.5258 77.48 22.0858 77.736C21.6538 77.984 21.1418 78.108 20.5498 78.108ZM20.5498 77.244C21.0938 77.244 21.5298 77.052 21.8578 76.668C22.1858 76.284 22.3498 75.72 22.3498 74.976C22.3498 74.232 22.1858 73.672 21.8578 73.296C21.5298 72.92 21.0938 72.732 20.5498 72.732C19.9978 72.732 19.5578 72.92 19.2298 73.296C18.9098 73.672 18.7498 74.232 18.7498 74.976C18.7498 75.72 18.9098 76.284 19.2298 76.668C19.5578 77.052 19.9978 77.244 20.5498 77.244ZM26.4581 78L24.2021 71.964H25.3421L27.1661 77.136H26.8541L28.7261 71.964H29.6141L31.4741 77.136H31.1741L33.0101 71.964H34.1021L31.8341 78H30.8021L28.8821 72.744H29.4101L27.5021 78H26.4581ZM37.9452 78.108C36.9852 78.108 36.2252 77.832 35.6652 77.28C35.1132 76.728 34.8372 75.968 34.8372 75C34.8372 74.36 34.9572 73.808 35.1972 73.344C35.4452 72.872 35.7852 72.508 36.2172 72.252C36.6492 71.988 37.1532 71.856 37.7292 71.856C38.2812 71.856 38.7492 71.976 39.1332 72.216C39.5172 72.448 39.8092 72.78 40.0092 73.212C40.2092 73.644 40.3092 74.156 40.3092 74.748V75.108H35.6892V74.46H39.5652L39.3612 74.616C39.3612 73.992 39.2212 73.508 38.9412 73.164C38.6692 72.82 38.2652 72.648 37.7292 72.648C37.1452 72.648 36.6932 72.852 36.3732 73.26C36.0532 73.66 35.8932 74.208 35.8932 74.904V75.012C35.8932 75.748 36.0732 76.304 36.4332 76.68C36.8012 77.056 37.3092 77.244 37.9572 77.244C38.3172 77.244 38.6532 77.192 38.9652 77.088C39.2772 76.984 39.5772 76.812 39.8652 76.572L40.2252 77.328C39.9532 77.576 39.6132 77.768 39.2052 77.904C38.8052 78.04 38.3852 78.108 37.9452 78.108ZM41.7242 78V73.44C41.7242 73.2 41.7162 72.956 41.7002 72.708C41.6922 72.452 41.6722 72.204 41.6402 71.964H42.6962L42.8282 73.476L42.6482 73.488C42.7282 73.12 42.8642 72.816 43.0562 72.576C43.2562 72.328 43.4922 72.148 43.7642 72.036C44.0442 71.916 44.3322 71.856 44.6282 71.856C44.7562 71.856 44.8642 71.86 44.9522 71.868C45.0402 71.876 45.1282 71.896 45.2162 71.928L45.1922 72.9C45.0722 72.852 44.9602 72.824 44.8562 72.816C44.7602 72.8 44.6402 72.792 44.4962 72.792C44.1442 72.792 43.8402 72.872 43.5842 73.032C43.3362 73.192 43.1442 73.404 43.0082 73.668C42.8802 73.932 42.8162 74.216 42.8162 74.52V78H41.7242ZM49.1497 73.764C49.1497 72.876 49.3057 72.108 49.6177 71.46C49.9297 70.812 50.3777 70.312 50.9617 69.96C51.5537 69.608 52.2577 69.432 53.0737 69.432C53.8817 69.432 54.5777 69.608 55.1617 69.96C55.7537 70.312 56.2097 70.812 56.5297 71.46C56.8497 72.108 57.0097 72.872 57.0097 73.752C57.0097 74.64 56.8497 75.412 56.5297 76.068C56.2097 76.716 55.7537 77.22 55.1617 77.58C54.5777 77.932 53.8817 78.108 53.0737 78.108C52.2577 78.108 51.5577 77.932 50.9737 77.58C50.3897 77.22 49.9377 76.716 49.6177 76.068C49.3057 75.412 49.1497 74.644 49.1497 73.764ZM50.3257 73.764C50.3257 74.82 50.5577 75.644 51.0217 76.236C51.4857 76.828 52.1697 77.124 53.0737 77.124C53.9457 77.124 54.6217 76.832 55.1017 76.248C55.5897 75.656 55.8337 74.828 55.8337 73.764C55.8337 72.7 55.5937 71.876 55.1137 71.292C54.6337 70.708 53.9537 70.416 53.0737 70.416C52.1697 70.416 51.4857 70.708 51.0217 71.292C50.5577 71.876 50.3257 72.7 50.3257 73.764ZM58.6581 78V73.392C58.6581 73.16 58.6501 72.924 58.6341 72.684C58.6181 72.444 58.5941 72.204 58.5621 71.964H59.6181L59.7381 73.26H59.5941C59.7781 72.804 60.0621 72.456 60.4461 72.216C60.8301 71.976 61.2781 71.856 61.7901 71.856C62.5021 71.856 63.0381 72.052 63.3981 72.444C63.7581 72.828 63.9381 73.428 63.9381 74.244V78H62.8461V74.304C62.8461 73.752 62.7381 73.356 62.5221 73.116C62.3061 72.868 61.9701 72.744 61.5141 72.744C60.9701 72.744 60.5381 72.908 60.2181 73.236C59.9061 73.564 59.7501 74.008 59.7501 74.568V78H58.6581Z" fill="#161616"/>
<defs>
<filter id="filter0_d_3219_1932" x="10" y="3" width="55" height="55" filterUnits="userSpaceOnUse" color-interpolation-filters="sRGB">
<feFlood flood-opacity="0" result="BackgroundImageFix"/>
<feColorMatrix in="SourceAlpha" type="matrix" values="0 0 0 0 0 0 0 0 0 0 0 0 0 0 0 0 0 0 127 0" result="hardAlpha"/>
<feMorphology radius="1" operator="dilate" in="SourceAlpha" result="effect1_dropShadow_3219_1932"/>
<feOffset/>
<feGaussianBlur stdDeviation="3.5"/>
<feComposite in2="hardAlpha" operator="out"/>
<feColorMatrix type="matrix" values="0 0 0 0 1 0 0 0 0 1 0 0 0 0 1 0 0 0 1 0"/>
<feBlend mode="normal" in2="BackgroundImageFix" result="effect1_dropShadow_3219_1932"/>
<feBlend mode="normal" in="SourceGraphic" in2="effect1_dropShadow_3219_1932" result="shape"/>
</filter>
</defs>
</svg>
