<svg width="24" height="24" viewBox="0 0 24 24" fill="none" xmlns="http://www.w3.org/2000/svg">
<g clip-path="url(#clip0_3219_1599)">
<path d="M0.375008 11.9998C0.375017 12.5552 0.414744 13.1099 0.493883 13.6596C0.52071 13.8443 0.601844 14.0168 0.726975 14.1553C0.852106 14.2938 1.01558 14.392 1.19663 14.4373C1.34426 14.4752 1.49892 14.4763 1.64707 14.4405C1.79522 14.4048 1.93236 14.3333 2.04647 14.2323C2.16059 14.1312 2.24821 14.0038 2.30167 13.8611C2.35513 13.7183 2.3728 13.5647 2.35313 13.4136C2.05385 11.3856 2.4018 9.31499 3.34747 7.49626C4.29313 5.67753 5.78834 4.2034 7.6203 3.28364C9.45226 2.36388 11.5277 2.04535 13.5511 2.37337C15.5746 2.7014 17.4431 3.65928 18.8906 5.11069L18.0844 5.91694C18.048 5.95332 18.0223 5.99899 18.01 6.04897C17.9978 6.09894 17.9995 6.15132 18.015 6.20039C18.0305 6.24947 18.0591 6.29336 18.0978 6.32729C18.1365 6.36122 18.1837 6.38388 18.2344 6.39282L21.8149 7.02432C21.8594 7.03221 21.9052 7.02922 21.9483 7.01563C21.9914 7.00204 22.0306 6.97823 22.0626 6.94624C22.0945 6.91425 22.1183 6.87502 22.1319 6.83187C22.1454 6.78873 22.1483 6.74296 22.1404 6.69844L21.5074 3.11832C21.4984 3.06765 21.4758 3.0204 21.4419 2.98171C21.4079 2.94303 21.364 2.9144 21.315 2.89893C21.2659 2.88346 21.2135 2.88175 21.1635 2.89398C21.1136 2.90622 21.0679 2.93193 21.0315 2.96832L20.2125 3.78732C18.589 2.15874 16.5186 1.0488 14.2636 0.598192C12.0086 0.147584 9.67064 0.376591 7.54596 1.25619C5.42127 2.13578 3.60556 3.62636 2.32894 5.53901C1.05232 7.45166 0.372282 9.70026 0.375008 11.9998ZM21.75 11.9998C21.7513 13.9282 21.1804 15.8137 20.1095 17.4174C19.0385 19.0211 17.5158 20.271 15.734 21.0087C13.9523 21.7464 11.9917 21.9388 10.1006 21.5615C8.20943 21.1842 6.47277 20.2542 5.11051 18.8893L5.91713 18.0827C5.95352 18.0463 5.97923 18.0007 5.99147 17.9507C6.0037 17.9007 6.00199 17.8483 5.98653 17.7992C5.97106 17.7502 5.94242 17.7063 5.90374 17.6723C5.86506 17.6384 5.81781 17.6158 5.76713 17.6068L2.18663 16.9753C2.14211 16.9674 2.09634 16.9704 2.05321 16.984C2.01009 16.9976 1.97088 17.0214 1.93892 17.0534C1.90697 17.0854 1.88321 17.1246 1.86967 17.1678C1.85612 17.2109 1.8532 17.2567 1.86113 17.3012L2.49263 20.8813C2.50157 20.932 2.52424 20.9792 2.55816 21.0179C2.59209 21.0566 2.63598 21.0852 2.68506 21.1007C2.73413 21.1162 2.78651 21.1179 2.83649 21.1057C2.88647 21.0934 2.93213 21.0677 2.96851 21.0313L3.78751 20.2123C5.51244 21.9386 7.73714 23.0779 10.146 23.4686C12.5549 23.8594 15.0257 23.4817 17.2078 22.3891C19.39 21.2966 21.1727 19.5447 22.3032 17.382C23.4336 15.2192 23.8544 12.7554 23.5058 10.3401C23.4791 10.1554 23.398 9.9828 23.2729 9.8443C23.1479 9.7058 22.9844 9.60765 22.8034 9.56232C22.6557 9.52444 22.501 9.52334 22.3528 9.55911C22.2047 9.59487 22.0675 9.66642 21.9534 9.76748C21.8392 9.86855 21.7516 9.99605 21.6982 10.1388C21.6448 10.2816 21.6271 10.4353 21.6469 10.5864C21.7156 11.0544 21.7501 11.5268 21.75 11.9998Z" fill="white"/>
<path d="M18.75 10.5938H17.3456C17.2196 10.1096 17.0278 9.64504 16.7756 9.213L17.7671 8.2215C17.7933 8.19538 17.814 8.16437 17.8281 8.13023C17.8423 8.0961 17.8496 8.05951 17.8496 8.02256C17.8496 7.98561 17.8423 7.94903 17.8281 7.91489C17.814 7.88076 17.7933 7.84974 17.7671 7.82363L16.1764 6.23288C16.1503 6.20674 16.1192 6.18601 16.0851 6.17186C16.051 6.15772 16.0144 6.15043 15.9774 6.15043C15.9405 6.15043 15.9039 6.15772 15.8698 6.17186C15.8356 6.18601 15.8046 6.20674 15.7785 6.23288L14.787 7.22437C14.355 6.97216 13.8904 6.78037 13.4062 6.65438V5.25C13.4062 5.17541 13.3766 5.10387 13.3239 5.05113C13.2711 4.99838 13.1996 4.96875 13.125 4.96875H10.875C10.8004 4.96875 10.7289 4.99838 10.6761 5.05113C10.6234 5.10387 10.5938 5.17541 10.5938 5.25V6.65438C10.1096 6.78037 9.64504 6.97216 9.213 7.22437L8.2215 6.23288C8.19538 6.20674 8.16437 6.18601 8.13023 6.17186C8.0961 6.15772 8.05951 6.15043 8.02256 6.15043C7.98561 6.15043 7.94903 6.15772 7.91489 6.17186C7.88076 6.18601 7.84974 6.20674 7.82363 6.23288L6.23288 7.82363C6.20674 7.84974 6.18601 7.88076 6.17186 7.91489C6.15772 7.94903 6.15043 7.98561 6.15043 8.02256C6.15043 8.05951 6.15772 8.0961 6.17186 8.13023C6.18601 8.16437 6.20674 8.19538 6.23288 8.2215L7.22437 9.213C6.97216 9.64504 6.78037 10.1096 6.65438 10.5938H5.25C5.17541 10.5938 5.10387 10.6234 5.05113 10.6761C4.99838 10.7289 4.96875 10.8004 4.96875 10.875V13.125C4.96875 13.1996 4.99838 13.2711 5.05113 13.3239C5.10387 13.3766 5.17541 13.4062 5.25 13.4062H6.65438C6.78037 13.8904 6.97216 14.355 7.22437 14.787L6.23288 15.7785C6.20674 15.8046 6.18601 15.8356 6.17186 15.8698C6.15772 15.9039 6.15043 15.9405 6.15043 15.9774C6.15043 16.0144 6.15772 16.051 6.17186 16.0851C6.18601 16.1192 6.20674 16.1503 6.23288 16.1764L7.82363 17.7675C7.84974 17.7936 7.88076 17.8144 7.91489 17.8285C7.94903 17.8427 7.98561 17.8499 8.02256 17.8499C8.05951 17.8499 8.0961 17.8427 8.13023 17.8285C8.16437 17.8144 8.19538 17.7936 8.2215 17.7675L9.213 16.7756C9.64497 17.028 10.1096 17.2198 10.5938 17.3456V18.75C10.5938 18.8246 10.6234 18.8961 10.6761 18.9489C10.7289 19.0016 10.8004 19.0312 10.875 19.0312H13.125C13.1996 19.0312 13.2711 19.0016 13.3239 18.9489C13.3766 18.8961 13.4062 18.8246 13.4062 18.75V17.3456C13.8904 17.2198 14.355 17.028 14.787 16.7756L15.7785 17.7675C15.8046 17.7936 15.8356 17.8144 15.8698 17.8285C15.9039 17.8427 15.9405 17.8499 15.9774 17.8499C16.0144 17.8499 16.051 17.8427 16.0851 17.8285C16.1192 17.8144 16.1503 17.7936 16.1764 17.7675L17.7671 16.1764C17.7933 16.1503 17.814 16.1192 17.8281 16.0851C17.8423 16.051 17.8496 16.0144 17.8496 15.9774C17.8496 15.9405 17.8423 15.9039 17.8281 15.8698C17.814 15.8356 17.7933 15.8046 17.7671 15.7785L16.7756 14.787C17.0278 14.355 17.2196 13.8904 17.3456 13.4062H18.75C18.8246 13.4062 18.8961 13.3766 18.9489 13.3239C19.0016 13.2711 19.0312 13.1996 19.0312 13.125V10.875C19.0312 10.8004 19.0016 10.7289 18.9489 10.6761C18.8961 10.6234 18.8246 10.5938 18.75 10.5938ZM12 15.2812C11.351 15.2812 10.7166 15.0888 10.177 14.7283C9.63744 14.3677 9.21687 13.8553 8.96852 13.2557C8.72017 12.6561 8.65519 11.9964 8.7818 11.3599C8.90841 10.7234 9.22091 10.1387 9.67981 9.67981C10.1387 9.22091 10.7234 8.90841 11.3599 8.7818C11.9964 8.65519 12.6561 8.72017 13.2557 8.96852C13.8553 9.21687 14.3677 9.63744 14.7283 10.177C15.0888 10.7166 15.2812 11.351 15.2812 12C15.2803 12.8699 14.9342 13.704 14.3191 14.3191C13.704 14.9342 12.8699 15.2803 12 15.2812Z" fill="white"/>
<path d="M12 9.28125C11.4623 9.28125 10.9366 9.4407 10.4895 9.73944C10.0424 10.0382 9.69398 10.4628 9.4882 10.9596C9.28243 11.4564 9.22859 12.003 9.33349 12.5304C9.43839 13.0578 9.69733 13.5422 10.0776 13.9224C10.4578 14.3027 10.9422 14.5616 11.4696 14.6665C11.997 14.7714 12.5436 14.7176 13.0404 14.5118C13.5372 14.306 13.9618 13.9576 14.2606 13.5105C14.5593 13.0634 14.7188 12.5377 14.7188 12C14.718 11.2792 14.4313 10.5881 13.9216 10.0784C13.4119 9.56874 12.7208 9.28204 12 9.28125ZM12 13.5938C11.6848 13.5938 11.3767 13.5003 11.1146 13.3252C10.8525 13.15 10.6482 12.9011 10.5276 12.6099C10.4069 12.3187 10.3754 11.9982 10.4369 11.6891C10.4984 11.3799 10.6502 11.0959 10.873 10.873C11.0959 10.6502 11.3799 10.4984 11.6891 10.4369C11.9982 10.3754 12.3187 10.4069 12.6099 10.5276C12.9011 10.6482 13.15 10.8525 13.3252 11.1146C13.5003 11.3767 13.5938 11.6848 13.5938 12C13.5938 12.4227 13.4258 12.8281 13.127 13.127C12.8281 13.4258 12.4227 13.5938 12 13.5938Z" fill="white"/>
</g>
<defs>
<clipPath id="clip0_3219_1599">
<rect width="24" height="24" fill="white"/>
</clipPath>
</defs>
</svg>
