<svg width="75" height="81" viewBox="0 0 75 81" fill="none" xmlns="http://www.w3.org/2000/svg">
<rect width="75" height="62" rx="14" fill="#FFD9D9"/>
<g filter="url(#filter0_d_3219_1922)">
<circle cx="37.5" cy="30.5" r="19.5" fill="#FFC4C4"/>
<circle cx="37.5" cy="30.5" r="19" stroke="#FF2D2D"/>
</g>
<path d="M47.2218 31.2547C47.2048 31.0913 47.1896 30.9278 47.1744 30.7644C47.1422 30.402 47.108 30.0289 47.0492 29.6612C46.867 28.5332 46.4325 27.4389 45.759 26.4085C45.1215 25.4351 44.3018 24.5895 43.3228 23.8949C42.7612 23.497 42.2793 23.2181 41.803 23.0191C41.4976 22.8912 41.1522 22.8894 40.8354 23.012C40.5109 23.1381 40.2548 23.385 40.1334 23.687C39.9341 24.1809 40.0992 24.8542 40.7974 25.1846C41.5791 25.5559 42.2831 26.0746 42.8883 26.7283C43.9262 27.8457 44.5162 29.1585 44.6415 30.6258C44.7496 31.8906 44.4859 33.1004 43.856 34.2213C43.0496 35.6532 41.8486 36.7013 40.2851 37.339C38.7843 37.9501 37.2133 38.0567 35.6177 37.6552C33.9309 37.2306 32.5705 36.3353 31.5706 34.9941C30.5233 33.5854 30.1078 32.0008 30.3374 30.283C30.5024 29.0519 31.0166 27.9239 31.8704 26.9273C32.4908 26.2025 33.2745 25.6038 34.2023 25.149C34.5115 24.9963 34.7373 24.744 34.836 24.4385C34.9327 24.1418 34.9005 23.8274 34.7449 23.5538C34.4053 22.9622 33.671 22.7491 33.0335 23.0582C31.6162 23.7457 30.4341 24.7103 29.5215 25.9218C28.6829 27.0356 28.1326 28.2845 27.8879 29.6328C27.738 30.4606 27.7095 31.2991 27.8063 32.1269C27.9239 33.1342 28.2199 34.1023 28.6829 35.0065C29.4418 36.4845 30.5499 37.7067 31.9805 38.6376C33.0411 39.3268 34.2117 39.8012 35.464 40.0499C36.1356 40.1831 36.813 40.2506 37.4866 40.2506C37.7806 40.2506 38.0728 40.2382 38.365 40.2115C39.826 40.0818 41.2016 39.6608 42.4519 38.9591C43.5638 38.3356 44.5105 37.5326 45.2695 36.5734C46.4477 35.0829 47.089 33.3846 47.1801 31.5229L47.2503 31.5158L47.2237 31.2547H47.2218Z" fill="#FF2D2D"/>
<path d="M36.1093 27.6738C36.1093 27.769 36.115 27.8643 36.1245 27.9578C36.2042 28.7392 37.1415 29.3187 38.0237 29.1332C38.7694 28.9773 39.257 28.4437 39.2589 27.7789C39.2589 26.8366 39.2589 25.8943 39.2589 24.9521H39.2551C39.2551 23.9901 39.2589 23.0297 39.2551 22.0677C39.2513 21.2683 38.3406 20.6297 37.4318 20.7692C36.7108 20.8792 36.1036 21.4259 36.1074 22.1892C36.1188 24.0163 36.1093 25.8451 36.1112 27.6722L36.1093 27.6738Z" fill="#FF2D2D"/>
<path d="M10.032 78V69.54H13.536C14.44 69.54 15.132 69.756 15.612 70.188C16.092 70.62 16.332 71.216 16.332 71.976C16.332 72.736 16.092 73.336 15.612 73.776C15.132 74.208 14.44 74.424 13.536 74.424H11.148V78H10.032ZM11.148 73.512H13.428C14.02 73.512 14.468 73.38 14.772 73.116C15.076 72.844 15.228 72.464 15.228 71.976C15.228 71.488 15.076 71.112 14.772 70.848C14.468 70.584 14.02 70.452 13.428 70.452H11.148V73.512ZM20.0498 78.108C19.4578 78.108 18.9458 77.984 18.5138 77.736C18.0818 77.48 17.7458 77.12 17.5058 76.656C17.2658 76.184 17.1458 75.624 17.1458 74.976C17.1458 74.336 17.2658 73.784 17.5058 73.32C17.7458 72.848 18.0818 72.488 18.5138 72.24C18.9458 71.984 19.4578 71.856 20.0498 71.856C20.6418 71.856 21.1538 71.984 21.5858 72.24C22.0258 72.488 22.3618 72.848 22.5938 73.32C22.8338 73.784 22.9538 74.336 22.9538 74.976C22.9538 75.624 22.8338 76.184 22.5938 76.656C22.3618 77.12 22.0258 77.48 21.5858 77.736C21.1538 77.984 20.6418 78.108 20.0498 78.108ZM20.0498 77.244C20.5938 77.244 21.0298 77.052 21.3578 76.668C21.6858 76.284 21.8498 75.72 21.8498 74.976C21.8498 74.232 21.6858 73.672 21.3578 73.296C21.0298 72.92 20.5938 72.732 20.0498 72.732C19.4978 72.732 19.0578 72.92 18.7298 73.296C18.4098 73.672 18.2498 74.232 18.2498 74.976C18.2498 75.72 18.4098 76.284 18.7298 76.668C19.0578 77.052 19.4978 77.244 20.0498 77.244ZM25.9581 78L23.7021 71.964H24.8421L26.6661 77.136H26.3541L28.2261 71.964H29.1141L30.9741 77.136H30.6741L32.5101 71.964H33.6021L31.3341 78H30.3021L28.3821 72.744H28.9101L27.0021 78H25.9581ZM37.4452 78.108C36.4852 78.108 35.7252 77.832 35.1652 77.28C34.6132 76.728 34.3372 75.968 34.3372 75C34.3372 74.36 34.4572 73.808 34.6972 73.344C34.9452 72.872 35.2852 72.508 35.7172 72.252C36.1492 71.988 36.6532 71.856 37.2292 71.856C37.7812 71.856 38.2492 71.976 38.6332 72.216C39.0172 72.448 39.3092 72.78 39.5092 73.212C39.7092 73.644 39.8092 74.156 39.8092 74.748V75.108H35.1892V74.46H39.0652L38.8612 74.616C38.8612 73.992 38.7212 73.508 38.4412 73.164C38.1692 72.82 37.7652 72.648 37.2292 72.648C36.6452 72.648 36.1932 72.852 35.8732 73.26C35.5532 73.66 35.3932 74.208 35.3932 74.904V75.012C35.3932 75.748 35.5732 76.304 35.9332 76.68C36.3012 77.056 36.8092 77.244 37.4572 77.244C37.8172 77.244 38.1532 77.192 38.4652 77.088C38.7772 76.984 39.0772 76.812 39.3652 76.572L39.7252 77.328C39.4532 77.576 39.1132 77.768 38.7052 77.904C38.3052 78.04 37.8852 78.108 37.4452 78.108ZM41.2242 78V73.44C41.2242 73.2 41.2162 72.956 41.2002 72.708C41.1922 72.452 41.1722 72.204 41.1402 71.964H42.1962L42.3282 73.476L42.1482 73.488C42.2282 73.12 42.3642 72.816 42.5562 72.576C42.7562 72.328 42.9922 72.148 43.2642 72.036C43.5442 71.916 43.8322 71.856 44.1282 71.856C44.2562 71.856 44.3642 71.86 44.4522 71.868C44.5402 71.876 44.6282 71.896 44.7162 71.928L44.6922 72.9C44.5722 72.852 44.4602 72.824 44.3562 72.816C44.2602 72.8 44.1402 72.792 43.9962 72.792C43.6442 72.792 43.3402 72.872 43.0842 73.032C42.8362 73.192 42.6442 73.404 42.5082 73.668C42.3802 73.932 42.3162 74.216 42.3162 74.52V78H41.2242ZM48.6497 73.764C48.6497 72.876 48.8057 72.108 49.1177 71.46C49.4297 70.812 49.8777 70.312 50.4617 69.96C51.0537 69.608 51.7577 69.432 52.5737 69.432C53.3817 69.432 54.0777 69.608 54.6617 69.96C55.2537 70.312 55.7097 70.812 56.0297 71.46C56.3497 72.108 56.5097 72.872 56.5097 73.752C56.5097 74.64 56.3497 75.412 56.0297 76.068C55.7097 76.716 55.2537 77.22 54.6617 77.58C54.0777 77.932 53.3817 78.108 52.5737 78.108C51.7577 78.108 51.0577 77.932 50.4737 77.58C49.8897 77.22 49.4377 76.716 49.1177 76.068C48.8057 75.412 48.6497 74.644 48.6497 73.764ZM49.8257 73.764C49.8257 74.82 50.0577 75.644 50.5217 76.236C50.9857 76.828 51.6697 77.124 52.5737 77.124C53.4457 77.124 54.1217 76.832 54.6017 76.248C55.0897 75.656 55.3337 74.828 55.3337 73.764C55.3337 72.7 55.0937 71.876 54.6137 71.292C54.1337 70.708 53.4537 70.416 52.5737 70.416C51.6697 70.416 50.9857 70.708 50.5217 71.292C50.0577 71.876 49.8257 72.7 49.8257 73.764ZM58.4941 78V72.804H57.3181V71.964H58.7941L58.4941 72.24V71.268C58.4941 70.564 58.6701 70.032 59.0221 69.672C59.3741 69.304 59.8861 69.12 60.5581 69.12C60.7181 69.12 60.8861 69.132 61.0621 69.156C61.2461 69.18 61.3981 69.22 61.5181 69.276V70.164C61.4221 70.124 61.3021 70.092 61.1581 70.068C61.0141 70.044 60.8741 70.032 60.7381 70.032C60.4981 70.032 60.2901 70.08 60.1141 70.176C59.9381 70.272 59.8061 70.416 59.7181 70.608C59.6301 70.792 59.5861 71.036 59.5861 71.34V72.192L59.4181 71.964H61.2541V72.804H59.5861V78H58.4941ZM62.4199 78V72.804H61.2439V71.964H62.7199L62.4199 72.24V71.268C62.4199 70.564 62.5959 70.032 62.9479 69.672C63.2999 69.304 63.8119 69.12 64.4839 69.12C64.6439 69.12 64.8119 69.132 64.9879 69.156C65.1719 69.18 65.3239 69.22 65.4439 69.276V70.164C65.3479 70.124 65.2279 70.092 65.0839 70.068C64.9399 70.044 64.7999 70.032 64.6639 70.032C64.4239 70.032 64.2159 70.08 64.0399 70.176C63.8639 70.272 63.7319 70.416 63.6439 70.608C63.5559 70.792 63.5119 71.036 63.5119 71.34V72.192L63.3439 71.964H65.1799V72.804H63.5119V78H62.4199Z" fill="#161616"/>
<defs>
<filter id="filter0_d_3219_1922" x="10" y="3" width="55" height="55" filterUnits="userSpaceOnUse" color-interpolation-filters="sRGB">
<feFlood flood-opacity="0" result="BackgroundImageFix"/>
<feColorMatrix in="SourceAlpha" type="matrix" values="0 0 0 0 0 0 0 0 0 0 0 0 0 0 0 0 0 0 127 0" result="hardAlpha"/>
<feMorphology radius="1" operator="dilate" in="SourceAlpha" result="effect1_dropShadow_3219_1922"/>
<feOffset/>
<feGaussianBlur stdDeviation="3.5"/>
<feComposite in2="hardAlpha" operator="out"/>
<feColorMatrix type="matrix" values="0 0 0 0 1 0 0 0 0 1 0 0 0 0 1 0 0 0 1 0"/>
<feBlend mode="normal" in2="BackgroundImageFix" result="effect1_dropShadow_3219_1922"/>
<feBlend mode="normal" in="SourceGraphic" in2="effect1_dropShadow_3219_1922" result="shape"/>
</filter>
</defs>
</svg>
