<svg width="24" height="24" viewBox="0 0 24 24" fill="none" xmlns="http://www.w3.org/2000/svg">
<g clip-path="url(#clip0_3219_1969)">
<path d="M17.9992 1.87449V10.8747C17.9008 10.8747 17.8033 10.8941 17.7124 10.9318C17.6216 10.9695 17.539 11.0247 17.4695 11.0944C17.4 11.164 17.3449 11.2467 17.3074 11.3376C17.2698 11.4286 17.2506 11.5261 17.2508 11.6244L17.2494 15.002H2.25097C1.4119 15.002 0.75 15.6781 0.75 16.503V20.2504C0.75 21.0753 1.41474 21.7514 2.25097 21.7514H2.62515V22.8754C2.62374 23.0823 2.7924 23.2524 3.00075 23.251H5.6271C5.83404 23.251 6.0027 23.0809 6.00128 22.8754V21.7514H18.0006V22.8754C18.0006 23.0837 18.1692 23.2524 18.3776 23.251H21.0011C21.0506 23.2512 21.0995 23.2416 21.1453 23.2228C21.191 23.204 21.2326 23.1764 21.2676 23.1415C21.3026 23.1066 21.3304 23.0651 21.3494 23.0194C21.3684 22.9738 21.3781 22.9248 21.3781 22.8754V21.7514H21.7523C22.5914 21.7514 23.2519 21.0753 23.2519 20.2504V16.503C23.2519 15.6781 22.5914 15.0006 21.7523 15.0006H21.0011V11.6259C21.0007 11.4275 20.9218 11.2374 20.7815 11.0971C20.6412 10.9568 20.4511 10.8779 20.2527 10.8775L20.2513 1.87733C20.2513 1.57886 20.1328 1.29262 19.9217 1.08157C19.7107 0.870519 19.4244 0.751953 19.126 0.751953C18.8275 0.751953 18.5412 0.870519 18.3302 1.08157C18.1191 1.29262 18.0006 1.57886 18.0006 1.87733L17.9992 1.87449ZM19.126 1.50173C19.3301 1.50173 19.5001 1.66047 19.5001 1.87449V10.8747H18.7504V1.87449C18.7504 1.66189 18.9219 1.50173 19.126 1.50173ZM8.46181 4.98983C7.18593 4.99181 5.92316 5.24716 4.74677 5.74108C3.57037 6.23499 2.50379 6.95763 1.60891 7.86705C1.24324 8.20863 1.80593 8.76565 2.14326 8.39289C2.96825 7.5548 3.9515 6.88893 5.03593 6.43394C6.12037 5.97895 7.28437 5.74391 8.46039 5.74244C10.8302 5.74244 13.1036 6.69632 14.7804 8.39289C15.1205 8.76707 15.6761 8.2058 15.3133 7.86705C14.4183 6.95824 13.3519 6.23609 12.1758 5.74244C10.9997 5.24879 9.7373 4.99204 8.46181 4.98983ZM8.46181 7.34972C7.49307 7.3505 6.53413 7.54372 5.64069 7.91818C4.74725 8.29264 3.9371 8.84086 3.25729 9.53102C2.86894 9.85985 3.47273 10.4353 3.7888 10.0554C4.39926 9.43585 5.12668 8.94365 5.92886 8.6074C6.73104 8.27115 7.592 8.09755 8.46181 8.09666C10.2137 8.09666 11.8932 8.80109 13.1348 10.0569C13.4778 10.4197 14.0249 9.87969 13.6692 9.53102C12.9888 8.84071 12.1782 8.29232 11.2843 7.91764C10.3904 7.54296 9.43104 7.35086 8.46181 7.34972ZM8.46181 9.70536C7.12524 9.70536 5.84821 10.2397 4.90425 11.1936C4.54 11.5295 5.09418 12.095 5.43576 11.7222C5.83132 11.3214 6.30257 11.003 6.82216 10.7858C7.34175 10.5685 7.89933 10.4566 8.46251 10.4566C9.0257 10.4566 9.58328 10.5685 10.1029 10.7858C10.6225 11.003 11.0937 11.3214 11.4893 11.7222C11.8379 12.0908 12.3822 11.5408 12.0236 11.1936C11.5579 10.7223 11.0032 10.348 10.3918 10.0926C9.78043 9.83711 9.12442 9.7055 8.46181 9.70536ZM18.0006 11.6259H20.2499V15.002H17.9992L18.0006 11.6259ZM8.46039 12.0624C7.74179 12.0624 7.05438 12.3501 6.54696 12.8618C6.17845 13.219 6.72839 13.7632 7.08131 13.3905C7.26137 13.2073 7.47612 13.0618 7.71301 12.9624C7.94991 12.8631 8.20422 12.8119 8.4611 12.8119C8.71798 12.8119 8.97228 12.8631 9.20918 12.9624C9.44608 13.0618 9.66082 13.2073 9.84089 13.3905C10.1938 13.759 10.7395 13.2161 10.3724 12.8618C10.1222 12.6087 9.8242 12.4076 9.49576 12.2704C9.16732 12.1332 8.81634 12.0625 8.46039 12.0624ZM2.25097 15.7532H21.7509C22.1733 15.7532 22.5007 16.0863 22.5007 16.503V20.2504C22.5007 20.6728 22.1619 21.0016 21.7495 21.0016H2.25239C2.15348 21.0026 2.05537 20.9838 1.96381 20.9464C1.87224 20.909 1.78905 20.8537 1.71911 20.7837C1.64916 20.7138 1.59387 20.6306 1.55645 20.539C1.51903 20.4475 1.50025 20.3494 1.5012 20.2504V16.503C1.5012 16.0863 1.83002 15.7518 2.25239 15.7518L2.25097 15.7532ZM4.12329 16.503C3.8252 16.503 3.53932 16.6214 3.32854 16.8322C3.11775 17.043 2.99934 17.3288 2.99934 17.6269C2.99934 17.925 3.11775 18.2109 3.32854 18.4217C3.53932 18.6325 3.8252 18.7509 4.12329 18.7509C4.27564 18.7585 4.42796 18.7351 4.57098 18.6821C4.71401 18.6291 4.84476 18.5475 4.9553 18.4424C5.06584 18.3373 5.15385 18.2108 5.21398 18.0706C5.27412 17.9304 5.30513 17.7795 5.30513 17.6269C5.30513 17.4744 5.27412 17.3234 5.21398 17.1833C5.15385 17.0431 5.06584 16.9166 4.9553 16.8115C4.84476 16.7063 4.71401 16.6248 4.57098 16.5717C4.42796 16.5187 4.27564 16.4953 4.12329 16.503ZM7.12808 16.503C6.49594 16.503 5.99987 17.009 5.99987 17.6255C5.99987 18.2421 6.50303 18.7509 7.12808 18.7509C7.42617 18.7509 7.71205 18.6325 7.92284 18.4217C8.13362 18.2109 8.25204 17.925 8.25204 17.6269C8.25204 17.3288 8.13362 17.043 7.92284 16.8322C7.71205 16.6214 7.42617 16.503 7.12808 16.503ZM10.1272 16.503C9.97616 16.4972 9.82552 16.522 9.68427 16.5757C9.54301 16.6295 9.41403 16.7112 9.30502 16.8158C9.19601 16.9205 9.1092 17.0461 9.04978 17.1851C8.99036 17.3241 8.95953 17.4736 8.95915 17.6247C8.95877 17.7758 8.98884 17.9255 9.04756 18.0648C9.10628 18.204 9.19246 18.3301 9.30094 18.4353C9.40942 18.5405 9.53799 18.6228 9.67897 18.6773C9.81996 18.7318 9.97046 18.7573 10.1215 18.7523C10.4129 18.7427 10.6893 18.6204 10.8923 18.4111C11.0953 18.2019 11.2092 17.9219 11.2099 17.6304C11.2106 17.3388 11.0982 17.0583 10.8962 16.848C10.6943 16.6377 10.4186 16.514 10.1272 16.503ZM4.12329 17.2499C4.32314 17.2499 4.50031 17.4143 4.50031 17.6255C4.50031 17.7251 4.46074 17.8207 4.3903 17.8911C4.31986 17.9615 4.22433 18.0011 4.12471 18.0011C4.0251 18.0011 3.92956 17.9615 3.85912 17.8911C3.78869 17.8207 3.74911 17.7251 3.74911 17.6255C3.74911 17.4143 3.92345 17.2499 4.12329 17.2499ZM7.12808 17.2499C7.32934 17.2499 7.50084 17.4143 7.50084 17.6255C7.50084 17.8367 7.33076 17.9997 7.12808 17.9997C6.9254 17.9997 6.74965 17.8381 6.74965 17.6255C6.74965 17.4129 6.92681 17.2499 7.12808 17.2499ZM10.1272 17.2499C10.3242 17.2499 10.5 17.4143 10.5 17.6255C10.5 17.8367 10.3299 17.9997 10.1272 17.9997C9.92309 17.9997 9.75018 17.8381 9.75018 17.6255C9.75018 17.4129 9.93018 17.2499 10.1272 17.2499ZM12.3737 17.2499C11.8847 17.2499 11.8847 17.9997 12.3737 17.9997H15.7527C16.2416 17.9997 16.2416 17.2485 15.7527 17.2485L12.3737 17.2499ZM17.4379 17.2499C16.9475 17.2499 16.9475 17.9997 17.4379 17.9997H18.3762C18.8652 17.9997 18.8652 17.2485 18.3762 17.2485L17.4379 17.2499ZM3.37352 21.7514H5.24867V22.5012H3.37493L3.37352 21.7514ZM18.7489 21.7514H20.6241V22.5012H18.7518L18.7489 21.7514Z" fill="white"/>
</g>
<defs>
<clipPath id="clip0_3219_1969">
<rect width="24" height="24" fill="white"/>
</clipPath>
</defs>
</svg>
