<svg width="24" height="24" viewBox="0 0 24 24" fill="none" xmlns="http://www.w3.org/2000/svg">
<path d="M17.9521 7.26947C16.9051 0.366844 7.09326 0.364969 6.04589 7.26947C5.36871 7.24251 4.69296 7.35116 4.05837 7.58906C3.42377 7.82695 2.84313 8.18928 2.35054 8.65475C1.85796 9.12023 1.46338 9.67946 1.18999 10.2996C0.916593 10.9197 0.7699 11.5882 0.758529 12.2659C0.747157 12.9435 0.871336 13.6165 1.12377 14.2455C1.3762 14.8745 1.75179 15.4466 2.22848 15.9283C2.70517 16.4101 3.27333 16.7917 3.89959 17.0507C4.52584 17.3098 5.19756 17.4411 5.87526 17.4368H7.12401C7.32293 17.4368 7.51369 17.3578 7.65434 17.2172C7.795 17.0765 7.87401 16.8858 7.87401 16.6868C7.87401 16.4879 7.795 16.2972 7.65434 16.1565C7.51369 16.0159 7.32293 15.9368 7.12401 15.9368H5.87526C5.36969 15.9418 4.86875 15.84 4.40525 15.638C3.94174 15.436 3.52613 15.1384 3.1856 14.7647C2.84508 14.391 2.58732 13.9495 2.4292 13.4693C2.27109 12.989 2.21618 12.4808 2.26807 11.9779C2.31997 11.4749 2.47749 10.9886 2.73033 10.5508C2.98318 10.1129 3.32564 9.73344 3.7353 9.43711C4.14497 9.14078 4.6126 8.93431 5.10758 8.83121C5.60256 8.72811 6.11373 8.73071 6.60764 8.83884C6.72336 8.86033 6.8425 8.85455 6.95559 8.82195C7.06869 8.78935 7.17262 8.73083 7.25915 8.65104C7.34567 8.57124 7.4124 8.47238 7.45404 8.36229C7.49568 8.2522 7.51108 8.13392 7.49901 8.01684C7.74689 2.10909 16.2466 2.10684 16.499 8.00972C16.486 8.1273 16.5007 8.2463 16.5418 8.35721C16.583 8.46811 16.6496 8.56783 16.7362 8.64841C16.8229 8.72898 16.9271 8.78817 17.0407 8.82124C17.1543 8.8543 17.2741 8.86033 17.3904 8.83884C17.8843 8.73071 18.3955 8.72811 18.8905 8.83121C19.3854 8.93431 19.8531 9.14078 20.2627 9.43711C20.6724 9.73344 21.0149 10.1129 21.2677 10.5508C21.5205 10.9886 21.6781 11.4749 21.73 11.9779C21.7818 12.4808 21.7269 12.989 21.5688 13.4693C21.4107 13.9495 21.153 14.391 20.8124 14.7647C20.4719 15.1384 20.0563 15.436 19.5928 15.638C19.1293 15.84 18.6283 15.9418 18.1228 15.9368H16.874C16.6751 15.9368 16.4843 16.0159 16.3437 16.1565C16.203 16.2972 16.124 16.4879 16.124 16.6868C16.124 16.8858 16.203 17.0765 16.3437 17.2172C16.4843 17.3578 16.6751 17.4368 16.874 17.4368H18.1228C18.8005 17.4411 19.4722 17.3098 20.0984 17.0507C20.7247 16.7917 21.2929 16.4101 21.7695 15.9283C22.2462 15.4466 22.6218 14.8745 22.8743 14.2455C23.1267 13.6165 23.2509 12.9435 23.2395 12.2659C23.2281 11.5882 23.0814 10.9197 22.808 10.2996C22.5346 9.67946 22.1401 9.12023 21.6475 8.65475C21.1549 8.18928 20.5743 7.82695 19.9397 7.58906C19.3051 7.35116 18.6293 7.24251 17.9521 7.26947Z" fill="white"/>
<path d="M9.90306 11.2826C9.76143 11.1436 9.5709 11.0657 9.37244 11.0657C9.17398 11.0657 8.98345 11.1436 8.84181 11.2826L6.96681 13.1572C6.86425 13.263 6.79489 13.3965 6.76728 13.5413C6.73967 13.686 6.75502 13.8356 6.81143 13.9717C6.86785 14.1079 6.96286 14.2245 7.08476 14.3072C7.20666 14.39 7.35012 14.4353 7.49744 14.4375C7.91256 14.4851 8.34944 13.8615 8.62244 13.623V21.1875C8.62244 21.3864 8.70146 21.5772 8.84211 21.7178C8.98276 21.8585 9.17353 21.9375 9.37244 21.9375C9.57135 21.9375 9.76212 21.8585 9.90277 21.7178C10.0434 21.5772 10.1224 21.3864 10.1224 21.1875V13.623C10.3992 13.8641 10.8282 14.4829 11.2474 14.4375C11.3947 14.4352 11.5381 14.3899 11.66 14.3071C11.7818 14.2243 11.8768 14.1077 11.9332 13.9716C11.9895 13.8355 12.0048 13.6859 11.9772 13.5412C11.9496 13.3965 11.8802 13.263 11.7777 13.1572L9.90306 11.2826ZM13.8724 19.377L13.2777 18.7822C13.1362 18.6456 12.9468 18.57 12.7501 18.5717C12.5535 18.5735 12.3654 18.6523 12.2263 18.7914C12.0873 18.9304 12.0084 19.1186 12.0067 19.3152C12.005 19.5118 12.0806 19.7013 12.2172 19.8428L14.0918 21.7174C14.2334 21.8564 14.424 21.9343 14.6224 21.9343C14.8209 21.9343 15.0114 21.8564 15.1531 21.7174L17.0281 19.8428C17.1687 19.702 17.2477 19.5112 17.2476 19.3122C17.2475 19.1133 17.1684 18.9225 17.0277 18.7819C16.887 18.6412 16.6961 18.5623 16.4972 18.5623C16.2982 18.5624 16.1074 18.6415 15.9668 18.7822L15.3724 19.377V11.8125C15.3724 11.6136 15.2934 11.4228 15.1528 11.2822C15.0121 11.1415 14.8214 11.0625 14.6224 11.0625C14.4235 11.0625 14.2328 11.1415 14.0921 11.2822C13.9515 11.4228 13.8724 11.6136 13.8724 11.8125V19.377ZM14.6224 9.9375C14.8214 9.9375 15.0121 9.85848 15.1528 9.71783C15.2934 9.57718 15.3724 9.38641 15.3724 9.1875C15.3724 8.98859 15.2934 8.79782 15.1528 8.65717C15.0121 8.51652 14.8214 8.4375 14.6224 8.4375C14.4235 8.4375 14.2328 8.51652 14.0921 8.65717C13.9515 8.79782 13.8724 8.98859 13.8724 9.1875C13.8724 9.38641 13.9515 9.57718 14.0921 9.71783C14.2328 9.85848 14.4235 9.9375 14.6224 9.9375Z" fill="white"/>
</svg>
