<svg width="40" height="40" viewBox="0 0 40 40" fill="none" xmlns="http://www.w3.org/2000/svg">
<path d="M13.3346 10.0013C13.3346 10.8854 12.9834 11.7332 12.3583 12.3583C11.7332 12.9834 10.8854 13.3346 10.0013 13.3346C9.11725 13.3346 8.2694 12.9834 7.64428 12.3583C7.01916 11.7332 6.66797 10.8854 6.66797 10.0013C6.66797 9.11725 7.01916 8.2694 7.64428 7.64428C8.2694 7.01916 9.11725 6.66797 10.0013 6.66797C10.8854 6.66797 11.7332 7.01916 12.3583 7.64428C12.9834 8.2694 13.3346 9.11725 13.3346 10.0013ZM13.3346 20.0013C13.3346 20.8854 12.9834 21.7332 12.3583 22.3583C11.7332 22.9834 10.8854 23.3346 10.0013 23.3346C9.11725 23.3346 8.2694 22.9834 7.64428 22.3583C7.01916 21.7332 6.66797 20.8854 6.66797 20.0013C6.66797 19.1172 7.01916 18.2694 7.64428 17.6443C8.2694 17.0192 9.11725 16.668 10.0013 16.668C10.8854 16.668 11.7332 17.0192 12.3583 17.6443C12.9834 18.2694 13.3346 19.1172 13.3346 20.0013ZM10.0013 33.3346C10.8854 33.3346 11.7332 32.9834 12.3583 32.3583C12.9834 31.7332 13.3346 30.8854 13.3346 30.0013C13.3346 29.1172 12.9834 28.2694 12.3583 27.6443C11.7332 27.0192 10.8854 26.668 10.0013 26.668C9.11725 26.668 8.2694 27.0192 7.64428 27.6443C7.01916 28.2694 6.66797 29.1172 6.66797 30.0013C6.66797 30.8854 7.01916 31.7332 7.64428 32.3583C8.2694 32.9834 9.11725 33.3346 10.0013 33.3346ZM23.3346 10.0013C23.3346 10.8854 22.9834 11.7332 22.3583 12.3583C21.7332 12.9834 20.8854 13.3346 20.0013 13.3346C19.1172 13.3346 18.2694 12.9834 17.6443 12.3583C17.0192 11.7332 16.668 10.8854 16.668 10.0013C16.668 9.11725 17.0192 8.2694 17.6443 7.64428C18.2694 7.01916 19.1172 6.66797 20.0013 6.66797C20.8854 6.66797 21.7332 7.01916 22.3583 7.64428C22.9834 8.2694 23.3346 9.11725 23.3346 10.0013ZM20.0013 23.3346C20.8854 23.3346 21.7332 22.9834 22.3583 22.3583C22.9834 21.7332 23.3346 20.8854 23.3346 20.0013C23.3346 19.1172 22.9834 18.2694 22.3583 17.6443C21.7332 17.0192 20.8854 16.668 20.0013 16.668C19.1172 16.668 18.2694 17.0192 17.6443 17.6443C17.0192 18.2694 16.668 19.1172 16.668 20.0013C16.668 20.8854 17.0192 21.7332 17.6443 22.3583C18.2694 22.9834 19.1172 23.3346 20.0013 23.3346ZM23.3346 30.0013C23.3346 30.8854 22.9834 31.7332 22.3583 32.3583C21.7332 32.9834 20.8854 33.3346 20.0013 33.3346C19.1172 33.3346 18.2694 32.9834 17.6443 32.3583C17.0192 31.7332 16.668 30.8854 16.668 30.0013C16.668 29.1172 17.0192 28.2694 17.6443 27.6443C18.2694 27.0192 19.1172 26.668 20.0013 26.668C20.8854 26.668 21.7332 27.0192 22.3583 27.6443C22.9834 28.2694 23.3346 29.1172 23.3346 30.0013ZM30.0013 13.3346C30.8854 13.3346 31.7332 12.9834 32.3583 12.3583C32.9834 11.7332 33.3346 10.8854 33.3346 10.0013C33.3346 9.11725 32.9834 8.2694 32.3583 7.64428C31.7332 7.01916 30.8854 6.66797 30.0013 6.66797C29.1172 6.66797 28.2694 7.01916 27.6443 7.64428C27.0192 8.2694 26.668 9.11725 26.668 10.0013C26.668 10.8854 27.0192 11.7332 27.6443 12.3583C28.2694 12.9834 29.1172 13.3346 30.0013 13.3346ZM33.3346 20.0013C33.3346 20.8854 32.9834 21.7332 32.3583 22.3583C31.7332 22.9834 30.8854 23.3346 30.0013 23.3346C29.1172 23.3346 28.2694 22.9834 27.6443 22.3583C27.0192 21.7332 26.668 20.8854 26.668 20.0013C26.668 19.1172 27.0192 18.2694 27.6443 17.6443C28.2694 17.0192 29.1172 16.668 30.0013 16.668C30.8854 16.668 31.7332 17.0192 32.3583 17.6443C32.9834 18.2694 33.3346 19.1172 33.3346 20.0013ZM30.0013 33.3346C30.8854 33.3346 31.7332 32.9834 32.3583 32.3583C32.9834 31.7332 33.3346 30.8854 33.3346 30.0013C33.3346 29.1172 32.9834 28.2694 32.3583 27.6443C31.7332 27.0192 30.8854 26.668 30.0013 26.668C29.1172 26.668 28.2694 27.0192 27.6443 27.6443C27.0192 28.2694 26.668 29.1172 26.668 30.0013C26.668 30.8854 27.0192 31.7332 27.6443 32.3583C28.2694 32.9834 29.1172 33.3346 30.0013 33.3346Z" fill="#045284"/>
</svg>
