<svg width="24" height="20" viewBox="0 0 24 20" fill="none" xmlns="http://www.w3.org/2000/svg">
<path d="M21.0935 12.9771C21.0586 12.9422 21.0173 12.9146 20.9718 12.8958C20.9263 12.8769 20.8775 12.8672 20.8283 12.8672C20.779 12.8672 20.7303 12.8769 20.6848 12.8958C20.6393 12.9146 20.5979 12.9422 20.5631 12.9771L20.0694 13.4708L19.4839 12.8853C19.9192 12.3689 20.2321 11.7606 20.399 11.1061C20.566 10.4516 20.5828 9.76781 20.448 9.10591C20.3133 8.44402 20.0306 7.82117 19.6211 7.28401C19.2116 6.74685 18.6858 6.30928 18.0833 6.00408C18.0781 5.9869 18.0718 5.9701 18.0642 5.95383C17.2968 4.32713 16.0827 2.95216 14.5635 1.98928C13.0443 1.0264 11.2827 0.515313 9.48403 0.515625C4.25452 0.515625 0 4.77014 0 9.99966C0 15.2292 4.25452 19.4837 9.48403 19.4837C11.292 19.4814 13.0618 18.9635 14.5859 17.9909C16.11 17.0183 17.325 15.6312 18.0886 13.9924C18.3987 13.8348 18.6893 13.6416 18.9544 13.4165L19.539 14.0011L19.0453 14.495C18.975 14.5653 18.9355 14.6607 18.9355 14.7601C18.9355 14.8596 18.975 14.9549 19.0453 15.0253L21.529 17.509C21.663 17.6457 21.8228 17.7545 21.9991 17.8291C22.1754 17.9037 22.3647 17.9426 22.5562 17.9435C22.7476 17.9445 22.9373 17.9074 23.1144 17.8346C23.2914 17.7618 23.4523 17.6546 23.5876 17.5192C23.723 17.3838 23.8301 17.223 23.9029 17.0459C23.9757 16.8689 24.0127 16.6792 24.0118 16.4877C24.0108 16.2963 23.9719 16.1069 23.8973 15.9306C23.8227 15.7543 23.7139 15.5946 23.5771 15.4606L21.0935 12.9771ZM17.0501 5.63442C16.7276 5.56271 16.3983 5.52663 16.0679 5.52684C15.2704 5.52495 14.4871 5.73761 13.8001 6.14255C13.7193 5.77586 13.628 5.42381 13.5263 5.08641C14.2678 4.7347 14.9601 4.28757 15.5857 3.75638C16.1575 4.31238 16.6503 4.9443 17.0501 5.63442ZM9.85903 1.36167C10.9298 1.59605 11.9266 2.82098 12.5979 4.66903C11.7218 5.00558 10.7968 5.19775 9.85903 5.23805V1.36167ZM5.68069 4.3695C5.06005 4.06691 4.47779 3.69123 3.94631 3.25045C4.94976 2.42456 6.12524 1.83357 7.38666 1.52077C6.90037 1.99392 6.45661 2.63686 6.07355 3.43509C5.9318 3.73097 5.80083 4.04334 5.68069 4.3695ZM6.75 3.75956C7.4002 2.40488 8.24344 1.55484 9.10908 1.36233V5.23805C8.17112 5.19774 7.24593 5.00549 6.36956 4.6688C6.48544 4.35066 6.61223 4.04653 6.75 3.75956ZM9.10908 5.98842V9.62466H5.51845C5.5485 8.1022 5.7615 6.65109 6.13528 5.38247C7.08731 5.7437 8.09161 5.94834 9.10908 5.98842ZM9.10908 10.3747V14.0109C8.09155 14.0509 7.08722 14.2556 6.13514 14.6168C5.76136 13.3482 5.54836 11.8971 5.51831 10.3747H9.10908ZM9.10908 14.7613V18.637C8.24344 18.4445 7.4002 17.5947 6.75 16.2397C6.61228 15.9527 6.48548 15.6487 6.36956 15.3304C7.24592 14.9937 8.17115 14.8015 9.10908 14.7613ZM6.07383 16.5642C6.45689 17.3625 6.90066 18.0054 7.38694 18.4785C6.12552 18.1657 4.95004 17.5748 3.94659 16.7489C4.47808 16.3081 5.06033 15.9324 5.68097 15.6298C5.80083 15.956 5.93184 16.2683 6.07383 16.5642ZM9.85908 18.6383V14.7613C10.7974 14.8016 11.7229 14.994 12.5995 15.3309C11.9293 17.1823 10.9349 18.4052 9.85908 18.6383ZM13.2886 15.6304C13.9092 15.9331 14.4915 16.3089 15.023 16.7498C14.0175 17.5737 12.8414 18.1637 11.5799 18.4773C12.2548 17.822 12.841 16.8499 13.2886 15.6304ZM9.85908 14.0109V10.3747H11.6137C11.6998 11.4277 12.1575 12.4159 12.9052 13.1625C12.9794 13.2367 13.0558 13.308 13.1344 13.3762C13.0486 13.8104 12.9479 14.2239 12.8324 14.6167C11.8805 14.2555 10.8764 14.0509 9.85908 14.0109ZM11.6137 9.62466H9.85903V5.98842C10.8762 5.94838 11.8801 5.74387 12.8318 5.38284C12.9471 5.77491 13.0485 6.18909 13.1344 6.62311C13.0559 6.69145 12.9795 6.7627 12.9052 6.83686C12.1575 7.58344 11.6998 8.57159 11.6137 9.62466ZM15.0201 3.25167C14.489 3.69195 13.9072 4.06724 13.2872 4.36959C12.8385 3.15084 12.2503 2.17838 11.5746 1.52259C12.8366 1.83756 14.0133 2.42805 15.0201 3.25167ZM3.38273 3.75666C4.00808 4.28762 4.70013 4.73459 5.4413 5.08622C5.03184 6.44442 4.79911 7.99861 4.76822 9.62466H0.758578C0.853004 7.40559 1.79173 5.30646 3.38273 3.75666ZM0.758578 10.3747H4.76822C4.7993 12.0007 5.03184 13.5549 5.4413 14.9131C4.70013 15.2647 4.00808 15.7117 3.38273 16.2427C1.79173 14.6929 0.853004 12.5937 0.758578 10.3747ZM15.5878 16.2447C14.9619 15.7129 14.2691 15.2653 13.527 14.9132C13.6282 14.5762 13.7193 14.2241 13.8003 13.8569C14.4873 14.2617 15.2705 14.4744 16.0679 14.4725C16.3984 14.4727 16.7279 14.4365 17.0505 14.3647C16.6512 15.0553 16.1591 15.6879 15.5878 16.2447ZM16.0679 13.7225C15.2066 13.7225 14.3719 13.4239 13.7061 12.8775C13.0403 12.3311 12.5846 11.5707 12.4166 10.726C12.2485 9.88121 12.3786 9.00432 12.7846 8.24472C13.1906 7.48512 13.8475 6.8898 14.6432 6.56019C15.4389 6.23058 16.3244 6.18708 17.1486 6.4371C17.9728 6.68712 18.6848 7.21519 19.1633 7.93134C19.6418 8.64748 19.8572 9.50739 19.7728 10.3646C19.6884 11.2217 19.3094 12.0231 18.7004 12.6321C18.3555 12.9789 17.9452 13.2538 17.4934 13.441C17.0415 13.6282 16.557 13.7239 16.0679 13.7225ZM23.0468 16.9785C22.9157 17.1093 22.7382 17.1827 22.5531 17.1827C22.3679 17.1827 22.1904 17.1093 22.0593 16.9785L19.8408 14.76L20.8283 13.7725L23.0468 15.991C23.1776 16.1221 23.251 16.2997 23.251 16.4848C23.251 16.6699 23.1776 16.8475 23.0468 16.9785Z" fill="white"/>
</svg>
