<svg width="95" height="90" viewBox="0 0 95 90" fill="none" xmlns="http://www.w3.org/2000/svg">
<path d="M25.4961 37L46.9961 61.5L89.9961 9" stroke="url(#paint0_linear_4872_30922)" stroke-width="10" stroke-linecap="round" stroke-linejoin="round"/>
<path d="M45 4.38631C45 1.96382 43.0315 -0.0221643 40.6205 0.213587C33.2672 0.932604 26.1799 3.45417 19.9993 7.58387C12.5991 12.5285 6.83136 19.5566 3.42542 27.7792C0.0194776 36.0019 -0.871673 45.0499 0.864662 53.7791C2.601 62.5082 6.88683 70.5264 13.1802 76.8198C19.4736 83.1132 27.4918 87.399 36.2209 89.1353C44.9501 90.8717 53.9981 89.9805 62.2208 86.5746C70.4434 83.1686 77.4715 77.4009 82.4161 70.0007C86.5458 63.8201 89.0674 56.7328 89.7864 49.3795C90.0222 46.9685 88.0362 45 85.6137 45C83.1912 45 81.2548 46.971 80.9622 49.3757C80.2789 54.991 78.2872 60.3898 75.122 65.1269C71.1413 71.0844 65.4833 75.7278 58.8636 78.4697C52.2439 81.2117 44.9598 81.9291 37.9324 80.5313C30.905 79.1334 24.4499 75.6831 19.3834 70.6166C14.3169 65.5501 10.8666 59.095 9.46872 52.0676C8.07088 45.0402 8.7883 37.7561 11.5303 31.1364C14.2722 24.5167 18.9156 18.8588 24.8731 14.878C29.6102 11.7128 35.009 9.72106 40.6243 9.03783C43.029 8.74523 45 6.8088 45 4.38631Z" fill="url(#paint1_linear_4872_30922)"/>
<defs>
<linearGradient id="paint0_linear_4872_30922" x1="25.4961" y1="35.25" x2="89.9961" y2="9" gradientUnits="userSpaceOnUse">
<stop stop-color="#0A4E79"/>
<stop offset="1" stop-color="#38A7EF"/>
</linearGradient>
<linearGradient id="paint1_linear_4872_30922" x1="45" y1="0" x2="80.625" y2="45" gradientUnits="userSpaceOnUse">
<stop stop-color="#048DDF"/>
<stop offset="0.475" stop-color="#1F88CB"/>
<stop offset="1" stop-color="#006CB1"/>
</linearGradient>
</defs>
</svg>
