<svg width="86" height="125" viewBox="0 0 86 125" fill="none" xmlns="http://www.w3.org/2000/svg">
<rect width="86" height="86" rx="43" fill="#1DB42C"/>
<rect opacity="0.01" x="21" y="21" width="44" height="44" fill="white"/>
<path fill-rule="evenodd" clip-rule="evenodd" d="M56.9548 31.7695L59.8716 34.6863L36.8834 57.6746L23.668 44.4592L26.5848 41.5423L36.8826 51.8392L56.9548 31.7695Z" fill="white"/>
<path d="M19.8514 121.14C19.0581 121.14 18.3254 121.042 17.6534 120.846C16.9908 120.641 16.4214 120.361 15.9454 120.006L16.5054 118.592C16.8228 118.816 17.1541 119.007 17.4994 119.166C17.8448 119.315 18.2134 119.432 18.6054 119.516C18.9974 119.591 19.4128 119.628 19.8514 119.628C20.5888 119.628 21.1208 119.507 21.4474 119.264C21.7741 119.021 21.9374 118.704 21.9374 118.312C21.9374 117.967 21.8254 117.705 21.6014 117.528C21.3774 117.341 20.9761 117.187 20.3974 117.066L18.8154 116.744C17.9101 116.557 17.2334 116.245 16.7854 115.806C16.3374 115.367 16.1134 114.779 16.1134 114.042C16.1134 113.426 16.2768 112.889 16.6034 112.432C16.9301 111.975 17.3874 111.62 17.9754 111.368C18.5634 111.116 19.2494 110.99 20.0334 110.99C20.7334 110.99 21.3821 111.093 21.9794 111.298C22.5768 111.494 23.0761 111.779 23.4774 112.152L22.9174 113.496C22.5161 113.16 22.0774 112.913 21.6014 112.754C21.1254 112.586 20.5934 112.502 20.0054 112.502C19.3428 112.502 18.8248 112.633 18.4514 112.894C18.0874 113.146 17.9054 113.496 17.9054 113.944C17.9054 114.289 18.0174 114.565 18.2414 114.77C18.4748 114.975 18.8668 115.134 19.4174 115.246L20.9854 115.554C21.9188 115.741 22.6094 116.049 23.0574 116.478C23.5054 116.898 23.7294 117.467 23.7294 118.186C23.7294 118.774 23.5708 119.292 23.2534 119.74C22.9361 120.179 22.4881 120.524 21.9094 120.776C21.3308 121.019 20.6448 121.14 19.8514 121.14ZM27.8389 121.14C26.9709 121.14 26.3222 120.902 25.8929 120.426C25.4635 119.95 25.2489 119.222 25.2489 118.242V113.93H26.9989V118.228C26.9989 118.751 27.1062 119.138 27.3209 119.39C27.5355 119.633 27.8622 119.754 28.3009 119.754C28.7955 119.754 29.1969 119.586 29.5049 119.25C29.8222 118.914 29.9809 118.471 29.9809 117.92V113.93H31.7309V121H30.0229V119.558H30.2189C30.0135 120.062 29.7009 120.454 29.2809 120.734C28.8702 121.005 28.3895 121.14 27.8389 121.14ZM36.8787 121.14C36.1507 121.14 35.5114 120.991 34.9607 120.692C34.4194 120.393 33.9994 119.969 33.7007 119.418C33.402 118.858 33.2527 118.195 33.2527 117.43C33.2527 116.665 33.402 116.011 33.7007 115.47C34.0087 114.929 34.4334 114.513 34.9747 114.224C35.516 113.935 36.1507 113.79 36.8787 113.79C37.3454 113.79 37.798 113.865 38.2367 114.014C38.6847 114.154 39.0487 114.359 39.3287 114.63L38.7967 115.848C38.5447 115.615 38.26 115.442 37.9427 115.33C37.6347 115.209 37.3314 115.148 37.0327 115.148C36.4074 115.148 35.9174 115.344 35.5627 115.736C35.2174 116.128 35.0447 116.697 35.0447 117.444C35.0447 118.191 35.2174 118.765 35.5627 119.166C35.9174 119.567 36.4074 119.768 37.0327 119.768C37.322 119.768 37.6207 119.712 37.9287 119.6C38.246 119.488 38.5354 119.315 38.7967 119.082L39.3287 120.286C39.0394 120.557 38.6707 120.767 38.2227 120.916C37.784 121.065 37.336 121.14 36.8787 121.14ZM43.7967 121.14C43.0687 121.14 42.4293 120.991 41.8787 120.692C41.3373 120.393 40.9173 119.969 40.6187 119.418C40.32 118.858 40.1707 118.195 40.1707 117.43C40.1707 116.665 40.32 116.011 40.6187 115.47C40.9267 114.929 41.3513 114.513 41.8927 114.224C42.434 113.935 43.0687 113.79 43.7967 113.79C44.2633 113.79 44.716 113.865 45.1547 114.014C45.6027 114.154 45.9667 114.359 46.2467 114.63L45.7147 115.848C45.4627 115.615 45.178 115.442 44.8607 115.33C44.5527 115.209 44.2493 115.148 43.9507 115.148C43.3253 115.148 42.8353 115.344 42.4807 115.736C42.1353 116.128 41.9627 116.697 41.9627 117.444C41.9627 118.191 42.1353 118.765 42.4807 119.166C42.8353 119.567 43.3253 119.768 43.9507 119.768C44.24 119.768 44.5387 119.712 44.8467 119.6C45.164 119.488 45.4533 119.315 45.7147 119.082L46.2467 120.286C45.9573 120.557 45.5887 120.767 45.1407 120.916C44.702 121.065 44.254 121.14 43.7967 121.14ZM50.8826 121.14C49.6973 121.14 48.7686 120.813 48.0966 120.16C47.4246 119.507 47.0886 118.611 47.0886 117.472C47.0886 116.735 47.2333 116.091 47.5226 115.54C47.812 114.989 48.2133 114.56 48.7266 114.252C49.2493 113.944 49.856 113.79 50.5466 113.79C51.228 113.79 51.7973 113.935 52.2546 114.224C52.712 114.513 53.0573 114.919 53.2906 115.442C53.5333 115.965 53.6546 116.576 53.6546 117.276V117.738H48.5026V116.814H52.4086L52.1706 117.01C52.1706 116.357 52.0306 115.857 51.7506 115.512C51.48 115.167 51.0833 114.994 50.5606 114.994C49.982 114.994 49.534 115.199 49.2166 115.61C48.9086 116.021 48.7546 116.595 48.7546 117.332V117.514C48.7546 118.279 48.9413 118.853 49.3146 119.236C49.6973 119.609 50.234 119.796 50.9246 119.796C51.326 119.796 51.6993 119.745 52.0446 119.642C52.3993 119.53 52.7353 119.353 53.0526 119.11L53.5706 120.286C53.2346 120.557 52.8333 120.767 52.3666 120.916C51.9 121.065 51.4053 121.14 50.8826 121.14ZM57.6566 121.14C57.0499 121.14 56.4899 121.07 55.9766 120.93C55.4726 120.781 55.0479 120.575 54.7026 120.314L55.1926 119.138C55.5472 119.381 55.9392 119.567 56.3686 119.698C56.7979 119.829 57.2319 119.894 57.6706 119.894C58.1372 119.894 58.4826 119.815 58.7066 119.656C58.9399 119.497 59.0566 119.283 59.0566 119.012C59.0566 118.797 58.9819 118.629 58.8326 118.508C58.6926 118.377 58.4639 118.279 58.1466 118.214L56.7466 117.948C56.1492 117.817 55.6919 117.593 55.3746 117.276C55.0666 116.959 54.9126 116.543 54.9126 116.03C54.9126 115.591 55.0292 115.204 55.2626 114.868C55.5052 114.532 55.8459 114.271 56.2846 114.084C56.7326 113.888 57.2552 113.79 57.8526 113.79C58.3752 113.79 58.8652 113.86 59.3226 114C59.7892 114.14 60.1812 114.35 60.4986 114.63L59.9946 115.764C59.7052 115.531 59.3739 115.349 59.0006 115.218C58.6272 115.087 58.2632 115.022 57.9086 115.022C57.4232 115.022 57.0686 115.111 56.8446 115.288C56.6206 115.456 56.5086 115.675 56.5086 115.946C56.5086 116.151 56.5739 116.324 56.7046 116.464C56.8446 116.595 57.0592 116.693 57.3486 116.758L58.7486 117.024C59.3739 117.145 59.8452 117.36 60.1626 117.668C60.4892 117.967 60.6526 118.377 60.6526 118.9C60.6526 119.367 60.5266 119.768 60.2746 120.104C60.0226 120.44 59.6726 120.697 59.2246 120.874C58.7766 121.051 58.2539 121.14 57.6566 121.14ZM64.6702 121.14C64.0636 121.14 63.5036 121.07 62.9902 120.93C62.4862 120.781 62.0616 120.575 61.7162 120.314L62.2062 119.138C62.5609 119.381 62.9529 119.567 63.3822 119.698C63.8116 119.829 64.2456 119.894 64.6842 119.894C65.1509 119.894 65.4962 119.815 65.7202 119.656C65.9536 119.497 66.0702 119.283 66.0702 119.012C66.0702 118.797 65.9956 118.629 65.8462 118.508C65.7062 118.377 65.4776 118.279 65.1602 118.214L63.7602 117.948C63.1629 117.817 62.7056 117.593 62.3882 117.276C62.0802 116.959 61.9262 116.543 61.9262 116.03C61.9262 115.591 62.0429 115.204 62.2762 114.868C62.5189 114.532 62.8596 114.271 63.2982 114.084C63.7462 113.888 64.2689 113.79 64.8662 113.79C65.3889 113.79 65.8789 113.86 66.3362 114C66.8029 114.14 67.1949 114.35 67.5122 114.63L67.0082 115.764C66.7189 115.531 66.3876 115.349 66.0142 115.218C65.6409 115.087 65.2769 115.022 64.9222 115.022C64.4369 115.022 64.0822 115.111 63.8582 115.288C63.6342 115.456 63.5222 115.675 63.5222 115.946C63.5222 116.151 63.5876 116.324 63.7182 116.464C63.8582 116.595 64.0729 116.693 64.3622 116.758L65.7622 117.024C66.3876 117.145 66.8589 117.36 67.1762 117.668C67.5029 117.967 67.6662 118.377 67.6662 118.9C67.6662 119.367 67.5402 119.768 67.2882 120.104C67.0362 120.44 66.6862 120.697 66.2382 120.874C65.7902 121.051 65.2676 121.14 64.6702 121.14ZM69.4159 118.074L68.8699 111.13H71.0259L70.4799 118.074H69.4159ZM68.9679 121V119.054H70.9279V121H68.9679Z" fill="black"/>
</svg>
