<svg width="18" height="24" viewBox="0 0 18 24" fill="none" xmlns="http://www.w3.org/2000/svg">
<path d="M9.00683 23.829C8.49094 23.8402 7.9834 23.6975 7.54897 23.419C7.11455 23.1405 6.77293 22.739 6.56771 22.2655C6.3625 21.7921 6.30298 21.2682 6.39677 20.7608C6.49055 20.2534 6.73337 19.7854 7.09426 19.4166C7.45515 19.0477 7.91773 18.7948 8.42299 18.69C8.92826 18.5852 9.45328 18.6333 9.93109 18.8282C10.4089 19.023 10.8178 19.3558 11.1057 19.7841C11.3935 20.2124 11.5473 20.7167 11.5473 21.2327C11.5538 21.9136 11.2901 22.5693 10.8138 23.0561C10.3376 23.5428 9.68773 23.8207 9.00683 23.829ZM9.00683 19.1989C8.60218 19.1876 8.20336 19.2973 7.8614 19.5139C7.51944 19.7306 7.24987 20.0443 7.08718 20.415C6.92449 20.7857 6.87608 21.1964 6.94813 21.5948C7.02018 21.9931 7.20943 22.3609 7.49166 22.6511C7.77388 22.9413 8.13627 23.1407 8.53245 23.2239C8.92863 23.307 9.34061 23.27 9.71567 23.1177C10.0907 22.9654 10.4118 22.7047 10.6379 22.3689C10.864 22.0331 10.9848 21.6375 10.9848 21.2327C10.9915 20.7009 10.787 20.1882 10.4162 19.8069C10.0455 19.4256 9.5386 19.207 9.00683 19.1989ZM8.9997 12.0821C8.92511 12.0821 8.85358 12.0525 8.80083 11.9997C8.74809 11.947 8.71845 11.8755 8.71845 11.8009V0.375C8.71845 0.300408 8.74809 0.228871 8.80083 0.176126C8.85358 0.123382 8.92511 0.09375 8.9997 0.09375C9.0743 0.09375 9.14583 0.123382 9.19858 0.176126C9.25132 0.228871 9.28095 0.300408 9.28095 0.375V11.8009C9.28095 11.8755 9.25132 11.947 9.19858 11.9997C9.14583 12.0525 9.0743 12.0821 8.9997 12.0821Z" fill="white"/>
<path d="M17.5912 21.1741C17.0905 19.5246 16.2417 18.0018 15.102 16.7084C13.9624 15.4151 12.5584 14.3814 10.985 13.6771C10.8091 13.5939 10.6606 13.4623 10.5568 13.2977C10.4531 13.1331 10.3984 12.9423 10.3993 12.7477V12.7102C10.4015 12.3978 10.2799 12.0972 10.061 11.8742C9.84219 11.6513 9.54392 11.5241 9.23151 11.5205H8.76876C8.45635 11.5241 8.15808 11.6513 7.93923 11.8742C7.72037 12.0972 7.59876 12.3978 7.60101 12.7102V12.7477C7.60184 12.9423 7.54718 13.1331 7.44343 13.2977C7.33968 13.4623 7.19116 13.5939 7.01526 13.6771C5.44187 14.3813 4.03793 15.415 2.89826 16.7083C1.7586 18.0016 0.909758 19.5245 0.409075 21.1739C0.375915 21.2792 0.366804 21.3907 0.382413 21.4999C0.398022 21.6092 0.437952 21.7136 0.499262 21.8054C0.558685 21.8959 0.637652 21.9718 0.730335 22.0276C0.823019 22.0834 0.927054 22.1177 1.03476 22.1279C3.67851 22.3766 6.34101 22.5009 9.00351 22.5009C11.666 22.5009 14.3251 22.3766 16.9661 22.1279C17.0738 22.1177 17.1778 22.0834 17.2705 22.0276C17.3632 21.9718 17.4422 21.8959 17.5016 21.8054C17.5628 21.7136 17.6026 21.6092 17.6181 21.5C17.6336 21.3907 17.6244 21.2794 17.5912 21.1741Z" fill="white"/>
</svg>
