<svg width="24" height="20" viewBox="0 0 24 20" fill="none" xmlns="http://www.w3.org/2000/svg">
<path d="M23.7117 3.81524C23.6212 2.77673 22.5971 1.74904 21.5659 1.65857C19.8651 1.51021 19.6371 3.64879 19.5756 3.73199L16.091 7.21668C16.1163 6.90913 16.1127 6.84037 16.0801 6.51107C16.3949 6.30116 16.6011 5.95021 16.6011 5.54854V4.28924C16.6011 2.30629 14.9873 0.692383 13.0007 0.692383H10.9924C9.00942 0.692383 7.39551 2.30629 7.39551 4.28924V5.54854C7.39551 5.95021 7.60176 6.2976 7.90935 6.50746C7.88038 6.81866 7.88404 6.96341 7.90209 7.21673L4.42101 3.73204C4.34503 3.63435 4.13512 1.52109 2.43801 1.65501C1.4032 1.74182 0.379165 2.77312 0.288697 3.81524C0.140337 5.50513 2.25717 5.75118 2.32954 5.80546L7.61268 11.9389V12.0366H6.64649C5.41621 12.0366 4.41745 13.0353 4.41745 14.2656V15.5141C4.41745 16.3934 4.9349 17.146 5.6767 17.5079C5.17585 17.8616 4.70614 18.2575 4.2727 18.6912C4.23915 18.7246 4.21254 18.7644 4.19438 18.8082C4.17622 18.8519 4.16687 18.8989 4.16687 18.9463C4.16687 18.9936 4.17622 19.0406 4.19438 19.0843C4.21254 19.1281 4.23915 19.1679 4.2727 19.2014C4.30617 19.2349 4.34593 19.2615 4.38971 19.2797C4.43349 19.2979 4.48042 19.3072 4.52781 19.3072C4.57521 19.3072 4.62214 19.2979 4.66592 19.2797C4.7097 19.2615 4.74946 19.2349 4.78293 19.2014C6.71165 17.2763 9.27356 16.216 11.9984 16.216C14.7231 16.216 17.2851 17.2762 19.2138 19.2014C19.2472 19.2349 19.287 19.2615 19.3308 19.2797C19.3745 19.2979 19.4215 19.3072 19.4689 19.3072C19.5163 19.3072 19.5632 19.2979 19.607 19.2797C19.6507 19.2615 19.6905 19.2349 19.724 19.2014C19.7575 19.1679 19.7841 19.1281 19.8023 19.0844C19.8205 19.0406 19.8298 18.9937 19.8298 18.9463C19.8298 18.8989 19.8205 18.8519 19.8023 18.8082C19.7841 18.7644 19.7575 18.7246 19.724 18.6912C19.2825 18.2497 18.8121 17.8589 18.3236 17.5115C19.0618 17.146 19.5756 16.3934 19.5756 15.5141V14.2656C19.5756 13.0354 18.5769 12.0366 17.3502 12.0366H16.384V11.9389L21.6672 5.80546C21.7359 5.75118 23.8564 5.49426 23.7117 3.81524ZM10.6414 3.79715C11.0757 4.45574 11.6872 4.9768 12.3891 5.27713C13.2178 5.63535 14.1767 5.69324 15.0597 5.4508C15.2743 5.90569 15.3856 6.40248 15.3854 6.90548C15.3854 8.76904 13.8656 10.2888 11.9984 10.2888C10.1312 10.2888 8.61145 8.76904 8.61145 6.90548C8.6114 5.54493 9.4147 4.3327 10.6414 3.79715ZM1.00879 3.87679C1.07029 3.19288 1.81935 2.43295 2.49965 2.37505C3.41877 2.29546 3.59245 3.5511 3.69013 3.81163C3.65395 3.84782 2.50687 4.9949 2.42001 5.07815C2.19567 4.99851 0.92554 4.82123 1.00879 3.87679ZM15.7472 11.5663C15.6929 11.6314 15.6603 11.7182 15.6603 11.8014V16.1256C13.2974 15.2861 10.6993 15.2861 8.33634 16.1256V11.8014C8.33634 11.7182 8.30376 11.6314 8.24587 11.5663L3.02432 5.50152L4.09542 4.43043L8.25313 8.59176C8.90085 10.0175 10.3338 11.0126 11.9984 11.0126C13.6629 11.0126 15.0959 10.0175 15.7399 8.59176L19.9012 4.43043L20.9723 5.50152L15.7472 11.5663ZM21.5731 5.07815L20.303 3.80802C20.3826 3.5909 20.5635 2.29185 21.5008 2.37866C22.1811 2.43655 22.9301 3.19644 22.9916 3.88035C23.0712 4.81035 21.8409 4.98407 21.5731 5.07815Z" fill="white"/>
<path d="M13.0685 8.95854C13.2099 8.81721 13.2099 8.58818 13.0685 8.44685C12.9272 8.30552 12.6982 8.30552 12.5568 8.44685C12.2487 8.75571 11.7473 8.75501 11.4391 8.44685C11.2978 8.30552 11.0687 8.30552 10.9274 8.44685C10.7861 8.58818 10.7861 8.81721 10.9274 8.95854C11.5171 9.54818 12.4774 9.54963 13.0685 8.95854ZM10.4097 7.19946C10.4573 7.19949 10.5043 7.19014 10.5482 7.17197C10.5922 7.15379 10.6321 7.12713 10.6657 7.09353C10.6993 7.05992 10.7259 7.02001 10.7441 6.9761C10.7623 6.93218 10.7716 6.88511 10.7716 6.83759V6.75738C10.7716 6.55737 10.6097 6.39551 10.4097 6.39551C10.2097 6.39551 10.0479 6.55737 10.0479 6.75738V6.83759C10.0478 6.88511 10.0572 6.93218 10.0753 6.9761C10.0935 7.02001 10.1202 7.05992 10.1538 7.09353C10.1874 7.12713 10.2273 7.15379 10.2712 7.17197C10.3151 7.19014 10.3622 7.19949 10.4097 7.19946ZM13.5865 7.19946C13.6341 7.19949 13.6811 7.19014 13.7251 7.17197C13.769 7.15379 13.8089 7.12713 13.8425 7.09353C13.8761 7.05992 13.9027 7.02001 13.9209 6.9761C13.9391 6.93218 13.9484 6.88511 13.9484 6.83759V6.75738C13.9484 6.55737 13.7866 6.39551 13.5865 6.39551C13.3865 6.39551 13.2247 6.55737 13.2247 6.75738V6.83759C13.2246 6.88511 13.234 6.93218 13.2522 6.9761C13.2703 7.02001 13.297 7.05992 13.3306 7.09353C13.3642 7.12713 13.4041 7.15379 13.448 7.17197C13.4919 7.19014 13.539 7.19949 13.5865 7.19946Z" fill="white"/>
</svg>
