<svg width="55" height="55" viewBox="0 0 55 55" fill="none" xmlns="http://www.w3.org/2000/svg">
<g filter="url(#filter0_d_3219_1926)">
<circle cx="27.5" cy="27.5" r="19.5" fill="#FFC4C4"/>
<circle cx="27.5" cy="27.5" r="19" stroke="#FF2D2D"/>
</g>
<path d="M37.2218 28.2547C37.2048 28.0913 37.1896 27.9278 37.1744 27.7644C37.1422 27.402 37.108 27.0289 37.0492 26.6612C36.867 25.5332 36.4325 24.4389 35.759 23.4085C35.1215 22.4351 34.3018 21.5895 33.3228 20.8949C32.7612 20.497 32.2793 20.2181 31.803 20.0191C31.4976 19.8912 31.1522 19.8894 30.8354 20.012C30.5109 20.1381 30.2548 20.385 30.1334 20.687C29.9341 21.1809 30.0992 21.8542 30.7974 22.1846C31.5791 22.5559 32.2831 23.0746 32.8883 23.7283C33.9262 24.8457 34.5162 26.1585 34.6415 27.6258C34.7496 28.8906 34.4859 30.1004 33.856 31.2213C33.0496 32.6532 31.8486 33.7013 30.2851 34.339C28.7843 34.9501 27.2133 35.0567 25.6177 34.6552C23.9309 34.2306 22.5705 33.3353 21.5706 31.9941C20.5233 30.5854 20.1078 29.0008 20.3374 27.283C20.5024 26.0519 21.0166 24.9239 21.8704 23.9273C22.4908 23.2025 23.2745 22.6038 24.2023 22.149C24.5115 21.9963 24.7373 21.744 24.836 21.4385C24.9327 21.1418 24.9005 20.8274 24.7449 20.5538C24.4053 19.9622 23.671 19.7491 23.0335 20.0582C21.6162 20.7457 20.4341 21.7103 19.5215 22.9218C18.6829 24.0356 18.1326 25.2845 17.8879 26.6328C17.738 27.4606 17.7095 28.2991 17.8063 29.1269C17.9239 30.1342 18.2199 31.1023 18.6829 32.0065C19.4418 33.4845 20.5499 34.7067 21.9805 35.6376C23.0411 36.3268 24.2117 36.8012 25.464 37.0499C26.1356 37.1831 26.813 37.2506 27.4866 37.2506C27.7806 37.2506 28.0728 37.2382 28.365 37.2115C29.826 37.0818 31.2016 36.6608 32.4519 35.9591C33.5638 35.3356 34.5105 34.5326 35.2695 33.5734C36.4477 32.0829 37.089 30.3846 37.1801 28.5229L37.2503 28.5158L37.2237 28.2547H37.2218Z" fill="#FF2D2D"/>
<path d="M26.1093 24.6738C26.1093 24.769 26.115 24.8643 26.1245 24.9578C26.2042 25.7392 27.1415 26.3187 28.0237 26.1332C28.7694 25.9773 29.257 25.4437 29.2589 24.7789C29.2589 23.8366 29.2589 22.8943 29.2589 21.9521H29.2551C29.2551 20.9901 29.2589 20.0297 29.2551 19.0677C29.2513 18.2683 28.3406 17.6297 27.4318 17.7692C26.7108 17.8792 26.1036 18.4259 26.1074 19.1892C26.1188 21.0163 26.1093 22.8451 26.1112 24.6722L26.1093 24.6738Z" fill="#FF2D2D"/>
<defs>
<filter id="filter0_d_3219_1926" x="0" y="0" width="55" height="55" filterUnits="userSpaceOnUse" color-interpolation-filters="sRGB">
<feFlood flood-opacity="0" result="BackgroundImageFix"/>
<feColorMatrix in="SourceAlpha" type="matrix" values="0 0 0 0 0 0 0 0 0 0 0 0 0 0 0 0 0 0 127 0" result="hardAlpha"/>
<feMorphology radius="1" operator="dilate" in="SourceAlpha" result="effect1_dropShadow_3219_1926"/>
<feOffset/>
<feGaussianBlur stdDeviation="3.5"/>
<feComposite in2="hardAlpha" operator="out"/>
<feColorMatrix type="matrix" values="0 0 0 0 1 0 0 0 0 1 0 0 0 0 1 0 0 0 1 0"/>
<feBlend mode="normal" in2="BackgroundImageFix" result="effect1_dropShadow_3219_1926"/>
<feBlend mode="normal" in="SourceGraphic" in2="effect1_dropShadow_3219_1926" result="shape"/>
</filter>
</defs>
</svg>
