<svg width="14" height="14" viewBox="0 0 14 14" fill="none" xmlns="http://www.w3.org/2000/svg">
<path d="M13.4029 8.0409H12.9466V7.4647C12.9466 7.31965 12.8287 7.20204 12.6831 7.20204H12.5273C12.5458 6.97504 12.3989 6.76095 12.1701 6.70233L10.6647 6.31665L11.1496 5.05074C11.29 4.68418 11.1059 4.27334 10.7378 4.13326L9.62773 3.70514C9.41499 3.62308 9.18643 3.60212 8.96206 3.64316C8.08118 3.80423 6.63343 4.06899 6.46617 4.09946C6.35559 4.11962 6.25567 4.17795 6.18395 4.26423L5.19849 5.44972V1.87909C5.19849 1.81117 5.17639 1.74508 5.13551 1.69074C5.09463 1.6364 5.03717 1.59674 4.97176 1.57771L2.85186 0.961045H8.34827V3.27941L8.97823 3.19738V0.647086C8.97823 0.4737 8.8372 0.333127 8.66325 0.333127C8.6186 0.333127 0.646808 0.332424 0.622458 0.334429C0.455666 0.348127 0.333264 0.487867 0.333264 0.647086C0.333264 0.724118 0.331775 12.126 0.335981 12.1595C0.351996 12.2864 0.442969 12.3875 0.560016 12.4216L4.7953 13.6536C4.99708 13.7123 5.19851 13.5608 5.19851 13.3522V6.84996C5.27393 6.82083 5.34062 6.77297 5.39227 6.71092L6.80944 5.00605L8.38955 4.718L7.32453 7.49827C7.32453 7.49827 7.36249 7.40264 6.65276 9.82426L5.8268 11.3892V12.8718C6.06991 12.931 6.33028 12.8204 6.45146 12.5907L7.66472 10.2919C7.68203 10.2591 7.69601 10.2247 7.70645 10.1891L8.37761 7.89908L8.52885 7.95663L9.69804 9.787L8.85758 12.1465C8.75464 12.4354 8.9062 12.7529 9.19613 12.8555C9.48446 12.9575 9.80432 12.8075 9.90744 12.518L10.8389 9.90317C10.8672 9.82363 10.877 9.7387 10.8674 9.65484C10.8579 9.57098 10.8293 9.49039 10.7838 9.41918L9.96644 8.13957L10.3213 7.21306L11.074 7.4059L11.0671 8.04095H10.6109C10.5516 8.04095 10.4971 8.06072 10.4531 8.09361L11.151 9.18619C11.3163 9.44496 11.3521 9.75921 11.2491 10.0483L11.1332 10.3738H13.4029C13.5484 10.3738 13.6663 10.2562 13.6663 10.1112V8.30356C13.6663 8.15848 13.5484 8.0409 13.4029 8.0409ZM4.30075 8.58746C4.30075 8.76085 4.15972 8.90142 3.98577 8.90142C3.81182 8.90142 3.67079 8.76085 3.67079 8.58746V6.77506C3.67079 6.60168 3.81182 6.46111 3.98577 6.46111C4.15972 6.46111 4.30075 6.60168 4.30075 6.77506V8.58746ZM12.4197 8.0409H11.5941V7.72733H12.4197V8.0409Z" fill="#4EB9F8"/>
<path d="M8.47602 8.77683L8.27049 9.49426V11.7155H7.31841L7 12.3327H8.31545C8.30092 12.1906 8.31748 12.0458 8.36578 11.9072L8.87579 10.4425V9.41706L8.47602 8.77683ZM11.014 1.73432C10.4908 1.5306 9.90466 1.79798 9.70487 2.33155C9.50333 2.86972 9.77267 3.46489 10.2905 3.66652C10.809 3.86843 11.3984 3.60683 11.5997 3.0693C11.7994 2.53573 11.5373 1.93805 11.014 1.73432Z" fill="#4EB9F8"/>
</svg>
