<svg width="288" height="24" viewBox="0 0 288 24" fill="none" xmlns="http://www.w3.org/2000/svg">
<rect opacity="0.01" width="24" height="24" fill="black"/>
<path fill-rule="evenodd" clip-rule="evenodd" d="M8.99396 3.99393C9.5448 3.99393 9.99135 3.54758 9.99135 2.99697C9.99135 2.44636 9.5448 2 8.99396 2H5.04656C3.39403 2 2.05439 3.33907 2.05439 4.9909V8.04246C2.05439 8.59307 2.50094 9.03943 3.05178 9.03943C3.60263 9.03943 4.04917 8.59307 4.04917 8.04246V4.9909C4.04917 4.44029 4.49572 3.99393 5.04656 3.99393H8.99396ZM15.0205 3.99393C14.4696 3.99393 14.0231 3.54758 14.0231 2.99697C14.0231 2.44636 14.4696 2 15.0205 2H18.9679C20.6204 2 21.96 3.33907 21.96 4.9909V8.04246C21.96 8.59307 21.5135 9.03943 20.9626 9.03943C20.4118 9.03943 19.9653 8.59307 19.9653 8.04246V4.9909C19.9653 4.44029 19.5187 3.99393 18.9679 3.99393H15.0205ZM14.0231 21.003C14.0231 20.4524 14.4696 20.0061 15.0205 20.0061H18.9679C19.5187 20.0061 19.9653 19.5597 19.9653 19.0091V15.9575C19.9653 15.4069 20.4118 14.9606 20.9626 14.9606C21.5135 14.9606 21.96 15.4069 21.96 15.9575V19.0091C21.96 20.6609 20.6204 22 18.9679 22H15.0205C14.4696 22 14.0231 21.5536 14.0231 21.003ZM8.99396 20.0061C9.5448 20.0061 9.99135 20.4524 9.99135 21.003C9.99135 21.5536 9.5448 22 8.99396 22H5.04656C3.39403 22 2.05439 20.6609 2.05439 19.0091V15.9575C2.05439 15.4069 2.50094 14.9606 3.05178 14.9606C3.60263 14.9606 4.04917 15.4069 4.04917 15.9575V19.0091C4.04917 19.5597 4.49572 20.0061 5.04656 20.0061H8.99396ZM2 11.9697C2 12.5203 2.44655 12.9666 2.99739 12.9666H21.0026C21.5535 12.9666 22 12.5203 22 11.9697C22 11.4191 21.5535 10.9727 21.0026 10.9727H2.99739C2.44655 10.9727 2 11.4191 2 11.9697Z" fill="#1E1F20"/>
<path d="M42.832 19.18C41.812 19.18 40.87 19.054 40.006 18.802C39.154 18.538 38.422 18.178 37.81 17.722L38.53 15.904C38.938 16.192 39.364 16.438 39.808 16.642C40.252 16.834 40.726 16.984 41.23 17.092C41.734 17.188 42.268 17.236 42.832 17.236C43.78 17.236 44.464 17.08 44.884 16.768C45.304 16.456 45.514 16.048 45.514 15.544C45.514 15.1 45.37 14.764 45.082 14.536C44.794 14.296 44.278 14.098 43.534 13.942L41.5 13.528C40.336 13.288 39.466 12.886 38.89 12.322C38.314 11.758 38.026 11.002 38.026 10.054C38.026 9.262 38.236 8.572 38.656 7.984C39.076 7.396 39.664 6.94 40.42 6.616C41.176 6.292 42.058 6.13 43.066 6.13C43.966 6.13 44.8 6.262 45.568 6.526C46.336 6.778 46.978 7.144 47.494 7.624L46.774 9.352C46.258 8.92 45.694 8.602 45.082 8.398C44.47 8.182 43.786 8.074 43.03 8.074C42.178 8.074 41.512 8.242 41.032 8.578C40.564 8.902 40.33 9.352 40.33 9.928C40.33 10.372 40.474 10.726 40.762 10.99C41.062 11.254 41.566 11.458 42.274 11.602L44.29 11.998C45.49 12.238 46.378 12.634 46.954 13.186C47.53 13.726 47.818 14.458 47.818 15.382C47.818 16.138 47.614 16.804 47.206 17.38C46.798 17.944 46.222 18.388 45.478 18.712C44.734 19.024 43.852 19.18 42.832 19.18ZM54.0016 19.18C53.0656 19.18 52.2436 18.988 51.5356 18.604C50.8396 18.22 50.2996 17.674 49.9156 16.966C49.5316 16.246 49.3396 15.394 49.3396 14.41C49.3396 13.426 49.5316 12.586 49.9156 11.89C50.3116 11.194 50.8576 10.66 51.5536 10.288C52.2496 9.916 53.0656 9.73 54.0016 9.73C54.6016 9.73 55.1836 9.826 55.7476 10.018C56.3236 10.198 56.7916 10.462 57.1516 10.81L56.4676 12.376C56.1436 12.076 55.7776 11.854 55.3696 11.71C54.9736 11.554 54.5836 11.476 54.1996 11.476C53.3956 11.476 52.7656 11.728 52.3096 12.232C51.8656 12.736 51.6436 13.468 51.6436 14.428C51.6436 15.388 51.8656 16.126 52.3096 16.642C52.7656 17.158 53.3956 17.416 54.1996 17.416C54.5716 17.416 54.9556 17.344 55.3516 17.2C55.7596 17.056 56.1316 16.834 56.4676 16.534L57.1516 18.082C56.7796 18.43 56.3056 18.7 55.7296 18.892C55.1656 19.084 54.5896 19.18 54.0016 19.18ZM62.3531 19.18C61.5611 19.18 60.8651 18.994 60.2651 18.622C59.6651 18.238 59.1971 17.692 58.8611 16.984C58.5251 16.276 58.3571 15.43 58.3571 14.446C58.3571 13.462 58.5251 12.622 58.8611 11.926C59.1971 11.218 59.6651 10.678 60.2651 10.306C60.8651 9.922 61.5611 9.73 62.3531 9.73C63.1211 9.73 63.7931 9.922 64.3691 10.306C64.9571 10.678 65.3471 11.182 65.5391 11.818H65.3411L65.5391 9.91H67.6991C67.6631 10.282 67.6271 10.66 67.5911 11.044C67.5671 11.428 67.5551 11.806 67.5551 12.178V19H65.3231L65.3051 17.128H65.5211C65.3291 17.752 64.9391 18.25 64.3511 18.622C63.7631 18.994 63.0971 19.18 62.3531 19.18ZM62.9831 17.452C63.6911 17.452 64.2611 17.206 64.6931 16.714C65.1251 16.21 65.3411 15.454 65.3411 14.446C65.3411 13.438 65.1251 12.688 64.6931 12.196C64.2611 11.704 63.6911 11.458 62.9831 11.458C62.2751 11.458 61.7051 11.704 61.2731 12.196C60.8411 12.688 60.6251 13.438 60.6251 14.446C60.6251 15.454 60.8351 16.21 61.2551 16.714C61.6871 17.206 62.2631 17.452 62.9831 17.452ZM70.0053 19V12.178C70.0053 11.806 69.9933 11.428 69.9692 11.044C69.9453 10.66 69.9093 10.282 69.8613 9.91H72.0393L72.2193 11.71H72.0033C72.2913 11.074 72.7173 10.588 73.2812 10.252C73.8453 9.904 74.4993 9.73 75.2433 9.73C76.3113 9.73 77.1153 10.03 77.6553 10.63C78.1953 11.23 78.4653 12.166 78.4653 13.438V19H76.2153V13.546C76.2153 12.814 76.0713 12.292 75.7833 11.98C75.5073 11.656 75.0873 11.494 74.5233 11.494C73.8273 11.494 73.2753 11.71 72.8673 12.142C72.4593 12.574 72.2553 13.15 72.2553 13.87V19H70.0053ZM80.851 19V12.178C80.851 11.806 80.839 11.428 80.815 11.044C80.791 10.66 80.755 10.282 80.707 9.91H82.885L83.065 11.71H82.849C83.137 11.074 83.563 10.588 84.127 10.252C84.691 9.904 85.345 9.73 86.089 9.73C87.157 9.73 87.961 10.03 88.501 10.63C89.041 11.23 89.311 12.166 89.311 13.438V19H87.061V13.546C87.061 12.814 86.917 12.292 86.629 11.98C86.353 11.656 85.933 11.494 85.369 11.494C84.673 11.494 84.121 11.71 83.713 12.142C83.305 12.574 83.101 13.15 83.101 13.87V19H80.851ZM91.6967 19V9.91H93.9467V19H91.6967ZM91.5707 8.2V6.004H94.0727V8.2H91.5707ZM96.39 19V12.178C96.39 11.806 96.378 11.428 96.354 11.044C96.33 10.66 96.294 10.282 96.246 9.91H98.424L98.604 11.71H98.388C98.676 11.074 99.102 10.588 99.666 10.252C100.23 9.904 100.884 9.73 101.628 9.73C102.696 9.73 103.5 10.03 104.04 10.63C104.58 11.23 104.85 12.166 104.85 13.438V19H102.6V13.546C102.6 12.814 102.456 12.292 102.168 11.98C101.892 11.656 101.472 11.494 100.908 11.494C100.212 11.494 99.66 11.71 99.252 12.142C98.844 12.574 98.64 13.15 98.64 13.87V19H96.39ZM111.448 23.032C110.608 23.032 109.846 22.942 109.162 22.762C108.49 22.582 107.89 22.306 107.362 21.934L107.848 20.314C108.196 20.542 108.556 20.728 108.928 20.872C109.3 21.016 109.684 21.124 110.08 21.196C110.476 21.268 110.878 21.304 111.286 21.304C112.126 21.304 112.75 21.094 113.158 20.674C113.578 20.266 113.788 19.678 113.788 18.91V16.732H113.968C113.776 17.356 113.386 17.854 112.798 18.226C112.222 18.598 111.556 18.784 110.8 18.784C109.984 18.784 109.27 18.604 108.658 18.244C108.058 17.872 107.59 17.344 107.254 16.66C106.918 15.976 106.75 15.172 106.75 14.248C106.75 13.324 106.918 12.526 107.254 11.854C107.59 11.17 108.058 10.648 108.658 10.288C109.27 9.916 109.984 9.73 110.8 9.73C111.568 9.73 112.234 9.916 112.798 10.288C113.374 10.648 113.758 11.14 113.95 11.764L113.788 11.656L113.968 9.91H116.146C116.098 10.282 116.062 10.66 116.038 11.044C116.014 11.428 116.002 11.806 116.002 12.178V18.64C116.002 20.068 115.612 21.154 114.832 21.898C114.064 22.654 112.936 23.032 111.448 23.032ZM111.412 17.056C112.132 17.056 112.702 16.816 113.122 16.336C113.554 15.844 113.77 15.148 113.77 14.248C113.77 13.348 113.554 12.658 113.122 12.178C112.702 11.698 112.132 11.458 111.412 11.458C110.68 11.458 110.098 11.698 109.666 12.178C109.234 12.658 109.018 13.348 109.018 14.248C109.018 15.148 109.234 15.844 109.666 16.336C110.098 16.816 110.68 17.056 111.412 17.056ZM123.552 19V6.31H131.922V8.128H125.874V11.728H131.508V13.546H125.874V19H123.552ZM137.461 19.18C136.525 19.18 135.715 18.988 135.031 18.604C134.347 18.22 133.813 17.674 133.429 16.966C133.057 16.258 132.871 15.418 132.871 14.446C132.871 13.474 133.057 12.64 133.429 11.944C133.813 11.236 134.347 10.69 135.031 10.306C135.715 9.922 136.525 9.73 137.461 9.73C138.397 9.73 139.207 9.922 139.891 10.306C140.587 10.69 141.121 11.236 141.493 11.944C141.877 12.64 142.069 13.474 142.069 14.446C142.069 15.418 141.877 16.258 141.493 16.966C141.121 17.674 140.587 18.22 139.891 18.604C139.207 18.988 138.397 19.18 137.461 19.18ZM137.461 17.452C138.169 17.452 138.733 17.206 139.153 16.714C139.573 16.21 139.783 15.454 139.783 14.446C139.783 13.438 139.573 12.688 139.153 12.196C138.733 11.704 138.169 11.458 137.461 11.458C136.753 11.458 136.189 11.704 135.769 12.196C135.349 12.688 135.139 13.438 135.139 14.446C135.139 15.454 135.349 16.21 135.769 16.714C136.189 17.206 136.753 17.452 137.461 17.452ZM143.991 19V12.232C143.991 11.848 143.979 11.458 143.955 11.062C143.943 10.666 143.913 10.282 143.865 9.91H146.043L146.295 12.394H145.935C146.055 11.794 146.253 11.296 146.529 10.9C146.817 10.504 147.165 10.21 147.573 10.018C147.981 9.826 148.425 9.73 148.905 9.73C149.121 9.73 149.295 9.742 149.427 9.766C149.559 9.778 149.691 9.808 149.823 9.856L149.805 11.836C149.577 11.74 149.379 11.68 149.211 11.656C149.055 11.632 148.857 11.62 148.617 11.62C148.101 11.62 147.663 11.728 147.303 11.944C146.955 12.16 146.691 12.46 146.511 12.844C146.343 13.228 146.259 13.666 146.259 14.158V19H143.991ZM156.195 19V6.31H157.941L165.303 15.832H164.835V6.31H166.995V19H165.249L157.905 9.478H158.355V19H156.195ZM173.995 19.18C172.471 19.18 171.277 18.76 170.413 17.92C169.549 17.08 169.117 15.928 169.117 14.464C169.117 13.516 169.303 12.688 169.675 11.98C170.047 11.272 170.563 10.72 171.223 10.324C171.895 9.928 172.675 9.73 173.563 9.73C174.439 9.73 175.171 9.916 175.759 10.288C176.347 10.66 176.791 11.182 177.091 11.854C177.403 12.526 177.559 13.312 177.559 14.212V14.806H170.935V13.618H175.957L175.651 13.87C175.651 13.03 175.471 12.388 175.111 11.944C174.763 11.5 174.253 11.278 173.581 11.278C172.837 11.278 172.261 11.542 171.853 12.07C171.457 12.598 171.259 13.336 171.259 14.284V14.518C171.259 15.502 171.499 16.24 171.979 16.732C172.471 17.212 173.161 17.452 174.049 17.452C174.565 17.452 175.045 17.386 175.489 17.254C175.945 17.11 176.377 16.882 176.785 16.57L177.451 18.082C177.019 18.43 176.503 18.7 175.903 18.892C175.303 19.084 174.667 19.18 173.995 19.18ZM182.974 19.18C182.182 19.18 181.486 18.994 180.886 18.622C180.286 18.238 179.818 17.692 179.482 16.984C179.146 16.276 178.978 15.43 178.978 14.446C178.978 13.462 179.146 12.622 179.482 11.926C179.818 11.218 180.286 10.678 180.886 10.306C181.486 9.922 182.182 9.73 182.974 9.73C183.742 9.73 184.414 9.922 184.99 10.306C185.578 10.678 185.968 11.182 186.16 11.818H185.962L186.16 9.91H188.32C188.284 10.282 188.248 10.66 188.212 11.044C188.188 11.428 188.176 11.806 188.176 12.178V19H185.944L185.926 17.128H186.142C185.95 17.752 185.56 18.25 184.972 18.622C184.384 18.994 183.718 19.18 182.974 19.18ZM183.604 17.452C184.312 17.452 184.882 17.206 185.314 16.714C185.746 16.21 185.962 15.454 185.962 14.446C185.962 13.438 185.746 12.688 185.314 12.196C184.882 11.704 184.312 11.458 183.604 11.458C182.896 11.458 182.326 11.704 181.894 12.196C181.462 12.688 181.246 13.438 181.246 14.446C181.246 15.454 181.456 16.21 181.876 16.714C182.308 17.206 182.884 17.452 183.604 17.452ZM190.608 19V12.232C190.608 11.848 190.596 11.458 190.572 11.062C190.56 10.666 190.53 10.282 190.482 9.91H192.66L192.912 12.394H192.552C192.672 11.794 192.87 11.296 193.146 10.9C193.434 10.504 193.782 10.21 194.19 10.018C194.598 9.826 195.042 9.73 195.522 9.73C195.738 9.73 195.912 9.742 196.044 9.766C196.176 9.778 196.308 9.808 196.44 9.856L196.422 11.836C196.194 11.74 195.996 11.68 195.828 11.656C195.672 11.632 195.474 11.62 195.234 11.62C194.718 11.62 194.28 11.728 193.92 11.944C193.572 12.16 193.308 12.46 193.128 12.844C192.96 13.228 192.876 13.666 192.876 14.158V19H190.608ZM202.895 19.18C202.127 19.18 201.455 18.994 200.879 18.622C200.303 18.238 199.919 17.722 199.727 17.074H199.925V19H197.693V5.752H199.943V11.764H199.727C199.931 11.14 200.321 10.648 200.897 10.288C201.473 9.916 202.139 9.73 202.895 9.73C203.699 9.73 204.401 9.922 205.001 10.306C205.601 10.69 206.069 11.236 206.405 11.944C206.741 12.64 206.909 13.48 206.909 14.464C206.909 15.448 206.741 16.294 206.405 17.002C206.069 17.698 205.595 18.238 204.983 18.622C204.383 18.994 203.687 19.18 202.895 19.18ZM202.265 17.452C202.973 17.452 203.543 17.206 203.975 16.714C204.419 16.222 204.641 15.472 204.641 14.464C204.641 13.456 204.419 12.706 203.975 12.214C203.543 11.71 202.973 11.458 202.265 11.458C201.557 11.458 200.987 11.704 200.555 12.196C200.123 12.688 199.907 13.438 199.907 14.446C199.907 15.454 200.123 16.21 200.555 16.714C200.987 17.206 201.557 17.452 202.265 17.452ZM208.499 23.086L207.977 21.304C208.541 21.184 209.015 21.046 209.399 20.89C209.783 20.734 210.101 20.53 210.353 20.278C210.605 20.026 210.815 19.702 210.983 19.306L211.433 18.244L211.379 19.126L207.419 9.91H209.813L212.657 17.002H212.135L214.997 9.91H217.265L213.125 19.504C212.849 20.152 212.549 20.686 212.225 21.106C211.901 21.538 211.553 21.88 211.181 22.132C210.809 22.396 210.401 22.6 209.957 22.744C209.513 22.888 209.027 23.002 208.499 23.086ZM223.572 19V6.31H228.18C229.632 6.31 230.856 6.562 231.852 7.066C232.86 7.558 233.622 8.278 234.138 9.226C234.654 10.162 234.912 11.302 234.912 12.646C234.912 13.978 234.654 15.118 234.138 16.066C233.622 17.014 232.86 17.74 231.852 18.244C230.856 18.748 229.632 19 228.18 19H223.572ZM225.894 17.074H228.036C229.572 17.074 230.712 16.708 231.456 15.976C232.2 15.244 232.572 14.134 232.572 12.646C232.572 11.146 232.2 10.036 231.456 9.316C230.712 8.584 229.572 8.218 228.036 8.218H225.894V17.074ZM241.495 19.18C239.971 19.18 238.777 18.76 237.913 17.92C237.049 17.08 236.617 15.928 236.617 14.464C236.617 13.516 236.803 12.688 237.175 11.98C237.547 11.272 238.063 10.72 238.723 10.324C239.395 9.928 240.175 9.73 241.063 9.73C241.939 9.73 242.671 9.916 243.259 10.288C243.847 10.66 244.291 11.182 244.591 11.854C244.903 12.526 245.059 13.312 245.059 14.212V14.806H238.435V13.618H243.457L243.151 13.87C243.151 13.03 242.971 12.388 242.611 11.944C242.263 11.5 241.753 11.278 241.081 11.278C240.337 11.278 239.761 11.542 239.353 12.07C238.957 12.598 238.759 13.336 238.759 14.284V14.518C238.759 15.502 238.999 16.24 239.479 16.732C239.971 17.212 240.661 17.452 241.549 17.452C242.065 17.452 242.545 17.386 242.989 17.254C243.445 17.11 243.877 16.882 244.285 16.57L244.951 18.082C244.519 18.43 244.003 18.7 243.403 18.892C242.803 19.084 242.167 19.18 241.495 19.18ZM249.488 19L245.564 9.91H247.958L250.802 17.02H250.244L253.16 9.91H255.41L251.468 19H249.488ZM256.615 19V9.91H258.865V19H256.615ZM256.489 8.2V6.004H258.991V8.2H256.489ZM265.484 19.18C264.548 19.18 263.726 18.988 263.018 18.604C262.322 18.22 261.782 17.674 261.398 16.966C261.014 16.246 260.822 15.394 260.822 14.41C260.822 13.426 261.014 12.586 261.398 11.89C261.794 11.194 262.34 10.66 263.036 10.288C263.732 9.916 264.548 9.73 265.484 9.73C266.084 9.73 266.666 9.826 267.23 10.018C267.806 10.198 268.274 10.462 268.634 10.81L267.95 12.376C267.626 12.076 267.26 11.854 266.852 11.71C266.456 11.554 266.066 11.476 265.682 11.476C264.878 11.476 264.248 11.728 263.792 12.232C263.348 12.736 263.126 13.468 263.126 14.428C263.126 15.388 263.348 16.126 263.792 16.642C264.248 17.158 264.878 17.416 265.682 17.416C266.054 17.416 266.438 17.344 266.834 17.2C267.242 17.056 267.614 16.834 267.95 16.534L268.634 18.082C268.262 18.43 267.788 18.7 267.212 18.892C266.648 19.084 266.072 19.18 265.484 19.18ZM274.595 19.18C273.071 19.18 271.877 18.76 271.013 17.92C270.149 17.08 269.717 15.928 269.717 14.464C269.717 13.516 269.903 12.688 270.275 11.98C270.647 11.272 271.163 10.72 271.823 10.324C272.495 9.928 273.275 9.73 274.163 9.73C275.039 9.73 275.771 9.916 276.359 10.288C276.947 10.66 277.391 11.182 277.691 11.854C278.003 12.526 278.159 13.312 278.159 14.212V14.806H271.535V13.618H276.557L276.251 13.87C276.251 13.03 276.071 12.388 275.711 11.944C275.363 11.5 274.853 11.278 274.181 11.278C273.437 11.278 272.861 11.542 272.453 12.07C272.057 12.598 271.859 13.336 271.859 14.284V14.518C271.859 15.502 272.099 16.24 272.579 16.732C273.071 17.212 273.761 17.452 274.649 17.452C275.165 17.452 275.645 17.386 276.089 17.254C276.545 17.11 276.977 16.882 277.385 16.57L278.051 18.082C277.619 18.43 277.103 18.7 276.503 18.892C275.903 19.084 275.267 19.18 274.595 19.18ZM283.304 19.18C282.524 19.18 281.804 19.09 281.144 18.91C280.496 18.718 279.95 18.454 279.506 18.118L280.136 16.606C280.592 16.918 281.096 17.158 281.648 17.326C282.2 17.494 282.758 17.578 283.322 17.578C283.922 17.578 284.366 17.476 284.654 17.272C284.954 17.068 285.104 16.792 285.104 16.444C285.104 16.168 285.008 15.952 284.816 15.796C284.636 15.628 284.342 15.502 283.934 15.418L282.134 15.076C281.366 14.908 280.778 14.62 280.37 14.212C279.974 13.804 279.776 13.27 279.776 12.61C279.776 12.046 279.926 11.548 280.226 11.116C280.538 10.684 280.976 10.348 281.54 10.108C282.116 9.856 282.788 9.73 283.556 9.73C284.228 9.73 284.858 9.82 285.446 10C286.046 10.18 286.55 10.45 286.958 10.81L286.31 12.268C285.938 11.968 285.512 11.734 285.032 11.566C284.552 11.398 284.084 11.314 283.628 11.314C283.004 11.314 282.548 11.428 282.26 11.656C281.972 11.872 281.828 12.154 281.828 12.502C281.828 12.766 281.912 12.988 282.08 13.168C282.26 13.336 282.536 13.462 282.908 13.546L284.708 13.888C285.512 14.044 286.118 14.32 286.526 14.716C286.946 15.1 287.156 15.628 287.156 16.3C287.156 16.9 286.994 17.416 286.67 17.848C286.346 18.28 285.896 18.61 285.32 18.838C284.744 19.066 284.072 19.18 283.304 19.18Z" fill="black"/>
</svg>
