<svg width="22" height="10" viewBox="0 0 22 10" fill="none" xmlns="http://www.w3.org/2000/svg">
<path fill-rule="evenodd" clip-rule="evenodd" d="M20.2588 2.80338C20.2589 2.72948 20.2444 2.65629 20.2162 2.58801C20.188 2.51972 20.1465 2.45767 20.0943 2.40542C20.042 2.35317 19.98 2.31174 19.9117 2.2835C19.8434 2.25527 19.7702 2.24078 19.6963 2.24088H17.7839C17.6347 2.24088 17.4915 2.30016 17.386 2.40568C17.2805 2.51121 17.2212 2.65433 17.2212 2.80356C17.2212 2.9528 17.2805 3.09592 17.386 3.20144C17.4915 3.30697 17.6347 3.36625 17.7839 3.36625H19.6962C19.7701 3.36634 19.8432 3.35186 19.9115 3.32362C19.9798 3.29539 20.0419 3.25396 20.0941 3.2017C20.1464 3.14945 20.1878 3.08741 20.216 3.01912C20.2443 2.95083 20.2587 2.87764 20.2587 2.80375L20.2588 2.80338ZM7.77847 2.80338C7.77854 2.72949 7.76403 2.65631 7.73579 2.58804C7.70754 2.51976 7.66611 2.45772 7.61387 2.40548C7.56162 2.35323 7.49959 2.3118 7.43131 2.28355C7.36303 2.25531 7.28986 2.24081 7.21597 2.24088H7.21161C7.10056 2.2418 6.99227 2.27557 6.90039 2.33794C6.8085 2.40031 6.73714 2.48848 6.69528 2.59134C6.65342 2.69421 6.64295 2.80715 6.66518 2.91596C6.68741 3.02476 6.74135 3.12455 6.8202 3.20275C6.89905 3.28095 6.99929 3.33406 7.10827 3.35539C7.21726 3.37671 7.33011 3.3653 7.43262 3.32259C7.53514 3.27988 7.62271 3.20779 7.68431 3.11539C7.74592 3.02299 7.77879 2.91443 7.7788 2.80338H7.77847ZM5.3247 2.80338C5.32476 2.72949 5.31026 2.65632 5.28201 2.58804C5.25376 2.51977 5.21233 2.45773 5.16009 2.40549C5.10784 2.35324 5.04581 2.31181 4.97754 2.28357C4.90926 2.25532 4.83609 2.24081 4.7622 2.24088H4.75784C4.6468 2.2418 4.53851 2.27557 4.44662 2.33794C4.35474 2.40031 4.28337 2.48848 4.24152 2.59134C4.19966 2.69421 4.18919 2.80715 4.21142 2.91596C4.23365 3.02476 4.28759 3.12455 4.36644 3.20275C4.44529 3.28095 4.54552 3.33406 4.65451 3.35539C4.76349 3.37671 4.87635 3.3653 4.97886 3.32259C5.08137 3.27988 5.16894 3.20779 5.23055 3.11539C5.29215 3.02299 5.32503 2.91443 5.32503 2.80338H5.3247ZM2.87056 2.80338C2.87063 2.72949 2.85613 2.65631 2.82788 2.58804C2.79964 2.51976 2.75821 2.45772 2.70596 2.40548C2.65371 2.35323 2.59168 2.3118 2.5234 2.28355C2.45513 2.25531 2.38195 2.24081 2.30806 2.24088H2.30338C2.19233 2.2418 2.08404 2.27557 1.99215 2.33794C1.90027 2.40031 1.8289 2.48848 1.78705 2.59134C1.74519 2.69421 1.73472 2.80715 1.75695 2.91596C1.77918 3.02476 1.83312 3.12455 1.91197 3.20275C1.99082 3.28095 2.09105 3.33406 2.20004 3.35539C2.30902 3.37671 2.42188 3.3653 2.52439 3.32259C2.6269 3.27988 2.71448 3.20779 2.77608 3.11539C2.83768 3.02299 2.87056 2.91443 2.87056 2.80338ZM21.6875 7.08002C21.6871 7.65443 21.4588 8.20522 21.0527 8.61147C20.6466 9.01771 20.0959 9.24619 19.5215 9.24677H18.284V6.0452C18.2841 5.9713 18.2696 5.89811 18.2413 5.82982C18.2131 5.76153 18.1717 5.69947 18.1194 5.64722C18.0672 5.59497 18.0051 5.55354 17.9368 5.52531C17.8685 5.49708 17.7954 5.4826 17.7215 5.4827H4.27841C4.20452 5.48263 4.13134 5.49713 4.06306 5.52537C3.99478 5.55361 3.93274 5.59504 3.88049 5.64729C3.82825 5.69954 3.78682 5.76158 3.75857 5.82986C3.73033 5.89814 3.71583 5.97131 3.71591 6.0452V9.24677H2.47841C1.90402 9.24612 1.35336 9.0176 0.947294 8.61138C0.541223 8.20515 0.312922 7.6544 0.3125 7.08002V1.26953C0.312624 1.13282 0.366989 1.00174 0.46366 0.905066C0.560332 0.808395 0.691411 0.75403 0.828125 0.753906H21.1719C21.3085 0.75408 21.4396 0.808469 21.5362 0.905138C21.6328 1.00181 21.6871 1.13286 21.6872 1.26953V7.08002H21.6875ZM17.1589 9.24677V6.60812H4.84109V9.24719L17.1589 9.24677Z" fill="white"/>
</svg>
