<svg width="125" height="175" viewBox="0 0 125 175" fill="none" xmlns="http://www.w3.org/2000/svg">
<path d="M30.7163 170.2C29.583 170.2 28.5363 170.06 27.5763 169.78C26.6297 169.487 25.8163 169.087 25.1363 168.58L25.9363 166.56C26.3897 166.88 26.863 167.153 27.3563 167.38C27.8497 167.593 28.3763 167.76 28.9363 167.88C29.4963 167.987 30.0897 168.04 30.7163 168.04C31.7697 168.04 32.5297 167.867 32.9963 167.52C33.463 167.173 33.6963 166.72 33.6963 166.16C33.6963 165.667 33.5363 165.293 33.2163 165.04C32.8963 164.773 32.323 164.553 31.4963 164.38L29.2363 163.92C27.943 163.653 26.9763 163.207 26.3363 162.58C25.6963 161.953 25.3763 161.113 25.3763 160.06C25.3763 159.18 25.6097 158.413 26.0763 157.76C26.543 157.107 27.1963 156.6 28.0363 156.24C28.8763 155.88 29.8563 155.7 30.9763 155.7C31.9763 155.7 32.903 155.847 33.7563 156.14C34.6097 156.42 35.323 156.827 35.8963 157.36L35.0963 159.28C34.523 158.8 33.8963 158.447 33.2163 158.22C32.5363 157.98 31.7763 157.86 30.9363 157.86C29.9897 157.86 29.2497 158.047 28.7163 158.42C28.1963 158.78 27.9363 159.28 27.9363 159.92C27.9363 160.413 28.0963 160.807 28.4163 161.1C28.7497 161.393 29.3097 161.62 30.0963 161.78L32.3363 162.22C33.6697 162.487 34.6563 162.927 35.2963 163.54C35.9363 164.14 36.2563 164.953 36.2563 165.98C36.2563 166.82 36.0297 167.56 35.5763 168.2C35.123 168.827 34.483 169.32 33.6563 169.68C32.8297 170.027 31.8497 170.2 30.7163 170.2ZM42.127 170.2C40.887 170.2 39.9603 169.86 39.347 169.18C38.7336 168.5 38.427 167.46 38.427 166.06V159.9H40.927V166.04C40.927 166.787 41.0803 167.34 41.387 167.7C41.6936 168.047 42.1603 168.22 42.787 168.22C43.4936 168.22 44.067 167.98 44.507 167.5C44.9603 167.02 45.187 166.387 45.187 165.6V159.9H47.687V170H45.247V167.94H45.527C45.2336 168.66 44.787 169.22 44.187 169.62C43.6003 170.007 42.9136 170.2 42.127 170.2ZM55.041 170.2C54.001 170.2 53.0877 169.987 52.301 169.56C51.5277 169.133 50.9277 168.527 50.501 167.74C50.0743 166.94 49.861 165.993 49.861 164.9C49.861 163.807 50.0743 162.873 50.501 162.1C50.941 161.327 51.5477 160.733 52.321 160.32C53.0943 159.907 54.001 159.7 55.041 159.7C55.7077 159.7 56.3543 159.807 56.981 160.02C57.621 160.22 58.141 160.513 58.541 160.9L57.781 162.64C57.421 162.307 57.0143 162.06 56.561 161.9C56.121 161.727 55.6877 161.64 55.261 161.64C54.3677 161.64 53.6677 161.92 53.161 162.48C52.6677 163.04 52.421 163.853 52.421 164.92C52.421 165.987 52.6677 166.807 53.161 167.38C53.6677 167.953 54.3677 168.24 55.261 168.24C55.6743 168.24 56.101 168.16 56.541 168C56.9943 167.84 57.4077 167.593 57.781 167.26L58.541 168.98C58.1277 169.367 57.601 169.667 56.961 169.88C56.3343 170.093 55.6943 170.2 55.041 170.2ZM64.9238 170.2C63.8838 170.2 62.9705 169.987 62.1838 169.56C61.4105 169.133 60.8105 168.527 60.3838 167.74C59.9572 166.94 59.7438 165.993 59.7438 164.9C59.7438 163.807 59.9572 162.873 60.3838 162.1C60.8238 161.327 61.4305 160.733 62.2038 160.32C62.9772 159.907 63.8838 159.7 64.9238 159.7C65.5905 159.7 66.2372 159.807 66.8638 160.02C67.5038 160.22 68.0238 160.513 68.4238 160.9L67.6638 162.64C67.3038 162.307 66.8972 162.06 66.4438 161.9C66.0038 161.727 65.5705 161.64 65.1438 161.64C64.2505 161.64 63.5505 161.92 63.0438 162.48C62.5505 163.04 62.3038 163.853 62.3038 164.92C62.3038 165.987 62.5505 166.807 63.0438 167.38C63.5505 167.953 64.2505 168.24 65.1438 168.24C65.5572 168.24 65.9838 168.16 66.4238 168C66.8772 167.84 67.2905 167.593 67.6638 167.26L68.4238 168.98C68.0105 169.367 67.4838 169.667 66.8438 169.88C66.2172 170.093 65.5772 170.2 64.9238 170.2ZM75.0466 170.2C73.3533 170.2 72.0266 169.733 71.0666 168.8C70.1066 167.867 69.6266 166.587 69.6266 164.96C69.6266 163.907 69.8333 162.987 70.2466 162.2C70.66 161.413 71.2333 160.8 71.9666 160.36C72.7133 159.92 73.58 159.7 74.5666 159.7C75.54 159.7 76.3533 159.907 77.0066 160.32C77.66 160.733 78.1533 161.313 78.4866 162.06C78.8333 162.807 79.0066 163.68 79.0066 164.68V165.34H71.6466V164.02H77.2266L76.8866 164.3C76.8866 163.367 76.6866 162.653 76.2866 162.16C75.9 161.667 75.3333 161.42 74.5866 161.42C73.76 161.42 73.12 161.713 72.6666 162.3C72.2266 162.887 72.0066 163.707 72.0066 164.76V165.02C72.0066 166.113 72.2733 166.933 72.8066 167.48C73.3533 168.013 74.12 168.28 75.1066 168.28C75.68 168.28 76.2133 168.207 76.7066 168.06C77.2133 167.9 77.6933 167.647 78.1466 167.3L78.8866 168.98C78.4066 169.367 77.8333 169.667 77.1666 169.88C76.5 170.093 75.7933 170.2 75.0466 170.2ZM84.7237 170.2C83.857 170.2 83.057 170.1 82.3237 169.9C81.6037 169.687 80.997 169.393 80.5037 169.02L81.2037 167.34C81.7103 167.687 82.2703 167.953 82.8837 168.14C83.497 168.327 84.117 168.42 84.7437 168.42C85.4103 168.42 85.9037 168.307 86.2237 168.08C86.557 167.853 86.7237 167.547 86.7237 167.16C86.7237 166.853 86.617 166.613 86.4037 166.44C86.2037 166.253 85.877 166.113 85.4237 166.02L83.4237 165.64C82.5703 165.453 81.917 165.133 81.4637 164.68C81.0237 164.227 80.8037 163.633 80.8037 162.9C80.8037 162.273 80.9703 161.72 81.3037 161.24C81.6503 160.76 82.137 160.387 82.7637 160.12C83.4037 159.84 84.1503 159.7 85.0037 159.7C85.7503 159.7 86.4503 159.8 87.1037 160C87.7703 160.2 88.3303 160.5 88.7837 160.9L88.0637 162.52C87.6503 162.187 87.177 161.927 86.6437 161.74C86.1103 161.553 85.5903 161.46 85.0837 161.46C84.3903 161.46 83.8837 161.587 83.5637 161.84C83.2437 162.08 83.0837 162.393 83.0837 162.78C83.0837 163.073 83.177 163.32 83.3637 163.52C83.5637 163.707 83.8703 163.847 84.2837 163.94L86.2837 164.32C87.177 164.493 87.8503 164.8 88.3037 165.24C88.7703 165.667 89.0037 166.253 89.0037 167C89.0037 167.667 88.8237 168.24 88.4637 168.72C88.1037 169.2 87.6037 169.567 86.9637 169.82C86.3237 170.073 85.577 170.2 84.7237 170.2ZM94.7432 170.2C93.8765 170.2 93.0765 170.1 92.3432 169.9C91.6232 169.687 91.0165 169.393 90.5232 169.02L91.2232 167.34C91.7299 167.687 92.2899 167.953 92.9032 168.14C93.5165 168.327 94.1365 168.42 94.7632 168.42C95.4299 168.42 95.9232 168.307 96.2432 168.08C96.5765 167.853 96.7432 167.547 96.7432 167.16C96.7432 166.853 96.6365 166.613 96.4232 166.44C96.2232 166.253 95.8965 166.113 95.4432 166.02L93.4432 165.64C92.5899 165.453 91.9365 165.133 91.4832 164.68C91.0432 164.227 90.8232 163.633 90.8232 162.9C90.8232 162.273 90.9899 161.72 91.3232 161.24C91.6699 160.76 92.1565 160.387 92.7832 160.12C93.4232 159.84 94.1699 159.7 95.0232 159.7C95.7699 159.7 96.4699 159.8 97.1232 160C97.7899 160.2 98.3499 160.5 98.8032 160.9L98.0832 162.52C97.6699 162.187 97.1965 161.927 96.6632 161.74C96.1299 161.553 95.6099 161.46 95.1032 161.46C94.4099 161.46 93.9032 161.587 93.5832 161.84C93.2632 162.08 93.1032 162.393 93.1032 162.78C93.1032 163.073 93.1965 163.32 93.3832 163.52C93.5832 163.707 93.8899 163.847 94.3032 163.94L96.3032 164.32C97.1965 164.493 97.8699 164.8 98.3232 165.24C98.7899 165.667 99.0232 166.253 99.0232 167C99.0232 167.667 98.8432 168.24 98.4832 168.72C98.1232 169.2 97.6232 169.567 96.9832 169.82C96.3432 170.073 95.5965 170.2 94.7432 170.2ZM101.523 165.82L100.743 155.9H103.823L103.043 165.82H101.523ZM100.883 170V167.22H103.683V170H100.883Z" fill="black"/>
<path d="M34 49.3333L62.6667 82L120 12" stroke="url(#paint0_linear_4872_30699)" stroke-width="10" stroke-linecap="round" stroke-linejoin="round"/>
<path d="M60 5.84841C60 2.61842 57.3753 -0.0295524 54.1607 0.284783C44.3563 1.24347 34.9065 4.60556 26.6658 10.1118C16.7988 16.7047 9.10849 26.0754 4.56723 37.039C0.0259702 48.0026 -1.16223 60.0666 1.15288 71.7054C3.468 83.3443 9.18244 94.0353 17.5736 102.426C25.9647 110.818 36.6557 116.532 48.2946 118.847C59.9334 121.162 71.9974 119.974 82.961 115.433C93.9246 110.892 103.295 103.201 109.888 93.3342C115.394 85.0935 118.757 75.6437 119.715 65.8393C120.03 62.6247 117.382 60 114.152 60C110.922 60 108.34 62.628 107.95 65.8343C107.039 73.3213 104.383 80.5197 100.163 86.8358C94.855 94.7792 87.3111 100.97 78.4848 104.626C69.6586 108.282 59.9464 109.239 50.5765 107.375C41.2066 105.511 32.5998 100.911 25.8445 94.1555C19.0892 87.4002 14.4887 78.7934 12.625 69.4235C10.7612 60.0536 11.7177 50.3414 15.3737 41.5152C19.0296 32.6889 25.2208 25.145 33.1642 19.8374C39.4803 15.6171 46.6787 12.9614 54.1657 12.0504C57.372 11.6603 60 9.0784 60 5.84841Z" fill="url(#paint1_linear_4872_30699)"/>
<defs>
<linearGradient id="paint0_linear_4872_30699" x1="34" y1="47" x2="120" y2="12" gradientUnits="userSpaceOnUse">
<stop stop-color="#0A4E79"/>
<stop offset="1" stop-color="#38A7EF"/>
</linearGradient>
<linearGradient id="paint1_linear_4872_30699" x1="60" y1="0" x2="107.5" y2="60" gradientUnits="userSpaceOnUse">
<stop stop-color="#048DDF"/>
<stop offset="0.475" stop-color="#1F88CB"/>
<stop offset="1" stop-color="#006CB1"/>
</linearGradient>
</defs>
</svg>
