<svg width="14" height="14" viewBox="0 0 14 14" fill="none" xmlns="http://www.w3.org/2000/svg">
<path d="M10.4995 1.09329V6.3434C10.4421 6.3434 10.3853 6.35471 10.3323 6.3767C10.2792 6.39869 10.2311 6.43092 10.1905 6.47155C10.15 6.51217 10.1178 6.5604 10.096 6.61345C10.0741 6.66651 10.0629 6.72337 10.063 6.78077L10.0621 8.751H1.31307C0.82361 8.751 0.4375 9.14538 0.4375 9.62657V11.8126C0.4375 12.2938 0.825264 12.6882 1.31307 12.6882H1.53134V13.3438C1.53051 13.4645 1.6289 13.5637 1.75044 13.5629H3.28248C3.40319 13.5629 3.50158 13.4637 3.50075 13.3438V12.6882H10.5003V13.3438C10.5003 13.4653 10.5987 13.5637 10.7203 13.5629H12.2506C12.2795 13.563 12.3081 13.5574 12.3347 13.5465C12.3614 13.5355 12.3857 13.5194 12.4061 13.499C12.4265 13.4787 12.4428 13.4545 12.4538 13.4278C12.4649 13.4012 12.4706 13.3727 12.4706 13.3438V12.6882H12.6888C13.1783 12.6882 13.5636 12.2938 13.5636 11.8126V9.62657C13.5636 9.14538 13.1783 8.75018 12.6888 8.75018H12.2506V6.78159C12.2504 6.66588 12.2044 6.55497 12.1225 6.47315C12.0407 6.39133 11.9298 6.34527 11.8141 6.34505L11.8133 1.09495C11.8133 0.92084 11.7441 0.753864 11.621 0.630752C11.4979 0.50764 11.3309 0.438477 11.1568 0.438477C10.9827 0.438477 10.8157 0.50764 10.6926 0.630752C10.5695 0.753864 10.5003 0.92084 10.5003 1.09495L10.4995 1.09329ZM11.1568 0.875847C11.2759 0.875847 11.3751 0.968448 11.3751 1.09329V6.3434H10.9377V1.09329C10.9377 0.969274 11.0377 0.875847 11.1568 0.875847ZM4.93605 2.91057C4.19179 2.91172 3.45518 3.06068 2.76895 3.3488C2.08272 3.63691 1.46054 4.05845 0.938534 4.58895C0.725222 4.78821 1.05346 5.11314 1.25023 4.89569C1.73148 4.4068 2.30504 4.01838 2.93763 3.75297C3.57021 3.48756 4.24922 3.35045 4.93523 3.3496C6.31762 3.3496 7.64378 3.90602 8.62187 4.89569C8.8203 5.11396 9.1444 4.78655 8.93275 4.58895C8.41068 4.05881 7.7886 3.63756 7.10254 3.34959C6.41648 3.06163 5.68009 2.91186 4.93605 2.91057ZM4.93605 4.28717C4.37096 4.28763 3.81158 4.40034 3.2904 4.61878C2.76923 4.83721 2.29664 5.15701 1.90009 5.5596C1.67355 5.75142 2.02576 6.08709 2.21013 5.86551C2.56623 5.50408 2.99056 5.21696 3.4585 5.02082C3.92644 4.82467 4.42867 4.72341 4.93605 4.72289C5.95796 4.72289 6.93771 5.1338 7.66197 5.86634C7.86206 6.078 8.1812 5.76299 7.97367 5.5596C7.5768 5.15692 7.10394 4.83702 6.5825 4.61846C6.06107 4.3999 5.50144 4.28784 4.93605 4.28717ZM4.93605 5.6613C4.15639 5.6613 3.41146 5.97299 2.86082 6.52942C2.64833 6.72537 2.97161 7.05526 3.17086 6.83782C3.4016 6.60396 3.6765 6.41827 3.97959 6.29153C4.28269 6.16479 4.60794 6.09953 4.93647 6.09953C5.26499 6.09953 5.59025 6.16479 5.89334 6.29153C6.19644 6.41827 6.47133 6.60396 6.70207 6.83782C6.90546 7.05278 7.22295 6.73199 7.01377 6.52942C6.74209 6.25448 6.41855 6.03618 6.0619 5.88717C5.70525 5.73815 5.32258 5.66138 4.93605 5.6613ZM10.5003 6.78159H11.8124V8.751H10.4995L10.5003 6.78159ZM4.93523 7.03624C4.51605 7.03624 4.11505 7.20408 3.81906 7.50255C3.6041 7.7109 3.92489 8.02839 4.13076 7.81094C4.2358 7.70408 4.36107 7.6192 4.49926 7.56126C4.63745 7.50331 4.78579 7.47347 4.93564 7.47347C5.08549 7.47347 5.23383 7.50331 5.37202 7.56126C5.51021 7.6192 5.63548 7.70408 5.74052 7.81094C5.94639 8.02591 6.2647 7.70925 6.05056 7.50255C5.90459 7.35488 5.73078 7.23763 5.53919 7.15759C5.3476 7.07755 5.14286 7.0363 4.93523 7.03624ZM1.31307 9.1892H12.688C12.9344 9.1892 13.1254 9.38349 13.1254 9.62657V11.8126C13.1254 12.059 12.9278 12.2508 12.6872 12.2508H1.3139C1.2562 12.2513 1.19897 12.2404 1.14555 12.2186C1.09214 12.1967 1.04361 12.1645 1.00281 12.1237C0.962011 12.0829 0.929755 12.0344 0.907929 11.9809C0.886103 11.9275 0.875145 11.8703 0.875698 11.8126V9.62657C0.875698 9.38349 1.06751 9.18837 1.3139 9.18837L1.31307 9.1892ZM2.40526 9.62657C2.23137 9.62657 2.0646 9.69565 1.94165 9.8186C1.81869 9.94156 1.74961 10.1083 1.74961 10.2822C1.74961 10.4561 1.81869 10.6229 1.94165 10.7458C2.0646 10.8688 2.23137 10.9379 2.40526 10.9379C2.49413 10.9423 2.58298 10.9287 2.66641 10.8977C2.74984 10.8668 2.82611 10.8192 2.89059 10.7579C2.95507 10.6966 3.00641 10.6228 3.04149 10.541C3.07657 10.4592 3.09466 10.3712 3.09466 10.2822C3.09466 10.1932 3.07657 10.1052 3.04149 10.0234C3.00641 9.94163 2.95507 9.86784 2.89059 9.80652C2.82611 9.7452 2.74984 9.69762 2.66641 9.66669C2.58298 9.63576 2.49413 9.62211 2.40526 9.62657ZM4.15805 9.62657C3.7893 9.62657 3.49992 9.92173 3.49992 10.2814C3.49992 10.641 3.79343 10.9379 4.15805 10.9379C4.33193 10.9379 4.4987 10.8688 4.62166 10.7458C4.74461 10.6229 4.81369 10.4561 4.81369 10.2822C4.81369 10.1083 4.74461 9.94156 4.62166 9.8186C4.4987 9.69565 4.33193 9.62657 4.15805 9.62657ZM5.90753 9.62657C5.81943 9.62323 5.73156 9.63767 5.64916 9.66902C5.56676 9.70038 5.49152 9.74801 5.42793 9.80908C5.36434 9.87015 5.3137 9.9434 5.27904 10.0245C5.24437 10.1055 5.2264 10.1927 5.22617 10.2809C5.22595 10.3691 5.24349 10.4564 5.27774 10.5376C5.312 10.6189 5.36227 10.6924 5.42555 10.7538C5.48883 10.8151 5.56383 10.8632 5.64607 10.8949C5.72831 10.9267 5.8161 10.9416 5.90422 10.9387C6.07421 10.9331 6.2354 10.8617 6.35383 10.7397C6.47226 10.6176 6.53868 10.4543 6.53911 10.2842C6.53954 10.1141 6.47394 9.95053 6.35613 9.82786C6.23832 9.70518 6.07749 9.63302 5.90753 9.62657ZM2.40526 10.0623C2.52183 10.0623 2.62518 10.1582 2.62518 10.2814C2.62518 10.3395 2.6021 10.3952 2.56101 10.4363C2.51992 10.4774 2.46419 10.5005 2.40608 10.5005C2.34797 10.5005 2.29224 10.4774 2.25116 10.4363C2.21007 10.3952 2.18698 10.3395 2.18698 10.2814C2.18698 10.1582 2.28868 10.0623 2.40526 10.0623ZM4.15805 10.0623C4.27545 10.0623 4.37549 10.1582 4.37549 10.2814C4.37549 10.4046 4.27628 10.4997 4.15805 10.4997C4.03982 10.4997 3.93729 10.4054 3.93729 10.2814C3.93729 10.1574 4.04064 10.0623 4.15805 10.0623ZM5.90753 10.0623C6.02245 10.0623 6.12497 10.1582 6.12497 10.2814C6.12497 10.4046 6.02576 10.4997 5.90753 10.4997C5.78847 10.4997 5.6876 10.4054 5.6876 10.2814C5.6876 10.1574 5.79261 10.0623 5.90753 10.0623ZM7.21799 10.0623C6.93275 10.0623 6.93275 10.4997 7.21799 10.4997H9.18905C9.47429 10.4997 9.47429 10.0615 9.18905 10.0615L7.21799 10.0623ZM10.1721 10.0623C9.88603 10.0623 9.88603 10.4997 10.1721 10.4997H10.7194C11.0047 10.4997 11.0047 10.0615 10.7194 10.0615L10.1721 10.0623ZM1.96788 12.6882H3.06173V13.1255H1.96871L1.96788 12.6882ZM10.9369 12.6882H12.0307V13.1255H10.9385L10.9369 12.6882Z" fill="black"/>
</svg>
