<svg width="16" height="16" viewBox="0 0 16 16" fill="none" xmlns="http://www.w3.org/2000/svg">
<g clip-path="url(#clip0_3210_1656)">
<path d="M13.9086 4.12856C15.0462 4.12856 15.9685 3.20435 15.9685 2.06428C15.9685 0.92421 15.0462 0 13.9086 0C12.7709 0 11.8486 0.92421 11.8486 2.06428C11.8486 3.20435 12.7709 4.12856 13.9086 4.12856Z" fill="#4EB9F8"/>
<path d="M11.231 11.574H12.5561V12.9019H11.231V11.574ZM8.8188 4.35151C9.07584 4.12301 9.40662 3.9972 9.75018 3.9972C10.0937 3.9972 10.4245 4.12304 10.6816 4.35151L11.0509 4.67982V3.50679C11.0509 1.57582 9.48324 0.00488281 7.5563 0.00488281C5.86843 0.00488281 4.45624 1.21029 4.13184 2.80716C4.66243 3.61476 5.5923 5.19335 5.99002 6.8662L8.8188 4.35151Z" fill="#4EB9F8"/>
<path d="M15.5322 15.0562H14.886V10.5954L15.1905 10.8661C15.2759 10.9422 15.3864 10.9843 15.5008 10.9841C15.567 10.9842 15.6325 10.9702 15.6929 10.943C15.7532 10.9158 15.8071 10.8761 15.8509 10.8264C16.0224 10.6327 16.0047 10.3364 15.8114 10.1646L14.4399 8.94546V6.51577C14.4399 6.25687 14.2305 6.04696 13.9721 6.04696C13.7137 6.04696 13.5042 6.25687 13.5042 6.51577V8.11368L10.0608 5.05255C9.97523 4.97648 9.86476 4.93445 9.7503 4.93445C9.63584 4.93445 9.52536 4.97648 9.43984 5.05255L3.68922 10.1646C3.49594 10.3364 3.47825 10.6327 3.64969 10.8264C3.82116 11.0201 4.11687 11.0378 4.31012 10.866L4.61462 10.5953V15.0561H3.10475V13.0108C3.30459 12.9496 3.49691 12.8491 3.679 12.7113V11.8845C3.39675 11.818 3.14201 11.6658 2.94978 11.4487C2.43625 10.8686 2.48941 9.97787 3.06828 9.46321L5.17991 7.58609C4.82447 5.31377 3.09491 2.94459 3.01322 2.83377C2.925 2.71415 2.78538 2.64355 2.63694 2.64355C2.4885 2.64355 2.34888 2.71415 2.26066 2.83377C2.16956 2.9573 0.0300937 5.88762 0.0300937 8.3614C0.0300937 9.5688 0.270375 10.7113 0.706688 11.5784C1.09156 12.3433 1.59978 12.8367 2.16909 13.0108V15.0562H0.467844C0.209469 15.0562 0 15.2661 0 15.525C0 15.7839 0.209469 15.9938 0.467844 15.9998H15.5322C15.7906 15.9938 16 15.7839 16 15.525C16 15.2661 15.7905 15.0562 15.5322 15.0562ZM10.2954 11.1048C10.2954 10.8459 10.5049 10.636 10.7633 10.636H13.0241C13.2825 10.636 13.492 10.8459 13.492 11.1048V13.3704C13.492 13.6293 13.2825 13.8392 13.0241 13.8392H10.7633C10.5049 13.8392 10.2954 13.6293 10.2954 13.3704V11.1048ZM7.73359 15.0562V11.5736H6.79791V15.0562H5.86225V11.1048C5.86225 10.8459 6.07172 10.636 6.33009 10.636H8.20144C8.45981 10.636 8.66928 10.8459 8.66928 11.1048V15.0562H7.73359Z" fill="#4EB9F8"/>
</g>
<defs>
<clipPath id="clip0_3210_1656">
<rect width="16" height="16" fill="white"/>
</clipPath>
</defs>
</svg>
