<svg width="8" height="8" viewBox="0 0 8 8" fill="none" xmlns="http://www.w3.org/2000/svg">
<rect opacity="0.01" width="8" height="8" fill="black"/>
<path fill-rule="evenodd" clip-rule="evenodd" d="M0.5 4C0.5 2.067 2.067 0.5 4 0.5C5.933 0.5 7.5 2.067 7.5 4C7.5 5.933 5.933 7.5 4 7.5C2.067 7.5 0.5 5.933 0.5 4ZM4.94012 5.96042L4.87687 6.24601C4.68713 6.32873 4.53557 6.39169 4.42271 6.43498C4.30972 6.4784 4.17844 6.5 4.02886 6.5C3.79916 6.5 3.6205 6.43785 3.49307 6.31439C3.36565 6.19044 3.30191 6.03337 3.30191 5.84283C3.30191 5.76907 3.30654 5.6932 3.31615 5.6159C3.32585 5.53851 3.34126 5.45135 3.36236 5.35393L3.59948 4.42686C3.62058 4.33808 3.63851 4.25397 3.65287 4.17443C3.66744 4.09538 3.67446 4.02265 3.67446 3.95718C3.67446 3.83879 3.65226 3.75598 3.60809 3.70942C3.56391 3.66299 3.4796 3.63942 3.35445 3.63942C3.29315 3.63942 3.23015 3.65026 3.16593 3.67124C3.10142 3.6923 3.04629 3.71264 3 3.73155L3.06341 3.44574C3.21875 3.37588 3.36723 3.31606 3.50926 3.2664C3.65129 3.21662 3.78549 3.1917 3.91243 3.1917C4.14055 3.1917 4.31658 3.2526 4.44019 3.3744C4.5638 3.49629 4.62559 3.6543 4.62559 3.84901C4.62559 3.88929 4.62153 3.96027 4.61281 4.06173C4.60429 4.16341 4.58843 4.25657 4.56531 4.34131L4.3292 5.26466C4.30984 5.33883 4.29244 5.42361 4.27731 5.51902C4.26169 5.6138 4.25422 5.68621 4.25422 5.73479C4.25422 5.85739 4.27897 5.9411 4.32859 5.9856C4.37857 6.0301 4.46465 6.05224 4.58693 6.05224C4.64433 6.05224 4.70965 6.04099 4.78223 6.0189C4.8546 5.9968 4.90738 5.9774 4.94012 5.96042ZM4.8348 2.49514C4.94511 2.38217 5 2.24478 5 2.0839C5 1.92338 4.94519 1.78572 4.8348 1.67132C4.72478 1.55723 4.59216 1.5 4.43711 1.5C4.28157 1.5 4.14842 1.55709 4.03734 1.67132C3.92627 1.78572 3.87061 1.92334 3.87061 2.0839C3.87061 2.24478 3.92627 2.38213 4.03734 2.49514C4.14862 2.60852 4.28153 2.66525 4.43711 2.66525C4.5922 2.66525 4.72478 2.60852 4.8348 2.49514Z" fill="#045284"/>
</svg>
