<svg width="21" height="21" viewBox="0 0 21 21" fill="none" xmlns="http://www.w3.org/2000/svg">
<rect opacity="0.01" width="21" height="21" fill="black"/>
<path fill-rule="evenodd" clip-rule="evenodd" d="M11.55 9.10008L17.675 2.10008C17.8626 1.84996 18.1693 1.71891 18.4797 1.75629C18.7901 1.79368 19.0569 1.99382 19.1797 2.28132C19.3025 2.56882 19.2626 2.9 19.075 3.15008L13.125 9.91646V16.6251C13.1248 16.9564 12.9375 17.2592 12.6411 17.4073L9.14113 19.1573C8.86997 19.2928 8.54799 19.2783 8.2901 19.119C8.03221 18.9597 7.87517 18.6782 7.87501 18.3751V9.91646L1.92501 3.15008C1.72615 2.88494 1.69416 2.53021 1.84238 2.23377C1.9906 1.93733 2.29358 1.75008 2.62501 1.75008H14.875C15.3582 1.75016 15.7499 2.14188 15.7499 2.62508C15.7499 3.10828 15.3582 3.50001 14.875 3.50008H4.37501L9.45001 9.10008C9.5636 9.25154 9.62501 9.43576 9.62501 9.62508V16.9593L11.375 16.0843V9.62508C11.375 9.43576 11.4364 9.25154 11.55 9.10008Z" fill="#1E1F20"/>
</svg>
