<svg width="24" height="24" viewBox="0 0 24 24" fill="none" xmlns="http://www.w3.org/2000/svg">
<path fill-rule="evenodd" clip-rule="evenodd" d="M19.0954 11.7248V4H5V20H11.2059C11.7297 20 12.1582 20.502 12.1582 21.0336C12.1582 21.5651 11.7297 22 11.2059 22H3.95232C3.42852 22 3 21.5651 3 21.0336V2.96643C3 2.43487 3.42858 2 3.95232 2H20.0477C20.5715 2 21 2.43487 21 2.96643V11.7248C21 12.2564 20.5715 12.6912 20.0477 12.6912C19.5239 12.6912 19.0954 12.2564 19.0954 11.7248ZM22.685 14.257C22.2925 13.8856 21.696 13.9194 21.3506 14.3413L17.1858 19.5189L14.5956 16.8352C14.2189 16.447 13.6223 16.4638 13.2613 16.8689C12.9002 17.2741 12.9159 17.9154 13.2927 18.3036L16.5893 21.713C16.762 21.8987 16.9974 22 17.2486 22C17.5312 21.9831 17.7823 21.865 17.9393 21.6624L22.7477 15.7085C23.1088 15.2696 23.0774 14.6283 22.685 14.257ZM15.8764 7H8.1236C7.5056 7 7 7.44998 7 8C7 8.55002 7.5056 9 8.1236 9H15.8764C16.4944 9 17 8.55002 17 8C17 7.44998 16.4944 7 15.8764 7ZM17 12C17 11.45 16.4944 11 15.8764 11H8.12359C7.50559 11 7 11.45 7 12C7 12.55 7.50559 13 8.12359 13H15.8763C16.4943 13 17 12.55 17 12ZM8.106 15C7.49768 15 7 15.45 7 16C7 16.55 7.49768 17 8.106 17H9.894C10.5023 17 11 16.55 11 16C11 15.45 10.5023 15 9.894 15H8.106Z" fill="white"/>
</svg>
