<svg width="18" height="18" viewBox="0 0 18 18" fill="none" xmlns="http://www.w3.org/2000/svg">
<rect opacity="0.01" width="18" height="18" fill="black"/>
<path fill-rule="evenodd" clip-rule="evenodd" d="M14.5263 9.12669H6.73026V8.33031C6.73026 8.03166 6.81395 7.83257 7.22368 7.83257H14.0329C14.4426 7.83257 14.5263 8.03166 14.5263 8.33031V9.12669ZM4.12895 8.58515C3.73105 8.58515 3.40658 8.25863 3.40658 7.85646C3.40658 7.45508 3.73105 7.12777 4.12895 7.12777C4.52684 7.12777 4.85132 7.45508 4.85132 7.85646C4.85132 8.25863 4.52684 8.58515 4.12895 8.58515ZM2.88158 11.5158H15.0291V10.5204H2.88158V11.5158ZM15.9079 9.18721V8.33031C15.9079 7.19945 15.1547 6.4389 14.0329 6.4389H7.22368C6.69553 6.4389 6.25342 6.61251 5.92816 6.90956C5.58711 6.25335 4.91289 5.79941 4.12895 5.79941C3.65684 5.79941 3.22737 5.96904 2.88158 6.2414V4.45671C2.88158 4.1063 2.62737 3.80607 2.29263 3.75828C2.09132 3.72643 1.89158 3.78775 1.73921 3.91995C1.58763 4.05294 1.5 4.24487 1.5 4.44795V14.2944C1.5 14.644 1.75421 14.9443 2.08974 14.9928C2.12368 14.9976 2.15684 15 2.19 15C2.355 15 2.51684 14.9403 2.64237 14.8304C2.79474 14.6982 2.88158 14.5054 2.88158 14.3032V12.9095H15.0291V14.2944C15.0291 14.644 15.3718 14.9443 15.7082 14.9928C15.9032 15.0215 16.1084 14.9634 16.2608 14.8304C16.4132 14.6974 16.5 14.5054 16.5 14.3032V10.1222C16.5 9.64035 16.2884 9.31463 15.9079 9.18721Z" fill="#4EB9F8"/>
</svg>
