<svg width="40" height="40" viewBox="0 0 40 40" fill="none" xmlns="http://www.w3.org/2000/svg">
<rect opacity="0.01" width="40" height="40" fill="black"/>
<path fill-rule="evenodd" clip-rule="evenodd" d="M32.0595 23.0918C32.8339 23.5893 33.0584 24.6204 32.5609 25.3949C31.418 27.1739 30.0563 28.8527 28.5222 30.4297C26.8569 32.1415 25.0773 33.6465 23.2963 34.936L22.6144 35.4197L22.0079 35.8316C21.5359 36.1448 21.1501 36.3826 20.8698 36.5429C20.3514 36.8395 19.714 36.8361 19.1988 36.5339L18.6882 36.2206L18.5044 36.104C17.973 35.7648 17.3831 35.3694 16.7492 34.9209C14.9401 33.641 13.1313 32.1865 11.4375 30.5788C9.70835 28.9375 8.19463 27.2242 6.95756 25.4457C6.43194 24.6901 6.61841 23.6514 7.37406 23.1258C8.1297 22.6002 9.16837 22.7867 9.69399 23.5423C10.7917 25.1204 12.1579 26.6667 13.7323 28.1611C15.301 29.6501 16.9878 31.0065 18.6743 32.1997L19.5242 32.7866L20.0443 33.1296L20.1362 33.0708C20.3854 32.9064 20.6479 32.7279 20.9219 32.5354L21.3414 32.2362C22.9755 31.0529 24.6109 29.67 26.1329 28.1053C27.5185 26.6811 28.7408 25.1741 29.7564 23.5932C30.2539 22.8187 31.2851 22.5943 32.0595 23.0918ZM13.9299 16.7351C14.4655 16.7499 14.9677 16.9846 15.3217 17.378L15.464 17.5562L15.5908 17.7355L16.9043 21.2962L18.5964 18.7466C18.9321 18.1722 19.5349 17.8139 20.1896 17.7853L20.4095 17.7881C20.9257 17.8239 21.3965 18.0624 21.729 18.4368L21.8677 18.6112L23.9843 20.9112L25.311 19.5212L25.345 19.4776C25.6623 19.0969 26.1167 18.849 26.6195 18.7906L26.8377 18.7774H36.666C37.5865 18.7774 38.3327 19.5235 38.3327 20.444C38.3327 21.2987 37.6893 22.0032 36.8604 22.0995L36.666 22.1107L27.4477 22.1096L25.491 24.1596L25.4583 24.2074C25.1259 24.6068 24.644 24.8595 24.1201 24.9016L23.8933 24.9066C23.3597 24.8872 22.8684 24.6507 22.5223 24.2684L22.3793 24.0896L20.4427 21.9846L18.2225 25.3326C17.9273 25.8396 17.4215 26.1827 16.8496 26.2742L16.6324 26.2966C16.0464 26.3238 15.4836 26.0852 15.0964 25.6546L14.9597 25.4843L14.8298 25.3023L13.4177 21.4762L13.0517 21.9351C12.7294 22.3388 12.2619 22.5952 11.753 22.6535L11.5327 22.6662H3.33268C2.41221 22.6662 1.66602 21.9201 1.66602 20.9996C1.66602 20.1449 2.30942 19.4404 3.13831 19.3441L3.33268 19.3329H10.8627L12.3529 17.4706C12.6859 17.0508 13.1749 16.7897 13.702 16.7422L13.9299 16.7351ZM36.6659 14.354C36.6559 15.1464 36.5865 15.9364 36.4586 16.7173C36.3098 17.6257 35.4528 18.2415 34.5444 18.0927C33.6361 17.9439 33.0203 17.0869 33.1691 16.1785C33.2701 15.5617 33.3249 14.9378 33.3327 14.3329C33.3327 6.86284 23.4578 6.07285 21.6019 12.5686C21.1414 14.1803 18.8573 14.1803 18.3968 12.5686C16.5153 5.98331 6.66602 6.97612 6.66576 14.8592C6.67439 15.3502 6.71414 15.8398 6.78465 16.3251C6.91699 17.2361 6.28584 18.0818 5.37493 18.2141C4.46402 18.3465 3.61829 17.7153 3.48595 16.8044C3.39521 16.1798 3.34405 15.5497 3.33268 14.8885C3.33268 4.53844 14.9704 2.02595 19.9056 8.27978L20.0044 8.41124L20.1343 8.246C25.0811 2.1009 36.6659 4.35311 36.6659 14.354Z" fill="#045284"/>
</svg>
