<svg width="40" height="40" viewBox="0 0 40 40" fill="none" xmlns="http://www.w3.org/2000/svg">
<rect opacity="0.01" width="40" height="40" fill="black"/>
<path fill-rule="evenodd" clip-rule="evenodd" d="M20.834 23.333C17.6257 23.333 15.0007 20.6859 15.0007 17.4507V9.21536C15.0007 5.98007 17.6257 3.33301 20.834 3.33301C24.0423 3.33301 26.6673 5.98007 26.6673 9.21536V17.4507C26.6673 20.6859 24.0423 23.333 20.834 23.333ZM20.834 6.27418C19.2298 6.27418 17.9173 7.59771 17.9173 9.21536V17.4507C17.9173 19.0683 19.2298 20.3918 20.834 20.3918C22.4382 20.3918 23.7507 19.0683 23.7507 17.4507V9.21536C23.7507 7.59771 22.4382 6.27418 20.834 6.27418ZM27.084 33.333H22.3965V30.3968C28.5412 29.6314 33.334 24.4156 33.334 18.1478V15.0614C33.334 14.1355 32.709 13.5182 31.7715 13.5182C30.834 13.5182 30.209 14.1355 30.209 15.0614V18.1478C30.209 23.2404 25.9902 27.4071 20.834 27.4071C15.6777 27.4071 11.459 23.2404 11.459 18.1478V15.0614C11.459 14.1355 10.834 13.5182 9.89648 13.5182C8.95898 13.5182 8.33398 14.1355 8.33398 15.0614V18.1478C8.33398 24.4156 13.1268 29.6314 19.2715 30.3968V33.333H14.584C13.6465 33.333 13.0215 34.0235 13.0215 34.9495C13.0215 35.8754 13.6465 36.6663 14.584 36.6663H27.084C28.0215 36.6663 28.6465 35.8754 28.6465 34.9495C28.6465 34.0235 28.0215 33.333 27.084 33.333Z" fill="#045284"/>
</svg>
