<svg width="8" height="8" viewBox="0 0 8 8" fill="none" xmlns="http://www.w3.org/2000/svg">
<path fill-rule="evenodd" clip-rule="evenodd" d="M4 0.5C5.65685 0.5 7 1.7536 7 3.3C7 4.32235 6.49563 5.3258 5.6725 6.2379C5.065 6.9099 4.30037 7.5 4 7.5C3.69963 7.5 2.93462 6.91025 2.3275 6.2379C1.50475 5.3258 1 4.32235 1 3.3C1 1.7536 2.34315 0.5 4 0.5ZM4 2.25C4.62132 2.25 5.125 2.7553 5.125 3.37861C5.125 4.00192 4.62132 4.50722 4 4.50722C3.37868 4.50722 2.875 4.00192 2.875 3.37861C2.875 2.7553 3.37868 2.25 4 2.25ZM3.625 3.37861C3.625 3.58638 3.79289 3.75481 4 3.75481C4.20711 3.75481 4.375 3.58638 4.375 3.37861C4.375 3.17084 4.20711 3.00241 4 3.00241C3.79289 3.00241 3.625 3.17084 3.625 3.37861Z" fill="#045284"/>
</svg>
