<svg width="40" height="40" viewBox="0 0 40 40" fill="none" xmlns="http://www.w3.org/2000/svg">
<rect opacity="0.01" width="40" height="40" fill="black"/>
<path fill-rule="evenodd" clip-rule="evenodd" d="M36.6497 30.2783C36.6475 30.3028 36.6456 30.327 36.6423 30.3513C36.6326 30.4164 36.6189 30.4793 36.6019 30.5416C36.5872 30.5997 36.5698 30.6564 36.549 30.7126C36.5383 30.7396 36.5272 30.7659 36.5152 30.7922C36.3687 31.1322 36.1158 31.4286 35.7624 31.6129L26.2982 36.4681C25.8026 36.8321 25.1276 36.9121 24.5457 36.6085L14.2619 31.1948L5.77755 35.786C5.01554 36.1829 4.09479 35.926 3.62929 35.2259C3.62188 35.2151 3.61506 35.2041 3.60788 35.193C3.58247 35.1529 3.55248 35.1171 3.53014 35.0741C3.51462 35.0441 3.50713 35.0125 3.49364 34.9821C3.47239 34.9364 3.455 34.8894 3.43781 34.8416C3.42221 34.796 3.40689 34.7509 3.39549 34.7048C3.37523 34.6283 3.3623 34.5498 3.35317 34.4694C3.35133 34.4511 3.34882 34.4331 3.34766 34.4149C3.34392 34.3693 3.33398 34.3255 3.33398 34.279V17.3407C3.33398 17.1898 3.36039 17.0463 3.3978 16.9072C3.40478 16.8796 3.41463 16.8532 3.42297 16.8259C3.44363 16.7626 3.46445 16.6999 3.49221 16.6401C3.52256 16.5713 3.55997 16.5064 3.59954 16.442C3.60947 16.4265 3.61781 16.4102 3.62822 16.3952C3.76614 16.1861 3.9473 16.0019 4.17855 15.868L6.65606 14.4326C7.45325 13.9714 8.47255 14.245 8.93283 15.044C9.39306 15.8429 9.12001 16.8645 8.32282 17.3256L6.66731 18.2848V31.5083L13.2422 27.9504C13.4996 27.7607 13.8036 27.6496 14.1208 27.6288C14.1576 27.6255 14.1938 27.6278 14.2305 27.6269C14.2837 27.627 14.3364 27.6245 14.3898 27.6298C14.6891 27.6513 14.9754 27.7546 15.2227 27.9271L25.2955 33.2297L33.334 29.1059V16.2868C32.5385 16.7393 31.5267 16.4656 31.0686 15.6704C30.6083 14.8715 30.8815 13.85 31.6786 13.3888L34.1561 11.9533C34.2052 11.925 34.2569 11.9079 34.3074 11.885C34.332 11.8737 34.3561 11.8618 34.3815 11.8516C34.4541 11.8229 34.527 11.8011 34.6015 11.7832C34.6366 11.7745 34.6712 11.7656 34.7072 11.7592C34.7755 11.7474 34.8434 11.7416 34.9119 11.7385C34.9419 11.7369 34.9703 11.7295 35.0007 11.7295C35.0185 11.7295 35.035 11.7342 35.0527 11.7348C35.1042 11.7368 35.1546 11.7435 35.2056 11.7503C35.2709 11.7584 35.3354 11.7671 35.3981 11.7826C35.4233 11.789 35.4473 11.7981 35.4722 11.8057C35.5561 11.8306 35.6376 11.8594 35.7153 11.8967C35.7212 11.8995 35.7267 11.9031 35.7326 11.906C36.2843 12.1783 36.6673 12.7419 36.6673 13.3999V30.1032C36.6673 30.1631 36.6558 30.2199 36.6497 30.2783ZM21.2181 24.2163C20.9138 24.5444 20.4829 24.7528 20.0007 24.7528C19.5185 24.7528 19.0877 24.5445 18.7834 24.2165C16.4677 22.0237 11.6342 16.8375 11.6342 11.7179C11.6342 7.0871 15.38 3.33301 20.0006 3.33301C24.6213 3.33301 28.3671 7.08706 28.3671 11.7179C28.3671 16.8373 23.534 22.0233 21.2181 24.2163ZM20.0007 6.7391C17.2393 6.7391 15.0008 8.98262 15.0008 11.75C15.0008 14.489 17.093 17.7232 18.5688 19.6703C18.8584 20.1638 19.3881 20.4986 20.0007 20.4986C20.6133 20.4986 21.1431 20.1637 21.4326 19.67C22.9085 17.7231 25.0006 14.4889 25.0006 11.7501C25.0006 8.98262 22.7621 6.7391 20.0007 6.7391Z" fill="#045284"/>
</svg>
