<svg width="21" height="21" viewBox="0 0 21 21" fill="none" xmlns="http://www.w3.org/2000/svg">
<path fill-rule="evenodd" clip-rule="evenodd" d="M14.7292 8.88323C14.8474 9.35183 14.5632 9.82744 14.0946 9.94555C13.626 10.0637 13.1504 9.77954 13.0323 9.31094C12.7451 8.17143 11.8184 7.28844 10.6641 7.0589C10.1901 6.96464 9.8823 6.50401 9.97655 6.03004C10.0708 5.55607 10.5314 5.24825 11.0054 5.3425C12.8233 5.70401 14.2771 7.08923 14.7292 8.88323ZM18.9783 17.675L16.315 15.0224C17.4941 13.5776 18.1374 11.7724 18.1368 9.91053C18.1368 5.41579 14.4655 1.75 9.9434 1.75C5.42131 1.75 1.75 5.40658 1.75 9.91053C1.75 14.4145 5.42131 18.0711 9.9434 18.0711C11.8484 18.0711 13.6055 17.4171 15.0019 16.3211L17.6744 18.9829C17.8594 19.1671 18.0906 19.25 18.331 19.25C18.5714 19.25 18.8026 19.1579 18.9876 18.9829C19.339 18.6237 19.339 18.0342 18.9783 17.675ZM3.59953 9.91053C3.59953 6.42895 6.4478 3.59211 9.9434 3.59211C13.439 3.59211 16.2873 6.42895 16.2873 9.91053C16.2873 13.3921 13.439 16.2289 9.9434 16.2289C6.4478 16.2289 3.59953 13.3921 3.59953 9.91053Z" fill="#1E1F20"/>
</svg>
