<svg width="24" height="24" viewBox="0 0 24 24" fill="none" xmlns="http://www.w3.org/2000/svg">
<rect opacity="0.01" width="24" height="24" fill="black"/>
<path fill-rule="evenodd" clip-rule="evenodd" d="M15.7269 8.99919V6.46472C15.7269 5.44478 15.3363 4.57409 14.5552 3.85265C13.7741 3.1312 13.1047 2.77048 12.0004 2.77048C10.8962 2.77048 10.1632 3.1312 9.38211 3.85265C8.60101 4.57409 8.21046 5.44478 8.21046 6.46472V8.99919H15.7269ZM21 19.6148C21 19.9995 20.8542 20.3265 20.5625 20.5959C20.2708 20.8653 19.9167 21 19.5002 21H4.49978C4.08327 21 3.72918 20.8653 3.43751 20.5959C3.14584 20.3265 3 19.9995 3 19.6148V10.3852C3 10.0005 3.14584 9.67349 3.43751 9.4041C3.72918 9.1347 4.08327 9 4.49978 9H5.20915V6.46553C5.20915 4.69505 5.89662 3.17484 7.27157 1.90491C8.64651 0.634969 10.0827 0 11.9996 0C13.9164 0 15.2891 0.634969 16.664 1.90491C18.039 3.17484 18.7265 4.69505 18.7265 6.46553V9H19.4993C19.9159 9 20.2699 9.1347 20.5616 9.4041C20.8533 9.67349 20.9991 10.0005 20.9991 10.3852L21 19.6148Z" fill="#1E1F20"/>
</svg>
