<svg width="24" height="24" viewBox="0 0 24 24" fill="none" xmlns="http://www.w3.org/2000/svg">
<rect opacity="0.01" width="24" height="24" fill="white"/>
<path fill-rule="evenodd" clip-rule="evenodd" d="M8.99396 3.99393C9.5448 3.99393 9.99135 3.54758 9.99135 2.99697C9.99135 2.44636 9.5448 2 8.99396 2H5.04656C3.39403 2 2.05439 3.33907 2.05439 4.9909V8.04246C2.05439 8.59307 2.50094 9.03943 3.05178 9.03943C3.60263 9.03943 4.04917 8.59307 4.04917 8.04246V4.9909C4.04917 4.44029 4.49572 3.99393 5.04656 3.99393H8.99396ZM15.0205 3.99393C14.4696 3.99393 14.0231 3.54758 14.0231 2.99697C14.0231 2.44636 14.4696 2 15.0205 2H18.9679C20.6204 2 21.96 3.33907 21.96 4.9909V8.04246C21.96 8.59307 21.5135 9.03943 20.9626 9.03943C20.4118 9.03943 19.9653 8.59307 19.9653 8.04246V4.9909C19.9653 4.44029 19.5187 3.99393 18.9679 3.99393H15.0205ZM14.0231 21.003C14.0231 20.4524 14.4696 20.0061 15.0205 20.0061H18.9679C19.5187 20.0061 19.9653 19.5597 19.9653 19.0091V15.9575C19.9653 15.4069 20.4118 14.9606 20.9626 14.9606C21.5135 14.9606 21.96 15.4069 21.96 15.9575V19.0091C21.96 20.6609 20.6204 22 18.9679 22H15.0205C14.4696 22 14.0231 21.5536 14.0231 21.003ZM8.99396 20.0061C9.5448 20.0061 9.99135 20.4524 9.99135 21.003C9.99135 21.5536 9.5448 22 8.99396 22H5.04656C3.39403 22 2.05439 20.6609 2.05439 19.0091V15.9575C2.05439 15.4069 2.50094 14.9606 3.05178 14.9606C3.60263 14.9606 4.04917 15.4069 4.04917 15.9575V19.0091C4.04917 19.5597 4.49572 20.0061 5.04656 20.0061H8.99396ZM2 11.9697C2 12.5203 2.44655 12.9666 2.99739 12.9666H21.0026C21.5535 12.9666 22 12.5203 22 11.9697C22 11.4191 21.5535 10.9727 21.0026 10.9727H2.99739C2.44655 10.9727 2 11.4191 2 11.9697Z" fill="white"/>
</svg>
