<svg width="24" height="24" viewBox="0 0 24 24" fill="none" xmlns="http://www.w3.org/2000/svg">
<path fill-rule="evenodd" clip-rule="evenodd" d="M12.0103 15.784C9.93441 15.784 8.24555 14.0952 8.24555 12.0193C8.24555 9.94343 9.93441 8.25459 12.0103 8.25459C14.0862 8.25459 15.775 9.94343 15.775 12.0193C15.775 14.0952 14.0862 15.784 12.0103 15.784ZM12.0103 10.2692C11.0453 10.2692 10.2602 11.0543 10.2602 12.0193C10.2602 12.9843 11.0453 13.7694 12.0103 13.7694C12.9753 13.7694 13.7604 12.9843 13.7604 12.0193C13.7604 11.0543 12.9753 10.2692 12.0103 10.2692ZM14.0592 21.6001H10.115L9.10764 20.5928C9.10764 20.5928 9.10733 20.5999 9.10793 20.6133C9.10496 20.5468 9.06066 19.9531 8.42348 19.5768C8.18158 19.4339 7.83269 19.3584 7.41451 19.3584C6.82451 19.3584 6.3069 19.5082 6.30193 19.5097L5.16513 19.0977L2.80673 15.4928L3.28765 14.0013C3.28765 14.0013 3.27926 14.004 3.26422 14.0108C3.34047 13.9765 4.00846 13.6426 3.98443 12.5046C3.97388 12.0046 3.8193 11.5922 3.52502 11.279C3.2889 11.0277 3.04153 10.9236 3.03906 10.9226C3.04952 10.9269 3.0552 10.9288 3.0552 10.9288L2.55469 9.44543L5.27905 5.14383L6.6733 4.83453L6.66785 4.82542C6.81434 4.91648 7.28817 5.14726 7.71594 5.14726C7.71596 5.14726 7.71601 5.14726 7.71604 5.14726C7.88507 5.14726 8.01662 5.11742 8.13009 5.0412C8.75098 4.62417 9.07284 3.50782 9.12503 3.23093L10.1149 2.41309H13.9778L14.9851 3.4204C14.9851 3.4204 14.9853 3.41532 14.985 3.40556C14.9862 3.4441 15.025 4.35579 15.9221 4.89811C16.1867 5.05806 16.448 5.13582 16.7208 5.13582C17.1555 5.13582 17.4753 4.93104 17.4784 4.92896C17.4692 4.935 17.4645 4.93853 17.4645 4.93853L18.9096 5.24712L21.4713 9.54993L20.97 11.0044C20.97 11.0044 20.9749 11.0026 20.984 10.9988C20.9814 10.9999 20.7198 11.1129 20.4745 11.372C20.1736 11.6899 20.0273 12.0801 20.0273 12.5649C20.0273 13.071 20.1615 13.463 20.4262 13.7297C20.5655 13.8701 20.7137 13.9423 20.7148 13.9426L21.2324 15.4712L18.752 19.0767L17.4683 19.405C17.4683 19.405 17.4715 19.4067 17.4778 19.4097C17.4733 19.4076 17.1141 19.239 16.6678 19.239C16.4193 19.239 16.1908 19.2925 15.9886 19.3978C15.3896 19.71 15.1057 20.5093 15.0468 20.791L15.0483 20.7838L14.0592 21.6001ZM10.9207 19.5855H13.3306C13.3646 19.505 13.4025 19.4211 13.4446 19.3352C13.8259 18.5586 14.3836 17.9624 15.0575 17.6112C15.5501 17.3545 16.0918 17.2244 16.6678 17.2244C16.9812 17.2244 17.2696 17.2638 17.5169 17.3174L19.0036 15.1563C19.0012 15.1538 18.9987 15.1514 18.9962 15.1488C18.5475 14.6967 18.0126 13.8813 18.0126 12.5649C18.0126 11.5179 18.3911 10.5928 19.1071 9.88968C19.1547 9.84286 19.2024 9.79857 19.2497 9.75662L17.6261 7.02957C17.3633 7.10023 17.058 7.15047 16.7209 7.15047C16.0791 7.15047 15.4597 6.97275 14.8799 6.62223C14.1016 6.15172 13.5247 5.45914 13.2118 4.61942C13.1874 4.55399 13.1655 4.49001 13.1458 4.42774H10.8758C10.6252 5.13577 10.1375 6.11977 9.25342 6.71361C8.80499 7.01482 8.28771 7.16189 7.71604 7.16189C7.71594 7.16189 7.71587 7.16189 7.71577 7.16189C7.27313 7.16189 6.85725 7.07329 6.51198 6.95671L4.78275 9.6899C4.81801 9.72187 4.85346 9.75669 4.88888 9.79144C5.37956 10.273 5.97043 11.1276 5.99861 12.4614C6.02662 13.7885 5.51478 14.6357 5.08046 15.1124C5.05794 15.1371 5.03533 15.1614 5.01276 15.1847L6.47358 17.4177C6.74316 17.3763 7.06644 17.3437 7.41449 17.3437C8.20394 17.3437 8.8881 17.5114 9.44797 17.842C10.2494 18.3154 10.6945 18.9854 10.9207 19.5855Z" fill="#161616"/>
</svg>
