<svg width="24" height="24" viewBox="0 0 24 24" fill="none" xmlns="http://www.w3.org/2000/svg">
<rect opacity="0.01" width="24" height="24" fill="white"/>
<path fill-rule="evenodd" clip-rule="evenodd" d="M12.0004 2C6.48573 2 2 6.48687 2 12.0004C2 17.5148 6.48576 22 12.0004 22C17.5143 22 22 17.5148 22 12.0004C22 6.48683 17.5143 2 12.0004 2ZM12.0004 20.1613C7.49981 20.1613 3.83907 16.5005 3.83907 12.0004C3.83907 7.50035 7.49984 3.83953 12.0004 3.83953C16.4994 3.83953 20.1601 7.50037 20.1601 12.0004C20.1601 16.5005 16.4994 20.1613 12.0004 20.1613ZM16.7438 14.4776L12.9195 11.9955V6.97583C12.9195 6.46787 12.5091 6.05566 12.0004 6.05566C11.4917 6.05566 11.0805 6.46787 11.0805 6.97583V12.9941L15.7413 16.0205C15.8974 16.1213 16.0708 16.1692 16.2417 16.1692C16.5432 16.1692 16.8388 16.0222 17.0139 15.7504C17.2914 15.3234 17.1691 14.7543 16.7438 14.4776L16.7438 14.4776Z" fill="white"/>
</svg>
