<svg width="24" height="24" viewBox="0 0 24 24" fill="none" xmlns="http://www.w3.org/2000/svg">
<path d="M11.9996 3C7.02971 3 3 7.02971 3 11.9996C3 16.9695 7.02971 21 11.9996 21C16.9695 21 21 16.9695 21 11.9996C21 7.02971 16.9695 3 11.9996 3ZM13.8731 16.9482C13.4099 17.131 13.0411 17.2697 12.7646 17.3657C12.4543 17.467 12.1293 17.5157 11.803 17.5097C11.2423 17.5097 10.8057 17.3726 10.4949 17.099C10.184 16.8255 10.0293 16.4789 10.0293 16.0575C10.0293 15.8937 10.0408 15.7261 10.0636 15.5554C10.0919 15.361 10.1292 15.168 10.1756 14.9771L10.7554 12.9291C10.8065 12.7326 10.8507 12.5459 10.8857 12.3722C10.9208 12.197 10.9375 12.0362 10.9375 11.8899C10.9375 11.6293 10.8834 11.4465 10.776 11.3436C10.667 11.2408 10.4621 11.1905 10.1566 11.1905C10.0072 11.1905 9.85333 11.2126 9.69562 11.259C9.53943 11.307 9.40381 11.3505 9.29257 11.3931L9.44571 10.7623C9.82514 10.6076 10.1886 10.475 10.5352 10.3653C10.8522 10.2593 11.1838 10.2032 11.5181 10.1992C12.075 10.1992 12.5048 10.3349 12.8072 10.603C13.1082 10.872 13.2598 11.2217 13.2598 11.6514C13.2598 11.7406 13.2491 11.8975 13.2286 12.1215C13.2107 12.3308 13.1719 12.5378 13.1128 12.7394L12.536 14.7813C12.4843 14.966 12.4418 15.1532 12.4088 15.3421C12.3774 15.4993 12.3588 15.6588 12.3531 15.819C12.3531 16.0903 12.4133 16.2754 12.5352 16.3737C12.6556 16.472 12.8667 16.5215 13.1653 16.5215C13.3063 16.5215 13.464 16.4964 13.6423 16.4476C13.819 16.3989 13.947 16.3554 14.0278 16.3181L13.8731 16.9482ZM13.771 8.66019C13.5088 8.9075 13.16 9.04208 12.7996 9.03505C12.4217 9.03505 12.0956 8.9101 11.8244 8.66019C11.6954 8.54673 11.5924 8.40682 11.5223 8.24997C11.4522 8.09312 11.4167 7.92302 11.4183 7.75124C11.4183 7.39695 11.5554 7.09219 11.8244 6.84C12.0872 6.59073 12.4375 6.45473 12.7996 6.46133C13.1783 6.46133 13.5029 6.58705 13.771 6.84C14.04 7.09219 14.1749 7.39695 14.1749 7.75124C14.1749 8.10705 14.04 8.41029 13.771 8.66019Z" fill="#030104"/>
</svg>
