<svg width="12" height="16" viewBox="0 0 12 16" fill="none" xmlns="http://www.w3.org/2000/svg">
<path d="M4.93359 7.03625L5.31766 7.60625C5.39288 7.71788 5.49438 7.80932 5.61322 7.87255C5.73206 7.93577 5.86461 7.96883 5.99922 7.96883C6.13383 7.96883 6.26638 7.93577 6.38522 7.87255C6.50406 7.80932 6.60556 7.71788 6.68078 7.60625L7.06484 7.03625C6.36874 7.23791 5.6297 7.23791 4.93359 7.03625ZM7.23359 2.71094C7.23343 2.5846 7.18317 2.46348 7.09383 2.37414C7.00449 2.2848 6.88337 2.23454 6.75703 2.23438H6.32734V3.1875H6.75703C6.88337 3.18733 7.00449 3.13707 7.09383 3.04774C7.18317 2.9584 7.23343 2.83728 7.23359 2.71094Z" fill="#161616"/>
<path d="M6 6.71875C6.66442 6.71875 7.31392 6.52173 7.86637 6.15259C8.41881 5.78346 8.84939 5.2588 9.10366 4.64495C9.35792 4.03111 9.42445 3.35565 9.29483 2.70399C9.1652 2.05234 8.84525 1.45376 8.37544 0.98394C7.90562 0.514123 7.30704 0.194173 6.65538 0.064551C6.00373 -0.0650713 5.32827 0.00145558 4.71442 0.255719C4.10058 0.509982 3.57591 0.940561 3.20678 1.49301C2.83765 2.04545 2.64063 2.69495 2.64062 3.35938C2.64162 4.25003 2.99587 5.10393 3.62566 5.73372C4.25545 6.36351 5.10934 6.71776 6 6.71875ZM5.85937 2C5.85937 1.93784 5.88407 1.87823 5.92802 1.83427C5.97198 1.79032 6.03159 1.76563 6.09375 1.76563H6.75781C7.00852 1.76563 7.24897 1.86522 7.42625 2.0425C7.60353 2.21978 7.70312 2.46023 7.70312 2.71094C7.70312 2.96165 7.60353 3.2021 7.42625 3.37938C7.24897 3.55666 7.00852 3.65625 6.75781 3.65625H6.32812V4.71875C6.32812 4.78091 6.30343 4.84053 6.25948 4.88448C6.21552 4.92843 6.15591 4.95313 6.09375 4.95313C6.03159 4.95313 5.97198 4.92843 5.92802 4.88448C5.88407 4.84053 5.85937 4.78091 5.85937 4.71875V2ZM4.92187 2C4.92187 1.93784 4.94657 1.87823 4.99052 1.83427C5.03448 1.79032 5.09409 1.76563 5.15625 1.76563C5.21841 1.76563 5.27802 1.79032 5.32198 1.83427C5.36593 1.87823 5.39062 1.93784 5.39062 2V4.71875C5.39062 4.78091 5.36593 4.84053 5.32198 4.88448C5.27802 4.92843 5.21841 4.95313 5.15625 4.95313C5.09409 4.95313 5.03448 4.92843 4.99052 4.88448C4.94657 4.84053 4.92187 4.78091 4.92187 4.71875V2Z" fill="#161616"/>
<path d="M5 9.67188H4.375C4.33185 9.67188 4.29688 9.70685 4.29688 9.75V10.375C4.29688 10.4181 4.33185 10.4531 4.375 10.4531H5C5.04315 10.4531 5.07812 10.4181 5.07812 10.375V9.75C5.07812 9.70685 5.04315 9.67188 5 9.67188Z" fill="#161616"/>
<path d="M7.1875 9.82812H11.7031V9.20312C11.703 9.05814 11.6453 8.91913 11.5428 8.81661C11.4402 8.71409 11.3012 8.65642 11.1562 8.65625H0.84375C0.698761 8.65642 0.559757 8.71409 0.457234 8.81661C0.354711 8.91913 0.29704 9.05814 0.296875 9.20312V11.4688H11.7031V10.2969H7.1875C7.12534 10.2969 7.06573 10.2722 7.02177 10.2282C6.97782 10.1843 6.95312 10.1247 6.95312 10.0625C6.95312 10.0003 6.97782 9.94073 7.02177 9.89677C7.06573 9.85282 7.12534 9.82812 7.1875 9.82812ZM3.04688 10.375C3.04671 10.52 2.98904 10.659 2.88652 10.7615C2.78399 10.864 2.64499 10.9217 2.5 10.9219H1.875C1.73001 10.9217 1.59101 10.864 1.48848 10.7615C1.38596 10.659 1.32829 10.52 1.32812 10.375V9.75C1.32829 9.60501 1.38596 9.46601 1.48848 9.36348C1.59101 9.26096 1.73001 9.20329 1.875 9.20312H2.5C2.64499 9.20329 2.78399 9.26096 2.88652 9.36348C2.98904 9.46601 3.04671 9.60501 3.04688 9.75V10.375ZM5.54688 10.375C5.54671 10.52 5.48904 10.659 5.38652 10.7615C5.28399 10.864 5.14499 10.9217 5 10.9219H4.375C4.23001 10.9217 4.09101 10.864 3.98848 10.7615C3.88596 10.659 3.82829 10.52 3.82812 10.375V9.75C3.82829 9.60501 3.88596 9.46601 3.98848 9.36348C4.09101 9.26096 4.23001 9.20329 4.375 9.20312H5C5.14499 9.20329 5.28399 9.26096 5.38652 9.36348C5.48904 9.46601 5.54671 9.60501 5.54688 9.75V10.375Z" fill="#161616"/>
<path d="M2.5 9.67188H1.875C1.83185 9.67188 1.79688 9.70685 1.79688 9.75V10.375C1.79688 10.4181 1.83185 10.4531 1.875 10.4531H2.5C2.54315 10.4531 2.57812 10.4181 2.57812 10.375V9.75C2.57812 9.70685 2.54315 9.67188 2.5 9.67188Z" fill="#161616"/>
<path d="M1.07812 11.9375H10.9219V12.7188H1.07812V11.9375Z" fill="#161616"/>
<path d="M2.5 14.2031H1.875C1.83185 14.2031 1.79688 14.2381 1.79688 14.2812V14.9062C1.79688 14.9494 1.83185 14.9844 1.875 14.9844H2.5C2.54315 14.9844 2.57812 14.9494 2.57812 14.9062V14.2812C2.57812 14.2381 2.54315 14.2031 2.5 14.2031Z" fill="#161616"/>
<path d="M5 14.2031H4.375C4.33185 14.2031 4.29688 14.2381 4.29688 14.2812V14.9062C4.29688 14.9494 4.33185 14.9844 4.375 14.9844H5C5.04315 14.9844 5.07812 14.9494 5.07812 14.9062V14.2812C5.07812 14.2381 5.04315 14.2031 5 14.2031Z" fill="#161616"/>
<path d="M0.296875 15.4531C0.29704 15.5981 0.354711 15.7371 0.457234 15.8396C0.559757 15.9422 0.698761 15.9998 0.84375 16H11.1562C11.3012 15.9998 11.4402 15.9422 11.5428 15.8396C11.6453 15.7371 11.703 15.5981 11.7031 15.4531V14.8281H7.1875C7.12534 14.8281 7.06573 14.8034 7.02177 14.7595C6.97782 14.7155 6.95312 14.6559 6.95312 14.5938C6.95312 14.5316 6.97782 14.472 7.02177 14.428C7.06573 14.3841 7.12534 14.3594 7.1875 14.3594H11.7031V13.1875H0.296875V15.4531ZM3.82812 14.2812C3.82829 14.1363 3.88596 13.9973 3.98848 13.8947C4.09101 13.7922 4.23001 13.7345 4.375 13.7344H5C5.14499 13.7345 5.28399 13.7922 5.38652 13.8947C5.48904 13.9973 5.54671 14.1363 5.54688 14.2812V14.9062C5.54671 15.0512 5.48904 15.1902 5.38652 15.2928C5.28399 15.3953 5.14499 15.453 5 15.4531H4.375C4.23001 15.453 4.09101 15.3953 3.98848 15.2928C3.88596 15.1902 3.82829 15.0512 3.82812 14.9062V14.2812ZM1.32812 14.2812C1.32829 14.1363 1.38596 13.9973 1.48848 13.8947C1.59101 13.7922 1.73001 13.7345 1.875 13.7344H2.5C2.64499 13.7345 2.78399 13.7922 2.88652 13.8947C2.98904 13.9973 3.04671 14.1363 3.04688 14.2812V14.9062C3.04671 15.0512 2.98904 15.1902 2.88652 15.2928C2.78399 15.3953 2.64499 15.453 2.5 15.4531H1.875C1.73001 15.453 1.59101 15.3953 1.48848 15.2928C1.38596 15.1902 1.32829 15.0512 1.32812 14.9062V14.2812Z" fill="#161616"/>
</svg>
