<svg width="40" height="40" viewBox="0 0 40 40" fill="none" xmlns="http://www.w3.org/2000/svg">
<path d="M13.652 13.3333H15.3187V8.975H13.652V13.3333ZM13.652 26.86H15.3187V19.615H13.652V26.86ZM11.0254 35C10.2843 35 9.65036 34.7361 9.1237 34.2083C8.59703 33.6806 8.33314 33.0478 8.33203 32.31V17.31H31.6654V32.31C31.6654 33.0544 31.4015 33.6894 30.8737 34.215C30.347 34.7394 29.7137 35.0017 28.9737 35.0017L11.0254 35ZM8.33203 15.6417V7.69167C8.33203 6.95167 8.59592 6.31833 9.1237 5.79167C9.65148 5.265 10.2848 5.00111 11.0237 5H28.9737C29.7137 5 30.347 5.26389 30.8737 5.79167C31.4004 6.31944 31.6643 6.95278 31.6654 7.69167V15.6417H8.33203Z" fill="#045284"/>
</svg>
