<svg width="18" height="18" viewBox="0 0 18 18" fill="none" xmlns="http://www.w3.org/2000/svg">
<path d="M9.00561 17.8717C8.61869 17.8802 8.23804 17.7731 7.91222 17.5643C7.5864 17.3554 7.33019 17.0542 7.17627 16.6991C7.02236 16.344 6.97773 15.9511 7.04806 15.5706C7.1184 15.19 7.30052 14.839 7.57118 14.5624C7.84185 14.2858 8.18879 14.0961 8.56773 14.0175C8.94668 13.9389 9.34045 13.975 9.6988 14.1211C10.0572 14.2673 10.3638 14.5169 10.5797 14.8381C10.7956 15.1593 10.9109 15.5375 10.9109 15.9245C10.9159 16.4352 10.718 16.927 10.3608 17.292C10.0037 17.6571 9.51629 17.8656 9.00561 17.8717ZM9.00561 14.3992C8.70212 14.3907 8.40301 14.473 8.14654 14.6355C7.89006 14.7979 7.68789 15.0332 7.56587 15.3112C7.44386 15.5892 7.40755 15.8973 7.46159 16.1961C7.51563 16.4948 7.65756 16.7707 7.86923 16.9883C8.0809 17.206 8.35269 17.3556 8.64983 17.4179C8.94696 17.4802 9.25594 17.4525 9.53724 17.3383C9.81854 17.2241 10.0594 17.0285 10.2289 16.7767C10.3985 16.5248 10.4891 16.2281 10.4891 15.9245C10.4941 15.5257 10.3408 15.1411 10.0627 14.8552C9.78458 14.5692 9.40444 14.4052 9.00561 14.3992ZM9.00027 9.06159C8.94432 9.06159 8.89067 9.03937 8.85111 8.99981C8.81155 8.96025 8.78933 8.9066 8.78933 8.85066V0.28125C8.78933 0.225306 8.81155 0.171653 8.85111 0.132095C8.89067 0.0925362 8.94432 0.0703125 9.00027 0.0703125C9.05621 0.0703125 9.10986 0.0925362 9.14942 0.132095C9.18898 0.171653 9.2112 0.225306 9.2112 0.28125V8.85066C9.2112 8.9066 9.18898 8.96025 9.14942 8.99981C9.10986 9.03937 9.05621 9.06159 9.00027 9.06159Z" fill="white"/>
<path d="M15.4434 15.8808C15.0679 14.6437 14.4313 13.5016 13.5765 12.5316C12.7218 11.5616 11.6688 10.7863 10.4888 10.2581C10.3568 10.1957 10.2454 10.097 10.1676 9.9735C10.0898 9.85004 10.0488 9.70695 10.0494 9.56102V9.53289C10.0511 9.29858 9.95993 9.07313 9.79579 8.90591C9.63165 8.73868 9.40794 8.6433 9.17363 8.64062H8.82657C8.59227 8.6433 8.36856 8.73868 8.20442 8.90591C8.04028 9.07313 7.94907 9.29858 7.95076 9.53289V9.56102C7.95138 9.70695 7.91038 9.85004 7.83257 9.9735C7.75476 10.097 7.64337 10.1957 7.51145 10.2581C6.3314 10.7863 5.27844 11.5615 4.4237 12.5315C3.56895 13.5015 2.93232 14.6436 2.55681 15.8807C2.53194 15.9597 2.5251 16.0432 2.53681 16.1252C2.54852 16.2072 2.57846 16.2855 2.62445 16.3543C2.66901 16.4221 2.72824 16.4791 2.79775 16.5209C2.86726 16.5628 2.94529 16.5885 3.02607 16.5962C5.00888 16.7827 7.00576 16.8759 9.00263 16.8759C10.9995 16.8759 12.9939 16.7827 14.9746 16.5962C15.0553 16.5885 15.1334 16.5628 15.2029 16.5209C15.2724 16.4791 15.3316 16.4221 15.3762 16.3543C15.4221 16.2855 15.452 16.2072 15.4636 16.1252C15.4752 16.0433 15.4683 15.9598 15.4434 15.8808Z" fill="white"/>
</svg>
