<svg width="16" height="16" viewBox="0 0 16 16" fill="none" xmlns="http://www.w3.org/2000/svg">
<g clip-path="url(#clip0_2318_15182)">
<path d="M4.41016 6.00001H6.03682C6.08682 5.94668 6.14016 5.90001 6.19682 5.85668L5.33349 3.84668L4.41016 6.00001ZM13.6668 6.00001H7.66682C6.76582 5.99168 5.98949 6.75201 6.00016 7.66668V13.6667C6.00016 14.5857 6.74782 15.3333 7.66682 15.3333H13.6668C14.5858 15.3333 15.3335 14.5857 15.3335 13.6667V7.66668C15.3335 6.74768 14.5858 6.00001 13.6668 6.00001ZM12.6668 9.66668H12.3108C12.2371 10.4866 11.8938 11.259 11.3345 11.863L12.2355 12.764C12.4482 12.9617 12.2855 13.3437 12.0002 13.3333C11.9564 13.3334 11.913 13.3248 11.8726 13.308C11.8321 13.2913 11.7954 13.2667 11.7645 13.2357L10.8442 12.3153C10.5655 12.55 9.48616 13.0957 9.16182 13.2913C9.08481 13.3311 8.99533 13.3393 8.91237 13.3142C8.82941 13.2891 8.75949 13.2327 8.71743 13.1569C8.67537 13.0811 8.66449 12.9919 8.68709 12.9082C8.70969 12.8246 8.764 12.753 8.83849 12.7087L10.0902 12.0133C10.1865 11.96 10.2758 11.8983 10.3645 11.8357L9.09782 10.569C8.79149 10.26 9.25916 9.79035 9.56916 10.0977L10.8638 11.392C11.3 10.9138 11.5733 10.3097 11.6445 9.66635H8.66682C8.57842 9.66635 8.49363 9.63123 8.43112 9.56872C8.36861 9.5062 8.33349 9.42142 8.33349 9.33301C8.33349 9.24461 8.36861 9.15982 8.43112 9.09731C8.49363 9.0348 8.57842 8.99968 8.66682 8.99968H10.3335V8.33301C10.3348 7.89868 10.9985 7.89568 11.0002 8.33301V8.99968H12.6668C13.1018 9.00235 13.1038 9.66435 12.6668 9.66668Z" fill="#161616"/>
<path d="M2.33464 10.0003H5.33464V7.66699C5.33464 7.31033 5.41464 6.97032 5.5613 6.66699H4.12464L3.6413 7.79699C3.4693 8.19899 2.85697 7.93466 3.02797 7.53699L5.02797 2.87033C5.0813 2.74699 5.2013 2.66699 5.33464 2.66699C5.46797 2.66699 5.58797 2.74699 5.6413 2.87033L6.77463 5.51366C7.36364 5.20233 9.2243 5.37533 10.0013 5.33366V2.33366C10.0013 1.41466 9.25363 0.666992 8.33463 0.666992H2.33464C1.41564 0.666992 0.667969 1.41466 0.667969 2.33366V8.33366C0.667969 9.25266 1.41564 10.0003 2.33464 10.0003Z" fill="#161616"/>
</g>
<defs>
<clipPath id="clip0_2318_15182">
<rect width="16" height="16" fill="white"/>
</clipPath>
</defs>
</svg>
