<svg width="20" height="20" viewBox="0 0 20 20" fill="none" xmlns="http://www.w3.org/2000/svg">
<path d="M10.0013 15.8346C13.223 15.8346 15.8346 13.223 15.8346 10.0013C15.8346 6.77964 13.223 4.16797 10.0013 4.16797C6.77964 4.16797 4.16797 6.77964 4.16797 10.0013C4.16797 13.223 6.77964 15.8346 10.0013 15.8346Z" stroke="#045284" stroke-width="1.66667"/>
<path d="M4.97078 2.61328C4.40545 2.76469 3.88995 3.06227 3.47611 3.47611C3.06227 3.88995 2.76469 4.40545 2.61328 4.97078M15.0291 2.61328C15.5944 2.76469 16.1099 3.06227 16.5238 3.47611C16.9376 3.88995 17.2352 4.40545 17.3866 4.97078M9.99995 6.66661V9.79161C9.99995 9.90661 10.0933 9.99995 10.2083 9.99995H12.4999" stroke="#045284" stroke-width="1.66667" stroke-linecap="round"/>
</svg>
