<svg width="30" height="30" viewBox="0 0 30 30" fill="none" xmlns="http://www.w3.org/2000/svg">
<path d="M8.16357 6.92074L5.67791 4.43508C5.33461 4.09178 4.77838 4.09178 4.43508 4.43508C4.09178 4.77838 4.09178 5.33461 4.43508 5.67791L6.92074 8.16357C7.26404 8.50688 7.82027 8.50688 8.16357 8.16357C8.50688 7.82027 8.50688 7.26404 8.16357 6.92074ZM4.45312 14.1211H0.878906C0.393105 14.1211 0 14.5142 0 15C0 15.4858 0.393105 15.8789 0.878906 15.8789H4.45312C4.93893 15.8789 5.33203 15.4858 5.33203 15C5.33203 14.5142 4.93893 14.1211 4.45312 14.1211ZM29.1211 14.1211H25.5469C25.0611 14.1211 24.668 14.5142 24.668 15C24.668 15.4858 25.0611 15.8789 25.5469 15.8789H29.1211C29.6069 15.8789 30 15.4858 30 15C30 14.5142 29.6069 14.1211 29.1211 14.1211ZM25.5649 4.43508C25.2216 4.09178 24.6654 4.09178 24.3221 4.43508L21.8364 6.92074C21.4931 7.26404 21.4931 7.82027 21.8364 8.16357C22.1797 8.50688 22.736 8.50688 23.0793 8.16357L25.5649 5.67791C25.9082 5.33461 25.9082 4.77844 25.5649 4.43508ZM15 0C14.5142 0 14.1211 0.393105 14.1211 0.878906V4.45312C14.1211 4.93893 14.5142 5.33203 15 5.33203C15.4858 5.33203 15.8789 4.93893 15.8789 4.45312V0.878906C15.8789 0.393105 15.4858 0 15 0ZM19.9219 8.79486C18.0059 7.28314 15.5273 6.73828 13.1016 7.31836C10.2891 7.96875 8.02154 10.2011 7.33594 12.9961C6.65039 15.8085 7.44141 18.6562 9.46283 20.6425C10.1836 21.3633 10.6055 22.4941 10.6055 23.6543V23.8477C10.6055 24.3398 10.9921 24.7266 11.4844 24.7266H18.5156C19.0079 24.7266 19.3945 24.3398 19.3945 23.8477V23.6543C19.3945 22.5117 19.834 21.3456 20.6074 20.5898C22.084 19.0956 22.9102 17.1094 22.9102 15C22.9102 12.5742 21.8203 10.3066 19.9219 8.79486ZM15 12.3633C13.674 12.3633 12.7087 13.2428 12.456 14.261C12.341 14.7241 11.875 15.0196 11.3908 14.903C10.9205 14.7863 10.6329 14.3091 10.7497 13.8387C11.1851 12.0809 12.8362 10.6055 15 10.6055C15.4858 10.6055 15.8789 10.9986 15.8789 11.4844C15.8789 11.9702 15.4858 12.3633 15 12.3633ZM11.4844 26.4844V27.3633C11.4844 28.8172 12.6671 30 14.1211 30H15.8789C17.3329 30 18.5156 28.8172 18.5156 27.3633V26.4844H11.4844Z" fill="#045284"/>
</svg>
