<svg width="79" height="86" viewBox="0 0 79 86" fill="none" xmlns="http://www.w3.org/2000/svg">
<circle cx="40" cy="31" r="29" stroke="white" stroke-width="4"/>
<path d="M40.8346 22.6654C40.8346 20.8154 42.318 19.332 44.168 19.332H50.0013C51.8346 19.332 53.3346 20.832 53.3346 22.6654V26.2654C51.4013 26.9487 50.0013 28.782 50.0013 30.9487V34.332H40.8346V22.6654ZM30.0013 30.932V34.332H39.168V22.6654C39.168 20.8154 37.6846 19.332 35.8346 19.332H30.0013C28.168 19.332 26.668 20.832 26.668 22.6654V26.2487C28.6013 26.932 30.0013 28.782 30.0013 30.932ZM54.4346 27.7154C52.8013 27.982 51.668 29.532 51.668 31.1987V35.9987H28.3346V30.9987C28.3346 30.1146 27.9834 29.2668 27.3583 28.6417C26.7332 28.0166 25.8854 27.6654 25.0013 27.6654C24.1172 27.6654 23.2694 28.0166 22.6443 28.6417C22.0192 29.2668 21.668 30.1146 21.668 30.9987V39.332C21.668 41.1654 23.168 42.6654 25.0013 42.6654V45.9987H28.3346V42.6654H51.668V45.9987H55.0013V42.6654C56.8346 42.6654 58.3346 41.1654 58.3346 39.332V30.9987C58.3346 28.982 56.518 27.3654 54.4346 27.7154Z" fill="#045284"/>
<path d="M0.460836 82V72.13H1.76284V80.88H6.67684V82H0.460836ZM8.00443 82V74.958H9.27843V82H8.00443ZM7.89243 73.418V72.046H9.40443V73.418H7.89243ZM13.4807 82L10.4707 74.958H11.8427L14.2927 81.006H13.9007L16.3927 74.958H17.6947L14.6707 82H13.4807ZM18.8872 82V74.958H20.1612V82H18.8872ZM18.7752 73.418V72.046H20.2872V73.418H18.7752ZM22.2915 82V76.624C22.2915 76.3533 22.2822 76.078 22.2635 75.798C22.2449 75.518 22.2169 75.238 22.1795 74.958H23.4115L23.5515 76.47H23.3835C23.5982 75.938 23.9295 75.532 24.3775 75.252C24.8255 74.972 25.3482 74.832 25.9455 74.832C26.7762 74.832 27.4015 75.0607 27.8215 75.518C28.2415 75.966 28.4515 76.666 28.4515 77.618V82H27.1775V77.688C27.1775 77.044 27.0515 76.582 26.7995 76.302C26.5475 76.0127 26.1555 75.868 25.6235 75.868C24.9889 75.868 24.4849 76.0593 24.1115 76.442C23.7475 76.8247 23.5655 77.3427 23.5655 77.996V82H22.2915ZM33.6717 85.136C33.0557 85.136 32.491 85.0613 31.9777 84.912C31.4643 84.7627 31.0023 84.534 30.5917 84.226L30.9277 83.288C31.217 83.484 31.5017 83.6427 31.7817 83.764C32.0617 83.8853 32.351 83.974 32.6497 84.03C32.9577 84.086 33.275 84.114 33.6017 84.114C34.2923 84.114 34.8103 83.9367 35.1557 83.582C35.501 83.2273 35.6737 82.7233 35.6737 82.07V80.096H35.8137C35.6643 80.628 35.3563 81.0527 34.8897 81.37C34.4323 81.678 33.891 81.832 33.2657 81.832C32.631 81.832 32.0757 81.692 31.5997 81.412C31.133 81.1227 30.769 80.7167 30.5077 80.194C30.2463 79.662 30.1157 79.0413 30.1157 78.332C30.1157 77.6133 30.2463 76.9927 30.5077 76.47C30.769 75.9473 31.133 75.546 31.5997 75.266C32.0757 74.9767 32.631 74.832 33.2657 74.832C33.891 74.832 34.4323 74.986 34.8897 75.294C35.347 75.602 35.6503 76.0267 35.7997 76.568L35.6737 76.442L35.7997 74.958H37.0317C37.0037 75.238 36.9757 75.518 36.9477 75.798C36.929 76.078 36.9197 76.3533 36.9197 76.624V81.916C36.9197 82.9613 36.6443 83.7593 36.0937 84.31C35.5523 84.8607 34.745 85.136 33.6717 85.136ZM33.5457 80.824C34.1897 80.824 34.703 80.6047 35.0857 80.166C35.4683 79.7273 35.6597 79.116 35.6597 78.332C35.6597 77.5387 35.4683 76.9273 35.0857 76.498C34.703 76.0687 34.1897 75.854 33.5457 75.854C32.8923 75.854 32.3697 76.0687 31.9777 76.498C31.595 76.9273 31.4037 77.5387 31.4037 78.332C31.4037 79.116 31.595 79.7273 31.9777 80.166C32.3697 80.6047 32.8923 80.824 33.5457 80.824ZM42.8847 82V72.13H46.9727C48.0273 72.13 48.8393 72.3773 49.4087 72.872C49.9873 73.3667 50.2767 74.0573 50.2767 74.944C50.2767 75.532 50.146 76.0313 49.8847 76.442C49.6233 76.8527 49.2547 77.1653 48.7787 77.38C48.312 77.5947 47.766 77.702 47.1407 77.702L47.3787 77.506H47.7147C48.0973 77.506 48.438 77.604 48.7367 77.8C49.0353 77.9867 49.2827 78.2947 49.4787 78.724L50.8787 82H49.4367L48.0787 78.752C47.92 78.3507 47.6867 78.0893 47.3787 77.968C47.08 77.8467 46.702 77.786 46.2447 77.786H44.1867V82H42.8847ZM44.1867 76.778H46.7767C47.4953 76.778 48.0413 76.624 48.4147 76.316C48.7973 76.008 48.9887 75.56 48.9887 74.972C48.9887 74.3933 48.7973 73.9547 48.4147 73.656C48.0413 73.348 47.4953 73.194 46.7767 73.194H44.1867V76.778ZM55.283 82.126C54.5923 82.126 53.995 81.9813 53.491 81.692C52.987 81.3933 52.595 80.9733 52.315 80.432C52.035 79.8813 51.895 79.228 51.895 78.472C51.895 77.7253 52.035 77.0813 52.315 76.54C52.595 75.9893 52.987 75.5693 53.491 75.28C53.995 74.9813 54.5923 74.832 55.283 74.832C55.9736 74.832 56.571 74.9813 57.075 75.28C57.5883 75.5693 57.9803 75.9893 58.251 76.54C58.531 77.0813 58.671 77.7253 58.671 78.472C58.671 79.228 58.531 79.8813 58.251 80.432C57.9803 80.9733 57.5883 81.3933 57.075 81.692C56.571 81.9813 55.9736 82.126 55.283 82.126ZM55.283 81.118C55.9176 81.118 56.4263 80.894 56.809 80.446C57.1916 79.998 57.383 79.34 57.383 78.472C57.383 77.604 57.1916 76.9507 56.809 76.512C56.4263 76.0733 55.9176 75.854 55.283 75.854C54.639 75.854 54.1256 76.0733 53.743 76.512C53.3696 76.9507 53.183 77.604 53.183 78.472C53.183 79.34 53.3696 79.998 53.743 80.446C54.1256 80.894 54.639 81.118 55.283 81.118ZM63.3494 82.126C62.6587 82.126 62.0614 81.9813 61.5574 81.692C61.0534 81.3933 60.6614 80.9733 60.3814 80.432C60.1014 79.8813 59.9614 79.228 59.9614 78.472C59.9614 77.7253 60.1014 77.0813 60.3814 76.54C60.6614 75.9893 61.0534 75.5693 61.5574 75.28C62.0614 74.9813 62.6587 74.832 63.3494 74.832C64.04 74.832 64.6374 74.9813 65.1414 75.28C65.6547 75.5693 66.0467 75.9893 66.3174 76.54C66.5974 77.0813 66.7374 77.7253 66.7374 78.472C66.7374 79.228 66.5974 79.8813 66.3174 80.432C66.0467 80.9733 65.6547 81.3933 65.1414 81.692C64.6374 81.9813 64.04 82.126 63.3494 82.126ZM63.3494 81.118C63.984 81.118 64.4927 80.894 64.8754 80.446C65.258 79.998 65.4494 79.34 65.4494 78.472C65.4494 77.604 65.258 76.9507 64.8754 76.512C64.4927 76.0733 63.984 75.854 63.3494 75.854C62.7054 75.854 62.192 76.0733 61.8094 76.512C61.436 76.9507 61.2494 77.604 61.2494 78.472C61.2494 79.34 61.436 79.998 61.8094 80.446C62.192 80.894 62.7054 81.118 63.3494 81.118ZM68.4478 82V76.624C68.4478 76.3533 68.4385 76.078 68.4198 75.798C68.4011 75.518 68.3731 75.238 68.3358 74.958H69.5678L69.7078 76.47H69.5398C69.7265 75.9473 70.0251 75.546 70.4358 75.266C70.8465 74.9767 71.3365 74.832 71.9058 74.832C72.4845 74.832 72.9605 74.972 73.3338 75.252C73.7071 75.5227 73.9591 75.952 74.0898 76.54H73.8798C74.0571 76.0173 74.3698 75.602 74.8178 75.294C75.2658 74.986 75.7885 74.832 76.3858 74.832C77.1605 74.832 77.7438 75.0607 78.1358 75.518C78.5278 75.966 78.7238 76.666 78.7238 77.618V82H77.4498V77.688C77.4498 77.044 77.3378 76.582 77.1138 76.302C76.8898 76.0127 76.5351 75.868 76.0498 75.868C75.4805 75.868 75.0325 76.064 74.7058 76.456C74.3791 76.8387 74.2158 77.3613 74.2158 78.024V82H72.9418V77.688C72.9418 77.044 72.8298 76.582 72.6058 76.302C72.3911 76.0127 72.0365 75.868 71.5418 75.868C70.9725 75.868 70.5245 76.064 70.1978 76.456C69.8805 76.8387 69.7218 77.3613 69.7218 78.024V82H68.4478Z" fill="#161616"/>
</svg>
