<svg width="40" height="40" viewBox="0 0 40 40" fill="none" xmlns="http://www.w3.org/2000/svg">
<path d="M20.8346 11.6654C20.8346 9.81536 22.318 8.33203 24.168 8.33203H30.0013C31.8346 8.33203 33.3346 9.83203 33.3346 11.6654V15.2654C31.4013 15.9487 30.0013 17.782 30.0013 19.9487V23.332H20.8346V11.6654ZM10.0013 19.932V23.332H19.168V11.6654C19.168 9.81536 17.6846 8.33203 15.8346 8.33203H10.0013C8.16797 8.33203 6.66797 9.83203 6.66797 11.6654V15.2487C8.6013 15.932 10.0013 17.782 10.0013 19.932ZM34.4346 16.7154C32.8013 16.982 31.668 18.532 31.668 20.1987V24.9987H8.33464V19.9987C8.33464 19.1146 7.98345 18.2668 7.35833 17.6417C6.7332 17.0166 5.88536 16.6654 5.0013 16.6654C4.11725 16.6654 3.2694 17.0166 2.64428 17.6417C2.01916 18.2668 1.66797 19.1146 1.66797 19.9987V28.332C1.66797 30.1654 3.16797 31.6654 5.0013 31.6654V34.9987H8.33464V31.6654H31.668V34.9987H35.0013V31.6654C36.8346 31.6654 38.3346 30.1654 38.3346 28.332V19.9987C38.3346 17.982 36.518 16.3654 34.4346 16.7154Z" fill="#045284"/>
</svg>
