<svg width="16" height="16" viewBox="0 0 16 16" fill="none" xmlns="http://www.w3.org/2000/svg">
<g clip-path="url(#clip0_2318_15204)">
<path fill-rule="evenodd" clip-rule="evenodd" d="M7.88662 13.4517V14.2491C7.88662 14.8885 7.56794 15.4406 7.01416 15.7603C6.74772 15.9141 6.45034 15.9999 6.14203 16C5.83344 16.0002 5.53616 15.9142 5.26953 15.7603L1.72403 13.7133C1.17019 13.3935 0.851562 12.8416 0.851562 12.2021V1.74494C0.851563 0.782719 1.63431 0 2.5965 0H10.405C11.3672 0 12.15 0.782656 12.15 1.74494V3.94928C12.15 4.2655 11.8933 4.52225 11.5771 4.52225C11.2607 4.52225 11.0042 4.26553 11.0042 3.94928V1.74494C11.0042 1.41453 10.7354 1.14569 10.405 1.14569H3.56272L7.01416 3.13872C7.56775 3.45841 7.88662 4.01028 7.88662 4.64956V12.3059H10.405C10.7353 12.3059 11.0042 12.0372 11.0042 11.7068V9.77441C11.0042 9.45797 11.2606 9.20144 11.5771 9.20144C11.8934 9.20144 12.15 9.45803 12.15 9.77441V11.7068C12.15 12.6691 11.3672 13.4517 10.405 13.4517H7.88662ZM13.1955 7.29869L12.5645 7.92966C12.3408 8.15337 12.3408 8.51606 12.5645 8.73981C12.6177 8.79305 12.6808 8.83527 12.7503 8.86403C12.8198 8.8928 12.8944 8.90755 12.9696 8.90744C13.0449 8.90759 13.1194 8.89285 13.189 8.86409C13.2585 8.83532 13.3217 8.79309 13.3748 8.73981L14.9836 7.13081C15.2072 6.90712 15.2072 6.54463 14.9836 6.32094L13.3748 4.71219C13.1511 4.48844 12.7884 4.48853 12.5645 4.71216C12.3409 4.93566 12.3409 5.2985 12.5645 5.52206L13.1955 6.15287H8.96859C8.65206 6.15287 8.39575 6.40937 8.39575 6.72587C8.39575 7.04238 8.65209 7.29872 8.96859 7.29872H13.1955V7.29869Z" fill="#161616"/>
</g>
<defs>
<clipPath id="clip0_2318_15204">
<rect width="16" height="16" fill="white"/>
</clipPath>
</defs>
</svg>
