<svg width="15" height="13" viewBox="0 0 15 13" fill="none" xmlns="http://www.w3.org/2000/svg">
<path d="M7.435 8.04785C7.25799 8.02929 7.07951 8.02929 6.9025 8.04785C6.79615 8.04915 6.69453 8.09197 6.61932 8.16718C6.54412 8.24238 6.5013 8.34401 6.5 8.45035V11.6354C6.49934 11.6889 6.50923 11.742 6.5291 11.7917C6.54897 11.8414 6.57843 11.8867 6.61581 11.925C6.65319 11.9633 6.69774 11.9938 6.74693 12.0149C6.79612 12.036 6.84899 12.0472 6.9025 12.0479H7.3375C7.39186 12.0485 7.4458 12.0383 7.49615 12.0178C7.5465 11.9973 7.59224 11.967 7.63068 11.9285C7.66912 11.8901 7.69947 11.8443 7.71997 11.794C7.74046 11.7436 7.75067 11.6897 7.75 11.6354V8.45035C7.75128 8.35739 7.72074 8.26679 7.66345 8.19358C7.60615 8.12037 7.52554 8.06895 7.435 8.04785ZM14.3375 8.04785C14.16 8.03355 13.9816 8.03773 13.805 8.06035C13.7184 8.08285 13.6416 8.13324 13.5865 8.20372C13.5314 8.27421 13.501 8.36088 13.5 8.45035V11.6354C13.4993 11.6889 13.5092 11.742 13.5291 11.7917C13.549 11.8414 13.5784 11.8867 13.6158 11.925C13.6532 11.9633 13.6977 11.9938 13.7469 12.0149C13.7961 12.036 13.849 12.0472 13.9025 12.0479H14.3375C14.3919 12.0485 14.4458 12.0383 14.4961 12.0178C14.5465 11.9973 14.5922 11.967 14.6307 11.9285C14.6691 11.8901 14.6995 11.8443 14.72 11.794C14.7405 11.7436 14.7507 11.6897 14.75 11.6354V8.45035C14.7493 8.39684 14.7382 8.34397 14.7171 8.29478C14.696 8.24559 14.6654 8.20104 14.6271 8.16366C14.5888 8.12628 14.5435 8.09682 14.4938 8.07695C14.4441 8.05708 14.391 8.04719 14.3375 8.04785ZM8.25 11.7979C8.25 11.8642 8.27634 11.9277 8.32322 11.9746C8.37011 12.0215 8.4337 12.0479 8.5 12.0479H12.75C12.8163 12.0479 12.8799 12.0215 12.9268 11.9746C12.9737 11.9277 13 11.8642 13 11.7979V10.5479H8.25V11.7979ZM12.25 8.79785H9C8.80109 8.79785 8.61032 8.87687 8.46967 9.01752C8.32902 9.15817 8.25 9.34894 8.25 9.54785V10.0479H13V9.54785C13 9.34894 12.921 9.15817 12.7803 9.01752C12.6397 8.87687 12.4489 8.79785 12.25 8.79785ZM13.5 6.04785C13.5 5.71633 13.3683 5.39839 13.1339 5.16397C12.8995 4.92955 12.5815 4.79785 12.25 4.79785H9C8.66848 4.79785 8.35054 4.92955 8.11612 5.16397C7.8817 5.39839 7.75 5.71633 7.75 6.04785V7.64535C7.86205 7.70142 7.96124 7.78015 8.04128 7.87654C8.12133 7.97294 8.18048 8.0849 8.215 8.20535C8.24349 8.31717 8.25529 8.43258 8.25 8.54785C8.5925 8.20535 9.3 8.29785 12.25 8.29785C12.4873 8.29793 12.7197 8.36557 12.92 8.49285C13.08 8.59035 12.9375 8.59035 13.035 8.20535C13.0928 8.00236 13.2191 7.82566 13.3925 7.70535C13.5375 7.59535 13.5 7.90035 13.5 6.04785ZM4.25 6.29785C2.7875 6.29785 3.1675 6.29785 3.25 6.28535C3.66825 6.22184 4.04978 6.01021 4.3251 5.689C4.60041 5.3678 4.7512 4.9584 4.75 4.53535C4.34259 4.53373 3.94737 4.67431 3.6325 4.93285C3.63406 4.69864 3.58912 4.46645 3.50029 4.24973C3.41146 4.03302 3.2805 3.83608 3.115 3.67035C2.94928 3.83592 2.81817 4.03282 2.72932 4.24957C2.64047 4.46633 2.59566 4.6986 2.5975 4.93285C2.28263 4.67431 1.88741 4.53373 1.48 4.53535C1.47932 4.95826 1.63029 5.36739 1.90551 5.68848C2.18074 6.00958 2.56197 6.22135 2.98 6.28535C3.07 6.30535 3.4525 6.29785 1.98 6.29785L2.4075 7.79785H0.75V12.0479H1.25V10.7979H5V12.0479H5.5V7.79785H3.815L4.25 6.29785ZM3.75 9.54785H2.5V9.04785H3.75V9.54785ZM6.5 3.54785H8L7.75 0.797852H4.75L4.5 3.54785H6V8.45035C6.00016 8.28228 6.04699 8.11755 6.13527 7.97453C6.22356 7.83151 6.34982 7.71582 6.5 7.64035V3.54785Z" fill="#161616"/>
</svg>
