<svg width="20" height="20" viewBox="0 0 20 20" fill="none" xmlns="http://www.w3.org/2000/svg">
<path d="M4.5 16.3322C3.875 15.7072 3.38528 14.985 3.03083 14.1655C2.67639 13.3461 2.49945 12.4988 2.5 11.6238C2.50056 10.7488 2.66722 9.8844 3 9.03051C3.33278 8.17662 3.87445 7.3744 4.625 6.62384C5.45833 5.79051 6.63556 5.15856 8.15667 4.72801C9.67778 4.29745 11.6464 4.1169 14.0625 4.18634C14.4236 4.20023 14.7569 4.27662 15.0625 4.41551C15.3681 4.5544 15.6389 4.7419 15.875 4.97801C16.1111 5.21412 16.2986 5.48856 16.4375 5.80134C16.5764 6.11412 16.6528 6.45079 16.6667 6.81134C16.6944 7.95023 16.6633 9.00245 16.5733 9.96801C16.4833 10.9336 16.3372 11.805 16.135 12.5822C15.9328 13.3594 15.6761 14.0505 15.365 14.6555C15.0539 15.2605 14.6822 15.7777 14.25 16.2072C13.5139 16.9433 12.7328 17.4816 11.9067 17.8222C11.0806 18.1627 10.2367 18.3327 9.375 18.3322C8.47222 18.3322 7.59028 18.155 6.72917 17.8005C5.86806 17.4461 5.125 16.9566 4.5 16.3322ZM6.83333 15.9988C7.23611 16.235 7.64945 16.4052 8.07333 16.5097C8.49722 16.6141 8.93111 16.6661 9.375 16.6655C10.0139 16.6655 10.6458 16.5372 11.2708 16.2805C11.8958 16.0238 12.4931 15.6105 13.0625 15.0405C13.3125 14.7905 13.5661 14.4397 13.8233 13.988C14.0806 13.5363 14.3028 12.9463 14.49 12.218C14.6772 11.4897 14.8194 10.6077 14.9167 9.57218C15.0139 8.53662 15.0278 7.30384 14.9583 5.87384C14.2778 5.84606 13.5106 5.83579 12.6567 5.84301C11.8028 5.85023 10.9519 5.91606 10.1042 6.04051C9.25639 6.16495 8.45083 6.36634 7.6875 6.64468C6.92417 6.92301 6.29917 7.30495 5.8125 7.79051C5.1875 8.41551 4.75695 9.03356 4.52083 9.64468C4.28472 10.2558 4.16667 10.8461 4.16667 11.4155C4.16667 12.235 4.32306 12.9538 4.63583 13.5722C4.94861 14.1905 5.22278 14.6244 5.45833 14.8738C6.04167 13.7627 6.8125 12.6966 7.77083 11.6755C8.72917 10.6544 9.84722 9.81773 11.125 9.16551C10.125 10.0405 9.25361 11.0302 8.51083 12.1347C7.76806 13.2391 7.20889 14.5272 6.83333 15.9988Z" fill="#045284"/>
</svg>
