<svg width="29" height="25" viewBox="0 0 29 25" fill="none" xmlns="http://www.w3.org/2000/svg">
<path fill-rule="evenodd" clip-rule="evenodd" d="M5.6929 14.2399C5.35735 14.2712 5.03476 14.385 4.75388 14.5713C4.00877 14.0828 3.04518 14.1256 2.44704 14.7227C2.09562 15.0743 1.89821 15.5511 1.89821 16.0482C1.89821 16.5453 2.09562 17.0221 2.44704 17.3738L4.41151 19.3364C4.45636 19.3817 4.50972 19.4176 4.56852 19.4421C4.62732 19.4666 4.6904 19.4792 4.75411 19.4792C4.81781 19.4792 4.88089 19.4666 4.93969 19.4421C4.99849 19.4176 5.05186 19.3817 5.0967 19.3364L7.05918 17.3738C7.23337 17.2033 7.37174 16.9998 7.46616 16.7751C7.56058 16.5504 7.60915 16.3091 7.60901 16.0654C7.61055 15.8165 7.56295 15.5698 7.46894 15.3394C7.37493 15.109 7.23636 14.8994 7.06117 14.7227C6.88306 14.5459 6.66793 14.411 6.43131 14.3275C6.19469 14.244 5.94248 14.2141 5.6929 14.2399ZM6.38035 16.6824C6.37892 16.6853 6.37742 16.6853 6.37604 16.688L4.75411 18.3078L3.13212 16.6881C2.96247 16.5184 2.86717 16.2882 2.86717 16.0482C2.86717 15.8082 2.96247 15.5781 3.13212 15.4083C3.19943 15.341 3.27971 15.288 3.3681 15.2527C3.45649 15.2173 3.55114 15.2003 3.64631 15.2026C3.93497 15.211 4.20917 15.3308 4.41151 15.5368C4.50252 15.6274 4.6257 15.6783 4.75411 15.6783C4.88251 15.6783 5.00569 15.6274 5.0967 15.5368C5.2796 15.3512 5.52083 15.2342 5.77984 15.2055C5.88805 15.1928 5.99776 15.2044 6.10092 15.2395C6.20409 15.2745 6.2981 15.3322 6.37609 15.4084C6.46087 15.4942 6.52783 15.5959 6.57313 15.7077C6.61843 15.8195 6.64118 15.9391 6.64005 16.0597C6.64069 16.1756 6.61803 16.2905 6.57342 16.3975C6.52881 16.5045 6.46315 16.6014 6.38035 16.6825V16.6824ZM4.10954 0.333008H24.4037C24.4896 0.333008 24.5746 0.349938 24.6539 0.382829C24.7332 0.41572 24.8052 0.463927 24.8659 0.524691C24.9265 0.585455 24.9746 0.657582 25.0074 0.736946C25.0401 0.81631 25.0569 0.901351 25.0567 0.987204V8.1091H21.2543C20.9051 8.10954 20.5704 8.24843 20.3234 8.49531C20.0765 8.7422 19.9375 9.07693 19.937 9.42613V14.3798H9.32573V13.7771C9.32585 13.5436 9.2711 13.3133 9.16591 13.1049C9.06072 12.8964 8.90802 12.7156 8.72012 12.577L7.61731 8.61184C7.57799 8.46681 7.49181 8.33886 7.37219 8.24791C7.25257 8.15697 7.10623 8.10815 6.95597 8.10905H3.4565V0.987204C3.45634 0.901351 3.47312 0.81631 3.50586 0.736946C3.5386 0.657582 3.58668 0.585455 3.64733 0.524691C3.70798 0.463927 3.78001 0.41572 3.85932 0.382829C3.93862 0.349938 4.02369 0.333008 4.10954 0.333008ZM11.8275 15.3483H16.6861V15.8198H11.8275V15.3483ZM1.67537 20.4591C1.53617 20.4586 1.40283 20.4031 1.30448 20.3046C1.20613 20.2061 1.15077 20.0726 1.15049 19.9334V13.7771C1.15077 13.6379 1.20613 13.5044 1.30448 13.4059C1.40283 13.3074 1.53617 13.2519 1.67537 13.2514H7.83218C7.97136 13.2519 8.10469 13.3074 8.20301 13.4059C8.30133 13.5045 8.35666 13.6379 8.35689 13.7771V19.9335C8.35666 20.0727 8.30133 20.2061 8.20301 20.3046C8.10469 20.4031 7.97136 20.4587 7.83218 20.4592L1.67537 20.4591ZM2.76606 9.07767L1.87452 12.283H7.63297L6.74154 9.07767H2.76606ZM1.05432 17.9624H1.15049V15.751H1.05432C0.952414 15.7516 0.854787 15.792 0.782251 15.8636C0.709714 15.9352 0.668005 16.0323 0.666016 16.1342V17.574C0.667777 17.6764 0.709242 17.7742 0.781675 17.8467C0.854109 17.9192 0.951854 17.9608 1.05432 17.9626V17.9624ZM6.74126 24.6329H2.76606L1.87452 21.4276H7.63297L6.74143 24.6329H6.74126ZM9.32551 17.4681H19.937V15.3483H17.655V16.0111C17.6547 16.2173 17.5725 16.4149 17.4266 16.5605C17.2808 16.7062 17.083 16.7881 16.8769 16.7882H11.6364C11.4303 16.7881 11.2326 16.7062 11.0867 16.5606C10.9408 16.4149 10.8587 16.2173 10.8584 16.0111V15.3483H9.32573V17.4681H9.32551ZM28.9987 24.2844V9.42635C28.9985 9.33401 28.9617 9.24549 28.8965 9.18016C28.8312 9.11483 28.7428 9.078 28.6504 9.07772H21.2543C21.1619 9.07791 21.0734 9.1147 21.008 9.18004C20.9427 9.24538 20.9059 9.33394 20.9057 9.42635V24.2844C20.9059 24.3768 20.9427 24.4653 21.008 24.5307C21.0734 24.596 21.1619 24.6328 21.2543 24.633H28.6504C28.7428 24.6327 28.8312 24.5959 28.8965 24.5306C28.9617 24.4652 28.9985 24.3767 28.9987 24.2844ZM24.9523 21.9075C25.1893 21.9075 25.421 21.9777 25.6181 22.1093C25.8152 22.2408 25.9689 22.4279 26.0597 22.6468C26.1505 22.8657 26.1743 23.1066 26.1282 23.3391C26.0821 23.5715 25.9682 23.7851 25.8007 23.9528C25.6333 24.1205 25.4198 24.2348 25.1875 24.2812C24.9551 24.3276 24.7141 24.3041 24.4951 24.2136C24.2761 24.1231 24.0888 23.9697 23.9569 23.7728C23.825 23.5759 23.7545 23.3443 23.7542 23.1074C23.7542 22.7894 23.8803 22.4845 24.105 22.2595C24.3296 22.0345 24.6344 21.9079 24.9523 21.9075ZM24.9523 23.3359C24.9072 23.3358 24.863 23.3223 24.8255 23.2972C24.788 23.272 24.7587 23.2363 24.7415 23.1945C24.7243 23.1527 24.7198 23.1068 24.7287 23.0625C24.7376 23.0182 24.7594 22.9775 24.7913 22.9456C24.8233 22.9137 24.864 22.892 24.9084 22.8832C24.9527 22.8744 24.9986 22.8789 25.0403 22.8963C25.0821 22.9136 25.1178 22.9429 25.1428 22.9804C25.1679 23.018 25.1813 23.0622 25.1813 23.1074C25.1812 23.168 25.157 23.2261 25.1141 23.2689C25.0711 23.3118 25.013 23.3359 24.9523 23.3359ZM24.4678 10.1347C24.468 10.2305 24.4965 10.3242 24.5499 10.4038C24.6032 10.4835 24.679 10.5455 24.7675 10.5821C24.8561 10.6187 24.9536 10.6282 25.0476 10.6095C25.1416 10.5907 25.2279 10.5446 25.2957 10.4768C25.3635 10.409 25.4096 10.3226 25.4283 10.2286C25.447 10.1346 25.4375 10.0371 25.4008 9.94855C25.3642 9.85998 25.3021 9.78425 25.2224 9.73094C25.1428 9.67763 25.0491 9.64912 24.9532 9.64902H24.9514C24.8877 9.64909 24.8247 9.66171 24.7659 9.68616C24.7072 9.71062 24.6538 9.74642 24.6089 9.79153C24.564 9.83664 24.5284 9.89017 24.5042 9.94905C24.48 10.0079 24.4676 10.071 24.4678 10.1347Z" fill="#045284"/>
</svg>
