<svg width="21" height="21" viewBox="0 0 21 21" fill="none" xmlns="http://www.w3.org/2000/svg">
<path d="M10.5 12.25C9.77083 12.25 9.15104 11.9948 8.64062 11.4844C8.13021 10.974 7.875 10.3542 7.875 9.625V4.375C7.875 3.64583 8.13021 3.02604 8.64062 2.51562C9.15104 2.00521 9.77083 1.75 10.5 1.75C11.2292 1.75 11.849 2.00521 12.3594 2.51562C12.8698 3.02604 13.125 3.64583 13.125 4.375V9.625C13.125 10.3542 12.8698 10.974 12.3594 11.4844C11.849 11.9948 11.2292 12.25 10.5 12.25ZM9.625 18.375V15.6844C8.10833 15.4802 6.85417 14.8021 5.8625 13.65C4.87083 12.4979 4.375 11.1562 4.375 9.625H6.125C6.125 10.8354 6.55171 11.8673 7.40513 12.7207C8.25854 13.5742 9.29017 14.0006 10.5 14C11.7104 14 12.7423 13.5733 13.5957 12.7199C14.4492 11.8665 14.8756 10.8348 14.875 9.625H16.625C16.625 11.1562 16.1292 12.4979 15.1375 13.65C14.1458 14.8021 12.8917 15.4802 11.375 15.6844V18.375H9.625ZM10.5 10.5C10.7479 10.5 10.9559 10.416 11.1239 10.248C11.2919 10.08 11.3756 9.87233 11.375 9.625V4.375C11.375 4.12708 11.291 3.91913 11.123 3.75113C10.955 3.58313 10.7473 3.49942 10.5 3.5C10.2521 3.5 10.0441 3.584 9.87612 3.752C9.70812 3.92 9.62442 4.12767 9.625 4.375V9.625C9.625 9.87292 9.709 10.0809 9.877 10.2489C10.045 10.4169 10.2527 10.5006 10.5 10.5Z" fill="black"/>
</svg>
