<svg width="20" height="20" viewBox="0 0 20 20" fill="none" xmlns="http://www.w3.org/2000/svg">
<g clip-path="url(#clip0_5032_12180)">
<path fill-rule="evenodd" clip-rule="evenodd" d="M9.59066 1.62899C10.6473 1.63566 11.8165 2.05483 12.924 3.16233C13.1865 3.42483 13.4115 3.73316 13.5073 4.09816C13.6041 4.46021 13.5534 4.84586 13.3665 5.17066C13.2132 5.44649 12.9898 5.65649 12.8015 5.81066C12.3582 6.17399 11.8307 6.43399 11.424 6.84066C11.1999 7.06014 11.0402 7.33682 10.9623 7.64066C11.5765 7.00816 12.3523 6.39899 13.2032 6.02983C13.8807 5.73566 14.6573 5.57316 15.454 5.73483C16.2673 5.89899 17.0007 6.37983 17.6073 7.18816C17.9973 7.70899 18.3807 8.56316 18.374 9.59066C18.3673 10.6473 17.949 11.8165 16.8407 12.924C16.5782 13.1865 16.2707 13.4115 15.9048 13.5073C15.5428 13.6041 15.1571 13.5534 14.8323 13.3665C14.5565 13.2132 14.3465 12.9898 14.1923 12.8015C13.8298 12.3582 13.569 11.8307 13.1623 11.424C12.9428 11.1999 12.6662 11.0402 12.3623 10.9623C12.9948 11.5765 13.604 12.3523 13.9732 13.2032C14.2673 13.8807 14.4298 14.6573 14.269 15.454C14.104 16.2673 13.6232 17.0007 12.8148 17.6073C12.294 17.9973 11.4398 18.3807 10.4123 18.374C9.35649 18.3673 8.18649 17.949 7.07899 16.8407C6.81649 16.5782 6.59149 16.2707 6.49566 15.9048C6.39915 15.5427 6.45009 15.157 6.63733 14.8323C6.78982 14.5565 7.01316 14.3465 7.20149 14.1923C7.64483 13.8298 8.17233 13.569 8.57899 13.1623C8.80338 12.9429 8.96334 12.6663 9.04149 12.3623C8.42649 12.9948 7.64983 13.604 6.79983 13.9732C6.12233 14.2673 5.34566 14.4298 4.54899 14.269C3.73566 14.104 3.00233 13.6232 2.39566 12.8148C2.00566 12.294 1.62233 11.4398 1.62899 10.4123C1.63566 9.35649 2.05483 8.18649 3.16233 7.07899C3.42483 6.81649 3.73316 6.59149 4.09816 6.49566C4.46032 6.39915 4.84597 6.45009 5.17066 6.63733C5.44649 6.78982 5.65649 7.01316 5.81066 7.20149C6.17399 7.64483 6.43399 8.17233 6.84066 8.57899C7.05233 8.79066 7.32316 8.96316 7.64066 9.04149C7.00816 8.42649 6.39899 7.64983 6.02983 6.79983C5.73566 6.12233 5.57316 5.34566 5.73483 4.54899C5.89899 3.73566 6.37983 3.00233 7.18816 2.39566C7.70899 2.00566 8.56316 1.62233 9.59066 1.62899ZM8.25399 10.7457C7.19566 10.824 6.27483 10.3707 5.66233 9.75733C5.34066 9.43566 5.08066 9.05399 4.88233 8.76232C4.76881 8.58879 4.64815 8.42003 4.52066 8.25649C4.43983 8.15816 4.43066 8.16733 4.34066 8.25732C3.52066 9.07732 3.29899 9.83566 3.29566 10.424C3.29084 10.9215 3.44242 11.4081 3.72899 11.8148C4.13066 12.349 4.52733 12.564 4.87899 12.6348C5.24649 12.7098 5.66899 12.6473 6.13733 12.444C6.93733 12.0973 7.71566 11.4032 8.25399 10.7457ZM10.7457 11.749C10.824 12.8073 10.3707 13.7282 9.75733 14.3407C9.43566 14.6623 9.05399 14.9223 8.76232 15.1207C8.59149 15.2373 8.41733 15.3507 8.25649 15.4823C8.15816 15.5632 8.16733 15.5723 8.25732 15.6623C9.07732 16.4823 9.83649 16.704 10.424 16.7073C10.9215 16.7121 11.4081 16.5606 11.8148 16.274C12.349 15.8723 12.564 15.4757 12.6348 15.124C12.7098 14.7565 12.6473 14.334 12.444 13.8657C12.0973 13.0657 11.4032 12.2882 10.7457 11.749ZM11.749 9.25733C12.8073 9.17899 13.7282 9.63233 14.3407 10.2457C14.7907 10.6957 15.0823 11.2582 15.4823 11.7457C15.5632 11.8457 15.5723 11.8357 15.6623 11.7457C16.4823 10.9257 16.704 10.1673 16.7073 9.57899C16.7115 8.96399 16.4765 8.45816 16.274 8.18816C15.8723 7.65399 15.4757 7.43899 15.124 7.36816C14.7565 7.29316 14.334 7.35566 13.8657 7.55899C13.0657 7.90566 12.2882 8.59983 11.749 9.25733ZM9.25733 8.25399C9.17899 7.19566 9.63233 6.27483 10.2457 5.66233C10.5765 5.33149 10.9707 5.06649 11.2657 4.86566C11.431 4.75783 11.5914 4.64272 11.7465 4.52066C11.8448 4.43983 11.8357 4.43066 11.7457 4.34066C10.9257 3.52066 10.1673 3.29899 9.57899 3.29566C9.08143 3.29084 8.59493 3.44242 8.18816 3.72899C7.65399 4.13066 7.43899 4.52733 7.36816 4.87899C7.29316 5.24649 7.35566 5.66899 7.55899 6.13733C7.90566 6.93733 8.59983 7.71566 9.25733 8.25399Z" fill="#045284"/>
</g>
<defs>
<clipPath id="clip0_5032_12180">
<rect width="20" height="20" fill="white"/>
</clipPath>
</defs>
</svg>
