<svg width="40" height="40" viewBox="0 0 40 40" fill="none" xmlns="http://www.w3.org/2000/svg">
<path fill-rule="evenodd" clip-rule="evenodd" d="M19.1667 18.333C20.5474 18.333 21.6667 19.4523 21.6667 20.833C21.6667 22.2137 20.5474 23.333 19.1667 23.333C17.786 23.333 16.6667 22.2137 16.6667 20.833C16.6667 19.4523 17.786 18.333 19.1667 18.333ZM30.8333 18.333C32.214 18.333 33.3333 19.4523 33.3333 20.833C33.3333 22.2137 32.214 23.333 30.8333 23.333C29.4526 23.333 28.3333 22.2137 28.3333 20.833C28.3333 19.4523 29.4526 18.333 30.8333 18.333ZM7.5 18.333C8.88071 18.333 10 19.4523 10 20.833C10 22.2137 8.88071 23.333 7.5 23.333C6.11929 23.333 5 22.2137 5 20.833C5 19.4523 6.11929 18.333 7.5 18.333Z" fill="#045284"/>
</svg>
