<svg width="40" height="40" viewBox="0 0 40 40" fill="none" xmlns="http://www.w3.org/2000/svg">
<path d="M15.2546 5.38243C14.7866 5.89303 14.8079 6.33979 15.2759 6.76528C15.6163 7.0844 16.3609 7.12695 21.2115 7.12695C26.2962 7.12695 26.7642 7.10568 27.0833 6.74401C27.5514 6.23342 27.5301 5.78665 27.0621 5.36116C26.7217 5.04204 25.977 4.99949 21.1264 4.99949C16.0418 4.99949 15.5738 5.02077 15.2546 5.38243Z" fill="#045284"/>
<path d="M15.7441 8.02022C15.7441 9.63709 17.3397 11.6369 18.9992 12.1262C22.6158 13.19 25.9134 11.6156 26.4878 8.55208L26.6367 7.76492H21.1904C16.9781 7.76492 15.7441 7.82875 15.7441 8.02022Z" fill="#045284"/>
<path d="M18.8714 14.3176C18.531 14.6792 18.5523 14.7431 19.3394 15.1685C20.467 15.8068 21.9775 15.7855 23.0412 15.1473C23.8496 14.658 23.8496 14.658 23.4241 14.275C23.0199 13.9133 22.9561 13.8921 22.254 14.2325C21.3605 14.658 20.9137 14.658 20.1266 14.2537C19.3607 13.8495 19.2969 13.8495 18.8714 14.3176Z" fill="#045284"/>
<path d="M16.2534 16.7434C15.8705 17.1476 15.8705 17.1688 16.3811 17.5943C17.0619 18.1475 18.8277 19.041 19.2532 19.041C19.4234 19.041 19.5723 18.9559 19.5723 18.8495C19.5723 18.7432 19.6361 18.5091 19.6999 18.339C19.785 18.1049 19.5936 17.956 19.0617 17.7645C18.6575 17.6369 17.9554 17.2539 17.4874 16.9136L16.6364 16.2966L16.2534 16.7434Z" fill="#045284"/>
<path d="M24.6375 16.9981C23.5738 17.7002 23.4249 17.9768 23.9355 18.4023C24.1908 18.615 24.4248 18.5512 25.1907 18.1044C26.4033 17.4024 26.531 17.1683 26.0416 16.7216C25.6587 16.3599 25.5949 16.3812 24.6375 16.9981Z" fill="#045284"/>
<path d="M20.6791 18.2537C20.0622 18.9132 20.0622 20.1046 20.6366 20.6365C21.2748 21.2109 22.5087 21.1684 22.9981 20.5514C24.3171 18.9345 22.1045 16.7432 20.6791 18.2537Z" fill="#045284"/>
<path d="M13.2761 19.2957C12.8932 19.6999 12.8932 19.7212 13.6165 20.3381C14.4888 21.0615 17.0417 22.4443 17.5098 22.4443C17.68 22.4443 18.0416 22.2741 18.2969 22.0614L18.7863 21.6784L17.4885 21.2104C16.7864 20.9338 15.6376 20.3169 14.9355 19.785C13.6591 18.8702 13.6591 18.8489 13.2761 19.2957Z" fill="#045284"/>
<path d="M27.6583 19.6155C26.5521 20.4878 24.999 21.2537 23.5736 21.5941C22.6163 21.8494 22.595 21.8707 22.829 22.3812C23.0205 22.828 23.1481 22.8918 23.8076 22.7642C24.8075 22.594 27.786 21.126 28.7221 20.3389C29.4667 19.7006 29.4667 19.7006 29.0412 19.2752C28.6157 18.8709 28.6157 18.8709 27.6583 19.6155Z" fill="#045284"/>
<path d="M10.3404 21.7848C10.1489 21.9976 10 22.2103 10 22.2741C10 22.5294 12.7232 24.4867 13.9996 25.1249C15.0421 25.6568 15.4463 25.7632 15.574 25.5717C15.9356 24.9973 15.7016 24.6356 14.6166 24.1037C13.9996 23.8059 12.8508 23.0826 12.0849 22.4869C10.7446 21.487 10.6382 21.4444 10.3404 21.7848Z" fill="#045284"/>
<path d="M30.4235 22.3592C29.0194 23.4867 27.1046 24.5292 25.5729 24.9972L24.4453 25.3589L25.275 25.7206C26.0835 26.0822 26.126 26.0822 27.4025 25.5716C28.7215 25.0185 30.3809 23.9973 31.7 22.891C32.4446 22.2528 32.4446 22.2528 32.0191 21.8486C31.5936 21.4231 31.5936 21.4444 30.4235 22.3592Z" fill="#045284"/>
<path d="M19.2553 22.1895C18.915 22.4022 18.1278 23.0617 17.5108 23.6362C16.4258 24.6573 16.3833 24.6999 16.1705 26.3593C15.9791 27.806 16.0003 28.1038 16.2769 28.3804C16.8513 28.9761 17.3194 28.4229 17.5534 26.8486C17.7236 25.6785 17.8938 25.2956 18.4682 24.7424C19.2766 23.934 19.3192 24.1042 18.8299 26.1678L18.532 27.4443L21.0211 31.3801C22.9359 34.4011 23.6379 35.3372 23.9996 35.3797C24.5953 35.4648 25.1059 35.0819 25.1059 34.55C25.1059 34.3373 24.2336 32.8055 23.1699 31.1248C21.2764 28.1038 21.2552 28.0826 21.3828 27.0401C21.553 25.6572 21.6594 25.5296 22.1274 26.104C22.6167 26.7422 25.3824 28.0826 25.8505 27.8911C26.5738 27.6145 26.127 26.8699 24.7867 26.1891C23.8507 25.6998 23.4252 25.3381 23.1912 24.8063C21.9147 21.9555 21.8721 21.9129 20.8509 21.8491C20.2127 21.8065 19.6808 21.9342 19.2553 22.1895Z" fill="#045284"/>
<path d="M18.2341 29.4013C18.1703 29.5077 18.0214 29.997 17.8724 30.5076C17.7448 31.0182 17.1491 32.0607 16.5747 32.8266C15.511 34.252 15.3408 34.72 15.7875 35.1668C16.3407 35.7199 16.83 35.4008 18.0639 33.7201C19.6595 31.5926 19.8084 31.0182 19.0426 29.997C18.4256 29.2099 18.383 29.1673 18.2341 29.4013Z" fill="#045284"/>
</svg>
