<svg width="20" height="22" viewBox="0 0 20 22" fill="none" xmlns="http://www.w3.org/2000/svg">
<path d="M1.7277 20.4726C1.72806 20.8427 1.87528 21.1976 2.13703 21.4592C2.39878 21.7209 2.75367 21.868 3.12378 21.8682H17.1842C17.5542 21.8679 17.909 21.7207 18.1706 21.4591C18.4323 21.1974 18.5794 20.8426 18.5798 20.4726V13.0652H1.7277V20.4726ZM6.72966 14.9123H13.5787C13.8346 14.9123 14.0438 15.117 14.0438 15.3778C14.0434 15.501 13.9943 15.6191 13.9072 15.7063C13.82 15.7934 13.702 15.8425 13.5787 15.8429H6.72921C6.60598 15.8425 6.4879 15.7934 6.40076 15.7063C6.31362 15.6191 6.26451 15.501 6.26415 15.3778C6.26415 15.117 6.47336 14.9123 6.72921 14.9123H6.72966ZM6.72966 18.1645H13.5787C13.8346 18.1645 14.0438 18.3692 14.0438 18.63C14.0434 18.7533 13.9943 18.8714 13.9072 18.9585C13.82 19.0456 13.702 19.0947 13.5787 19.0951H6.72921C6.60598 19.0947 6.4879 19.0456 6.40076 18.9585C6.31362 18.8714 6.26451 18.7533 6.26415 18.63C6.26415 18.3692 6.47336 18.1645 6.72921 18.1645H6.72966ZM3.52815 12.1347L5.14295 7.39805H1.7277C1.60439 7.39841 1.48624 7.44758 1.39909 7.53481C1.31194 7.62205 1.26288 7.74025 1.26264 7.86356V11.6696C1.26264 11.93 1.47185 12.1347 1.7277 12.1347H3.52815ZM4.50989 12.1347H7.04574L8.66506 7.39805H6.12468L4.50989 12.1347ZM10.5679 12.1347L12.1822 7.39805H9.64634L8.02747 12.1347H10.5633H10.5679ZM15.7048 7.3985H13.1644L11.5496 12.1351H14.0854L15.7048 7.3985ZM18.5798 7.3985H16.686L15.0672 12.1351H18.5798C18.8356 12.1351 19.0448 11.93 19.0448 11.6696V7.86356C19.0445 7.74033 18.9954 7.62224 18.9082 7.53511C18.8211 7.44797 18.703 7.39886 18.5798 7.3985ZM1.7277 6.46748H4.47774L2.86295 4.31382L1.31653 4.81646C1.0403 4.90612 0.889059 5.20318 0.979172 5.4794L1.32332 6.53314C1.44876 6.49103 1.58823 6.46748 1.7277 6.46748ZM8.07412 5.71895L6.20846 3.22476L3.80302 4.0068L5.66868 6.50054L8.07412 5.71895ZM9.01374 5.41193L11.4242 4.6299L9.55849 2.13616L7.14355 2.92273L9.00921 5.41193H9.01374ZM14.7737 3.54129L12.9036 1.05208L10.4936 1.83367L12.3592 4.32786L14.7737 3.54129ZM17.7561 2.57359L17.277 1.09873C17.1628 0.746443 16.9134 0.45394 16.5835 0.285545C16.2537 0.117151 15.8705 0.0866543 15.5182 0.200763L13.8391 0.745065L15.7048 3.2388L17.7561 2.57359Z" fill="white"/>
</svg>
