<svg width="16" height="16" viewBox="0 0 16 16" fill="none" xmlns="http://www.w3.org/2000/svg">
<path d="M8.004 5.2915C8.4185 5.295 8.8435 5.28 9.279 5.2535C8.9585 4.1 8.463 3.375 8 3.375C7.54 3.375 7.048 4.091 6.727 5.233C7.15194 5.26597 7.57782 5.28548 8.004 5.2915ZM5.6325 7.625C5.64956 7.04443 5.70906 6.46589 5.8105 5.894C5.13055 5.81449 4.4549 5.70169 3.786 5.556C3.74505 5.54591 3.70614 5.52883 3.671 5.5055C3.29661 6.15379 3.07371 6.87837 3.019 7.625H5.6325ZM7.996 10.7085C7.57069 10.7069 7.14545 10.7195 6.721 10.7465C7.042 11.9005 7.537 12.625 8 12.625C8.46 12.625 8.952 11.909 9.273 10.767C8.84806 10.734 8.42218 10.7145 7.996 10.7085ZM5.6325 8.375H3.019C3.07143 9.09765 3.28134 9.80007 3.634 10.433C3.66919 10.4099 3.70809 10.393 3.749 10.383C4.42794 10.2426 5.11393 10.1388 5.804 10.072C5.70645 9.51114 5.64914 8.94403 5.6325 8.375ZM10.3675 8.375C10.3504 8.95557 10.2909 9.53411 10.1895 10.106C10.8535 10.1855 11.5185 10.291 12.214 10.444C12.2565 10.453 12.294 10.473 12.329 10.4945C12.7034 9.84621 12.9263 9.12163 12.981 8.375H10.3675ZM10.3675 7.625H12.981C12.9286 6.90235 12.7187 6.19993 12.366 5.567C12.3308 5.59011 12.2919 5.60703 12.251 5.617C11.5721 5.75737 10.8861 5.86118 10.196 5.928C10.2925 6.4745 10.35 7.0495 10.3675 7.625ZM5.961 10.8085C5.32698 10.8689 4.69648 10.9619 4.072 11.087C4.79597 12.0108 5.82215 12.6502 6.9705 12.893C6.5255 12.435 6.1875 11.688 5.9605 10.8085H5.961ZM5.9685 5.159C6.195 4.294 6.531 3.559 6.9705 3.107C5.8459 3.34407 4.8374 3.9616 4.115 4.8555C4.72794 4.98549 5.34611 5.08676 5.9685 5.159ZM10.0315 10.841C9.805 11.706 9.469 12.441 9.0295 12.893C10.1543 12.656 11.163 12.0385 11.8855 11.1445C11.2726 11.0145 10.6539 10.9132 10.0315 10.841ZM8.004 9.9585C8.4815 9.9635 8.964 9.99 9.4435 10.0285C9.537 9.5265 9.5985 8.971 9.6175 8.375H6.3825C6.401 8.962 6.461 9.51 6.5525 10.0055C7.0495 9.9735 7.5315 9.956 8.004 9.9585ZM8.193 6.0425L7.996 6.0415C7.5185 6.0365 7.036 6.01 6.5565 5.9715C6.45648 6.51743 6.39831 7.07021 6.3825 7.625H9.6175C9.6017 7.07834 9.54488 6.53365 9.4475 5.9955C9.0195 6.024 8.6025 6.0425 8.193 6.0425ZM10.039 5.1915C10.673 5.13109 11.3035 5.03813 11.928 4.913C11.204 3.98915 10.1778 3.34976 9.0295 3.107C9.4745 3.5645 9.8125 4.312 10.0395 5.1915H10.039ZM0.875 8C0.875 9.34 1.235 10.615 1.935 11.73C1.765 11.81 1.6 11.925 1.46 12.065C1.415 12.11 1.375 12.155 1.34 12.205C0.545 10.945 0.125 9.51 0.125 8C0.125 6.49 0.545 5.055 1.34 3.795C1.375 3.845 1.415 3.89 1.46 3.935C1.6 4.075 1.765 4.19 1.935 4.27C1.235 5.385 0.875 6.66 0.875 8ZM15.875 8C15.875 9.51 15.455 10.945 14.66 12.205C14.625 12.155 14.585 12.11 14.54 12.065C14.4019 11.927 14.2413 11.8137 14.065 11.73C14.765 10.615 15.125 9.34 15.125 8C15.125 6.66 14.765 5.385 14.065 4.27C14.235 4.19 14.4 4.075 14.54 3.935C14.585 3.89 14.625 3.845 14.66 3.795C15.455 5.055 15.875 6.49 15.875 8ZM12.2 14.665C10.945 15.455 9.505 15.875 8 15.875C6.495 15.875 5.055 15.455 3.8 14.665C3.845 14.625 3.89 14.585 3.935 14.54C4.075 14.4 4.19 14.24 4.27 14.065C5.39 14.765 6.66 15.125 8 15.125C9.34 15.125 10.61 14.765 11.73 14.065C11.81 14.24 11.925 14.4 12.065 14.54C12.11 14.585 12.155 14.625 12.2 14.665ZM12.205 1.335C12.155 1.375 12.11 1.415 12.065 1.46C11.925 1.6 11.81 1.76 11.73 1.935C10.61 1.235 9.34 0.875 8 0.875C6.66 0.875 5.39 1.235 4.27 1.935C4.18751 1.75798 4.07406 1.59712 3.935 1.46C3.89 1.415 3.845 1.375 3.795 1.335C5.055 0.545 6.49 0.125 8 0.125C9.51 0.125 10.945 0.545 12.205 1.335Z" fill="#161616"/>
<path d="M2.69531 3.69629C3.2476 3.69629 3.69531 3.24857 3.69531 2.69629C3.69531 2.144 3.2476 1.69629 2.69531 1.69629C2.14303 1.69629 1.69531 2.144 1.69531 2.69629C1.69531 3.24857 2.14303 3.69629 2.69531 3.69629Z" fill="#161616"/>
<path d="M2.69531 14.3037C3.2476 14.3037 3.69531 13.856 3.69531 13.3037C3.69531 12.7514 3.2476 12.3037 2.69531 12.3037C2.14303 12.3037 1.69531 12.7514 1.69531 13.3037C1.69531 13.856 2.14303 14.3037 2.69531 14.3037Z" fill="#161616"/>
<path d="M13.3047 14.3037C13.857 14.3037 14.3047 13.856 14.3047 13.3037C14.3047 12.7514 13.857 12.3037 13.3047 12.3037C12.7524 12.3037 12.3047 12.7514 12.3047 13.3037C12.3047 13.856 12.7524 14.3037 13.3047 14.3037Z" fill="#161616"/>
<path d="M13.3047 3.69629C13.857 3.69629 14.3047 3.24857 14.3047 2.69629C14.3047 2.144 13.857 1.69629 13.3047 1.69629C12.7524 1.69629 12.3047 2.144 12.3047 2.69629C12.3047 3.24857 12.7524 3.69629 13.3047 3.69629Z" fill="#161616"/>
</svg>
