<svg width="32" height="32" viewBox="0 0 32 32" fill="none" xmlns="http://www.w3.org/2000/svg">
<g clip-path="url(#clip0_3193_3305)" filter="url(#filter0_d_3193_3305)">
<path d="M14 24C11.9331 24 10.25 22.318 10.25 20.25C10.25 19.836 10.586 19.5 11 19.5C11.414 19.5 11.75 19.836 11.75 20.25C11.75 21.4911 12.76 22.5 14 22.5C15.24 22.5 16.25 21.4911 16.25 20.25C16.25 19.836 16.586 19.5 17 19.5C17.414 19.5 17.75 19.836 17.75 20.25C17.75 22.318 16.0671 24 14 24Z" fill="#045284"/>
<path d="M22.2499 21.0003H5.74994C4.78497 21.0003 4 20.2153 4 19.2503C3.99984 18.9976 4.05447 18.7478 4.16011 18.5182C4.26576 18.2886 4.41991 18.0846 4.61195 17.9203C4.63703 17.8983 4.66398 17.8783 4.69197 17.8602C6.15991 16.5792 7 14.7362 7 12.7902V10.0002C7 6.74335 9.20697 3.9473 12.367 3.20025C12.7709 3.10721 13.175 3.35424 13.2701 3.75835C13.3649 4.16138 13.115 4.5653 12.7131 4.66032C10.232 5.24625 8.5 7.44225 8.5 10.0002V12.7902C8.5 15.2063 7.44091 17.4923 5.59703 19.0612C5.58203 19.0733 5.56905 19.0843 5.55292 19.0952C5.51818 19.1394 5.49951 19.1941 5.5 19.2503C5.5 19.3862 5.61409 19.5003 5.74994 19.5003H22.2499C22.386 19.5003 22.5001 19.3862 22.5001 19.2503C22.5001 19.1802 22.474 19.1293 22.4461 19.0952C22.4311 19.0843 22.417 19.0733 22.403 19.0612C21.5071 18.2973 20.7999 17.3753 20.3021 16.3203C20.1241 15.9462 20.284 15.4993 20.659 15.3213C20.748 15.279 20.8444 15.2548 20.9428 15.2499C21.0412 15.2451 21.1396 15.2597 21.2324 15.2929C21.3251 15.3262 21.4104 15.3774 21.4832 15.4437C21.5561 15.51 21.6152 15.59 21.6571 15.6792C22.0529 16.5153 22.6079 17.2493 23.3099 17.8633C23.3359 17.8813 23.363 17.9003 23.3859 17.9203C23.5786 18.0842 23.7334 18.288 23.8394 18.5177C23.9455 18.7474 24.0003 18.9974 24.0001 19.2503C24.0001 20.2153 23.2151 21.0003 22.2499 21.0003Z" fill="#045284"/>
<path d="M21.4999 12.9999C17.916 12.9999 15 10.084 15 6.50006C15 2.91595 17.916 0 21.4999 0C25.084 0 27.9999 2.91595 27.9999 6.50006C27.9999 10.084 25.084 12.9999 21.4999 12.9999ZM21.4999 1.5C18.7429 1.5 16.5 3.74306 16.5 6.50006C16.5 9.25706 18.7429 11.4999 21.4999 11.4999C24.2569 11.4999 26.4999 9.25706 26.4999 6.50006C26.4999 3.74306 24.2569 1.5 21.4999 1.5Z" fill="#045284"/>
<path d="M21.7501 9.50012C21.3361 9.50012 21.0001 9.16412 21.0001 8.75012V5.5H20.5C20.086 5.5 19.75 5.164 19.75 4.75C19.75 4.336 20.086 4 20.5 4H21.7501C22.1641 4 22.5001 4.336 22.5001 4.75V8.75012C22.5001 9.16412 22.1641 9.50012 21.7501 9.50012Z" fill="#045284"/>
</g>
<defs>
<filter id="filter0_d_3193_3305" x="0" y="0" width="32" height="32" filterUnits="userSpaceOnUse" color-interpolation-filters="sRGB">
<feFlood flood-opacity="0" result="BackgroundImageFix"/>
<feColorMatrix in="SourceAlpha" type="matrix" values="0 0 0 0 0 0 0 0 0 0 0 0 0 0 0 0 0 0 127 0" result="hardAlpha"/>
<feOffset dy="4"/>
<feGaussianBlur stdDeviation="2"/>
<feComposite in2="hardAlpha" operator="out"/>
<feColorMatrix type="matrix" values="0 0 0 0 0 0 0 0 0 0 0 0 0 0 0 0 0 0 0.25 0"/>
<feBlend mode="normal" in2="BackgroundImageFix" result="effect1_dropShadow_3193_3305"/>
<feBlend mode="normal" in="SourceGraphic" in2="effect1_dropShadow_3193_3305" result="shape"/>
</filter>
<clipPath id="clip0_3193_3305">
<rect width="24" height="24" fill="white" transform="translate(4)"/>
</clipPath>
</defs>
</svg>
