<svg width="55" height="55" viewBox="0 0 55 55" fill="none" xmlns="http://www.w3.org/2000/svg">
<circle cx="27.5" cy="27.5" r="19" fill="#66EA63" stroke="#44E14A"/>
<path d="M37.2218 28.2537C37.2048 28.0903 37.1896 27.9268 37.1744 27.7634C37.1422 27.401 37.108 27.028 37.0492 26.6602C36.867 25.5322 36.4325 24.4379 35.759 23.4076C35.1215 22.4341 34.3018 21.5885 33.3228 20.8939C32.7612 20.496 32.2793 20.2171 31.803 20.0181C31.4976 19.8902 31.1522 19.8884 30.8354 20.011C30.5109 20.1371 30.2548 20.3841 30.1334 20.6861C29.9341 21.1799 30.0992 21.8532 30.7974 22.1836C31.5791 22.5549 32.2831 23.0736 32.8883 23.7273C33.9262 24.8447 34.5162 26.1575 34.6415 27.6248C34.7496 28.8897 34.4859 30.0994 33.856 31.2204C33.0496 32.6522 31.8486 33.7003 30.2851 34.338C28.7843 34.9491 27.2133 35.0557 25.6177 34.6542C23.9309 34.2297 22.5705 33.3343 21.5706 31.9931C20.5233 30.5844 20.1078 28.9998 20.3374 27.282C20.5024 26.0509 21.0166 24.9229 21.8704 23.9263C22.4908 23.2015 23.2745 22.6028 24.2023 22.1481C24.5115 21.9953 24.7373 21.743 24.836 21.4375C24.9327 21.1408 24.9005 20.8264 24.7449 20.5528C24.4053 19.9613 23.671 19.7481 23.0335 20.0572C21.6162 20.7447 20.4341 21.7093 19.5215 22.9208C18.6829 24.0347 18.1326 25.2835 17.8879 26.6318C17.738 27.4596 17.7095 28.2981 17.8063 29.1259C17.9239 30.1332 18.2199 31.1013 18.6829 32.0056C19.4418 33.4836 20.5499 34.7057 21.9805 35.6366C23.0411 36.3259 24.2117 36.8002 25.464 37.0489C26.1356 37.1821 26.813 37.2496 27.4866 37.2496C27.7806 37.2496 28.0728 37.2372 28.365 37.2105C29.826 37.0809 31.2016 36.6598 32.4519 35.9581C33.5638 35.3346 34.5105 34.5317 35.2695 33.5724C36.4477 32.0819 37.089 30.3837 37.1801 28.522L37.2503 28.5148L37.2237 28.2537H37.2218Z" fill="#17910D"/>
<path d="M26.1093 24.6738C26.1093 24.769 26.115 24.8643 26.1245 24.9578C26.2042 25.7392 27.1415 26.3187 28.0237 26.1332C28.7694 25.9773 29.257 25.4437 29.2589 24.7789C29.2589 23.8366 29.2589 22.8943 29.2589 21.9521H29.2551C29.2551 20.9901 29.2589 20.0297 29.2551 19.0677C29.2513 18.2683 28.3406 17.6297 27.4318 17.7692C26.7108 17.8792 26.1036 18.4259 26.1074 19.1892C26.1188 21.0163 26.1093 22.8451 26.1112 24.6722L26.1093 24.6738Z" fill="#17910D"/>
<g filter="url(#filter0_d_4344_15402)">
<circle cx="27.5" cy="27.5" r="19.5" fill="#90CAF9"/>
<circle cx="27.5" cy="27.5" r="19" stroke="#4EB9F8"/>
</g>
<path d="M37.2218 28.2537C37.2048 28.0903 37.1896 27.9268 37.1744 27.7634C37.1422 27.401 37.108 27.028 37.0492 26.6602C36.867 25.5322 36.4325 24.4379 35.759 23.4076C35.1215 22.4341 34.3018 21.5885 33.3228 20.8939C32.7612 20.496 32.2793 20.2171 31.803 20.0181C31.4976 19.8902 31.1522 19.8884 30.8354 20.011C30.5109 20.1371 30.2548 20.3841 30.1334 20.6861C29.9341 21.1799 30.0992 21.8532 30.7974 22.1836C31.5791 22.5549 32.2831 23.0736 32.8883 23.7273C33.9262 24.8447 34.5162 26.1575 34.6415 27.6248C34.7496 28.8897 34.4859 30.0994 33.856 31.2204C33.0496 32.6522 31.8486 33.7003 30.2851 34.338C28.7843 34.9491 27.2133 35.0557 25.6177 34.6542C23.9309 34.2297 22.5705 33.3343 21.5706 31.9931C20.5233 30.5844 20.1078 28.9998 20.3374 27.282C20.5024 26.0509 21.0166 24.9229 21.8704 23.9263C22.4908 23.2015 23.2745 22.6028 24.2023 22.1481C24.5115 21.9953 24.7373 21.743 24.836 21.4375C24.9327 21.1408 24.9005 20.8264 24.7449 20.5528C24.4053 19.9613 23.671 19.7481 23.0335 20.0572C21.6162 20.7447 20.4341 21.7093 19.5215 22.9208C18.6829 24.0347 18.1326 25.2835 17.8879 26.6318C17.738 27.4596 17.7095 28.2981 17.8063 29.1259C17.9239 30.1332 18.2199 31.1013 18.6829 32.0056C19.4418 33.4836 20.5499 34.7057 21.9805 35.6366C23.0411 36.3259 24.2117 36.8002 25.464 37.0489C26.1356 37.1821 26.813 37.2496 27.4866 37.2496C27.7806 37.2496 28.0728 37.2372 28.365 37.2105C29.826 37.0809 31.2016 36.6598 32.4519 35.9581C33.5638 35.3346 34.5105 34.5317 35.2695 33.5724C36.4477 32.0819 37.089 30.3837 37.1801 28.522L37.2503 28.5148L37.2237 28.2537H37.2218Z" fill="#045284"/>
<path d="M26.1093 24.6738C26.1093 24.769 26.115 24.8643 26.1245 24.9578C26.2042 25.7392 27.1415 26.3187 28.0237 26.1332C28.7694 25.9773 29.257 25.4437 29.2589 24.7789C29.2589 23.8366 29.2589 22.8943 29.2589 21.9521H29.2551C29.2551 20.9901 29.2589 20.0297 29.2551 19.0677C29.2513 18.2683 28.3406 17.6297 27.4318 17.7692C26.7108 17.8792 26.1036 18.4259 26.1074 19.1892C26.1188 21.0163 26.1093 22.8451 26.1112 24.6722L26.1093 24.6738Z" fill="#045284"/>
<defs>
<filter id="filter0_d_4344_15402" x="0" y="0" width="55" height="55" filterUnits="userSpaceOnUse" color-interpolation-filters="sRGB">
<feFlood flood-opacity="0" result="BackgroundImageFix"/>
<feColorMatrix in="SourceAlpha" type="matrix" values="0 0 0 0 0 0 0 0 0 0 0 0 0 0 0 0 0 0 127 0" result="hardAlpha"/>
<feMorphology radius="1" operator="dilate" in="SourceAlpha" result="effect1_dropShadow_4344_15402"/>
<feOffset/>
<feGaussianBlur stdDeviation="3.5"/>
<feComposite in2="hardAlpha" operator="out"/>
<feColorMatrix type="matrix" values="0 0 0 0 0.564706 0 0 0 0 0.792157 0 0 0 0 0.976471 0 0 0 1 0"/>
<feBlend mode="normal" in2="BackgroundImageFix" result="effect1_dropShadow_4344_15402"/>
<feBlend mode="normal" in="SourceGraphic" in2="effect1_dropShadow_4344_15402" result="shape"/>
</filter>
</defs>
</svg>
