<svg width="300" height="300" viewBox="0 0 300 300" fill="none" xmlns="http://www.w3.org/2000/svg">
<path d="M284.028 120.696C290.526 189 268.086 209.58 200.928 236.604C133.77 263.628 86.0103 302.4 40.8303 218.568C8.2683 158.142 48.8763 81.3657 116.034 54.3357C183.192 27.3057 275.754 33.6357 284.028 120.696Z" fill="#90CAF9"/>
<path opacity="0.7" d="M284.028 120.696C290.526 189 268.086 209.58 200.928 236.604C133.77 263.628 86.0103 302.4 40.8303 218.568C8.2683 158.142 48.8763 81.3657 116.034 54.3357C183.192 27.3057 275.754 33.6357 284.028 120.696Z" fill="#4EB9F8"/>
<path d="M159.6 236.778C159.6 237.595 159.357 238.395 158.903 239.075C158.448 239.755 157.802 240.285 157.047 240.597C156.291 240.91 155.459 240.992 154.657 240.832C153.855 240.672 153.119 240.277 152.541 239.699C151.963 239.12 151.57 238.383 151.411 237.58C151.252 236.778 151.335 235.947 151.648 235.191C151.962 234.436 152.493 233.791 153.174 233.337C153.854 232.884 154.654 232.642 155.472 232.644C156.567 232.645 157.617 233.081 158.391 233.857C159.165 234.632 159.6 235.682 159.6 236.778Z" fill="white"/>
<path d="M238.302 162.384C238.303 163.202 238.062 164.002 237.608 164.683C237.154 165.364 236.509 165.894 235.753 166.208C234.997 166.522 234.166 166.604 233.363 166.445C232.561 166.285 231.824 165.892 231.245 165.313C230.666 164.735 230.273 163.997 230.113 163.195C229.954 162.392 230.036 161.561 230.35 160.805C230.664 160.049 231.194 159.404 231.875 158.95C232.556 158.496 233.356 158.255 234.174 158.256C235.269 158.256 236.319 158.691 237.093 159.465C237.867 160.239 238.302 161.289 238.302 162.384Z" fill="white"/>
<path d="M277.02 115.8C277.02 116.618 276.777 117.417 276.323 118.097C275.869 118.777 275.223 119.306 274.468 119.619C273.713 119.932 272.881 120.014 272.079 119.855C271.278 119.695 270.541 119.301 269.963 118.723C269.385 118.145 268.991 117.408 268.831 116.607C268.672 115.805 268.754 114.973 269.067 114.218C269.38 113.463 269.909 112.817 270.589 112.363C271.269 111.908 272.068 111.666 272.886 111.666C273.429 111.665 273.967 111.772 274.469 111.979C274.971 112.187 275.427 112.491 275.811 112.875C276.195 113.259 276.499 113.715 276.707 114.217C276.914 114.719 277.021 115.257 277.02 115.8Z" fill="white"/>
<path d="M232.11 120.084C232.11 120.902 231.867 121.701 231.413 122.381C230.959 123.061 230.313 123.591 229.558 123.904C228.802 124.216 227.971 124.298 227.169 124.139C226.367 123.979 225.631 123.586 225.053 123.007C224.474 122.429 224.081 121.693 223.921 120.891C223.762 120.089 223.844 119.258 224.156 118.502C224.469 117.747 224.999 117.101 225.679 116.647C226.359 116.193 227.158 115.95 227.976 115.95C229.072 115.95 230.124 116.386 230.899 117.161C231.674 117.936 232.11 118.988 232.11 120.084Z" fill="white"/>
<path d="M197.226 64.0616C197.227 64.8795 196.986 65.6793 196.532 66.36C196.079 67.0406 195.433 67.5714 194.678 67.8852C193.923 68.199 193.091 68.2817 192.289 68.1229C191.487 67.9641 190.75 67.5708 190.171 66.9929C189.592 66.415 189.198 65.6784 189.038 64.8763C188.878 64.0742 188.959 63.2427 189.272 62.487C189.585 61.7312 190.115 61.0852 190.795 60.6307C191.475 60.1762 192.274 59.9336 193.092 59.9336C193.635 59.9328 194.172 60.039 194.674 60.2461C195.175 60.4532 195.631 60.7571 196.015 61.1405C196.399 61.5239 196.703 61.9793 196.911 62.4805C197.119 62.9817 197.226 63.519 197.226 64.0616Z" fill="white"/>
<path d="M169.338 42.1739C169.34 42.9918 169.098 43.7916 168.645 44.4723C168.191 45.1529 167.546 45.6837 166.79 45.9975C166.035 46.3113 165.204 46.394 164.401 46.2352C163.599 46.0764 162.862 45.6831 162.283 45.1052C161.705 44.5273 161.31 43.7907 161.15 42.9886C160.99 42.1865 161.072 41.355 161.384 40.5993C161.697 39.8435 162.227 39.1975 162.907 38.743C163.587 38.2885 164.386 38.0459 165.204 38.0459C165.747 38.0451 166.284 38.1513 166.786 38.3584C167.287 38.5655 167.743 38.8694 168.127 39.2528C168.511 39.6362 168.816 40.0916 169.024 40.5928C169.231 41.094 169.338 41.6313 169.338 42.1739Z" fill="white"/>
<path d="M92.2563 96.468C92.2563 97.2859 92.0137 98.0854 91.5592 98.7653C91.1046 99.4453 90.4586 99.9752 89.7029 100.288C88.9472 100.601 88.1156 100.682 87.3136 100.522C86.5115 100.362 85.7749 99.9678 85.197 99.389C84.6191 98.8103 84.2258 98.0731 84.067 97.2708C83.9082 96.4685 83.9909 95.6371 84.3047 94.8818C84.6185 94.1265 85.1493 93.4813 85.8299 93.0278C86.5105 92.5742 87.3104 92.3328 88.1283 92.334C88.6709 92.334 89.2082 92.441 89.7094 92.6488C90.2106 92.8566 90.6659 93.1612 91.0493 93.5452C91.4327 93.9291 91.7367 94.3849 91.9438 94.8864C92.1509 95.388 92.2571 95.9254 92.2563 96.468Z" fill="white"/>
<path d="M85.2602 150.366C85.2614 151.184 85.0198 151.985 84.566 152.665C84.1122 153.346 83.4666 153.877 82.711 154.19C81.9553 154.504 81.1236 154.586 80.3212 154.427C79.5187 154.268 78.7815 153.874 78.203 153.295C77.6245 152.717 77.2307 151.98 77.0713 151.177C76.912 150.375 76.9944 149.543 77.308 148.787C77.6217 148.032 78.1525 147.386 78.8332 146.932C79.514 146.479 80.3141 146.237 81.1322 146.238C82.2265 146.24 83.2756 146.675 84.0494 147.449C84.8232 148.223 85.2586 149.272 85.2602 150.366Z" fill="white"/>
<path d="M93.642 182.622C93.642 183.44 93.3994 184.24 92.9449 184.92C92.4904 185.6 91.8444 186.129 91.0887 186.442C90.3329 186.755 89.5014 186.836 88.6993 186.676C87.8972 186.516 87.1606 186.122 86.5827 185.543C86.0048 184.965 85.6116 184.227 85.4527 183.425C85.2939 182.623 85.3766 181.791 85.6904 181.036C86.0042 180.281 86.535 179.636 87.2157 179.182C87.8963 178.729 88.6961 178.487 89.514 178.488C90.0566 178.488 90.5939 178.595 91.0951 178.803C91.5964 179.011 92.0517 179.315 92.4351 179.699C92.8185 180.083 93.1224 180.539 93.3295 181.041C93.5366 181.542 93.6428 182.08 93.642 182.622Z" fill="white"/>
<path d="M63.9602 226.224C66.2433 226.224 68.0942 224.373 68.0942 222.09C68.0942 219.807 66.2433 217.956 63.9602 217.956C61.677 217.956 59.8262 219.807 59.8262 222.09C59.8262 224.373 61.677 226.224 63.9602 226.224Z" fill="white"/>
<path d="M89.514 182.622L63.96 222.09L155.466 236.778L234.174 162.384L227.976 120.084L272.886 115.788L193.092 64.0684L88.128 96.4684L81.132 150.366L89.514 182.622Z" stroke="white" stroke-linecap="round" stroke-linejoin="round"/>
<path d="M165.204 42.1738L193.092 64.0618" stroke="white" stroke-linecap="round" stroke-linejoin="round"/>
<path d="M155.466 236.778L148.38 193.242" stroke="white" stroke-linecap="round" stroke-linejoin="round"/>
<path d="M88.1279 96.4678L112.218 118.26" stroke="white" stroke-linecap="round" stroke-linejoin="round"/>
<path d="M218.568 281.598C235.73 281.598 249.642 279.347 249.642 276.57C249.642 273.793 235.73 271.542 218.568 271.542C201.406 271.542 187.494 273.793 187.494 276.57C187.494 279.347 201.406 281.598 218.568 281.598Z" fill="#90CAF9"/>
<path d="M203.151 184.933C228.504 159.58 228.504 118.475 203.151 93.122C177.798 67.7691 136.693 67.7691 111.34 93.122C85.9871 118.475 85.9871 159.58 111.34 184.933C136.693 210.286 177.798 210.286 203.151 184.933Z" fill="#045284"/>
<path d="M203.151 184.933C228.504 159.58 228.504 118.475 203.151 93.122C177.798 67.7691 136.693 67.7691 111.34 93.122C85.9871 118.475 85.9871 159.58 111.34 184.933C136.693 210.286 177.798 210.286 203.151 184.933Z" stroke="#263238" stroke-linecap="round" stroke-linejoin="round"/>
<path d="M124.2 100.758C123.45 100.194 119.856 101.418 119.844 100.35C119.844 99.6422 122.244 97.6502 122.718 96.7502C123.39 95.4362 123.042 93.6062 123.666 92.3702C124.186 91.3045 124.873 90.3283 125.7 89.4782C129.348 86.3942 134.916 83.0522 139.56 82.8182C141.228 82.7342 143.514 85.6022 143.892 87.8402C144.114 89.1662 143.892 93.1082 142.692 94.4882C140.928 96.5702 137.052 96.5942 134.994 98.2142C132.594 100.098 131.43 104.544 128.67 106.014C127.902 106.422 126.444 105.618 125.946 105.198C125.022 104.436 125.034 101.4 124.2 100.758Z" fill="#90CAF9" stroke="#263238" stroke-linecap="round" stroke-linejoin="round"/>
<path d="M199.441 167.575C199.01 167.472 198.56 167.499 198.145 167.653C197.071 168.253 195.505 170.61 194.953 171.762C194.317 173.076 193.555 175.926 193.615 177.162C193.651 177.852 194.047 179.221 194.617 179.293C195.049 179.347 196.189 178.495 196.591 178.014C198.667 175.53 201.151 171.667 200.965 168.589C200.941 168.121 199.909 167.689 199.441 167.575Z" fill="#90CAF9" stroke="#263238" stroke-linecap="round" stroke-linejoin="round"/>
<path d="M160.08 108.168C160.86 108.09 162.582 107.67 163.08 106.968C163.848 105.834 164.142 102.42 163.344 101.454C163.002 101.052 161.742 101.136 161.31 101.49C160.752 101.952 160.902 103.89 160.344 104.406C159.786 104.922 158.208 104.202 157.728 104.748C157.248 105.294 157.128 107.088 157.482 107.64C157.836 108.192 159.396 108.234 160.08 108.168Z" fill="#90CAF9" stroke="#263238" stroke-linecap="round" stroke-linejoin="round"/>
<path d="M198.804 89.1599C198.18 89.6421 197.761 90.3433 197.634 91.1219C197.604 91.6499 198.678 93.1739 198.546 93.6419C198.21 94.7879 195.546 95.5979 194.166 94.8779C193.752 94.6559 193.392 93.3959 192.996 93.1199C191.322 91.9559 188.136 92.7419 186.516 92.6459C185.743 92.6695 184.97 92.6233 184.206 92.5079C181.464 91.6679 178.614 88.8299 175.806 88.7159C174.42 88.6619 171.282 90.6539 170.304 92.1179C168.945 94.1941 168.195 96.6093 168.138 99.0899C168.138 100.122 169.074 102.312 169.89 102.864C170.706 103.416 172.992 103.53 173.742 102.864C174.264 102.414 173.964 100.512 174.39 99.9659C174.816 99.4199 176.55 98.3759 177.06 98.8499C178.614 100.308 178.986 104.346 178.05 106.11C177.048 108 172.878 109.95 170.718 108.942C169.92 108.57 170.58 105.588 169.902 104.874C169.224 104.16 167.184 103.674 166.524 104.274C165.72 105.036 167.088 107.988 166.434 108.918C165.702 109.95 162.804 109.626 161.814 110.406C161.082 111.006 159.846 112.674 159.756 113.622C159.678 114.432 161.454 115.812 161.016 116.502C160.416 117.498 157.32 115.656 156.558 116.556C155.544 117.756 156.276 121.644 157.416 122.616C158.268 123.348 161.052 123.294 161.97 122.616C162.63 122.112 162.228 119.904 162.894 119.418C163.77 118.782 166.086 119.952 167.094 119.694C167.898 119.49 169.11 117.804 169.914 117.948C170.994 118.14 172.554 120.318 172.758 121.44C172.914 122.274 171.024 124.056 171.642 124.632C172.404 125.334 174.96 123.852 175.338 122.898C175.818 121.698 173.106 119.166 173.538 117.954C173.722 117.684 173.97 117.464 174.26 117.314C174.55 117.164 174.873 117.089 175.2 117.096C176.766 117.468 177.72 121.896 179.298 122.34C180.414 122.658 182.358 120.378 183.498 120.648C184.83 120.966 186.978 123.396 187.392 124.728C187.68 125.658 187.32 127.884 186.666 128.466C184.422 130.464 180.24 130.932 177.168 130.74C175.704 130.644 172.728 129.45 171.654 128.406C170.91 127.68 170.754 125.112 169.92 124.626C167.748 123.366 164.292 123.57 161.904 124.356C157.704 125.748 152.556 129.756 150.186 133.656C149.334 135.072 150.186 138.864 149.34 140.256C149.07 140.694 147.858 140.94 147.624 141.396C146.904 142.782 147.096 146.364 147.87 147.708C149.568 150.396 152.089 152.462 155.058 153.6C158.004 154.608 162.06 153 165.18 153.69C166.17 153.912 168.3 155.064 168.846 156.018C169.56 157.272 168.456 160.566 169.134 161.832C169.686 162.876 172.734 162.84 173.148 163.854C174.684 167.514 171.018 172.44 171.576 176.346C171.768 177.666 173.808 179.718 173.976 180.966C174.33 183.282 173.046 186.42 173.946 188.502C174.546 189.864 178.014 190.41 179.316 189.702C182.13 188.232 185.22 184.68 186.516 181.848C187.716 179.262 186.69 175.248 187.998 172.968C189.06 171.168 192.462 170.274 193.59 168.438C195.27 165.72 193.974 160.722 195.552 157.884C196.788 155.67 200.382 154.38 201.552 152.052C202.02 151.134 201.786 148.374 201.12 147.852C199.488 146.52 195.642 147.45 194.082 145.98C193.398 145.338 194.4 142.458 193.974 141.408C193.548 140.358 191.478 139.272 191.13 138.27C190.782 137.268 190.578 134.466 191.412 133.68C191.784 133.338 193.026 133.446 193.446 133.68C195.702 134.946 197.598 137.73 198.354 140.232C198.612 141.084 197.442 143.166 197.928 143.928C198.282 144.486 199.818 144.852 200.478 144.75C203.37 144.3 208.332 142.134 208.8 139.878C209.4 137.112 201.852 133.98 202.656 130.878C202.908 129.894 206.736 129.93 207.852 130.65C208.632 131.154 208.566 133.344 209.13 134.01C210.666 135.81 213.066 137.04 215.232 138.162C216.252 138.684 218.964 138.834 219.534 139.77C220.278 140.97 218.1 144.216 218.52 145.482C219.136 147.156 220.029 148.716 221.16 150.096C223.107 138.87 222.066 127.33 218.141 116.634C214.217 105.938 207.548 96.4632 198.804 89.1599Z" fill="#4EB9F8" stroke="#263238" stroke-linecap="round" stroke-linejoin="round"/>
<path d="M123.27 180.99C120.87 178.686 118.032 175.038 117.768 172.134C117.462 168.774 124.02 167.25 124.368 163.494C124.494 162.138 121.23 158.586 121.494 157.164C121.758 155.742 125.394 154.302 125.232 152.766C124.908 149.628 121.578 146.094 118.962 144.408C117.552 143.496 113.472 144.63 112.248 143.448C111.648 142.884 112.602 141.048 112.008 140.526C111.246 139.854 108.9 140.85 107.946 140.466C106.842 140.022 105.678 137.658 104.622 137.31C101.052 136.11 95.838 139.056 92.334 137.658C92.334 138.114 92.334 138.57 92.334 139.026V139.344C92.9496 139.649 93.4612 140.129 93.804 140.724C93.8996 141.239 93.8803 141.768 93.7475 142.274C93.6147 142.78 93.3718 143.251 93.036 143.652C92.8776 143.752 92.695 143.806 92.508 143.808C92.64 145.662 92.856 147.492 93.144 149.298C94.944 150.432 97.284 151.188 98.454 152.748C99.168 153.702 97.644 155.898 98.454 156.828C100.068 158.658 103.704 158.814 105.492 160.428C109.692 164.214 110.358 171.87 115.062 176.196C115.884 176.952 117.852 177.678 118.662 178.458C119.796 179.562 120.264 181.62 121.482 182.658C123.57 184.458 127.104 187.458 129.042 187.29C129.39 187.26 128.058 184.29 126.942 183.09C126.108 182.238 124.152 181.8 123.27 180.99Z" fill="#90CAF9" stroke="#263238" stroke-linecap="round" stroke-linejoin="round"/>
<path d="M94.7339 127.356C95.2988 127.548 95.9148 127.522 96.4619 127.284C97.2839 126.642 96.5579 124.524 97.2419 123.792C100.14 120.684 105.978 120.9 108.696 117.546C109.458 116.604 108.294 114.168 109.296 113.454C112.542 111.216 117.696 115.902 120.54 113.844C122.22 112.644 123.714 108.444 122.94 106.554C122.796 106.2 120.972 107.046 120.606 106.782C119.868 106.248 121.098 102.966 120.426 102.738C118.488 102.078 115.26 103.788 113.226 104.898C112.668 105.21 111.684 106.446 111.138 106.62C109.98 106.986 107.712 106.194 108.318 105.36C109.674 103.506 113.184 103.02 115.116 101.532C116.814 100.218 119.808 97.4882 119.772 96.0902C119.718 94.1822 111.612 96.3302 109.572 97.3502C108.372 97.9502 105.792 100.44 104.568 101.034C99.2493 108.378 95.5368 116.76 93.6719 125.634C93.9959 126.336 94.2359 127.146 94.7339 127.356Z" fill="#90CAF9" stroke="#263238" stroke-linecap="round" stroke-linejoin="round"/>
<path d="M116.37 210.115L124.416 198.187" stroke="#263238" stroke-linecap="round" stroke-linejoin="round"/>
<path d="M77.6338 136.242L90.2218 136.428" stroke="#263238" stroke-linecap="round" stroke-linejoin="round"/>
<path d="M115.014 68.3701L122.778 80.8201" stroke="#263238" stroke-linecap="round" stroke-linejoin="round"/>
<path d="M240.36 137.904L224.628 138.096" stroke="#263238" stroke-linecap="round" stroke-linejoin="round"/>
<path d="M73.7637 182.364L86.9577 200.358L94.1097 210.108" stroke="#263238" stroke-linecap="round" stroke-linejoin="round"/>
<path d="M96.4257 69.252L65.6396 108.306" stroke="#263238" stroke-linecap="round" stroke-linejoin="round"/>
<path d="M200.801 218.502L125.525 221.796" stroke="#263238" stroke-linecap="round" stroke-linejoin="round"/>
<path d="M232.109 201.906L256.067 156.738" stroke="#263238" stroke-linecap="round" stroke-linejoin="round"/>
<path d="M257.934 120.3L257.136 105.66" stroke="#263238" stroke-linecap="round" stroke-linejoin="round"/>
<path d="M204.876 90.9189L212.484 85.3809" stroke="#263238" stroke-linecap="round" stroke-linejoin="round"/>
<path d="M125.399 52.5244L212.171 54.0244" stroke="#263238" stroke-linecap="round" stroke-linejoin="round"/>
<path d="M273.469 145.327C277.314 137.12 273.777 127.35 265.57 123.506C257.363 119.661 247.593 123.198 243.748 131.405C239.904 139.612 243.44 149.382 251.647 153.227C259.855 157.071 269.624 153.535 273.469 145.327Z" fill="#90CAF9"/>
<path opacity="0.2" d="M273.469 145.327C277.314 137.12 273.777 127.35 265.57 123.506C257.363 119.661 247.593 123.198 243.748 131.405C239.904 139.612 243.44 149.382 251.647 153.227C259.855 157.071 269.624 153.535 273.469 145.327Z" fill="#4EB9F8"/>
<path d="M258.678 154.878C260.164 154.878 261.644 154.676 263.076 154.278L262.158 148.92L254.43 149.376L254.13 154.236C255.609 154.661 257.139 154.877 258.678 154.878Z" fill="white"/>
<mask id="mask0_2381_7240" style="mask-type:luminance" maskUnits="userSpaceOnUse" x="254" y="148" width="10" height="7">
<path d="M258.678 154.878C260.164 154.878 261.644 154.676 263.076 154.278L262.158 148.92L254.43 149.376L254.13 154.236C255.609 154.661 257.139 154.877 258.678 154.878Z" fill="white"/>
</mask>
<g mask="url(#mask0_2381_7240)">
<path d="M252.912 149.01C254.316 151.356 256.38 152.838 258.69 152.838C261 152.838 263.064 151.356 264.474 149.01H252.912Z" fill="#263238" stroke="#263238" stroke-linecap="round" stroke-linejoin="round"/>
</g>
<path d="M258.678 154.878C260.164 154.878 261.644 154.676 263.076 154.278L262.158 148.92L254.43 149.376L254.13 154.236C255.609 154.661 257.139 154.877 258.678 154.878Z" stroke="#263238" stroke-linecap="round" stroke-linejoin="round"/>
<path d="M267.846 140.31C267.524 140.158 267.156 140.13 266.814 140.232C266.604 134.328 262.938 129.624 258.414 129.624C253.89 129.624 250.248 134.328 250.014 140.232C249.671 140.13 249.301 140.158 248.976 140.31C248.094 140.742 247.86 142.056 248.442 143.238C248.615 143.663 248.906 144.029 249.28 144.294C249.654 144.559 250.096 144.711 250.554 144.732C251.754 148.932 254.808 151.896 258.384 151.896C261.96 151.896 264.984 148.896 266.22 144.732C266.677 144.71 267.118 144.557 267.491 144.292C267.865 144.028 268.154 143.662 268.326 143.238C268.968 142.056 268.728 140.742 267.846 140.31Z" fill="white" stroke="#263238" stroke-linecap="round" stroke-linejoin="round"/>
<path d="M257.292 141.486L257.226 141.804C257.016 142.807 256.623 143.763 256.068 144.624L257.748 145.542" stroke="#263238" stroke-linecap="round" stroke-linejoin="round"/>
<path d="M255.846 147.769C256.559 148.076 257.328 148.234 258.105 148.234C258.882 148.234 259.65 148.076 260.364 147.769" stroke="#263238" stroke-linecap="round" stroke-linejoin="round"/>
<path d="M254.113 140.646C254.113 141.09 253.945 141.45 253.735 141.45C253.525 141.45 253.351 141.09 253.351 140.646C253.351 140.202 253.519 139.842 253.735 139.842C253.951 139.842 254.113 140.202 254.113 140.646Z" fill="#263238"/>
<path d="M260.508 140.646C260.508 141.09 260.334 141.45 260.124 141.45C259.914 141.45 259.74 141.09 259.74 140.646C259.74 140.202 259.914 139.842 260.124 139.842C260.334 139.842 260.508 140.202 260.508 140.646Z" fill="#263238"/>
<path d="M252.984 139.086C253.273 138.535 253.742 138.1 254.314 137.853C254.885 137.606 255.523 137.563 256.122 137.73" stroke="#263238" stroke-linecap="round" stroke-linejoin="round"/>
<path d="M262.896 139.086C262.607 138.535 262.138 138.1 261.567 137.853C260.996 137.606 260.357 137.563 259.758 137.73" stroke="#263238" stroke-linecap="round" stroke-linejoin="round"/>
<path d="M251.808 139.32H250.11" stroke="#263238" stroke-linecap="round" stroke-linejoin="round"/>
<path d="M256.884 139.32H252.162V142.362H256.884V139.32Z" stroke="#263238" stroke-linecap="round" stroke-linejoin="round"/>
<path d="M263.682 139.32H258.96V142.362H263.682V139.32Z" stroke="#263238" stroke-linecap="round" stroke-linejoin="round"/>
<path d="M256.89 140.214H258.96" stroke="#263238" stroke-linecap="round" stroke-linejoin="round"/>
<path d="M266.521 139.32H263.683" stroke="#263238" stroke-linecap="round" stroke-linejoin="round"/>
<path d="M250.656 140.215C251.256 140.269 253.014 136.327 252.336 133.705C251.658 131.083 258.216 133.075 262.308 132.601C266.4 132.127 263.724 138.391 266.034 139.879C268.344 141.367 267.834 130.765 265.614 130.447C265.614 130.447 263.958 127.297 257.568 127.561C251.178 127.825 250.332 131.869 250.332 131.869C250.332 131.869 247.2 139.879 250.656 140.215Z" fill="#263238" stroke="#263238" stroke-linecap="round" stroke-linejoin="round"/>
<path d="M105.198 69.468C115.268 69.468 123.432 61.3044 123.432 51.234C123.432 41.1636 115.268 33 105.198 33C95.1275 33 86.9639 41.1636 86.9639 51.234C86.9639 61.3044 95.1275 69.468 105.198 69.468Z" fill="#90CAF9"/>
<path opacity="0.3" d="M105.198 69.468C115.268 69.468 123.432 61.3044 123.432 51.234C123.432 41.1636 115.268 33 105.198 33C95.1275 33 86.9639 41.1636 86.9639 51.234C86.9639 61.3044 95.1275 69.468 105.198 69.468Z" fill="#4EB9F8"/>
<path d="M105 69.6C106.651 69.6004 108.294 69.3763 109.884 68.934L108.84 63L100.248 63.51L99.918 68.91C101.571 69.378 103.282 69.6103 105 69.6Z" fill="white"/>
<mask id="mask1_2381_7240" style="mask-type:luminance" maskUnits="userSpaceOnUse" x="99" y="63" width="11" height="7">
<path d="M105 69.6C106.651 69.6004 108.294 69.3763 109.884 68.934L108.84 63L100.248 63.51L99.918 68.91C101.571 69.378 103.282 69.6103 105 69.6Z" fill="white"/>
</mask>
<g mask="url(#mask1_2381_7240)">
<path d="M98.5615 63.7744C100.128 66.3784 102.42 68.0284 104.988 68.0284C107.556 68.0284 109.848 66.3784 111.408 63.7744H98.5615Z" fill="#263238" stroke="#263238" stroke-linecap="round" stroke-linejoin="round"/>
</g>
<path d="M105 69.6C106.651 69.6004 108.294 69.3763 109.884 68.934L108.84 63L100.248 63.51L99.918 68.91C101.571 69.378 103.282 69.6103 105 69.6Z" stroke="#263238" stroke-linecap="round" stroke-linejoin="round"/>
<path d="M113.502 43.5548C113.502 43.5548 121.788 60.5288 116.652 64.0268C111.192 67.7468 98.1057 67.9388 93.9657 63.4268C89.8257 58.9148 94.0017 48.3789 95.7657 46.1649C97.0536 44.6617 98.58 43.3806 100.284 42.3729L105.966 41.1729L111.762 43.2729L113.502 43.5548Z" fill="#263238" stroke="#263238" stroke-linecap="round" stroke-linejoin="round"/>
<path d="M115.47 53.4005C115.109 53.2326 114.7 53.2007 114.318 53.3105C114.09 46.7525 110.01 41.5205 105.018 41.5205C100.026 41.5205 95.946 46.7525 95.712 53.3105C95.3297 53.2007 94.9206 53.2326 94.56 53.4005C93.588 53.8805 93.318 55.3385 93.96 56.6525C94.1533 57.1229 94.4766 57.5285 94.8921 57.8218C95.3076 58.1151 95.7981 58.2839 96.306 58.3085C97.644 62.9645 101.034 66.2765 105.012 66.2765C108.99 66.2765 112.374 62.9645 113.712 58.3085C114.22 58.2839 114.71 58.1151 115.126 57.8218C115.541 57.5285 115.865 57.1229 116.058 56.6525C116.712 55.3445 116.448 53.8865 115.47 53.4005Z" fill="white" stroke="#263238" stroke-linecap="round" stroke-linejoin="round"/>
<path d="M103.74 54.7148L102.378 58.2008L104.25 59.2208" stroke="#263238" stroke-linecap="round" stroke-linejoin="round"/>
<path d="M102.378 61.6865C103.17 62.0302 104.025 62.2075 104.889 62.2075C105.753 62.2075 106.607 62.0302 107.4 61.6865" stroke="#263238" stroke-linecap="round" stroke-linejoin="round"/>
<path d="M98.3994 51.522C98.8775 51.0199 99.5148 50.6989 100.203 50.6136C100.891 50.5283 101.587 50.6839 102.173 51.054" stroke="#263238" stroke-linecap="round" stroke-linejoin="round"/>
<path d="M109.716 51.6007C109.256 51.082 108.63 50.7388 107.945 50.6294C107.26 50.52 106.559 50.6512 105.96 51.0007" stroke="#263238" stroke-linecap="round" stroke-linejoin="round"/>
<path d="M100.277 55.6867C99.5815 55.6867 98.9139 55.4107 98.4213 54.9191C97.9286 54.4276 97.651 53.7607 97.6494 53.0647V52.3027H102.143C102.344 52.3043 102.537 52.3853 102.678 52.528C102.82 52.6708 102.899 52.8637 102.899 53.0647C102.899 53.7601 102.623 54.4271 102.131 54.9188C101.64 55.4105 100.973 55.6867 100.277 55.6867Z" fill="#263238" stroke="#263238" stroke-linecap="round" stroke-linejoin="round"/>
<path d="M107.82 55.6867C107.125 55.6867 106.458 55.4105 105.966 54.9188C105.474 54.4271 105.198 53.7601 105.198 53.0647C105.198 52.8637 105.278 52.6708 105.419 52.528C105.561 52.3853 105.753 52.3043 105.954 52.3027H110.448V53.0647C110.447 53.7607 110.169 54.4276 109.676 54.9191C109.184 55.4107 108.516 55.6867 107.82 55.6867Z" fill="#263238" stroke="#263238" stroke-linecap="round" stroke-linejoin="round"/>
<path d="M102.899 53.2988H105.197" stroke="#263238" stroke-linecap="round" stroke-linejoin="round"/>
<path d="M97.6498 52.3027H95.7598" stroke="#263238" stroke-linecap="round" stroke-linejoin="round"/>
<path d="M114.252 52.3027H110.748" stroke="#263238" stroke-linecap="round" stroke-linejoin="round"/>
<path d="M102.168 44.7249C102.168 44.7249 106.458 50.2149 110.448 50.5869C114.438 50.9589 111.822 58.9869 110.448 59.2209C110.448 59.2209 114.048 59.3529 114.318 53.3169C114.318 53.3169 119.298 45.1569 110.862 41.6889C104.352 39.0129 101.082 41.5269 101.082 41.5269C101.082 41.5269 92.8023 43.5849 94.9563 52.0149C94.9563 52.0149 96.4143 56.4369 97.9863 56.9649C97.9863 56.9649 95.6583 51.9549 97.9323 49.2729C100.206 46.5909 102 46.7049 102.168 44.7249Z" fill="#263238" stroke="#263238" stroke-linecap="round" stroke-linejoin="round"/>
<path d="M134.292 38.7184H137.292C138.498 38.7184 139.655 38.2393 140.508 37.3863C141.36 36.5334 141.84 35.3766 141.84 34.1704C141.84 32.9642 141.36 31.8074 140.508 30.9545C139.655 30.1016 138.498 29.6224 137.292 29.6224H137.04C136.686 28.5399 135.999 27.5968 135.077 26.9282C134.155 26.2595 133.046 25.8994 131.907 25.8994C130.768 25.8994 129.658 26.2595 128.736 26.9282C127.814 27.5968 127.127 28.5399 126.774 29.6224H126.522C125.924 29.6224 125.333 29.7401 124.781 29.9686C124.229 30.1972 123.728 30.5322 123.306 30.9545C122.883 31.3768 122.548 31.8782 122.32 32.43C122.091 32.9818 121.974 33.5732 121.974 34.1704C121.974 34.7677 122.091 35.3591 122.32 35.9109C122.548 36.4627 122.883 36.964 123.306 37.3863C123.728 37.8087 124.229 38.1437 124.781 38.3722C125.333 38.6008 125.924 38.7184 126.522 38.7184H127.77" stroke="#263238" stroke-linecap="round" stroke-linejoin="round"/>
<path d="M105.966 244.926C116.037 244.926 124.2 236.762 124.2 226.692C124.2 216.622 116.037 208.458 105.966 208.458C95.8961 208.458 87.7324 216.622 87.7324 226.692C87.7324 236.762 95.8961 244.926 105.966 244.926Z" fill="#90CAF9"/>
<path opacity="0.2" d="M105.966 244.926C116.037 244.926 124.2 236.762 124.2 226.692C124.2 216.622 116.037 208.458 105.966 208.458C95.8961 208.458 87.7324 216.622 87.7324 226.692C87.7324 236.762 95.8961 244.926 105.966 244.926Z" fill="#4EB9F8"/>
<path d="M105.966 244.926C107.617 244.926 109.26 244.702 110.85 244.26L109.836 238.302L101.244 238.812L100.914 244.212C102.556 244.685 104.257 244.926 105.966 244.926Z" fill="white"/>
<mask id="mask2_2381_7240" style="mask-type:luminance" maskUnits="userSpaceOnUse" x="100" y="238" width="11" height="7">
<path d="M105.966 244.926C107.617 244.926 109.26 244.702 110.85 244.26L109.836 238.302L101.244 238.812L100.914 244.212C102.556 244.685 104.257 244.926 105.966 244.926Z" fill="white"/>
</mask>
<g mask="url(#mask2_2381_7240)">
<path d="M99.5576 239.105C101.118 241.709 103.416 243.359 105.978 243.359C108.54 243.359 110.844 241.709 112.404 239.105H99.5576Z" fill="#263238" stroke="#263238" stroke-linecap="round" stroke-linejoin="round"/>
</g>
<path d="M105.966 244.926C107.617 244.926 109.26 244.702 110.85 244.26L109.836 238.302L101.244 238.812L100.914 244.212C102.556 244.685 104.257 244.926 105.966 244.926Z" stroke="#263238" stroke-linecap="round" stroke-linejoin="round"/>
<path d="M116.401 229.086C116.04 228.918 115.631 228.886 115.249 228.996C115.021 222.438 110.941 217.206 105.949 217.206C100.957 217.206 96.8707 222.438 96.6427 228.996C96.2604 228.886 95.8513 228.918 95.4907 229.086C94.5187 229.566 94.2487 231.024 94.8907 232.338C95.0848 232.813 95.4114 233.222 95.8316 233.517C96.2518 233.812 96.7479 233.979 97.2607 234C98.5987 238.656 101.989 241.968 105.967 241.968C109.945 241.968 113.329 238.656 114.667 234C115.175 233.975 115.665 233.807 116.081 233.513C116.496 233.22 116.819 232.814 117.013 232.344C117.661 231 117.397 229.566 116.401 229.086Z" fill="white" stroke="#263238" stroke-linecap="round" stroke-linejoin="round"/>
<path d="M105.769 230.394L107.131 233.88L105.259 234.9" stroke="#263238" stroke-linecap="round" stroke-linejoin="round"/>
<path d="M103.326 237.366C104.119 237.71 104.973 237.887 105.837 237.887C106.701 237.887 107.556 237.71 108.348 237.366" stroke="#263238" stroke-linecap="round" stroke-linejoin="round"/>
<path d="M102.859 229.584C102.859 230.076 102.667 230.478 102.433 230.478C102.199 230.478 102.007 230.076 102.007 229.584C102.007 229.092 102.199 228.69 102.433 228.69C102.667 228.69 102.859 229.092 102.859 229.584Z" fill="#263238"/>
<path d="M109.92 229.584C109.92 230.076 109.728 230.478 109.494 230.478C109.26 230.478 109.068 230.076 109.068 229.584C109.068 229.092 109.26 228.69 109.494 228.69C109.728 228.69 109.92 229.092 109.92 229.584Z" fill="#263238"/>
<path d="M100.2 227.724C100.518 227.11 101.039 226.624 101.675 226.35C102.31 226.075 103.021 226.029 103.686 226.218" stroke="#263238" stroke-linecap="round" stroke-linejoin="round"/>
<path d="M111.216 227.724C110.898 227.11 110.377 226.624 109.742 226.35C109.107 226.075 108.396 226.029 107.73 226.218" stroke="#263238" stroke-linecap="round" stroke-linejoin="round"/>
<path d="M95.7544 227.724C95.7544 227.724 97.2004 230.646 97.9684 230.394C98.7364 230.142 97.6264 224.73 99.4984 223.35C101.37 221.97 107.838 223.758 110.514 221.46C110.514 221.46 110.472 224.628 112.26 226.11C114.048 227.592 113.364 230.562 114.216 230.394C115.068 230.226 115.32 228.066 115.488 227.154C116.004 224.418 116.766 216.696 112.176 216.696C112.176 216.696 111.066 215.082 104.376 215.25C97.6864 215.418 97.5304 213.552 97.5304 213.552C97.5304 213.552 92.4364 220.632 95.7544 227.724Z" fill="#263238" stroke="#263238" stroke-linecap="round" stroke-linejoin="round"/>
<path d="M227.009 98.1416L259.409 102.168C267.041 103.116 273.899 97.6016 274.355 90.1676L277.121 44.6636C277.571 37.2296 271.445 30.9776 263.759 31.0316L227.903 31.3076C220.523 31.3676 214.607 37.2416 214.703 44.3936L215.399 85.5836C215.494 88.7253 216.721 91.7269 218.855 94.0348C220.988 96.3428 223.885 97.8013 227.009 98.1416Z" fill="#90CAF9"/>
<path opacity="0.3" d="M227.009 98.1416L259.409 102.168C267.041 103.116 273.899 97.6016 274.355 90.1676L277.121 44.6636C277.571 37.2296 271.445 30.9776 263.759 31.0316L227.903 31.3076C220.523 31.3676 214.607 37.2416 214.703 44.3936L215.399 85.5836C215.494 88.7253 216.721 91.7269 218.855 94.0348C220.988 96.3428 223.885 97.8013 227.009 98.1416Z" fill="#4EB9F8"/>
<path d="M272.064 81.2519V83.5859H238.554V81.2519C238.554 80.104 239.009 79.0031 239.82 78.1909C240.632 77.3786 241.732 76.9215 242.88 76.9199H267.732C268.881 76.9199 269.982 77.3763 270.795 78.1887C271.607 79.0011 272.064 80.103 272.064 81.2519Z" stroke="#263238" stroke-miterlimit="10"/>
<path d="M272.892 95.2979V83.5859H237.714V99.4739" stroke="#263238" stroke-miterlimit="10"/>
<path d="M231.81 55.8412C231.81 55.8412 233.19 52.1572 236.658 52.7452C240.126 53.3332 237.474 56.2312 235.806 56.4892C235.8 56.4892 235.554 55.4752 231.81 55.8412Z" fill="white" stroke="#263238" stroke-linecap="round" stroke-linejoin="round"/>
<path d="M229.512 57.9298C229.056 58.3858 227.958 58.4218 228.696 57.4318C229.302 56.6375 230.122 56.032 231.06 55.6858C232.704 54.9538 233.346 55.0858 234.834 54.7738C236.322 54.4618 236.598 55.0558 237.114 55.3378C238.344 56.0098 238.638 56.1238 238.944 56.8018C239.25 57.4798 239.592 58.3558 238.638 58.3558C237.684 58.3558 237.708 56.9158 236.838 56.9698C235.968 57.0238 235.572 58.3558 234.978 58.3558H234.756C234.246 58.3558 234.222 57.9358 234.528 57.2698C234.834 56.6038 235.176 56.0098 235.176 56.0098C234.676 56.2758 234.276 56.6969 234.036 57.2098C233.628 58.0738 233.556 58.4098 232.836 58.4098C232.116 58.4098 232.14 57.8578 232.884 56.6098C232.451 56.8648 232.093 57.229 231.846 57.6658C231.486 58.3558 231.294 58.3078 230.814 58.3078C230.214 58.3078 230.214 57.2758 231.342 56.5978C231.342 56.6458 231.096 56.3458 229.512 57.9298Z" fill="white" stroke="#263238" stroke-linecap="round" stroke-linejoin="round"/>
<path d="M233.855 55.458C233.855 55.458 233.417 55.458 233.147 56.172L233.855 55.458Z" fill="white"/>
<path d="M233.855 55.458C233.855 55.458 233.417 55.458 233.147 56.172" stroke="#263238" stroke-linecap="round" stroke-linejoin="round"/>
<path d="M242.615 103.379L245.015 107.573H247.067L247.967 106.301L245.747 100.901L242.615 103.379Z" fill="white" stroke="#263238" stroke-linecap="round" stroke-linejoin="round"/>
<path d="M248.304 67.0681L245.826 67.9981C245.826 67.9981 228.174 73.1101 227.4 77.4421C226.626 81.7741 242.952 104.4 242.952 104.4C242.952 104.4 244.92 104.688 246.45 102.078C246.45 102.078 240.69 84.7321 238.05 81.3301C238.05 81.3301 257.418 77.9221 258.348 75.4441C259.278 72.9661 256.698 66.8281 256.698 66.8281L248.304 67.0681Z" fill="#263238" stroke="#263238" stroke-linecap="round" stroke-linejoin="round"/>
<path d="M243.708 107.489C243.75 107.414 243.81 107.35 243.884 107.304C243.957 107.258 244.041 107.231 244.128 107.225C244.868 107.179 245.588 106.961 246.23 106.59C246.873 106.218 247.42 105.702 247.83 105.083C247.903 104.979 248.012 104.905 248.136 104.877C248.26 104.848 248.39 104.866 248.502 104.927C249.416 105.465 250.184 106.219 250.74 107.123C250.939 107.441 251.009 107.823 250.934 108.191C250.859 108.559 250.646 108.883 250.338 109.097L242.682 114.245C242.274 114.52 241.793 114.666 241.302 114.665H239.4C239.293 114.666 239.188 114.64 239.093 114.592C238.998 114.543 238.916 114.472 238.854 114.385C238.793 114.298 238.753 114.197 238.738 114.091C238.723 113.986 238.734 113.878 238.77 113.777C238.846 113.546 238.979 113.337 239.157 113.17C239.336 113.003 239.553 112.884 239.79 112.823C241.05 112.517 243.456 107.999 243.708 107.489Z" fill="#263238"/>
<mask id="mask3_2381_7240" style="mask-type:luminance" maskUnits="userSpaceOnUse" x="238" y="104" width="13" height="11">
<path d="M243.708 107.489C243.75 107.414 243.81 107.35 243.884 107.304C243.957 107.258 244.041 107.231 244.128 107.225C244.868 107.179 245.588 106.961 246.23 106.59C246.873 106.218 247.42 105.702 247.83 105.083C247.903 104.979 248.012 104.905 248.136 104.877C248.26 104.848 248.39 104.866 248.502 104.927C249.416 105.465 250.184 106.219 250.74 107.123C250.939 107.441 251.009 107.823 250.934 108.191C250.859 108.559 250.646 108.883 250.338 109.097L242.682 114.245C242.274 114.52 241.793 114.666 241.302 114.665H239.4C239.293 114.666 239.188 114.64 239.093 114.592C238.998 114.543 238.916 114.472 238.854 114.385C238.793 114.298 238.753 114.197 238.738 114.091C238.723 113.986 238.734 113.878 238.77 113.777C238.846 113.546 238.979 113.337 239.157 113.17C239.336 113.003 239.553 112.884 239.79 112.823C241.05 112.517 243.456 107.999 243.708 107.489Z" fill="white"/>
</mask>
<g mask="url(#mask3_2381_7240)">
<path d="M243.708 107.489C243.75 107.414 243.81 107.35 243.884 107.304C243.957 107.258 244.041 107.231 244.128 107.225C244.868 107.179 245.588 106.961 246.23 106.59C246.873 106.218 247.42 105.702 247.83 105.083C247.903 104.979 248.012 104.905 248.136 104.877C248.26 104.848 248.39 104.866 248.502 104.927C249.416 105.465 250.184 106.219 250.74 107.123C250.939 107.441 251.009 107.823 250.934 108.191C250.859 108.559 250.646 108.883 250.338 109.097L242.682 114.245C242.274 114.52 241.793 114.666 241.302 114.665H239.4C239.293 114.666 239.188 114.64 239.093 114.592C238.998 114.543 238.916 114.472 238.854 114.385C238.793 114.298 238.753 114.197 238.738 114.091C238.723 113.986 238.734 113.878 238.77 113.777C238.846 113.546 238.979 113.337 239.157 113.17C239.336 113.003 239.553 112.884 239.79 112.823C241.05 112.517 243.456 107.999 243.708 107.489Z" fill="#BFBFBF" stroke="#263238" stroke-linecap="round" stroke-linejoin="round"/>
</g>
<path d="M243.708 107.489C243.75 107.414 243.81 107.35 243.884 107.304C243.957 107.258 244.041 107.231 244.128 107.225C244.868 107.179 245.588 106.961 246.23 106.59C246.873 106.218 247.42 105.702 247.83 105.083C247.903 104.979 248.012 104.905 248.136 104.877C248.26 104.848 248.39 104.866 248.502 104.927C249.416 105.465 250.184 106.219 250.74 107.123C250.939 107.441 251.009 107.823 250.934 108.191C250.859 108.559 250.646 108.883 250.338 109.097L242.682 114.245C242.274 114.52 241.793 114.666 241.302 114.665H239.4C239.293 114.666 239.188 114.64 239.093 114.592C238.998 114.543 238.916 114.472 238.854 114.385C238.793 114.298 238.753 114.197 238.738 114.091C238.723 113.986 238.734 113.878 238.77 113.777C238.846 113.546 238.979 113.337 239.157 113.17C239.336 113.003 239.553 112.884 239.79 112.823C241.05 112.517 243.456 107.999 243.708 107.489Z" stroke="#263238" stroke-linecap="round" stroke-linejoin="round"/>
<path d="M234.294 79.1992C234.294 79.1992 235.392 79.2772 237.24 80.6692" stroke="#7F7F7F" stroke-linecap="round" stroke-linejoin="round"/>
<path d="M241.572 104.399L240.756 110.501L244.386 111.125L246.252 105.125L241.572 104.399Z" fill="white" stroke="#263238" stroke-linecap="round" stroke-linejoin="round"/>
<path d="M254.112 68.6995C254.334 69.5395 253.95 72.2995 253.176 72.6895C250.176 74.2795 245.22 78.5035 244.122 83.0215C242.73 88.7455 241.182 106.248 241.182 106.248C241.182 106.248 242.424 108.258 245.676 107.328C245.676 107.328 251.712 92.7715 252.174 85.6495C255.299 83.577 258.621 81.8185 262.092 80.3995C265.02 79.2955 266.616 77.4595 267.198 75.8875C268.746 71.6875 265.65 64.8955 265.65 64.8955L254.19 67.1995L254.112 68.6995Z" fill="#263238" stroke="#263238" stroke-linecap="round" stroke-linejoin="round"/>
<path d="M249.359 83.7959C250.157 83.8844 250.903 84.2371 251.477 84.7979" stroke="#7F7F7F" stroke-linecap="round" stroke-linejoin="round"/>
<path d="M240.599 108.995C240.534 108.938 240.454 108.899 240.369 108.882C240.284 108.866 240.196 108.871 240.113 108.899C239.075 109.253 235.253 110.483 233.045 110.381C231.437 110.303 230.933 111.215 230.783 111.911C230.764 112.007 230.764 112.106 230.783 112.202C230.803 112.298 230.842 112.389 230.899 112.47C230.955 112.55 231.027 112.618 231.11 112.669C231.193 112.721 231.286 112.755 231.383 112.769L243.797 114.647C244.167 114.706 244.545 114.619 244.853 114.406C245.16 114.192 245.373 113.868 245.447 113.501C245.674 112.461 245.641 111.381 245.351 110.357C245.313 110.235 245.229 110.133 245.118 110.069C245.007 110.006 244.876 109.987 244.751 110.015C244.028 110.178 243.276 110.17 242.556 109.993C241.835 109.816 241.166 109.474 240.599 108.995Z" fill="#263238"/>
<mask id="mask4_2381_7240" style="mask-type:luminance" maskUnits="userSpaceOnUse" x="230" y="108" width="16" height="7">
<path d="M240.599 108.995C240.534 108.938 240.454 108.899 240.369 108.882C240.284 108.866 240.196 108.871 240.113 108.899C239.075 109.253 235.253 110.483 233.045 110.381C231.437 110.303 230.933 111.215 230.783 111.911C230.764 112.007 230.764 112.106 230.783 112.202C230.803 112.298 230.842 112.389 230.899 112.47C230.955 112.55 231.027 112.618 231.11 112.669C231.193 112.721 231.286 112.755 231.383 112.769L243.797 114.647C244.167 114.706 244.545 114.619 244.853 114.406C245.16 114.192 245.373 113.868 245.447 113.501C245.674 112.461 245.641 111.381 245.351 110.357C245.313 110.235 245.229 110.133 245.118 110.069C245.007 110.006 244.876 109.987 244.751 110.015C244.028 110.178 243.276 110.17 242.556 109.993C241.835 109.816 241.166 109.474 240.599 108.995Z" fill="white"/>
</mask>
<g mask="url(#mask4_2381_7240)">
<path d="M240.599 108.995C240.534 108.938 240.454 108.899 240.369 108.882C240.284 108.866 240.196 108.871 240.113 108.899C239.075 109.253 235.253 110.483 233.045 110.381C231.437 110.303 230.933 111.215 230.783 111.911C230.764 112.007 230.764 112.106 230.783 112.202C230.803 112.298 230.842 112.389 230.899 112.47C230.955 112.55 231.027 112.618 231.11 112.669C231.193 112.721 231.286 112.755 231.383 112.769L243.797 114.647C244.167 114.706 244.545 114.619 244.853 114.406C245.16 114.192 245.373 113.868 245.447 113.501C245.674 112.461 245.641 111.381 245.351 110.357C245.313 110.235 245.229 110.133 245.118 110.069C245.007 110.006 244.876 109.987 244.751 110.015C244.028 110.178 243.276 110.17 242.556 109.993C241.835 109.816 241.166 109.474 240.599 108.995Z" fill="#BFBFBF" stroke="#263238" stroke-linecap="round" stroke-linejoin="round"/>
</g>
<path d="M240.599 108.995C240.534 108.938 240.454 108.899 240.369 108.882C240.284 108.866 240.196 108.871 240.113 108.899C239.075 109.253 235.253 110.483 233.045 110.381C231.437 110.303 230.933 111.215 230.783 111.911C230.764 112.007 230.764 112.106 230.783 112.202C230.803 112.298 230.842 112.389 230.899 112.47C230.955 112.55 231.027 112.618 231.11 112.669C231.193 112.721 231.286 112.755 231.383 112.769L243.797 114.647C244.167 114.706 244.545 114.619 244.853 114.406C245.16 114.192 245.373 113.868 245.447 113.501C245.674 112.461 245.641 111.381 245.351 110.357C245.313 110.235 245.229 110.133 245.118 110.069C245.007 110.006 244.876 109.987 244.751 110.015C244.028 110.178 243.276 110.17 242.556 109.993C241.835 109.816 241.166 109.474 240.599 108.995Z" stroke="#263238" stroke-linecap="round" stroke-linejoin="round"/>
<path d="M246.456 78.7319C248.568 75.6536 251.755 73.4768 255.39 72.6299" stroke="#7F7F7F" stroke-linecap="round" stroke-linejoin="round"/>
<path d="M267.353 67.3793C257.903 70.0133 245.825 67.9793 245.825 67.9793C246.031 66.2257 245.984 64.4518 245.687 62.7113H256.799C257.196 62.7128 257.589 62.6357 257.956 62.4843C258.322 62.3329 258.655 62.1103 258.935 61.8293C259.49 61.2666 259.801 60.5077 259.799 59.7173H245.129C244.733 57.9173 244.193 55.8653 243.503 53.5973C242.897 51.4665 242.495 49.2826 242.303 47.0753L238.523 53.9033C238.523 53.9033 238.043 55.5653 235.625 55.6133C233.207 55.6613 233.483 54.7853 235.577 47.9633C236.893 44.0159 238.962 40.3606 241.667 37.1993C241.779 37.0674 241.931 36.9749 242.099 36.9353C242.099 36.8813 242.099 36.8513 242.099 36.8513C257.591 32.8493 264.257 37.7993 264.257 37.7993C259.919 50.3993 267.353 67.3793 267.353 67.3793Z" fill="#4EB9F8" stroke="#263238" stroke-linecap="round" stroke-linejoin="round"/>
<path d="M245.711 56.7119C245.711 56.7119 243.659 57.9539 244.253 58.2419C245.249 58.7279 247.415 57.1979 247.415 57.1979C247.415 57.1979 249.773 57.0419 248.573 56.5019L247.373 55.9619L245.711 56.7119Z" fill="white"/>
<mask id="mask5_2381_7240" style="mask-type:luminance" maskUnits="userSpaceOnUse" x="244" y="55" width="5" height="4">
<path d="M245.711 56.7119C245.711 56.7119 243.659 57.9539 244.253 58.2419C245.249 58.7279 247.415 57.1979 247.415 57.1979C247.415 57.1979 249.773 57.0419 248.573 56.5019L247.373 55.9619L245.711 56.7119Z" fill="white"/>
</mask>
<g mask="url(#mask5_2381_7240)">
<path opacity="0.2" d="M245.711 56.7119C245.711 56.7119 243.659 57.9539 244.253 58.2419C245.249 58.7279 247.415 57.1979 247.415 57.1979C247.415 57.1979 249.773 57.0419 248.573 56.5019L247.373 55.9619L245.711 56.7119Z" fill="black"/>
</g>
<path d="M245.711 56.7119C245.711 56.7119 243.659 57.9539 244.253 58.2419C245.249 58.7279 247.415 57.1979 247.415 57.1979C247.415 57.1979 249.773 57.0419 248.573 56.5019L247.373 55.9619L245.711 56.7119Z" stroke="#263238" stroke-linecap="round" stroke-linejoin="round"/>
<path d="M248.399 38.1115C248.399 38.1115 249.599 43.5715 251.099 43.5715C252.599 43.5715 255.725 35.3575 255.725 35.3575L253.649 33.9355L248.399 38.1115Z" fill="white"/>
<mask id="mask6_2381_7240" style="mask-type:luminance" maskUnits="userSpaceOnUse" x="248" y="33" width="8" height="11">
<path d="M248.399 38.1115C248.399 38.1115 249.599 43.5715 251.099 43.5715C252.599 43.5715 255.725 35.3575 255.725 35.3575L253.649 33.9355L248.399 38.1115Z" fill="white"/>
</mask>
<g mask="url(#mask6_2381_7240)">
<path d="M245.058 33.4496C245.196 34.1321 245.418 34.795 245.718 35.4236C246.744 37.3796 248.196 40.5536 250.122 40.0556C251.826 39.6176 254.352 37.0556 254.628 35.5196C254.78 34.651 254.872 33.7729 254.904 32.8916L245.058 33.4496Z" fill="#263238" stroke="#263238" stroke-linecap="round" stroke-linejoin="round"/>
</g>
<path d="M248.399 38.1115C248.399 38.1115 249.599 43.5715 251.099 43.5715C252.599 43.5715 255.725 35.3575 255.725 35.3575L253.649 33.9355L248.399 38.1115Z" stroke="#263238" stroke-linecap="round" stroke-linejoin="round"/>
<path d="M245.555 22.0856C245.555 22.0856 241.259 23.2856 242.021 29.9816C242.813 36.9656 243.821 34.2536 243.377 35.6876C242.933 37.1216 249.725 37.2416 249.725 37.2416C249.725 37.2416 255.659 36.5096 257.459 37.8056C259.259 39.1016 260.303 36.0056 259.607 33.9356C258.911 31.8656 256.415 28.0016 255.701 24.8756C254.675 20.3996 248.225 20.5196 245.555 22.0856Z" fill="#263238" stroke="#263238" stroke-linecap="round" stroke-linejoin="round"/>
<path d="M244.254 27.7372C244.254 27.7372 244.254 32.6932 245.25 34.7092C246.246 36.7252 247.56 39.9712 249.6 39.5992C251.4 39.2572 254.25 36.8632 254.634 35.3332C254.864 34.4214 255.018 33.4923 255.096 32.5552C255.318 32.4592 256.014 32.9932 256.332 31.2412C256.452 30.6052 257.058 28.7272 255.678 28.4512C254.184 28.1632 254.196 30.3112 254.196 30.3112L252 24.7192L246.924 23.8672L245.226 24.6412L244.254 27.7372Z" fill="white" stroke="#263238" stroke-linecap="round" stroke-linejoin="round"/>
<path d="M247.457 32.5615C247.379 33.2018 247.239 33.8328 247.037 34.4455C247.009 34.5473 247.021 34.6561 247.072 34.749C247.122 34.8419 247.207 34.9116 247.307 34.9435L248.345 35.2495" stroke="#263238" stroke-linecap="round" stroke-linejoin="round"/>
<path d="M249.155 36.294C249.155 36.294 251.075 36.24 251.855 35.166" stroke="#263238" stroke-linecap="round" stroke-linejoin="round"/>
<path d="M245.166 31.0198C245.211 30.9218 245.274 30.8337 245.353 30.7604C245.432 30.6871 245.524 30.6301 245.625 30.5927C245.726 30.5554 245.834 30.5383 245.941 30.5426C246.049 30.5469 246.154 30.5725 246.252 30.6178" stroke="#263238" stroke-linecap="round" stroke-linejoin="round"/>
<path d="M248.52 30.2696C248.52 30.2696 249.474 29.5856 250.752 30.5396" stroke="#263238" stroke-linecap="round" stroke-linejoin="round"/>
<path d="M246.21 32.5313C246.246 32.7953 246.174 33.0353 246.036 33.0533C245.898 33.0713 245.76 32.8673 245.718 32.5973C245.676 32.3273 245.76 32.0933 245.892 32.0753C246.024 32.0573 246.168 32.2613 246.21 32.5313Z" fill="#263238"/>
<path d="M249.653 32.3272C249.695 32.5972 249.617 32.8312 249.485 32.8492C249.353 32.8672 249.203 32.6632 249.167 32.3992C249.131 32.1352 249.203 31.8892 249.341 31.8712C249.479 31.8532 249.599 32.0572 249.653 32.3272Z" fill="#263238"/>
<path d="M243.929 24.7192C243.929 24.7192 242.267 29.0932 244.703 28.9792C247.139 28.8652 249.209 27.2992 251.633 28.5892C254.057 29.8792 251.249 26.1892 251.249 26.1892C251.249 26.1892 253.727 28.8232 253.649 30.6412C253.571 32.4592 254.537 29.5192 254.381 28.5532C254.225 27.5872 252.599 22.7992 252.599 22.7992L249.971 22.1992L245.471 22.6612L243.929 24.7192Z" fill="#263238" stroke="#263238" stroke-linecap="round" stroke-linejoin="round"/>
<path d="M254.82 34.6139C254.658 35.3159 252.12 37.8239 253.8 38.3459C255.48 38.8679 259.14 38.3459 259.692 36.4799C260.244 34.6139 258.492 33.6299 258.492 33.6299C258.492 33.6299 255.03 33.6779 254.82 34.6139Z" fill="#263238" stroke="#263238" stroke-linecap="round" stroke-linejoin="round"/>
<path d="M255.198 55.0258L249.624 55.3018C249.624 55.3018 244.938 54.1558 243.348 54.2518C242.111 54.3982 240.908 54.7532 239.79 55.3018C239.285 55.6767 238.896 56.1862 238.668 56.7718C238.621 57.06 238.621 57.3537 238.668 57.6418C238.667 57.7939 238.725 57.9405 238.828 58.0519C238.932 58.1633 239.074 58.2312 239.226 58.2418C240.294 58.3198 242.064 58.4158 242.484 57.8878C242.484 57.8878 242.136 58.3018 242.766 58.3018C243.396 58.3018 244.254 57.3058 244.254 57.3058L246.138 57.2278C246.138 57.2278 246.948 58.2358 249.39 58.3018C249.786 58.2442 250.174 58.1416 250.548 57.9958L255.078 58.5958L255.678 57.8218V55.1998L255.198 55.0258Z" fill="white" stroke="#263238" stroke-linecap="round" stroke-linejoin="round"/>
<path d="M239.52 57.816C239.52 57.816 240.042 55.944 240.642 55.572C241.17 55.3094 241.713 55.077 242.268 54.876" stroke="#263238" stroke-linecap="round" stroke-linejoin="round"/>
<path d="M240.815 57.8157C240.877 57.3745 241.007 56.9455 241.199 56.5437C241.692 55.9927 242.309 55.5669 242.999 55.3017C243.42 55.2614 243.844 55.2614 244.265 55.3017" stroke="#263238" stroke-linecap="round" stroke-linejoin="round"/>
<path d="M242.609 57.4672C242.609 57.4672 242.777 56.6692 242.987 56.5012C243.377 56.27 243.806 56.1133 244.253 56.0392C244.585 56.0143 244.918 56.0143 245.249 56.0392" stroke="#263238" stroke-linecap="round" stroke-linejoin="round"/>
<path d="M254.22 58.6679C254.22 58.6679 264.954 60.0659 267.276 60.1799C269.598 60.2939 269.016 48.9119 268.782 44.0339C268.548 39.1559 263.784 37.5059 263.784 37.5059C260.412 44.5139 264.252 53.6759 264.252 53.6759L254.73 54.8399C254.73 54.8399 255.456 57.2759 254.22 58.6679Z" fill="#4EB9F8" stroke="#263238" stroke-linecap="round" stroke-linejoin="round"/>
<path d="M259.716 42.0596C259.846 44.4537 260.735 46.7443 262.254 48.5996" stroke="#263238" stroke-linecap="round" stroke-linejoin="round"/>
<path d="M243.246 40.9072C242.794 43.1298 242.551 45.3896 242.52 47.6572" stroke="#263238" stroke-linecap="round" stroke-linejoin="round"/>
<path d="M236.19 44.1533H233.79L237.096 59.7173H239.496C239.655 59.7234 239.814 59.6918 239.958 59.6249C240.103 59.558 240.229 59.4578 240.328 59.3325C240.426 59.2072 240.493 59.0604 240.524 58.9041C240.555 58.7478 240.548 58.5865 240.504 58.4333L237.738 45.4313C237.654 45.0791 237.457 44.7639 237.178 44.5334C236.899 44.3028 236.552 44.1694 236.19 44.1533Z" fill="#263238"/>
<mask id="mask7_2381_7240" style="mask-type:luminance" maskUnits="userSpaceOnUse" x="233" y="44" width="8" height="16">
<path d="M236.19 44.1533H233.79L237.096 59.7173H239.496C239.655 59.7234 239.814 59.6918 239.958 59.6249C240.103 59.558 240.229 59.4578 240.328 59.3325C240.426 59.2072 240.493 59.0604 240.524 58.9041C240.555 58.7478 240.548 58.5865 240.504 58.4333L237.738 45.4313C237.654 45.0791 237.457 44.7639 237.178 44.5334C236.899 44.3028 236.552 44.1694 236.19 44.1533Z" fill="white"/>
</mask>
<g mask="url(#mask7_2381_7240)">
<path opacity="0.2" d="M236.19 44.1533H233.79L237.096 59.7173H239.496C239.655 59.7234 239.814 59.6918 239.958 59.6249C240.103 59.558 240.229 59.4578 240.328 59.3325C240.426 59.2072 240.493 59.0604 240.524 58.9041C240.555 58.7478 240.548 58.5865 240.504 58.4333L237.738 45.4313C237.654 45.0791 237.457 44.7639 237.178 44.5334C236.899 44.3028 236.552 44.1694 236.19 44.1533Z" fill="white"/>
</g>
<path d="M236.19 44.1533H233.79L237.096 59.7173H239.496C239.655 59.7234 239.814 59.6918 239.958 59.6249C240.103 59.558 240.229 59.4578 240.328 59.3325C240.426 59.2072 240.493 59.0604 240.524 58.9041C240.555 58.7478 240.548 58.5865 240.504 58.4333L237.738 45.4313C237.654 45.0791 237.457 44.7639 237.178 44.5334C236.899 44.3028 236.552 44.1694 236.19 44.1533Z" stroke="#263238" stroke-linecap="round" stroke-linejoin="round"/>
<path d="M240.51 58.4336H253.11V59.0336C253.11 59.1266 253.092 59.2186 253.056 59.3045C253.021 59.3904 252.969 59.4685 252.903 59.5342C252.837 59.6 252.759 59.6521 252.673 59.6877C252.587 59.7233 252.495 59.7416 252.402 59.7416H241.2C241.107 59.7416 241.015 59.7233 240.929 59.6877C240.843 59.6521 240.765 59.6 240.7 59.5342C240.634 59.4685 240.582 59.3904 240.546 59.3045C240.51 59.2186 240.492 59.1266 240.492 59.0336V58.4336H240.51Z" fill="#263238"/>
<mask id="mask8_2381_7240" style="mask-type:luminance" maskUnits="userSpaceOnUse" x="240" y="58" width="14" height="2">
<path d="M240.51 58.4336H253.11V59.0336C253.11 59.1266 253.092 59.2186 253.056 59.3045C253.021 59.3904 252.969 59.4685 252.903 59.5342C252.837 59.6 252.759 59.6521 252.673 59.6877C252.587 59.7233 252.495 59.7416 252.402 59.7416H241.2C241.107 59.7416 241.015 59.7233 240.929 59.6877C240.843 59.6521 240.765 59.6 240.7 59.5342C240.634 59.4685 240.582 59.3904 240.546 59.3045C240.51 59.2186 240.492 59.1266 240.492 59.0336V58.4336H240.51Z" fill="white"/>
</mask>
<g mask="url(#mask8_2381_7240)">
<path opacity="0.2" d="M240.51 58.4336H253.11V59.0336C253.11 59.1266 253.092 59.2186 253.056 59.3045C253.021 59.3904 252.969 59.4685 252.903 59.5342C252.837 59.6 252.759 59.6521 252.673 59.6877C252.587 59.7233 252.495 59.7416 252.402 59.7416H241.2C241.107 59.7416 241.015 59.7233 240.929 59.6877C240.843 59.6521 240.765 59.6 240.7 59.5342C240.634 59.4685 240.582 59.3904 240.546 59.3045C240.51 59.2186 240.492 59.1266 240.492 59.0336V58.4336H240.51Z" fill="white"/>
</g>
<path d="M240.51 58.4336H253.11V59.0336C253.11 59.1266 253.092 59.2186 253.056 59.3045C253.021 59.3904 252.969 59.4685 252.903 59.5342C252.837 59.6 252.759 59.6521 252.673 59.6877C252.587 59.7233 252.495 59.7416 252.402 59.7416H241.2C241.107 59.7416 241.015 59.7233 240.929 59.6877C240.843 59.6521 240.765 59.6 240.7 59.5342C240.634 59.4685 240.582 59.3904 240.546 59.3045C240.51 59.2186 240.492 59.1266 240.492 59.0336V58.4336H240.51Z" stroke="#263238" stroke-linecap="round" stroke-linejoin="round"/>
<path d="M238.572 59.7174H219.06C218.697 59.7012 218.349 59.5672 218.068 59.3355C217.788 59.1038 217.59 58.7871 217.506 58.4334L214.746 45.4314C214.702 45.2785 214.695 45.1174 214.726 44.9613C214.756 44.8052 214.824 44.6587 214.922 44.5338C215.021 44.4089 215.148 44.3093 215.292 44.2431C215.437 44.177 215.595 44.1462 215.754 44.1534H235.266C235.628 44.1685 235.975 44.3015 236.255 44.5323C236.534 44.763 236.731 45.0787 236.814 45.4314L239.58 58.4334C239.624 58.5865 239.631 58.7479 239.6 58.9042C239.569 59.0604 239.502 59.2073 239.404 59.3325C239.305 59.4578 239.179 59.558 239.034 59.6249C238.89 59.6918 238.731 59.7235 238.572 59.7174Z" fill="#263238"/>
<mask id="mask9_2381_7240" style="mask-type:luminance" maskUnits="userSpaceOnUse" x="214" y="44" width="26" height="16">
<path d="M238.572 59.7174H219.06C218.697 59.7012 218.349 59.5672 218.068 59.3355C217.788 59.1038 217.59 58.7871 217.506 58.4334L214.746 45.4314C214.702 45.2785 214.695 45.1174 214.726 44.9613C214.756 44.8052 214.824 44.6587 214.922 44.5338C215.021 44.4089 215.148 44.3093 215.292 44.2431C215.437 44.177 215.595 44.1462 215.754 44.1534H235.266C235.628 44.1685 235.975 44.3015 236.255 44.5323C236.534 44.763 236.731 45.0787 236.814 45.4314L239.58 58.4334C239.624 58.5865 239.631 58.7479 239.6 58.9042C239.569 59.0604 239.502 59.2073 239.404 59.3325C239.305 59.4578 239.179 59.558 239.034 59.6249C238.89 59.6918 238.731 59.7235 238.572 59.7174Z" fill="white"/>
</mask>
<g mask="url(#mask9_2381_7240)">
<path d="M238.572 59.7174H219.06C218.697 59.7012 218.349 59.5672 218.068 59.3355C217.788 59.1038 217.59 58.7871 217.506 58.4334L214.746 45.4314C214.702 45.2785 214.695 45.1174 214.726 44.9613C214.756 44.8052 214.824 44.6587 214.922 44.5338C215.021 44.4089 215.148 44.3093 215.292 44.2431C215.437 44.177 215.595 44.1462 215.754 44.1534H235.266C235.628 44.1685 235.975 44.3015 236.255 44.5323C236.534 44.763 236.731 45.0787 236.814 45.4314L239.58 58.4334C239.624 58.5865 239.631 58.7479 239.6 58.9042C239.569 59.0604 239.502 59.2073 239.404 59.3325C239.305 59.4578 239.179 59.558 239.034 59.6249C238.89 59.6918 238.731 59.7235 238.572 59.7174Z" fill="#BFBFBF" stroke="#263238" stroke-linecap="round" stroke-linejoin="round"/>
</g>
<path d="M238.572 59.7174H219.06C218.697 59.7012 218.349 59.5672 218.068 59.3355C217.788 59.1038 217.59 58.7871 217.506 58.4334L214.746 45.4314C214.702 45.2785 214.695 45.1174 214.726 44.9613C214.756 44.8052 214.824 44.6587 214.922 44.5338C215.021 44.4089 215.148 44.3093 215.292 44.2431C215.437 44.177 215.595 44.1462 215.754 44.1534H235.266C235.628 44.1685 235.975 44.3015 236.255 44.5323C236.534 44.763 236.731 45.0787 236.814 45.4314L239.58 58.4334C239.624 58.5865 239.631 58.7479 239.6 58.9042C239.569 59.0604 239.502 59.2073 239.404 59.3325C239.305 59.4578 239.179 59.558 239.034 59.6249C238.89 59.6918 238.731 59.7235 238.572 59.7174Z" stroke="#263238" stroke-linecap="round" stroke-linejoin="round"/>
<path d="M201.546 39.0892C200.63 39.0515 199.764 38.6612 199.129 37.9997C198.494 37.3383 198.14 36.457 198.14 35.5402C198.14 34.6234 198.494 33.7422 199.129 33.0807C199.764 32.4193 200.63 32.0289 201.546 31.9912H228.048C228.964 32.0289 229.83 32.4193 230.464 33.0807C231.099 33.7422 231.454 34.6234 231.454 35.5402C231.454 36.457 231.099 37.3383 230.464 37.9997C229.83 38.6612 228.964 39.0515 228.048 39.0892H201.546Z" fill="white"/>
<path d="M201.546 39.0892C200.63 39.0515 199.764 38.6612 199.129 37.9997C198.494 37.3383 198.14 36.457 198.14 35.5402C198.14 34.6234 198.494 33.7422 199.129 33.0807C199.764 32.4193 200.63 32.0289 201.546 31.9912H228.048C228.964 32.0289 229.83 32.4193 230.464 33.0807C231.099 33.7422 231.454 34.6234 231.454 35.5402C231.454 36.457 231.099 37.3383 230.464 37.9997C229.83 38.6612 228.964 39.0515 228.048 39.0892H201.546Z" stroke="#263238" stroke-miterlimit="10"/>
<path d="M217.398 33.2041H201.546C200.946 33.2345 200.382 33.494 199.968 33.9289C199.555 34.3638 199.324 34.941 199.324 35.5411C199.324 36.1412 199.555 36.7184 199.968 37.1533C200.382 37.5883 200.946 37.8477 201.546 37.8781H216.318L217.398 33.2041Z" fill="#4EB9F8"/>
<path d="M216.966 91.3979V59.7119H259.8C259.801 60.109 259.722 60.5023 259.57 60.8689C259.418 61.2356 259.194 61.5684 258.912 61.8479C258.632 62.1288 258.299 62.3514 257.932 62.5028C257.566 62.6542 257.172 62.7314 256.776 62.7299H221.4V96.1079" stroke="#263238" stroke-linecap="round" stroke-linejoin="round"/>
<path d="M226.253 201.565H206.765C206.329 201.563 205.91 201.393 205.596 201.09C205.281 200.787 205.096 200.375 205.079 199.939L203.741 163.987C203.732 163.75 203.773 163.515 203.861 163.296C203.949 163.077 204.083 162.878 204.253 162.714C204.422 162.55 204.625 162.424 204.847 162.343C205.069 162.262 205.306 162.23 205.541 162.247L228.341 163.855C228.78 163.882 229.191 164.081 229.485 164.407C229.78 164.733 229.936 165.161 229.919 165.601L227.939 199.951C227.919 200.385 227.733 200.794 227.419 201.095C227.105 201.395 226.688 201.563 226.253 201.565Z" fill="#4EB9F8" stroke="#263238" stroke-linecap="round" stroke-linejoin="round"/>
<path d="M212.43 180.108C212.569 179.621 212.666 179.123 212.718 178.62C212.718 178.296 212.538 177.576 212.262 177.42C211.986 177.264 210.564 177.522 210.564 177.522C210.564 177.522 210.9 176.412 210.672 176.16C210.444 175.908 209.718 176.01 209.436 176.16C208.974 176.37 208.416 177.294 208.104 177.696C207.726 178.188 207.066 179.238 206.712 179.742C206.544 179.994 206.016 180.738 206.016 180.738L201.678 182.286L201.912 186.678L206.802 183.726C206.802 183.726 211.188 183.726 212.112 182.736C212.562 182.22 212.328 180.75 212.43 180.108Z" fill="white" stroke="#263238" stroke-linecap="round" stroke-linejoin="round"/>
<path d="M205.374 171.216C205.128 174.696 204.606 178.35 203.544 180.45H205.344C205.344 180.45 203.712 183.372 204.744 186.132C204.744 186.132 199.788 189.462 198.684 187.332C197.58 185.202 198.858 176.592 199.992 172.452C201.126 168.312 201.474 161.952 205.518 162.252" fill="#4EB9F8"/>
<path d="M205.374 171.216C205.128 174.696 204.606 178.35 203.544 180.45H205.344C205.344 180.45 203.712 183.372 204.744 186.132C204.744 186.132 199.788 189.462 198.684 187.332C197.58 185.202 198.858 176.592 199.992 172.452C201.126 168.312 201.474 161.952 205.518 162.252" stroke="#263238" stroke-linecap="round" stroke-linejoin="round"/>
<path d="M202.8 180.738C201.977 181.06 201.273 181.628 200.784 182.364" stroke="#263238" stroke-linecap="round" stroke-linejoin="round"/>
<path d="M212.478 169.434L213.294 169.326C213.427 169.308 213.562 169.316 213.692 169.35C213.823 169.384 213.945 169.443 214.052 169.524C214.159 169.606 214.249 169.708 214.316 169.824C214.384 169.94 214.428 170.069 214.446 170.202L215.364 176.94C215.382 177.074 215.374 177.21 215.34 177.34C215.306 177.471 215.247 177.593 215.166 177.701C215.084 177.808 214.982 177.899 214.866 177.967C214.75 178.035 214.621 178.08 214.488 178.098L213.672 178.206L212.478 169.434Z" fill="white" stroke="#263238" stroke-linecap="round" stroke-linejoin="round"/>
<path d="M211.089 178.563L213.782 178.196C214.422 178.109 214.871 177.519 214.783 176.879L213.904 170.422C213.816 169.782 213.227 169.334 212.586 169.421L209.893 169.788C209.253 169.875 208.805 170.465 208.892 171.105L209.772 177.562C209.859 178.202 210.449 178.65 211.089 178.563Z" fill="#BFBFBF"/>
<path d="M211.089 178.563L213.782 178.196C214.422 178.109 214.871 177.519 214.783 176.879L213.904 170.422C213.816 169.782 213.227 169.334 212.586 169.421L209.893 169.788C209.253 169.875 208.805 170.465 208.892 171.105L209.772 177.562C209.859 178.202 210.449 178.65 211.089 178.563Z" stroke="#263238" stroke-linecap="round" stroke-linejoin="round"/>
<path d="M209.513 170.893C209.52 170.941 209.536 170.988 209.561 171.03C209.586 171.072 209.618 171.109 209.657 171.139C209.696 171.168 209.741 171.19 209.788 171.202C209.836 171.214 209.885 171.217 209.933 171.211C209.982 171.204 210.028 171.188 210.071 171.163C210.113 171.138 210.15 171.105 210.179 171.066C210.209 171.027 210.23 170.983 210.243 170.936C210.255 170.888 210.258 170.839 210.251 170.791C210.236 170.693 210.184 170.606 210.106 170.546C210.027 170.487 209.929 170.461 209.831 170.473C209.783 170.479 209.736 170.495 209.694 170.52C209.652 170.545 209.615 170.578 209.585 170.617C209.556 170.656 209.534 170.7 209.522 170.747C209.509 170.795 209.507 170.844 209.513 170.893Z" fill="white" stroke="#263238" stroke-linecap="round" stroke-linejoin="round"/>
<path d="M210.198 177.534C210.114 177.035 210.074 176.529 210.078 176.022C210.138 175.698 210.372 175.002 210.678 174.858C210.984 174.714 212.358 175.152 212.358 175.152C212.358 175.152 212.142 174.006 212.4 173.784C212.658 173.562 213.366 173.742 213.6 173.898C214.038 174.156 214.488 175.14 214.752 175.572C215.07 176.106 215.61 177.216 215.904 177.762C216.048 178.032 216.504 178.824 216.504 178.824L220.38 180.6L218.58 183.858L215.4 181.71C215.4 181.71 211.038 181.212 210.228 180.132C209.832 179.61 210.228 178.2 210.198 177.534Z" fill="white" stroke="#263238" stroke-linecap="round" stroke-linejoin="round"/>
<path d="M227.999 165.703C228.095 165.271 228.197 164.845 228.311 164.425C228.335 164.316 228.388 164.216 228.465 164.135C228.542 164.055 228.639 163.998 228.747 163.97C228.855 163.942 228.968 163.944 229.075 163.977C229.181 164.009 229.276 164.071 229.349 164.155L229.499 164.317C230.294 165.163 230.865 166.194 231.161 167.317C232.217 171.319 234.504 181.375 232.884 188.755C232.791 189.169 232.554 189.537 232.216 189.794C231.878 190.051 231.46 190.18 231.035 190.159C228.065 189.979 222.87 189.235 217.188 183.607C217.188 183.607 218.387 180.793 219.797 179.827L227.657 183.001C227.285 180.188 227.108 177.354 227.129 174.517" fill="#4EB9F8"/>
<path d="M227.999 165.703C228.095 165.271 228.197 164.845 228.311 164.425C228.335 164.316 228.388 164.216 228.465 164.135C228.542 164.055 228.639 163.998 228.747 163.97C228.855 163.942 228.968 163.944 229.075 163.977C229.181 164.009 229.276 164.071 229.349 164.155L229.499 164.317C230.294 165.163 230.865 166.194 231.161 167.317C232.217 171.319 234.504 181.375 232.884 188.755C232.791 189.169 232.554 189.537 232.216 189.794C231.878 190.051 231.46 190.18 231.035 190.159C228.065 189.979 222.87 189.235 217.188 183.607C217.188 183.607 218.387 180.793 219.797 179.827L227.657 183.001C227.285 180.188 227.108 177.354 227.129 174.517" stroke="#263238" stroke-linecap="round" stroke-linejoin="round"/>
<path d="M228.336 183.511C228.661 183.686 228.948 183.924 229.179 184.212C229.411 184.499 229.583 184.83 229.686 185.185" stroke="#263238" stroke-linecap="round" stroke-linejoin="round"/>
<path d="M217.758 157.686L222.864 149.496C222.864 149.496 225.51 148.398 224.094 146.988C224.094 146.988 226.368 143.052 223.416 143.052C223.416 143.052 223.038 139.854 220.182 141.144C220.182 141.144 217.698 138.192 216.036 140.346C216.036 140.346 212.628 138.684 211.752 140.772C211.752 140.772 209.262 140.772 209.352 142.62C209.352 142.62 207.786 144.708 209.85 144.954C209.85 144.954 209.304 146.616 211.746 146.616C214.188 146.616 217.2 149.616 217.2 149.616L217.8 152.688L217.758 157.686Z" fill="#263238" stroke="#263238" stroke-linecap="round" stroke-linejoin="round"/>
<path d="M221.081 163.447C221.081 163.447 215.531 166.495 211.481 162.589C211.481 162.589 212.501 160.669 212.855 155.899L218.741 154.849C218.572 156.471 218.632 158.109 218.921 159.715C219.311 161.533 220.373 163.201 221.081 163.447Z" fill="white"/>
<mask id="mask10_2381_7240" style="mask-type:luminance" maskUnits="userSpaceOnUse" x="211" y="154" width="11" height="11">
<path d="M221.081 163.447C221.081 163.447 215.531 166.495 211.481 162.589C211.481 162.589 212.501 160.669 212.855 155.899L218.741 154.849C218.572 156.471 218.632 158.109 218.921 159.715C219.311 161.533 220.373 163.201 221.081 163.447Z" fill="white"/>
</mask>
<g mask="url(#mask10_2381_7240)">
<path d="M219.162 154.992L218.994 155.592C218.895 155.951 218.728 156.287 218.502 156.582C217.602 157.782 215.076 160.782 212.61 160.512C210.324 160.284 209.688 156.756 209.52 154.986L219.162 154.992Z" fill="#263238" stroke="#263238" stroke-linecap="round" stroke-linejoin="round"/>
</g>
<path d="M221.081 163.447C221.081 163.447 215.531 166.495 211.481 162.589C211.481 162.589 212.501 160.669 212.855 155.899L218.741 154.849C218.572 156.471 218.632 158.109 218.921 159.715C219.311 161.533 220.373 163.201 221.081 163.447Z" stroke="#263238" stroke-linecap="round" stroke-linejoin="round"/>
<path d="M210.329 145.752L209.399 148.716C209.297 149.029 209.268 149.362 209.315 149.688L209.447 150.564L208.961 152.514C208.938 152.615 208.92 152.717 208.907 152.82C208.805 153.846 208.409 159.318 211.307 160.02C213.869 160.62 216.989 157.86 218.117 156.738C218.398 156.46 218.622 156.13 218.777 155.766L219.425 154.29C219.795 154.345 220.173 154.283 220.507 154.113C220.84 153.943 221.112 153.674 221.285 153.342C221.885 152.142 222.665 151.464 221.507 150.636C220.349 149.808 219.617 151.488 219.617 151.488C219.617 151.488 219.653 149.376 219.377 148.74C219.101 148.104 218.147 147.366 217.901 146.814C217.781 146.387 217.7 145.949 217.661 145.506C217.661 145.506 213.701 145.614 210.887 144.54L210.329 145.752Z" fill="white" stroke="#263238" stroke-linecap="round" stroke-linejoin="round"/>
<path d="M210.329 145.752L209.399 148.716C209.297 149.029 209.268 149.362 209.315 149.688L209.447 150.564L208.961 152.514C208.938 152.615 208.92 152.717 208.907 152.82C208.805 153.846 208.409 159.318 211.307 160.02C213.869 160.62 216.989 157.86 218.117 156.738C218.398 156.46 218.622 156.13 218.777 155.766L219.425 154.29C219.795 154.345 220.173 154.283 220.507 154.113C220.84 153.943 221.112 153.674 221.285 153.342C221.885 152.142 222.665 151.464 221.507 150.636C220.349 149.808 219.617 151.488 219.617 151.488C219.617 151.488 219.653 149.376 219.377 148.74C219.101 148.104 218.147 147.366 217.901 146.814C217.781 146.387 217.7 145.949 217.661 145.506C217.661 145.506 213.701 145.614 210.887 144.54L210.329 145.752Z" fill="white" stroke="#263238" stroke-linecap="round" stroke-linejoin="round"/>
<path d="M212.172 151.608L210.72 153.942C210.679 154.02 210.656 154.106 210.652 154.194C210.648 154.282 210.663 154.37 210.697 154.451C210.731 154.533 210.782 154.606 210.847 154.665C210.913 154.724 210.99 154.768 211.074 154.794L212.352 155.094" stroke="#263238" stroke-linecap="round" stroke-linejoin="round"/>
<path d="M214.284 156.433C213.396 157.141 212.268 157.243 211.722 156.745" stroke="#263238" stroke-linecap="round" stroke-linejoin="round"/>
<path d="M214.128 152.401C214.074 152.749 213.894 153.001 213.726 153.001C213.558 153.001 213.474 152.671 213.534 152.329C213.594 151.987 213.768 151.729 213.936 151.729C214.104 151.729 214.2 152.071 214.128 152.401Z" fill="#263238"/>
<path d="M210.894 151.878C210.834 152.226 210.654 152.478 210.492 152.478C210.33 152.478 210.24 152.148 210.294 151.806C210.348 151.464 210.534 151.206 210.696 151.206C210.858 151.206 210.948 151.536 210.894 151.878Z" fill="#263238"/>
<path d="M209.538 149.785C209.582 149.638 209.659 149.503 209.762 149.389C209.866 149.276 209.993 149.187 210.135 149.13C210.278 149.072 210.431 149.047 210.584 149.057C210.737 149.066 210.886 149.11 211.02 149.185" stroke="#263238" stroke-linecap="round" stroke-linejoin="round"/>
<path d="M213.432 149.4C213.804 149.405 214.167 149.523 214.472 149.737C214.777 149.951 215.01 150.252 215.142 150.6" stroke="#263238" stroke-linecap="round" stroke-linejoin="round"/>
<path d="M218.844 145.458C218.844 145.458 215.598 147.822 215.214 146.112C215.214 146.112 212.514 146.76 212.334 145.854C212.334 145.854 209.634 146.934 209.334 146.094C209.034 145.254 211.488 143.022 211.488 143.022L217.194 143.748L218.844 145.458Z" fill="#263238" stroke="#263238" stroke-linecap="round" stroke-linejoin="round"/>
<path d="M212.213 142.548C211.85 143.27 211.394 143.941 210.857 144.546" stroke="#7F7F7F" stroke-linecap="round" stroke-linejoin="round"/>
<path d="M213.924 141.775C213.449 141.708 212.968 141.829 212.58 142.111" stroke="#7F7F7F" stroke-linecap="round" stroke-linejoin="round"/>
<path d="M220.53 143.761C218.952 143.611 218.73 144.961 216.288 144.883C213.984 144.787 215.052 143.005 214.686 142.183" stroke="#7F7F7F" stroke-linecap="round" stroke-linejoin="round"/>
<path d="M221.664 149.047C221.664 149.047 224.382 145.105 221.664 144.055" stroke="#7F7F7F" stroke-linecap="round" stroke-linejoin="round"/>
<path d="M202.031 273.258C201.47 273.439 200.955 273.74 200.523 274.142C200.091 274.543 199.752 275.034 199.529 275.58C199.486 275.676 199.468 275.781 199.478 275.885C199.488 275.99 199.525 276.09 199.586 276.176C199.647 276.261 199.729 276.329 199.824 276.373C199.92 276.417 200.025 276.435 200.129 276.426H208.955C209.125 276.428 209.29 276.368 209.419 276.258C209.548 276.147 209.633 275.994 209.657 275.826C209.802 274.719 209.653 273.593 209.225 272.562L209.711 267.126H204.557L204.161 272.328L202.031 273.258Z" fill="white" stroke="#263238" stroke-linecap="round" stroke-linejoin="round"/>
<path d="M207.654 273.204C208.578 274.494 208.35 272.562 209.202 272.562C209.629 273.593 209.778 274.719 209.634 275.826C209.609 275.994 209.525 276.147 209.396 276.258C209.266 276.368 209.102 276.428 208.932 276.426H200.106C200.001 276.435 199.896 276.417 199.801 276.373C199.706 276.329 199.623 276.261 199.563 276.175C199.502 276.09 199.465 275.99 199.455 275.885C199.445 275.781 199.463 275.675 199.506 275.58C199.728 275.034 200.067 274.543 200.5 274.142C200.932 273.74 201.447 273.439 202.008 273.258L204.114 272.328C204.114 272.328 206.736 271.914 207.654 273.204Z" fill="#BFBFBF" stroke="#263238" stroke-linecap="round" stroke-linejoin="round"/>
<path d="M209.657 275.641C209.657 275.707 209.657 275.773 209.657 275.827C209.633 275.995 209.548 276.148 209.419 276.258C209.29 276.369 209.125 276.428 208.955 276.427H200.105C200.01 276.431 199.914 276.412 199.827 276.372C199.74 276.331 199.664 276.271 199.605 276.195C199.547 276.119 199.507 276.03 199.489 275.936C199.472 275.842 199.478 275.744 199.505 275.653C200.105 275.653 200.525 275.653 200.525 275.653L209.657 275.641Z" fill="white" stroke="#263238" stroke-linecap="round" stroke-linejoin="round"/>
<path d="M205.661 200.802L203.861 270.402H210.221C210.221 270.402 212.189 253.002 212.417 247.146C212.519 244.53 213.053 239.946 213.233 237.306C213.551 232.572 214.289 227.298 216.107 218.106C216.401 216.624 218.183 214.062 218.561 212.592C219.299 209.73 219.611 200.784 219.611 200.784L205.661 200.802Z" fill="#263238" stroke="#263238" stroke-linecap="round" stroke-linejoin="round"/>
<path d="M210.072 242.101C210.072 242.101 208.62 244.021 206.604 243.763" stroke="#7F7F7F" stroke-linecap="round" stroke-linejoin="round"/>
<path d="M204.905 240.271C204.905 240.271 207.203 241.639 210.623 240.271" stroke="#7F7F7F" stroke-linecap="round" stroke-linejoin="round"/>
<path d="M233.04 273.258C233.862 273.618 235.128 274.152 235.608 275.766C235.628 275.844 235.63 275.925 235.614 276.004C235.598 276.083 235.564 276.157 235.514 276.221C235.465 276.285 235.402 276.336 235.33 276.372C235.258 276.407 235.178 276.426 235.098 276.426H226.272C226.062 276.426 225.859 276.349 225.702 276.21C225.545 276.07 225.445 275.878 225.42 275.67C225.314 274.612 225.47 273.545 225.876 272.562L225.384 267.126H230.544L230.934 272.328L233.04 273.258Z" fill="white" stroke="#263238" stroke-linecap="round" stroke-linejoin="round"/>
<path d="M235.608 275.767C235.628 275.845 235.63 275.926 235.614 276.005C235.598 276.084 235.564 276.158 235.514 276.221C235.465 276.285 235.402 276.337 235.33 276.372C235.258 276.408 235.178 276.426 235.098 276.427H226.272C226.062 276.427 225.859 276.35 225.702 276.21C225.545 276.071 225.445 275.879 225.42 275.671C225.314 274.613 225.471 273.545 225.876 272.563C226.704 272.425 226.17 274.219 227.532 273.115C228.894 272.011 230.934 272.329 230.934 272.329L233.04 273.259C233.862 273.601 235.128 274.153 235.608 275.767Z" fill="#BFBFBF" stroke="#263238" stroke-linecap="round" stroke-linejoin="round"/>
<path d="M235.56 275.641C235.56 275.689 235.596 275.725 235.608 275.767C235.628 275.845 235.63 275.926 235.614 276.005C235.598 276.084 235.564 276.158 235.514 276.221C235.465 276.285 235.402 276.337 235.33 276.372C235.258 276.408 235.178 276.426 235.098 276.427H226.272C226.062 276.427 225.859 276.35 225.702 276.21C225.545 276.071 225.445 275.879 225.42 275.671V275.641H235.56Z" fill="white" stroke="#263238" stroke-linecap="round" stroke-linejoin="round"/>
<path d="M227.328 200.814C227.328 200.814 228.228 207.732 228.36 210.054C228.432 211.428 228.312 214.188 228.36 215.562C228.528 220.854 229.188 231.432 229.71 236.694C229.98 239.466 231.006 244.956 231.192 247.734C231.576 253.392 231.192 270.426 231.192 270.426H224.802C224.802 270.426 222.21 251.226 221.538 244.782C221.298 242.496 218.646 219.78 216.84 214.83C216.498 213.882 215.718 212.292 215.394 211.338C214.748 209.337 214.278 207.284 213.99 205.2C213.894 204.108 213.828 200.826 213.828 200.826L227.328 200.814Z" fill="#263238" stroke="#263238" stroke-linecap="round" stroke-linejoin="round"/>
<path d="M228.504 239.496C228.504 239.496 227.304 241.674 223.104 241.674" stroke="#7F7F7F" stroke-linecap="round" stroke-linejoin="round"/>
<path d="M216.72 215.287C216.378 214.381 215.598 212.887 215.274 211.957C214.776 210.559 213.99 205.183 213.828 200.809" stroke="#7F7F7F" stroke-linecap="round" stroke-linejoin="round"/>
<path d="M222.456 246.408C223.675 252.451 226.049 258.202 229.446 263.346" stroke="#7F7F7F" stroke-linecap="round" stroke-linejoin="round"/>
<path d="M204.456 245.551C204.863 251.163 206.323 256.648 208.758 261.721" stroke="#7F7F7F" stroke-linecap="round" stroke-linejoin="round"/>
<path d="M221.652 155.719H237.96C239.238 155.719 240.276 157.201 240.276 159.031V164.545C240.276 166.345 239.238 167.851 237.96 167.851H224.952L219.702 171.343L221.652 167.851C220.374 167.851 219.342 166.369 219.342 164.545V159.031C219.342 157.201 220.374 155.719 221.652 155.719Z" fill="white" stroke="#263238" stroke-linecap="round" stroke-linejoin="round"/>
<path d="M236.598 159.103H222.804" stroke="#263238" stroke-linecap="round" stroke-linejoin="round"/>
<path d="M236.598 161.551H223.866" stroke="#263238" stroke-linecap="round" stroke-linejoin="round"/>
<path d="M236.598 164.004H222.804" stroke="#263238" stroke-linecap="round" stroke-linejoin="round"/>
<path d="M63.4803 178.374L31.1523 182.52C29.4954 182.733 27.8124 182.603 26.2081 182.137C24.6037 181.672 23.1122 180.881 21.8263 179.815C20.5405 178.748 19.4877 177.429 18.7335 175.938C17.9793 174.448 17.5398 172.818 17.4423 171.15L14.2863 117.654C14.1787 115.853 14.4727 114.051 15.1472 112.377C15.8216 110.704 16.8596 109.201 18.1861 107.978C19.5126 106.755 21.0943 105.842 22.8169 105.305C24.5395 104.768 26.3599 104.621 28.1463 104.874L65.6703 110.166C68.6692 110.59 71.4029 112.115 73.3385 114.444C75.2742 116.774 76.273 119.741 76.1403 122.766L74.1003 166.83C73.9738 169.697 72.839 172.427 70.896 174.539C68.9531 176.651 66.3268 178.01 63.4803 178.374Z" fill="#90CAF9"/>
<path opacity="0.3" d="M74.1003 166.854C73.9683 169.717 72.831 172.442 70.8886 174.549C68.9461 176.656 66.3229 178.01 63.4803 178.374L31.1523 182.52C29.4954 182.733 27.8124 182.603 26.2081 182.137C24.6037 181.672 23.1122 180.881 21.8263 179.815C20.5405 178.748 19.4877 177.429 18.7335 175.938C17.9793 174.448 17.5398 172.818 17.4423 171.15L14.2863 117.654C14.1787 115.853 14.4727 114.051 15.1472 112.377C15.8216 110.704 16.8596 109.201 18.1861 107.978C19.5126 106.755 21.0943 105.842 22.8169 105.305C24.5395 104.768 26.3599 104.621 28.1463 104.874L65.6703 110.166C68.6692 110.59 71.4029 112.115 73.3385 114.444C75.2742 116.774 76.273 119.741 76.1403 122.766L74.1003 166.854Z" fill="white"/>
<path d="M26.0225 124.674H41.0645C41.7464 124.728 42.3874 125.021 42.8755 125.5C43.3636 125.979 43.6677 126.615 43.7345 127.296L47.2805 159.27C47.4151 160.506 48.0018 161.648 48.9277 162.478C49.8535 163.307 51.0533 163.765 52.2965 163.764" stroke="#263238" stroke-linecap="round" stroke-linejoin="round"/>
<path d="M66.9 167.79V170.736H31.2C29.9317 170.736 28.71 170.257 27.7783 169.397C26.8465 168.536 26.2731 167.356 26.172 166.092L23.07 127.722C23.0389 127.322 23.0934 126.919 23.2298 126.541C23.3662 126.163 23.5815 125.819 23.8612 125.531C24.141 125.242 24.4789 125.017 24.8525 124.869C25.226 124.722 25.6268 124.655 26.028 124.674C26.7093 124.729 27.3496 125.021 27.8367 125.501C28.3238 125.98 28.6266 126.616 28.692 127.296L32.238 159.27C32.3755 160.507 32.9646 161.65 33.8924 162.479C34.8203 163.308 36.0216 163.766 37.266 163.764H62.88C63.9467 163.766 64.9692 164.191 65.723 164.945C66.4767 165.7 66.9 166.723 66.9 167.79Z" stroke="#263238" stroke-linecap="round" stroke-linejoin="round"/>
<mask id="mask11_2381_7240" style="mask-type:luminance" maskUnits="userSpaceOnUse" x="45" y="170" width="6" height="11">
<path d="M50.0106 180.108V170.736H45.3066V180.702" fill="white"/>
</mask>
<g mask="url(#mask11_2381_7240)">
<path d="M59.1309 199.098H50.0109V169.698H45.3069V199.098H36.1869C35.431 199.098 34.7061 199.399 34.1717 199.933C33.6372 200.467 33.3369 201.192 33.3369 201.948H61.9809C61.9817 201.574 61.9085 201.203 61.7656 200.857C61.6226 200.511 61.4127 200.196 61.1479 199.931C60.8831 199.666 60.5686 199.457 60.2225 199.314C59.8764 199.171 59.5054 199.097 59.1309 199.098Z" stroke="#263238" stroke-linecap="round" stroke-linejoin="round"/>
</g>
<path d="M50.0106 180.108V170.736H45.3066V180.702" stroke="#263238" stroke-linecap="round" stroke-linejoin="round"/>
<path d="M66.5645 190.902L67.0204 197.388L71.9225 197.244L71.6525 190.242L66.5645 190.902Z" fill="white" stroke="#263238" stroke-linecap="round" stroke-linejoin="round"/>
<path d="M66.6603 199.801C66.6603 199.801 74.5383 200.119 77.1363 199.801C77.9463 199.705 79.8363 199.687 80.2983 199.015C80.5263 198.691 80.1183 197.449 80.1183 197.449L76.0083 196.201L73.1703 194.641C72.9506 194.518 72.698 194.468 72.4482 194.497C72.1984 194.526 71.9641 194.633 71.7783 194.803L71.4543 195.097C71.3209 195.218 71.2165 195.368 71.149 195.535C71.0815 195.702 71.0525 195.883 71.0643 196.063V196.201L70.5963 195.877C70.394 195.735 70.153 195.66 69.9063 195.661H66.5163C65.9242 196.636 65.6437 197.768 65.7123 198.907C65.7232 199.15 65.8282 199.379 66.0052 199.546C66.1821 199.713 66.4171 199.804 66.6603 199.801Z" fill="#263238" stroke="#263238" stroke-linecap="round" stroke-linejoin="round"/>
<path d="M50.7364 183.427L47.4844 188.791L51.4324 191.695L55.1584 186.043L50.7364 183.427Z" fill="white" stroke="#263238" stroke-linecap="round" stroke-linejoin="round"/>
<path d="M64.386 159.601C64.386 159.601 59.022 162.097 49.152 185.161C49.6933 186.049 50.4232 186.807 51.29 187.381C52.1568 187.955 53.1394 188.332 54.168 188.485C54.168 188.485 77.76 159.409 74.748 154.285C71.922 149.485 45.666 151.285 45.666 151.285L46.008 162.805C46.008 162.805 61.8 162.001 64.386 159.601Z" fill="#90CAF9" stroke="#263238" stroke-linecap="round" stroke-linejoin="round"/>
<path d="M52.3624 97.5067C52.3624 97.5067 47.6464 93.9607 43.0324 97.0327C38.4184 100.105 35.4964 107.365 37.9624 110.233C38.7076 111.079 39.6343 111.745 40.6733 112.182C41.7123 112.62 42.8366 112.817 43.9624 112.759C43.9624 112.759 48.6364 116.359 50.5624 115.759C52.4884 115.159 55.7524 110.155 55.8964 105.673C56.0404 101.191 57.4924 97.8847 52.3624 97.5067Z" fill="#263238" stroke="#263238" stroke-linecap="round" stroke-linejoin="round"/>
<path d="M47.6705 113.4C47.6705 113.4 46.3625 115.2 46.4285 116.736L40.2725 114.6C40.2725 114.6 42.8465 110.862 43.4585 107.202C44.0705 103.542 47.6705 113.4 47.6705 113.4Z" fill="white"/>
<mask id="mask12_2381_7240" style="mask-type:luminance" maskUnits="userSpaceOnUse" x="40" y="106" width="8" height="11">
<path d="M47.6705 113.4C47.6705 113.4 46.3625 115.2 46.4285 116.736L40.2725 114.6C40.2725 114.6 42.8465 110.862 43.4585 107.202C44.0705 103.542 47.6705 113.4 47.6705 113.4Z" fill="white"/>
</mask>
<g mask="url(#mask12_2381_7240)">
<path d="M43.3203 108.864C43.4163 110.718 43.9203 111.504 45.4623 113.064C47.2623 114.864 48.4203 116.316 51.0303 113.064C52.7583 110.904 53.2923 109.53 53.4303 108.864H43.3203Z" fill="#263238" stroke="#263238" stroke-linecap="round" stroke-linejoin="round"/>
</g>
<path d="M47.6705 113.4C47.6705 113.4 46.3625 115.2 46.4285 116.736L40.2725 114.6C40.2725 114.6 42.8465 110.862 43.4585 107.202C44.0705 103.542 47.6705 113.4 47.6705 113.4Z" stroke="#263238" stroke-linecap="round" stroke-linejoin="round"/>
<path d="M34.1524 151.992C34.1524 151.992 29.5924 161.946 37.2784 163.602C44.9644 165.258 61.2004 161.646 61.2004 161.646C61.2004 161.646 62.5204 174.498 66.2644 193.158C68.3052 193.352 70.3642 193.188 72.3484 192.672C72.3484 192.672 72.1144 157.932 68.9824 153.672C65.8504 149.412 42.4024 149.742 34.1524 151.992Z" fill="#90CAF9" stroke="#263238" stroke-linecap="round" stroke-linejoin="round"/>
<path d="M33 152.004C33 152.004 34.134 153.276 41.658 150.732L51.138 150.366C51.138 150.366 54.678 134.334 53.538 128.364C52.9009 124.897 52.0513 121.473 50.994 118.11C45.9746 116.21 40.5894 115.474 35.244 115.956C34.9545 115.985 34.6882 116.128 34.5037 116.353C34.3192 116.578 34.2315 116.867 34.26 117.156C34.728 121.62 36.114 136.2 33 152.004Z" fill="#263238" stroke="#263238" stroke-linecap="round" stroke-linejoin="round"/>
<path d="M51.0425 118.11C51.0425 118.11 54.9785 118.986 54.9785 123.678C54.9785 128.37 54.5225 135.99 54.5225 135.99L59.6105 142.884C59.6105 142.884 57.4325 144.084 57.1025 146.118C57.1025 146.118 49.4945 139.86 49.0625 137.718C48.6305 135.576 51.0425 118.11 51.0425 118.11Z" fill="#263238" stroke="#263238" stroke-linecap="round" stroke-linejoin="round"/>
<path d="M51.8587 134.796L52.2367 136.194L51.1867 135.198L48.0427 129.906C47.9899 129.816 47.9748 129.709 48.0006 129.608C48.0265 129.506 48.0912 129.42 48.1807 129.366C48.2707 129.313 48.378 129.298 48.4791 129.324C48.5802 129.35 48.667 129.414 48.7207 129.504L51.8587 134.796Z" fill="white" stroke="#263238" stroke-linecap="round" stroke-linejoin="round"/>
<path d="M43.656 135.666C44.576 135.028 45.4003 134.263 46.104 133.392C47.094 132.096 47.424 131.334 48.204 131.592C48.984 131.85 51.804 132.6 51.384 133.5C51.3976 133.885 51.2719 134.262 51.03 134.562C50.833 134.968 50.5457 135.323 50.19 135.6C49.632 136.008 49.452 135.834 49.452 135.834C49.452 135.834 49.062 136.158 48.81 136.074C48.81 136.074 48.21 137.124 46.2 137.526L40.8 139.83L40.248 136.362L43.656 135.666Z" fill="white" stroke="#263238" stroke-linecap="round" stroke-linejoin="round"/>
<path d="M47.4601 132.763C47.6986 132.984 47.9555 133.185 48.2281 133.363C48.5941 133.591 49.8781 134.263 49.8361 134.689C49.7941 135.115 48.9181 135.943 48.6361 135.889C48.3541 135.835 47.3461 135.457 47.3701 135.229C47.2782 135.406 47.2135 135.596 47.1781 135.793C47.1771 136.058 47.1235 136.32 47.0205 136.564C46.9175 136.808 46.7672 137.029 46.5781 137.215" stroke="#263238" stroke-linecap="round" stroke-linejoin="round"/>
<path d="M51.0304 134.568C50.9656 134.339 50.818 134.142 50.6164 134.016C49.9791 133.652 49.3766 133.23 48.8164 132.756" stroke="#263238" stroke-linecap="round" stroke-linejoin="round"/>
<path d="M51.384 133.506C51.2425 133.366 51.0831 133.245 50.91 133.146C50.2531 132.704 49.5584 132.32 48.834 132" stroke="#263238" stroke-linecap="round" stroke-linejoin="round"/>
<path d="M47.6582 134.964C47.6582 134.964 48.0842 134.814 48.2582 134.964C48.4322 135.114 48.4082 135.324 48.6002 135.528" stroke="#263238" stroke-linecap="round" stroke-linejoin="round"/>
<path d="M48.2401 134.952C47.9764 134.773 47.7519 134.543 47.5801 134.274" stroke="#263238" stroke-linecap="round" stroke-linejoin="round"/>
<path d="M35.7782 129.666C35.7002 131.166 34.9022 137.274 34.9022 137.274C37.5483 136.415 40.2708 135.812 43.0322 135.474C43.0322 135.474 42.6122 137.082 43.8422 139.38C43.8422 139.38 32.5262 143.82 30.1982 143.346C27.8702 142.872 28.2482 137.85 29.1422 126.696C30.0362 115.542 35.2922 115.962 35.2922 115.962" fill="#263238"/>
<path d="M35.7782 129.666C35.7002 131.166 34.9022 137.274 34.9022 137.274C37.5483 136.415 40.2708 135.812 43.0322 135.474C43.0322 135.474 42.6122 137.082 43.8422 139.38C43.8422 139.38 32.5262 143.82 30.1982 143.346C27.8702 142.872 28.2482 137.85 29.1422 126.696C30.0362 115.542 35.2922 115.962 35.2922 115.962" stroke="#263238" stroke-linecap="round" stroke-linejoin="round"/>
<path d="M43.3446 139.374C43.3446 139.374 38.7126 141.174 34.7646 142.374" stroke="#7F7F7F" stroke-linecap="round" stroke-linejoin="round"/>
<path d="M35.2803 129.666C35.2023 131.166 34.4043 137.274 34.4043 137.274C37.0483 136.415 39.7688 135.812 42.5283 135.474" stroke="#7F7F7F" stroke-linecap="round" stroke-linejoin="round"/>
<path d="M38.874 115.801C38.874 115.801 40.2 114.991 40.2 113.917C40.2 112.843 46.122 115.969 47.478 115.789C48.834 115.609 48.078 116.779 47.934 117.109C47.592 118.201 46.608 119.551 38.874 115.801Z" fill="#263238" stroke="#263238" stroke-linecap="round" stroke-linejoin="round"/>
<path d="M47.9286 117.108C47.5806 118.116 46.6806 119.406 40.0146 116.364" stroke="#7F7F7F" stroke-linecap="round" stroke-linejoin="round"/>
<path d="M54.3123 103.884L53.7123 107.61C53.7123 107.61 53.8143 109.098 51.2103 112.35C48.6063 115.602 47.4303 114.15 45.6423 112.35C43.8543 110.55 43.4703 109.77 43.4823 107.196C43.4823 107.196 42.5643 107.064 42.0003 105.396C41.4363 103.728 43.4943 103.08 44.0163 104.142L47.0943 102.6L49.0143 100.29L50.1123 98.8262L52.3623 99.6662L54.7623 101.106L54.3123 103.884Z" fill="white" stroke="#263238" stroke-linecap="round" stroke-linejoin="round"/>
<path d="M51.5581 107.73C51.5581 107.73 50.5981 108.714 51.4021 109.662C52.4881 110.952 50.2021 110.556 50.2021 110.94" stroke="#263238" stroke-linecap="round" stroke-linejoin="round"/>
<path d="M48.9965 111.366C48.9965 111.366 48.2585 111.552 46.9805 110.28" stroke="#263238" stroke-linecap="round" stroke-linejoin="round"/>
<path d="M49.4167 107.526C49.2787 107.844 49.0627 108.06 48.9367 108.006C48.8107 107.952 48.8227 107.646 48.9367 107.328C49.0507 107.01 49.2907 106.794 49.4167 106.848C49.5427 106.902 49.5547 107.202 49.4167 107.526Z" fill="#263238"/>
<path d="M52.23 108.805C52.11 109.093 51.918 109.285 51.804 109.237C51.69 109.189 51.696 108.913 51.804 108.637C51.912 108.361 52.116 108.151 52.23 108.205C52.344 108.259 52.356 108.517 52.23 108.805Z" fill="#263238"/>
<path d="M50.9461 105.138C50.6449 104.918 50.2813 104.799 49.9081 104.799C49.5349 104.799 49.1713 104.918 48.8701 105.138" stroke="#263238" stroke-linecap="round" stroke-linejoin="round"/>
<path d="M52.8848 106.236C53.0341 106.287 53.1678 106.376 53.2729 106.494C53.378 106.611 53.4509 106.754 53.4848 106.908" stroke="#263238" stroke-linecap="round" stroke-linejoin="round"/>
<path d="M44.1664 102.601C44.1664 102.601 42.8164 106.033 44.6824 107.521C44.6824 107.521 46.2304 103.099 49.4344 102.601C52.6384 102.103 53.9524 101.107 53.9524 101.107C53.9524 101.107 53.5684 105.475 54.4444 106.549C55.3204 107.623 55.3024 101.521 55.3024 101.521L54.4444 99.4267L49.8004 97.5967L45.8224 99.4627L44.1664 102.601Z" fill="#263238" stroke="#263238" stroke-linecap="round" stroke-linejoin="round"/>
<path d="M43.3441 107.772C43.3441 107.772 42.7081 111.588 44.1661 111.972C45.6241 112.356 42.0781 112.428 40.2421 111.582C38.4061 110.736 42.6721 107.298 42.6721 107.298L43.3441 107.772Z" fill="#263238" stroke="#263238" stroke-linecap="round" stroke-linejoin="round"/>
<path d="M51.6961 134.58H52.3861L50.0941 149.064H49.4041C49.3141 149.066 49.2249 149.047 49.143 149.01C49.0611 148.973 48.9887 148.917 48.9311 148.848C48.8734 148.779 48.8321 148.698 48.8101 148.611C48.7882 148.523 48.7861 148.432 48.8041 148.344L50.8681 135.3C50.9045 135.104 51.0062 134.926 51.1565 134.796C51.3069 134.665 51.4971 134.589 51.6961 134.58Z" fill="white" stroke="#263238" stroke-linecap="round" stroke-linejoin="round"/>
<path d="M49.8782 149.064H58.2782C58.4789 149.059 58.6717 148.984 58.8237 148.853C58.9757 148.722 59.0776 148.542 59.1122 148.344L61.1762 135.3C61.1942 135.212 61.1922 135.121 61.1702 135.034C61.1482 134.946 61.1069 134.865 61.0493 134.796C60.9916 134.727 60.9192 134.672 60.8373 134.634C60.7554 134.597 60.6662 134.578 60.5762 134.58H52.2002C51.9998 134.587 51.8076 134.662 51.6558 134.793C51.504 134.924 51.4018 135.103 51.3662 135.3L49.3022 148.344C49.2846 148.43 49.2861 148.519 49.3068 148.605C49.3274 148.69 49.3666 148.77 49.4215 148.839C49.4765 148.908 49.5459 148.964 49.6248 149.003C49.7037 149.041 49.7902 149.062 49.8782 149.064Z" fill="white" stroke="#263238" stroke-linecap="round" stroke-linejoin="round"/>
<path d="M58.7106 137.136H59.4726C59.6005 137.132 59.7231 137.084 59.8194 137C59.9157 136.916 59.9798 136.801 60.0006 136.674L60.1266 135.912C60.1374 135.856 60.1354 135.797 60.1206 135.742C60.1058 135.686 60.0787 135.634 60.0412 135.59C60.0038 135.547 59.9569 135.512 59.9042 135.489C59.8515 135.465 59.7942 135.454 59.7366 135.456H58.9746C58.8471 135.461 58.7249 135.508 58.6279 135.591C58.531 135.674 58.4649 135.787 58.4406 135.912L58.3206 136.674C58.3087 136.731 58.3099 136.79 58.3242 136.847C58.3385 136.903 58.3655 136.956 58.4031 137C58.4406 137.045 58.4879 137.08 58.5411 137.104C58.5944 137.127 58.6523 137.138 58.7106 137.136Z" stroke="#263238" stroke-linecap="round" stroke-linejoin="round"/>
<path d="M58.9207 136.296C58.9134 136.334 58.9147 136.372 58.9244 136.409C58.9342 136.446 58.9521 136.48 58.977 136.509C59.0018 136.538 59.0328 136.561 59.0678 136.576C59.1027 136.591 59.1406 136.598 59.1787 136.596C59.2616 136.591 59.3406 136.559 59.4035 136.505C59.4664 136.451 59.5097 136.378 59.5267 136.296C59.5338 136.259 59.5325 136.22 59.5227 136.183C59.513 136.146 59.4951 136.111 59.4704 136.082C59.4457 136.053 59.4148 136.029 59.3799 136.013C59.345 135.997 59.307 135.99 59.2687 135.99C59.1849 135.995 59.1053 136.028 59.0423 136.084C58.9793 136.139 58.9365 136.214 58.9207 136.296Z" stroke="#263238" stroke-linecap="round" stroke-linejoin="round"/>
<path d="M59.4902 144.24C59.4902 144.24 60.2882 141.912 60.8822 142.44C61.3502 142.866 60.5522 144.24 60.5522 144.24H59.4902Z" fill="white" stroke="#263238" stroke-linecap="round" stroke-linejoin="round"/>
<path d="M61.4347 145.141C61.5727 144.877 62.0347 144.271 61.8547 144.019C61.5607 143.551 60.1867 143.665 59.6587 143.821C59.3167 143.89 58.9948 144.036 58.7167 144.247C58.6387 144.355 58.5307 144.673 58.6207 144.769C58.7107 144.865 59.3047 144.691 59.5327 144.685C59.9366 144.718 60.3377 144.78 60.7327 144.871C60.2854 145.011 59.8281 145.117 59.3647 145.189C58.8847 145.189 57.1267 144.895 57.5647 145.915C57.5647 145.915 56.9167 146.113 57.2887 146.599C57.6607 147.085 58.9207 147.043 58.9207 147.043C58.6333 147.123 58.337 147.167 58.0387 147.175C57.5347 147.175 57.1447 146.791 57.0967 147.061C57.0247 147.475 57.4027 147.823 57.9367 148.021C58.1984 148.133 58.4801 148.19 58.7647 148.19C59.0493 148.19 59.331 148.133 59.5927 148.021C60.4867 147.697 61.0507 145.903 61.4347 145.141Z" fill="white" stroke="#263238" stroke-linecap="round" stroke-linejoin="round"/>
<path d="M57.9668 146.07C58.4316 146.172 58.9026 146.242 59.3768 146.28C59.7044 146.287 60.0297 146.224 60.3308 146.094" stroke="#263238" stroke-linecap="round" stroke-linejoin="round"/>
<path d="M53.8868 133.668C54.0413 131.901 53.995 130.121 53.7488 128.364C53.0888 124.836 52.3208 121.89 51.7988 120.078" stroke="#7F7F7F" stroke-linecap="round" stroke-linejoin="round"/>
<path d="M45.2526 190.015C45.2526 190.015 50.5866 195.793 52.6386 197.401C53.2806 197.905 54.6246 199.2 55.4166 199.086C55.8066 199.02 56.3886 197.857 56.3886 197.857L54.3786 194.076L53.4666 190.98C53.397 190.741 53.2544 190.529 53.0587 190.374C52.863 190.219 52.6238 190.129 52.3746 190.116H51.9366C51.7591 190.108 51.582 190.139 51.4181 190.208C51.2541 190.276 51.1074 190.38 50.9886 190.512L50.8926 190.621L50.7906 190.057C50.7462 189.815 50.629 189.593 50.4546 189.421L48.0546 187.021C46.9562 187.288 45.9659 187.884 45.2166 188.73C45.0549 188.907 44.9683 189.14 44.975 189.38C44.9817 189.619 45.0812 189.847 45.2526 190.015Z" fill="#263238" stroke="#263238" stroke-linecap="round" stroke-linejoin="round"/>
<path d="M61.8848 160.272C61.8848 160.272 63.5768 157.944 64.5068 157.482" stroke="#263238" stroke-linecap="round" stroke-linejoin="round"/>
<path d="M58.428 88.2723C58.1232 88.268 57.8315 88.1479 57.612 87.9363C55.2363 85.565 52.0167 84.2332 48.6601 84.2332C45.3034 84.2332 42.0838 85.565 39.7081 87.9363C39.4906 88.1468 39.199 88.2632 38.8964 88.2605C38.5938 88.2577 38.3044 88.136 38.0908 87.9216C37.8772 87.7072 37.7565 87.4174 37.7549 87.1148C37.7533 86.8121 37.8708 86.521 38.0821 86.3043C40.8927 83.5087 44.6958 81.9395 48.6601 81.9395C52.6243 81.9395 56.4274 83.5087 59.2381 86.3043C59.3994 86.4651 59.5094 86.6701 59.5543 86.8933C59.5992 87.1166 59.5769 87.3482 59.4902 87.5588C59.4035 87.7694 59.2563 87.9496 59.0673 88.0766C58.8782 88.2036 58.6558 88.2717 58.428 88.2723Z" fill="#4EB9F8"/>
<path d="M55.3626 91.3382C55.2107 91.3378 55.0605 91.3074 54.9204 91.2487C54.7804 91.19 54.6533 91.1042 54.5466 90.9962C52.985 89.4361 50.8679 88.5598 48.6606 88.5598C46.4532 88.5598 44.3362 89.4361 42.7746 90.9962C42.6766 91.1283 42.5515 91.2379 42.4076 91.3177C42.2637 91.3974 42.1044 91.4454 41.9404 91.4584C41.7765 91.4714 41.6116 91.4492 41.4569 91.3931C41.3023 91.3371 41.1614 91.2486 41.0438 91.1336C40.9262 91.0186 40.8346 90.8797 40.7752 90.7264C40.7157 90.573 40.6898 90.4087 40.6991 90.2445C40.7085 90.0802 40.7529 89.9199 40.8294 89.7743C40.9059 89.6287 41.0127 89.5011 41.1426 89.4002C42.1299 88.4129 43.3019 87.6298 44.5919 87.0955C45.8818 86.5611 47.2644 86.2861 48.6606 86.2861C50.0568 86.2861 51.4394 86.5611 52.7293 87.0955C54.0192 87.6298 55.1913 88.4129 56.1786 89.4002C56.3374 89.5624 56.445 89.7677 56.4881 89.9906C56.5311 90.2135 56.5077 90.4441 56.4208 90.6538C56.3338 90.8635 56.1872 91.043 55.999 91.17C55.8109 91.297 55.5896 91.366 55.3626 91.3682V91.3382Z" fill="#4EB9F8"/>
<path d="M52.6802 94.0203C52.5285 94.0224 52.378 93.9937 52.2377 93.9359C52.0975 93.8782 51.9704 93.7926 51.8642 93.6843C51.013 92.8372 49.861 92.3616 48.6602 92.3616C47.4593 92.3616 46.3073 92.8372 45.4562 93.6843C45.2364 93.8782 44.951 93.9811 44.658 93.9719C44.3651 93.9628 44.0866 93.8423 43.8794 93.6351C43.6722 93.4278 43.5517 93.1494 43.5426 92.8564C43.5334 92.5635 43.6363 92.2781 43.8302 92.0583C45.1124 90.7796 46.8493 90.0615 48.6602 90.0615C50.471 90.0615 52.208 90.7796 53.4902 92.0583C53.5974 92.1648 53.6825 92.2915 53.7405 92.431C53.7986 92.5705 53.8285 92.7202 53.8285 92.8713C53.8285 93.0224 53.7986 93.1721 53.7405 93.3116C53.6825 93.4511 53.5974 93.5778 53.4902 93.6843C53.3846 93.7918 53.2585 93.877 53.1194 93.9347C52.9802 93.9925 52.8308 94.0216 52.6802 94.0203Z" fill="#4EB9F8"/>
</svg>
