<svg width="300" height="300" viewBox="0 0 300 300" fill="none" xmlns="http://www.w3.org/2000/svg">
<path d="M5.6582 275.04H295.8" stroke="#263238" stroke-linejoin="round"/>
<path d="M126.685 192.732C126.685 192.732 126.889 218.058 126.889 224.748C126.889 231.438 126.685 260.502 126.685 260.502" stroke="#263238" stroke-width="3" stroke-linecap="round" stroke-linejoin="round"/>
<path d="M141.882 199.218L135.6 193.95L153.228 195.978L137.628 190.908L153.636 188.07H135.6L149.58 177.534L133.776 185.436L142.896 169.836L130.74 183.816L134.994 163.35L127.092 182.4L126.282 161.124L124.662 182.802L116.04 163.65L122.028 184.626L109.128 170.562L120.408 187.872L104.442 176.484L119.394 190.908L102.468 181.662L117.972 192.126L103.95 190.296L117.57 194.154L106.662 195.972L117.972 195.57L111.288 200.028L127.092 195.774L141.882 199.218Z" fill="#4EB9F8"/>
<path d="M120.6 218.262C120.6 218.262 120 223.53 120.402 225.558C120.828 227.897 121.029 230.272 121.002 232.65C121.002 235.284 121.206 235.488 121.206 237.312C121.206 239.136 121.002 254.628 121.002 256.044V260.904" stroke="#263238" stroke-width="3" stroke-linecap="round" stroke-linejoin="round"/>
<path d="M121.2 235.284C121.2 235.284 122.01 230.826 122.82 228.798C123.63 226.77 124.236 227.382 124.44 224.952C124.644 222.522 124.644 221.508 125.04 220.692C125.364 219.97 125.635 219.226 125.85 218.466L126.258 216.846" stroke="#263238" stroke-width="3" stroke-linecap="round" stroke-linejoin="round"/>
<path d="M135.6 223.53L129.318 218.262L146.946 220.29L131.346 215.226L147.354 212.388H129.318L143.304 201.852L127.5 209.754L136.614 194.154L124.458 208.134L128.712 187.668L120.81 206.712L120 185.436L118.38 207.12L112.098 187.464L115.746 208.944L104.604 192.936L114.126 212.184L99.5041 202.632L113.112 215.226L98.0281 209.052L111.69 216.438L97.5361 215.214L111.288 218.466L101.73 220.644L111.69 219.882L105.006 224.34L120.81 220.086L135.6 223.53Z" fill="#4EB9F8"/>
<path d="M115.056 255.168L110.718 262.368C110.39 262.919 110.175 263.529 110.086 264.164C109.998 264.799 110.037 265.445 110.202 266.064L112.128 273.264C112.266 273.772 112.568 274.221 112.987 274.541C113.405 274.861 113.917 275.034 114.444 275.034H134.196C134.722 275.033 135.233 274.859 135.65 274.539C136.067 274.219 136.368 273.771 136.506 273.264L138.438 266.064C138.602 265.444 138.641 264.798 138.551 264.163C138.461 263.528 138.245 262.918 137.916 262.368L133.584 255.168C133.438 254.925 133.231 254.723 132.984 254.583C132.737 254.444 132.458 254.37 132.174 254.37H116.46C116.177 254.37 115.899 254.443 115.652 254.583C115.406 254.723 115.201 254.925 115.056 255.168Z" fill="white" stroke="#263238" stroke-linejoin="round"/>
<path d="M18.2577 78.2344H97.9137C98.0887 78.2344 98.2566 78.3039 98.3803 78.4277C98.5041 78.5515 98.5736 78.7193 98.5736 78.8944V273.942C98.5736 274.234 98.458 274.513 98.252 274.719C98.0461 274.925 97.7669 275.04 97.4757 275.04H18.6957C18.4044 275.04 18.1252 274.925 17.9193 274.719C17.7133 274.513 17.5977 274.234 17.5977 273.942V78.8944C17.5977 78.7193 17.6672 78.5515 17.791 78.4277C17.9147 78.3039 18.0826 78.2344 18.2577 78.2344Z" stroke="#263238" stroke-linejoin="round"/>
<path d="M58.0859 177.426V274.836" stroke="#263238" stroke-linejoin="round"/>
<path d="M58.0859 78.0303V173.952" stroke="#263238" stroke-linejoin="round"/>
<path d="M22.9621 177.367H94.8001C95.2329 177.367 95.648 177.195 95.9541 176.889C96.2601 176.582 96.4321 176.167 96.4321 175.735C96.4321 175.52 96.3899 175.308 96.3078 175.11C96.2258 174.912 96.1056 174.732 95.9541 174.581C95.8025 174.429 95.6226 174.309 95.4246 174.227C95.2266 174.145 95.0144 174.103 94.8001 174.103H22.9621C22.7478 174.103 22.5355 174.145 22.3375 174.227C22.1395 174.309 21.9596 174.429 21.8081 174.581C21.6565 174.732 21.5363 174.912 21.4543 175.11C21.3723 175.308 21.3301 175.52 21.3301 175.735C21.3301 176.167 21.502 176.582 21.8081 176.889C22.1141 177.195 22.5292 177.367 22.9621 177.367Z" stroke="#263238" stroke-linejoin="round"/>
<path d="M90.0895 97.1523H67.0195V141.924H90.0895V97.1523Z" stroke="#263238" stroke-linejoin="round"/>
<path d="M88.284 100.662H68.832V125.13H88.284V100.662Z" stroke="#263238" stroke-linejoin="round"/>
<path d="M71.7474 127.836H68.9814V130.692H71.7474V127.836Z" stroke="#263238" stroke-linejoin="round"/>
<path d="M75.9056 127.836H73.1396V130.692H75.9056V127.836Z" stroke="#263238" stroke-linejoin="round"/>
<path d="M80.058 127.836H77.292V130.692H80.058V127.836Z" stroke="#263238" stroke-linejoin="round"/>
<path d="M84.2094 127.836H81.4434V130.692H84.2094V127.836Z" stroke="#263238" stroke-linejoin="round"/>
<path d="M88.3617 127.836H85.5957V130.692H88.3617V127.836Z" stroke="#263238" stroke-linejoin="round"/>
<path d="M71.7474 132.427H68.9814V135.283H71.7474V132.427Z" stroke="#263238" stroke-linejoin="round"/>
<path d="M75.9056 132.427H73.1396V135.283H75.9056V132.427Z" stroke="#263238" stroke-linejoin="round"/>
<path d="M80.058 132.427H77.292V135.283H80.058V132.427Z" stroke="#263238" stroke-linejoin="round"/>
<path d="M84.2094 132.427H81.4434V135.283H84.2094V132.427Z" stroke="#263238" stroke-linejoin="round"/>
<path d="M88.3617 132.427H85.5957V135.283H88.3617V132.427Z" stroke="#263238" stroke-linejoin="round"/>
<path d="M46.9197 130.807H26.3457V160.447H46.9197V130.807Z" stroke="#263238" stroke-linejoin="round"/>
<path d="M43.1881 130.807H30.0781V160.447H43.1881V130.807Z" stroke="#263238" stroke-linejoin="round"/>
<path d="M43.1881 130.807H30.0781V139.981H43.1881V130.807Z" stroke="#263238" stroke-linejoin="round"/>
<path d="M227.64 60H115.35C113.47 54.4107 112.496 48.5568 112.464 42.66L112.41 32.79C112.412 32.0505 112.706 31.3418 113.229 30.8189C113.752 30.296 114.461 30.0016 115.2 30H227.784C228.152 30 228.516 30.0727 228.856 30.2141C229.196 30.3554 229.504 30.5625 229.763 30.8235C230.023 31.0845 230.228 31.3942 230.367 31.7348C230.506 32.0754 230.577 32.4401 230.574 32.808L230.508 42.822C230.471 48.4603 229.568 54.0595 227.832 59.424L227.64 60Z" stroke="#263238" stroke-linejoin="round"/>
<path d="M220.386 55.4404H122.604V60.0244H220.386V55.4404Z" stroke="#263238" stroke-linejoin="round"/>
<path d="M200.202 69.6543C201.22 69.6552 202.227 69.4421 203.157 69.0286C204.088 68.6151 204.921 68.0106 205.602 67.2543L203.988 65.4543C203.505 66.0357 202.894 66.4976 202.203 66.8036C201.511 67.1097 200.759 67.2517 200.003 67.2186C199.248 67.1855 198.511 66.9781 197.849 66.6127C197.187 66.2473 196.619 65.7338 196.188 65.1123L194.49 66.8463C195.168 67.7155 196.035 68.4197 197.024 68.906C198.013 69.3924 199.1 69.6482 200.202 69.6543Z" fill="#4EB9F8"/>
<path d="M200.202 65.856C200.75 65.8546 201.291 65.7247 201.779 65.4767C202.268 65.2287 202.692 64.8695 203.016 64.428L201.288 62.52C201.247 62.7968 201.103 63.0477 200.884 63.2219C200.665 63.3962 200.388 63.4808 200.109 63.4587C199.83 63.4366 199.57 63.3094 199.381 63.1029C199.193 62.8963 199.089 62.6258 199.092 62.346C199.083 62.2723 199.083 62.1977 199.092 62.124L197.148 64.11C197.459 64.644 197.905 65.0867 198.441 65.3932C198.977 65.6998 199.585 65.8594 200.202 65.856Z" fill="#4EB9F8"/>
<path d="M200.058 61.1582L199.95 61.2726C200.011 61.2567 200.073 61.2466 200.136 61.2425L200.058 61.1582Z" fill="#90CAF9"/>
<path d="M209.184 71.244C207.968 72.479 206.511 73.45 204.903 74.0963C203.296 74.7426 201.572 75.0503 199.84 75.0002C198.107 74.95 196.404 74.5432 194.837 73.805C193.269 73.0668 191.87 72.0132 190.728 70.71L189.042 72.438C190.402 73.9524 192.056 75.1741 193.904 76.0288C195.751 76.8835 197.753 77.3532 199.788 77.4093C201.823 77.4654 203.848 77.1068 205.74 76.3553C207.631 75.6038 209.35 74.4751 210.792 73.038L209.184 71.244Z" fill="#4EB9F8"/>
<path d="M200.202 73.7282C201.717 73.7288 203.216 73.426 204.611 72.8375C206.006 72.2491 207.27 71.387 208.326 70.3022L206.712 68.5022C205.842 69.4258 204.785 70.154 203.612 70.6385C202.439 71.123 201.177 71.3527 199.908 71.3124C198.64 71.2722 197.394 70.9628 196.254 70.4049C195.115 69.847 194.106 69.0532 193.296 68.0762L191.616 69.7922C192.681 71.0258 193.999 72.0158 195.481 72.695C196.962 73.3741 198.572 73.7265 200.202 73.7282Z" fill="#4EB9F8"/>
<path d="M262.915 233.49H202.687V240.966H262.915V233.49Z" stroke="#263238" stroke-linejoin="round"/>
<path d="M289.11 240.954H176.484V275.04H289.11V240.954Z" stroke="#263238" stroke-linejoin="round"/>
<path d="M286.11 243.132H179.484V272.862H286.11V243.132Z" stroke="#263238" stroke-linejoin="round"/>
<path d="M215.088 242.994V272.844" stroke="#263238" stroke-linejoin="round"/>
<path d="M250.021 242.994V272.844" stroke="#263238" stroke-linejoin="round"/>
<path d="M199.771 219.672H184.561V240.966H199.771V219.672Z" stroke="#263238" stroke-linejoin="round"/>
<path d="M280.759 219.672H265.549V240.966H280.759V219.672Z" stroke="#263238" stroke-linejoin="round"/>
<path d="M233.94 223.89C232.922 223.89 231.916 224.104 230.986 224.517C230.055 224.93 229.222 225.534 228.54 226.29L230.154 228.09C230.637 227.507 231.248 227.045 231.94 226.739C232.632 226.432 233.385 226.291 234.141 226.324C234.896 226.358 235.634 226.566 236.296 226.933C236.957 227.3 237.525 227.815 237.954 228.438L239.652 226.698C238.974 225.829 238.107 225.125 237.118 224.639C236.129 224.152 235.042 223.896 233.94 223.89Z" fill="#4EB9F8"/>
<path d="M233.94 227.694C233.392 227.695 232.851 227.824 232.361 228.071C231.872 228.318 231.447 228.676 231.12 229.116L232.848 231.024C232.889 230.748 233.034 230.497 233.253 230.322C233.472 230.148 233.748 230.064 234.027 230.086C234.306 230.108 234.566 230.235 234.755 230.442C234.944 230.648 235.047 230.919 235.044 231.198C235.053 231.272 235.053 231.347 235.044 231.42L236.988 229.434C236.677 228.902 236.232 228.462 235.697 228.156C235.162 227.851 234.556 227.691 233.94 227.694Z" fill="#4EB9F8"/>
<path d="M234.078 232.387L234.186 232.278C234.124 232.285 234.062 232.285 234 232.278L234.078 232.387Z" fill="#90CAF9"/>
<path d="M224.959 222.3C226.174 221.066 227.631 220.096 229.238 219.45C230.846 218.804 232.569 218.497 234.3 218.547C236.031 218.597 237.734 219.004 239.301 219.741C240.868 220.479 242.267 221.532 243.409 222.834L245.095 221.106C243.732 219.595 242.077 218.377 240.23 217.525C238.383 216.673 236.382 216.204 234.348 216.148C232.315 216.092 230.291 216.45 228.399 217.199C226.508 217.948 224.788 219.073 223.345 220.506L224.959 222.3Z" fill="#4EB9F8"/>
<path d="M233.941 219.816C232.425 219.817 230.925 220.121 229.528 220.71C228.132 221.3 226.868 222.163 225.811 223.248L227.425 225.048C228.295 224.124 229.352 223.396 230.525 222.911C231.698 222.427 232.961 222.197 234.23 222.238C235.499 222.279 236.744 222.589 237.884 223.148C239.024 223.707 240.032 224.502 240.841 225.48L242.521 223.764C241.457 222.529 240.141 221.538 238.66 220.856C237.18 220.175 235.57 219.82 233.941 219.816Z" fill="#4EB9F8"/>
<path d="M285.863 43.1333C285.863 43.8216 285.659 44.4944 285.277 45.0667C284.894 45.639 284.351 46.085 283.715 46.3484C283.079 46.6118 282.379 46.6807 281.704 46.5465C281.029 46.4122 280.409 46.0807 279.923 45.5941C279.436 45.1074 279.104 44.4873 278.97 43.8122C278.836 43.1372 278.905 42.4375 279.168 41.8016C279.432 41.1657 279.878 40.6222 280.45 40.2398C281.022 39.8574 281.695 39.6533 282.383 39.6533C283.306 39.6533 284.191 40.02 284.844 40.6726C285.497 41.3252 285.863 42.2104 285.863 43.1333Z" stroke="#263238" stroke-linejoin="round"/>
<path d="M291 68.8923H273.72V55.2543C273.72 54.1196 273.943 52.9961 274.377 51.9479C274.812 50.8996 275.448 49.9472 276.25 49.1449C277.053 48.3426 278.005 47.7061 279.053 47.2719C280.102 46.8377 281.225 46.6143 282.36 46.6143C283.494 46.6143 284.618 46.8377 285.666 47.2719C286.714 47.7061 287.667 48.3426 288.469 49.1449C289.271 49.9472 289.908 50.8996 290.342 51.9479C290.776 52.9961 291 54.1196 291 55.2543V68.8923Z" stroke="#263238" stroke-linejoin="round"/>
<path d="M282.384 39.6538V22.7998" stroke="#263238" stroke-width="2" stroke-linejoin="round"/>
<path d="M53.712 43.1333C53.712 43.8216 53.5079 44.4944 53.1255 45.0667C52.7431 45.639 52.1996 46.085 51.5637 46.3484C50.9278 46.6118 50.2281 46.6807 49.553 46.5465C48.878 46.4122 48.2579 46.0807 47.7712 45.5941C47.2845 45.1074 46.9531 44.4873 46.8188 43.8122C46.6845 43.1372 46.7535 42.4375 47.0169 41.8016C47.2802 41.1657 47.7263 40.6222 48.2986 40.2398C48.8709 39.8574 49.5437 39.6533 50.232 39.6533C51.1549 39.6533 52.0401 40.02 52.6927 40.6726C53.3453 41.3252 53.712 42.2104 53.712 43.1333Z" stroke="#263238" stroke-linejoin="round"/>
<path d="M58.8718 68.8923H41.5918V55.2543C41.5918 54.1196 41.8153 52.9961 42.2495 51.9479C42.6837 50.8996 43.3201 49.9472 44.1224 49.1449C44.9247 48.3426 45.8772 47.7061 46.9254 47.2719C47.9737 46.8377 49.0972 46.6143 50.2318 46.6143C51.3664 46.6143 52.4899 46.8377 53.5382 47.2719C54.5864 47.7061 55.5389 48.3426 56.3412 49.1449C57.1435 49.9472 57.7799 50.8996 58.2141 51.9479C58.6483 52.9961 58.8718 54.1196 58.8718 55.2543V68.8923Z" stroke="#263238" stroke-linejoin="round"/>
<path d="M50.2314 39.6538V22.7998" stroke="#263238" stroke-width="2" stroke-linejoin="round"/>
<path d="M70.6982 66.1979C70.6981 65.18 70.4844 64.1735 70.071 63.2433C69.6576 62.3132 69.0537 61.4801 68.2982 60.7979L66.4982 62.4118C67.0808 62.8944 67.5436 63.5053 67.8504 64.1967C68.1572 64.8881 68.2996 65.6412 68.2665 66.3969C68.2333 67.1526 68.0255 67.8903 67.6594 68.5522C67.2933 69.2141 66.7788 69.7822 66.1562 70.2118L67.8902 71.9038C68.759 71.2267 69.4629 70.3615 69.9493 69.3732C70.4356 68.3849 70.6917 67.2993 70.6982 66.1979Z" fill="#4EB9F8"/>
<path d="M66.8941 66.1979C66.8927 65.649 66.7628 65.1081 66.5149 64.6184C66.2669 64.1287 65.9077 63.7039 65.4661 63.3779L63.5581 65.1059C63.8289 65.1549 64.0718 65.3028 64.2397 65.5207C64.4077 65.7387 64.4886 66.0113 64.467 66.2856C64.4453 66.5599 64.3225 66.8164 64.1224 67.0053C63.9223 67.1942 63.6592 67.3021 63.3841 67.3079C63.3102 67.3138 63.236 67.3138 63.1621 67.3079L65.1541 69.2459C65.6865 68.9357 66.1277 68.4906 66.4332 67.9555C66.7387 67.4203 66.8977 66.8141 66.8941 66.1979Z" fill="#4EB9F8"/>
<path d="M62.1953 66.3358L62.3093 66.4438C62.3002 66.3821 62.3002 66.3195 62.3093 66.2578L62.1953 66.3358Z" fill="#90CAF9"/>
<path d="M72.288 57.2156C73.5217 58.4314 74.4914 59.8886 75.1367 61.4961C75.7819 63.1036 76.0887 64.8268 76.0381 66.5582C75.9874 68.2896 75.5803 69.992 74.8421 71.559C74.104 73.126 73.0507 74.5239 71.748 75.6656L73.476 77.3576C74.9869 75.9945 76.2053 74.339 77.0576 72.4913C77.9099 70.6436 78.3782 68.6421 78.4343 66.608C78.4904 64.574 78.1331 62.5497 77.3839 60.6578C76.6348 58.766 75.5094 57.0458 74.076 55.6016L72.288 57.2156Z" fill="#4EB9F8"/>
<path d="M74.7714 66.1974C74.7711 64.6818 74.4672 63.1816 73.8778 61.7852C73.2883 60.3889 72.4252 59.1248 71.3394 58.0674L69.5394 59.6814C70.4637 60.5522 71.1924 61.6095 71.6769 62.7833C72.1615 63.9571 72.391 65.2206 72.3501 66.4898C72.3093 67.759 71.999 69.0051 71.44 70.1453C70.8809 71.2855 70.0858 72.2938 69.1074 73.1034L70.8234 74.7774C72.0591 73.7147 73.0514 72.3983 73.7326 70.9177C74.4139 69.4371 74.7682 67.8272 74.7714 66.1974Z" fill="#4EB9F8"/>
<path d="M284.61 102.33H184.266V169.614H284.61V102.33Z" stroke="#263238" stroke-linejoin="round"/>
<path d="M281.885 105.168H186.989V166.77H281.885V105.168Z" stroke="#263238" stroke-linejoin="round"/>
<path d="M233.94 93.0898C232.922 93.09 231.916 93.3037 230.986 93.7171C230.055 94.1305 229.222 94.7344 228.54 95.4898L230.154 97.2898C230.637 96.7076 231.248 96.2452 231.94 95.9389C232.632 95.6327 233.385 95.4908 234.141 95.5245C234.896 95.5582 235.634 95.7666 236.296 96.1333C236.957 96.4999 237.525 97.0149 237.954 97.6378L239.652 95.8978C238.974 95.029 238.107 94.325 237.118 93.8387C236.129 93.3524 235.042 93.0964 233.94 93.0898Z" fill="#4EB9F8"/>
<path d="M233.94 96.8946C233.392 96.8953 232.851 97.0242 232.361 97.2711C231.872 97.518 231.447 97.8761 231.12 98.3166L232.848 100.225C232.889 99.9478 233.034 99.6969 233.253 99.5227C233.472 99.3484 233.748 99.2638 234.027 99.2859C234.306 99.308 234.566 99.4352 234.755 99.6417C234.944 99.8483 235.047 100.119 235.044 100.399C235.053 100.472 235.053 100.547 235.044 100.621L236.988 98.6346C236.677 98.1026 236.232 97.6617 235.697 97.3563C235.162 97.0508 234.556 96.8916 233.94 96.8946Z" fill="#4EB9F8"/>
<path d="M234.078 101.587L234.186 101.479H234L234.078 101.587Z" fill="#90CAF9"/>
<path d="M224.958 91.5003C226.173 90.2663 227.63 89.2961 229.237 88.6504C230.845 88.0046 232.568 87.6972 234.299 87.7473C236.031 87.7975 237.733 88.204 239.3 88.9416C240.867 89.6792 242.266 90.732 243.408 92.0343L245.094 90.3063C243.731 88.7957 242.076 87.5773 240.229 86.7251C238.382 85.8729 236.381 85.4046 234.347 85.3485C232.314 85.2924 230.29 85.6497 228.399 86.3988C226.507 87.1478 224.787 88.2731 223.344 89.7063L224.958 91.5003Z" fill="#4EB9F8"/>
<path d="M233.94 89.0166C232.424 89.017 230.924 89.3208 229.527 89.9103C228.131 90.4997 226.867 91.3628 225.81 92.4486L227.424 94.2486C228.294 93.3244 229.351 92.5959 230.524 92.1113C231.697 91.6268 232.96 91.3974 234.229 91.4382C235.498 91.4791 236.743 91.7893 237.883 92.3483C239.023 92.9073 240.031 93.7023 240.84 94.6806L242.52 92.9646C241.456 91.7295 240.14 90.7377 238.659 90.0565C237.179 89.3753 235.569 89.0206 233.94 89.0166Z" fill="#4EB9F8"/>
<path d="M141.99 88.1875L141.828 130.818L116.55 97.9195" stroke="#263238" stroke-miterlimit="10" stroke-dasharray="2 2"/>
<path d="M104.646 140.903L140.646 131.201L104.454 117.479" stroke="#263238" stroke-miterlimit="10" stroke-dasharray="2 2"/>
<path d="M140.64 131.202L119.574 158.622" stroke="#263238" stroke-miterlimit="10" stroke-dasharray="2 2"/>
<path d="M142.801 89.7598H142.2" stroke="#263238" stroke-miterlimit="10"/>
<path d="M141 89.7715C140.154 89.7715 139.296 89.8435 138.438 89.9215C130.44 90.6608 122.866 93.8545 116.753 99.0653C110.641 104.276 106.289 111.249 104.293 119.029C102.297 126.81 102.755 135.017 105.605 142.526C108.454 150.036 113.555 156.481 120.21 160.979" stroke="#263238" stroke-miterlimit="10" stroke-dasharray="2.01 2.01"/>
<path d="M120.714 161.31L121.218 161.64" stroke="#263238" stroke-miterlimit="10"/>
<path d="M113.268 118.134C113.269 116.458 112.774 114.82 111.843 113.426C110.913 112.032 109.59 110.945 108.042 110.303C106.495 109.661 104.791 109.492 103.147 109.818C101.503 110.145 99.9932 110.951 98.8077 112.136C97.6223 113.32 96.8148 114.83 96.4874 116.473C96.1601 118.117 96.3275 119.821 96.9685 121.369C97.6096 122.917 98.6955 124.241 100.089 125.172C101.482 126.103 103.12 126.6 104.796 126.6C105.909 126.602 107.011 126.384 108.039 125.959C109.067 125.534 110.001 124.911 110.788 124.125C111.575 123.338 112.199 122.404 112.625 121.376C113.05 120.348 113.269 119.247 113.268 118.134Z" fill="#4EB9F8"/>
<path d="M104.892 123.504C104.38 123.499 103.88 123.346 103.454 123.063C103.028 122.779 102.693 122.378 102.492 121.908C102.492 121.86 102.45 121.794 102.426 121.728L102.384 121.602C102.096 120.714 101.73 119.802 101.67 119.676C101.372 119.179 101.193 118.621 101.148 118.044C101.103 117.467 101.193 116.887 101.41 116.351C101.628 115.814 101.967 115.336 102.402 114.953C102.836 114.571 103.353 114.294 103.913 114.146C104.472 113.998 105.059 113.982 105.626 114.099C106.192 114.216 106.724 114.464 107.179 114.822C107.633 115.181 107.998 115.64 108.245 116.163C108.492 116.687 108.613 117.261 108.6 117.84C108.589 118.401 108.462 118.955 108.228 119.466C108.132 119.694 108.024 119.91 107.916 120.132C107.771 120.395 107.646 120.67 107.544 120.954C107.504 121.074 107.468 121.194 107.436 121.314C107.36 121.607 107.251 121.891 107.112 122.16C106.897 122.563 106.578 122.901 106.187 123.138C105.796 123.374 105.349 123.501 104.892 123.504ZM104.892 114.918C104.122 114.927 103.388 115.239 102.847 115.786C102.305 116.332 102.001 117.07 102 117.84C102.002 118.353 102.137 118.857 102.39 119.304V119.346C102.39 119.388 102.816 120.354 103.146 121.368C103.146 121.41 103.146 121.44 103.176 121.47C103.188 121.504 103.202 121.538 103.218 121.572C103.356 121.905 103.59 122.19 103.89 122.391C104.19 122.591 104.543 122.699 104.904 122.7C105.222 122.701 105.535 122.615 105.807 122.45C106.079 122.284 106.3 122.047 106.446 121.764C106.554 121.55 106.637 121.325 106.692 121.092C106.728 120.96 106.77 120.828 106.818 120.69C106.932 120.372 107.071 120.063 107.232 119.766C107.328 119.568 107.43 119.364 107.52 119.166C107.708 118.752 107.812 118.306 107.826 117.852C107.827 117.466 107.753 117.085 107.606 116.728C107.46 116.372 107.244 116.048 106.972 115.775C106.7 115.503 106.377 115.287 106.021 115.139C105.665 114.992 105.283 114.917 104.898 114.918H104.892Z" fill="#263238"/>
<path d="M104.904 113.892C104.797 113.892 104.694 113.85 104.618 113.775C104.541 113.7 104.498 113.597 104.496 113.49V111.6C104.496 111.494 104.538 111.391 104.614 111.316C104.689 111.241 104.791 111.198 104.898 111.198C105.005 111.198 105.107 111.241 105.182 111.316C105.258 111.391 105.3 111.494 105.3 111.6V113.466C105.303 113.521 105.296 113.575 105.277 113.626C105.259 113.677 105.23 113.724 105.193 113.764C105.156 113.804 105.112 113.836 105.062 113.858C105.012 113.88 104.958 113.892 104.904 113.892Z" fill="#263238"/>
<path d="M100.41 118.23H98.9524C98.8534 118.218 98.7624 118.17 98.6963 118.095C98.6302 118.021 98.5938 117.925 98.5938 117.825C98.5938 117.725 98.6302 117.629 98.6963 117.555C98.7624 117.48 98.8534 117.432 98.9524 117.42H100.416C100.474 117.413 100.532 117.418 100.587 117.435C100.642 117.453 100.693 117.481 100.736 117.52C100.779 117.558 100.814 117.605 100.838 117.657C100.861 117.71 100.874 117.767 100.874 117.825C100.874 117.883 100.861 117.94 100.838 117.992C100.814 118.045 100.779 118.092 100.736 118.13C100.693 118.169 100.642 118.197 100.587 118.215C100.532 118.232 100.474 118.237 100.416 118.23H100.41Z" fill="#263238"/>
<path d="M110.748 118.236H109.284C109.177 118.236 109.075 118.193 109 118.118C108.924 118.043 108.882 117.94 108.882 117.834C108.882 117.727 108.924 117.625 109 117.549C109.075 117.474 109.177 117.432 109.284 117.432H110.748C110.854 117.432 110.957 117.474 111.032 117.549C111.107 117.625 111.15 117.727 111.15 117.834C111.148 117.94 111.105 118.041 111.03 118.116C110.955 118.191 110.854 118.234 110.748 118.236Z" fill="#263238"/>
<path d="M101.472 114.9C101.42 114.901 101.368 114.891 101.32 114.871C101.271 114.852 101.227 114.823 101.19 114.786L100.026 113.622C99.9837 113.585 99.9499 113.538 99.9267 113.487C99.9036 113.435 99.8916 113.379 99.8916 113.322C99.8916 113.266 99.9036 113.21 99.9267 113.158C99.9499 113.106 99.9837 113.06 100.026 113.022C100.102 112.948 100.205 112.906 100.311 112.906C100.418 112.906 100.52 112.948 100.596 113.022L101.754 114.186C101.81 114.243 101.847 114.315 101.862 114.393C101.877 114.471 101.869 114.551 101.838 114.624C101.807 114.697 101.755 114.76 101.689 114.804C101.623 114.847 101.545 114.871 101.466 114.87L101.472 114.9Z" fill="#263238"/>
<path d="M108.432 114.906C108.324 114.905 108.221 114.862 108.144 114.786C108.07 114.709 108.028 114.607 108.028 114.501C108.028 114.394 108.07 114.292 108.144 114.216L109.308 113.058C109.384 112.982 109.486 112.939 109.593 112.939C109.7 112.939 109.803 112.982 109.878 113.058C109.954 113.133 109.996 113.236 109.996 113.343C109.996 113.449 109.954 113.552 109.878 113.628L108.714 114.786C108.64 114.861 108.539 114.904 108.432 114.906Z" fill="#263238"/>
<path d="M126.384 99.4617C126.398 97.7859 125.915 96.1436 124.996 94.7424C124.077 93.3413 122.762 92.2442 121.219 91.5901C119.677 90.9359 117.974 90.754 116.328 91.0674C114.682 91.3809 113.165 92.1755 111.971 93.3508C110.776 94.5261 109.957 96.0292 109.617 97.6702C109.277 99.3111 109.431 101.016 110.06 102.569C110.689 104.123 111.764 105.455 113.15 106.397C114.536 107.339 116.17 107.849 117.846 107.862C120.092 107.879 122.253 107.004 123.854 105.429C125.455 103.854 126.365 101.708 126.384 99.4617Z" fill="#4EB9F8"/>
<path d="M117.9 104.172C116.815 104.137 115.774 103.734 114.947 103.031C114.12 102.327 113.556 101.364 113.348 100.299C113.139 99.2332 113.297 98.1285 113.797 97.1647C114.297 96.201 115.109 95.4352 116.1 94.9924C116.183 94.9487 116.275 94.9229 116.369 94.9166C116.463 94.9102 116.557 94.9236 116.646 94.9557C116.734 94.9879 116.815 95.0381 116.883 95.1032C116.951 95.1683 117.005 95.2469 117.041 95.334C117.077 95.421 117.095 95.5146 117.092 95.6088C117.09 95.703 117.068 95.7956 117.028 95.8809C116.988 95.9662 116.931 96.0422 116.86 96.1041C116.789 96.166 116.706 96.2124 116.616 96.2404C115.893 96.5364 115.292 97.0707 114.914 97.7549C114.537 98.439 114.404 99.2318 114.539 100.002C114.673 100.772 115.067 101.472 115.655 101.987C116.242 102.503 116.989 102.801 117.77 102.834C118.55 102.867 119.319 102.632 119.948 102.168C120.577 101.704 121.028 101.039 121.227 100.283C121.425 99.5268 121.36 98.7257 121.041 98.0123C120.722 97.2989 120.168 96.716 119.472 96.3604C119.339 96.2673 119.243 96.1292 119.203 95.9715C119.163 95.8137 119.181 95.6468 119.254 95.5012C119.326 95.3556 119.449 95.2411 119.599 95.1785C119.75 95.116 119.917 95.1095 120.072 95.1604C120.995 95.6705 121.725 96.4704 122.148 97.4365C122.571 98.4026 122.664 99.4812 122.412 100.505C122.161 101.53 121.579 102.443 120.757 103.103C119.935 103.764 118.918 104.136 117.864 104.16L117.9 104.172Z" fill="#263238"/>
<path d="M117.942 98.5917C117.764 98.5885 117.593 98.5149 117.469 98.3868C117.344 98.2587 117.275 98.0865 117.276 97.9077V93.8157C117.276 93.6359 117.348 93.4634 117.475 93.3363C117.602 93.2091 117.775 93.1377 117.954 93.1377C118.134 93.1377 118.307 93.2091 118.434 93.3363C118.561 93.4634 118.632 93.6359 118.632 93.8157L118.596 97.9137C118.597 98.0894 118.528 98.2583 118.406 98.3848C118.284 98.5113 118.118 98.5855 117.942 98.5917Z" fill="#263238"/>
<path d="M123.372 167.237C127.556 165.144 129.251 160.054 127.158 155.87C125.064 151.686 119.975 149.991 115.79 152.084C111.606 154.178 109.911 159.267 112.005 163.452C114.098 167.636 119.188 169.331 123.372 167.237Z" fill="#4EB9F8"/>
<path d="M122.364 157.356H119.55V155.736C119.55 155.136 119.313 154.561 118.89 154.136C118.468 153.711 117.894 153.471 117.294 153.468H117.168C116.872 153.466 116.577 153.523 116.303 153.636C116.028 153.748 115.778 153.913 115.568 154.122C115.357 154.331 115.189 154.58 115.075 154.854C114.961 155.127 114.901 155.421 114.9 155.718V157.77C114.9 157.876 114.943 157.979 115.018 158.054C115.094 158.129 115.196 158.172 115.302 158.172C115.409 158.172 115.511 158.129 115.587 158.054C115.662 157.979 115.704 157.876 115.704 157.77V155.718C115.708 155.333 115.863 154.965 116.136 154.695C116.409 154.424 116.778 154.272 117.162 154.272H117.294C117.679 154.275 118.047 154.43 118.318 154.703C118.588 154.976 118.74 155.345 118.74 155.73V157.35H117.474C117.231 157.35 116.997 157.447 116.825 157.619C116.653 157.791 116.556 158.024 116.556 158.268V163.152C116.556 163.272 116.579 163.392 116.624 163.504C116.669 163.615 116.736 163.717 116.821 163.803C116.906 163.889 117.006 163.957 117.118 164.004C117.229 164.05 117.348 164.075 117.468 164.076H122.358C122.602 164.076 122.835 163.979 123.008 163.807C123.18 163.635 123.276 163.401 123.276 163.158V158.274C123.275 158.032 123.178 157.8 123.008 157.629C122.837 157.457 122.606 157.359 122.364 157.356ZM122.454 163.164C122.454 163.179 122.451 163.193 122.446 163.207C122.44 163.22 122.431 163.232 122.421 163.242C122.41 163.252 122.397 163.26 122.384 163.265C122.37 163.27 122.355 163.273 122.34 163.272H117.456C117.427 163.272 117.399 163.261 117.378 163.241C117.357 163.22 117.344 163.193 117.342 163.164V158.274C117.344 158.245 117.357 158.217 117.378 158.197C117.399 158.177 117.427 158.166 117.456 158.166H122.346C122.375 158.166 122.403 158.177 122.423 158.197C122.443 158.218 122.454 158.245 122.454 158.274V163.164Z" fill="#263238"/>
<path d="M119.91 159.54C119.755 159.542 119.604 159.598 119.484 159.697C119.364 159.796 119.282 159.933 119.25 160.086C119.219 160.238 119.24 160.397 119.311 160.535C119.382 160.674 119.498 160.784 119.64 160.848V162H120.168V160.872C120.314 160.811 120.433 160.701 120.507 160.562C120.58 160.422 120.604 160.262 120.573 160.107C120.542 159.953 120.458 159.814 120.336 159.714C120.215 159.614 120.062 159.559 119.904 159.558L119.91 159.54Z" fill="#263238"/>
<path d="M107.228 148.98C111.683 147.551 114.137 142.781 112.708 138.326C111.279 133.87 106.509 131.417 102.054 132.846C97.5982 134.274 95.1446 139.044 96.5734 143.5C98.0021 147.955 102.772 150.409 107.228 148.98Z" fill="#4EB9F8"/>
<path d="M105.63 141.042L105.696 136.656C105.703 136.217 105.534 135.793 105.228 135.478C104.922 135.163 104.504 134.982 104.064 134.976C103.625 134.969 103.201 135.138 102.886 135.444C102.571 135.75 102.391 136.169 102.384 136.608V136.95H101.388C101.265 136.95 101.146 136.998 101.057 137.084C100.969 137.171 100.917 137.288 100.914 137.412C100.914 137.472 100.925 137.533 100.947 137.589C100.97 137.645 101.003 137.697 101.045 137.74C101.088 137.784 101.138 137.818 101.194 137.842C101.25 137.866 101.31 137.879 101.37 137.88H102.372V138.564H101.376C101.315 138.562 101.254 138.573 101.197 138.595C101.14 138.617 101.088 138.65 101.044 138.693C101 138.735 100.965 138.786 100.94 138.842C100.916 138.898 100.903 138.959 100.902 139.02C100.902 139.142 100.95 139.26 101.035 139.349C101.12 139.437 101.236 139.489 101.358 139.494H102.36V140.184H101.364C101.25 140.197 101.145 140.251 101.068 140.337C100.992 140.423 100.949 140.534 100.949 140.649C100.949 140.764 100.992 140.875 101.068 140.96C101.145 141.046 101.25 141.101 101.364 141.114H102.282C101.784 141.484 101.416 142.002 101.231 142.595C101.047 143.188 101.055 143.823 101.256 144.411C101.456 144.998 101.838 145.507 102.346 145.863C102.855 146.219 103.463 146.405 104.084 146.393C104.704 146.381 105.305 146.172 105.799 145.796C106.293 145.42 106.655 144.897 106.832 144.303C107.01 143.708 106.994 143.072 106.786 142.487C106.579 141.902 106.191 141.398 105.678 141.048L105.63 141.042ZM103.95 145.44C103.421 145.427 102.919 145.205 102.554 144.823C102.188 144.44 101.989 143.929 102 143.4C102.003 143.05 102.1 142.707 102.281 142.408C102.461 142.108 102.719 141.862 103.026 141.696L103.254 141.564L103.326 136.608C103.331 136.414 103.412 136.23 103.551 136.095C103.69 135.961 103.877 135.886 104.07 135.888C104.166 135.889 104.26 135.91 104.347 135.948C104.435 135.986 104.514 136.04 104.58 136.109C104.647 136.177 104.699 136.258 104.734 136.347C104.769 136.436 104.786 136.53 104.784 136.626L104.712 141.552L104.958 141.69C105.348 141.904 105.655 142.242 105.831 142.651C106.006 143.06 106.039 143.516 105.925 143.946C105.812 144.376 105.557 144.756 105.202 145.024C104.848 145.293 104.413 145.435 103.968 145.428L103.95 145.44Z" fill="#263238"/>
<path d="M108.306 136.116C107.94 136.112 107.581 136.216 107.273 136.415C106.966 136.615 106.725 136.901 106.58 137.237C106.435 137.574 106.393 137.946 106.459 138.306C106.526 138.667 106.698 138.999 106.953 139.262C107.208 139.525 107.536 139.706 107.894 139.783C108.252 139.86 108.625 139.829 108.966 139.694C109.306 139.559 109.599 139.326 109.808 139.025C110.016 138.723 110.131 138.367 110.136 138C110.14 137.756 110.096 137.514 110.006 137.287C109.916 137.06 109.783 136.853 109.613 136.678C109.443 136.503 109.24 136.364 109.016 136.267C108.791 136.171 108.55 136.119 108.306 136.116ZM108.264 138.9C108.08 138.899 107.899 138.843 107.746 138.738C107.594 138.634 107.476 138.487 107.407 138.315C107.339 138.143 107.323 137.955 107.362 137.774C107.401 137.593 107.493 137.428 107.626 137.3C107.76 137.172 107.928 137.086 108.11 137.054C108.292 137.022 108.48 137.046 108.649 137.121C108.818 137.196 108.961 137.32 109.059 137.476C109.157 137.633 109.206 137.816 109.2 138C109.191 138.242 109.088 138.471 108.914 138.639C108.739 138.807 108.507 138.901 108.264 138.9Z" fill="#263238"/>
<path d="M150.134 93.977C151.398 89.472 148.77 84.7954 144.265 83.5316C139.76 82.2679 135.083 84.8954 133.82 89.4005C132.556 93.9056 135.183 98.5821 139.688 99.8459C144.193 101.11 148.87 98.4821 150.134 93.977Z" fill="#4EB9F8"/>
<path d="M145.998 92.8744V87.5584V87.1804C145.998 86.9412 145.903 86.7116 145.735 86.5419C145.566 86.3722 145.337 86.276 145.098 86.2744H139.74C139.502 86.2744 139.273 86.3682 139.103 86.5355C138.934 86.7028 138.837 86.9302 138.834 87.1684V88.4704V91.9264C138.478 91.7272 138.077 91.6219 137.67 91.6204C137.298 91.6677 136.948 91.8211 136.661 92.0623C136.374 92.3035 136.163 92.6222 136.052 92.9803C135.942 93.3385 135.937 93.7208 136.038 94.0817C136.14 94.4425 136.343 94.7665 136.623 95.0149C136.904 95.2633 137.25 95.4256 137.621 95.4824C137.991 95.5391 138.37 95.4879 138.712 95.3348C139.054 95.1818 139.345 94.9334 139.55 94.6195C139.754 94.3055 139.864 93.9392 139.866 93.5644C139.863 93.3247 139.812 93.0881 139.716 92.8684V89.3764L145.074 89.4064V91.9624C144.717 91.7665 144.317 91.6615 143.91 91.6564C143.538 91.7026 143.187 91.8549 142.899 92.0952C142.612 92.3356 142.4 92.6537 142.288 93.0115C142.177 93.3694 142.171 93.7517 142.271 94.1129C142.371 94.4741 142.573 94.7987 142.853 95.0479C143.133 95.2972 143.479 95.4605 143.849 95.5183C144.219 95.5761 144.599 95.5259 144.941 95.3738C145.284 95.2217 145.575 94.9741 145.781 94.6607C145.986 94.3472 146.097 93.9812 146.1 93.6064C146.12 93.3579 146.085 93.108 145.998 92.8744ZM137.658 94.5724C137.459 94.5271 137.277 94.4264 137.133 94.2819C136.989 94.1375 136.889 93.9553 136.844 93.7563C136.799 93.5573 136.812 93.3497 136.88 93.1576C136.949 92.9654 137.07 92.7966 137.23 92.6705C137.391 92.5444 137.583 92.4663 137.786 92.4452C137.989 92.4241 138.194 92.4609 138.377 92.5513C138.559 92.6417 138.713 92.782 138.819 92.956C138.926 93.1299 138.981 93.3305 138.978 93.5344C138.937 93.8457 138.776 94.1287 138.53 94.3228C138.283 94.5168 137.97 94.6064 137.658 94.5724ZM145.128 88.4764L139.728 88.4344V87.1144L145.128 87.1624V88.4764ZM143.928 94.6084C143.73 94.5621 143.549 94.4608 143.406 94.3162C143.263 94.1716 143.164 93.9895 143.12 93.791C143.075 93.5925 143.088 93.3855 143.157 93.194C143.225 93.0024 143.346 92.8341 143.506 92.7083C143.666 92.5825 143.858 92.5043 144.06 92.4829C144.262 92.4614 144.466 92.4974 144.649 92.5869C144.832 92.6764 144.985 92.8156 145.092 92.9885C145.199 93.1614 145.255 93.3611 145.254 93.5644C145.215 93.8768 145.054 94.1613 144.807 94.3566C144.561 94.5519 144.247 94.6423 143.934 94.6084H143.928Z" fill="#263238"/>
<path d="M187.302 123.78C187.302 123.78 190.182 125.058 191.304 127.776C192.426 130.494 202.02 155.13 202.338 157.05C202.656 158.97 192.102 176.25 192.102 176.25L189.06 173.37L192.42 159.294L188.1 148.896L185.7 145.536" fill="#4EB9F8"/>
<path d="M187.302 123.78C187.302 123.78 190.182 125.058 191.304 127.776C192.426 130.494 202.02 155.13 202.338 157.05C202.656 158.97 192.102 176.25 192.102 176.25L189.06 173.37L192.42 159.294L188.1 148.896L185.7 145.536" stroke="#263238" stroke-linejoin="round"/>
<path d="M199.8 162.942C195.774 161.034 192.684 162.03 191.67 162.474L189.066 173.364L192.108 176.244C192.108 176.244 196.758 168.6 199.8 162.942Z" fill="white" stroke="#263238" stroke-linejoin="round"/>
<path d="M187.8 173.316C187.8 173.316 192 181.662 191.478 184.854C190.956 188.046 189.522 255.336 189.522 255.336L180.294 255.69L171.6 189.294L169.11 189.648L165.03 256.398L154.734 254.802L151.536 189.474L151.002 174.912L187.8 173.316Z" fill="#263238" stroke="#263238" stroke-linejoin="round"/>
<path d="M154.021 225.864C154.467 225.793 154.89 225.618 155.257 225.354C155.719 224.958 155.653 224.958 156.703 226.008C157.753 227.058 157.488 227.514 158.34 226.86C159.192 226.206 158.995 225.942 159.847 226.926C160.699 227.91 160.507 228.24 161.683 228.042C162.859 227.844 163.062 227.514 163.062 228.498C163.062 229.482 162.864 229.746 163.386 229.944C164 230.14 164.547 230.504 164.965 230.994C165.355 231.516 165.565 231.252 165.751 231.846C165.871 232.198 166.077 232.513 166.351 232.764L154.021 225.864Z" fill="#5E5E5E" stroke="#263238" stroke-linejoin="round"/>
<path d="M154.074 226.074C154.558 226.786 154.893 227.588 155.058 228.432C155.256 229.68 154.866 230.664 155.52 231.252C156.174 231.84 156.57 231.582 156.72 232.104C156.87 232.626 156.522 233.154 156.852 233.352C157.182 233.55 158.49 232.698 158.49 233.088C158.49 233.478 158.358 233.688 158.88 233.484C159.402 233.28 159.408 232.632 159.732 233.286C160.056 233.94 160.332 234.792 160.524 234.666C161.12 234.231 161.819 233.958 162.552 233.874C162.984 233.848 163.416 233.939 163.8 234.138C163.998 234.204 164.322 234.534 164.52 234.204C164.718 233.874 166.47 232.968 166.47 232.968L154.074 226.074Z" fill="#5E5E5E" stroke="#263238" stroke-linejoin="round"/>
<path d="M154.021 225.864L166.453 232.968C166.453 232.968 157.399 233.496 154.021 225.864Z" fill="white" stroke="#263238" stroke-linejoin="round"/>
<path d="M177.324 215.592C177.459 215.161 177.49 214.705 177.414 214.26C177.264 213.66 177.234 213.732 178.644 213.258C180.054 212.784 180.342 213.228 180.132 212.172C179.922 211.116 179.604 211.176 180.864 210.852C182.124 210.528 182.328 210.852 182.664 209.7C183 208.548 182.802 208.236 183.684 208.674C184.566 209.112 184.716 209.4 185.124 209.022C185.573 208.562 186.14 208.234 186.762 208.074C187.41 207.96 187.26 207.666 187.878 207.75C188.245 207.8 188.618 207.759 188.964 207.63L177.324 215.592Z" fill="#5E5E5E" stroke="#263238" stroke-linejoin="round"/>
<path d="M177.534 215.64C178.387 215.524 179.254 215.582 180.084 215.808C181.284 216.186 181.998 216.978 182.814 216.648C183.63 216.318 183.576 215.856 184.104 215.97C184.632 216.084 184.956 216.618 185.304 216.408C185.652 216.198 185.442 214.65 185.796 214.824C186.15 214.998 186.27 215.202 186.324 214.644C186.378 214.086 185.796 213.798 186.528 213.798C187.26 213.798 188.142 213.936 188.112 213.702C187.992 212.973 188.06 212.225 188.31 211.53C188.476 211.13 188.75 210.785 189.102 210.534C189.246 210.384 189.702 210.24 189.48 209.934C189.258 209.628 189.234 207.642 189.234 207.642L177.534 215.64Z" fill="#5E5E5E" stroke="#263238" stroke-linejoin="round"/>
<path d="M177.324 215.592L189.21 207.6C189.21 207.6 185.664 216 177.324 215.592Z" fill="white" stroke="#263238" stroke-linejoin="round"/>
<path d="M155.088 253.734C155.088 253.734 152.424 254.622 152.424 255.69C152.424 256.758 153.666 265.632 153.666 265.632C153.666 265.632 147.63 269.004 147.102 269.892C146.574 270.78 146.922 275.04 146.922 275.04H165.03C165.03 275.04 165.564 270.6 165.564 269.004C165.484 267.456 165.305 265.915 165.03 264.39L166.092 255.336C166.092 255.336 160.944 251.43 155.088 253.734Z" fill="white" stroke="#263238" stroke-linejoin="round"/>
<path d="M146.922 275.04H165.03C165.03 275.04 165.144 274.086 165.264 272.91H146.814C146.838 274.038 146.922 275.04 146.922 275.04Z" fill="white" stroke="#263238" stroke-linejoin="round"/>
<path d="M162.546 253.026C161.141 251.721 159.314 250.965 157.398 250.896C154.398 250.896 153.138 252.696 153.138 252.696L154.938 261.57H159.738L162.546 253.026Z" fill="white" stroke="#263238" stroke-linejoin="round"/>
<path d="M160.41 262.368H154.29C154.157 262.368 154.03 262.316 153.936 262.223C153.842 262.129 153.788 262.003 153.786 261.87C153.788 261.737 153.841 261.61 153.935 261.516C154.03 261.421 154.157 261.368 154.29 261.366H160.41C160.543 261.368 160.669 261.422 160.763 261.516C160.856 261.61 160.908 261.738 160.908 261.87C160.908 262.002 160.856 262.129 160.762 262.222C160.669 262.316 160.542 262.368 160.41 262.368Z" fill="white" stroke="#263238" stroke-linejoin="round"/>
<path d="M160.41 263.592H154.29C154.157 263.592 154.03 263.54 153.936 263.446C153.842 263.353 153.788 263.226 153.786 263.094C153.788 262.961 153.841 262.833 153.935 262.739C154.03 262.645 154.157 262.591 154.29 262.59H160.41C160.543 262.591 160.669 262.645 160.763 262.74C160.856 262.834 160.908 262.961 160.908 263.094C160.908 263.226 160.856 263.353 160.762 263.446C160.669 263.539 160.542 263.592 160.41 263.592Z" fill="white" stroke="#263238" stroke-linejoin="round"/>
<path d="M160.41 264.815H154.29C154.157 264.815 154.03 264.763 153.936 264.67C153.842 264.577 153.788 264.45 153.786 264.317C153.788 264.184 153.841 264.057 153.935 263.963C154.03 263.869 154.157 263.815 154.29 263.813H160.41C160.543 263.815 160.669 263.869 160.763 263.963C160.856 264.058 160.908 264.185 160.908 264.317C160.908 264.45 160.856 264.576 160.762 264.67C160.669 264.763 160.542 264.815 160.41 264.815Z" fill="white" stroke="#263238" stroke-linejoin="round"/>
<path d="M160.41 266.04H154.29C154.157 266.04 154.03 265.988 153.936 265.895C153.842 265.801 153.788 265.675 153.786 265.542C153.788 265.409 153.841 265.282 153.935 265.187C154.03 265.093 154.157 265.04 154.29 265.038H160.41C160.543 265.04 160.669 265.093 160.763 265.188C160.856 265.282 160.908 265.409 160.908 265.542C160.908 265.674 160.856 265.801 160.762 265.894C160.669 265.988 160.542 266.04 160.41 266.04Z" fill="white" stroke="#263238" stroke-linejoin="round"/>
<path d="M189.949 253.734C189.949 253.734 192.607 254.622 192.607 255.69C192.607 256.758 191.365 265.632 191.365 265.632C191.365 265.632 197.401 269.004 197.935 269.892C198.469 270.78 198.115 275.04 198.115 275.04H180.001C180.001 275.04 179.467 270.6 179.467 269.004C179.547 267.456 179.725 265.915 180.001 264.39L178.933 255.336C178.933 255.336 184.087 251.43 189.949 253.734Z" fill="white" stroke="#263238" stroke-linejoin="round"/>
<path d="M198.114 275.04H180C180 275.04 179.886 274.086 179.76 272.91H198.216C198.192 274.038 198.114 275.04 198.114 275.04Z" fill="white" stroke="#263238" stroke-linejoin="round"/>
<path d="M182.49 253.026C183.895 251.721 185.722 250.965 187.638 250.896C190.638 250.896 191.898 252.696 191.898 252.696L190.098 261.57H185.298L182.49 253.026Z" fill="white" stroke="#263238" stroke-linejoin="round"/>
<path d="M190.674 262.368H184.554C184.421 262.368 184.294 262.316 184.2 262.223C184.105 262.129 184.051 262.003 184.05 261.87C184.051 261.737 184.105 261.61 184.199 261.516C184.293 261.421 184.421 261.368 184.554 261.366H190.674C190.806 261.368 190.933 261.422 191.026 261.516C191.12 261.61 191.172 261.738 191.172 261.87C191.172 262.002 191.119 262.129 191.026 262.222C190.933 262.316 190.806 262.368 190.674 262.368Z" fill="white" stroke="#263238" stroke-linejoin="round"/>
<path d="M190.674 263.592H184.554C184.421 263.592 184.294 263.54 184.2 263.446C184.105 263.353 184.051 263.226 184.05 263.094C184.051 262.961 184.105 262.833 184.199 262.739C184.293 262.645 184.421 262.591 184.554 262.59H190.674C190.806 262.591 190.933 262.645 191.026 262.74C191.12 262.834 191.172 262.961 191.172 263.094C191.172 263.226 191.119 263.353 191.026 263.446C190.933 263.539 190.806 263.592 190.674 263.592Z" fill="white" stroke="#263238" stroke-linejoin="round"/>
<path d="M190.674 264.815H184.554C184.421 264.815 184.294 264.763 184.2 264.67C184.105 264.577 184.051 264.45 184.05 264.317C184.051 264.184 184.105 264.057 184.199 263.963C184.293 263.869 184.421 263.815 184.554 263.813H190.674C190.806 263.815 190.933 263.869 191.026 263.963C191.12 264.058 191.172 264.185 191.172 264.317C191.172 264.45 191.119 264.576 191.026 264.67C190.933 264.763 190.806 264.815 190.674 264.815Z" fill="white" stroke="#263238" stroke-linejoin="round"/>
<path d="M190.674 266.04H184.554C184.421 266.04 184.294 265.988 184.2 265.895C184.105 265.801 184.051 265.675 184.05 265.542C184.051 265.409 184.105 265.282 184.199 265.187C184.293 265.093 184.421 265.04 184.554 265.038H190.674C190.806 265.04 190.933 265.093 191.026 265.188C191.12 265.282 191.172 265.409 191.172 265.542C191.172 265.674 191.119 265.801 191.026 265.894C190.933 265.988 190.806 266.04 190.674 266.04Z" fill="white" stroke="#263238" stroke-linejoin="round"/>
<path d="M164.346 107.118C164.346 107.118 163.884 115.26 163.746 116.502C163.608 117.744 159.084 120.102 155.202 121.938C151.32 123.774 148.056 124.578 148.212 126.288C148.368 127.998 150.696 191.688 150.696 191.688C150.696 191.688 155.976 191.532 163.746 188.586C171.516 185.64 176.166 181.908 180.048 178.644C182.395 176.68 185.012 175.064 187.818 173.844C187.818 173.844 188.418 143.712 188.418 138.444C188.418 133.176 189.504 127.728 189.198 125.556C188.892 123.384 179.568 120.756 177.24 119.652L174.906 118.566C174.906 118.566 174.906 115.566 175.842 113.682L176.772 111.822L164.814 106.542L164.346 107.118Z" fill="#4EB9F8" stroke="#263238" stroke-linejoin="round"/>
<path d="M180.03 178.626C182.377 176.662 184.994 175.046 187.8 173.826C187.8 173.826 187.8 173.652 187.8 173.328C185.436 173.442 183.169 174.654 173.221 178.014C165.789 180.432 158.125 182.069 150.354 182.898C150.546 188.226 150.672 191.682 150.672 191.682C150.672 191.682 155.952 191.526 163.722 188.58C171.492 185.634 176.148 181.89 180.03 178.626Z" fill="white" stroke="#263238" stroke-linejoin="round"/>
<path d="M150.192 178.482C150.192 178.482 177.864 174.642 187.782 171.444" stroke="#263238" stroke-linejoin="round"/>
<path d="M177.24 119.61L174.906 118.524C174.906 118.524 174.906 115.524 175.842 113.64L176.772 111.78L164.814 106.5L164.346 107.1C164.346 107.1 163.884 115.242 163.746 116.484C163.644 117.294 161.688 118.572 159.264 119.874C160.764 121.536 164.718 125.454 169.332 126.426C173.052 127.206 176.28 123.18 178.194 119.982C177.798 119.856 177.48 119.724 177.24 119.61Z" fill="white" stroke="#263238" stroke-linejoin="round"/>
<path d="M171.049 133.626L171.181 132.36C171.343 130.748 171.343 129.124 171.181 127.512L171.049 126.252C171.049 126.252 168.115 126.102 167.215 127.452C166.315 128.802 166.759 131.34 166.987 132.12C167.365 133.398 171.049 133.626 171.049 133.626Z" fill="#263238" stroke="#263238" stroke-linejoin="round"/>
<path d="M171.049 142.578L171.181 141.318C171.343 139.706 171.343 138.082 171.181 136.47L171.049 135.204C171.049 135.204 168.115 135.054 167.215 136.404C166.315 137.754 166.759 140.286 166.987 141.072C167.365 142.356 171.049 142.578 171.049 142.578Z" fill="#263238" stroke="#263238" stroke-linejoin="round"/>
<path d="M171.048 133.626V135.204" stroke="#263238" stroke-linejoin="round"/>
<path d="M170.148 133.626V135.054" stroke="#263238" stroke-linejoin="round"/>
<path d="M175.842 113.64L176.772 111.78L164.814 106.5L164.346 107.1L165.366 108.9C165.366 108.9 168.498 114.702 175.164 116.388C175.25 115.443 175.478 114.517 175.842 113.64Z" fill="#263238" stroke="#263238" stroke-linejoin="round"/>
<path d="M177.859 93.9183C177.859 93.9183 179.725 98.2683 179.725 98.8863C179.688 99.336 179.526 99.7665 179.257 100.128C179.257 100.128 182.053 102.768 181.897 103.392C181.741 104.016 180.343 104.79 180.343 104.79C180.343 104.79 181.429 110.538 181.429 111.312C181.429 112.086 179.257 113.952 174.907 113.484C172.245 113.168 169.749 112.029 167.767 110.226C167.767 110.226 163.729 105.876 163.567 103.236C163.405 100.596 166.525 93.0003 170.401 91.8963C174.277 90.7923 177.859 93.9183 177.859 93.9183Z" fill="white" stroke="#263238" stroke-linejoin="round"/>
<path d="M177.24 100.674C177.24 101.232 176.994 101.682 176.694 101.682C176.394 101.682 176.148 101.232 176.148 100.674C176.148 100.116 176.394 99.666 176.694 99.666C176.994 99.666 177.24 100.116 177.24 100.674Z" fill="#263238"/>
<path d="M174.906 99.3542C174.906 99.3542 176.46 97.3322 178.326 98.4242" stroke="#263238" stroke-linejoin="round"/>
<path d="M174.601 105.408C174.601 105.408 175.531 106.962 178.801 106.344" stroke="#263238" stroke-linejoin="round"/>
<path d="M163.416 93.4502C163.416 93.4502 158.448 95.3162 157.98 98.2502C157.512 101.184 161.706 105.24 162.33 105.858C162.954 106.476 166.53 106.458 167.454 105.258C168.378 104.058 166.986 101.994 167.916 101.22C168.846 100.446 170.094 100.752 170.406 98.4242C170.718 96.0962 169.626 95.1602 171.18 94.3862C172.734 93.6122 174.75 95.3162 177.858 93.9182C180.966 92.5202 180.03 87.0842 176.616 85.0682C173.202 83.0522 167.766 85.8422 167.616 86.9282C167.466 88.0142 168.546 89.4122 167.616 89.5682C166.686 89.7242 164.664 89.1062 164.352 90.6542C164.151 91.6197 163.836 92.5582 163.416 93.4502Z" fill="#263238" stroke="#263238" stroke-linejoin="round"/>
<path d="M167.61 106.344C167.61 106.344 165.9 102.924 163.572 103.236C161.244 103.548 161.862 108.672 163.572 109.758C165.282 110.844 167.61 108.672 167.61 108.672" fill="white"/>
<path d="M167.61 106.344C167.61 106.344 165.9 102.924 163.572 103.236C161.244 103.548 161.862 108.672 163.572 109.758C165.282 110.844 167.61 108.672 167.61 108.672" stroke="#263238" stroke-linejoin="round"/>
<path d="M150.132 124.271C150.132 124.271 145.626 126.131 144.852 128.615C144.078 131.099 134.442 153.779 133.512 155.615C132.582 157.451 133.668 160.739 135.378 161.363C137.088 161.987 138.018 161.363 139.722 160.121C141.426 158.879 150.132 144.281 150.132 144.281" fill="#4EB9F8"/>
<path d="M150.132 124.271C150.132 124.271 145.626 126.131 144.852 128.615C144.078 131.099 134.442 153.779 133.512 155.615C132.582 157.451 133.668 160.739 135.378 161.363C137.088 161.987 138.018 161.363 139.722 160.121C141.426 158.879 150.132 144.281 150.132 144.281" stroke="#263238" stroke-linejoin="round"/>
<path d="M138.93 124.657L144.401 124.562C144.698 124.557 144.986 124.67 145.2 124.876C145.414 125.083 145.537 125.366 145.542 125.664L145.803 140.59C145.808 140.887 145.695 141.175 145.488 141.389C145.281 141.603 144.998 141.726 144.701 141.731L139.229 141.827C138.93 141.832 138.641 141.718 138.426 141.51C138.211 141.302 138.087 141.018 138.082 140.718L137.821 125.799C137.816 125.5 137.93 125.211 138.138 124.995C138.346 124.78 138.63 124.656 138.93 124.651L138.93 124.657Z" fill="#263238" stroke="#263238" stroke-linejoin="round"/>
<path d="M136.555 145.278C136.555 145.278 136.513 136.308 136.447 135.042C136.381 133.776 137.911 132.474 138.847 131.844C139.783 131.214 143.761 129.378 144.247 129.594C144.733 129.81 144.571 130.59 143.923 131.052C143.275 131.514 140.419 133.104 139.879 133.542C139.339 133.98 139.381 135.684 139.381 135.684C139.381 135.684 142.669 134.106 143.647 133.68C144.625 133.254 145.699 132.798 146.095 133.14C146.209 133.26 146.288 133.409 146.323 133.571C146.358 133.733 146.347 133.901 146.293 134.058C146.542 134.367 146.666 134.759 146.641 135.156C146.551 135.714 144.241 137.928 143.533 138.51C143.005 138.951 142.5 139.42 142.021 139.914C142.021 139.914 146.383 138.846 146.689 138.78C146.995 138.714 147.355 139.38 146.509 139.89C145.192 140.484 143.839 140.995 142.459 141.42C142.269 142.482 141.959 143.518 141.535 144.51C141.193 145.523 140.515 146.388 139.615 146.964C139.615 146.964 141.457 156.816 140.119 159.462C138.781 162.108 134.593 163.992 132.919 160.728C131.245 157.464 132.289 153.486 133.951 151.308C135.613 149.13 136.555 145.278 136.555 145.278Z" fill="white" stroke="#263238" stroke-linejoin="round"/>
<path d="M140.49 153.798C136.812 155.376 134.382 153.852 133.134 152.598C131.988 154.854 131.502 158.034 132.894 160.74C134.574 164.004 138.756 162.12 140.094 159.474C140.646 158.4 140.664 156.114 140.49 153.798Z" fill="#4EB9F8" stroke="#263238" stroke-linejoin="round"/>
<path d="M146.275 134.058L140.269 137.838" stroke="#263238" stroke-linejoin="round"/>
<path d="M146.275 134.058L140.269 137.838" stroke="#263238" stroke-linejoin="round"/>
<path d="M190.465 170.934L185.461 171.996C184.927 172.104 181.309 175.506 180.883 176.148C180.457 176.79 181.627 177.21 182.161 177.21C182.695 177.21 185.563 175.086 185.563 175.086L184.801 177L190.549 182.004C190.549 182.004 192.091 179.238 192.835 177.426C193.357 175.944 193.713 174.408 193.897 172.848" fill="white"/>
<path d="M190.465 170.934L185.461 171.996C184.927 172.104 181.309 175.506 180.883 176.148C180.457 176.79 181.627 177.21 182.161 177.21C182.695 177.21 185.563 175.086 185.563 175.086L184.801 177L190.549 182.004C190.549 182.004 192.091 179.238 192.835 177.426C193.357 175.944 193.713 174.408 193.897 172.848" stroke="#263238" stroke-linejoin="round"/>
</svg>
