<svg width="14" height="14" viewBox="0 0 14 14" fill="none" xmlns="http://www.w3.org/2000/svg">
<path fill-rule="evenodd" clip-rule="evenodd" d="M12.6654 9.2219C11.832 9.2219 10.9987 9.11079 10.2209 8.83301C9.88759 8.7219 9.44314 8.83301 9.22092 9.05523L7.66536 10.2219C5.83203 9.27745 4.72092 8.11079 3.77648 6.33301L4.94314 4.77745C5.22092 4.49967 5.27648 4.11079 5.16536 3.77745C4.94314 2.99967 4.77648 2.16634 4.77648 1.33301C4.77648 0.777452 4.33203 0.333008 3.77648 0.333008H1.33203C0.776476 0.333008 0.332031 0.777452 0.332031 1.33301C0.332031 8.11079 5.88759 13.6663 12.6654 13.6663C13.2209 13.6663 13.6654 13.2219 13.6654 12.6663V10.1663C13.6654 9.66634 13.2209 9.2219 12.6654 9.2219Z" fill="#1E1F20"/>
</svg>
