<svg width="40" height="40" viewBox="0 0 40 40" fill="none" xmlns="http://www.w3.org/2000/svg">
<path d="M28.75 10V30C28.75 30.3315 28.6183 30.6495 28.3839 30.8839C28.1495 31.1183 27.8315 31.25 27.5 31.25C27.1685 31.25 26.8505 31.1183 26.6161 30.8839C26.3817 30.6495 26.25 30.3315 26.25 30V10C26.25 9.66848 26.3817 9.35054 26.6161 9.11612C26.8505 8.8817 27.1685 8.75 27.5 8.75C27.8315 8.75 28.1495 8.8817 28.3839 9.11612C28.6183 9.35054 28.75 9.66848 28.75 10ZM35 8.75C34.6685 8.75 34.3505 8.8817 34.1161 9.11612C33.8817 9.35054 33.75 9.66848 33.75 10V30C33.75 30.3315 33.8817 30.6495 34.1161 30.8839C34.3505 31.1183 34.6685 31.25 35 31.25C35.3315 31.25 35.6495 31.1183 35.8839 30.8839C36.1183 30.6495 36.25 30.3315 36.25 30V10C36.25 9.66848 36.1183 9.35054 35.8839 9.11612C35.6495 8.8817 35.3315 8.75 35 8.75ZM21.3547 17.9156L7.575 9.14219C7.20003 8.90245 6.76757 8.76778 6.32279 8.75222C5.878 8.73667 5.4372 8.84081 5.0464 9.05377C4.6556 9.26673 4.32913 9.5807 4.10109 9.9629C3.87306 10.3451 3.7518 10.7815 3.75 11.2266V28.7734C3.75102 29.2162 3.87088 29.6506 4.09708 30.0313C4.32327 30.412 4.64751 30.7249 5.03594 30.9375C5.4277 31.1526 5.8701 31.2585 6.31681 31.2439C6.76352 31.2293 7.19809 31.0949 7.575 30.8547L21.3547 22.0813C21.7058 21.8584 21.9949 21.5505 22.1952 21.1862C22.3955 20.8218 22.5005 20.4127 22.5005 19.9969C22.5005 19.5811 22.3955 19.172 22.1952 18.8076C21.9949 18.4432 21.7058 18.1353 21.3547 17.9125V17.9156Z" fill="#045284"/>
</svg>
