<svg width="26" height="26" viewBox="0 0 26 26" fill="none" xmlns="http://www.w3.org/2000/svg">
<path d="M22.75 13C22.75 7.62387 18.3761 3.25 13 3.25C7.62387 3.25 3.25 7.62387 3.25 13C3.25 18.3757 7.62387 22.75 13 22.75C18.3765 22.75 22.75 18.3765 22.75 13ZM13.9575 12.9851C13.9575 13.2304 13.86 13.4657 13.6865 13.6392C13.513 13.8127 13.2777 13.9102 13.0324 13.9102C12.7871 13.9102 12.5518 13.8127 12.3783 13.6392C12.2048 13.4657 12.1073 13.2304 12.1073 12.9851V8.17291C12.1123 7.93087 12.212 7.70042 12.3849 7.531C12.5578 7.36158 12.7903 7.2667 13.0324 7.2667C13.2745 7.2667 13.507 7.36158 13.6799 7.531C13.8528 7.70042 13.9525 7.93087 13.9575 8.17291V12.9851ZM19.2959 13.0161C19.2959 16.4875 16.4718 19.3112 13 19.3112C9.52824 19.3112 6.70409 16.4875 6.70409 13.0161C6.70409 11.3332 7.35956 9.75131 8.55033 8.56251C8.73099 8.38185 8.96741 8.29191 9.20423 8.29191C9.44105 8.29191 9.67826 8.38224 9.85892 8.56329C10.2202 8.925 10.2198 9.51056 9.85813 9.87188C9.44377 10.2837 9.11523 10.7737 8.89155 11.3134C8.66787 11.8531 8.5535 12.4319 8.55504 13.0161C8.55504 15.4668 10.549 17.4599 13 17.4599C15.451 17.4599 17.4446 15.4668 17.4446 13.0161C17.4446 11.8289 16.9827 10.7127 16.1434 9.87306C15.9737 9.69863 15.8796 9.46441 15.8813 9.22106C15.883 8.97772 15.9804 8.74484 16.1526 8.57282C16.3247 8.4008 16.5576 8.30347 16.801 8.30191C17.0443 8.30035 17.2785 8.39467 17.4528 8.56447C18.0389 9.14791 18.5035 9.84173 18.8199 10.6058C19.1363 11.3699 19.298 12.1891 19.2959 13.0161Z" fill="#FF2D2D"/>
</svg>
