<svg width="18" height="18" viewBox="0 0 18 18" fill="none" xmlns="http://www.w3.org/2000/svg">
<path d="M17.0594 9C17.0594 4.51989 13.4257 0.875 8.95937 0.875C4.49305 0.875 0.859375 4.51989 0.859375 9C0.859375 13.4798 4.49305 17.125 8.95937 17.125C13.426 17.125 17.0594 13.4804 17.0594 9ZM9.75482 8.98756C9.75482 9.19202 9.67385 9.3881 9.52973 9.53267C9.3856 9.67725 9.19012 9.75847 8.98629 9.75847C8.78246 9.75847 8.58699 9.67725 8.44286 9.53267C8.29873 9.3881 8.21776 9.19202 8.21776 8.98756V4.97743C8.2219 4.77572 8.30469 4.58368 8.44837 4.4425C8.59205 4.30132 8.78516 4.22225 8.98629 4.22225C9.18742 4.22225 9.38054 4.30132 9.52421 4.4425C9.66789 4.58368 9.75068 4.77572 9.75482 4.97743V8.98756ZM14.1898 9.01342C14.1898 11.9062 11.8436 14.2594 8.95937 14.2594C6.07514 14.2594 3.72893 11.9062 3.72893 9.01342C3.72893 7.61103 4.27347 6.29276 5.26273 5.30209C5.41281 5.15154 5.60923 5.07659 5.80597 5.07659C6.00271 5.07659 6.19978 5.15187 6.34986 5.30274C6.65003 5.60417 6.6497 6.09214 6.34921 6.39323C6.00497 6.73645 5.73203 7.14476 5.5462 7.59452C5.36038 8.04429 5.26536 8.52656 5.26664 9.01342C5.26664 11.0556 6.92312 12.7166 8.95937 12.7166C10.9956 12.7166 12.6518 11.0556 12.6518 9.01342C12.6518 8.02406 12.2681 7.09393 11.5708 6.39421C11.4299 6.24886 11.3516 6.05367 11.353 5.85089C11.3545 5.6481 11.4354 5.45403 11.5784 5.31068C11.7214 5.16733 11.9149 5.08623 12.1171 5.08493C12.3193 5.08362 12.5138 5.16223 12.6586 5.30372C13.1455 5.78993 13.5316 6.36811 13.7944 7.00485C14.0572 7.64159 14.1916 8.32426 14.1898 9.01342Z" fill="white"/>
</svg>
