<svg width="75" height="62" viewBox="0 0 75 62" fill="none" xmlns="http://www.w3.org/2000/svg">
<rect width="75" height="62" rx="14" fill="#FFD9D9"/>
<g filter="url(#filter0_d_4424_2487)">
<circle cx="37.5" cy="30.5" r="19.5" fill="#FFC4C4"/>
<circle cx="37.5" cy="30.5" r="19" stroke="#FF2D2D"/>
</g>
<path d="M47.2218 31.2547C47.2048 31.0913 47.1896 30.9278 47.1744 30.7644C47.1422 30.402 47.108 30.0289 47.0492 29.6612C46.867 28.5332 46.4325 27.4389 45.759 26.4085C45.1215 25.4351 44.3018 24.5895 43.3228 23.8949C42.7612 23.497 42.2793 23.2181 41.803 23.0191C41.4976 22.8912 41.1522 22.8894 40.8354 23.012C40.5109 23.1381 40.2548 23.385 40.1334 23.687C39.9341 24.1809 40.0992 24.8542 40.7974 25.1846C41.5791 25.5559 42.2831 26.0746 42.8883 26.7283C43.9262 27.8457 44.5162 29.1585 44.6415 30.6258C44.7496 31.8906 44.4859 33.1004 43.856 34.2213C43.0496 35.6532 41.8486 36.7013 40.2851 37.339C38.7843 37.9501 37.2133 38.0567 35.6177 37.6552C33.9309 37.2306 32.5705 36.3353 31.5706 34.9941C30.5233 33.5854 30.1078 32.0008 30.3374 30.283C30.5024 29.0519 31.0166 27.9239 31.8704 26.9273C32.4908 26.2025 33.2745 25.6038 34.2023 25.149C34.5115 24.9963 34.7373 24.744 34.836 24.4385C34.9327 24.1418 34.9005 23.8274 34.7449 23.5538C34.4053 22.9622 33.671 22.7491 33.0335 23.0582C31.6162 23.7457 30.4341 24.7103 29.5215 25.9218C28.6829 27.0356 28.1326 28.2845 27.8879 29.6328C27.738 30.4606 27.7095 31.2991 27.8063 32.1269C27.9239 33.1342 28.2199 34.1023 28.6829 35.0065C29.4418 36.4845 30.5499 37.7067 31.9805 38.6376C33.0411 39.3268 34.2117 39.8012 35.464 40.0499C36.1356 40.1831 36.813 40.2506 37.4866 40.2506C37.7806 40.2506 38.0728 40.2382 38.365 40.2115C39.826 40.0818 41.2016 39.6608 42.4519 38.9591C43.5638 38.3356 44.5105 37.5326 45.2695 36.5734C46.4477 35.0829 47.089 33.3846 47.1801 31.5229L47.2503 31.5158L47.2237 31.2547H47.2218Z" fill="#FF2D2D"/>
<path d="M36.1093 27.6738C36.1093 27.769 36.115 27.8643 36.1245 27.9578C36.2042 28.7392 37.1415 29.3187 38.0237 29.1332C38.7694 28.9773 39.257 28.4437 39.2589 27.7789C39.2589 26.8366 39.2589 25.8943 39.2589 24.9521H39.2551C39.2551 23.9901 39.2589 23.0297 39.2551 22.0677C39.2513 21.2683 38.3406 20.6297 37.4318 20.7692C36.7108 20.8792 36.1036 21.4259 36.1074 22.1892C36.1188 24.0163 36.1093 25.8451 36.1112 27.6722L36.1093 27.6738Z" fill="#FF2D2D"/>
<defs>
<filter id="filter0_d_4424_2487" x="10" y="3" width="55" height="55" filterUnits="userSpaceOnUse" color-interpolation-filters="sRGB">
<feFlood flood-opacity="0" result="BackgroundImageFix"/>
<feColorMatrix in="SourceAlpha" type="matrix" values="0 0 0 0 0 0 0 0 0 0 0 0 0 0 0 0 0 0 127 0" result="hardAlpha"/>
<feMorphology radius="1" operator="dilate" in="SourceAlpha" result="effect1_dropShadow_4424_2487"/>
<feOffset/>
<feGaussianBlur stdDeviation="3.5"/>
<feComposite in2="hardAlpha" operator="out"/>
<feColorMatrix type="matrix" values="0 0 0 0 1 0 0 0 0 1 0 0 0 0 1 0 0 0 1 0"/>
<feBlend mode="normal" in2="BackgroundImageFix" result="effect1_dropShadow_4424_2487"/>
<feBlend mode="normal" in="SourceGraphic" in2="effect1_dropShadow_4424_2487" result="shape"/>
</filter>
</defs>
</svg>
