<svg width="18" height="18" viewBox="0 0 18 18" fill="none" xmlns="http://www.w3.org/2000/svg">
<path d="M3.37279 7.59044L3.70431 7.28881C3.59155 7.16486 3.42792 7.08506 3.24609 7.08506C3.225 7.08506 3.20415 7.08613 3.18359 7.08822V5.25098H14.3328V11.0381H3.86024C3.86748 10.9989 3.87109 10.9593 3.87109 10.9198V8.61545C3.87109 8.49729 3.8387 8.37791 3.77372 8.27357C3.8387 8.16922 3.87109 8.04985 3.87109 7.93168V7.72244C3.87109 7.56784 3.81565 7.41118 3.70431 7.28881L3.37279 7.59044ZM3.37279 7.59044C3.33364 7.57677 3.29104 7.56907 3.24609 7.56907C3.22469 7.56907 3.20382 7.57081 3.18359 7.57412V7.60346C3.20243 7.59151 3.22396 7.58506 3.24609 7.58506C3.27925 7.58506 3.31104 7.59953 3.33448 7.62529C3.35792 7.65106 3.37109 7.686 3.37109 7.72244V7.81944V7.83468V7.93168C3.37109 7.95153 3.36719 7.97093 3.35984 7.98865C3.39552 7.99537 3.43012 8.00517 3.46335 8.01774C3.48723 8.00129 3.50877 7.98241 3.52754 7.96178C3.53641 7.95203 3.54461 7.94198 3.55216 7.93168C3.5763 7.89874 3.59376 7.86327 3.60506 7.82706C3.59376 7.79085 3.5763 7.75538 3.55216 7.72244C3.54461 7.71214 3.53641 7.70209 3.52754 7.69234C3.48728 7.6481 3.43428 7.6119 3.37279 7.59044ZM4.6445 12.3129H7.69428V15.0835H4.6445V12.3129Z" fill="white" stroke="white"/>
<mask id="path-2-inside-1_2363_7907" fill="white">
<path d="M13.6225 15.7206C13.6225 15.757 13.6093 15.7919 13.5859 15.8177C13.5624 15.8435 13.5306 15.8579 13.4975 15.8579H9.19772C9.16457 15.8579 9.13277 15.8435 9.10933 15.8177C9.08589 15.7919 9.07272 15.757 9.07272 15.7206V11.8125H8.44491V15.7206C8.44491 15.757 8.43174 15.7919 8.4083 15.8177C8.38486 15.8435 8.35306 15.8579 8.31991 15.8579H4.02013C3.98697 15.8579 3.95518 15.8435 3.93174 15.8177C3.90829 15.7919 3.89513 15.757 3.89513 15.7206V11.8125H3.24609V16.4999H14.2715V11.8125H13.6225V15.7206Z"/>
</mask>
<path d="M13.6225 15.7206C13.6225 15.757 13.6093 15.7919 13.5859 15.8177C13.5624 15.8435 13.5306 15.8579 13.4975 15.8579H9.19772C9.16457 15.8579 9.13277 15.8435 9.10933 15.8177C9.08589 15.7919 9.07272 15.757 9.07272 15.7206V11.8125H8.44491V15.7206C8.44491 15.757 8.43174 15.7919 8.4083 15.8177C8.38486 15.8435 8.35306 15.8579 8.31991 15.8579H4.02013C3.98697 15.8579 3.95518 15.8435 3.93174 15.8177C3.90829 15.7919 3.89513 15.757 3.89513 15.7206V11.8125H3.24609V16.4999H14.2715V11.8125H13.6225V15.7206Z" fill="white"/>
<path d="M13.5859 15.8177L12.8462 15.1447L13.5859 15.8177ZM9.10933 15.8177L9.849 15.1447L9.10933 15.8177ZM9.07272 11.8125H10.0727V10.8125H9.07272V11.8125ZM8.44491 11.8125V10.8125H7.44491V11.8125H8.44491ZM8.4083 15.8177L7.66863 15.1447L8.4083 15.8177ZM3.93174 15.8177L4.6714 15.1447L3.93174 15.8177ZM3.89513 11.8125H4.89513V10.8125H3.89513V11.8125ZM3.24609 11.8125V10.8125H2.24609V11.8125H3.24609ZM3.24609 16.4999H2.24609V17.4999H3.24609V16.4999ZM14.2715 16.4999V17.4999H15.2715V16.4999H14.2715ZM14.2715 11.8125H15.2715V10.8125H14.2715V11.8125ZM13.6225 11.8125V10.8125H12.6225V11.8125H13.6225ZM12.6225 15.7206C12.6225 15.5207 12.6938 15.3122 12.8462 15.1447L14.3255 16.4907C14.5248 16.2717 14.6225 15.9933 14.6225 15.7206H12.6225ZM12.8462 15.1447C13.0014 14.9741 13.2333 14.8579 13.4975 14.8579V16.8579C13.828 16.8579 14.1234 16.7128 14.3255 16.4907L12.8462 15.1447ZM13.4975 14.8579H9.19772V16.8579H13.4975V14.8579ZM9.19772 14.8579C9.46191 14.8579 9.69378 14.9741 9.849 15.1447L8.36967 16.4907C8.57177 16.7128 8.86723 16.8579 9.19772 16.8579V14.8579ZM9.849 15.1447C10.0013 15.3122 10.0727 15.5207 10.0727 15.7206H8.07272C8.07272 15.9933 8.17044 16.2717 8.36967 16.4907L9.849 15.1447ZM10.0727 15.7206V11.8125H8.07272V15.7206H10.0727ZM9.07272 10.8125H8.44491V12.8125H9.07272V10.8125ZM7.44491 11.8125V15.7206H9.44491V11.8125H7.44491ZM7.44491 15.7206C7.44491 15.5207 7.51628 15.3122 7.66863 15.1447L9.14796 16.4907C9.34719 16.2717 9.44491 15.9933 9.44491 15.7206H7.44491ZM7.66863 15.1447C7.82385 14.9741 8.05572 14.8579 8.31991 14.8579V16.8579C8.6504 16.8579 8.94586 16.7128 9.14796 16.4907L7.66863 15.1447ZM8.31991 14.8579H4.02013V16.8579H8.31991V14.8579ZM4.02013 14.8579C4.28432 14.8579 4.51619 14.9741 4.6714 15.1447L3.19207 16.4907C3.39417 16.7128 3.68963 16.8579 4.02013 16.8579V14.8579ZM4.6714 15.1447C4.82375 15.3122 4.89513 15.5207 4.89513 15.7206H2.89513C2.89513 15.9933 2.99284 16.2717 3.19207 16.4907L4.6714 15.1447ZM4.89513 15.7206V11.8125H2.89513V15.7206H4.89513ZM3.89513 10.8125H3.24609V12.8125H3.89513V10.8125ZM2.24609 11.8125V16.4999H4.24609V11.8125H2.24609ZM3.24609 17.4999H14.2715V15.4999H3.24609V17.4999ZM15.2715 16.4999V11.8125H13.2715V16.4999H15.2715ZM14.2715 10.8125H13.6225V12.8125H14.2715V10.8125ZM12.6225 11.8125V15.7206H14.6225V11.8125H12.6225Z" fill="white" mask="url(#path-2-inside-1_2363_7907)"/>
<mask id="path-4-inside-2_2363_7907" fill="white">
<path d="M9.32232 11.8126H13.3721V15.5833H9.32232V11.8126ZM15.6882 2.00077C15.6859 1.82963 15.7137 1.65961 15.7699 1.5H1.62575C1.58894 1.51848 1.5 1.69004 1.5 2.00077C1.5 2.31151 1.58894 2.4831 1.62575 2.50155H15.7699C15.7137 2.34194 15.6859 2.17192 15.6882 2.00077ZM16.0604 2.49966C16.0991 2.4727 16.1828 2.30203 16.1828 2.00077C16.1828 1.69952 16.0991 1.52889 16.0604 1.50189C16.0218 1.52889 15.9382 1.69955 15.9382 2.00077C15.9382 2.30199 16.0219 2.4727 16.0604 2.49966ZM2.68381 2.77632H14.833V4.476H2.68381V2.77632ZM16.1627 12.7526C16.1549 12.7244 16.1391 12.6998 16.1175 12.6823C16.096 12.6647 16.0699 12.6553 16.0431 12.6553H15.9607V2.77639H15.7107V12.6553H15.6281C15.6013 12.6553 15.5753 12.6647 15.5537 12.6823C15.5322 12.6998 15.5164 12.7244 15.5086 12.7526L15.1767 13.9497C15.171 13.9702 15.1698 13.9919 15.1731 14.0131C15.1764 14.0342 15.1842 14.0542 15.1958 14.0715C15.2074 14.0887 15.2226 14.1027 15.24 14.1124C15.2575 14.1221 15.2767 14.1271 15.2963 14.1271H16.375C16.3945 14.1271 16.4138 14.1221 16.4312 14.1124C16.4487 14.1027 16.4638 14.0887 16.4755 14.0715C16.4871 14.0542 16.4949 14.0342 16.4982 14.0131C16.5015 13.9919 16.5003 13.9702 16.4946 13.9497L16.1627 12.7526Z"/>
</mask>
<path d="M9.32232 11.8126H13.3721V15.5833H9.32232V11.8126ZM15.6882 2.00077C15.6859 1.82963 15.7137 1.65961 15.7699 1.5H1.62575C1.58894 1.51848 1.5 1.69004 1.5 2.00077C1.5 2.31151 1.58894 2.4831 1.62575 2.50155H15.7699C15.7137 2.34194 15.6859 2.17192 15.6882 2.00077ZM16.0604 2.49966C16.0991 2.4727 16.1828 2.30203 16.1828 2.00077C16.1828 1.69952 16.0991 1.52889 16.0604 1.50189C16.0218 1.52889 15.9382 1.69955 15.9382 2.00077C15.9382 2.30199 16.0219 2.4727 16.0604 2.49966ZM2.68381 2.77632H14.833V4.476H2.68381V2.77632ZM16.1627 12.7526C16.1549 12.7244 16.1391 12.6998 16.1175 12.6823C16.096 12.6647 16.0699 12.6553 16.0431 12.6553H15.9607V2.77639H15.7107V12.6553H15.6281C15.6013 12.6553 15.5753 12.6647 15.5537 12.6823C15.5322 12.6998 15.5164 12.7244 15.5086 12.7526L15.1767 13.9497C15.171 13.9702 15.1698 13.9919 15.1731 14.0131C15.1764 14.0342 15.1842 14.0542 15.1958 14.0715C15.2074 14.0887 15.2226 14.1027 15.24 14.1124C15.2575 14.1221 15.2767 14.1271 15.2963 14.1271H16.375C16.3945 14.1271 16.4138 14.1221 16.4312 14.1124C16.4487 14.1027 16.4638 14.0887 16.4755 14.0715C16.4871 14.0542 16.4949 14.0342 16.4982 14.0131C16.5015 13.9919 16.5003 13.9702 16.4946 13.9497L16.1627 12.7526Z" fill="white"/>
<path d="M9.32232 11.8126V10.8126H8.32232V11.8126H9.32232ZM13.3721 11.8126H14.3721V10.8126H13.3721V11.8126ZM13.3721 15.5833V16.5833H14.3721V15.5833H13.3721ZM9.32232 15.5833H8.32232V16.5833H9.32232V15.5833ZM15.6882 2.00077L16.6881 2.01382L16.6882 2.00079L16.6881 1.98777L15.6882 2.00077ZM15.7699 1.5L16.7131 1.83234L17.1826 0.5H15.7699V1.5ZM1.62575 1.5V0.5H1.38885L1.17713 0.606275L1.62575 1.5ZM1.62575 2.50155L1.1778 3.39561L1.38925 3.50155H1.62575V2.50155ZM15.7699 2.50155V3.50155H17.1826L16.7131 2.16917L15.7699 2.50155ZM16.0604 2.49966L15.4874 3.31921L16.0598 3.71936L16.6325 3.31986L16.0604 2.49966ZM16.0604 1.50189L16.633 0.68203L16.0604 0.282166L15.4879 0.68203L16.0604 1.50189ZM2.68381 2.77632V1.77632H1.68381V2.77632H2.68381ZM14.833 2.77632H15.833V1.77632H14.833V2.77632ZM14.833 4.476V5.476H15.833V4.476H14.833ZM2.68381 4.476H1.68381V5.476H2.68381V4.476ZM16.1627 12.7526L17.1263 12.4854L17.1263 12.4854L16.1627 12.7526ZM16.0431 12.6553L16.0432 11.6553H16.0431V12.6553ZM15.9607 12.6553H14.9607V13.6553H15.9607V12.6553ZM15.9607 2.77639H16.9607V1.77639H15.9607V2.77639ZM15.7107 2.77639V1.77639H14.7107V2.77639H15.7107ZM15.7107 12.6553V13.6553H16.7107V12.6553H15.7107ZM15.6281 12.6553V11.6553H15.6281L15.6281 12.6553ZM15.5086 12.7526L14.5449 12.4854L14.5449 12.4854L15.5086 12.7526ZM15.1767 13.9497L16.1403 14.2168L16.1403 14.2168L15.1767 13.9497ZM15.2963 14.1271L15.2962 15.1271H15.2963V14.1271ZM16.375 14.1271V15.1271H16.3751L16.375 14.1271ZM16.4946 13.9497L15.5309 14.2168L15.5309 14.2168L16.4946 13.9497ZM9.32232 12.8126H13.3721V10.8126H9.32232V12.8126ZM12.3721 11.8126V15.5833H14.3721V11.8126H12.3721ZM13.3721 14.5833H9.32232V16.5833H13.3721V14.5833ZM10.3223 15.5833V11.8126H8.32232V15.5833H10.3223ZM16.6881 1.98777C16.6874 1.93281 16.6964 1.87978 16.7131 1.83234L14.8268 1.16766C14.731 1.43944 14.6845 1.72645 14.6882 2.01378L16.6881 1.98777ZM15.7699 0.5H1.62575V2.5H15.7699V0.5ZM1.17713 0.606275C0.99554 0.697429 0.886329 0.820741 0.845092 0.869674C0.790726 0.934188 0.75104 0.996196 0.723355 1.04441C0.667245 1.14214 0.626392 1.24286 0.596457 1.33661C0.535318 1.52808 0.5 1.75217 0.5 2.00077H2.5C2.5 1.93865 2.50915 1.92159 2.50168 1.94498C2.49858 1.95468 2.48687 1.98963 2.45779 2.04028C2.44362 2.06496 2.41692 2.1081 2.37446 2.15848C2.35283 2.18415 2.32094 2.21906 2.27806 2.2567C2.23752 2.2923 2.16956 2.34594 2.07437 2.39372L1.17713 0.606275ZM0.5 2.00077C0.5 2.24938 0.535317 2.47347 0.596453 2.66494C0.626385 2.75868 0.667242 2.85943 0.72337 2.95717C0.751062 3.0054 0.790777 3.06745 0.845198 3.13201C0.886453 3.18095 0.995851 3.30444 1.1778 3.39561L2.0737 1.60749C2.16909 1.65528 2.23719 1.70899 2.2778 1.74462C2.32076 1.78231 2.3527 1.81726 2.37436 1.84295C2.41687 1.89338 2.4436 1.93657 2.45777 1.96126C2.48687 2.01194 2.49859 2.0469 2.50169 2.0566C2.50915 2.07997 2.5 2.0629 2.5 2.00077H0.5ZM1.62575 3.50155H15.7699V1.50155H1.62575V3.50155ZM16.7131 2.16917C16.6964 2.12175 16.6874 2.06875 16.6881 2.01382L14.6882 1.98773C14.6845 2.27509 14.731 2.56212 14.8268 2.83392L16.7131 2.16917ZM16.6325 3.31986C16.8421 3.17366 16.9457 2.98325 16.975 2.92922C17.0257 2.83582 17.0635 2.7393 17.0919 2.6471C17.1495 2.45995 17.1828 2.2421 17.1828 2.00077H15.1828C15.1828 2.0607 15.1742 2.07882 15.1803 2.05905C15.1829 2.05055 15.1926 2.02057 15.2167 1.97617C15.2286 1.95417 15.2496 1.91831 15.2822 1.8757C15.308 1.84196 15.3749 1.75861 15.4884 1.67946L16.6325 3.31986ZM17.1828 2.00077C17.1828 1.75944 17.1495 1.5416 17.0919 1.35445C17.0635 1.26225 17.0256 1.16574 16.975 1.07237C16.9457 1.01824 16.8422 0.828139 16.633 0.68203L15.4879 2.32175C15.3747 2.24267 15.3079 2.15947 15.2821 2.12575C15.2496 2.08318 15.2286 2.04735 15.2167 2.02536C15.1926 1.98099 15.1829 1.95103 15.1803 1.94252C15.1742 1.92275 15.1828 1.94085 15.1828 2.00077H17.1828ZM15.4879 0.68203C15.2786 0.828198 15.1751 1.01841 15.1458 1.07249C15.0952 1.16587 15.0573 1.26237 15.029 1.35456C14.9714 1.54168 14.9382 1.75948 14.9382 2.00077H16.9382C16.9382 1.94084 16.9467 1.9227 16.9406 1.94244C16.938 1.95093 16.9283 1.98088 16.9043 2.02525C16.8924 2.04723 16.8714 2.08307 16.8388 2.12565C16.8131 2.15938 16.7463 2.24263 16.633 2.32175L15.4879 0.68203ZM14.9382 2.00077C14.9382 2.24218 14.9715 2.46002 15.0291 2.64711C15.0574 2.73928 15.0953 2.8357 15.1458 2.92897C15.175 2.98285 15.2783 3.17301 15.4874 3.31921L16.6335 1.68011C16.7467 1.7593 16.8135 1.8426 16.8391 1.8762C16.8715 1.91872 16.8925 1.95448 16.9044 1.97641C16.9283 2.02068 16.938 2.05055 16.9406 2.05901C16.9467 2.0787 16.9382 2.06058 16.9382 2.00077H14.9382ZM2.68381 3.77632H14.833V1.77632H2.68381V3.77632ZM13.833 2.77632V4.476H15.833V2.77632H13.833ZM14.833 3.476H2.68381V5.476H14.833V3.476ZM3.68381 4.476V2.77632H1.68381V4.476H3.68381ZM17.1263 12.4854C17.0663 12.2687 16.94 12.0623 16.7489 11.9068L15.4862 13.4578C15.3381 13.3372 15.2435 13.1802 15.199 13.0198L17.1263 12.4854ZM16.7489 11.9068C16.556 11.7497 16.3088 11.6553 16.0432 11.6553L16.0431 13.6553C15.831 13.6553 15.636 13.5797 15.4862 13.4578L16.7489 11.9068ZM16.0431 11.6553H15.9607V13.6553H16.0431V11.6553ZM16.9607 12.6553V2.77639H14.9607V12.6553H16.9607ZM15.9607 1.77639H15.7107V3.77639H15.9607V1.77639ZM14.7107 2.77639V12.6553H16.7107V2.77639H14.7107ZM15.7107 11.6553H15.6281V13.6553H15.7107V11.6553ZM15.6281 11.6553C15.3624 11.6553 15.1153 11.7497 14.9224 11.9068L16.1851 13.4578C16.0353 13.5797 15.8403 13.6553 15.6282 13.6553L15.6281 11.6553ZM14.9224 11.9068C14.7313 12.0623 14.605 12.2687 14.5449 12.4854L16.4722 13.0198C16.4277 13.1802 16.3331 13.3372 16.1851 13.4578L14.9224 11.9068ZM14.5449 12.4854L14.213 13.6825L16.1403 14.2168L16.4722 13.0198L14.5449 12.4854ZM14.213 13.6825C14.1691 13.8411 14.1599 14.0068 14.1852 14.1681L16.161 13.858C16.1797 13.977 16.1729 14.0993 16.1403 14.2168L14.213 13.6825ZM14.1852 14.1681C14.2105 14.3295 14.2707 14.4881 14.3665 14.6303L16.0251 13.5127C16.0977 13.6204 16.1423 13.7389 16.161 13.858L14.1852 14.1681ZM14.3665 14.6303C14.4625 14.7728 14.5938 14.8976 14.7556 14.9872L15.7245 13.2376C15.8514 13.3079 15.9523 13.4047 16.0251 13.5127L14.3665 14.6303ZM14.7556 14.9872C14.9181 15.0772 15.1036 15.1271 15.2962 15.1271L15.2963 13.1271C15.4499 13.1271 15.5969 13.1669 15.7245 13.2376L14.7556 14.9872ZM15.2963 15.1271H16.375V13.1271H15.2963V15.1271ZM16.3751 15.1271C16.5677 15.1271 16.7532 15.0772 16.9157 14.9872L15.9468 13.2376C16.0744 13.1669 16.2214 13.1271 16.3749 13.1271L16.3751 15.1271ZM16.9157 14.9872C17.0775 14.8976 17.2087 14.7728 17.3047 14.6303L15.6462 13.5127C15.7189 13.4047 15.8199 13.3079 15.9468 13.2376L16.9157 14.9872ZM17.3047 14.6303C17.4006 14.4881 17.4608 14.3295 17.4861 14.1681L15.5103 13.858C15.529 13.7389 15.5736 13.6204 15.6462 13.5127L17.3047 14.6303ZM17.4861 14.1681C17.5114 14.0068 17.5022 13.8411 17.4582 13.6825L15.5309 14.2168C15.4983 14.0993 15.4916 13.977 15.5103 13.858L17.4861 14.1681ZM17.4582 13.6825L17.1263 12.4854L15.199 13.0198L15.5309 14.2168L17.4582 13.6825Z" fill="white" mask="url(#path-4-inside-2_2363_7907)"/>
</svg>
