<svg width="16" height="16" viewBox="0 0 16 16" fill="none" xmlns="http://www.w3.org/2000/svg">
<g clip-path="url(#clip0_2318_14572)">
<path fill-rule="evenodd" clip-rule="evenodd" d="M14.8522 4.21563C15.3721 3.93832 16 4.31513 16 4.90427V11.0961C16 11.6854 15.3721 12.062 14.8522 11.7848L12.1205 10.3279C11.9956 10.2613 11.8912 10.1621 11.8185 10.0408C11.7457 9.91949 11.7072 9.78069 11.7072 9.63924V6.36119C11.7072 6.07292 11.866 5.8082 12.1205 5.67255L14.8522 4.21563ZM15.2195 4.90435L12.4878 6.36127V9.63932L15.2195 11.0962V4.90435ZM8.97559 4.09785H1.56094C1.35395 4.09785 1.15543 4.18008 1.00907 4.32645C0.8627 4.47282 0.780472 4.67133 0.780472 4.87833V11.1223C0.780472 11.3293 0.8627 11.5278 1.00907 11.6741C1.15543 11.8205 1.35395 11.9027 1.56094 11.9027H8.97559C9.07809 11.9027 9.17958 11.8826 9.27428 11.8433C9.36897 11.8041 9.45502 11.7466 9.52749 11.6742C9.59997 11.6017 9.65746 11.5156 9.69667 11.421C9.73589 11.3263 9.75607 11.2248 9.75606 11.1223V4.87833C9.75606 4.67133 9.67383 4.47282 9.52747 4.32645C9.3811 4.18008 9.18258 4.09785 8.97559 4.09785ZM1.56094 3.31738C0.69885 3.31738 0 4.01623 0 4.87833V11.1223C0 11.9844 0.69885 12.6832 1.56094 12.6832H8.97559C9.83768 12.6832 10.5365 11.9844 10.5365 11.1223V4.87833C10.5365 4.01623 9.83768 3.31738 8.97559 3.31738H1.56094Z" fill="white"/>
</g>
<defs>
<clipPath id="clip0_2318_14572">
<rect width="16" height="16" fill="white"/>
</clipPath>
</defs>
</svg>
