<svg width="40" height="40" viewBox="0 0 40 40" fill="none" xmlns="http://www.w3.org/2000/svg">
<path d="M25.1124 3.33301H13.4719C12.4745 3.3342 11.6664 4.14296 11.666 5.14044V32.257C11.6685 34.6912 13.6412 36.6639 16.0754 36.6663H22.5092C24.9433 36.6639 26.916 34.6912 26.9185 32.257V5.14044C26.918 4.14296 26.1099 3.3342 25.1124 3.33301ZM20.6538 6.84416H23.3757C23.4626 6.84416 23.5487 6.86129 23.629 6.89456C23.7094 6.92784 23.7824 6.97661 23.8438 7.03809C23.9053 7.09957 23.9541 7.17256 23.9874 7.25289C24.0206 7.33321 24.0378 7.41931 24.0378 7.50626C24.0378 7.59321 24.0206 7.6793 23.9874 7.75963C23.9541 7.83996 23.9053 7.91295 23.8438 7.97443C23.7824 8.03591 23.7094 8.08468 23.629 8.11796C23.5487 8.15123 23.4626 8.16835 23.3757 8.16835H20.6538C20.4782 8.16835 20.3098 8.0986 20.1857 7.97443C20.0615 7.85026 19.9917 7.68186 19.9917 7.50626C19.9917 7.33066 20.0615 7.16225 20.1857 7.03809C20.3098 6.91392 20.4782 6.84416 20.6538 6.84416ZM15.2094 6.84342L15.2102 6.84416H17.932C18.0843 6.84358 18.2321 6.89554 18.3506 6.99127C18.4346 7.06041 18.5004 7.14922 18.5419 7.24982C18.5835 7.35042 18.5996 7.45972 18.5889 7.56805C18.5759 7.70992 18.5175 7.84381 18.4223 7.94983C18.3271 8.05585 18.2003 8.12835 18.0607 8.15655H18.0489C18.0101 8.16374 17.9707 8.16744 17.9312 8.16761H15.2094C15.1224 8.1676 15.0363 8.15047 14.956 8.11719C14.8757 8.08392 14.8027 8.03514 14.7412 7.97366C14.6797 7.91217 14.631 7.83918 14.5977 7.75885C14.5644 7.67852 14.5473 7.59242 14.5473 7.50547C14.5473 7.41853 14.5644 7.33243 14.5977 7.2521C14.631 7.17178 14.6798 7.09879 14.7413 7.03731C14.8027 6.97583 14.8757 6.92707 14.9561 6.8938C15.0364 6.86053 15.1225 6.84341 15.2094 6.84342ZM15.8561 30.2252C15.8476 30.2678 15.835 30.3094 15.8186 30.3495C15.8015 30.3892 15.7811 30.4274 15.7575 30.4635C15.6851 30.5727 15.5816 30.6575 15.4603 30.707C15.4205 30.7237 15.3791 30.7366 15.3368 30.7453C15.2512 30.7619 15.1633 30.7619 15.0778 30.7453C15.0355 30.7366 14.9941 30.7238 14.9542 30.707C14.9141 30.6908 14.8757 30.6706 14.8395 30.6467C14.8035 30.6224 14.7697 30.5948 14.7387 30.5643C14.7082 30.5335 14.6809 30.4997 14.657 30.4635C14.6328 30.4277 14.6124 30.3895 14.596 30.3495C14.5792 30.3095 14.5666 30.2679 14.5585 30.2252C14.5408 30.1401 14.5408 30.0522 14.5585 29.967C14.5666 29.9244 14.5792 29.8827 14.596 29.8427C14.6296 29.7627 14.678 29.6898 14.7387 29.6279C14.7697 29.5975 14.8035 29.5699 14.8395 29.5455C14.8751 29.5233 14.9128 29.5046 14.952 29.4896C15.0321 29.4558 15.1181 29.4383 15.205 29.4383C15.292 29.4383 15.378 29.4558 15.4581 29.4896C15.5793 29.5391 15.6829 29.624 15.7553 29.7331C15.7789 29.7693 15.7994 29.8074 15.8163 29.8471C15.8328 29.8872 15.8454 29.9288 15.8538 29.9714C15.8715 30.0566 15.8715 30.1445 15.8538 30.2296L15.8561 30.2252ZM15.205 27.1974L15.2072 27.2092C15.0316 27.2092 14.8632 27.1394 14.739 27.0153C14.6149 26.8911 14.5451 26.7227 14.5451 26.5471C14.5451 26.4601 14.5622 26.374 14.5955 26.2937C14.6288 26.2134 14.6776 26.1404 14.739 26.0789C14.8005 26.0174 14.8735 25.9687 14.9538 25.9354C15.0342 25.9021 15.1203 25.885 15.2072 25.885H17.929C17.9516 25.8839 17.9742 25.8839 17.9967 25.885H18.0173L18.06 25.8909C18.1819 25.9159 18.2944 25.9748 18.3844 26.0608L18.3962 26.0711C18.504 26.1793 18.5711 26.3215 18.586 26.4735C18.6032 26.6481 18.5505 26.8224 18.4393 26.9581C18.3281 27.0938 18.1676 27.1799 17.9931 27.1974C17.971 27.1985 17.9489 27.1985 17.9269 27.1974H15.205ZM14.5452 23.008V23.0013C14.5452 22.8257 14.6149 22.6573 14.7391 22.5332C14.8633 22.409 15.0317 22.3392 15.2073 22.3392H17.9291C17.9521 22.338 17.9752 22.338 17.9983 22.3392C18.1729 22.3567 18.3334 22.4428 18.4445 22.5785C18.5557 22.7142 18.6085 22.8885 18.5912 23.0631C18.5773 23.2041 18.5186 23.3369 18.4237 23.442C18.3287 23.5472 18.2026 23.6191 18.0637 23.6472H18.0395C18.0047 23.653 17.9695 23.6559 17.9343 23.656H15.2124C15.0383 23.6575 14.8707 23.5903 14.7458 23.469C14.6209 23.3477 14.5488 23.182 14.5452 23.008ZM21.0231 30.6379V30.6423L21.0128 30.6482C20.9061 30.7168 20.782 30.7533 20.6553 30.7534H17.9334C17.7578 30.7534 17.5894 30.6837 17.4653 30.5595C17.3411 30.4353 17.2713 30.2669 17.2713 30.0913C17.2713 29.9157 17.3411 29.7473 17.4653 29.6232C17.5894 29.499 17.7578 29.4292 17.9334 29.4292H20.6553C20.7826 29.4293 20.9073 29.4661 21.0143 29.5352L21.0231 29.5403C21.168 29.6375 21.2687 29.7879 21.3033 29.9589C21.3033 29.9677 21.3033 29.9758 21.307 29.9846C21.3278 30.1093 21.312 30.2373 21.2616 30.3533C21.2113 30.4692 21.1284 30.5681 21.0231 30.6379ZM20.656 27.2062C20.2904 27.2062 19.9939 26.9098 19.9939 26.5441C19.9939 26.1784 20.2903 25.882 20.656 25.882H23.3778C23.5307 25.882 23.6788 25.9349 23.797 26.0318C23.9153 26.1286 23.9964 26.2633 24.0266 26.4131V26.4367C24.0387 26.506 24.0387 26.5769 24.0266 26.6463L24.0303 26.6536C24.0303 26.6624 24.0303 26.6713 24.0266 26.6801C24.0051 26.7856 23.9581 26.8844 23.8898 26.9677C23.7788 27.1028 23.6188 27.1885 23.4448 27.206C23.4225 27.2072 23.4001 27.2072 23.3778 27.206H20.656V27.2062ZM19.9976 23.0036C19.9976 22.828 20.0674 22.6596 20.1916 22.5354C20.3157 22.4112 20.4841 22.3415 20.6597 22.3415H23.3816C23.4038 22.3404 23.4262 22.3404 23.4485 22.3415C23.6225 22.359 23.7825 22.4447 23.8936 22.5798C23.9619 22.6631 24.0089 22.7619 24.0304 22.8674C24.0304 22.8763 24.0304 22.8851 24.034 22.8932C24.0461 22.9626 24.0461 23.0335 24.034 23.1029L24.0304 23.1109V23.1345C24.0001 23.2843 23.919 23.419 23.8008 23.5158C23.6825 23.6126 23.5344 23.6655 23.3816 23.6656H20.6597C20.5728 23.6656 20.4867 23.6485 20.4064 23.6152C20.326 23.582 20.253 23.5332 20.1916 23.4717C20.1301 23.4103 20.0813 23.3373 20.048 23.2569C20.0148 23.1766 19.9976 23.0905 19.9976 23.0036ZM24.0325 30.2304L24.0266 30.2252C24.0179 30.2678 24.0051 30.3094 23.9884 30.3495C23.9539 30.4301 23.9039 30.503 23.8413 30.5643C23.8106 30.5949 23.7771 30.6225 23.7412 30.6467C23.7049 30.6705 23.6665 30.691 23.6265 30.7078C23.5865 30.7239 23.5451 30.7365 23.5029 30.7453C23.4174 30.7619 23.3295 30.7619 23.2439 30.7453C23.2017 30.7365 23.1604 30.7239 23.1204 30.7078C23.0804 30.6908 23.042 30.6704 23.0056 30.6467C22.8598 30.549 22.7587 30.3974 22.7246 30.2252C22.707 30.1401 22.707 30.0522 22.7246 29.967C22.7331 29.9244 22.7456 29.8828 22.7621 29.8427C22.8126 29.7228 22.8973 29.6205 23.0056 29.5485C23.042 29.5248 23.0804 29.5044 23.1204 29.4874C23.1604 29.4713 23.2017 29.4587 23.2439 29.4499C23.3294 29.433 23.4174 29.433 23.5029 29.4499C23.5472 29.4591 23.5905 29.4724 23.6324 29.4897C23.6724 29.5065 23.7108 29.527 23.7471 29.5507C23.783 29.5749 23.8165 29.6025 23.8472 29.6331C23.9098 29.6944 23.9598 29.7674 23.9943 29.8479C24.011 29.888 24.0239 29.9297 24.0325 29.9722C24.0493 30.0575 24.0493 30.1451 24.0325 30.2304ZM19.2921 20.2428C16.4015 20.2428 14.0582 17.8995 14.0582 15.0089C14.0582 12.1182 16.4015 9.77496 19.2921 9.77496C22.1827 9.77496 24.5261 12.1183 24.5261 15.0089C24.5229 17.8981 22.1815 20.2395 19.2921 20.2428Z" fill="#045284"/>
<path d="M19.2907 11.0996C17.1314 11.0996 15.3809 12.8501 15.3809 15.0094C15.3809 17.1687 17.1314 18.9192 19.2907 18.9192C21.45 18.9192 23.2005 17.1687 23.2005 15.0094C23.1981 12.8511 21.449 11.102 19.2907 11.0996Z" fill="#045284"/>
</svg>
