<svg width="14" height="14" viewBox="0 0 14 14" fill="none" xmlns="http://www.w3.org/2000/svg">
<path d="M11.8125 10.605L11.655 9.97062C10.6503 11.5926 8.90638 12.6104 7 12.6875C4.1005 12.6875 1.75 10.337 1.75 7.4375H2.625C2.625 9.85376 4.58374 11.8125 7 11.8125C8.65236 11.7401 10.1549 10.8339 10.99 9.40625L10.1675 9.625L9.9575 8.75L11.7075 8.3125C11.9418 8.2547 12.1787 8.39762 12.2369 8.63188L12.6744 10.3819L11.8125 10.605ZM2.2925 5.6875L4.0425 5.25L3.8325 4.375L3.01 4.58063C3.84822 3.15801 5.35027 2.25712 7 2.1875C9.41626 2.1875 11.375 4.14624 11.375 6.5625H12.25C12.25 3.663 9.8995 1.3125 7 1.3125C5.08892 1.38526 3.33914 2.40365 2.33187 4.02938L2.1875 3.395L1.3125 3.605L1.75 5.355C1.75993 5.38863 1.80767 5.53656 1.96221 5.62871C2.11042 5.71706 2.25643 5.6942 2.2925 5.6875Z" fill="black"/>
</svg>
