<svg width="20" height="20" viewBox="0 0 20 20" fill="none" xmlns="http://www.w3.org/2000/svg">
<path fill-rule="evenodd" clip-rule="evenodd" d="M10.0103 13.784C7.93441 13.784 6.24555 12.0952 6.24555 10.0193C6.24555 7.94343 7.93441 6.25459 10.0103 6.25459C12.0862 6.25459 13.775 7.94343 13.775 10.0193C13.775 12.0952 12.0862 13.784 10.0103 13.784ZM10.0103 8.26925C9.04527 8.26925 8.26018 9.05433 8.26018 10.0193C8.26018 10.9843 9.04527 11.7694 10.0103 11.7694C10.9753 11.7694 11.7604 10.9843 11.7604 10.0193C11.7604 9.05431 10.9753 8.26925 10.0103 8.26925ZM12.0592 19.6001H8.11496L7.10764 18.5928C7.10764 18.5928 7.10733 18.5999 7.10793 18.6133C7.10496 18.5468 7.06066 17.9531 6.42348 17.5768C6.18158 17.4339 5.83269 17.3584 5.41451 17.3584C4.82451 17.3584 4.3069 17.5082 4.30193 17.5097L3.16513 17.0977L0.806733 13.4928L1.28765 12.0013C1.28765 12.0013 1.27926 12.004 1.26422 12.0108C1.34047 11.9765 2.00846 11.6426 1.98443 10.5046C1.97388 10.0046 1.8193 9.59221 1.52502 9.27901C1.2889 9.02771 1.04153 8.9236 1.03906 8.92256C1.04952 8.92691 1.0552 8.92878 1.0552 8.92878L0.554688 7.44543L3.27905 3.14383L4.6733 2.83453L4.66785 2.82542C4.81434 2.91648 5.28817 3.14726 5.71594 3.14726C5.71596 3.14726 5.71601 3.14726 5.71604 3.14726C5.88507 3.14726 6.01662 3.11742 6.13009 3.0412C6.75098 2.62417 7.07284 1.50782 7.12503 1.23093L8.11491 0.413086H11.9778L12.9851 1.4204C12.9851 1.4204 12.9853 1.41532 12.985 1.40556C12.9862 1.4441 13.025 2.35579 13.9221 2.89811C14.1867 3.05806 14.448 3.13582 14.7208 3.13582C15.1555 3.13582 15.4753 2.93104 15.4784 2.92896C15.4692 2.935 15.4645 2.93853 15.4645 2.93853L16.9096 3.24712L19.4713 7.54993L18.97 9.00437C18.97 9.00437 18.9749 9.00265 18.984 8.99881C18.9814 8.99991 18.7198 9.11285 18.4745 9.37202C18.1736 9.6899 18.0273 10.0801 18.0273 10.5649C18.0273 11.071 18.1615 11.463 18.4262 11.7297C18.5655 11.8701 18.7137 11.9423 18.7148 11.9426L19.2324 13.4712L16.752 17.0767L15.4683 17.405C15.4683 17.405 15.4715 17.4067 15.4778 17.4097C15.4733 17.4076 15.1141 17.239 14.6678 17.239C14.4193 17.239 14.1908 17.2925 13.9886 17.3978C13.3896 17.71 13.1057 18.5093 13.0468 18.791L13.0483 18.7838L12.0592 19.6001ZM8.92072 17.5855H11.3306C11.3646 17.505 11.4025 17.4211 11.4446 17.3352C11.8259 16.5586 12.3836 15.9624 13.0575 15.6112C13.5501 15.3545 14.0918 15.2244 14.6678 15.2244C14.9812 15.2244 15.2696 15.2638 15.5169 15.3174L17.0036 13.1563C17.0012 13.1538 16.9987 13.1514 16.9962 13.1488C16.5475 12.6967 16.0126 11.8813 16.0126 10.5649C16.0126 9.51786 16.3911 8.59279 17.1071 7.88968C17.1547 7.84286 17.2024 7.79857 17.2497 7.75662L15.6261 5.02957C15.3633 5.10023 15.058 5.15047 14.7209 5.15047C14.0791 5.15047 13.4597 4.97275 12.8799 4.62223C12.1016 4.15172 11.5247 3.45914 11.2118 2.61942C11.1874 2.55399 11.1655 2.49001 11.1458 2.42774H8.87585C8.62522 3.13577 8.13753 4.11977 7.25342 4.71361C6.80499 5.01482 6.28771 5.16189 5.71604 5.16189C5.71594 5.16189 5.71587 5.16189 5.71577 5.16189C5.27313 5.16189 4.85725 5.07329 4.51198 4.95671L2.78275 7.6899C2.81801 7.72187 2.85346 7.75669 2.88888 7.79144C3.37956 8.27296 3.97043 9.12765 3.99861 10.4614C4.02662 11.7885 3.51478 12.6357 3.08046 13.1124C3.05794 13.1371 3.03533 13.1614 3.01276 13.1847L4.47358 15.4177C4.74316 15.3763 5.06644 15.3437 5.41449 15.3437C6.20394 15.3437 6.8881 15.5114 7.44797 15.842C8.24937 16.3154 8.69446 16.9854 8.92072 17.5855Z" fill="white"/>
</svg>
