<svg width="13" height="13" viewBox="0 0 13 13" fill="none" xmlns="http://www.w3.org/2000/svg">
<path d="M12.2123 7.99359C12.1573 7.93871 12.0879 7.90055 12.0121 7.88353C11.9363 7.8665 11.8572 7.87131 11.784 7.8974C10.8004 8.24806 9.73759 8.31245 8.71891 8.08308C7.70023 7.85371 6.76755 7.34 6.02922 6.60163C5.29089 5.86326 4.77724 4.93054 4.54792 3.91185C4.31861 2.89316 4.38306 1.83031 4.73379 0.846789C4.75985 0.773588 4.76463 0.6945 4.74757 0.618693C4.73052 0.542885 4.69233 0.473464 4.63743 0.418478C4.58253 0.363491 4.51317 0.325191 4.43739 0.308017C4.36161 0.290844 4.28251 0.2955 4.20927 0.321447C3.32255 0.634571 2.51787 1.14363 1.85509 1.81074C0.666954 2.99978 -0.000317658 4.61201 1.13446e-07 6.29292C0.000317885 7.97384 0.6682 9.58581 1.85679 10.7744C3.04537 11.963 4.65735 12.6309 6.33827 12.6312C8.01918 12.6315 9.63141 11.9642 10.8204 10.7761C11.4876 10.1132 11.9967 9.30837 12.3097 8.42151C12.3356 8.34826 12.3402 8.26919 12.3229 8.19346C12.3057 8.11772 12.2673 8.04842 12.2123 7.99359Z" fill="#161616"/>
</svg>
