<svg width="12" height="12" viewBox="0 0 12 12" fill="none" xmlns="http://www.w3.org/2000/svg">
<rect opacity="0.01" width="12" height="12" fill="black"/>
<path fill-rule="evenodd" clip-rule="evenodd" d="M6.00021 1C3.24287 1 1 3.24344 1 6.00021C1 8.75739 3.24288 11 6.00021 11C8.75713 11 11 8.75741 11 6.00021C11 3.24341 8.75713 1 6.00021 1ZM6.00021 10.0806C3.74991 10.0806 1.91954 8.25023 1.91954 6.00022C1.91954 3.75018 3.74992 1.91977 6.00021 1.91977C8.24968 1.91977 10.0801 3.75019 10.0801 6.00022C10.0801 8.25025 8.24968 10.0806 6.00021 10.0806ZM8.3719 7.2388L6.45977 5.99773V3.48792C6.45977 3.23394 6.25457 3.02783 6.00022 3.02783C5.74586 3.02783 5.54026 3.23394 5.54026 3.48792V6.49703L7.87066 8.01027C7.94869 8.06066 8.0354 8.08461 8.12087 8.08461C8.2716 8.08461 8.41941 8.01108 8.50694 7.87522C8.64568 7.66169 8.58456 7.37714 8.37191 7.23879L8.3719 7.2388Z" fill="#1E1F20"/>
</svg>
