<svg width="184" height="140" viewBox="0 0 184 140" fill="none" xmlns="http://www.w3.org/2000/svg">
<g clip-path="url(#clip0_3219_3616)">
<path d="M73.6314 29.0328H72.9601V10.6433C72.9601 9.24562 72.6848 7.86161 72.1499 6.5703C71.615 5.279 70.8311 4.10568 69.8427 3.11736C68.8544 2.12904 67.6811 1.34506 66.3898 0.810178C65.0985 0.2753 63.7145 1.18424e-06 62.3168 0H23.3562C20.5334 -5.38119e-06 17.8263 1.12133 15.8303 3.11734C13.8342 5.11334 12.7129 7.82051 12.7129 10.6433V111.529C12.7129 112.927 12.9882 114.311 13.5231 115.602C14.0579 116.894 14.8419 118.067 15.8302 119.055C16.8186 120.044 17.9919 120.827 19.2832 121.362C20.5745 121.897 21.9585 122.173 23.3562 122.173H62.3167C65.1395 122.173 67.8467 121.051 69.8427 119.055C71.8387 117.059 72.9601 114.352 72.9601 111.529V42.1227H73.6314V29.0328Z" fill="#3F3D56"/>
<path d="M62.7469 2.76855H57.6612C57.8951 3.34194 57.9844 3.96405 57.9212 4.58007C57.858 5.19608 57.6443 5.78711 57.2989 6.30108C56.9535 6.81505 56.487 7.23618 55.9404 7.52738C55.3939 7.81859 54.7842 7.97092 54.165 7.97097H31.845C31.2257 7.97092 30.616 7.81859 30.0695 7.52739C29.523 7.23618 29.0565 6.81505 28.711 6.30108C28.3656 5.78711 28.1519 5.19609 28.0887 4.58007C28.0255 3.96405 28.1148 3.34194 28.3487 2.76855H23.5987C22.5549 2.76855 21.5213 2.97414 20.557 3.37358C19.5927 3.77302 18.7165 4.35849 17.9784 5.09656C17.2403 5.83463 16.6549 6.71084 16.2554 7.67518C15.856 8.63951 15.6504 9.67308 15.6504 10.7169V111.455C15.6504 112.499 15.856 113.532 16.2554 114.497C16.6549 115.461 17.2403 116.337 17.9784 117.075C18.7165 117.813 19.5927 118.399 20.557 118.798C21.5213 119.198 22.5549 119.403 23.5987 119.403H62.7469C63.7906 119.403 64.8242 119.198 65.7885 118.798C66.7529 118.399 67.6291 117.813 68.3672 117.075C69.1052 116.337 69.6907 115.461 70.0901 114.497C70.4896 113.532 70.6952 112.499 70.6952 111.455V10.7169C70.6952 9.67308 70.4896 8.63951 70.0901 7.67518C69.6907 6.71084 69.1052 5.83463 68.3672 5.09656C67.6291 4.35849 66.7529 3.77302 65.7885 3.37358C64.8242 2.97414 63.7906 2.76855 62.7469 2.76855Z" fill="white"/>
<path d="M86.1193 122.19H0.225443C0.165652 122.19 0.108309 122.166 0.0660306 122.124C0.0237518 122.082 0 122.024 0 121.965C0 121.905 0.0237518 121.848 0.0660306 121.805C0.108309 121.763 0.165652 121.739 0.225443 121.739H86.1193C86.1791 121.739 86.2364 121.763 86.2787 121.805C86.321 121.848 86.3447 121.905 86.3447 121.965C86.3447 122.024 86.321 122.082 86.2787 122.124C86.2364 122.166 86.1791 122.19 86.1193 122.19Z" fill="#CBCBCB"/>
<path d="M43.1726 77.9311C53.6868 77.9311 62.2103 69.4075 62.2103 58.8933C62.2103 48.379 53.6868 39.8555 43.1726 39.8555C32.6583 39.8555 24.1348 48.379 24.1348 58.8933C24.1348 69.4075 32.6583 77.9311 43.1726 77.9311Z" fill="#045284"/>
<path d="M41.286 66.1559C40.8578 66.1566 40.4408 66.0181 40.0982 65.7611L40.0769 65.7452L35.6028 62.3226C35.3956 62.1638 35.2217 61.9656 35.091 61.7396C34.9604 61.5135 34.8755 61.2639 34.8413 61.0051C34.8071 60.7462 34.8243 60.4832 34.8917 60.2309C34.9592 59.9787 35.0757 59.7422 35.2346 59.535C35.3934 59.3278 35.5915 59.1539 35.8176 59.0232C36.0437 58.8926 36.2933 58.8077 36.5521 58.7736C36.811 58.7394 37.074 58.7565 37.3263 58.824C37.5785 58.8914 37.815 59.0079 38.0222 59.1668L40.9202 61.3891L47.7683 52.455C47.9271 52.2479 48.1251 52.074 48.3511 51.9434C48.5771 51.8129 48.8265 51.728 49.0853 51.6939C49.344 51.6597 49.607 51.6768 49.8591 51.7443C50.1112 51.8117 50.3476 51.9281 50.5548 52.0869L50.5553 52.0874L50.5128 52.1464L50.5565 52.0874C50.9744 52.4085 51.2478 52.8824 51.3167 53.4049C51.3856 53.9274 51.2444 54.4559 50.9241 54.8744L42.8693 65.3782C42.6829 65.6202 42.4433 65.816 42.169 65.9505C41.8948 66.085 41.5932 66.1545 41.2878 66.1536L41.286 66.1559Z" fill="white"/>
<path d="M156.512 124.061C156.744 123.686 157.016 123.339 157.325 123.025C157.452 122.893 157.587 122.768 157.725 122.647C158.567 121.898 159.593 121.387 160.698 121.165C161.803 120.944 162.947 121.021 164.012 121.389C165.077 121.756 166.026 122.401 166.759 123.256C167.493 124.112 167.985 125.147 168.186 126.256C169.116 122.818 166.695 119.431 164.262 116.829C161.827 114.228 159.044 111.375 159.058 107.812C159.065 105.829 160.035 104.06 161.5 102.748C161.545 102.709 161.59 102.669 161.636 102.631C163.406 101.113 165.684 100.32 168.014 100.408C172.342 100.64 176.121 103.549 178.746 106.999C182.97 112.552 184.821 120.345 181.864 126.665C179.263 132.224 173.714 135.525 168.052 138.178C167.262 138.549 166.472 138.908 165.685 139.257C165.68 139.258 165.674 139.262 165.669 139.263C165.631 139.28 165.593 139.296 165.557 139.314C165.395 139.385 165.232 139.457 165.071 139.528L165.146 139.577L165.379 139.727C165.298 139.678 165.218 139.631 165.137 139.582C165.113 139.567 165.088 139.553 165.064 139.539C162.283 137.87 159.463 136.105 157.542 133.499C155.549 130.795 154.748 126.92 156.512 124.061Z" fill="#F1F1F1"/>
<path d="M175.068 117.78C175.684 119.181 176.092 120.664 176.28 122.183C176.427 123.537 176.372 124.906 176.115 126.244C175.563 128.993 174.358 131.569 172.603 133.756C171.279 135.416 169.75 136.902 168.053 138.179C167.263 138.55 166.474 138.909 165.686 139.257C165.681 139.259 165.675 139.263 165.67 139.264C165.632 139.281 165.594 139.297 165.558 139.314C165.396 139.386 165.233 139.458 165.072 139.529L165.147 139.577L165.38 139.728C165.299 139.679 165.219 139.632 165.138 139.583C165.114 139.568 165.089 139.554 165.065 139.539C165.677 137.399 165.767 135.142 165.327 132.96C164.888 130.777 163.932 128.731 162.539 126.994C161.138 125.279 159.352 123.919 157.326 123.026C157.453 122.894 157.588 122.769 157.726 122.648C158.506 123.007 159.254 123.433 159.959 123.923C162.481 125.666 164.375 128.175 165.36 131.079C166.24 133.713 166.35 136.543 165.677 139.237C165.816 139.146 165.956 139.052 166.093 138.959C168.683 137.212 171.071 135.114 172.87 132.54C174.421 130.366 175.414 127.843 175.76 125.194C176.105 122.301 175.381 119.456 174.089 116.874C172.663 114.113 170.866 111.559 168.747 109.284C166.619 106.946 164.214 104.878 161.583 103.124C161.524 103.084 161.483 103.023 161.467 102.953C161.452 102.883 161.464 102.81 161.501 102.749C161.529 102.693 161.578 102.651 161.637 102.631C161.667 102.624 161.699 102.623 161.729 102.629C161.76 102.635 161.788 102.648 161.813 102.667C162.138 102.884 162.46 103.102 162.778 103.327C165.427 105.203 167.832 107.4 169.939 109.869C171.975 112.248 173.828 114.892 175.068 117.78Z" fill="white"/>
<path d="M118.367 8.84013C120.6 8.84013 122.41 7.02996 122.41 4.79702C122.41 2.56407 120.6 0.753906 118.367 0.753906C116.134 0.753906 114.324 2.56407 114.324 4.79702C114.324 7.02996 116.134 8.84013 118.367 8.84013Z" fill="#F1F1F1"/>
<path d="M168.641 62.9456C170.002 62.9456 171.106 61.842 171.106 60.4806C171.106 59.1192 170.002 58.0156 168.641 58.0156C167.279 58.0156 166.176 59.1192 166.176 60.4806C166.176 61.842 167.279 62.9456 168.641 62.9456Z" fill="#F1F1F1"/>
<path d="M96.4982 69.7093C97.8596 69.7093 98.9632 68.6057 98.9632 67.2443C98.9632 65.8829 97.8596 64.7793 96.4982 64.7793C95.1368 64.7793 94.0332 65.8829 94.0332 67.2443C94.0332 68.6057 95.1368 69.7093 96.4982 69.7093Z" fill="#F1F1F1"/>
<path d="M97.8915 140H183.785C183.845 140 183.902 139.976 183.945 139.934C183.987 139.891 184.011 139.834 184.011 139.774C184.011 139.714 183.987 139.657 183.945 139.615C183.902 139.573 183.845 139.549 183.785 139.549H97.8915C97.8317 139.549 97.7743 139.573 97.732 139.615C97.6898 139.657 97.666 139.714 97.666 139.774C97.666 139.834 97.6898 139.891 97.732 139.934C97.7743 139.976 97.8317 140 97.8915 140Z" fill="#CBCBCB"/>
<path d="M174.305 21.7854C174.418 20.9846 174.233 20.1703 173.786 19.4968C173.338 18.8232 172.659 18.3372 171.877 18.1309C171.096 17.9245 170.265 18.0121 169.544 18.3771C168.822 18.7421 168.259 19.3591 167.962 20.1112L160.992 28.1019L163.037 33.8139L170.047 24.4771C170.504 24.6236 170.988 24.6681 171.465 24.6073C171.941 24.5466 172.399 24.3821 172.805 24.1254C173.211 23.8688 173.555 23.5263 173.815 23.122C174.074 22.7177 174.242 22.2614 174.305 21.7854Z" fill="#FFB7B7"/>
<path d="M145.414 52.8777L168.551 28.1852L165.43 23.2236L136.41 47.7662L145.414 52.8777Z" fill="#3F3D56"/>
<path d="M140.251 37.8745C144.733 37.8745 148.367 34.2408 148.367 29.7585C148.367 25.2762 144.733 21.6426 140.251 21.6426C135.768 21.6426 132.135 25.2762 132.135 29.7585C132.135 34.2408 135.768 37.8745 140.251 37.8745Z" fill="#2F2E41"/>
<path d="M140.902 25.1737C142.649 23.4027 144.762 22.0361 147.094 21.17C148.59 20.6156 150.219 20.273 151.784 20.5879C153.349 20.9028 154.828 21.9852 155.265 23.5204C155.622 24.7758 155.253 26.1274 154.699 27.3091C154.145 28.4908 153.406 29.5866 152.958 30.8124C152.501 32.0632 152.363 33.4083 152.558 34.7257C152.753 36.0431 153.273 37.2909 154.072 38.3561C154.872 39.4212 155.924 40.2699 157.135 40.825C158.345 41.3802 159.675 41.6242 161.004 41.535C159.466 41.7412 158.049 42.4636 156.547 42.8482C155.044 43.2327 153.27 43.2067 152.154 42.1301C150.972 40.9911 150.948 39.1391 151.006 37.499C151.09 35.0608 151.175 32.6226 151.26 30.1845C151.304 28.941 151.341 27.6578 150.892 26.4972C150.444 25.3367 149.378 24.3204 148.134 24.331C147.191 24.339 146.356 24.9102 145.6 25.4735C144.844 26.0369 144.044 26.6379 143.104 26.7217C142.165 26.8055 141.093 26.1104 141.163 25.1701L140.902 25.1737Z" fill="#2F2E41"/>
<path d="M109.426 84.253C108.646 84.4694 107.815 84.3925 107.089 84.0369C106.363 83.6812 105.792 83.0716 105.485 82.3233C105.178 81.5751 105.157 80.7404 105.424 79.9773C105.692 79.2142 106.23 78.5757 106.937 78.1829L113.948 70.2285L119.879 71.5097L111.538 79.6793C111.743 80.1137 111.85 80.5877 111.852 81.068C111.854 81.5483 111.751 82.0232 111.55 82.4593C111.348 82.8953 111.054 83.2819 110.687 83.5918C110.32 83.9017 109.889 84.1274 109.426 84.253Z" fill="#FFB7B7"/>
<path d="M132.491 55.776L115.016 77.7116L109.689 75.266L130.23 43.2881L132.491 55.776Z" fill="#3F3D56"/>
<path d="M118.55 122.012L114.385 121.946L114.886 136.142H118.549L118.55 122.012Z" fill="#FFB7B7"/>
<path d="M119.482 134.946L112.268 134.945H112.268C111.048 134.945 109.879 135.43 109.017 136.292C108.154 137.154 107.67 138.324 107.67 139.543V139.692L119.482 139.693L119.482 134.946Z" fill="#2F2E41"/>
<path d="M146.124 118.247L141.574 121.168L150.675 132.117L153.758 130.137L146.124 118.247Z" fill="#FFB7B7"/>
<path d="M153.898 128.626L147.827 132.524L147.826 132.524C146.8 133.183 146.078 134.222 145.818 135.413C145.559 136.605 145.783 137.85 146.442 138.876L146.522 139.002L156.462 132.621L153.898 128.626Z" fill="#2F2E41"/>
<path d="M147.746 74.9012C147.746 74.9012 137.637 41.3266 134.389 40.8729C131.14 40.4192 125.906 49.4878 125.906 49.4878C119.119 58.1466 112.121 86.1946 112.121 86.1946C112.121 86.1946 123.787 86.9246 132.315 91.4617C140.843 95.9988 150.907 91.232 150.907 91.232L147.746 74.9012Z" fill="#3F3D56"/>
<path opacity="0.1" d="M147.746 74.9011C147.746 74.9011 137.637 41.3265 134.389 40.8728C131.14 40.419 127.235 49.5796 127.235 49.5796C123.853 63.5571 112.121 86.1944 112.121 86.1944C112.121 86.1944 123.787 86.9244 132.315 91.4615C140.843 95.9986 150.907 91.2318 150.907 91.2318L147.746 74.9011Z" fill="black"/>
<path d="M139.452 64.8562V81.7272L141.437 106.166L151.357 124.652L146.622 128.034L133.096 110.45L127.746 92.9892L119.344 131.641L113.031 131.19L117.415 77.6L125.734 62.5156L139.452 64.8562Z" fill="#2F2E41"/>
<path d="M129.26 48.5381C126.104 51.6943 129.035 55.076 129.035 55.076L125.428 63.1919L139.631 67.0244L144.594 44.8457L141.212 41.2387C134.449 41.0132 134.445 40.873 134.445 40.873C133.26 42.0327 129.26 48.5381 129.26 48.5381Z" fill="#045284"/>
<path d="M145.166 42.5479C144.521 42.0717 143.787 41.7283 143.009 41.5374C142.23 41.3466 141.421 41.3122 140.629 41.4362C139.837 41.5602 139.077 41.8401 138.394 42.2597C137.711 42.6794 137.118 43.2304 136.649 43.8809C133.078 48.8524 129.777 56.8802 134.326 66.8923C141.63 82.9685 147.986 91.1983 150.57 91.1974C150.683 91.1983 150.795 91.1807 150.902 91.1452C152.493 90.6056 154.792 87.9142 155.209 85.5424C155.358 84.6934 155.322 83.511 154.307 82.699C151.391 80.3665 146.156 73.1038 144.522 63.5445C143.62 58.2625 145.37 53.451 146.997 50.3449C147.685 49.0597 147.886 47.5698 147.564 46.1484C147.242 44.7269 146.418 43.4692 145.244 42.6056L145.166 42.5479Z" fill="#3F3D56"/>
<path d="M140.667 37.0767C143.562 35.494 144.626 31.8641 143.043 28.9689C141.461 26.0738 137.831 25.0098 134.936 26.5924C132.04 28.175 130.976 31.805 132.559 34.7002C134.142 37.5953 137.772 38.6593 140.667 37.0767Z" fill="#FFB7B7"/>
<path d="M129.4 31.3829H138.027L138.116 30.1444L138.558 31.3829H139.886L140.062 28.9282L140.938 31.3829H143.508V31.2613C143.506 29.5524 142.827 27.9139 141.618 26.7055C140.41 25.4971 138.772 24.8174 137.063 24.8154H135.846C134.137 24.8174 132.499 25.4971 131.29 26.7055C130.082 27.9139 129.402 29.5524 129.4 31.2613V31.3829Z" fill="#2F2E41"/>
<path d="M142.204 35.8348L145.885 34.6403V25.7002H138.932L139.104 25.8721C141.499 28.2642 144.163 36.7513 142.204 35.8348Z" fill="#2F2E41"/>
</g>
<defs>
<clipPath id="clip0_3219_3616">
<rect width="184.01" height="140" fill="white"/>
</clipPath>
</defs>
</svg>
