<svg width="16" height="15" viewBox="0 0 16 15" fill="none" xmlns="http://www.w3.org/2000/svg">
<path d="M13.6903 7.83923H12.453C12.5791 8.18455 12.648 8.5572 12.648 8.94561V13.6222C12.648 13.7841 12.6198 13.9396 12.5685 14.0841H14.6142C15.3783 14.0841 16 13.4624 16 12.6983V10.1489C16 8.87536 14.9639 7.83923 13.6903 7.83923ZM3.35204 8.94564C3.35204 8.5572 3.42094 8.18458 3.54707 7.83927H2.30969C1.03613 7.83927 0 8.87539 0 10.149V12.6984C0 13.4625 0.621658 14.0842 1.38582 14.0842H3.43151C3.37886 13.9359 3.35198 13.7796 3.35204 13.6222V8.94564ZM9.41442 6.63595H6.58561C5.31204 6.63595 4.27591 7.67208 4.27591 8.94564V13.6222C4.27591 13.8773 4.48273 14.0842 4.73785 14.0842H11.2622C11.5173 14.0842 11.7241 13.8773 11.7241 13.6222V8.94564C11.7241 7.67208 10.688 6.63595 9.41442 6.63595ZM8.00002 0.511719C6.46839 0.511719 5.22232 1.75778 5.22232 3.28944C5.22232 4.32835 5.79573 5.2357 6.64254 5.71207C7.0442 5.93801 7.50727 6.06714 8.00002 6.06714C8.49277 6.06714 8.95583 5.93801 9.35749 5.71207C10.2043 5.2357 10.7777 4.32832 10.7777 3.28944C10.7777 1.75781 9.53164 0.511719 8.00002 0.511719ZM3.12244 3.10076C1.97697 3.10076 1.0451 4.03263 1.0451 5.1781C1.0451 6.32357 1.97697 7.25545 3.12244 7.25545C3.40393 7.25569 3.6825 7.1984 3.94104 7.08708C4.3756 6.89998 4.73392 6.56879 4.95564 6.15395C5.11625 5.85378 5.20013 5.51854 5.19979 5.1781C5.19979 4.03266 4.26791 3.10076 3.12244 3.10076ZM12.8776 3.10076C11.7321 3.10076 10.8002 4.03263 10.8002 5.1781C10.7999 5.51854 10.8838 5.85378 11.0444 6.15395C11.2661 6.56883 11.6244 6.90001 12.059 7.08708C12.3175 7.1984 12.5961 7.25569 12.8776 7.25545C14.0231 7.25545 14.9549 6.32357 14.9549 5.1781C14.9549 4.03263 14.0231 3.10076 12.8776 3.10076Z" fill="#161616"/>
</svg>
