<svg width="16" height="17" viewBox="0 0 16 17" fill="none" xmlns="http://www.w3.org/2000/svg">
<g clip-path="url(#clip0_2318_15150)">
<path d="M8 0.297852C5.67378 0.297852 3.78125 2.19038 3.78125 4.5166C3.78125 6.84282 5.67378 8.73535 8 8.73535C10.3262 8.73535 12.2188 6.84282 12.2188 4.5166C12.2188 2.19038 10.3262 0.297852 8 0.297852ZM13.2489 11.4914C12.0939 10.3187 10.5628 9.67285 8.9375 9.67285H7.0625C5.43725 9.67285 3.90606 10.3187 2.75106 11.4914C1.60172 12.6584 0.96875 14.1989 0.96875 15.8291C0.96875 16.088 1.17862 16.2979 1.4375 16.2979H14.5625C14.8214 16.2979 15.0312 16.088 15.0312 15.8291C15.0312 14.1989 14.3983 12.6584 13.2489 11.4914Z" fill="black"/>
</g>
<defs>
<clipPath id="clip0_2318_15150">
<rect width="16" height="16" fill="white" transform="translate(0 0.297852)"/>
</clipPath>
</defs>
</svg>
