<svg width="16" height="16" viewBox="0 0 16 16" fill="none" xmlns="http://www.w3.org/2000/svg">
<path d="M8.16686 3.03364C8.34428 3.03364 8.52159 3.04271 8.6981 3.06079L8.73559 2.69606C8.22998 2.64418 7.71965 2.6618 7.21882 2.74843L7.28161 3.10965C7.57397 3.05902 7.87014 3.03359 8.16686 3.03364ZM5.15787 4.00755L4.94269 3.71067C4.23761 4.22017 3.66362 4.88985 3.26798 5.66458C2.87234 6.4393 2.66637 7.29692 2.66701 8.16682C2.66461 9.01298 2.85945 9.84805 3.23606 10.6058L3.56459 10.443C3.21317 9.73582 3.03139 8.95649 3.03367 8.16682C3.03302 7.35485 3.22526 6.55434 3.59457 5.83122C3.96388 5.10809 4.49969 4.48304 5.15787 4.00755ZM8.344 13.297L8.35637 13.6635C8.87216 13.6463 9.38296 13.5564 9.87366 13.3966L9.75995 13.048C9.30201 13.1972 8.82532 13.281 8.34397 13.297L8.344 13.297Z" fill="#4EB9F8"/>
<path d="M13.5625 8.34375L10.2582 6.75438C10.1268 6.69134 9.97565 6.68301 9.83804 6.73124C9.70044 6.77947 9.58758 6.88031 9.52422 7.01164L8.53313 9.07206V7.2502C8.53285 7.00717 8.43619 6.77418 8.26434 6.60234C8.0925 6.4305 7.85951 6.33383 7.61649 6.33355H6.88318V3.4003C6.88318 3.20582 6.80592 3.0193 6.6684 2.88177C6.53087 2.74425 6.34435 2.66699 6.14987 2.66699C5.95538 2.66699 5.76886 2.74425 5.63134 2.88177C5.49381 3.0193 5.41655 3.20582 5.41655 3.4003V6.33355H4.68324C4.44022 6.33383 4.20723 6.4305 4.03539 6.60234C3.86354 6.77418 3.76688 7.00717 3.7666 7.2502V12.0167C3.76683 12.205 3.82492 12.3886 3.93301 12.5428C4.04111 12.6969 4.19397 12.8141 4.3709 12.8785C4.33164 12.9601 4.31314 13.0501 4.31701 13.1405C4.32089 13.231 4.34703 13.3191 4.39312 13.397C4.43921 13.4749 4.50382 13.5402 4.58122 13.5872C4.65862 13.6342 4.74641 13.6613 4.83681 13.6662C4.92721 13.6711 5.01742 13.6536 5.09944 13.6153C5.18145 13.5769 5.25274 13.5189 5.30697 13.4464C5.3612 13.3739 5.3967 13.2892 5.41031 13.1997C5.42393 13.1102 5.41524 13.0187 5.38502 12.9334H6.91471C6.88453 13.0187 6.87587 13.1101 6.8895 13.1996C6.90313 13.2891 6.93863 13.3738 6.99286 13.4463C7.04708 13.5187 7.11836 13.5767 7.20035 13.615C7.28235 13.6533 7.37253 13.6708 7.4629 13.6659C7.55328 13.6611 7.64105 13.6339 7.71843 13.587C7.79581 13.54 7.86041 13.4747 7.9065 13.3968C7.95259 13.3189 7.97874 13.2309 7.98264 13.1405C7.98653 13.05 7.96805 12.9601 7.92884 12.8785C8.07295 12.8259 8.20163 12.7381 8.30315 12.6231C8.40468 12.5081 8.47584 12.3695 8.51015 12.22L11.099 13.4652C11.1207 13.4757 11.1442 13.4818 11.1682 13.4831C11.1923 13.4845 11.2164 13.4811 11.2391 13.4731C11.2618 13.4651 11.2827 13.4528 11.3007 13.4367C11.3186 13.4206 11.3332 13.4012 11.3436 13.3795L13.6482 8.58844C13.6693 8.54463 13.6721 8.49424 13.656 8.44835C13.6399 8.40247 13.6063 8.36485 13.5625 8.34377V8.34375ZM4.86657 13.3C4.83031 13.3 4.79487 13.2893 4.76472 13.2691C4.73457 13.249 4.71107 13.2203 4.6972 13.1869C4.68332 13.1534 4.67969 13.1165 4.68676 13.0809C4.69384 13.0454 4.7113 13.0127 4.73694 12.9871C4.76258 12.9614 4.79524 12.944 4.8308 12.9369C4.86637 12.9298 4.90323 12.9334 4.93673 12.9473C4.97023 12.9612 4.99886 12.9847 5.019 13.0148C5.03915 13.045 5.0499 13.0804 5.0499 13.1167C5.04984 13.1653 5.0305 13.2119 4.99614 13.2463C4.96177 13.2806 4.91517 13.3 4.86657 13.3ZM5.23323 12.2001H4.86657V7.98351H5.23323V12.2001ZM6.33319 12.2001H5.96654V7.98351H6.33319V12.2001ZM6.51652 6.33355H5.78321V3.4003C5.78321 3.30306 5.82184 3.2098 5.8906 3.14104C5.95936 3.07228 6.05262 3.03365 6.14987 3.03365C6.24711 3.03365 6.34037 3.07228 6.40913 3.14104C6.47789 3.2098 6.51652 3.30306 6.51652 3.4003V6.33355ZM7.06651 7.98351H7.43316V12.2001H7.06651V7.98351ZM7.43316 13.3C7.3969 13.3 7.36146 13.2893 7.33131 13.2691C7.30116 13.249 7.27767 13.2203 7.26379 13.1869C7.24991 13.1534 7.24628 13.1165 7.25336 13.0809C7.26043 13.0454 7.27789 13.0127 7.30353 12.9871C7.32917 12.9614 7.36183 12.944 7.3974 12.9369C7.43296 12.9298 7.46982 12.9334 7.50332 12.9473C7.53682 12.9612 7.56545 12.9847 7.58559 13.0148C7.60574 13.045 7.61649 13.0804 7.61649 13.1167C7.61643 13.1653 7.5971 13.2119 7.56273 13.2463C7.52836 13.2806 7.48177 13.3 7.43316 13.3ZM11.0927 13.0553L7.9537 11.5455C7.932 11.535 7.91258 11.5204 7.89653 11.5025C7.88048 11.4845 7.86812 11.4636 7.86017 11.4409C7.85221 11.4182 7.8488 11.3941 7.85015 11.3701C7.85149 11.346 7.85755 11.3225 7.86799 11.3008L9.62994 7.63775C9.67392 7.6821 9.72518 7.71859 9.78148 7.74564L12.9204 9.25553L11.0927 13.0553Z" fill="#4EB9F8"/>
<path d="M9.39684 9.3919C9.28682 9.62063 9.2471 9.87684 9.28269 10.1281C9.31829 10.3794 9.42761 10.6146 9.59682 10.8037C9.76603 10.9929 9.98754 11.1277 10.2333 11.1909C10.4791 11.2542 10.7382 11.2432 10.9777 11.1593C11.2172 11.0753 11.4265 10.9222 11.579 10.7194C11.7316 10.5165 11.8205 10.273 11.8346 10.0195C11.8487 9.76612 11.7874 9.51421 11.6583 9.29565C11.5293 9.0771 11.3383 8.90173 11.1096 8.79171C10.9579 8.71751 10.793 8.67418 10.6245 8.66423C10.4559 8.65429 10.2871 8.67792 10.1277 8.73375C9.9684 8.78959 9.82174 8.87652 9.69627 8.9895C9.5708 9.10248 9.46902 9.23926 9.39684 9.3919ZM10.3025 10.5326L10.2542 10.57L10.2533 10.5089C10.2511 10.3504 10.2756 10.1926 10.3258 10.0421L10.6219 10.1846C10.5357 10.3177 10.4277 10.4353 10.3025 10.5326ZM11.219 9.31829C11.3248 9.43052 11.4007 9.56755 11.4397 9.71679C11.4787 9.86602 11.4796 10.0227 11.4422 10.1723L11.1135 10.0142C11.1869 9.81158 11.223 9.59732 11.22 9.38182L11.219 9.31829ZM11.2833 10.5027C11.1897 10.6253 11.0668 10.7225 10.9258 10.7851C10.7849 10.8478 10.6305 10.8741 10.4767 10.8614L10.527 10.8225C10.6972 10.6904 10.8421 10.5285 10.9546 10.3446L11.2833 10.5027ZM10.8041 9.36373L10.8524 9.32634L10.8533 9.38741C10.8555 9.54597 10.831 9.70377 10.7809 9.85421L10.4847 9.71174C10.5709 9.57865 10.6789 9.46101 10.8041 9.36373H10.8041ZM10.5548 9.03159C10.5797 9.03159 10.6047 9.03297 10.6297 9.03503L10.5797 9.0738C10.4094 9.20594 10.2645 9.36788 10.152 9.55174L9.82372 9.3938C9.90949 9.28126 10.0201 9.19002 10.1469 9.1272C10.2737 9.06438 10.4132 9.03166 10.5547 9.03159H10.5548ZM9.99309 9.88214C9.91966 10.0848 9.88359 10.299 9.88665 10.5145L9.88763 10.5787C9.78157 10.4665 9.7055 10.3293 9.66647 10.1799C9.62743 10.0305 9.62668 9.87373 9.66429 9.72397L9.99309 9.88214ZM8.77364 11.5333L8.93259 11.2029L10.5847 11.9976L10.4257 12.328L8.77364 11.5333ZM10.5879 5.19604C10.4805 5.08891 10.335 5.02874 10.1832 5.02874C10.0315 5.02874 9.88603 5.08891 9.77862 5.19604C9.74004 5.23454 9.68776 5.25615 9.63327 5.25615C9.57877 5.25615 9.52649 5.23454 9.48791 5.19604L9.44208 5.15021C9.20086 4.90956 8.87403 4.77441 8.5333 4.77441C8.19256 4.77441 7.86574 4.90956 7.62452 5.15021C7.57545 5.19955 7.51708 5.23867 7.4528 5.2653C7.38851 5.29193 7.31958 5.30554 7.25 5.30535V5.67201C7.36775 5.67233 7.4844 5.64929 7.59319 5.60423C7.70198 5.55917 7.80075 5.49298 7.88379 5.40948C8.05618 5.23748 8.28977 5.14088 8.5333 5.14088C8.77683 5.14088 9.01041 5.23748 9.18281 5.40948L9.22864 5.45532C9.33604 5.56246 9.48156 5.62262 9.63327 5.62262C9.78497 5.62262 9.93049 5.56246 10.0379 5.45532C10.0765 5.41681 10.1287 5.39518 10.1832 5.39518C10.2378 5.39518 10.29 5.41681 10.3286 5.45532L10.6665 5.79321C11.3236 6.454 12.206 6.84226 13.1372 6.8803C13.216 7.18592 13.2664 7.49818 13.2878 7.81308L13.6536 7.78814C13.6051 7.0616 13.4115 6.35215 13.0841 5.70171L12.7565 5.86629C12.8604 6.07324 12.9501 6.287 13.025 6.50611C12.2316 6.44317 11.487 6.09831 10.9258 5.53394L10.5879 5.19604Z" fill="#4EB9F8"/>
<path d="M8.98813 3.55673L12.0417 5.42278C12.1469 5.48742 12.2709 5.51465 12.3935 5.50006C12.5161 5.48548 12.6302 5.42993 12.7174 5.34241L13.4299 4.62991C13.4469 4.61288 13.4604 4.59267 13.4696 4.57043C13.4789 4.54819 13.4836 4.52435 13.4836 4.50027C13.4836 4.4762 13.4789 4.45236 13.4696 4.43011C13.4604 4.40787 13.4469 4.38766 13.4299 4.37064L13.0632 4.00398C13.0333 3.97402 12.9938 3.95536 12.9517 3.95118C12.9095 3.947 12.8672 3.95756 12.8319 3.98106L12.3836 4.27996L11.5466 3.72195L11.9803 3.14364C12.0068 3.10834 12.0196 3.06467 12.0165 3.02065C12.0134 2.97663 11.9945 2.93522 11.9633 2.90401L11.7799 2.72068C11.7527 2.69348 11.7177 2.67552 11.6797 2.66936C11.6417 2.6632 11.6027 2.66914 11.5683 2.68635L10.5584 3.19131L10.219 2.98765C10.0437 2.88225 9.83827 2.83856 9.63532 2.86355C9.43237 2.88853 9.24363 2.98076 9.0992 3.12552L8.95408 3.27064C8.93447 3.29026 8.91956 3.31406 8.91049 3.34027C8.90141 3.36648 8.8984 3.3944 8.90168 3.42194C8.90495 3.44948 8.91444 3.47592 8.92941 3.49926C8.94439 3.5226 8.96447 3.54227 8.98813 3.55673Z" fill="#4EB9F8"/>
</svg>
