<svg width="7" height="13" viewBox="0 0 7 13" fill="none" xmlns="http://www.w3.org/2000/svg">
<path d="M5.375 7.125V2.125C5.375 1.62772 5.17746 1.15081 4.82583 0.799175C4.47419 0.447544 3.99728 0.25 3.5 0.25C3.00272 0.25 2.5258 0.447544 2.17417 0.799175C1.82254 1.15081 1.625 1.62772 1.625 2.125V7.125C1.10029 7.51853 0.712708 8.06718 0.517145 8.69323C0.321582 9.31927 0.327956 9.99099 0.535365 10.6132C0.742773 11.2354 1.1407 11.7766 1.67278 12.1601C2.20486 12.5436 2.84412 12.75 3.5 12.75C4.15588 12.75 4.79514 12.5436 5.32722 12.1601C5.8593 11.7766 6.25723 11.2354 6.46463 10.6132C6.67204 9.99099 6.67842 9.31927 6.48285 8.69323C6.28729 8.06718 5.89971 7.51853 5.375 7.125ZM3.5 1.5C3.66576 1.5 3.82473 1.56585 3.94194 1.68306C4.05915 1.80027 4.125 1.95924 4.125 2.125V4H2.875V2.125C2.875 1.95924 2.94085 1.80027 3.05806 1.68306C3.17527 1.56585 3.33424 1.5 3.5 1.5Z" fill="#045284"/>
</svg>
