<svg width="28" height="28" viewBox="0 0 28 28" fill="none" xmlns="http://www.w3.org/2000/svg">
<path fill-rule="evenodd" clip-rule="evenodd" d="M16.7584 24.5534C16.5947 24.0875 16.2716 23.6945 15.8461 23.4439C15.4206 23.1932 14.9201 23.1012 14.4333 23.184C13.9465 23.2669 13.5046 23.5192 13.1859 23.8965C12.8673 24.2737 12.6923 24.7515 12.6919 25.2453C12.6929 25.7688 12.8901 26.2729 13.2446 26.6581C13.599 27.0433 14.085 27.2816 14.6066 27.3261C15.1281 27.3706 15.6474 27.2179 16.062 26.8982C16.4765 26.5785 16.7561 26.1151 16.8457 25.5993C22.7931 24.6141 27.3343 19.4422 27.3343 13.2176C27.3343 11.8862 27.1262 10.6024 26.7413 9.39804C26.6973 9.26825 26.6041 9.16094 26.4817 9.09918C26.3594 9.03743 26.2177 9.02618 26.0871 9.06785C25.9565 9.10952 25.8475 9.20079 25.7836 9.322C25.7196 9.44322 25.7058 9.5847 25.7451 9.71599C26.1063 10.8481 26.2896 12.0293 26.2885 13.2176C26.2885 18.8947 22.1682 23.6169 16.7584 24.5534ZM2.24146 13.6768C2.43756 19.1258 6.11542 23.6943 11.1148 25.2223C11.2463 25.2593 11.3871 25.2434 11.507 25.1779C11.627 25.1124 11.7165 25.0026 11.7565 24.8719C11.7965 24.7412 11.7837 24.6001 11.721 24.4787C11.6582 24.3573 11.5504 24.2653 11.4207 24.2224C6.84806 22.8246 3.48188 18.6526 3.28787 13.6721C3.77891 13.5422 4.20594 13.2381 4.48931 12.8166C4.77267 12.3951 4.89303 11.8849 4.82793 11.3811C4.76283 10.8774 4.51671 10.4145 4.13548 10.0789C3.75426 9.74328 3.26396 9.55778 2.75604 9.55702C2.24643 9.55757 1.75454 9.7441 1.3727 10.0816C0.99086 10.4191 0.745315 10.8843 0.682153 11.39C0.618992 11.8957 0.742556 12.407 1.02965 12.8281C1.31675 13.2491 1.74765 13.5509 2.24146 13.6768ZM16.8394 19.0625C17.4343 19.2414 18.0628 19.2787 18.6747 19.1715C19.2866 19.0642 19.8649 18.8154 20.3635 18.4449C20.8622 18.0743 21.2672 17.5924 21.5464 17.0374C21.8256 16.4825 21.9712 15.8699 21.9716 15.2487C21.9716 12.3056 20.1868 9.62552 18.3758 7.63625C18.2991 7.55198 18.197 7.49506 18.0851 7.47414C17.9731 7.45322 17.8573 7.46945 17.7554 7.52035C17.6535 7.57125 17.5709 7.65405 17.5204 7.75615C17.4698 7.85825 17.454 7.97406 17.4753 8.08598C17.7106 9.32117 17.2944 10.1819 16.7071 10.9203C15.7925 8.99956 14.4731 7.26339 13.1464 5.80595C13.0697 5.72168 12.9676 5.66476 12.8556 5.64384C12.7436 5.62292 12.6279 5.63915 12.5259 5.69005C12.424 5.74095 12.3415 5.82375 12.291 5.92585C12.2404 6.02795 12.2246 6.14376 12.2459 6.25568C12.671 8.48603 11.5755 9.84045 10.4067 11.0814C9.75196 11.7759 9.06952 12.4374 8.54919 13.1653C7.97814 13.9628 7.59587 14.8377 7.59587 15.8977C7.59587 18.7477 9.90937 21.0618 12.7599 21.0618C13.5474 21.0622 14.3246 20.8822 15.0317 20.5357C15.7389 20.1891 16.3572 19.6852 16.8394 19.0625ZM12.8499 13.3782L11.6074 18.0156C11.5714 18.1496 11.5902 18.2924 11.6596 18.4125C11.7289 18.5326 11.8431 18.6203 11.9771 18.6562C12.1111 18.6921 12.2538 18.6734 12.374 18.604C12.4941 18.5347 12.5818 18.4205 12.6177 18.2865L13.8602 13.649C13.878 13.5827 13.8825 13.5135 13.8736 13.4454C13.8646 13.3773 13.8423 13.3117 13.808 13.2522C13.7737 13.1927 13.728 13.1405 13.6735 13.0987C13.619 13.0569 13.5568 13.0262 13.4905 13.0084C13.3565 12.9725 13.2137 12.9913 13.0936 13.0606C12.9735 13.13 12.8858 13.2442 12.8499 13.3782ZM17.4173 18.1296C17.8431 18.2139 18.2823 18.2028 18.7033 18.0971C19.1243 17.9914 19.5167 17.7936 19.8522 17.5182C20.1877 17.2427 20.4579 16.8963 20.6436 16.5039C20.8292 16.1115 20.9255 15.6828 20.9257 15.2487C20.9257 13.0811 19.8306 11.0856 18.5395 9.44406C18.3711 10.4732 17.8152 11.2691 17.1668 11.9934C17.639 13.2375 17.924 14.5464 17.924 15.8977C17.925 16.6703 17.7518 17.4332 17.4173 18.1296ZM10.3858 17.9712C10.6064 17.9712 10.8181 17.8835 10.9741 17.7275C11.1301 17.5714 11.2178 17.3598 11.2178 17.1392C11.2178 16.9185 11.1301 16.7069 10.9741 16.5508C10.8181 16.3948 10.6064 16.3072 10.3858 16.3072C10.1651 16.3072 9.95349 16.3948 9.79746 16.5508C9.64143 16.7069 9.55377 16.9185 9.55377 17.1392C9.55377 17.3598 9.64143 17.5714 9.79746 17.7275C9.95349 17.8835 10.1651 17.9712 10.3858 17.9712ZM15.0452 15.6179C15.1544 15.6179 15.2625 15.5964 15.3634 15.5546C15.4643 15.5128 15.5559 15.4516 15.6331 15.3744C15.7103 15.2972 15.7716 15.2055 15.8134 15.1046C15.8552 15.0038 15.8767 14.8956 15.8767 14.7864C15.8767 14.6773 15.8552 14.5691 15.8134 14.4683C15.7716 14.3674 15.7103 14.2757 15.6331 14.1985C15.5559 14.1213 15.4643 14.06 15.3634 14.0183C15.2625 13.9765 15.1544 13.955 15.0452 13.955C14.8247 13.955 14.6132 14.0426 14.4572 14.1985C14.3013 14.3544 14.2137 14.5659 14.2137 14.7864C14.2137 15.007 14.3013 15.2185 14.4572 15.3744C14.6132 15.5303 14.8247 15.6179 15.0452 15.6179ZM23.0248 5.19358C22.7991 5.5059 22.6641 5.87445 22.6346 6.25861C22.6051 6.64277 22.6823 7.02761 22.8576 7.37072C23.0328 7.71383 23.2995 8.00187 23.628 8.2031C23.9566 8.40433 24.3343 8.51092 24.7196 8.51113C25.8743 8.51113 26.8114 7.57402 26.8114 6.41936C26.8113 6.06748 26.7224 5.72132 26.5529 5.4129C26.3835 5.10449 26.1391 4.84378 25.8422 4.6549C25.5453 4.46603 25.2055 4.35508 24.8544 4.33233C24.5032 4.30958 24.152 4.37576 23.8332 4.52474C21.549 2.14744 18.3376 0.666992 14.7837 0.666992C9.59926 0.666992 5.14484 3.8172 3.23191 8.30614C3.18456 8.4324 3.18776 8.57206 3.24084 8.69602C3.29392 8.81998 3.39279 8.91867 3.51685 8.97153C3.64091 9.02439 3.78057 9.02734 3.90675 8.97976C4.03292 8.93217 4.13587 8.83774 4.19413 8.71613C5.94808 4.60109 10.0312 1.71288 14.7837 1.71288C16.3205 1.71134 17.8419 2.01867 19.2576 2.6166C20.6733 3.21454 21.9544 4.09088 23.0248 5.19358Z" fill="#045284"/>
</svg>
