<svg width="40" height="40" viewBox="0 0 40 40" fill="none" xmlns="http://www.w3.org/2000/svg">
<path d="M29.6295 5.96771C30.0343 5.56033 30.5156 5.23703 31.0458 5.01641C31.576 4.79579 32.1446 4.68221 32.7189 4.68221C33.2932 4.68221 33.8618 4.79579 34.392 5.01641C34.9222 5.23703 35.4035 5.56033 35.8083 5.96771C35.9261 6.08156 36.084 6.14456 36.2479 6.14313C36.4118 6.14171 36.5685 6.07598 36.6844 5.9601C36.8003 5.84422 36.866 5.68746 36.8674 5.52359C36.8689 5.35972 36.8059 5.20184 36.692 5.08396C35.6367 4.03325 34.2081 3.44336 32.7189 3.44336C31.2297 3.44336 29.8011 4.03325 28.7458 5.08396C28.6319 5.20184 28.5689 5.35972 28.5703 5.52359C28.5718 5.68746 28.6375 5.84422 28.7534 5.9601C28.8693 6.07598 29.026 6.14171 29.1899 6.14313C29.3538 6.14456 29.5116 6.08156 29.6295 5.96771Z" fill="#045284"/>
<path d="M30.5106 6.8436C30.3958 6.96071 30.3316 7.11826 30.3319 7.28227C30.3322 7.44627 30.3969 7.6036 30.5121 7.72031C30.6274 7.83702 30.7839 7.90375 30.9478 7.90612C31.1118 7.90849 31.2702 7.84631 31.3888 7.73298C31.7471 7.39095 32.2234 7.20012 32.7188 7.20012C33.2141 7.20012 33.6904 7.39095 34.0488 7.73298C34.1674 7.84628 34.3258 7.9084 34.4898 7.90594C34.6538 7.90348 34.8103 7.83663 34.9255 7.71982C35.0407 7.60301 35.1053 7.4456 35.1054 7.28155C35.1056 7.11751 35.0412 6.95999 34.9263 6.84298C34.3379 6.26278 33.5448 5.9375 32.7184 5.9375C31.8921 5.9375 31.099 6.2634 30.5106 6.8436ZM36.25 9.05673H3.75C3.42167 9.05665 3.09655 9.12125 2.79319 9.24686C2.48984 9.37247 2.21421 9.55662 1.98205 9.78878C1.74989 10.0209 1.56574 10.2966 1.44013 10.5999C1.31453 10.9033 1.24992 11.2284 1.25 11.5567V34.0567C1.24992 34.3851 1.31453 34.7102 1.44013 35.0135C1.56574 35.3169 1.74989 35.5925 1.98205 35.8247C2.21421 36.0568 2.48984 36.241 2.79319 36.3666C3.09655 36.4922 3.42167 36.5568 3.75 36.5567H36.25C36.5783 36.5568 36.9035 36.4922 37.2068 36.3666C37.5102 36.241 37.7858 36.0568 38.018 35.8247C38.2501 35.5925 38.4343 35.3169 38.5599 35.0135C38.6855 34.7102 38.7501 34.3851 38.75 34.0567V11.5567C38.7501 11.2284 38.6855 10.9033 38.5599 10.5999C38.4343 10.2966 38.2501 10.0209 38.018 9.78878C37.7858 9.55662 37.5102 9.37247 37.2068 9.24686C36.9035 9.12125 36.5783 9.05665 36.25 9.05673ZM33.75 14.6817H35C35.1658 14.6817 35.3247 14.7476 35.4419 14.8648C35.5592 14.982 35.625 15.141 35.625 15.3067C35.625 15.4725 35.5592 15.6315 35.4419 15.7487C35.3247 15.8659 35.1658 15.9317 35 15.9317H33.75C33.5842 15.9317 33.4253 15.8659 33.3081 15.7487C33.1908 15.6315 33.125 15.4725 33.125 15.3067C33.125 15.141 33.1908 14.982 33.3081 14.8648C33.4253 14.7476 33.5842 14.6817 33.75 14.6817ZM33.75 17.1817H35C35.1658 17.1817 35.3247 17.2476 35.4419 17.3648C35.5592 17.482 35.625 17.641 35.625 17.8067C35.625 17.9725 35.5592 18.1315 35.4419 18.2487C35.3247 18.3659 35.1658 18.4317 35 18.4317H33.75C33.5842 18.4317 33.4253 18.3659 33.3081 18.2487C33.1908 18.1315 33.125 17.9725 33.125 17.8067C33.125 17.641 33.1908 17.482 33.3081 17.3648C33.4253 17.2476 33.5842 17.1817 33.75 17.1817ZM33.75 19.6817H35C35.1658 19.6817 35.3247 19.7476 35.4419 19.8648C35.5592 19.982 35.625 20.141 35.625 20.3067C35.625 20.4725 35.5592 20.6315 35.4419 20.7487C35.3247 20.8659 35.1658 20.9317 35 20.9317H33.75C33.5842 20.9317 33.4253 20.8659 33.3081 20.7487C33.1908 20.6315 33.125 20.4725 33.125 20.3067C33.125 20.141 33.1908 19.982 33.3081 19.8648C33.4253 19.7476 33.5842 19.6817 33.75 19.6817ZM30.625 14.6817H31.875C32.0408 14.6817 32.1997 14.7476 32.3169 14.8648C32.4342 14.982 32.5 15.141 32.5 15.3067C32.5 15.4725 32.4342 15.6315 32.3169 15.7487C32.1997 15.8659 32.0408 15.9317 31.875 15.9317H30.625C30.4592 15.9317 30.3003 15.8659 30.1831 15.7487C30.0658 15.6315 30 15.4725 30 15.3067C30 15.141 30.0658 14.982 30.1831 14.8648C30.3003 14.7476 30.4592 14.6817 30.625 14.6817ZM30.625 17.1817H31.875C32.0408 17.1817 32.1997 17.2476 32.3169 17.3648C32.4342 17.482 32.5 17.641 32.5 17.8067C32.5 17.9725 32.4342 18.1315 32.3169 18.2487C32.1997 18.3659 32.0408 18.4317 31.875 18.4317H30.625C30.4592 18.4317 30.3003 18.3659 30.1831 18.2487C30.0658 18.1315 30 17.9725 30 17.8067C30 17.641 30.0658 17.482 30.1831 17.3648C30.3003 17.2476 30.4592 17.1817 30.625 17.1817ZM30.625 19.6817H31.875C32.0408 19.6817 32.1997 19.7476 32.3169 19.8648C32.4342 19.982 32.5 20.141 32.5 20.3067C32.5 20.4725 32.4342 20.6315 32.3169 20.7487C32.1997 20.8659 32.0408 20.9317 31.875 20.9317H30.625C30.4592 20.9317 30.3003 20.8659 30.1831 20.7487C30.0658 20.6315 30 20.4725 30 20.3067C30 20.141 30.0658 19.982 30.1831 19.8648C30.3003 19.7476 30.4592 19.6817 30.625 19.6817ZM21.875 32.1817H10.625V30.9317C10.6304 29.7626 10.9981 28.624 11.6776 27.6725C12.357 26.7211 13.3147 26.0037 14.4187 25.6192C15.6042 26.0349 16.8958 26.0349 18.0812 25.6192C19.1853 26.0037 20.143 26.7211 20.8224 27.6725C21.5019 28.624 21.8696 29.7626 21.875 30.9317V32.1817ZM11.875 20.3067C11.8719 19.7085 11.9955 19.1163 12.2375 18.5692C12.574 18.8642 12.9842 19.0625 13.4245 19.1428C13.8647 19.2232 14.3185 19.1826 14.7375 19.0255C15.1393 18.8647 15.5859 18.8558 15.9937 19.0005C16.207 19.1042 16.382 19.2726 16.4937 19.4817C17.3062 20.8611 19.1094 20.9274 20.6188 20.4442C20.2556 26.1405 12.0669 26.0099 11.875 20.3067ZM26.875 31.5567C26.8745 31.7223 26.8085 31.881 26.6914 31.9981C26.5743 32.1152 26.4156 32.1812 26.25 32.1817H23.125V30.9317C23.1308 29.6908 22.7973 28.4718 22.1606 27.4066C21.5239 26.3414 20.6082 25.4705 19.5125 24.888C23.9175 21.7592 21.7238 14.7005 16.25 14.6817C10.7581 14.7105 8.59375 21.7724 12.9875 24.888C11.8918 25.4705 10.9761 26.3414 10.3394 27.4066C9.70267 28.4718 9.3692 29.6908 9.375 30.9317V32.1817H5.625C5.45939 32.1812 5.30071 32.1152 5.1836 31.9981C5.0665 31.881 5.00049 31.7223 5 31.5567V14.0567C5.00049 13.8911 5.0665 13.7324 5.1836 13.6153C5.30071 13.4982 5.45939 13.4322 5.625 13.4317H26.25C26.4156 13.4322 26.5743 13.4982 26.6914 13.6153C26.8085 13.7324 26.8745 13.8911 26.875 14.0567V31.5567ZM32.8125 30.9317C31.9013 30.9301 31.0279 30.5674 30.3836 29.9231C29.7393 29.2788 29.3767 28.4054 29.375 27.4942C29.5387 22.9455 36.0875 22.9467 36.25 27.4942C36.2483 28.4054 35.8857 29.2788 35.2414 29.9231C34.5971 30.5674 33.7237 30.9301 32.8125 30.9317Z" fill="#045284"/>
</svg>
