<svg width="18" height="18" viewBox="0 0 18 18" fill="none" xmlns="http://www.w3.org/2000/svg">
<path d="M13.8984 2.08456C13.6377 2.19302 13.401 2.35182 13.2018 2.55185C13.1843 2.56832 13.161 2.57742 13.1369 2.57721C13.1123 2.577 13.0888 2.56714 13.0714 2.54976C13.054 2.53237 13.0442 2.50886 13.0439 2.48428C13.0437 2.46016 13.0528 2.4369 13.0693 2.41933C13.5089 1.98251 14.1035 1.7373 14.7233 1.7373C15.3431 1.7373 15.9377 1.98251 16.3773 2.41933C16.3938 2.4369 16.4029 2.46016 16.4027 2.48428C16.4024 2.50886 16.3926 2.53237 16.3752 2.54975L16.5078 2.68234L16.3752 2.54976C16.3578 2.56714 16.3343 2.577 16.3097 2.57721C16.2856 2.57742 16.2623 2.56832 16.2448 2.55185C16.0456 2.35182 15.8089 2.19302 15.5482 2.08456C15.2868 1.97579 15.0064 1.91979 14.7233 1.91979C14.4402 1.91979 14.1598 1.97579 13.8984 2.08456Z" fill="white" stroke="white" stroke-width="0.375"/>
<mask id="path-2-inside-1_3210_918" fill="white">
<path d="M13.7298 3.07962C13.6781 3.13232 13.6492 3.20322 13.6493 3.27702C13.6495 3.35082 13.6786 3.42162 13.7305 3.47414C13.7823 3.52666 13.8527 3.55669 13.9265 3.55776C14.0003 3.55882 14.0716 3.53084 14.1249 3.47984C14.2862 3.32593 14.5005 3.24005 14.7234 3.24005C14.9463 3.24005 15.1607 3.32593 15.3219 3.47984C15.3753 3.53083 15.4466 3.55878 15.5204 3.55767C15.5942 3.55657 15.6646 3.52648 15.7165 3.47392C15.7683 3.42135 15.7974 3.35052 15.7974 3.2767C15.7975 3.20288 15.7685 3.132 15.7168 3.07934C15.452 2.81825 15.0951 2.67187 14.7233 2.67188C14.3514 2.67188 13.9945 2.81853 13.7298 3.07962ZM16.3125 4.07553H1.6875C1.53975 4.07549 1.39345 4.10456 1.25694 4.16109C1.12043 4.21761 0.996396 4.30048 0.891923 4.40495C0.787449 4.50942 0.704584 4.63346 0.64806 4.76997C0.591537 4.90647 0.562463 5.05278 0.5625 5.20053V15.3255C0.562463 15.4733 0.591537 15.6196 0.64806 15.7561C0.704584 15.8926 0.787449 16.0166 0.891923 16.1211C0.996396 16.2256 1.12043 16.3084 1.25694 16.365C1.39345 16.4215 1.53975 16.4506 1.6875 16.4505H16.3125C16.4602 16.4506 16.6066 16.4215 16.7431 16.365C16.8796 16.3084 17.0036 16.2256 17.1081 16.1211C17.2126 16.0166 17.2954 15.8926 17.3519 15.7561C17.4085 15.6196 17.4375 15.4733 17.4375 15.3255V5.20053C17.4375 5.05278 17.4085 4.90647 17.3519 4.76997C17.2954 4.63346 17.2126 4.50942 17.1081 4.40495C17.0036 4.30048 16.8796 4.21761 16.7431 4.16109C16.6066 4.10456 16.4602 4.07549 16.3125 4.07553ZM15.1875 6.60678H15.75C15.8246 6.60678 15.8961 6.63641 15.9489 6.68915C16.0016 6.7419 16.0312 6.81344 16.0312 6.88803C16.0312 6.96262 16.0016 7.03416 15.9489 7.0869C15.8961 7.13965 15.8246 7.16928 15.75 7.16928H15.1875C15.1129 7.16928 15.0414 7.13965 14.9886 7.0869C14.9359 7.03416 14.9062 6.96262 14.9062 6.88803C14.9062 6.81344 14.9359 6.7419 14.9886 6.68915C15.0414 6.63641 15.1129 6.60678 15.1875 6.60678ZM15.1875 7.73178H15.75C15.8246 7.73178 15.8961 7.76141 15.9489 7.81415C16.0016 7.8669 16.0312 7.93844 16.0312 8.01303C16.0312 8.08762 16.0016 8.15916 15.9489 8.2119C15.8961 8.26465 15.8246 8.29428 15.75 8.29428H15.1875C15.1129 8.29428 15.0414 8.26465 14.9886 8.2119C14.9359 8.15916 14.9062 8.08762 14.9062 8.01303C14.9062 7.93844 14.9359 7.8669 14.9886 7.81415C15.0414 7.76141 15.1129 7.73178 15.1875 7.73178ZM15.1875 8.85678H15.75C15.8246 8.85678 15.8961 8.88641 15.9489 8.93915C16.0016 8.9919 16.0312 9.06344 16.0312 9.13803C16.0312 9.21262 16.0016 9.28416 15.9489 9.3369C15.8961 9.38965 15.8246 9.41928 15.75 9.41928H15.1875C15.1129 9.41928 15.0414 9.38965 14.9886 9.3369C14.9359 9.28416 14.9062 9.21262 14.9062 9.13803C14.9062 9.06344 14.9359 8.9919 14.9886 8.93915C15.0414 8.88641 15.1129 8.85678 15.1875 8.85678ZM13.7812 6.60678H14.3438C14.4183 6.60678 14.4899 6.63641 14.5426 6.68915C14.5954 6.7419 14.625 6.81344 14.625 6.88803C14.625 6.96262 14.5954 7.03416 14.5426 7.0869C14.4899 7.13965 14.4183 7.16928 14.3438 7.16928H13.7812C13.7067 7.16928 13.6351 7.13965 13.5824 7.0869C13.5296 7.03416 13.5 6.96262 13.5 6.88803C13.5 6.81344 13.5296 6.7419 13.5824 6.68915C13.6351 6.63641 13.7067 6.60678 13.7812 6.60678ZM13.7812 7.73178H14.3438C14.4183 7.73178 14.4899 7.76141 14.5426 7.81415C14.5954 7.8669 14.625 7.93844 14.625 8.01303C14.625 8.08762 14.5954 8.15916 14.5426 8.2119C14.4899 8.26465 14.4183 8.29428 14.3438 8.29428H13.7812C13.7067 8.29428 13.6351 8.26465 13.5824 8.2119C13.5296 8.15916 13.5 8.08762 13.5 8.01303C13.5 7.93844 13.5296 7.8669 13.5824 7.81415C13.6351 7.76141 13.7067 7.73178 13.7812 7.73178ZM13.7812 8.85678H14.3438C14.4183 8.85678 14.4899 8.88641 14.5426 8.93915C14.5954 8.9919 14.625 9.06344 14.625 9.13803C14.625 9.21262 14.5954 9.28416 14.5426 9.3369C14.4899 9.38965 14.4183 9.41928 14.3438 9.41928H13.7812C13.7067 9.41928 13.6351 9.38965 13.5824 9.3369C13.5296 9.28416 13.5 9.21262 13.5 9.13803C13.5 9.06344 13.5296 8.9919 13.5824 8.93915C13.6351 8.88641 13.7067 8.85678 13.7812 8.85678ZM9.84375 14.4818H4.78125V13.9193C4.78368 13.3932 4.94916 12.8808 5.2549 12.4526C5.56064 12.0245 5.99161 11.7017 6.48844 11.5287C7.02189 11.7157 7.60311 11.7157 8.13656 11.5287C8.63339 11.7017 9.06436 12.0245 9.3701 12.4526C9.67584 12.8808 9.84132 13.3932 9.84375 13.9193V14.4818ZM5.34375 9.13803C5.34236 8.86881 5.39796 8.60235 5.50688 8.35615C5.6583 8.48891 5.8429 8.57811 6.041 8.61427C6.23911 8.65042 6.44332 8.63217 6.63188 8.56147C6.81267 8.48909 7.01365 8.48509 7.19719 8.55021C7.29314 8.59689 7.37188 8.67268 7.42219 8.76678C7.78781 9.3875 8.59922 9.41731 9.27844 9.1999C9.11503 11.7632 5.43009 11.7044 5.34375 9.13803ZM12.0938 14.2005C12.0935 14.2751 12.0638 14.3465 12.0111 14.3992C11.9584 14.4519 11.887 14.4816 11.8125 14.4818H10.4062V13.9193C10.4089 13.3608 10.2588 12.8123 9.97229 12.333C9.68578 11.8537 9.27371 11.4617 8.78062 11.1996C10.7629 9.79165 9.77569 6.61522 7.3125 6.60678C4.84116 6.61971 3.86719 9.79756 5.84438 11.1996C5.35129 11.4617 4.93922 11.8537 4.65271 12.333C4.3662 12.8123 4.21614 13.3608 4.21875 13.9193V14.4818H2.53125C2.45673 14.4816 2.38532 14.4519 2.33262 14.3992C2.27993 14.3465 2.25022 14.2751 2.25 14.2005V6.32553C2.25022 6.251 2.27993 6.1796 2.33262 6.1269C2.38532 6.0742 2.45673 6.0445 2.53125 6.04428H11.8125C11.887 6.0445 11.9584 6.0742 12.0111 6.1269C12.0638 6.1796 12.0935 6.251 12.0938 6.32553V14.2005ZM14.7656 13.9193C14.3556 13.9185 13.9626 13.7553 13.6726 13.4654C13.3827 13.1755 13.2195 12.7824 13.2188 12.3724C13.2924 10.3255 16.2394 10.326 16.3125 12.3724C16.3118 12.7824 16.1485 13.1755 15.8586 13.4654C15.5687 13.7553 15.1757 13.9185 14.7656 13.9193Z"/>
</mask>
<path d="M13.7298 3.07962C13.6781 3.13232 13.6492 3.20322 13.6493 3.27702C13.6495 3.35082 13.6786 3.42162 13.7305 3.47414C13.7823 3.52666 13.8527 3.55669 13.9265 3.55776C14.0003 3.55882 14.0716 3.53084 14.1249 3.47984C14.2862 3.32593 14.5005 3.24005 14.7234 3.24005C14.9463 3.24005 15.1607 3.32593 15.3219 3.47984C15.3753 3.53083 15.4466 3.55878 15.5204 3.55767C15.5942 3.55657 15.6646 3.52648 15.7165 3.47392C15.7683 3.42135 15.7974 3.35052 15.7974 3.2767C15.7975 3.20288 15.7685 3.132 15.7168 3.07934C15.452 2.81825 15.0951 2.67187 14.7233 2.67188C14.3514 2.67188 13.9945 2.81853 13.7298 3.07962ZM16.3125 4.07553H1.6875C1.53975 4.07549 1.39345 4.10456 1.25694 4.16109C1.12043 4.21761 0.996396 4.30048 0.891923 4.40495C0.787449 4.50942 0.704584 4.63346 0.64806 4.76997C0.591537 4.90647 0.562463 5.05278 0.5625 5.20053V15.3255C0.562463 15.4733 0.591537 15.6196 0.64806 15.7561C0.704584 15.8926 0.787449 16.0166 0.891923 16.1211C0.996396 16.2256 1.12043 16.3084 1.25694 16.365C1.39345 16.4215 1.53975 16.4506 1.6875 16.4505H16.3125C16.4602 16.4506 16.6066 16.4215 16.7431 16.365C16.8796 16.3084 17.0036 16.2256 17.1081 16.1211C17.2126 16.0166 17.2954 15.8926 17.3519 15.7561C17.4085 15.6196 17.4375 15.4733 17.4375 15.3255V5.20053C17.4375 5.05278 17.4085 4.90647 17.3519 4.76997C17.2954 4.63346 17.2126 4.50942 17.1081 4.40495C17.0036 4.30048 16.8796 4.21761 16.7431 4.16109C16.6066 4.10456 16.4602 4.07549 16.3125 4.07553ZM15.1875 6.60678H15.75C15.8246 6.60678 15.8961 6.63641 15.9489 6.68915C16.0016 6.7419 16.0312 6.81344 16.0312 6.88803C16.0312 6.96262 16.0016 7.03416 15.9489 7.0869C15.8961 7.13965 15.8246 7.16928 15.75 7.16928H15.1875C15.1129 7.16928 15.0414 7.13965 14.9886 7.0869C14.9359 7.03416 14.9062 6.96262 14.9062 6.88803C14.9062 6.81344 14.9359 6.7419 14.9886 6.68915C15.0414 6.63641 15.1129 6.60678 15.1875 6.60678ZM15.1875 7.73178H15.75C15.8246 7.73178 15.8961 7.76141 15.9489 7.81415C16.0016 7.8669 16.0312 7.93844 16.0312 8.01303C16.0312 8.08762 16.0016 8.15916 15.9489 8.2119C15.8961 8.26465 15.8246 8.29428 15.75 8.29428H15.1875C15.1129 8.29428 15.0414 8.26465 14.9886 8.2119C14.9359 8.15916 14.9062 8.08762 14.9062 8.01303C14.9062 7.93844 14.9359 7.8669 14.9886 7.81415C15.0414 7.76141 15.1129 7.73178 15.1875 7.73178ZM15.1875 8.85678H15.75C15.8246 8.85678 15.8961 8.88641 15.9489 8.93915C16.0016 8.9919 16.0312 9.06344 16.0312 9.13803C16.0312 9.21262 16.0016 9.28416 15.9489 9.3369C15.8961 9.38965 15.8246 9.41928 15.75 9.41928H15.1875C15.1129 9.41928 15.0414 9.38965 14.9886 9.3369C14.9359 9.28416 14.9062 9.21262 14.9062 9.13803C14.9062 9.06344 14.9359 8.9919 14.9886 8.93915C15.0414 8.88641 15.1129 8.85678 15.1875 8.85678ZM13.7812 6.60678H14.3438C14.4183 6.60678 14.4899 6.63641 14.5426 6.68915C14.5954 6.7419 14.625 6.81344 14.625 6.88803C14.625 6.96262 14.5954 7.03416 14.5426 7.0869C14.4899 7.13965 14.4183 7.16928 14.3438 7.16928H13.7812C13.7067 7.16928 13.6351 7.13965 13.5824 7.0869C13.5296 7.03416 13.5 6.96262 13.5 6.88803C13.5 6.81344 13.5296 6.7419 13.5824 6.68915C13.6351 6.63641 13.7067 6.60678 13.7812 6.60678ZM13.7812 7.73178H14.3438C14.4183 7.73178 14.4899 7.76141 14.5426 7.81415C14.5954 7.8669 14.625 7.93844 14.625 8.01303C14.625 8.08762 14.5954 8.15916 14.5426 8.2119C14.4899 8.26465 14.4183 8.29428 14.3438 8.29428H13.7812C13.7067 8.29428 13.6351 8.26465 13.5824 8.2119C13.5296 8.15916 13.5 8.08762 13.5 8.01303C13.5 7.93844 13.5296 7.8669 13.5824 7.81415C13.6351 7.76141 13.7067 7.73178 13.7812 7.73178ZM13.7812 8.85678H14.3438C14.4183 8.85678 14.4899 8.88641 14.5426 8.93915C14.5954 8.9919 14.625 9.06344 14.625 9.13803C14.625 9.21262 14.5954 9.28416 14.5426 9.3369C14.4899 9.38965 14.4183 9.41928 14.3438 9.41928H13.7812C13.7067 9.41928 13.6351 9.38965 13.5824 9.3369C13.5296 9.28416 13.5 9.21262 13.5 9.13803C13.5 9.06344 13.5296 8.9919 13.5824 8.93915C13.6351 8.88641 13.7067 8.85678 13.7812 8.85678ZM9.84375 14.4818H4.78125V13.9193C4.78368 13.3932 4.94916 12.8808 5.2549 12.4526C5.56064 12.0245 5.99161 11.7017 6.48844 11.5287C7.02189 11.7157 7.60311 11.7157 8.13656 11.5287C8.63339 11.7017 9.06436 12.0245 9.3701 12.4526C9.67584 12.8808 9.84132 13.3932 9.84375 13.9193V14.4818ZM5.34375 9.13803C5.34236 8.86881 5.39796 8.60235 5.50688 8.35615C5.6583 8.48891 5.8429 8.57811 6.041 8.61427C6.23911 8.65042 6.44332 8.63217 6.63188 8.56147C6.81267 8.48909 7.01365 8.48509 7.19719 8.55021C7.29314 8.59689 7.37188 8.67268 7.42219 8.76678C7.78781 9.3875 8.59922 9.41731 9.27844 9.1999C9.11503 11.7632 5.43009 11.7044 5.34375 9.13803ZM12.0938 14.2005C12.0935 14.2751 12.0638 14.3465 12.0111 14.3992C11.9584 14.4519 11.887 14.4816 11.8125 14.4818H10.4062V13.9193C10.4089 13.3608 10.2588 12.8123 9.97229 12.333C9.68578 11.8537 9.27371 11.4617 8.78062 11.1996C10.7629 9.79165 9.77569 6.61522 7.3125 6.60678C4.84116 6.61971 3.86719 9.79756 5.84438 11.1996C5.35129 11.4617 4.93922 11.8537 4.65271 12.333C4.3662 12.8123 4.21614 13.3608 4.21875 13.9193V14.4818H2.53125C2.45673 14.4816 2.38532 14.4519 2.33262 14.3992C2.27993 14.3465 2.25022 14.2751 2.25 14.2005V6.32553C2.25022 6.251 2.27993 6.1796 2.33262 6.1269C2.38532 6.0742 2.45673 6.0445 2.53125 6.04428H11.8125C11.887 6.0445 11.9584 6.0742 12.0111 6.1269C12.0638 6.1796 12.0935 6.251 12.0938 6.32553V14.2005ZM14.7656 13.9193C14.3556 13.9185 13.9626 13.7553 13.6726 13.4654C13.3827 13.1755 13.2195 12.7824 13.2188 12.3724C13.2924 10.3255 16.2394 10.326 16.3125 12.3724C16.3118 12.7824 16.1485 13.1755 15.8586 13.4654C15.5687 13.7553 15.1757 13.9185 14.7656 13.9193Z" fill="white" stroke="white" stroke-width="0.75" mask="url(#path-2-inside-1_3210_918)"/>
</svg>
