<svg width="24" height="24" viewBox="0 0 24 24" fill="none" xmlns="http://www.w3.org/2000/svg">
<path d="M6.74911 8.58512V10.1229C5.7513 10.1229 4.85695 10.5609 4.23898 11.2512H13.0124C12.6971 10.8964 12.3103 10.6125 11.8775 10.418C11.4446 10.2236 10.9754 10.123 10.5008 10.1229V8.5837C10.8883 8.18363 11.1445 7.6748 11.235 7.12524C11.8657 7.12524 12.3746 6.615 12.3746 5.99845C12.3737 5.84162 12.3398 5.68673 12.2751 5.54387C12.2104 5.40102 12.1163 5.27339 11.999 5.1693V3.75195C11.9992 3.35791 11.9217 2.9677 11.7711 2.60359C11.6205 2.23947 11.3996 1.90859 11.1211 1.62984C10.8427 1.35108 10.512 1.12991 10.148 0.978944C9.78404 0.827981 9.3939 0.750186 8.99986 0.75H8.24867C6.5932 0.75 5.24814 2.09648 5.24814 3.75195V5.1693C5.13141 5.2737 5.03791 5.40145 4.9737 5.54429C4.90948 5.68712 4.87599 5.84185 4.87537 5.99845C4.87725 6.29868 4.99812 6.58592 5.21148 6.79715C5.42484 7.00838 5.71327 7.12638 6.0135 7.12524C6.10989 7.68935 6.36926 8.19534 6.74911 8.58512ZM9.73263 4.63354L10.5008 5.406V6.74965C10.5008 7.79423 9.67027 8.62622 8.62427 8.62622C8.37759 8.62754 8.13312 8.57988 7.905 8.486C7.67689 8.39213 7.46968 8.25391 7.29539 8.07935C7.12109 7.90479 6.98318 7.69737 6.88966 7.46912C6.79613 7.24086 6.74884 6.99631 6.75053 6.74965V5.62569H7.12471C8.49954 5.62569 9.47326 4.83197 9.73263 4.63354ZM9.75106 9.11804V10.1244C9.75106 10.1244 9.75106 10.8741 8.62427 10.8741C7.49889 10.8741 7.50031 10.1229 7.50031 10.1229V9.11946C7.85155 9.28792 8.23613 9.37538 8.62568 9.37538C9.01523 9.37538 9.39982 9.28651 9.75106 9.11804ZM2.9988 12.0009C2.70117 12.0024 2.41615 12.1213 2.20569 12.3318C1.99523 12.5422 1.87633 12.8273 1.87484 13.1249V19.4987H15.3751V13.1249C15.3732 12.8271 15.254 12.5421 15.0433 12.3317C14.8327 12.1213 14.5475 12.0024 14.2497 12.0009H2.9988ZM17.6188 14.246C17.5199 14.2479 17.4257 14.2887 17.3568 14.3595C17.2878 14.4304 17.2495 14.5256 17.2503 14.6244V16.1254C17.2389 16.6357 18.0128 16.6357 18.0015 16.1254V14.6244C18.002 14.5742 17.9925 14.5244 17.9734 14.4779C17.9544 14.4315 17.9261 14.3894 17.8904 14.354C17.8547 14.3187 17.8122 14.291 17.7656 14.2724C17.7189 14.2538 17.669 14.2449 17.6188 14.246ZM19.1197 14.246C19.0209 14.2479 18.9267 14.2887 18.8577 14.3595C18.7887 14.4304 18.7505 14.5256 18.7512 14.6244V16.1254C18.7512 16.6257 19.5024 16.6257 19.5024 16.1254V14.6244C19.503 14.5742 19.4935 14.5244 19.4744 14.4779C19.4553 14.4315 19.4271 14.3894 19.3914 14.354C19.3557 14.3187 19.3132 14.291 19.2666 14.2724C19.2199 14.2538 19.17 14.2449 19.1197 14.246ZM8.62427 15.0015C9.24081 15.0015 9.75106 15.5117 9.75106 16.1283C9.75106 16.7448 9.24081 17.2522 8.62427 17.2522C8.00772 17.2522 7.50031 16.7448 7.50031 16.1283C7.50031 15.5117 8.00772 15.0015 8.62427 15.0015ZM16.5005 17.2494C16.4512 17.2496 16.4024 17.2595 16.3569 17.2785C16.3114 17.2976 16.2701 17.3254 16.2353 17.3604C16.2006 17.3954 16.1731 17.4369 16.1544 17.4826C16.1356 17.5282 16.1261 17.5771 16.1263 17.6264V19.8771C16.1263 20.2995 16.2737 20.685 16.5104 20.9997H20.2409C20.4115 20.779 20.5302 20.5227 20.5881 20.2499H21.002C21.2994 20.248 21.584 20.129 21.7942 19.9186C22.0043 19.7081 22.123 19.4233 22.1245 19.126V18.3748C22.1245 18.2756 22.0854 18.1805 22.0155 18.1102C21.9457 18.0398 21.8509 17.9999 21.7518 17.9992H20.625V17.6264C20.6254 17.527 20.5863 17.4316 20.5165 17.3609C20.4466 17.2902 20.3516 17.2501 20.2522 17.2494H16.5005ZM20.625 18.7489H21.3762V19.126C21.3773 19.1753 21.3685 19.2245 21.35 19.2703C21.3316 19.3162 21.3041 19.3578 21.2691 19.3927C21.2341 19.4275 21.1924 19.4549 21.1464 19.4731C21.1005 19.4914 21.0514 19.5001 21.002 19.4987H20.625V18.7489ZM1.87342 20.2513C1.87342 20.5235 1.95421 20.7786 2.08461 20.9997H15.1668C15.2957 20.7786 15.3751 20.5235 15.3751 20.2499L1.87342 20.2513ZM1.12506 21.7495C1.07574 21.7493 1.02686 21.7588 0.981219 21.7775C0.935578 21.7962 0.894068 21.8237 0.859058 21.8585C0.824049 21.8932 0.796227 21.9345 0.777179 21.98C0.758132 22.0255 0.748233 22.0743 0.748047 22.1236V22.8748C0.748047 23.0832 0.916712 23.2519 1.12506 23.2504H22.8757C23.0827 23.2504 23.2499 23.0804 23.2485 22.8748V22.1236C23.2481 22.0248 23.2088 21.93 23.139 21.86C23.0692 21.7899 22.9746 21.7502 22.8757 21.7495H1.12506Z" fill="white"/>
</svg>
